<?xml version="1.0" encoding="utf-8" standalone="no"?>
<!DOCTYPE svg PUBLIC "-//W3C//DTD SVG 1.1//EN"
  "http://www.w3.org/Graphics/SVG/1.1/DTD/svg11.dtd">
<svg xmlns:xlink="http://www.w3.org/1999/xlink" width="340.56pt" height="340.56pt" viewBox="0 0 340.56 340.56" xmlns="http://www.w3.org/2000/svg" version="1.1">
 <metadata>
  <rdf:RDF xmlns:dc="http://purl.org/dc/elements/1.1/" xmlns:cc="http://creativecommons.org/ns#" xmlns:rdf="http://www.w3.org/1999/02/22-rdf-syntax-ns#">
   <cc:Work>
    <dc:type rdf:resource="http://purl.org/dc/dcmitype/StillImage"/>
    <dc:date>2022-01-27T10:12:46.165022</dc:date>
    <dc:format>image/svg+xml</dc:format>
    <dc:creator>
     <cc:Agent>
      <dc:title>Matplotlib v3.5.1, https://matplotlib.org/</dc:title>
     </cc:Agent>
    </dc:creator>
   </cc:Work>
  </rdf:RDF>
 </metadata>
 <defs>
  <style type="text/css">*{stroke-linejoin: round; stroke-linecap: butt}</style>
 </defs>
 <g id="figure_1">
  <g id="patch_1">
   <path d="M 0 340.56 
L 340.56 340.56 
L 340.56 0 
L 0 0 
L 0 340.56 
z
" style="fill: none"/>
  </g>
  <g id="patch_2">
   <path d="M 7.2 333.36 
L 333.36 333.36 
L 333.36 7.2 
L 7.2 7.2 
z
" style="fill: #ffffff"/>
  </g>
  <g id="axes_1">
   <g id="line2d_1">
    <path d="M 231.884324 262.276734 
L 232.168781 213.030032 
" clip-path="url(#p619c0f5a90)" style="fill: none; stroke: #0000ff; stroke-width: 1.5; stroke-linecap: square"/>
   </g>
   <g id="line2d_2">
    <path d="M 231.884324 262.276734 
L 140.947186 254.833448 
" clip-path="url(#p619c0f5a90)" style="fill: none; stroke: #0000ff; stroke-width: 1.5; stroke-linecap: square"/>
   </g>
   <g id="line2d_3">
    <path d="M 232.168781 213.030032 
L 140.947186 254.833448 
" clip-path="url(#p619c0f5a90)" style="fill: none; stroke: #0000ff; stroke-width: 1.5; stroke-linecap: square"/>
   </g>
   <g id="line2d_4">
    <path d="M 140.947186 254.833448 
L 78.620989 234.782236 
" clip-path="url(#p619c0f5a90)" style="fill: none; stroke: #000000; stroke-width: 1.5; stroke-linecap: square"/>
   </g>
   <g id="line2d_5">
    <path d="M 232.168781 213.030032 
L 272.293649 95.858323 
" clip-path="url(#p619c0f5a90)" style="fill: none; stroke: #000000; stroke-width: 1.5; stroke-linecap: square"/>
   </g>
   <g id="line2d_6">
    <path d="M 78.620989 234.782236 
L 124.634559 211.409172 
" clip-path="url(#p619c0f5a90)" style="fill: none; stroke: #000000; stroke-width: 1.5; stroke-linecap: square"/>
   </g>
   <g id="line2d_7">
    <path d="M 78.620989 234.782236 
L 124.197252 124.450167 
" clip-path="url(#p619c0f5a90)" style="fill: none; stroke: #000000; stroke-width: 1.5; stroke-linecap: square"/>
   </g>
   <g id="line2d_8">
    <path d="M 124.634559 211.409172 
L 124.197252 124.450167 
" clip-path="url(#p619c0f5a90)" style="fill: none; stroke: #000000; stroke-width: 1.5; stroke-linecap: square"/>
   </g>
   <g id="line2d_9">
    <path d="M 124.197252 124.450167 
L 205.670791 84.181031 
" clip-path="url(#p619c0f5a90)" style="fill: none; stroke: #000000; stroke-width: 1.5; stroke-linecap: square"/>
   </g>
   <g id="line2d_10">
    <path d="M 272.293649 95.858323 
L 290.154752 88.092845 
" clip-path="url(#p619c0f5a90)" style="fill: none; stroke: #000000; stroke-width: 1.5; stroke-linecap: square"/>
   </g>
   <g id="line2d_11">
    <path d="M 272.293649 95.858323 
L 205.670791 84.181031 
" clip-path="url(#p619c0f5a90)" style="fill: none; stroke: #000000; stroke-width: 1.5; stroke-linecap: square"/>
   </g>
   <g id="line2d_12">
    <path d="M 290.154752 88.092845 
L 205.670791 84.181031 
" clip-path="url(#p619c0f5a90)" style="fill: none; stroke: #000000; stroke-width: 1.5; stroke-linecap: square"/>
   </g>
   <g id="line2d_13">
    <path d="M 288.604099 223.412693 
L 290.154752 88.092845 
" clip-path="url(#p619c0f5a90)" style="fill: none; stroke: #000000; stroke-width: 1.5; stroke-linecap: square"/>
   </g>
   <g id="line2d_14">
    <path d="M 288.604099 223.412693 
L 231.884324 262.276734 
" clip-path="url(#p619c0f5a90)" style="fill: none; stroke: #000000; stroke-width: 1.5; stroke-linecap: square"/>
   </g>
   <g id="line2d_15">
    <path d="M 288.604099 223.412693 
L 124.634559 211.409172 
" clip-path="url(#p619c0f5a90)" style="fill: none; stroke: #000000; stroke-width: 1.5; stroke-linecap: square"/>
   </g>
   <g id="Path3DCollection_1">
    <defs>
     <path id="C0_0_98b1ceadf6" d="M 0 3.162278 
C 0.838646 3.162278 1.643056 2.82908 2.236068 2.236068 
C 2.82908 1.643056 3.162278 0.838646 3.162278 -0 
C 3.162278 -0.838646 2.82908 -1.643056 2.236068 -2.236068 
C 1.643056 -2.82908 0.838646 -3.162278 0 -3.162278 
C -0.838646 -3.162278 -1.643056 -2.82908 -2.236068 -2.236068 
C -2.82908 -1.643056 -3.162278 -0.838646 -3.162278 0 
C -3.162278 0.838646 -2.82908 1.643056 -2.236068 2.236068 
C -1.643056 2.82908 -0.838646 3.162278 0 3.162278 
z
"/>
    </defs>
    <g clip-path="url(#p619c0f5a90)">
     <use xlink:href="#C0_0_98b1ceadf6" x="124.634559" y="211.409172" style="fill-opacity: 0.3; stroke: #000000; stroke-opacity: 0.3"/>
    </g>
    <g clip-path="url(#p619c0f5a90)">
     <use xlink:href="#C0_0_98b1ceadf6" x="288.604099" y="223.412693" style="stroke: #000000"/>
    </g>
   </g>
   <g id="Poly3DCollection_1">
    <path d="M 290.154752 88.092845 
L 205.670791 84.181031 
L 272.293649 95.858323 
z
" clip-path="url(#p619c0f5a90)" style="fill: #185b8a; fill-opacity: 0.25"/>
   </g>
   <g id="Path3DCollection_2">
    <defs>
     <path id="mcbedcacda2" d="M 0 3.162278 
C 0.838646 3.162278 1.643056 2.82908 2.236068 2.236068 
C 2.82908 1.643056 3.162278 0.838646 3.162278 0 
C 3.162278 -0.838646 2.82908 -1.643056 2.236068 -2.236068 
C 1.643056 -2.82908 0.838646 -3.162278 0 -3.162278 
C -0.838646 -3.162278 -1.643056 -2.82908 -2.236068 -2.236068 
C -2.82908 -1.643056 -3.162278 -0.838646 -3.162278 0 
C -3.162278 0.838646 -2.82908 1.643056 -2.236068 2.236068 
C -1.643056 2.82908 -0.838646 3.162278 0 3.162278 
z
" style="stroke: #ff0000"/>
    </defs>
    <g clip-path="url(#p619c0f5a90)">
     <use xlink:href="#mcbedcacda2" x="252.822465" y="152.717623" style="fill: #ff0000; stroke: #ff0000"/>
    </g>
   </g>
  </g>
 </g>
 <defs>
  <clipPath id="p619c0f5a90">
   <rect x="7.2" y="7.2" width="326.16" height="326.16"/>
  </clipPath>
 </defs>
</svg>
