<?xml version="1.0" encoding="utf-8" standalone="no"?>
<!DOCTYPE svg PUBLIC "-//W3C//DTD SVG 1.1//EN"
  "http://www.w3.org/Graphics/SVG/1.1/DTD/svg11.dtd">
<svg xmlns:xlink="http://www.w3.org/1999/xlink" width="340.56pt" height="340.56pt" viewBox="0 0 340.56 340.56" xmlns="http://www.w3.org/2000/svg" version="1.1">
 <metadata>
  <rdf:RDF xmlns:dc="http://purl.org/dc/elements/1.1/" xmlns:cc="http://creativecommons.org/ns#" xmlns:rdf="http://www.w3.org/1999/02/22-rdf-syntax-ns#">
   <cc:Work>
    <dc:type rdf:resource="http://purl.org/dc/dcmitype/StillImage"/>
    <dc:date>2022-01-27T10:12:47.932612</dc:date>
    <dc:format>image/svg+xml</dc:format>
    <dc:creator>
     <cc:Agent>
      <dc:title>Matplotlib v3.5.1, https://matplotlib.org/</dc:title>
     </cc:Agent>
    </dc:creator>
   </cc:Work>
  </rdf:RDF>
 </metadata>
 <defs>
  <style type="text/css">*{stroke-linejoin: round; stroke-linecap: butt}</style>
 </defs>
 <g id="figure_1">
  <g id="patch_1">
   <path d="M 0 340.56 
L 340.56 340.56 
L 340.56 0 
L 0 0 
L 0 340.56 
z
" style="fill: none"/>
  </g>
  <g id="axes_1">
   <g id="patch_2">
    <path d="M 175.368404 81.107395 
L 172.824202 90.436135 
L 171.128067 89.305378 
L 8.048067 333.925378 
L 6.351933 332.794622 
L 169.431933 88.174622 
L 167.735798 87.043865 
z
" clip-path="url(#p2f1522b537)" style="fill: #1f77b4; stroke: #000000; stroke-linejoin: miter"/>
   </g>
   <g id="patch_3">
    <path d="M 7.2 333.36 
L 7.2 129.51 
L 211.05 129.51 
L 292.59 211.05 
L 292.59 333.36 
z
" clip-path="url(#p2f1522b537)" style="opacity: 0.15"/>
   </g>
   <g id="patch_4">
    <path d="M 109.125 211.05 
L 109.083958 209.757103 
L 108.960999 208.469413 
L 108.756616 207.192113 
L 108.471634 205.930348 
L 108.1072 204.689198 
L 107.66478 203.473661 
L 107.146157 202.288631 
L 106.55342 201.13888 
L 105.888953 200.029037 
L 105.155434 198.963572 
L 104.355816 197.946775 
L 103.493318 196.982739 
L 102.571414 196.075348 
L 101.593816 195.228254 
L 100.56446 194.444869 
L 99.487491 193.728347 
L 98.367246 193.081573 
L 97.208235 192.507152 
L 96.015126 192.007396 
L 94.792722 191.584318 
L 93.545946 191.239621 
L 92.279818 190.974694 
L 90.999437 190.790603 
L 89.709957 190.688089 
L 88.416572 190.667566 
L 87.12449 190.729115 
L 85.838912 190.87249 
L 84.565016 191.097112 
L 83.307931 191.402078 
L 82.07272 191.786158 
L 80.864355 192.247808 
L 79.687702 192.785167 
L 78.5475 193.396072 
L 77.448339 194.078064 
L 76.394647 194.828395 
L 75.390664 195.644045 
L 74.440434 196.521729 
L 73.547784 197.457914 
L 72.716308 198.448829 
L 71.949353 199.490485 
L 71.250008 200.578686 
L 70.621089 201.709052 
L 70.065129 202.877031 
L 69.584366 204.077919 
L 69.180736 205.306882 
L 68.855864 206.55897 
L 68.611058 207.829142 
L 68.447305 209.112283 
L 68.365263 210.403226 
L 68.365263 211.696774 
L 68.447305 212.987717 
L 68.611058 214.270858 
L 68.855864 215.54103 
L 69.180736 216.793118 
L 69.584366 218.022081 
L 70.065129 219.222969 
L 70.621089 220.390948 
L 71.250008 221.521314 
L 71.949353 222.609515 
L 72.716308 223.651171 
L 73.547784 224.642086 
L 74.440434 225.578271 
L 75.390664 226.455955 
L 76.394647 227.271605 
L 77.448339 228.021936 
L 78.5475 228.703928 
L 79.687702 229.314833 
L 80.864355 229.852192 
L 82.07272 230.313842 
L 83.307931 230.697922 
L 84.565016 231.002888 
L 85.838912 231.22751 
L 87.12449 231.370885 
L 88.416572 231.432434 
L 89.709957 231.411911 
L 90.999437 231.309397 
L 92.279818 231.125306 
L 93.545946 230.860379 
L 94.792722 230.515682 
L 96.015126 230.092604 
L 97.208235 229.592848 
L 98.367246 229.018427 
L 99.487491 228.371653 
L 100.56446 227.655131 
L 101.593816 226.871746 
L 102.571414 226.024652 
L 103.493318 225.117261 
L 104.355816 224.153225 
L 105.155434 223.136428 
L 105.888953 222.070963 
L 106.55342 220.96112 
L 107.146157 219.811369 
L 107.66478 218.626339 
L 108.1072 217.410802 
L 108.471634 216.169652 
L 108.756616 214.907887 
L 108.960999 213.630587 
L 109.083958 212.342897 
z
" clip-path="url(#p2f1522b537)" style="fill: #0000ff; opacity: 0.25"/>
   </g>
   <g id="line2d_1">
    <path d="M 7.2 109.125 
L 341.56 332.031667 
" clip-path="url(#p2f1522b537)" style="fill: none; stroke-dasharray: 5.55,2.4; stroke-dashoffset: 0; stroke: #000000; stroke-width: 1.5"/>
   </g>
   <g id="line2d_2">
    <path d="M 7.2 190.665 
L 221.2425 333.36 
" clip-path="url(#p2f1522b537)" style="fill: none; stroke-dasharray: 5.55,2.4; stroke-dashoffset: 0; stroke: #000000; stroke-width: 1.5"/>
   </g>
   <g id="line2d_3">
    <path d="M 109.125 211.05 
L 109.083958 209.757103 
L 108.960999 208.469413 
L 108.756616 207.192113 
L 108.471634 205.930348 
L 108.1072 204.689198 
L 107.66478 203.473661 
L 107.146157 202.288631 
L 106.55342 201.13888 
L 105.888953 200.029037 
L 105.155434 198.963572 
L 104.355816 197.946775 
L 103.493318 196.982739 
L 102.571414 196.075348 
L 101.593816 195.228254 
L 100.56446 194.444869 
L 99.487491 193.728347 
L 98.367246 193.081573 
L 97.208235 192.507152 
L 96.015126 192.007396 
L 94.792722 191.584318 
L 93.545946 191.239621 
L 92.279818 190.974694 
L 90.999437 190.790603 
L 89.709957 190.688089 
L 88.416572 190.667566 
L 87.12449 190.729115 
L 85.838912 190.87249 
L 84.565016 191.097112 
L 83.307931 191.402078 
L 82.07272 191.786158 
L 80.864355 192.247808 
L 79.687702 192.785167 
L 78.5475 193.396072 
L 77.448339 194.078064 
L 76.394647 194.828395 
L 75.390664 195.644045 
L 74.440434 196.521729 
L 73.547784 197.457914 
L 72.716308 198.448829 
L 71.949353 199.490485 
L 71.250008 200.578686 
L 70.621089 201.709052 
L 70.065129 202.877031 
L 69.584366 204.077919 
L 69.180736 205.306882 
L 68.855864 206.55897 
L 68.611058 207.829142 
L 68.447305 209.112283 
L 68.365263 210.403226 
L 68.365263 211.696774 
L 68.447305 212.987717 
L 68.611058 214.270858 
L 68.855864 215.54103 
L 69.180736 216.793118 
L 69.584366 218.022081 
L 70.065129 219.222969 
L 70.621089 220.390948 
L 71.250008 221.521314 
L 71.949353 222.609515 
L 72.716308 223.651171 
L 73.547784 224.642086 
L 74.440434 225.578271 
L 75.390664 226.455955 
L 76.394647 227.271605 
L 77.448339 228.021936 
L 78.5475 228.703928 
L 79.687702 229.314833 
L 80.864355 229.852192 
L 82.07272 230.313842 
L 83.307931 230.697922 
L 84.565016 231.002888 
L 85.838912 231.22751 
L 87.12449 231.370885 
L 88.416572 231.432434 
L 89.709957 231.411911 
L 90.999437 231.309397 
L 92.279818 231.125306 
L 93.545946 230.860379 
L 94.792722 230.515682 
L 96.015126 230.092604 
L 97.208235 229.592848 
L 98.367246 229.018427 
L 99.487491 228.371653 
L 100.56446 227.655131 
L 101.593816 226.871746 
L 102.571414 226.024652 
L 103.493318 225.117261 
L 104.355816 224.153225 
L 105.155434 223.136428 
L 105.888953 222.070963 
L 106.55342 220.96112 
L 107.146157 219.811369 
L 107.66478 218.626339 
L 108.1072 217.410802 
L 108.471634 216.169652 
L 108.756616 214.907887 
L 108.960999 213.630587 
L 109.083958 212.342897 
L 109.125 211.05 
" clip-path="url(#p2f1522b537)" style="fill: none; stroke: #0000ff; stroke-width: 1.5; stroke-linecap: square"/>
   </g>
   <g id="line2d_4">
    <defs>
     <path id="m452718ae9e" d="M 0 4 
C 1.060812 4 2.078319 3.578535 2.828427 2.828427 
C 3.578535 2.078319 4 1.060812 4 0 
C 4 -1.060812 3.578535 -2.078319 2.828427 -2.828427 
C 2.078319 -3.578535 1.060812 -4 0 -4 
C -1.060812 -4 -2.078319 -3.578535 -2.828427 -2.828427 
C -3.578535 -2.078319 -4 -1.060812 -4 0 
C -4 1.060812 -3.578535 2.078319 -2.828427 2.828427 
C -2.078319 3.578535 -1.060812 4 0 4 
z
" style="stroke: #000000"/>
    </defs>
    <g clip-path="url(#p2f1522b537)">
     <use xlink:href="#m452718ae9e" x="100.047564" y="194.088655" style="stroke: #000000"/>
    </g>
   </g>
   <g id="line2d_5">
    <defs>
     <path id="ma9ada308f0" d="M 0 4 
C 1.060812 4 2.078319 3.578535 2.828427 2.828427 
C 3.578535 2.078319 4 1.060812 4 0 
C 4 -1.060812 3.578535 -2.078319 2.828427 -2.828427 
C 2.078319 -3.578535 1.060812 -4 0 -4 
C -1.060812 -4 -2.078319 -3.578535 -2.828427 -2.828427 
C -3.578535 -2.078319 -4 -1.060812 -4 0 
C -4 1.060812 -3.578535 2.078319 -2.828427 2.828427 
C -2.078319 3.578535 -1.060812 4 0 4 
z
" style="stroke: #ff0000"/>
    </defs>
    <g clip-path="url(#p2f1522b537)">
     <use xlink:href="#ma9ada308f0" x="88.74" y="211.05" style="fill: #ff0000; stroke: #ff0000"/>
    </g>
   </g>
   <g id="patch_5">
    <path d="M 92.809701 276.440771 
Q 90.837073 244.745165 88.933894 214.165434 
" style="fill: none; stroke: #000000; stroke-linecap: round"/>
    <path d="M 86.137619 220.751848 
L 88.933894 214.165434 
L 92.52526 220.354302 
L 86.137619 220.751848 
z
" style="fill: #1f77b4; stroke: #000000; stroke-linecap: round"/>
   </g>
   <g id="text_1">
    <!-- $x$ -->
    <g transform="translate(88.74 292.59)scale(0.16 -0.16)">
     <defs>
      <path id="DejaVuSans-Oblique-78" d="M 3841 3500 
L 2234 1784 
L 3219 0 
L 2559 0 
L 1819 1388 
L 531 0 
L -166 0 
L 1556 1844 
L 641 3500 
L 1300 3500 
L 1972 2234 
L 3144 3500 
L 3841 3500 
z
" transform="scale(0.015625)"/>
     </defs>
     <use xlink:href="#DejaVuSans-Oblique-78" transform="translate(0 0.3125)"/>
    </g>
   </g>
   <g id="patch_6">
    <path d="M 209.466259 175.935473 
Q 155.743643 184.848359 103.123985 193.578259 
" style="fill: none; stroke: #000000; stroke-linecap: round"/>
    <path d="M 109.961422 195.68763 
L 103.123985 193.578259 
L 108.913944 189.373931 
L 109.961422 195.68763 
z
" style="fill: #1f77b4; stroke: #000000; stroke-linecap: round"/>
   </g>
   <g id="text_2">
    <!-- Better solution -->
    <g transform="translate(211.05 170.28)scale(0.16 -0.16)">
     <defs>
      <path id="DejaVuSans-42" d="M 1259 2228 
L 1259 519 
L 2272 519 
Q 2781 519 3026 730 
Q 3272 941 3272 1375 
Q 3272 1813 3026 2020 
Q 2781 2228 2272 2228 
L 1259 2228 
z
M 1259 4147 
L 1259 2741 
L 2194 2741 
Q 2656 2741 2882 2914 
Q 3109 3088 3109 3444 
Q 3109 3797 2882 3972 
Q 2656 4147 2194 4147 
L 1259 4147 
z
M 628 4666 
L 2241 4666 
Q 2963 4666 3353 4366 
Q 3744 4066 3744 3513 
Q 3744 3084 3544 2831 
Q 3344 2578 2956 2516 
Q 3422 2416 3680 2098 
Q 3938 1781 3938 1306 
Q 3938 681 3513 340 
Q 3088 0 2303 0 
L 628 0 
L 628 4666 
z
" transform="scale(0.015625)"/>
      <path id="DejaVuSans-65" d="M 3597 1894 
L 3597 1613 
L 953 1613 
Q 991 1019 1311 708 
Q 1631 397 2203 397 
Q 2534 397 2845 478 
Q 3156 559 3463 722 
L 3463 178 
Q 3153 47 2828 -22 
Q 2503 -91 2169 -91 
Q 1331 -91 842 396 
Q 353 884 353 1716 
Q 353 2575 817 3079 
Q 1281 3584 2069 3584 
Q 2775 3584 3186 3129 
Q 3597 2675 3597 1894 
z
M 3022 2063 
Q 3016 2534 2758 2815 
Q 2500 3097 2075 3097 
Q 1594 3097 1305 2825 
Q 1016 2553 972 2059 
L 3022 2063 
z
" transform="scale(0.015625)"/>
      <path id="DejaVuSans-74" d="M 1172 4494 
L 1172 3500 
L 2356 3500 
L 2356 3053 
L 1172 3053 
L 1172 1153 
Q 1172 725 1289 603 
Q 1406 481 1766 481 
L 2356 481 
L 2356 0 
L 1766 0 
Q 1100 0 847 248 
Q 594 497 594 1153 
L 594 3053 
L 172 3053 
L 172 3500 
L 594 3500 
L 594 4494 
L 1172 4494 
z
" transform="scale(0.015625)"/>
      <path id="DejaVuSans-72" d="M 2631 2963 
Q 2534 3019 2420 3045 
Q 2306 3072 2169 3072 
Q 1681 3072 1420 2755 
Q 1159 2438 1159 1844 
L 1159 0 
L 581 0 
L 581 3500 
L 1159 3500 
L 1159 2956 
Q 1341 3275 1631 3429 
Q 1922 3584 2338 3584 
Q 2397 3584 2469 3576 
Q 2541 3569 2628 3553 
L 2631 2963 
z
" transform="scale(0.015625)"/>
      <path id="DejaVuSans-20" transform="scale(0.015625)"/>
      <path id="DejaVuSans-73" d="M 2834 3397 
L 2834 2853 
Q 2591 2978 2328 3040 
Q 2066 3103 1784 3103 
Q 1356 3103 1142 2972 
Q 928 2841 928 2578 
Q 928 2378 1081 2264 
Q 1234 2150 1697 2047 
L 1894 2003 
Q 2506 1872 2764 1633 
Q 3022 1394 3022 966 
Q 3022 478 2636 193 
Q 2250 -91 1575 -91 
Q 1294 -91 989 -36 
Q 684 19 347 128 
L 347 722 
Q 666 556 975 473 
Q 1284 391 1588 391 
Q 1994 391 2212 530 
Q 2431 669 2431 922 
Q 2431 1156 2273 1281 
Q 2116 1406 1581 1522 
L 1381 1569 
Q 847 1681 609 1914 
Q 372 2147 372 2553 
Q 372 3047 722 3315 
Q 1072 3584 1716 3584 
Q 2034 3584 2315 3537 
Q 2597 3491 2834 3397 
z
" transform="scale(0.015625)"/>
      <path id="DejaVuSans-6f" d="M 1959 3097 
Q 1497 3097 1228 2736 
Q 959 2375 959 1747 
Q 959 1119 1226 758 
Q 1494 397 1959 397 
Q 2419 397 2687 759 
Q 2956 1122 2956 1747 
Q 2956 2369 2687 2733 
Q 2419 3097 1959 3097 
z
M 1959 3584 
Q 2709 3584 3137 3096 
Q 3566 2609 3566 1747 
Q 3566 888 3137 398 
Q 2709 -91 1959 -91 
Q 1206 -91 779 398 
Q 353 888 353 1747 
Q 353 2609 779 3096 
Q 1206 3584 1959 3584 
z
" transform="scale(0.015625)"/>
      <path id="DejaVuSans-6c" d="M 603 4863 
L 1178 4863 
L 1178 0 
L 603 0 
L 603 4863 
z
" transform="scale(0.015625)"/>
      <path id="DejaVuSans-75" d="M 544 1381 
L 544 3500 
L 1119 3500 
L 1119 1403 
Q 1119 906 1312 657 
Q 1506 409 1894 409 
Q 2359 409 2629 706 
Q 2900 1003 2900 1516 
L 2900 3500 
L 3475 3500 
L 3475 0 
L 2900 0 
L 2900 538 
Q 2691 219 2414 64 
Q 2138 -91 1772 -91 
Q 1169 -91 856 284 
Q 544 659 544 1381 
z
M 1991 3584 
L 1991 3584 
z
" transform="scale(0.015625)"/>
      <path id="DejaVuSans-69" d="M 603 3500 
L 1178 3500 
L 1178 0 
L 603 0 
L 603 3500 
z
M 603 4863 
L 1178 4863 
L 1178 4134 
L 603 4134 
L 603 4863 
z
" transform="scale(0.015625)"/>
      <path id="DejaVuSans-6e" d="M 3513 2113 
L 3513 0 
L 2938 0 
L 2938 2094 
Q 2938 2591 2744 2837 
Q 2550 3084 2163 3084 
Q 1697 3084 1428 2787 
Q 1159 2491 1159 1978 
L 1159 0 
L 581 0 
L 581 3500 
L 1159 3500 
L 1159 2956 
Q 1366 3272 1645 3428 
Q 1925 3584 2291 3584 
Q 2894 3584 3203 3211 
Q 3513 2838 3513 2113 
z
" transform="scale(0.015625)"/>
     </defs>
     <use xlink:href="#DejaVuSans-42"/>
     <use xlink:href="#DejaVuSans-65" x="68.603516"/>
     <use xlink:href="#DejaVuSans-74" x="130.126953"/>
     <use xlink:href="#DejaVuSans-74" x="169.335938"/>
     <use xlink:href="#DejaVuSans-65" x="208.544922"/>
     <use xlink:href="#DejaVuSans-72" x="270.068359"/>
     <use xlink:href="#DejaVuSans-20" x="311.181641"/>
     <use xlink:href="#DejaVuSans-73" x="342.96875"/>
     <use xlink:href="#DejaVuSans-6f" x="395.068359"/>
     <use xlink:href="#DejaVuSans-6c" x="456.25"/>
     <use xlink:href="#DejaVuSans-75" x="484.033203"/>
     <use xlink:href="#DejaVuSans-74" x="547.412109"/>
     <use xlink:href="#DejaVuSans-69" x="586.621094"/>
     <use xlink:href="#DejaVuSans-6f" x="614.404297"/>
     <use xlink:href="#DejaVuSans-6e" x="675.585938"/>
    </g>
   </g>
   <g id="text_3">
    <!-- $\nabla f(x)$ -->
    <g transform="translate(190.665 88.74)scale(0.16 -0.16)">
     <defs>
      <path id="DejaVuSans-2207" d="M 2138 659 
L 3444 4047 
L 831 4047 
L 2138 659 
z
M 1791 0 
L -19 4603 
L 4300 4603 
L 2491 0 
L 1791 0 
z
" transform="scale(0.015625)"/>
      <path id="DejaVuSans-Oblique-66" d="M 3059 4863 
L 2969 4384 
L 2419 4384 
Q 2106 4384 1964 4261 
Q 1822 4138 1753 3809 
L 1691 3500 
L 2638 3500 
L 2553 3053 
L 1606 3053 
L 1013 0 
L 434 0 
L 1031 3053 
L 481 3053 
L 563 3500 
L 1113 3500 
L 1159 3744 
Q 1278 4363 1576 4613 
Q 1875 4863 2516 4863 
L 3059 4863 
z
" transform="scale(0.015625)"/>
      <path id="DejaVuSans-28" d="M 1984 4856 
Q 1566 4138 1362 3434 
Q 1159 2731 1159 2009 
Q 1159 1288 1364 580 
Q 1569 -128 1984 -844 
L 1484 -844 
Q 1016 -109 783 600 
Q 550 1309 550 2009 
Q 550 2706 781 3412 
Q 1013 4119 1484 4856 
L 1984 4856 
z
" transform="scale(0.015625)"/>
      <path id="DejaVuSans-29" d="M 513 4856 
L 1013 4856 
Q 1481 4119 1714 3412 
Q 1947 2706 1947 2009 
Q 1947 1309 1714 600 
Q 1481 -109 1013 -844 
L 513 -844 
Q 928 -128 1133 580 
Q 1338 1288 1338 2009 
Q 1338 2731 1133 3434 
Q 928 4138 513 4856 
z
" transform="scale(0.015625)"/>
     </defs>
     <use xlink:href="#DejaVuSans-2207" transform="translate(0 0.015625)"/>
     <use xlink:href="#DejaVuSans-Oblique-66" transform="translate(66.894531 0.015625)"/>
     <use xlink:href="#DejaVuSans-28" transform="translate(102.099609 0.015625)"/>
     <use xlink:href="#DejaVuSans-Oblique-78" transform="translate(141.113281 0.015625)"/>
     <use xlink:href="#DejaVuSans-29" transform="translate(200.292969 0.015625)"/>
    </g>
   </g>
  </g>
 </g>
 <defs>
  <clipPath id="p2f1522b537">
   <rect x="7.2" y="7.2" width="326.16" height="326.16"/>
  </clipPath>
 </defs>
</svg>
