<?xml version="1.0" encoding="utf-8" standalone="no"?>
<!DOCTYPE svg PUBLIC "-//W3C//DTD SVG 1.1//EN"
  "http://www.w3.org/Graphics/SVG/1.1/DTD/svg11.dtd">
<svg xmlns:xlink="http://www.w3.org/1999/xlink" width="349.2pt" height="338.222951pt" viewBox="0 0 349.2 338.222951" xmlns="http://www.w3.org/2000/svg" version="1.1">
 <metadata>
  <rdf:RDF xmlns:dc="http://purl.org/dc/elements/1.1/" xmlns:cc="http://creativecommons.org/ns#" xmlns:rdf="http://www.w3.org/1999/02/22-rdf-syntax-ns#">
   <cc:Work>
    <dc:type rdf:resource="http://purl.org/dc/dcmitype/StillImage"/>
    <dc:date>2022-01-27T10:12:46.914148</dc:date>
    <dc:format>image/svg+xml</dc:format>
    <dc:creator>
     <cc:Agent>
      <dc:title>Matplotlib v3.5.1, https://matplotlib.org/</dc:title>
     </cc:Agent>
    </dc:creator>
   </cc:Work>
  </rdf:RDF>
 </metadata>
 <defs>
  <style type="text/css">*{stroke-linejoin: round; stroke-linecap: butt}</style>
 </defs>
 <g id="figure_1">
  <g id="patch_1">
   <path d="M 0 338.222951 
L 349.2 338.222951 
L 349.2 0 
L 0 0 
L 0 338.222951 
z
" style="fill: none"/>
  </g>
  <g id="axes_1">
   <g id="patch_2">
    <path d="M 122.459016 336.511475 
L 67.57377 171.855738 
L 232.229508 62.085246 
L 671.311475 336.511475 
z
" clip-path="url(#p8c87d80156)" style="fill: #0000ff; opacity: 0.25"/>
   </g>
   <g id="line2d_1">
    <path d="M 122.459016 336.511475 
L 67.57377 171.855738 
" clip-path="url(#p8c87d80156)" style="fill: none; stroke: #000000; stroke-width: 2; stroke-linecap: square"/>
   </g>
   <g id="line2d_2">
    <path d="M 67.57377 171.855738 
L 232.229508 62.085246 
" clip-path="url(#p8c87d80156)" style="fill: none; stroke: #000000; stroke-width: 2; stroke-linecap: square"/>
   </g>
   <g id="line2d_3">
    <path d="M 232.229508 62.085246 
L 350.2 135.816803 
" clip-path="url(#p8c87d80156)" style="fill: none; stroke: #000000; stroke-width: 2; stroke-linecap: square"/>
   </g>
   <g id="line2d_4">
    <defs>
     <path id="mf01b15a60d" d="M 0 3 
C 0.795609 3 1.55874 2.683901 2.12132 2.12132 
C 2.683901 1.55874 3 0.795609 3 0 
C 3 -0.795609 2.683901 -1.55874 2.12132 -2.12132 
C 1.55874 -2.683901 0.795609 -3 0 -3 
C -0.795609 -3 -1.55874 -2.683901 -2.12132 -2.12132 
C -2.683901 -1.55874 -3 -0.795609 -3 0 
C -3 0.795609 -2.683901 1.55874 -2.12132 2.12132 
C -1.55874 2.683901 -0.795609 3 0 3 
z
" style="stroke: #0000ff"/>
    </defs>
    <g clip-path="url(#p8c87d80156)">
     <use xlink:href="#mf01b15a60d" x="177.344262" y="226.740984" style="fill: #0000ff; stroke: #0000ff"/>
    </g>
   </g>
   <g id="line2d_5">
    <path d="M 177.344262 226.740984 
L 232.229508 281.62623 
" clip-path="url(#p8c87d80156)" style="fill: none; stroke: #000000; stroke-width: 1.5; stroke-linecap: square"/>
   </g>
   <g id="line2d_6">
    <path d="M 232.229508 281.62623 
L 289.82623 339.222951 
" clip-path="url(#p8c87d80156)" style="fill: none; stroke-dasharray: 5.55,2.4; stroke-dashoffset: 0; stroke: #000000; stroke-width: 1.5"/>
   </g>
   <g id="line2d_7">
    <g clip-path="url(#p8c87d80156)">
     <use xlink:href="#mf01b15a60d" x="177.344262" y="144.413115" style="fill: #0000ff; stroke: #0000ff"/>
    </g>
   </g>
   <g id="line2d_8">
    <path d="M 177.344262 144.413115 
L 232.229508 199.298361 
" clip-path="url(#p8c87d80156)" style="fill: none; stroke: #000000; stroke-width: 1.5; stroke-linecap: square"/>
   </g>
   <g id="line2d_9">
    <path d="M 232.229508 199.298361 
L 350.2 317.268852 
" clip-path="url(#p8c87d80156)" style="fill: none; stroke-dasharray: 5.55,2.4; stroke-dashoffset: 0; stroke: #000000; stroke-width: 1.5"/>
   </g>
   <g id="line2d_10">
    <g clip-path="url(#p8c87d80156)">
     <use xlink:href="#mf01b15a60d" x="232.229508" y="116.970492" style="fill: #0000ff; stroke: #0000ff"/>
    </g>
   </g>
   <g id="line2d_11">
    <path d="M 232.229508 116.970492 
L 287.114754 171.855738 
" clip-path="url(#p8c87d80156)" style="fill: none; stroke: #000000; stroke-width: 1.5; stroke-linecap: square"/>
   </g>
   <g id="line2d_12">
    <path d="M 287.114754 171.855738 
L 350.2 234.940984 
" clip-path="url(#p8c87d80156)" style="fill: none; stroke-dasharray: 5.55,2.4; stroke-dashoffset: 0; stroke: #000000; stroke-width: 1.5"/>
   </g>
   <g id="text_1">
    <!-- $x_0$ -->
    <g transform="translate(168.784262 249.875533)scale(0.16 -0.16)">
     <defs>
      <path id="DejaVuSans-Oblique-78" d="M 3841 3500 
L 2234 1784 
L 3219 0 
L 2559 0 
L 1819 1388 
L 531 0 
L -166 0 
L 1556 1844 
L 641 3500 
L 1300 3500 
L 1972 2234 
L 3144 3500 
L 3841 3500 
z
" transform="scale(0.015625)"/>
      <path id="DejaVuSans-30" d="M 2034 4250 
Q 1547 4250 1301 3770 
Q 1056 3291 1056 2328 
Q 1056 1369 1301 889 
Q 1547 409 2034 409 
Q 2525 409 2770 889 
Q 3016 1369 3016 2328 
Q 3016 3291 2770 3770 
Q 2525 4250 2034 4250 
z
M 2034 4750 
Q 2819 4750 3233 4129 
Q 3647 3509 3647 2328 
Q 3647 1150 3233 529 
Q 2819 -91 2034 -91 
Q 1250 -91 836 529 
Q 422 1150 422 2328 
Q 422 3509 836 4129 
Q 1250 4750 2034 4750 
z
" transform="scale(0.015625)"/>
     </defs>
     <use xlink:href="#DejaVuSans-Oblique-78" transform="translate(0 0.3125)"/>
     <use xlink:href="#DejaVuSans-30" transform="translate(59.179688 -16.09375)scale(0.7)"/>
    </g>
   </g>
   <g id="text_2">
    <!-- $x_0$ -->
    <g transform="translate(168.784262 167.547664)scale(0.16 -0.16)">
     <use xlink:href="#DejaVuSans-Oblique-78" transform="translate(0 0.3125)"/>
     <use xlink:href="#DejaVuSans-30" transform="translate(59.179688 -16.09375)scale(0.7)"/>
    </g>
   </g>
   <g id="text_3">
    <!-- $x_0$ -->
    <g transform="translate(223.669508 140.105041)scale(0.16 -0.16)">
     <use xlink:href="#DejaVuSans-Oblique-78" transform="translate(0 0.3125)"/>
     <use xlink:href="#DejaVuSans-30" transform="translate(59.179688 -16.09375)scale(0.7)"/>
    </g>
   </g>
   <g id="patch_3">
    <path d="M 22.720672 175.119692 
Q 44.491562 200.175742 64.795844 223.543876 
" style="fill: none; stroke: #000000; stroke-width: 2; stroke-linecap: round"/>
    <path d="M 63.013712 216.613941 
L 64.795844 223.543876 
L 58.182616 220.81162 
L 63.013712 216.613941 
z
" style="fill: #1f77b4; stroke: #000000; stroke-width: 2; stroke-linecap: round"/>
   </g>
   <g id="text_4">
    <!-- $r$ -->
    <g transform="translate(12.688525 171.855738)scale(0.16 -0.16)">
     <defs>
      <path id="DejaVuSans-Oblique-72" d="M 2853 2969 
Q 2766 3016 2653 3041 
Q 2541 3066 2413 3066 
Q 1953 3066 1609 2717 
Q 1266 2369 1153 1784 
L 800 0 
L 225 0 
L 909 3500 
L 1484 3500 
L 1375 2956 
Q 1603 3259 1920 3421 
Q 2238 3584 2597 3584 
Q 2691 3584 2781 3573 
Q 2872 3563 2963 3538 
L 2853 2969 
z
" transform="scale(0.015625)"/>
     </defs>
     <use xlink:href="#DejaVuSans-Oblique-72"/>
    </g>
   </g>
   <g id="patch_4">
    <path d="M 79.280413 96.593657 
Q 100.37228 133.357649 120.907781 169.15187 
" style="fill: none; stroke: #000000; stroke-linecap: round"/>
    <path d="M 120.498595 162.008162 
L 120.907781 169.15187 
L 114.947303 165.192994 
" style="fill: none; stroke: #000000; stroke-linecap: round"/>
   </g>
   <g id="text_5">
    <!-- $S$ -->
    <g transform="translate(67.57377 89.527869)scale(0.16 -0.16)">
     <defs>
      <path id="DejaVuSans-Oblique-53" d="M 3859 4513 
L 3738 3897 
Q 3422 4066 3111 4152 
Q 2800 4238 2509 4238 
Q 1944 4238 1609 3991 
Q 1275 3744 1275 3334 
Q 1275 3109 1398 2989 
Q 1522 2869 2034 2731 
L 2413 2638 
Q 3053 2472 3303 2217 
Q 3553 1963 3553 1503 
Q 3553 797 2998 353 
Q 2444 -91 1538 -91 
Q 1166 -91 791 -17 
Q 416 56 38 206 
L 166 856 
Q 513 641 861 531 
Q 1209 422 1556 422 
Q 2147 422 2503 684 
Q 2859 947 2859 1369 
Q 2859 1650 2717 1795 
Q 2575 1941 2106 2059 
L 1728 2156 
Q 1081 2325 845 2545 
Q 609 2766 609 3163 
Q 609 3859 1145 4304 
Q 1681 4750 2541 4750 
Q 2875 4750 3203 4690 
Q 3531 4631 3859 4513 
z
" transform="scale(0.015625)"/>
     </defs>
     <use xlink:href="#DejaVuSans-Oblique-53" transform="translate(0 0.78125)"/>
    </g>
   </g>
  </g>
 </g>
 <defs>
  <clipPath id="p8c87d80156">
   <rect x="7.2" y="7.2" width="334.8" height="323.822951"/>
  </clipPath>
 </defs>
</svg>
