<?xml version="1.0" encoding="utf-8" standalone="no"?>
<!DOCTYPE svg PUBLIC "-//W3C//DTD SVG 1.1//EN"
  "http://www.w3.org/Graphics/SVG/1.1/DTD/svg11.dtd">
<svg xmlns:xlink="http://www.w3.org/1999/xlink" width="349.2pt" height="338.222951pt" viewBox="0 0 349.2 338.222951" xmlns="http://www.w3.org/2000/svg" version="1.1">
 <metadata>
  <rdf:RDF xmlns:dc="http://purl.org/dc/elements/1.1/" xmlns:cc="http://creativecommons.org/ns#" xmlns:rdf="http://www.w3.org/1999/02/22-rdf-syntax-ns#">
   <cc:Work>
    <dc:type rdf:resource="http://purl.org/dc/dcmitype/StillImage"/>
    <dc:date>2022-02-08T15:30:10.388562</dc:date>
    <dc:format>image/svg+xml</dc:format>
    <dc:creator>
     <cc:Agent>
      <dc:title>Matplotlib v3.5.1, https://matplotlib.org/</dc:title>
     </cc:Agent>
    </dc:creator>
   </cc:Work>
  </rdf:RDF>
 </metadata>
 <defs>
  <style type="text/css">*{stroke-linejoin: round; stroke-linecap: butt}</style>
 </defs>
 <g id="figure_1">
  <g id="patch_1">
   <path d="M 0 338.222951 
L 349.2 338.222951 
L 349.2 0 
L 0 0 
L 0 338.222951 
z
" style="fill: none"/>
  </g>
  <g id="axes_1">
   <g id="patch_2">
    <path d="M 122.459016 336.511475 
L 67.57377 171.855738 
L 232.229508 62.085246 
L 671.311475 336.511475 
z
" clip-path="url(#pe834ac117a)" style="fill: #0000ff; opacity: 0.25"/>
   </g>
   <g id="line2d_1">
    <path d="M 122.459016 336.511475 
L 67.57377 171.855738 
" clip-path="url(#pe834ac117a)" style="fill: none; stroke-dasharray: 7.4,3.2; stroke-dashoffset: 0; stroke: #0000ff; stroke-width: 2"/>
   </g>
   <g id="line2d_2">
    <path d="M 67.57377 171.855738 
L 232.229508 62.085246 
" clip-path="url(#pe834ac117a)" style="fill: none; stroke: #0000ff; stroke-width: 2; stroke-linecap: square"/>
   </g>
   <g id="line2d_3">
    <path d="M 232.229508 62.085246 
L 350.2 135.816803 
" clip-path="url(#pe834ac117a)" style="fill: none; stroke-dasharray: 7.4,3.2; stroke-dashoffset: 0; stroke: #0000ff; stroke-width: 2"/>
   </g>
   <g id="line2d_4">
    <defs>
     <path id="m00963fe5a4" d="M 0 3 
C 0.795609 3 1.55874 2.683901 2.12132 2.12132 
C 2.683901 1.55874 3 0.795609 3 0 
C 3 -0.795609 2.683901 -1.55874 2.12132 -2.12132 
C 1.55874 -2.683901 0.795609 -3 0 -3 
C -0.795609 -3 -1.55874 -2.683901 -2.12132 -2.12132 
C -2.683901 -1.55874 -3 -0.795609 -3 0 
C -3 0.795609 -2.683901 1.55874 -2.12132 2.12132 
C -1.55874 2.683901 -0.795609 3 0 3 
z
" style="stroke: #000000"/>
    </defs>
    <g clip-path="url(#pe834ac117a)">
     <use xlink:href="#m00963fe5a4" x="241.638407" y="232.229508" style="stroke: #000000"/>
    </g>
   </g>
   <g id="line2d_5">
    <g clip-path="url(#pe834ac117a)">
     <use xlink:href="#m00963fe5a4" x="149.901639" y="116.970492" style="stroke: #000000"/>
    </g>
   </g>
   <g id="patch_3">
    <path d="M 68.20607 173.752635 
Q 90.442864 240.463018 111.972552 305.052081 
" style="fill: none; stroke: #000000; stroke-width: 2; stroke-linecap: round"/>
    <path d="M 112.98448 297.968579 
L 111.972552 305.052081 
L 106.912907 299.992437 
L 112.98448 297.968579 
z
" style="fill: #1f77b4; stroke: #000000; stroke-width: 2; stroke-linecap: round"/>
   </g>
   <g id="patch_4">
    <path d="M 233.925913 63.145499 
Q 276.138321 89.528254 316.454548 114.725896 
" style="fill: none; stroke: #000000; stroke-width: 2; stroke-linecap: round"/>
    <path d="M 312.723355 108.620308 
L 316.454548 114.725896 
L 309.331362 114.047497 
L 312.723355 108.620308 
z
" style="fill: #1f77b4; stroke: #000000; stroke-width: 2; stroke-linecap: round"/>
   </g>
   <g id="patch_5">
    <path d="M 151.136088 118.541609 
Q 193.024218 171.853773 233.530856 223.407677 
" style="fill: none; stroke-dasharray: 7.4,3.2; stroke-dashoffset: 0; stroke: #000000; stroke-width: 2; stroke-linecap: round"/>
    <path d="M 232.093017 216.39821 
L 233.530856 223.407677 
L 227.060579 220.352268 
L 232.093017 216.39821 
z
" style="fill: #1f77b4; stroke-dasharray: 7.4,3.2; stroke-dashoffset: 0; stroke: #000000; stroke-width: 2; stroke-linecap: round"/>
   </g>
   <g id="patch_6">
    <path d="M 129.485805 69.246183 
Q 139.300583 92.18933 148.675627 114.10455 
" style="fill: none; stroke: #000000; stroke-linecap: round"/>
    <path d="M 149.100543 106.96176 
L 148.675627 114.10455 
L 143.216345 109.478943 
L 149.100543 106.96176 
z
" style="fill: #1f77b4; stroke: #000000; stroke-linecap: round"/>
   </g>
   <g id="text_1">
    <!-- $\lambda\nu_1+(1-\lambda)\nu_2$ -->
    <g transform="translate(67.57377 62.085246)scale(0.16 -0.16)">
     <defs>
      <path id="DejaVuSans-Oblique-3bb" d="M 2350 4316 
L 3125 0 
L 2516 0 
L 2038 2588 
L 328 0 
L -281 0 
L 1903 3356 
L 1794 3975 
Q 1725 4369 1391 4369 
L 1091 4369 
L 1184 4863 
L 1550 4856 
Q 2253 4847 2350 4316 
z
" transform="scale(0.015625)"/>
      <path id="DejaVuSans-Oblique-3bd" d="M 959 0 
L 572 3500 
L 1191 3500 
L 1522 563 
Q 1972 950 2391 1488 
Q 2706 1891 2788 2241 
Q 2825 2406 2809 2719 
Q 2794 3091 2544 3500 
L 3125 3500 
L 3125 3500 
Q 3288 3222 3353 2834 
Q 3416 2478 3369 2234 
Q 3250 1622 2719 1075 
Q 2025 363 1572 0 
L 959 0 
z
" transform="scale(0.015625)"/>
      <path id="DejaVuSans-31" d="M 794 531 
L 1825 531 
L 1825 4091 
L 703 3866 
L 703 4441 
L 1819 4666 
L 2450 4666 
L 2450 531 
L 3481 531 
L 3481 0 
L 794 0 
L 794 531 
z
" transform="scale(0.015625)"/>
      <path id="DejaVuSans-2b" d="M 2944 4013 
L 2944 2272 
L 4684 2272 
L 4684 1741 
L 2944 1741 
L 2944 0 
L 2419 0 
L 2419 1741 
L 678 1741 
L 678 2272 
L 2419 2272 
L 2419 4013 
L 2944 4013 
z
" transform="scale(0.015625)"/>
      <path id="DejaVuSans-28" d="M 1984 4856 
Q 1566 4138 1362 3434 
Q 1159 2731 1159 2009 
Q 1159 1288 1364 580 
Q 1569 -128 1984 -844 
L 1484 -844 
Q 1016 -109 783 600 
Q 550 1309 550 2009 
Q 550 2706 781 3412 
Q 1013 4119 1484 4856 
L 1984 4856 
z
" transform="scale(0.015625)"/>
      <path id="DejaVuSans-2212" d="M 678 2272 
L 4684 2272 
L 4684 1741 
L 678 1741 
L 678 2272 
z
" transform="scale(0.015625)"/>
      <path id="DejaVuSans-29" d="M 513 4856 
L 1013 4856 
Q 1481 4119 1714 3412 
Q 1947 2706 1947 2009 
Q 1947 1309 1714 600 
Q 1481 -109 1013 -844 
L 513 -844 
Q 928 -128 1133 580 
Q 1338 1288 1338 2009 
Q 1338 2731 1133 3434 
Q 928 4138 513 4856 
z
" transform="scale(0.015625)"/>
      <path id="DejaVuSans-32" d="M 1228 531 
L 3431 531 
L 3431 0 
L 469 0 
L 469 531 
Q 828 903 1448 1529 
Q 2069 2156 2228 2338 
Q 2531 2678 2651 2914 
Q 2772 3150 2772 3378 
Q 2772 3750 2511 3984 
Q 2250 4219 1831 4219 
Q 1534 4219 1204 4116 
Q 875 4013 500 3803 
L 500 4441 
Q 881 4594 1212 4672 
Q 1544 4750 1819 4750 
Q 2544 4750 2975 4387 
Q 3406 4025 3406 3419 
Q 3406 3131 3298 2873 
Q 3191 2616 2906 2266 
Q 2828 2175 2409 1742 
Q 1991 1309 1228 531 
z
" transform="scale(0.015625)"/>
     </defs>
     <use xlink:href="#DejaVuSans-Oblique-3bb" transform="translate(0 0.015625)"/>
     <use xlink:href="#DejaVuSans-Oblique-3bd" transform="translate(59.179688 0.015625)"/>
     <use xlink:href="#DejaVuSans-31" transform="translate(115.039062 -16.390625)scale(0.7)"/>
     <use xlink:href="#DejaVuSans-2b" transform="translate(181.791992 0.015625)"/>
     <use xlink:href="#DejaVuSans-28" transform="translate(285.063477 0.015625)"/>
     <use xlink:href="#DejaVuSans-31" transform="translate(324.077148 0.015625)"/>
     <use xlink:href="#DejaVuSans-2212" transform="translate(407.182617 0.015625)"/>
     <use xlink:href="#DejaVuSans-Oblique-3bb" transform="translate(510.454102 0.015625)"/>
     <use xlink:href="#DejaVuSans-29" transform="translate(569.633789 0.015625)"/>
     <use xlink:href="#DejaVuSans-Oblique-3bd" transform="translate(608.647461 0.015625)"/>
     <use xlink:href="#DejaVuSans-32" transform="translate(664.506836 -16.390625)scale(0.7)"/>
    </g>
   </g>
   <g id="text_2">
    <!-- $v_1$ -->
    <g transform="translate(53.525246 163.039713)scale(0.16 -0.16)">
     <defs>
      <path id="DejaVuSans-Oblique-76" d="M 459 3500 
L 1069 3500 
L 1581 525 
L 3256 3500 
L 3866 3500 
L 1875 0 
L 1100 0 
L 459 3500 
z
" transform="scale(0.015625)"/>
     </defs>
     <use xlink:href="#DejaVuSans-Oblique-76" transform="translate(0 0.3125)"/>
     <use xlink:href="#DejaVuSans-31" transform="translate(59.179688 -16.09375)scale(0.7)"/>
    </g>
   </g>
   <g id="text_3">
    <!-- $v_2$ -->
    <g transform="translate(223.669508 53.269221)scale(0.16 -0.16)">
     <use xlink:href="#DejaVuSans-Oblique-76" transform="translate(0 0.3125)"/>
     <use xlink:href="#DejaVuSans-32" transform="translate(59.179688 -16.09375)scale(0.7)"/>
    </g>
   </g>
   <g id="text_4">
    <!-- $r_1$ -->
    <g transform="translate(88.094426 305.741352)scale(0.16 -0.16)">
     <defs>
      <path id="DejaVuSans-Oblique-72" d="M 2853 2969 
Q 2766 3016 2653 3041 
Q 2541 3066 2413 3066 
Q 1953 3066 1609 2717 
Q 1266 2369 1153 1784 
L 800 0 
L 225 0 
L 909 3500 
L 1484 3500 
L 1375 2956 
Q 1603 3259 1920 3421 
Q 2238 3584 2597 3584 
Q 2691 3584 2781 3573 
Q 2872 3563 2963 3538 
L 2853 2969 
z
" transform="scale(0.015625)"/>
     </defs>
     <use xlink:href="#DejaVuSans-Oblique-72"/>
     <use xlink:href="#DejaVuSans-31" transform="translate(41.113281 -16.40625)scale(0.7)"/>
    </g>
   </g>
   <g id="text_5">
    <!-- $r_2$ -->
    <g transform="translate(320.045902 113.642992)scale(0.16 -0.16)">
     <use xlink:href="#DejaVuSans-Oblique-72"/>
     <use xlink:href="#DejaVuSans-32" transform="translate(41.113281 -16.40625)scale(0.7)"/>
    </g>
   </g>
   <g id="text_6">
    <!-- $x=\lambda\nu_1+(1-\lambda)\nu_2$ -->
    <g transform="translate(188.152131 260.34973)scale(0.16 -0.16)">
     <defs>
      <path id="DejaVuSans-Oblique-78" d="M 3841 3500 
L 2234 1784 
L 3219 0 
L 2559 0 
L 1819 1388 
L 531 0 
L -166 0 
L 1556 1844 
L 641 3500 
L 1300 3500 
L 1972 2234 
L 3144 3500 
L 3841 3500 
z
" transform="scale(0.015625)"/>
      <path id="DejaVuSans-3d" d="M 678 2906 
L 4684 2906 
L 4684 2381 
L 678 2381 
L 678 2906 
z
M 678 1631 
L 4684 1631 
L 4684 1100 
L 678 1100 
L 678 1631 
z
" transform="scale(0.015625)"/>
     </defs>
     <use xlink:href="#DejaVuSans-Oblique-78" transform="translate(0 0.015625)"/>
     <use xlink:href="#DejaVuSans-3d" transform="translate(78.662109 0.015625)"/>
     <use xlink:href="#DejaVuSans-Oblique-3bb" transform="translate(181.933594 0.015625)"/>
     <use xlink:href="#DejaVuSans-Oblique-3bd" transform="translate(241.113281 0.015625)"/>
     <use xlink:href="#DejaVuSans-31" transform="translate(296.972656 -16.390625)scale(0.7)"/>
     <use xlink:href="#DejaVuSans-2b" transform="translate(363.725586 0.015625)"/>
     <use xlink:href="#DejaVuSans-28" transform="translate(466.99707 0.015625)"/>
     <use xlink:href="#DejaVuSans-31" transform="translate(506.010742 0.015625)"/>
     <use xlink:href="#DejaVuSans-2212" transform="translate(589.116211 0.015625)"/>
     <use xlink:href="#DejaVuSans-Oblique-3bb" transform="translate(692.387695 0.015625)"/>
     <use xlink:href="#DejaVuSans-29" transform="translate(751.567383 0.015625)"/>
     <use xlink:href="#DejaVuSans-Oblique-3bd" transform="translate(790.581055 0.015625)"/>
     <use xlink:href="#DejaVuSans-32" transform="translate(846.44043 -16.390625)scale(0.7)"/>
    </g>
    <!-- $+\mu_1r_1+\mu_2r_2$ -->
    <g transform="translate(211.192131 278.26623)scale(0.16 -0.16)">
     <defs>
      <path id="DejaVuSans-Oblique-3bc" d="M -84 -1331 
L 856 3500 
L 1434 3500 
L 1009 1322 
Q 997 1256 987 1175 
Q 978 1094 978 1013 
Q 978 722 1161 565 
Q 1344 409 1684 409 
Q 2147 409 2431 671 
Q 2716 934 2816 1459 
L 3213 3500 
L 3788 3500 
L 3266 809 
Q 3253 750 3248 706 
Q 3244 663 3244 628 
Q 3244 531 3283 486 
Q 3322 441 3406 441 
Q 3438 441 3492 456 
Q 3547 472 3647 513 
L 3559 50 
Q 3422 -19 3297 -55 
Q 3172 -91 3053 -91 
Q 2847 -91 2730 40 
Q 2613 172 2613 403 
Q 2438 153 2195 31 
Q 1953 -91 1625 -91 
Q 1334 -91 1117 43 
Q 900 178 831 397 
L 494 -1331 
L -84 -1331 
z
" transform="scale(0.015625)"/>
     </defs>
     <use xlink:href="#DejaVuSans-2b" transform="translate(0 0.296875)"/>
     <use xlink:href="#DejaVuSans-Oblique-3bc" transform="translate(83.789062 0.296875)"/>
     <use xlink:href="#DejaVuSans-31" transform="translate(147.412109 -16.109375)scale(0.7)"/>
     <use xlink:href="#DejaVuSans-Oblique-72" transform="translate(194.682617 0.296875)"/>
     <use xlink:href="#DejaVuSans-31" transform="translate(235.795898 -16.109375)scale(0.7)"/>
     <use xlink:href="#DejaVuSans-2b" transform="translate(302.548828 0.296875)"/>
     <use xlink:href="#DejaVuSans-Oblique-3bc" transform="translate(405.820312 0.296875)"/>
     <use xlink:href="#DejaVuSans-32" transform="translate(469.443359 -16.109375)scale(0.7)"/>
     <use xlink:href="#DejaVuSans-Oblique-72" transform="translate(516.713867 0.296875)"/>
     <use xlink:href="#DejaVuSans-32" transform="translate(557.827148 -16.109375)scale(0.7)"/>
    </g>
   </g>
   <g id="text_7">
    <!-- $\mu_1r_1+\mu_2r_2$ -->
    <g transform="translate(195.958033 168.495738)scale(0.16 -0.16)">
     <use xlink:href="#DejaVuSans-Oblique-3bc" transform="translate(0 0.296875)"/>
     <use xlink:href="#DejaVuSans-31" transform="translate(63.623047 -16.109375)scale(0.7)"/>
     <use xlink:href="#DejaVuSans-Oblique-72" transform="translate(110.893555 0.296875)"/>
     <use xlink:href="#DejaVuSans-31" transform="translate(152.006836 -16.109375)scale(0.7)"/>
     <use xlink:href="#DejaVuSans-2b" transform="translate(218.759766 0.296875)"/>
     <use xlink:href="#DejaVuSans-Oblique-3bc" transform="translate(322.03125 0.296875)"/>
     <use xlink:href="#DejaVuSans-32" transform="translate(385.654297 -16.109375)scale(0.7)"/>
     <use xlink:href="#DejaVuSans-Oblique-72" transform="translate(432.924805 0.296875)"/>
     <use xlink:href="#DejaVuSans-32" transform="translate(474.038086 -16.109375)scale(0.7)"/>
    </g>
   </g>
  </g>
 </g>
 <defs>
  <clipPath id="pe834ac117a">
   <rect x="7.2" y="7.2" width="334.8" height="323.822951"/>
  </clipPath>
 </defs>
</svg>
