<?xml version="1.0" encoding="utf-8" standalone="no"?>
<!DOCTYPE svg PUBLIC "-//W3C//DTD SVG 1.1//EN"
  "http://www.w3.org/Graphics/SVG/1.1/DTD/svg11.dtd">
<svg xmlns:xlink="http://www.w3.org/1999/xlink" width="340.56pt" height="340.56pt" viewBox="0 0 340.56 340.56" xmlns="http://www.w3.org/2000/svg" version="1.1">
 <metadata>
  <rdf:RDF xmlns:dc="http://purl.org/dc/elements/1.1/" xmlns:cc="http://creativecommons.org/ns#" xmlns:rdf="http://www.w3.org/1999/02/22-rdf-syntax-ns#">
   <cc:Work>
    <dc:type rdf:resource="http://purl.org/dc/dcmitype/StillImage"/>
    <dc:date>2022-01-27T10:12:45.366563</dc:date>
    <dc:format>image/svg+xml</dc:format>
    <dc:creator>
     <cc:Agent>
      <dc:title>Matplotlib v3.5.1, https://matplotlib.org/</dc:title>
     </cc:Agent>
    </dc:creator>
   </cc:Work>
  </rdf:RDF>
 </metadata>
 <defs>
  <style type="text/css">*{stroke-linejoin: round; stroke-linecap: butt}</style>
 </defs>
 <g id="figure_1">
  <g id="patch_1">
   <path d="M 0 340.56 
L 340.56 340.56 
L 340.56 0 
L 0 0 
L 0 340.56 
z
" style="fill: none"/>
  </g>
  <g id="axes_1">
   <g id="line2d_1">
    <defs>
     <path id="mff2cd1029a" d="M 0 3 
C 0.795609 3 1.55874 2.683901 2.12132 2.12132 
C 2.683901 1.55874 3 0.795609 3 0 
C 3 -0.795609 2.683901 -1.55874 2.12132 -2.12132 
C 1.55874 -2.683901 0.795609 -3 0 -3 
C -0.795609 -3 -1.55874 -2.683901 -2.12132 -2.12132 
C -2.683901 -1.55874 -3 -0.795609 -3 0 
C -3 0.795609 -2.683901 1.55874 -2.12132 2.12132 
C -1.55874 2.683901 -0.795609 3 0 3 
z
" style="stroke: #000000"/>
    </defs>
    <g clip-path="url(#pfc893591ae)">
     <use xlink:href="#mff2cd1029a" x="22.025455" y="318.534545" style="stroke: #000000"/>
     <use xlink:href="#mff2cd1029a" x="318.534545" y="22.025455" style="stroke: #000000"/>
    </g>
   </g>
   <g id="line2d_2">
    <defs>
     <path id="mfafe6353ef" d="M 0 3 
C 0.795609 3 1.55874 2.683901 2.12132 2.12132 
C 2.683901 1.55874 3 0.795609 3 0 
C 3 -0.795609 2.683901 -1.55874 2.12132 -2.12132 
C 1.55874 -2.683901 0.795609 -3 0 -3 
C -0.795609 -3 -1.55874 -2.683901 -2.12132 -2.12132 
C -2.683901 -1.55874 -3 -0.795609 -3 0 
C -3 0.795609 -2.683901 1.55874 -2.12132 2.12132 
C -1.55874 2.683901 -0.795609 3 0 3 
z
" style="stroke: #0000ff"/>
    </defs>
    <g clip-path="url(#pfc893591ae)">
     <use xlink:href="#mfafe6353ef" x="170.28" y="170.28" style="fill: #0000ff; stroke: #0000ff"/>
    </g>
   </g>
   <g id="line2d_3">
    <path d="M 22.025455 318.534545 
L 318.534545 22.025455 
" clip-path="url(#pfc893591ae)" style="fill: none; stroke-dasharray: 5.55,2.4; stroke-dashoffset: 0; stroke: #000000; stroke-width: 1.5"/>
   </g>
   <g id="text_1">
    <!-- $x_1=(1, 1)$ -->
    <g transform="translate(44.263636 311.121818)scale(0.16 -0.16)">
     <defs>
      <path id="DejaVuSans-Oblique-78" d="M 3841 3500 
L 2234 1784 
L 3219 0 
L 2559 0 
L 1819 1388 
L 531 0 
L -166 0 
L 1556 1844 
L 641 3500 
L 1300 3500 
L 1972 2234 
L 3144 3500 
L 3841 3500 
z
" transform="scale(0.015625)"/>
      <path id="DejaVuSans-31" d="M 794 531 
L 1825 531 
L 1825 4091 
L 703 3866 
L 703 4441 
L 1819 4666 
L 2450 4666 
L 2450 531 
L 3481 531 
L 3481 0 
L 794 0 
L 794 531 
z
" transform="scale(0.015625)"/>
      <path id="DejaVuSans-3d" d="M 678 2906 
L 4684 2906 
L 4684 2381 
L 678 2381 
L 678 2906 
z
M 678 1631 
L 4684 1631 
L 4684 1100 
L 678 1100 
L 678 1631 
z
" transform="scale(0.015625)"/>
      <path id="DejaVuSans-28" d="M 1984 4856 
Q 1566 4138 1362 3434 
Q 1159 2731 1159 2009 
Q 1159 1288 1364 580 
Q 1569 -128 1984 -844 
L 1484 -844 
Q 1016 -109 783 600 
Q 550 1309 550 2009 
Q 550 2706 781 3412 
Q 1013 4119 1484 4856 
L 1984 4856 
z
" transform="scale(0.015625)"/>
      <path id="DejaVuSans-2c" d="M 750 794 
L 1409 794 
L 1409 256 
L 897 -744 
L 494 -744 
L 750 256 
L 750 794 
z
" transform="scale(0.015625)"/>
      <path id="DejaVuSans-29" d="M 513 4856 
L 1013 4856 
Q 1481 4119 1714 3412 
Q 1947 2706 1947 2009 
Q 1947 1309 1714 600 
Q 1481 -109 1013 -844 
L 513 -844 
Q 928 -128 1133 580 
Q 1338 1288 1338 2009 
Q 1338 2731 1133 3434 
Q 928 4138 513 4856 
z
" transform="scale(0.015625)"/>
     </defs>
     <use xlink:href="#DejaVuSans-Oblique-78" transform="translate(0 0.125)"/>
     <use xlink:href="#DejaVuSans-31" transform="translate(59.179688 -16.28125)scale(0.7)"/>
     <use xlink:href="#DejaVuSans-3d" transform="translate(125.932617 0.125)"/>
     <use xlink:href="#DejaVuSans-28" transform="translate(229.204102 0.125)"/>
     <use xlink:href="#DejaVuSans-31" transform="translate(268.217773 0.125)"/>
     <use xlink:href="#DejaVuSans-2c" transform="translate(331.84082 0.125)"/>
     <use xlink:href="#DejaVuSans-31" transform="translate(383.110352 0.125)"/>
     <use xlink:href="#DejaVuSans-29" transform="translate(446.733398 0.125)"/>
    </g>
   </g>
   <g id="text_2">
    <!-- $y=(2, 2)$ -->
    <g transform="translate(192.518182 170.28)scale(0.16 -0.16)">
     <defs>
      <path id="DejaVuSans-Oblique-79" d="M 1588 -325 
Q 1188 -997 936 -1164 
Q 684 -1331 294 -1331 
L -159 -1331 
L -63 -850 
L 269 -850 
Q 509 -850 678 -719 
Q 847 -588 1056 -206 
L 1234 128 
L 459 3500 
L 1069 3500 
L 1650 819 
L 3256 3500 
L 3859 3500 
L 1588 -325 
z
" transform="scale(0.015625)"/>
      <path id="DejaVuSans-32" d="M 1228 531 
L 3431 531 
L 3431 0 
L 469 0 
L 469 531 
Q 828 903 1448 1529 
Q 2069 2156 2228 2338 
Q 2531 2678 2651 2914 
Q 2772 3150 2772 3378 
Q 2772 3750 2511 3984 
Q 2250 4219 1831 4219 
Q 1534 4219 1204 4116 
Q 875 4013 500 3803 
L 500 4441 
Q 881 4594 1212 4672 
Q 1544 4750 1819 4750 
Q 2544 4750 2975 4387 
Q 3406 4025 3406 3419 
Q 3406 3131 3298 2873 
Q 3191 2616 2906 2266 
Q 2828 2175 2409 1742 
Q 1991 1309 1228 531 
z
" transform="scale(0.015625)"/>
     </defs>
     <use xlink:href="#DejaVuSans-Oblique-79" transform="translate(0 0.125)"/>
     <use xlink:href="#DejaVuSans-3d" transform="translate(78.662109 0.125)"/>
     <use xlink:href="#DejaVuSans-28" transform="translate(181.933594 0.125)"/>
     <use xlink:href="#DejaVuSans-32" transform="translate(220.947266 0.125)"/>
     <use xlink:href="#DejaVuSans-2c" transform="translate(284.570312 0.125)"/>
     <use xlink:href="#DejaVuSans-32" transform="translate(335.839844 0.125)"/>
     <use xlink:href="#DejaVuSans-29" transform="translate(399.462891 0.125)"/>
    </g>
   </g>
   <g id="text_3">
    <!-- $x_2=(3, 3)$ -->
    <g transform="translate(214.756364 36.850909)scale(0.16 -0.16)">
     <defs>
      <path id="DejaVuSans-33" d="M 2597 2516 
Q 3050 2419 3304 2112 
Q 3559 1806 3559 1356 
Q 3559 666 3084 287 
Q 2609 -91 1734 -91 
Q 1441 -91 1130 -33 
Q 819 25 488 141 
L 488 750 
Q 750 597 1062 519 
Q 1375 441 1716 441 
Q 2309 441 2620 675 
Q 2931 909 2931 1356 
Q 2931 1769 2642 2001 
Q 2353 2234 1838 2234 
L 1294 2234 
L 1294 2753 
L 1863 2753 
Q 2328 2753 2575 2939 
Q 2822 3125 2822 3475 
Q 2822 3834 2567 4026 
Q 2313 4219 1838 4219 
Q 1578 4219 1281 4162 
Q 984 4106 628 3988 
L 628 4550 
Q 988 4650 1302 4700 
Q 1616 4750 1894 4750 
Q 2613 4750 3031 4423 
Q 3450 4097 3450 3541 
Q 3450 3153 3228 2886 
Q 3006 2619 2597 2516 
z
" transform="scale(0.015625)"/>
     </defs>
     <use xlink:href="#DejaVuSans-Oblique-78" transform="translate(0 0.125)"/>
     <use xlink:href="#DejaVuSans-32" transform="translate(59.179688 -16.28125)scale(0.7)"/>
     <use xlink:href="#DejaVuSans-3d" transform="translate(125.932617 0.125)"/>
     <use xlink:href="#DejaVuSans-28" transform="translate(229.204102 0.125)"/>
     <use xlink:href="#DejaVuSans-33" transform="translate(268.217773 0.125)"/>
     <use xlink:href="#DejaVuSans-2c" transform="translate(331.84082 0.125)"/>
     <use xlink:href="#DejaVuSans-33" transform="translate(383.110352 0.125)"/>
     <use xlink:href="#DejaVuSans-29" transform="translate(446.733398 0.125)"/>
    </g>
   </g>
   <g id="patch_2">
    <path d="M 142.684166 106.435658 
Q 152.4388 133.709446 161.81692 159.930506 
" style="fill: none; stroke: #000000; stroke-linecap: round"/>
    <path d="M 162.674709 152.82669 
L 161.81692 159.930506 
L 156.648541 154.981985 
" style="fill: none; stroke: #000000; stroke-linecap: round"/>
   </g>
   <g id="text_4">
    <!-- $\lambda_1 = \frac{1}{2} = \lambda_2$ -->
    <g transform="translate(96.152727 96.152727)scale(0.16 -0.16)">
     <defs>
      <path id="DejaVuSans-Oblique-3bb" d="M 2350 4316 
L 3125 0 
L 2516 0 
L 2038 2588 
L 328 0 
L -281 0 
L 1903 3356 
L 1794 3975 
Q 1725 4369 1391 4369 
L 1091 4369 
L 1184 4863 
L 1550 4856 
Q 2253 4847 2350 4316 
z
" transform="scale(0.015625)"/>
     </defs>
     <use xlink:href="#DejaVuSans-Oblique-3bb" transform="translate(0 0.16875)"/>
     <use xlink:href="#DejaVuSans-31" transform="translate(59.179688 -16.2375)scale(0.7)"/>
     <use xlink:href="#DejaVuSans-3d" transform="translate(125.932617 0.16875)"/>
     <use xlink:href="#DejaVuSans-31" transform="translate(229.204102 43.965625)scale(0.7)"/>
     <use xlink:href="#DejaVuSans-32" transform="translate(229.204102 -39.2375)scale(0.7)"/>
     <use xlink:href="#DejaVuSans-3d" transform="translate(305.722656 0.16875)"/>
     <use xlink:href="#DejaVuSans-Oblique-3bb" transform="translate(408.994141 0.16875)"/>
     <use xlink:href="#DejaVuSans-32" transform="translate(468.173828 -16.2375)scale(0.7)"/>
     <path d="M 229.204102 18.965625 
L 229.204102 25.215625 
L 273.740234 25.215625 
L 273.740234 18.965625 
L 229.204102 18.965625 
z
"/>
    </g>
   </g>
  </g>
 </g>
 <defs>
  <clipPath id="pfc893591ae">
   <rect x="7.2" y="7.2" width="326.16" height="326.16"/>
  </clipPath>
 </defs>
</svg>
