<?xml version="1.0" encoding="utf-8" standalone="no"?>
<!DOCTYPE svg PUBLIC "-//W3C//DTD SVG 1.1//EN"
  "http://www.w3.org/Graphics/SVG/1.1/DTD/svg11.dtd">
<svg xmlns:xlink="http://www.w3.org/1999/xlink" width="365.031273pt" height="181.728448pt" viewBox="0 0 365.031273 181.728448" xmlns="http://www.w3.org/2000/svg" version="1.1">
 <metadata>
  <rdf:RDF xmlns:dc="http://purl.org/dc/elements/1.1/" xmlns:cc="http://creativecommons.org/ns#" xmlns:rdf="http://www.w3.org/1999/02/22-rdf-syntax-ns#">
   <cc:Work>
    <dc:type rdf:resource="http://purl.org/dc/dcmitype/StillImage"/>
    <dc:date>2022-01-25T15:51:47.859220</dc:date>
    <dc:format>image/svg+xml</dc:format>
    <dc:creator>
     <cc:Agent>
      <dc:title>Matplotlib v3.5.1, https://matplotlib.org/</dc:title>
     </cc:Agent>
    </dc:creator>
   </cc:Work>
  </rdf:RDF>
 </metadata>
 <defs>
  <style type="text/css">*{stroke-linejoin: round; stroke-linecap: butt}</style>
 </defs>
 <g id="figure_1">
  <g id="patch_1">
   <path d="M 0 181.728448 
L 365.031273 181.728448 
L 365.031273 0 
L 0 0 
L 0 181.728448 
z
" style="fill: none"/>
  </g>
  <g id="axes_1">
   <g id="patch_2">
    <path d="M 24.03 73.75793 
L 24.03 107.970517 
L 114.211818 164.991497 
L 154.793636 164.991497 
L 244.975455 50.949538 
L 244.975455 16.736951 
L 114.211818 16.736951 
z
" clip-path="url(#p9c0b6ed9ba)" style="fill: #0000ff; opacity: 0.1"/>
   </g>
   <g id="patch_3">
    <path d="M 56.273413 83.306786 
Q 89.411291 62.354068 119.714223 43.193855 
" clip-path="url(#p9c0b6ed9ba)" style="fill: none; stroke: #000000; stroke-width: 3; stroke-linecap: round"/>
    <path d="M 115.264508 43.641107 
L 119.714223 43.193855 
L 117.402196 47.021978 
L 115.264508 43.641107 
z
" clip-path="url(#p9c0b6ed9ba)" style="stroke: #000000; stroke-width: 3; stroke-linecap: round"/>
   </g>
   <g id="patch_4">
    <path d="M 56.273413 98.421661 
Q 89.411291 119.37438 119.714223 138.534593 
" clip-path="url(#p9c0b6ed9ba)" style="fill: none; stroke: #000000; stroke-width: 3; stroke-linecap: round"/>
    <path d="M 117.402196 134.706469 
L 119.714223 138.534593 
L 115.264508 138.087341 
L 117.402196 134.706469 
z
" clip-path="url(#p9c0b6ed9ba)" style="stroke: #000000; stroke-width: 3; stroke-linecap: round"/>
   </g>
   <g id="patch_5">
    <path d="M 236.637049 140.327765 
Q 269.774927 119.375047 301.967824 99.01983 
" clip-path="url(#p9c0b6ed9ba)" style="fill: none; stroke: #000000; stroke-linecap: round"/>
    <path d="M 297.518109 99.467082 
L 301.967824 99.01983 
L 299.655796 102.847953 
L 297.518109 99.467082 
z
" clip-path="url(#p9c0b6ed9ba)" style="stroke: #000000; stroke-linecap: round"/>
   </g>
   <g id="patch_6">
    <path d="M 148.447773 31.485507 
Q 179.593454 27.182826 209.631619 31.332459 
" clip-path="url(#p9c0b6ed9ba)" style="fill: none; stroke: #000000; stroke-linecap: round"/>
    <path d="M 205.942941 28.803891 
L 209.631619 31.332459 
L 205.395558 32.76626 
L 205.942941 28.803891 
z
" clip-path="url(#p9c0b6ed9ba)" style="stroke: #000000; stroke-linecap: round"/>
   </g>
   <g id="patch_7">
    <path d="M 136.948661 47.774823 
Q 143.461235 90.865852 137.115258 132.851404 
" clip-path="url(#p9c0b6ed9ba)" style="fill: none; stroke: #000000; stroke-linecap: round"/>
    <path d="M 139.690594 129.195225 
L 137.115258 132.851404 
L 135.735516 128.597428 
L 139.690594 129.195225 
z
" clip-path="url(#p9c0b6ed9ba)" style="stroke: #000000; stroke-linecap: round"/>
   </g>
   <g id="patch_8">
    <path d="M 210.739499 36.200982 
Q 179.593819 40.503664 149.555654 36.354031 
" clip-path="url(#p9c0b6ed9ba)" style="fill: none; stroke: #000000; stroke-linecap: round"/>
    <path d="M 153.244332 38.882599 
L 149.555654 36.354031 
L 153.791715 34.920229 
L 153.244332 38.882599 
z
" clip-path="url(#p9c0b6ed9ba)" style="stroke: #000000; stroke-linecap: round"/>
   </g>
   <g id="patch_9">
    <path d="M 218.025605 46.322282 
Q 189.02323 98.321217 145.934911 137.77422 
" clip-path="url(#p9c0b6ed9ba)" style="fill: none; stroke: #000000; stroke-linecap: round"/>
    <path d="M 150.235668 136.548051 
L 145.934911 137.77422 
L 147.53443 133.597913 
L 150.235668 136.548051 
z
" clip-path="url(#p9c0b6ed9ba)" style="stroke: #000000; stroke-linecap: round"/>
   </g>
   <g id="patch_10">
    <path d="M 227.13048 47.774823 
Q 233.643053 90.865852 227.631255 130.640448 
" clip-path="url(#p9c0b6ed9ba)" style="fill: none; stroke: #0000ff; stroke-width: 3; stroke-linecap: round"/>
    <path d="M 230.206591 126.984269 
L 227.631255 130.640448 
L 226.251513 126.386472 
L 230.206591 126.984269 
z
" clip-path="url(#p9c0b6ed9ba)" style="fill: #0000ff; stroke: #0000ff; stroke-width: 3; stroke-linecap: round"/>
   </g>
   <g id="patch_11">
    <path d="M 237.755658 39.241602 
Q 274.183721 55.383668 301.843805 79.18407 
" clip-path="url(#p9c0b6ed9ba)" style="fill: none; stroke: #0000ff; stroke-width: 3; stroke-linecap: round"/>
    <path d="M 300.116234 75.059085 
L 301.843805 79.18407 
L 297.507275 78.091136 
L 300.116234 75.059085 
z
" clip-path="url(#p9c0b6ed9ba)" style="fill: #0000ff; stroke: #0000ff; stroke-width: 3; stroke-linecap: round"/>
   </g>
   <g id="patch_12">
    <path d="M 132.056793 133.953624 
Q 125.544219 90.862595 131.890196 48.877044 
" clip-path="url(#p9c0b6ed9ba)" style="fill: none; stroke: #000000; stroke-linecap: round"/>
    <path d="M 129.31486 52.533223 
L 131.890196 48.877044 
L 133.269938 53.13102 
L 129.31486 52.533223 
z
" clip-path="url(#p9c0b6ed9ba)" style="stroke: #000000; stroke-linecap: round"/>
   </g>
   <g id="patch_13">
    <path d="M 141.161668 135.406166 
Q 170.164043 83.40723 211.603184 45.464265 
" clip-path="url(#p9c0b6ed9ba)" style="fill: none; stroke: #000000; stroke-width: 3; stroke-linecap: round"/>
    <path d="M 207.302427 46.690434 
L 211.603184 45.464265 
L 210.003665 49.640572 
L 207.302427 46.690434 
z
" clip-path="url(#p9c0b6ed9ba)" style="stroke: #000000; stroke-width: 3; stroke-linecap: round"/>
   </g>
   <g id="patch_14">
    <path d="M 148.447773 145.527465 
Q 179.593454 141.224784 209.631619 145.374417 
" clip-path="url(#p9c0b6ed9ba)" style="fill: none; stroke: #000000; stroke-linecap: round"/>
    <path d="M 205.942941 142.845849 
L 209.631619 145.374417 
L 205.395558 146.808219 
L 205.942941 142.845849 
z
" clip-path="url(#p9c0b6ed9ba)" style="stroke: #000000; stroke-linecap: round"/>
   </g>
   <g id="patch_15">
    <path d="M 222.238611 133.953624 
Q 215.726038 90.862595 222.072014 48.877044 
" clip-path="url(#p9c0b6ed9ba)" style="fill: none; stroke: #000000; stroke-linecap: round"/>
    <path d="M 219.496679 52.533223 
L 222.072014 48.877044 
L 223.451756 53.13102 
L 219.496679 52.533223 
z
" clip-path="url(#p9c0b6ed9ba)" style="stroke: #000000; stroke-linecap: round"/>
   </g>
   <g id="patch_16">
    <path d="M 210.739499 150.24294 
Q 179.593819 154.545622 149.555654 150.395989 
" clip-path="url(#p9c0b6ed9ba)" style="fill: none; stroke: #000000; stroke-linecap: round"/>
    <path d="M 153.244332 152.924557 
L 149.555654 150.395989 
L 153.791715 148.962187 
L 153.244332 152.924557 
z
" clip-path="url(#p9c0b6ed9ba)" style="stroke: #000000; stroke-linecap: round"/>
   </g>
   <g id="patch_17">
    <path d="M 301.795251 85.465866 
Q 265.367188 69.3238 236.012136 44.064946 
" clip-path="url(#p9c0b6ed9ba)" style="fill: none; stroke: #000000; stroke-linecap: round"/>
    <path d="M 237.739707 48.189931 
L 236.012136 44.064946 
L 240.348666 45.15788 
L 237.739707 48.189931 
z
" clip-path="url(#p9c0b6ed9ba)" style="stroke: #000000; stroke-linecap: round"/>
   </g>
   <g id="PathCollection_1">
    <defs>
     <path id="meb6bd02a07" d="M 0 14.142136 
C 3.750538 14.142136 7.347969 12.652031 10 10 
C 12.652031 7.347969 14.142136 3.750538 14.142136 0 
C 14.142136 -3.750538 12.652031 -7.347969 10 -10 
C 7.347969 -12.652031 3.750538 -14.142136 0 -14.142136 
C -3.750538 -14.142136 -7.347969 -12.652031 -10 -10 
C -12.652031 -7.347969 -14.142136 -3.750538 -14.142136 0 
C -14.142136 3.750538 -12.652031 7.347969 -10 10 
C -7.347969 12.652031 -3.750538 14.142136 0 14.142136 
z
" style="stroke: #000000"/>
    </defs>
    <g clip-path="url(#p9c0b6ed9ba)">
     <use xlink:href="#meb6bd02a07" x="44.320909" y="90.864224" style="fill: #ffffff; stroke: #000000"/>
     <use xlink:href="#meb6bd02a07" x="134.502727" y="33.843245" style="fill: #ffffff; stroke: #000000"/>
     <use xlink:href="#meb6bd02a07" x="224.684545" y="33.843245" style="fill: #ffffff; stroke: #000000"/>
     <use xlink:href="#meb6bd02a07" x="134.502727" y="147.885203" style="fill: #ffffff; stroke: #000000"/>
     <use xlink:href="#meb6bd02a07" x="224.684545" y="147.885203" style="fill: #ffffff; stroke: #000000"/>
     <use xlink:href="#meb6bd02a07" x="314.866364" y="90.864224" style="fill: #ffffff; stroke: #000000"/>
    </g>
   </g>
   <g id="PathCollection_2">
    <g clip-path="url(#p9c0b6ed9ba)">
     <use xlink:href="#meb6bd02a07" x="44.320909" y="90.864224" style="fill: #ffffff; stroke: #000000"/>
     <use xlink:href="#meb6bd02a07" x="134.502727" y="33.843245" style="fill: #ffffff; stroke: #000000"/>
     <use xlink:href="#meb6bd02a07" x="224.684545" y="33.843245" style="fill: #ffffff; stroke: #000000"/>
     <use xlink:href="#meb6bd02a07" x="134.502727" y="147.885203" style="fill: #ffffff; stroke: #000000"/>
     <use xlink:href="#meb6bd02a07" x="224.684545" y="147.885203" style="fill: #ffffff; stroke: #000000"/>
     <use xlink:href="#meb6bd02a07" x="314.866364" y="90.864224" style="fill: #ffffff; stroke: #000000"/>
    </g>
   </g>
   <g id="text_1">
    <g clip-path="url(#p9c0b6ed9ba)">
     <!-- 0 -->
     <g transform="translate(38.754659 95.279224)scale(0.16 -0.16)">
      <defs>
       <path id="DejaVuSans-Bold-30" d="M 2944 2338 
Q 2944 3213 2780 3570 
Q 2616 3928 2228 3928 
Q 1841 3928 1675 3570 
Q 1509 3213 1509 2338 
Q 1509 1453 1675 1090 
Q 1841 728 2228 728 
Q 2613 728 2778 1090 
Q 2944 1453 2944 2338 
z
M 4147 2328 
Q 4147 1169 3647 539 
Q 3147 -91 2228 -91 
Q 1306 -91 806 539 
Q 306 1169 306 2328 
Q 306 3491 806 4120 
Q 1306 4750 2228 4750 
Q 3147 4750 3647 4120 
Q 4147 3491 4147 2328 
z
" transform="scale(0.015625)"/>
      </defs>
      <use xlink:href="#DejaVuSans-Bold-30"/>
     </g>
    </g>
   </g>
   <g id="text_2">
    <g clip-path="url(#p9c0b6ed9ba)">
     <!-- 1 -->
     <g transform="translate(128.936477 38.258245)scale(0.16 -0.16)">
      <defs>
       <path id="DejaVuSans-Bold-31" d="M 750 831 
L 1813 831 
L 1813 3847 
L 722 3622 
L 722 4441 
L 1806 4666 
L 2950 4666 
L 2950 831 
L 4013 831 
L 4013 0 
L 750 0 
L 750 831 
z
" transform="scale(0.015625)"/>
      </defs>
      <use xlink:href="#DejaVuSans-Bold-31"/>
     </g>
    </g>
   </g>
   <g id="text_3">
    <g clip-path="url(#p9c0b6ed9ba)">
     <!-- 2 -->
     <g transform="translate(219.118295 38.258245)scale(0.16 -0.16)">
      <defs>
       <path id="DejaVuSans-Bold-32" d="M 1844 884 
L 3897 884 
L 3897 0 
L 506 0 
L 506 884 
L 2209 2388 
Q 2438 2594 2547 2791 
Q 2656 2988 2656 3200 
Q 2656 3528 2436 3728 
Q 2216 3928 1850 3928 
Q 1569 3928 1234 3808 
Q 900 3688 519 3450 
L 519 4475 
Q 925 4609 1322 4679 
Q 1719 4750 2100 4750 
Q 2938 4750 3402 4381 
Q 3866 4013 3866 3353 
Q 3866 2972 3669 2642 
Q 3472 2313 2841 1759 
L 1844 884 
z
" transform="scale(0.015625)"/>
      </defs>
      <use xlink:href="#DejaVuSans-Bold-32"/>
     </g>
    </g>
   </g>
   <g id="text_4">
    <g clip-path="url(#p9c0b6ed9ba)">
     <!-- 3 -->
     <g transform="translate(128.936477 152.300203)scale(0.16 -0.16)">
      <defs>
       <path id="DejaVuSans-Bold-33" d="M 2981 2516 
Q 3453 2394 3698 2092 
Q 3944 1791 3944 1325 
Q 3944 631 3412 270 
Q 2881 -91 1863 -91 
Q 1503 -91 1142 -33 
Q 781 25 428 141 
L 428 1069 
Q 766 900 1098 814 
Q 1431 728 1753 728 
Q 2231 728 2486 893 
Q 2741 1059 2741 1369 
Q 2741 1688 2480 1852 
Q 2219 2016 1709 2016 
L 1228 2016 
L 1228 2791 
L 1734 2791 
Q 2188 2791 2409 2933 
Q 2631 3075 2631 3366 
Q 2631 3634 2415 3781 
Q 2200 3928 1806 3928 
Q 1516 3928 1219 3862 
Q 922 3797 628 3669 
L 628 4550 
Q 984 4650 1334 4700 
Q 1684 4750 2022 4750 
Q 2931 4750 3382 4451 
Q 3834 4153 3834 3553 
Q 3834 3144 3618 2883 
Q 3403 2622 2981 2516 
z
" transform="scale(0.015625)"/>
      </defs>
      <use xlink:href="#DejaVuSans-Bold-33"/>
     </g>
    </g>
   </g>
   <g id="text_5">
    <g clip-path="url(#p9c0b6ed9ba)">
     <!-- 4 -->
     <g transform="translate(219.118295 152.300203)scale(0.16 -0.16)">
      <defs>
       <path id="DejaVuSans-Bold-34" d="M 2356 3675 
L 1038 1722 
L 2356 1722 
L 2356 3675 
z
M 2156 4666 
L 3494 4666 
L 3494 1722 
L 4159 1722 
L 4159 850 
L 3494 850 
L 3494 0 
L 2356 0 
L 2356 850 
L 288 850 
L 288 1881 
L 2156 4666 
z
" transform="scale(0.015625)"/>
      </defs>
      <use xlink:href="#DejaVuSans-Bold-34"/>
     </g>
    </g>
   </g>
   <g id="text_6">
    <g clip-path="url(#p9c0b6ed9ba)">
     <!-- 5 -->
     <g transform="translate(309.300114 95.279224)scale(0.16 -0.16)">
      <defs>
       <path id="DejaVuSans-Bold-35" d="M 678 4666 
L 3669 4666 
L 3669 3781 
L 1638 3781 
L 1638 3059 
Q 1775 3097 1914 3117 
Q 2053 3138 2203 3138 
Q 3056 3138 3531 2711 
Q 4006 2284 4006 1522 
Q 4006 766 3489 337 
Q 2972 -91 2053 -91 
Q 1656 -91 1267 -14 
Q 878 63 494 219 
L 494 1166 
Q 875 947 1217 837 
Q 1559 728 1863 728 
Q 2300 728 2551 942 
Q 2803 1156 2803 1522 
Q 2803 1891 2551 2103 
Q 2300 2316 1863 2316 
Q 1603 2316 1309 2248 
Q 1016 2181 678 2041 
L 678 4666 
z
" transform="scale(0.015625)"/>
      </defs>
      <use xlink:href="#DejaVuSans-Bold-35"/>
     </g>
    </g>
   </g>
   <g id="text_7">
    <g clip-path="url(#p9c0b6ed9ba)">
     <!-- 0 -->
     <g transform="translate(38.754659 95.279224)scale(0.16 -0.16)">
      <use xlink:href="#DejaVuSans-Bold-30"/>
     </g>
    </g>
   </g>
   <g id="text_8">
    <g clip-path="url(#p9c0b6ed9ba)">
     <!-- 1 -->
     <g transform="translate(128.936477 38.258245)scale(0.16 -0.16)">
      <use xlink:href="#DejaVuSans-Bold-31"/>
     </g>
    </g>
   </g>
   <g id="text_9">
    <g clip-path="url(#p9c0b6ed9ba)">
     <!-- 2 -->
     <g transform="translate(219.118295 38.258245)scale(0.16 -0.16)">
      <use xlink:href="#DejaVuSans-Bold-32"/>
     </g>
    </g>
   </g>
   <g id="text_10">
    <g clip-path="url(#p9c0b6ed9ba)">
     <!-- 3 -->
     <g transform="translate(128.936477 152.300203)scale(0.16 -0.16)">
      <use xlink:href="#DejaVuSans-Bold-33"/>
     </g>
    </g>
   </g>
   <g id="text_11">
    <g clip-path="url(#p9c0b6ed9ba)">
     <!-- 4 -->
     <g transform="translate(219.118295 152.300203)scale(0.16 -0.16)">
      <use xlink:href="#DejaVuSans-Bold-34"/>
     </g>
    </g>
   </g>
   <g id="text_12">
    <g clip-path="url(#p9c0b6ed9ba)">
     <!-- 5 -->
     <g transform="translate(309.300114 95.279224)scale(0.16 -0.16)">
      <use xlink:href="#DejaVuSans-Bold-35"/>
     </g>
    </g>
   </g>
   <g id="text_13">
    <g id="patch_18">
     <path d="M 85.411818 68.433422 
L 99.774318 68.433422 
L 99.774318 50.755297 
L 85.411818 50.755297 
z
" style="fill: #ffffff; stroke: #ffffff; stroke-linejoin: miter"/>
    </g>
    <!-- 2 -->
    <g transform="translate(89.411818 62.353734)scale(0.1 -0.1)">
     <defs>
      <path id="DejaVuSans-32" d="M 1228 531 
L 3431 531 
L 3431 0 
L 469 0 
L 469 531 
Q 828 903 1448 1529 
Q 2069 2156 2228 2338 
Q 2531 2678 2651 2914 
Q 2772 3150 2772 3378 
Q 2772 3750 2511 3984 
Q 2250 4219 1831 4219 
Q 1534 4219 1204 4116 
Q 875 4013 500 3803 
L 500 4441 
Q 881 4594 1212 4672 
Q 1544 4750 1819 4750 
Q 2544 4750 2975 4387 
Q 3406 4025 3406 3419 
Q 3406 3131 3298 2873 
Q 3191 2616 2906 2266 
Q 2828 2175 2409 1742 
Q 1991 1309 1228 531 
z
" transform="scale(0.015625)"/>
     </defs>
     <use xlink:href="#DejaVuSans-32"/>
    </g>
   </g>
   <g id="text_14">
    <g id="patch_19">
     <path d="M 85.411818 125.454401 
L 99.774318 125.454401 
L 99.774318 107.776276 
L 85.411818 107.776276 
z
" style="fill: #ffffff; stroke: #ffffff; stroke-linejoin: miter"/>
    </g>
    <!-- 3 -->
    <g transform="translate(89.411818 119.374713)scale(0.1 -0.1)">
     <defs>
      <path id="DejaVuSans-33" d="M 2597 2516 
Q 3050 2419 3304 2112 
Q 3559 1806 3559 1356 
Q 3559 666 3084 287 
Q 2609 -91 1734 -91 
Q 1441 -91 1130 -33 
Q 819 25 488 141 
L 488 750 
Q 750 597 1062 519 
Q 1375 441 1716 441 
Q 2309 441 2620 675 
Q 2931 909 2931 1356 
Q 2931 1769 2642 2001 
Q 2353 2234 1838 2234 
L 1294 2234 
L 1294 2753 
L 1863 2753 
Q 2328 2753 2575 2939 
Q 2822 3125 2822 3475 
Q 2822 3834 2567 4026 
Q 2313 4219 1838 4219 
Q 1578 4219 1281 4162 
Q 984 4106 628 3988 
L 628 4550 
Q 988 4650 1302 4700 
Q 1616 4750 1894 4750 
Q 2613 4750 3031 4423 
Q 3450 4097 3450 3541 
Q 3450 3153 3228 2886 
Q 3006 2619 2597 2516 
z
" transform="scale(0.015625)"/>
     </defs>
     <use xlink:href="#DejaVuSans-33"/>
    </g>
   </g>
   <g id="text_15">
    <g id="patch_20">
     <path d="M 175.593636 34.220834 
L 189.956136 34.220834 
L 189.956136 16.542709 
L 175.593636 16.542709 
z
" style="fill: #ffffff; stroke: #ffffff; stroke-linejoin: miter"/>
    </g>
    <!-- 7 -->
    <g transform="translate(179.593636 28.141147)scale(0.1 -0.1)">
     <defs>
      <path id="DejaVuSans-37" d="M 525 4666 
L 3525 4666 
L 3525 4397 
L 1831 0 
L 1172 0 
L 2766 4134 
L 525 4134 
L 525 4666 
z
" transform="scale(0.015625)"/>
     </defs>
     <use xlink:href="#DejaVuSans-37"/>
    </g>
   </g>
   <g id="text_16">
    <g id="patch_21">
     <path d="M 137.266364 96.943911 
L 151.628864 96.943911 
L 151.628864 79.265786 
L 137.266364 79.265786 
z
" style="fill: #ffffff; stroke: #ffffff; stroke-linejoin: miter"/>
    </g>
    <!-- 4 -->
    <g transform="translate(141.266364 90.864224)scale(0.1 -0.1)">
     <defs>
      <path id="DejaVuSans-34" d="M 2419 4116 
L 825 1625 
L 2419 1625 
L 2419 4116 
z
M 2253 4666 
L 3047 4666 
L 3047 1625 
L 3713 1625 
L 3713 1100 
L 3047 1100 
L 3047 0 
L 2419 0 
L 2419 1100 
L 313 1100 
L 313 1709 
L 2253 4666 
z
" transform="scale(0.015625)"/>
     </defs>
     <use xlink:href="#DejaVuSans-34"/>
    </g>
   </g>
   <g id="text_17">
    <g id="patch_22">
     <path d="M 175.593636 51.327128 
L 189.956136 51.327128 
L 189.956136 33.649003 
L 175.593636 33.649003 
z
" style="fill: #ffffff; stroke: #ffffff; stroke-linejoin: miter"/>
    </g>
    <!-- 4 -->
    <g transform="translate(179.593636 45.247441)scale(0.1 -0.1)">
     <use xlink:href="#DejaVuSans-34"/>
    </g>
   </g>
   <g id="text_18">
    <g id="patch_23">
     <path d="M 182.357273 94.092862 
L 196.719773 94.092862 
L 196.719773 76.414737 
L 182.357273 76.414737 
z
" style="fill: #ffffff; stroke: #ffffff; stroke-linejoin: miter"/>
    </g>
    <!-- 1 -->
    <g transform="translate(186.357273 88.013175)scale(0.1 -0.1)">
     <defs>
      <path id="DejaVuSans-31" d="M 794 531 
L 1825 531 
L 1825 4091 
L 703 3866 
L 703 4441 
L 1819 4666 
L 2450 4666 
L 2450 531 
L 3481 531 
L 3481 0 
L 794 0 
L 794 531 
z
" transform="scale(0.015625)"/>
     </defs>
     <use xlink:href="#DejaVuSans-31"/>
    </g>
   </g>
   <g id="text_19">
    <g id="patch_24">
     <path d="M 227.448182 96.943911 
L 241.810682 96.943911 
L 241.810682 79.265786 
L 227.448182 79.265786 
z
" style="fill: #ffffff; stroke: #ffffff; stroke-linejoin: miter"/>
    </g>
    <!-- 7 -->
    <g transform="translate(231.448182 90.864224)scale(0.1 -0.1)">
     <use xlink:href="#DejaVuSans-37"/>
    </g>
   </g>
   <g id="text_20">
    <g id="patch_25">
     <path d="M 272.539091 65.582373 
L 286.901591 65.582373 
L 286.901591 47.904248 
L 272.539091 47.904248 
z
" style="fill: #ffffff; stroke: #ffffff; stroke-linejoin: miter"/>
    </g>
    <!-- 1 -->
    <g transform="translate(276.539091 59.502685)scale(0.1 -0.1)">
     <use xlink:href="#DejaVuSans-31"/>
    </g>
   </g>
   <g id="text_21">
    <g id="patch_26">
     <path d="M 116.975455 96.943911 
L 131.337955 96.943911 
L 131.337955 79.265786 
L 116.975455 79.265786 
z
" style="fill: #ffffff; stroke: #ffffff; stroke-linejoin: miter"/>
    </g>
    <!-- 7 -->
    <g transform="translate(120.975455 90.864224)scale(0.1 -0.1)">
     <use xlink:href="#DejaVuSans-37"/>
    </g>
   </g>
   <g id="text_22">
    <g id="patch_27">
     <path d="M 162.066364 102.646009 
L 176.428864 102.646009 
L 176.428864 84.967884 
L 162.066364 84.967884 
z
" style="fill: #ffffff; stroke: #ffffff; stroke-linejoin: miter"/>
    </g>
    <!-- 1 -->
    <g transform="translate(166.066364 96.566322)scale(0.1 -0.1)">
     <use xlink:href="#DejaVuSans-31"/>
    </g>
   </g>
   <g id="text_23">
    <g id="patch_28">
     <path d="M 175.593636 148.262792 
L 189.956136 148.262792 
L 189.956136 130.584667 
L 175.593636 130.584667 
z
" style="fill: #ffffff; stroke: #ffffff; stroke-linejoin: miter"/>
    </g>
    <!-- 8 -->
    <g transform="translate(179.593636 142.183105)scale(0.1 -0.1)">
     <defs>
      <path id="DejaVuSans-38" d="M 2034 2216 
Q 1584 2216 1326 1975 
Q 1069 1734 1069 1313 
Q 1069 891 1326 650 
Q 1584 409 2034 409 
Q 2484 409 2743 651 
Q 3003 894 3003 1313 
Q 3003 1734 2745 1975 
Q 2488 2216 2034 2216 
z
M 1403 2484 
Q 997 2584 770 2862 
Q 544 3141 544 3541 
Q 544 4100 942 4425 
Q 1341 4750 2034 4750 
Q 2731 4750 3128 4425 
Q 3525 4100 3525 3541 
Q 3525 3141 3298 2862 
Q 3072 2584 2669 2484 
Q 3125 2378 3379 2068 
Q 3634 1759 3634 1313 
Q 3634 634 3220 271 
Q 2806 -91 2034 -91 
Q 1263 -91 848 271 
Q 434 634 434 1313 
Q 434 1759 690 2068 
Q 947 2378 1403 2484 
z
M 1172 3481 
Q 1172 3119 1398 2916 
Q 1625 2713 2034 2713 
Q 2441 2713 2670 2916 
Q 2900 3119 2900 3481 
Q 2900 3844 2670 4047 
Q 2441 4250 2034 4250 
Q 1625 4250 1398 4047 
Q 1172 3844 1172 3481 
z
" transform="scale(0.015625)"/>
     </defs>
     <use xlink:href="#DejaVuSans-38"/>
    </g>
   </g>
   <g id="text_24">
    <g id="patch_29">
     <path d="M 207.157273 96.943911 
L 221.519773 96.943911 
L 221.519773 79.265786 
L 207.157273 79.265786 
z
" style="fill: #ffffff; stroke: #ffffff; stroke-linejoin: miter"/>
    </g>
    <!-- 2 -->
    <g transform="translate(211.157273 90.864224)scale(0.1 -0.1)">
     <use xlink:href="#DejaVuSans-32"/>
    </g>
   </g>
   <g id="text_25">
    <g id="patch_30">
     <path d="M 175.593636 165.369086 
L 189.956136 165.369086 
L 189.956136 147.690961 
L 175.593636 147.690961 
z
" style="fill: #ffffff; stroke: #ffffff; stroke-linejoin: miter"/>
    </g>
    <!-- 6 -->
    <g transform="translate(179.593636 159.289399)scale(0.1 -0.1)">
     <defs>
      <path id="DejaVuSans-36" d="M 2113 2584 
Q 1688 2584 1439 2293 
Q 1191 2003 1191 1497 
Q 1191 994 1439 701 
Q 1688 409 2113 409 
Q 2538 409 2786 701 
Q 3034 994 3034 1497 
Q 3034 2003 2786 2293 
Q 2538 2584 2113 2584 
z
M 3366 4563 
L 3366 3988 
Q 3128 4100 2886 4159 
Q 2644 4219 2406 4219 
Q 1781 4219 1451 3797 
Q 1122 3375 1075 2522 
Q 1259 2794 1537 2939 
Q 1816 3084 2150 3084 
Q 2853 3084 3261 2657 
Q 3669 2231 3669 1497 
Q 3669 778 3244 343 
Q 2819 -91 2113 -91 
Q 1303 -91 875 529 
Q 447 1150 447 2328 
Q 447 3434 972 4092 
Q 1497 4750 2381 4750 
Q 2619 4750 2861 4703 
Q 3103 4656 3366 4563 
z
" transform="scale(0.015625)"/>
     </defs>
     <use xlink:href="#DejaVuSans-36"/>
    </g>
   </g>
   <g id="text_26">
    <g id="patch_31">
     <path d="M 265.775455 125.454401 
L 280.137955 125.454401 
L 280.137955 107.776276 
L 265.775455 107.776276 
z
" style="fill: #ffffff; stroke: #ffffff; stroke-linejoin: miter"/>
    </g>
    <!-- 2 -->
    <g transform="translate(269.775455 119.374713)scale(0.1 -0.1)">
     <use xlink:href="#DejaVuSans-32"/>
    </g>
   </g>
   <g id="text_27">
    <g id="patch_32">
     <path d="M 252.248182 74.13552 
L 266.610682 74.13552 
L 266.610682 56.457395 
L 252.248182 56.457395 
z
" style="fill: #ffffff; stroke: #ffffff; stroke-linejoin: miter"/>
    </g>
    <!-- 8 -->
    <g transform="translate(256.248182 68.055832)scale(0.1 -0.1)">
     <use xlink:href="#DejaVuSans-38"/>
    </g>
   </g>
   <g id="text_28">
    <g id="patch_33">
     <path d="M 3.232 80.576979 
L 27.998 80.576979 
L 27.998 60.252979 
L 3.232 60.252979 
z
" style="fill: #ffffff; stroke: #000000; stroke-linejoin: miter"/>
    </g>
    <!-- 0,- -->
    <g transform="translate(7.2 73.946979)scale(0.128 -0.128)">
     <defs>
      <path id="DejaVuSans-30" d="M 2034 4250 
Q 1547 4250 1301 3770 
Q 1056 3291 1056 2328 
Q 1056 1369 1301 889 
Q 1547 409 2034 409 
Q 2525 409 2770 889 
Q 3016 1369 3016 2328 
Q 3016 3291 2770 3770 
Q 2525 4250 2034 4250 
z
M 2034 4750 
Q 2819 4750 3233 4129 
Q 3647 3509 3647 2328 
Q 3647 1150 3233 529 
Q 2819 -91 2034 -91 
Q 1250 -91 836 529 
Q 422 1150 422 2328 
Q 422 3509 836 4129 
Q 1250 4750 2034 4750 
z
" transform="scale(0.015625)"/>
      <path id="DejaVuSans-2c" d="M 750 794 
L 1409 794 
L 1409 256 
L 897 -744 
L 494 -744 
L 750 256 
L 750 794 
z
" transform="scale(0.015625)"/>
      <path id="DejaVuSans-2d" d="M 313 2009 
L 1997 2009 
L 1997 1497 
L 313 1497 
L 313 2009 
z
" transform="scale(0.015625)"/>
     </defs>
     <use xlink:href="#DejaVuSans-30"/>
     <use xlink:href="#DejaVuSans-2c" x="63.623047"/>
     <use xlink:href="#DejaVuSans-2d" x="95.410156"/>
    </g>
   </g>
   <g id="text_29">
    <g id="patch_34">
     <path d="M 89.887818 23.556 
L 118.179818 23.556 
L 118.179818 3.232 
L 89.887818 3.232 
z
" style="fill: #ffffff; stroke: #000000; stroke-linejoin: miter"/>
    </g>
    <!-- 2,0 -->
    <g transform="translate(93.855818 16.926)scale(0.128 -0.128)">
     <use xlink:href="#DejaVuSans-32"/>
     <use xlink:href="#DejaVuSans-2c" x="63.623047"/>
     <use xlink:href="#DejaVuSans-30" x="95.410156"/>
    </g>
   </g>
   <g id="text_30">
    <g id="patch_35">
     <path d="M 241.007455 23.556 
L 269.299455 23.556 
L 269.299455 3.232 
L 241.007455 3.232 
z
" style="fill: #ffffff; stroke: #000000; stroke-linejoin: miter"/>
    </g>
    <!-- 4,3 -->
    <g transform="translate(244.975455 16.926)scale(0.128 -0.128)">
     <use xlink:href="#DejaVuSans-34"/>
     <use xlink:href="#DejaVuSans-2c" x="63.623047"/>
     <use xlink:href="#DejaVuSans-33" x="95.410156"/>
    </g>
   </g>
   <g id="text_31">
    <g id="patch_36">
     <path d="M 89.887818 178.496448 
L 118.179818 178.496448 
L 118.179818 158.172448 
L 89.887818 158.172448 
z
" style="fill: #ffffff; stroke: #000000; stroke-linejoin: miter"/>
    </g>
    <!-- 3,0 -->
    <g transform="translate(93.855818 171.866448)scale(0.128 -0.128)">
     <use xlink:href="#DejaVuSans-33"/>
     <use xlink:href="#DejaVuSans-2c" x="63.623047"/>
     <use xlink:href="#DejaVuSans-30" x="95.410156"/>
    </g>
   </g>
   <g id="text_32">
    <g id="patch_37">
     <path d="M 241.007455 178.496448 
L 271.617455 178.496448 
L 271.617455 158.172448 
L 241.007455 158.172448 
z
" style="fill: #ffffff; stroke: #000000; stroke-linejoin: miter"/>
    </g>
    <!-- 6,2 -->
    <g transform="translate(244.975455 171.866448)scale(0.128 -0.128)">
     <defs>
      <path id="DejaVuSans-Bold-36" d="M 2316 2303 
Q 2000 2303 1842 2098 
Q 1684 1894 1684 1484 
Q 1684 1075 1842 870 
Q 2000 666 2316 666 
Q 2634 666 2792 870 
Q 2950 1075 2950 1484 
Q 2950 1894 2792 2098 
Q 2634 2303 2316 2303 
z
M 3803 4544 
L 3803 3681 
Q 3506 3822 3243 3889 
Q 2981 3956 2731 3956 
Q 2194 3956 1894 3657 
Q 1594 3359 1544 2772 
Q 1750 2925 1990 3001 
Q 2231 3078 2516 3078 
Q 3231 3078 3670 2659 
Q 4109 2241 4109 1563 
Q 4109 813 3618 361 
Q 3128 -91 2303 -91 
Q 1394 -91 895 523 
Q 397 1138 397 2266 
Q 397 3422 980 4083 
Q 1563 4744 2578 4744 
Q 2900 4744 3203 4694 
Q 3506 4644 3803 4544 
z
" transform="scale(0.015625)"/>
      <path id="DejaVuSans-Bold-2c" d="M 653 1209 
L 1778 1209 
L 1778 256 
L 1006 -909 
L 341 -909 
L 653 256 
L 653 1209 
z
" transform="scale(0.015625)"/>
     </defs>
     <use xlink:href="#DejaVuSans-Bold-36"/>
     <use xlink:href="#DejaVuSans-Bold-2c" x="69.580078"/>
     <use xlink:href="#DejaVuSans-Bold-32" x="107.568359"/>
    </g>
   </g>
   <g id="text_33">
    <g id="patch_38">
     <path d="M 331.189273 80.576979 
L 361.799273 80.576979 
L 361.799273 60.252979 
L 331.189273 60.252979 
z
" style="fill: #ffffff; stroke: #000000; stroke-linejoin: miter"/>
    </g>
    <!-- 5,2 -->
    <g transform="translate(335.157273 73.946979)scale(0.128 -0.128)">
     <use xlink:href="#DejaVuSans-Bold-35"/>
     <use xlink:href="#DejaVuSans-Bold-2c" x="69.580078"/>
     <use xlink:href="#DejaVuSans-Bold-32" x="107.568359"/>
    </g>
   </g>
  </g>
 </g>
 <defs>
  <clipPath id="p9c0b6ed9ba">
   <rect x="8.811818" y="9.324224" width="334.8" height="163.08"/>
  </clipPath>
 </defs>
</svg>
