<?xml version="1.0" encoding="utf-8" standalone="no"?>
<!DOCTYPE svg PUBLIC "-//W3C//DTD SVG 1.1//EN"
  "http://www.w3.org/Graphics/SVG/1.1/DTD/svg11.dtd">
<svg xmlns:xlink="http://www.w3.org/1999/xlink" width="707.809091pt" height="640.8pt" viewBox="0 0 707.809091 640.8" xmlns="http://www.w3.org/2000/svg" version="1.1">
 <metadata>
  <rdf:RDF xmlns:dc="http://purl.org/dc/elements/1.1/" xmlns:cc="http://creativecommons.org/ns#" xmlns:rdf="http://www.w3.org/1999/02/22-rdf-syntax-ns#">
   <cc:Work>
    <dc:type rdf:resource="http://purl.org/dc/dcmitype/StillImage"/>
    <dc:date>2022-01-27T10:12:40.312410</dc:date>
    <dc:format>image/svg+xml</dc:format>
    <dc:creator>
     <cc:Agent>
      <dc:title>Matplotlib v3.5.1, https://matplotlib.org/</dc:title>
     </cc:Agent>
    </dc:creator>
   </cc:Work>
  </rdf:RDF>
 </metadata>
 <defs>
  <style type="text/css">*{stroke-linejoin: round; stroke-linecap: butt}</style>
 </defs>
 <g id="figure_1">
  <g id="patch_1">
   <path d="M 0 640.8 
L 707.809091 640.8 
L 707.809091 0 
L 0 0 
L 0 640.8 
z
" style="fill: none"/>
  </g>
  <g id="patch_2">
   <path d="M 7.2 315 
L 315 315 
L 315 7.2 
L 7.2 7.2 
z
" style="fill: #ffffff"/>
  </g>
  <g id="axes_1">
   <g id="patch_3">
    <path d="M 136.674301 194.091546 
Q 136.503546 137.948317 136.342993 85.159175 
" clip-path="url(#pf6c97cf3db)" style="fill: none; stroke: #000000; stroke-width: 3; stroke-linecap: round"/>
    <path d="M 132.367342 93.171303 
L 136.342993 85.159175 
L 140.367305 93.146972 
L 132.367342 93.171303 
z
" clip-path="url(#pf6c97cf3db)" style="stroke: #000000; stroke-width: 3; stroke-linecap: round"/>
   </g>
   <g id="Path3DCollection_1">
    <defs>
     <path id="mc99097fd58" d="M 0 3.872983 
C 1.027127 3.872983 2.012324 3.464901 2.738613 2.738613 
C 3.464901 2.012324 3.872983 1.027127 3.872983 0 
C 3.872983 -1.027127 3.464901 -2.012324 2.738613 -2.738613 
C 2.012324 -3.464901 1.027127 -3.872983 0 -3.872983 
C -1.027127 -3.872983 -2.012324 -3.464901 -2.738613 -2.738613 
C -3.464901 -2.012324 -3.872983 -1.027127 -3.872983 0 
C -3.872983 1.027127 -3.464901 2.012324 -2.738613 2.738613 
C -2.012324 3.464901 -1.027127 3.872983 0 3.872983 
z
" style="stroke: #0000ff"/>
    </defs>
    <g clip-path="url(#pf6c97cf3db)">
     <use xlink:href="#mc99097fd58" x="136.44557" y="118.886036" style="fill: #0000ff; stroke: #0000ff"/>
    </g>
   </g>
   <g id="text_1">
    <!-- # objectives -->
    <g transform="translate(-0.833142 208.397467)scale(0.16 -0.16)">
     <defs>
      <path id="DejaVuSans-23" d="M 3272 2816 
L 2363 2816 
L 2100 1772 
L 3016 1772 
L 3272 2816 
z
M 2803 4594 
L 2478 3297 
L 3391 3297 
L 3719 4594 
L 4219 4594 
L 3897 3297 
L 4872 3297 
L 4872 2816 
L 3775 2816 
L 3519 1772 
L 4513 1772 
L 4513 1294 
L 3397 1294 
L 3072 0 
L 2572 0 
L 2894 1294 
L 1978 1294 
L 1656 0 
L 1153 0 
L 1478 1294 
L 494 1294 
L 494 1772 
L 1594 1772 
L 1856 2816 
L 850 2816 
L 850 3297 
L 1978 3297 
L 2297 4594 
L 2803 4594 
z
" transform="scale(0.015625)"/>
      <path id="DejaVuSans-20" transform="scale(0.015625)"/>
      <path id="DejaVuSans-6f" d="M 1959 3097 
Q 1497 3097 1228 2736 
Q 959 2375 959 1747 
Q 959 1119 1226 758 
Q 1494 397 1959 397 
Q 2419 397 2687 759 
Q 2956 1122 2956 1747 
Q 2956 2369 2687 2733 
Q 2419 3097 1959 3097 
z
M 1959 3584 
Q 2709 3584 3137 3096 
Q 3566 2609 3566 1747 
Q 3566 888 3137 398 
Q 2709 -91 1959 -91 
Q 1206 -91 779 398 
Q 353 888 353 1747 
Q 353 2609 779 3096 
Q 1206 3584 1959 3584 
z
" transform="scale(0.015625)"/>
      <path id="DejaVuSans-62" d="M 3116 1747 
Q 3116 2381 2855 2742 
Q 2594 3103 2138 3103 
Q 1681 3103 1420 2742 
Q 1159 2381 1159 1747 
Q 1159 1113 1420 752 
Q 1681 391 2138 391 
Q 2594 391 2855 752 
Q 3116 1113 3116 1747 
z
M 1159 2969 
Q 1341 3281 1617 3432 
Q 1894 3584 2278 3584 
Q 2916 3584 3314 3078 
Q 3713 2572 3713 1747 
Q 3713 922 3314 415 
Q 2916 -91 2278 -91 
Q 1894 -91 1617 61 
Q 1341 213 1159 525 
L 1159 0 
L 581 0 
L 581 4863 
L 1159 4863 
L 1159 2969 
z
" transform="scale(0.015625)"/>
      <path id="DejaVuSans-6a" d="M 603 3500 
L 1178 3500 
L 1178 -63 
Q 1178 -731 923 -1031 
Q 669 -1331 103 -1331 
L -116 -1331 
L -116 -844 
L 38 -844 
Q 366 -844 484 -692 
Q 603 -541 603 -63 
L 603 3500 
z
M 603 4863 
L 1178 4863 
L 1178 4134 
L 603 4134 
L 603 4863 
z
" transform="scale(0.015625)"/>
      <path id="DejaVuSans-65" d="M 3597 1894 
L 3597 1613 
L 953 1613 
Q 991 1019 1311 708 
Q 1631 397 2203 397 
Q 2534 397 2845 478 
Q 3156 559 3463 722 
L 3463 178 
Q 3153 47 2828 -22 
Q 2503 -91 2169 -91 
Q 1331 -91 842 396 
Q 353 884 353 1716 
Q 353 2575 817 3079 
Q 1281 3584 2069 3584 
Q 2775 3584 3186 3129 
Q 3597 2675 3597 1894 
z
M 3022 2063 
Q 3016 2534 2758 2815 
Q 2500 3097 2075 3097 
Q 1594 3097 1305 2825 
Q 1016 2553 972 2059 
L 3022 2063 
z
" transform="scale(0.015625)"/>
      <path id="DejaVuSans-63" d="M 3122 3366 
L 3122 2828 
Q 2878 2963 2633 3030 
Q 2388 3097 2138 3097 
Q 1578 3097 1268 2742 
Q 959 2388 959 1747 
Q 959 1106 1268 751 
Q 1578 397 2138 397 
Q 2388 397 2633 464 
Q 2878 531 3122 666 
L 3122 134 
Q 2881 22 2623 -34 
Q 2366 -91 2075 -91 
Q 1284 -91 818 406 
Q 353 903 353 1747 
Q 353 2603 823 3093 
Q 1294 3584 2113 3584 
Q 2378 3584 2631 3529 
Q 2884 3475 3122 3366 
z
" transform="scale(0.015625)"/>
      <path id="DejaVuSans-74" d="M 1172 4494 
L 1172 3500 
L 2356 3500 
L 2356 3053 
L 1172 3053 
L 1172 1153 
Q 1172 725 1289 603 
Q 1406 481 1766 481 
L 2356 481 
L 2356 0 
L 1766 0 
Q 1100 0 847 248 
Q 594 497 594 1153 
L 594 3053 
L 172 3053 
L 172 3500 
L 594 3500 
L 594 4494 
L 1172 4494 
z
" transform="scale(0.015625)"/>
      <path id="DejaVuSans-69" d="M 603 3500 
L 1178 3500 
L 1178 0 
L 603 0 
L 603 3500 
z
M 603 4863 
L 1178 4863 
L 1178 4134 
L 603 4134 
L 603 4863 
z
" transform="scale(0.015625)"/>
      <path id="DejaVuSans-76" d="M 191 3500 
L 800 3500 
L 1894 563 
L 2988 3500 
L 3597 3500 
L 2284 0 
L 1503 0 
L 191 3500 
z
" transform="scale(0.015625)"/>
      <path id="DejaVuSans-73" d="M 2834 3397 
L 2834 2853 
Q 2591 2978 2328 3040 
Q 2066 3103 1784 3103 
Q 1356 3103 1142 2972 
Q 928 2841 928 2578 
Q 928 2378 1081 2264 
Q 1234 2150 1697 2047 
L 1894 2003 
Q 2506 1872 2764 1633 
Q 3022 1394 3022 966 
Q 3022 478 2636 193 
Q 2250 -91 1575 -91 
Q 1294 -91 989 -36 
Q 684 19 347 128 
L 347 722 
Q 666 556 975 473 
Q 1284 391 1588 391 
Q 1994 391 2212 530 
Q 2431 669 2431 922 
Q 2431 1156 2273 1281 
Q 2116 1406 1581 1522 
L 1381 1569 
Q 847 1681 609 1914 
Q 372 2147 372 2553 
Q 372 3047 722 3315 
Q 1072 3584 1716 3584 
Q 2034 3584 2315 3537 
Q 2597 3491 2834 3397 
z
" transform="scale(0.015625)"/>
     </defs>
     <use xlink:href="#DejaVuSans-23"/>
     <use xlink:href="#DejaVuSans-20" x="83.789062"/>
     <use xlink:href="#DejaVuSans-6f" x="115.576172"/>
     <use xlink:href="#DejaVuSans-62" x="176.757812"/>
     <use xlink:href="#DejaVuSans-6a" x="240.234375"/>
     <use xlink:href="#DejaVuSans-65" x="268.017578"/>
     <use xlink:href="#DejaVuSans-63" x="329.541016"/>
     <use xlink:href="#DejaVuSans-74" x="384.521484"/>
     <use xlink:href="#DejaVuSans-69" x="423.730469"/>
     <use xlink:href="#DejaVuSans-76" x="451.513672"/>
     <use xlink:href="#DejaVuSans-65" x="510.693359"/>
     <use xlink:href="#DejaVuSans-73" x="572.216797"/>
    </g>
   </g>
   <g id="text_2">
    <!-- # decision -->
    <g transform="translate(228.849903 180.84514)scale(0.16 -0.16)">
     <defs>
      <path id="DejaVuSans-64" d="M 2906 2969 
L 2906 4863 
L 3481 4863 
L 3481 0 
L 2906 0 
L 2906 525 
Q 2725 213 2448 61 
Q 2172 -91 1784 -91 
Q 1150 -91 751 415 
Q 353 922 353 1747 
Q 353 2572 751 3078 
Q 1150 3584 1784 3584 
Q 2172 3584 2448 3432 
Q 2725 3281 2906 2969 
z
M 947 1747 
Q 947 1113 1208 752 
Q 1469 391 1925 391 
Q 2381 391 2643 752 
Q 2906 1113 2906 1747 
Q 2906 2381 2643 2742 
Q 2381 3103 1925 3103 
Q 1469 3103 1208 2742 
Q 947 2381 947 1747 
z
" transform="scale(0.015625)"/>
      <path id="DejaVuSans-6e" d="M 3513 2113 
L 3513 0 
L 2938 0 
L 2938 2094 
Q 2938 2591 2744 2837 
Q 2550 3084 2163 3084 
Q 1697 3084 1428 2787 
Q 1159 2491 1159 1978 
L 1159 0 
L 581 0 
L 581 3500 
L 1159 3500 
L 1159 2956 
Q 1366 3272 1645 3428 
Q 1925 3584 2291 3584 
Q 2894 3584 3203 3211 
Q 3513 2838 3513 2113 
z
" transform="scale(0.015625)"/>
     </defs>
     <use xlink:href="#DejaVuSans-23"/>
     <use xlink:href="#DejaVuSans-20" x="83.789062"/>
     <use xlink:href="#DejaVuSans-64" x="115.576172"/>
     <use xlink:href="#DejaVuSans-65" x="179.052734"/>
     <use xlink:href="#DejaVuSans-63" x="240.576172"/>
     <use xlink:href="#DejaVuSans-69" x="295.556641"/>
     <use xlink:href="#DejaVuSans-73" x="323.339844"/>
     <use xlink:href="#DejaVuSans-69" x="375.439453"/>
     <use xlink:href="#DejaVuSans-6f" x="403.222656"/>
     <use xlink:href="#DejaVuSans-6e" x="464.404297"/>
    </g>
    <!--   makers -->
    <g transform="translate(228.849903 198.76164)scale(0.16 -0.16)">
     <defs>
      <path id="DejaVuSans-6d" d="M 3328 2828 
Q 3544 3216 3844 3400 
Q 4144 3584 4550 3584 
Q 5097 3584 5394 3201 
Q 5691 2819 5691 2113 
L 5691 0 
L 5113 0 
L 5113 2094 
Q 5113 2597 4934 2840 
Q 4756 3084 4391 3084 
Q 3944 3084 3684 2787 
Q 3425 2491 3425 1978 
L 3425 0 
L 2847 0 
L 2847 2094 
Q 2847 2600 2669 2842 
Q 2491 3084 2119 3084 
Q 1678 3084 1418 2786 
Q 1159 2488 1159 1978 
L 1159 0 
L 581 0 
L 581 3500 
L 1159 3500 
L 1159 2956 
Q 1356 3278 1631 3431 
Q 1906 3584 2284 3584 
Q 2666 3584 2933 3390 
Q 3200 3197 3328 2828 
z
" transform="scale(0.015625)"/>
      <path id="DejaVuSans-61" d="M 2194 1759 
Q 1497 1759 1228 1600 
Q 959 1441 959 1056 
Q 959 750 1161 570 
Q 1363 391 1709 391 
Q 2188 391 2477 730 
Q 2766 1069 2766 1631 
L 2766 1759 
L 2194 1759 
z
M 3341 1997 
L 3341 0 
L 2766 0 
L 2766 531 
Q 2569 213 2275 61 
Q 1981 -91 1556 -91 
Q 1019 -91 701 211 
Q 384 513 384 1019 
Q 384 1609 779 1909 
Q 1175 2209 1959 2209 
L 2766 2209 
L 2766 2266 
Q 2766 2663 2505 2880 
Q 2244 3097 1772 3097 
Q 1472 3097 1187 3025 
Q 903 2953 641 2809 
L 641 3341 
Q 956 3463 1253 3523 
Q 1550 3584 1831 3584 
Q 2591 3584 2966 3190 
Q 3341 2797 3341 1997 
z
" transform="scale(0.015625)"/>
      <path id="DejaVuSans-6b" d="M 581 4863 
L 1159 4863 
L 1159 1991 
L 2875 3500 
L 3609 3500 
L 1753 1863 
L 3688 0 
L 2938 0 
L 1159 1709 
L 1159 0 
L 581 0 
L 581 4863 
z
" transform="scale(0.015625)"/>
      <path id="DejaVuSans-72" d="M 2631 2963 
Q 2534 3019 2420 3045 
Q 2306 3072 2169 3072 
Q 1681 3072 1420 2755 
Q 1159 2438 1159 1844 
L 1159 0 
L 581 0 
L 581 3500 
L 1159 3500 
L 1159 2956 
Q 1341 3275 1631 3429 
Q 1922 3584 2338 3584 
Q 2397 3584 2469 3576 
Q 2541 3569 2628 3553 
L 2631 2963 
z
" transform="scale(0.015625)"/>
     </defs>
     <use xlink:href="#DejaVuSans-20"/>
     <use xlink:href="#DejaVuSans-20" x="31.787109"/>
     <use xlink:href="#DejaVuSans-6d" x="63.574219"/>
     <use xlink:href="#DejaVuSans-61" x="160.986328"/>
     <use xlink:href="#DejaVuSans-6b" x="222.265625"/>
     <use xlink:href="#DejaVuSans-65" x="276.550781"/>
     <use xlink:href="#DejaVuSans-72" x="338.074219"/>
     <use xlink:href="#DejaVuSans-73" x="379.1875"/>
    </g>
   </g>
   <g id="text_3">
    <!-- uncertainty -->
    <g transform="translate(90.374213 79.806637)scale(0.16 -0.16)">
     <defs>
      <path id="DejaVuSans-75" d="M 544 1381 
L 544 3500 
L 1119 3500 
L 1119 1403 
Q 1119 906 1312 657 
Q 1506 409 1894 409 
Q 2359 409 2629 706 
Q 2900 1003 2900 1516 
L 2900 3500 
L 3475 3500 
L 3475 0 
L 2900 0 
L 2900 538 
Q 2691 219 2414 64 
Q 2138 -91 1772 -91 
Q 1169 -91 856 284 
Q 544 659 544 1381 
z
M 1991 3584 
L 1991 3584 
z
" transform="scale(0.015625)"/>
      <path id="DejaVuSans-79" d="M 2059 -325 
Q 1816 -950 1584 -1140 
Q 1353 -1331 966 -1331 
L 506 -1331 
L 506 -850 
L 844 -850 
Q 1081 -850 1212 -737 
Q 1344 -625 1503 -206 
L 1606 56 
L 191 3500 
L 800 3500 
L 1894 763 
L 2988 3500 
L 3597 3500 
L 2059 -325 
z
" transform="scale(0.015625)"/>
     </defs>
     <use xlink:href="#DejaVuSans-75"/>
     <use xlink:href="#DejaVuSans-6e" x="63.378906"/>
     <use xlink:href="#DejaVuSans-63" x="126.757812"/>
     <use xlink:href="#DejaVuSans-65" x="181.738281"/>
     <use xlink:href="#DejaVuSans-72" x="243.261719"/>
     <use xlink:href="#DejaVuSans-74" x="284.375"/>
     <use xlink:href="#DejaVuSans-61" x="323.583984"/>
     <use xlink:href="#DejaVuSans-69" x="384.863281"/>
     <use xlink:href="#DejaVuSans-6e" x="412.646484"/>
     <use xlink:href="#DejaVuSans-74" x="476.025391"/>
     <use xlink:href="#DejaVuSans-79" x="515.234375"/>
    </g>
   </g>
   <g id="text_4">
    <!-- robust/ -->
    <g style="fill: #0000ff" transform="translate(145.424988 108.358946)scale(0.16 -0.16)">
     <defs>
      <path id="DejaVuSans-2f" d="M 1625 4666 
L 2156 4666 
L 531 -594 
L 0 -594 
L 1625 4666 
z
" transform="scale(0.015625)"/>
     </defs>
     <use xlink:href="#DejaVuSans-72"/>
     <use xlink:href="#DejaVuSans-6f" x="38.863281"/>
     <use xlink:href="#DejaVuSans-62" x="100.044922"/>
     <use xlink:href="#DejaVuSans-75" x="163.521484"/>
     <use xlink:href="#DejaVuSans-73" x="226.900391"/>
     <use xlink:href="#DejaVuSans-74" x="279"/>
     <use xlink:href="#DejaVuSans-2f" x="318.208984"/>
    </g>
    <!-- stochastic -->
    <g style="fill: #0000ff" transform="translate(145.424988 126.275446)scale(0.16 -0.16)">
     <defs>
      <path id="DejaVuSans-68" d="M 3513 2113 
L 3513 0 
L 2938 0 
L 2938 2094 
Q 2938 2591 2744 2837 
Q 2550 3084 2163 3084 
Q 1697 3084 1428 2787 
Q 1159 2491 1159 1978 
L 1159 0 
L 581 0 
L 581 4863 
L 1159 4863 
L 1159 2956 
Q 1366 3272 1645 3428 
Q 1925 3584 2291 3584 
Q 2894 3584 3203 3211 
Q 3513 2838 3513 2113 
z
" transform="scale(0.015625)"/>
     </defs>
     <use xlink:href="#DejaVuSans-73"/>
     <use xlink:href="#DejaVuSans-74" x="52.099609"/>
     <use xlink:href="#DejaVuSans-6f" x="91.308594"/>
     <use xlink:href="#DejaVuSans-63" x="152.490234"/>
     <use xlink:href="#DejaVuSans-68" x="207.470703"/>
     <use xlink:href="#DejaVuSans-61" x="270.849609"/>
     <use xlink:href="#DejaVuSans-73" x="332.128906"/>
     <use xlink:href="#DejaVuSans-74" x="384.228516"/>
     <use xlink:href="#DejaVuSans-69" x="423.4375"/>
     <use xlink:href="#DejaVuSans-63" x="451.220703"/>
    </g>
    <!-- programming -->
    <g style="fill: #0000ff" transform="translate(145.424988 144.191946)scale(0.16 -0.16)">
     <defs>
      <path id="DejaVuSans-70" d="M 1159 525 
L 1159 -1331 
L 581 -1331 
L 581 3500 
L 1159 3500 
L 1159 2969 
Q 1341 3281 1617 3432 
Q 1894 3584 2278 3584 
Q 2916 3584 3314 3078 
Q 3713 2572 3713 1747 
Q 3713 922 3314 415 
Q 2916 -91 2278 -91 
Q 1894 -91 1617 61 
Q 1341 213 1159 525 
z
M 3116 1747 
Q 3116 2381 2855 2742 
Q 2594 3103 2138 3103 
Q 1681 3103 1420 2742 
Q 1159 2381 1159 1747 
Q 1159 1113 1420 752 
Q 1681 391 2138 391 
Q 2594 391 2855 752 
Q 3116 1113 3116 1747 
z
" transform="scale(0.015625)"/>
      <path id="DejaVuSans-67" d="M 2906 1791 
Q 2906 2416 2648 2759 
Q 2391 3103 1925 3103 
Q 1463 3103 1205 2759 
Q 947 2416 947 1791 
Q 947 1169 1205 825 
Q 1463 481 1925 481 
Q 2391 481 2648 825 
Q 2906 1169 2906 1791 
z
M 3481 434 
Q 3481 -459 3084 -895 
Q 2688 -1331 1869 -1331 
Q 1566 -1331 1297 -1286 
Q 1028 -1241 775 -1147 
L 775 -588 
Q 1028 -725 1275 -790 
Q 1522 -856 1778 -856 
Q 2344 -856 2625 -561 
Q 2906 -266 2906 331 
L 2906 616 
Q 2728 306 2450 153 
Q 2172 0 1784 0 
Q 1141 0 747 490 
Q 353 981 353 1791 
Q 353 2603 747 3093 
Q 1141 3584 1784 3584 
Q 2172 3584 2450 3431 
Q 2728 3278 2906 2969 
L 2906 3500 
L 3481 3500 
L 3481 434 
z
" transform="scale(0.015625)"/>
     </defs>
     <use xlink:href="#DejaVuSans-70"/>
     <use xlink:href="#DejaVuSans-72" x="63.476562"/>
     <use xlink:href="#DejaVuSans-6f" x="102.339844"/>
     <use xlink:href="#DejaVuSans-67" x="163.521484"/>
     <use xlink:href="#DejaVuSans-72" x="226.998047"/>
     <use xlink:href="#DejaVuSans-61" x="268.111328"/>
     <use xlink:href="#DejaVuSans-6d" x="329.390625"/>
     <use xlink:href="#DejaVuSans-6d" x="426.802734"/>
     <use xlink:href="#DejaVuSans-69" x="524.214844"/>
     <use xlink:href="#DejaVuSans-6e" x="551.998047"/>
     <use xlink:href="#DejaVuSans-67" x="615.376953"/>
    </g>
   </g>
   <g id="patch_4">
    <path d="M 138.664262 196.317108 
Q 206.880418 204.145272 271.764341 211.591044 
" clip-path="url(#pf6c97cf3db)" style="fill: none; stroke: #000000; stroke-width: 3; stroke-linecap: round"/>
    <path d="M 264.27253 206.705068 
L 271.764341 211.591044 
L 263.360474 214.652908 
L 264.27253 206.705068 
z
" clip-path="url(#pf6c97cf3db)" style="stroke: #000000; stroke-width: 3; stroke-linecap: round"/>
   </g>
   <g id="patch_5">
    <path d="M 134.779503 196.719015 
Q 92.997827 210.557085 54.400164 223.340611 
" clip-path="url(#pf6c97cf3db)" style="fill: none; stroke: #000000; stroke-width: 3; stroke-linecap: round"/>
    <path d="M 63.252094 224.622535 
L 54.400164 223.340611 
L 60.736861 217.028221 
L 63.252094 224.622535 
z
" clip-path="url(#pf6c97cf3db)" style="stroke: #000000; stroke-width: 3; stroke-linecap: round"/>
   </g>
  </g>
  <g id="patch_6">
   <path d="M 392.809091 315 
L 700.609091 315 
L 700.609091 7.2 
L 392.809091 7.2 
z
" style="fill: #ffffff"/>
  </g>
  <g id="axes_2">
   <g id="patch_7">
    <path d="M 522.283392 194.091546 
Q 522.112637 137.948317 521.952084 85.159175 
" clip-path="url(#p2cdfade3da)" style="fill: none; stroke: #000000; stroke-width: 3; stroke-linecap: round"/>
    <path d="M 517.976433 93.171303 
L 521.952084 85.159175 
L 525.976396 93.146972 
L 517.976433 93.171303 
z
" clip-path="url(#p2cdfade3da)" style="stroke: #000000; stroke-width: 3; stroke-linecap: round"/>
   </g>
   <g id="Path3DCollection_2">
    <g clip-path="url(#p2cdfade3da)">
     <use xlink:href="#mc99097fd58" x="465.690915" y="214.834858" style="fill: #0000ff; stroke: #0000ff"/>
    </g>
   </g>
   <g id="text_5">
    <!-- # objectives -->
    <g transform="translate(384.775949 208.397467)scale(0.16 -0.16)">
     <use xlink:href="#DejaVuSans-23"/>
     <use xlink:href="#DejaVuSans-20" x="83.789062"/>
     <use xlink:href="#DejaVuSans-6f" x="115.576172"/>
     <use xlink:href="#DejaVuSans-62" x="176.757812"/>
     <use xlink:href="#DejaVuSans-6a" x="240.234375"/>
     <use xlink:href="#DejaVuSans-65" x="268.017578"/>
     <use xlink:href="#DejaVuSans-63" x="329.541016"/>
     <use xlink:href="#DejaVuSans-74" x="384.521484"/>
     <use xlink:href="#DejaVuSans-69" x="423.730469"/>
     <use xlink:href="#DejaVuSans-76" x="451.513672"/>
     <use xlink:href="#DejaVuSans-65" x="510.693359"/>
     <use xlink:href="#DejaVuSans-73" x="572.216797"/>
    </g>
   </g>
   <g id="text_6">
    <!-- # decision -->
    <g transform="translate(614.458994 180.84514)scale(0.16 -0.16)">
     <use xlink:href="#DejaVuSans-23"/>
     <use xlink:href="#DejaVuSans-20" x="83.789062"/>
     <use xlink:href="#DejaVuSans-64" x="115.576172"/>
     <use xlink:href="#DejaVuSans-65" x="179.052734"/>
     <use xlink:href="#DejaVuSans-63" x="240.576172"/>
     <use xlink:href="#DejaVuSans-69" x="295.556641"/>
     <use xlink:href="#DejaVuSans-73" x="323.339844"/>
     <use xlink:href="#DejaVuSans-69" x="375.439453"/>
     <use xlink:href="#DejaVuSans-6f" x="403.222656"/>
     <use xlink:href="#DejaVuSans-6e" x="464.404297"/>
    </g>
    <!--   makers -->
    <g transform="translate(614.458994 198.76164)scale(0.16 -0.16)">
     <use xlink:href="#DejaVuSans-20"/>
     <use xlink:href="#DejaVuSans-20" x="31.787109"/>
     <use xlink:href="#DejaVuSans-6d" x="63.574219"/>
     <use xlink:href="#DejaVuSans-61" x="160.986328"/>
     <use xlink:href="#DejaVuSans-6b" x="222.265625"/>
     <use xlink:href="#DejaVuSans-65" x="276.550781"/>
     <use xlink:href="#DejaVuSans-72" x="338.074219"/>
     <use xlink:href="#DejaVuSans-73" x="379.1875"/>
    </g>
   </g>
   <g id="text_7">
    <!-- uncertainty -->
    <g transform="translate(475.983304 79.806637)scale(0.16 -0.16)">
     <use xlink:href="#DejaVuSans-75"/>
     <use xlink:href="#DejaVuSans-6e" x="63.378906"/>
     <use xlink:href="#DejaVuSans-63" x="126.757812"/>
     <use xlink:href="#DejaVuSans-65" x="181.738281"/>
     <use xlink:href="#DejaVuSans-72" x="243.261719"/>
     <use xlink:href="#DejaVuSans-74" x="284.375"/>
     <use xlink:href="#DejaVuSans-61" x="323.583984"/>
     <use xlink:href="#DejaVuSans-69" x="384.863281"/>
     <use xlink:href="#DejaVuSans-6e" x="412.646484"/>
     <use xlink:href="#DejaVuSans-74" x="476.025391"/>
     <use xlink:href="#DejaVuSans-79" x="515.234375"/>
    </g>
   </g>
   <g id="text_8">
    <!-- multiobjective -->
    <g style="fill: #0000ff" transform="translate(474.967981 228.13937)scale(0.16 -0.16)">
     <defs>
      <path id="DejaVuSans-6c" d="M 603 4863 
L 1178 4863 
L 1178 0 
L 603 0 
L 603 4863 
z
" transform="scale(0.015625)"/>
     </defs>
     <use xlink:href="#DejaVuSans-6d"/>
     <use xlink:href="#DejaVuSans-75" x="97.412109"/>
     <use xlink:href="#DejaVuSans-6c" x="160.791016"/>
     <use xlink:href="#DejaVuSans-74" x="188.574219"/>
     <use xlink:href="#DejaVuSans-69" x="227.783203"/>
     <use xlink:href="#DejaVuSans-6f" x="255.566406"/>
     <use xlink:href="#DejaVuSans-62" x="316.748047"/>
     <use xlink:href="#DejaVuSans-6a" x="380.224609"/>
     <use xlink:href="#DejaVuSans-65" x="408.007812"/>
     <use xlink:href="#DejaVuSans-63" x="469.53125"/>
     <use xlink:href="#DejaVuSans-74" x="524.511719"/>
     <use xlink:href="#DejaVuSans-69" x="563.720703"/>
     <use xlink:href="#DejaVuSans-76" x="591.503906"/>
     <use xlink:href="#DejaVuSans-65" x="650.683594"/>
    </g>
    <!-- programming -->
    <g style="fill: #0000ff" transform="translate(474.967981 246.05587)scale(0.16 -0.16)">
     <use xlink:href="#DejaVuSans-70"/>
     <use xlink:href="#DejaVuSans-72" x="63.476562"/>
     <use xlink:href="#DejaVuSans-6f" x="102.339844"/>
     <use xlink:href="#DejaVuSans-67" x="163.521484"/>
     <use xlink:href="#DejaVuSans-72" x="226.998047"/>
     <use xlink:href="#DejaVuSans-61" x="268.111328"/>
     <use xlink:href="#DejaVuSans-6d" x="329.390625"/>
     <use xlink:href="#DejaVuSans-6d" x="426.802734"/>
     <use xlink:href="#DejaVuSans-69" x="524.214844"/>
     <use xlink:href="#DejaVuSans-6e" x="551.998047"/>
     <use xlink:href="#DejaVuSans-67" x="615.376953"/>
    </g>
   </g>
   <g id="patch_8">
    <path d="M 524.273353 196.317108 
Q 592.489509 204.145272 657.373432 211.591044 
" clip-path="url(#p2cdfade3da)" style="fill: none; stroke: #000000; stroke-width: 3; stroke-linecap: round"/>
    <path d="M 649.881621 206.705068 
L 657.373432 211.591044 
L 648.969565 214.652908 
L 649.881621 206.705068 
z
" clip-path="url(#p2cdfade3da)" style="stroke: #000000; stroke-width: 3; stroke-linecap: round"/>
   </g>
   <g id="patch_9">
    <path d="M 520.388594 196.719015 
Q 478.606918 210.557085 440.009255 223.340611 
" clip-path="url(#p2cdfade3da)" style="fill: none; stroke: #000000; stroke-width: 3; stroke-linecap: round"/>
    <path d="M 448.861185 224.622535 
L 440.009255 223.340611 
L 446.345952 217.028221 
L 448.861185 224.622535 
z
" clip-path="url(#p2cdfade3da)" style="stroke: #000000; stroke-width: 3; stroke-linecap: round"/>
   </g>
  </g>
  <g id="patch_10">
   <path d="M 7.2 633.6 
L 315 633.6 
L 315 325.8 
L 7.2 325.8 
z
" style="fill: #ffffff"/>
  </g>
  <g id="axes_3">
   <g id="patch_11">
    <path d="M 136.674301 512.691546 
Q 136.503546 456.548317 136.342993 403.759175 
" clip-path="url(#p64e41d1c9a)" style="fill: none; stroke: #000000; stroke-width: 3; stroke-linecap: round"/>
    <path d="M 132.367342 411.771303 
L 136.342993 403.759175 
L 140.367305 411.746972 
L 132.367342 411.771303 
z
" clip-path="url(#p64e41d1c9a)" style="stroke: #000000; stroke-width: 3; stroke-linecap: round"/>
   </g>
   <g id="Path3DCollection_3">
    <g clip-path="url(#p64e41d1c9a)">
     <use xlink:href="#mc99097fd58" x="175.661417" y="545.252271" style="fill: #0000ff; stroke: #0000ff"/>
    </g>
   </g>
   <g id="text_9">
    <!-- # objectives -->
    <g transform="translate(-0.833142 526.997467)scale(0.16 -0.16)">
     <use xlink:href="#DejaVuSans-23"/>
     <use xlink:href="#DejaVuSans-20" x="83.789062"/>
     <use xlink:href="#DejaVuSans-6f" x="115.576172"/>
     <use xlink:href="#DejaVuSans-62" x="176.757812"/>
     <use xlink:href="#DejaVuSans-6a" x="240.234375"/>
     <use xlink:href="#DejaVuSans-65" x="268.017578"/>
     <use xlink:href="#DejaVuSans-63" x="329.541016"/>
     <use xlink:href="#DejaVuSans-74" x="384.521484"/>
     <use xlink:href="#DejaVuSans-69" x="423.730469"/>
     <use xlink:href="#DejaVuSans-76" x="451.513672"/>
     <use xlink:href="#DejaVuSans-65" x="510.693359"/>
     <use xlink:href="#DejaVuSans-73" x="572.216797"/>
    </g>
   </g>
   <g id="text_10">
    <!-- # decision -->
    <g transform="translate(228.849903 499.44514)scale(0.16 -0.16)">
     <use xlink:href="#DejaVuSans-23"/>
     <use xlink:href="#DejaVuSans-20" x="83.789062"/>
     <use xlink:href="#DejaVuSans-64" x="115.576172"/>
     <use xlink:href="#DejaVuSans-65" x="179.052734"/>
     <use xlink:href="#DejaVuSans-63" x="240.576172"/>
     <use xlink:href="#DejaVuSans-69" x="295.556641"/>
     <use xlink:href="#DejaVuSans-73" x="323.339844"/>
     <use xlink:href="#DejaVuSans-69" x="375.439453"/>
     <use xlink:href="#DejaVuSans-6f" x="403.222656"/>
     <use xlink:href="#DejaVuSans-6e" x="464.404297"/>
    </g>
    <!--   makers -->
    <g transform="translate(228.849903 517.36164)scale(0.16 -0.16)">
     <use xlink:href="#DejaVuSans-20"/>
     <use xlink:href="#DejaVuSans-20" x="31.787109"/>
     <use xlink:href="#DejaVuSans-6d" x="63.574219"/>
     <use xlink:href="#DejaVuSans-61" x="160.986328"/>
     <use xlink:href="#DejaVuSans-6b" x="222.265625"/>
     <use xlink:href="#DejaVuSans-65" x="276.550781"/>
     <use xlink:href="#DejaVuSans-72" x="338.074219"/>
     <use xlink:href="#DejaVuSans-73" x="379.1875"/>
    </g>
   </g>
   <g id="text_11">
    <!-- uncertainty -->
    <g transform="translate(90.374213 398.406637)scale(0.16 -0.16)">
     <use xlink:href="#DejaVuSans-75"/>
     <use xlink:href="#DejaVuSans-6e" x="63.378906"/>
     <use xlink:href="#DejaVuSans-63" x="126.757812"/>
     <use xlink:href="#DejaVuSans-65" x="181.738281"/>
     <use xlink:href="#DejaVuSans-72" x="243.261719"/>
     <use xlink:href="#DejaVuSans-74" x="284.375"/>
     <use xlink:href="#DejaVuSans-61" x="323.583984"/>
     <use xlink:href="#DejaVuSans-69" x="384.863281"/>
     <use xlink:href="#DejaVuSans-6e" x="412.646484"/>
     <use xlink:href="#DejaVuSans-74" x="476.025391"/>
     <use xlink:href="#DejaVuSans-79" x="515.234375"/>
    </g>
   </g>
   <g id="text_12">
    <!-- game -->
    <g style="fill: #0000ff" transform="translate(120.42253 539.491619)scale(0.16 -0.16)">
     <use xlink:href="#DejaVuSans-67"/>
     <use xlink:href="#DejaVuSans-61" x="63.476562"/>
     <use xlink:href="#DejaVuSans-6d" x="124.755859"/>
     <use xlink:href="#DejaVuSans-65" x="222.167969"/>
    </g>
    <!-- theory -->
    <g style="fill: #0000ff" transform="translate(113.72003 557.408119)scale(0.16 -0.16)">
     <use xlink:href="#DejaVuSans-74"/>
     <use xlink:href="#DejaVuSans-68" x="39.208984"/>
     <use xlink:href="#DejaVuSans-65" x="102.587891"/>
     <use xlink:href="#DejaVuSans-6f" x="164.111328"/>
     <use xlink:href="#DejaVuSans-72" x="225.292969"/>
     <use xlink:href="#DejaVuSans-79" x="266.40625"/>
    </g>
   </g>
   <g id="patch_12">
    <path d="M 138.664262 514.917108 
Q 206.880418 522.745272 271.764341 530.191044 
" clip-path="url(#p64e41d1c9a)" style="fill: none; stroke: #000000; stroke-width: 3; stroke-linecap: round"/>
    <path d="M 264.27253 525.305068 
L 271.764341 530.191044 
L 263.360474 533.252908 
L 264.27253 525.305068 
z
" clip-path="url(#p64e41d1c9a)" style="stroke: #000000; stroke-width: 3; stroke-linecap: round"/>
   </g>
   <g id="patch_13">
    <path d="M 134.779503 515.319015 
Q 92.997827 529.157085 54.400164 541.940611 
" clip-path="url(#p64e41d1c9a)" style="fill: none; stroke: #000000; stroke-width: 3; stroke-linecap: round"/>
    <path d="M 63.252094 543.222535 
L 54.400164 541.940611 
L 60.736861 535.628221 
L 63.252094 543.222535 
z
" clip-path="url(#p64e41d1c9a)" style="stroke: #000000; stroke-width: 3; stroke-linecap: round"/>
   </g>
  </g>
  <g id="patch_14">
   <path d="M 392.809091 633.6 
L 700.609091 633.6 
L 700.609091 325.8 
L 392.809091 325.8 
z
" style="fill: #ffffff"/>
  </g>
  <g id="axes_4">
   <g id="patch_15">
    <path d="M 522.283392 512.691546 
Q 522.112637 456.548317 521.952084 403.759175 
" clip-path="url(#p90d7d2e125)" style="fill: none; stroke: #000000; stroke-width: 3; stroke-linecap: round"/>
    <path d="M 517.976433 411.771303 
L 521.952084 403.759175 
L 525.976396 411.746972 
L 517.976433 411.771303 
z
" clip-path="url(#p90d7d2e125)" style="stroke: #000000; stroke-width: 3; stroke-linecap: round"/>
   </g>
   <g id="Path3DCollection_4">
    <g clip-path="url(#p90d7d2e125)">
     <use xlink:href="#mc99097fd58" x="522.289469" y="514.689447" style="fill: #0000ff; stroke: #0000ff"/>
    </g>
   </g>
   <g id="text_13">
    <!-- # objectives -->
    <g transform="translate(384.775949 526.997467)scale(0.16 -0.16)">
     <use xlink:href="#DejaVuSans-23"/>
     <use xlink:href="#DejaVuSans-20" x="83.789062"/>
     <use xlink:href="#DejaVuSans-6f" x="115.576172"/>
     <use xlink:href="#DejaVuSans-62" x="176.757812"/>
     <use xlink:href="#DejaVuSans-6a" x="240.234375"/>
     <use xlink:href="#DejaVuSans-65" x="268.017578"/>
     <use xlink:href="#DejaVuSans-63" x="329.541016"/>
     <use xlink:href="#DejaVuSans-74" x="384.521484"/>
     <use xlink:href="#DejaVuSans-69" x="423.730469"/>
     <use xlink:href="#DejaVuSans-76" x="451.513672"/>
     <use xlink:href="#DejaVuSans-65" x="510.693359"/>
     <use xlink:href="#DejaVuSans-73" x="572.216797"/>
    </g>
   </g>
   <g id="text_14">
    <!-- # decision -->
    <g transform="translate(614.458994 499.44514)scale(0.16 -0.16)">
     <use xlink:href="#DejaVuSans-23"/>
     <use xlink:href="#DejaVuSans-20" x="83.789062"/>
     <use xlink:href="#DejaVuSans-64" x="115.576172"/>
     <use xlink:href="#DejaVuSans-65" x="179.052734"/>
     <use xlink:href="#DejaVuSans-63" x="240.576172"/>
     <use xlink:href="#DejaVuSans-69" x="295.556641"/>
     <use xlink:href="#DejaVuSans-73" x="323.339844"/>
     <use xlink:href="#DejaVuSans-69" x="375.439453"/>
     <use xlink:href="#DejaVuSans-6f" x="403.222656"/>
     <use xlink:href="#DejaVuSans-6e" x="464.404297"/>
    </g>
    <!--   makers -->
    <g transform="translate(614.458994 517.36164)scale(0.16 -0.16)">
     <use xlink:href="#DejaVuSans-20"/>
     <use xlink:href="#DejaVuSans-20" x="31.787109"/>
     <use xlink:href="#DejaVuSans-6d" x="63.574219"/>
     <use xlink:href="#DejaVuSans-61" x="160.986328"/>
     <use xlink:href="#DejaVuSans-6b" x="222.265625"/>
     <use xlink:href="#DejaVuSans-65" x="276.550781"/>
     <use xlink:href="#DejaVuSans-72" x="338.074219"/>
     <use xlink:href="#DejaVuSans-73" x="379.1875"/>
    </g>
   </g>
   <g id="text_15">
    <!-- uncertainty -->
    <g transform="translate(475.983304 398.406637)scale(0.16 -0.16)">
     <use xlink:href="#DejaVuSans-75"/>
     <use xlink:href="#DejaVuSans-6e" x="63.378906"/>
     <use xlink:href="#DejaVuSans-63" x="126.757812"/>
     <use xlink:href="#DejaVuSans-65" x="181.738281"/>
     <use xlink:href="#DejaVuSans-72" x="243.261719"/>
     <use xlink:href="#DejaVuSans-74" x="284.375"/>
     <use xlink:href="#DejaVuSans-61" x="323.583984"/>
     <use xlink:href="#DejaVuSans-69" x="384.863281"/>
     <use xlink:href="#DejaVuSans-6e" x="412.646484"/>
     <use xlink:href="#DejaVuSans-74" x="476.025391"/>
     <use xlink:href="#DejaVuSans-79" x="515.234375"/>
    </g>
   </g>
   <g id="text_16">
    <!-- mathematical -->
    <g style="fill: #0000ff" transform="translate(402.556127 484.783139)scale(0.16 -0.16)">
     <use xlink:href="#DejaVuSans-6d"/>
     <use xlink:href="#DejaVuSans-61" x="97.412109"/>
     <use xlink:href="#DejaVuSans-74" x="158.691406"/>
     <use xlink:href="#DejaVuSans-68" x="197.900391"/>
     <use xlink:href="#DejaVuSans-65" x="261.279297"/>
     <use xlink:href="#DejaVuSans-6d" x="322.802734"/>
     <use xlink:href="#DejaVuSans-61" x="420.214844"/>
     <use xlink:href="#DejaVuSans-74" x="481.494141"/>
     <use xlink:href="#DejaVuSans-69" x="520.703125"/>
     <use xlink:href="#DejaVuSans-63" x="548.486328"/>
     <use xlink:href="#DejaVuSans-61" x="603.466797"/>
     <use xlink:href="#DejaVuSans-6c" x="664.746094"/>
    </g>
    <!-- programming -->
    <g style="fill: #0000ff" transform="translate(404.741127 502.699639)scale(0.16 -0.16)">
     <use xlink:href="#DejaVuSans-70"/>
     <use xlink:href="#DejaVuSans-72" x="63.476562"/>
     <use xlink:href="#DejaVuSans-6f" x="102.339844"/>
     <use xlink:href="#DejaVuSans-67" x="163.521484"/>
     <use xlink:href="#DejaVuSans-72" x="226.998047"/>
     <use xlink:href="#DejaVuSans-61" x="268.111328"/>
     <use xlink:href="#DejaVuSans-6d" x="329.390625"/>
     <use xlink:href="#DejaVuSans-6d" x="426.802734"/>
     <use xlink:href="#DejaVuSans-69" x="524.214844"/>
     <use xlink:href="#DejaVuSans-6e" x="551.998047"/>
     <use xlink:href="#DejaVuSans-67" x="615.376953"/>
    </g>
   </g>
   <g id="patch_16">
    <path d="M 524.273353 514.917108 
Q 592.489509 522.745272 657.373432 530.191044 
" clip-path="url(#p90d7d2e125)" style="fill: none; stroke: #000000; stroke-width: 3; stroke-linecap: round"/>
    <path d="M 649.881621 525.305068 
L 657.373432 530.191044 
L 648.969565 533.252908 
L 649.881621 525.305068 
z
" clip-path="url(#p90d7d2e125)" style="stroke: #000000; stroke-width: 3; stroke-linecap: round"/>
   </g>
   <g id="patch_17">
    <path d="M 520.388594 515.319015 
Q 478.606918 529.157085 440.009255 541.940611 
" clip-path="url(#p90d7d2e125)" style="fill: none; stroke: #000000; stroke-width: 3; stroke-linecap: round"/>
    <path d="M 448.861185 543.222535 
L 440.009255 541.940611 
L 446.345952 535.628221 
L 448.861185 543.222535 
z
" clip-path="url(#p90d7d2e125)" style="stroke: #000000; stroke-width: 3; stroke-linecap: round"/>
   </g>
  </g>
 </g>
 <defs>
  <clipPath id="pf6c97cf3db">
   <rect x="7.2" y="7.2" width="307.8" height="307.8"/>
  </clipPath>
  <clipPath id="p2cdfade3da">
   <rect x="392.809091" y="7.2" width="307.8" height="307.8"/>
  </clipPath>
  <clipPath id="p64e41d1c9a">
   <rect x="7.2" y="325.8" width="307.8" height="307.8"/>
  </clipPath>
  <clipPath id="p90d7d2e125">
   <rect x="392.809091" y="325.8" width="307.8" height="307.8"/>
  </clipPath>
 </defs>
</svg>
