<?xml version="1.0" encoding="utf-8" standalone="no"?>
<!DOCTYPE svg PUBLIC "-//W3C//DTD SVG 1.1//EN"
  "http://www.w3.org/Graphics/SVG/1.1/DTD/svg11.dtd">
<svg xmlns:xlink="http://www.w3.org/1999/xlink" width="362.5625pt" height="268.003125pt" viewBox="0 0 362.5625 268.003125" xmlns="http://www.w3.org/2000/svg" version="1.1">
 <metadata>
  <rdf:RDF xmlns:dc="http://purl.org/dc/elements/1.1/" xmlns:cc="http://creativecommons.org/ns#" xmlns:rdf="http://www.w3.org/1999/02/22-rdf-syntax-ns#">
   <cc:Work>
    <dc:type rdf:resource="http://purl.org/dc/dcmitype/StillImage"/>
    <dc:date>2022-01-27T10:12:49.927456</dc:date>
    <dc:format>image/svg+xml</dc:format>
    <dc:creator>
     <cc:Agent>
      <dc:title>Matplotlib v3.5.1, https://matplotlib.org/</dc:title>
     </cc:Agent>
    </dc:creator>
   </cc:Work>
  </rdf:RDF>
 </metadata>
 <defs>
  <style type="text/css">*{stroke-linejoin: round; stroke-linecap: butt}</style>
 </defs>
 <g id="figure_1">
  <g id="patch_1">
   <path d="M 0 268.003125 
L 362.5625 268.003125 
L 362.5625 0 
L 0 0 
L 0 268.003125 
z
" style="fill: none"/>
  </g>
  <g id="axes_1">
   <g id="patch_2">
    <path d="M 20.5625 224.64 
L 355.3625 224.64 
L 355.3625 7.2 
L 20.5625 7.2 
z
" style="fill: #ffffff"/>
   </g>
   <g id="matplotlib.axis_1">
    <g id="xtick_1">
     <g id="line2d_1">
      <defs>
       <path id="m5201d2f0cf" d="M 0 0 
L 0 3.5 
" style="stroke: #000000; stroke-width: 0.8"/>
      </defs>
      <g>
       <use xlink:href="#m5201d2f0cf" x="35.780682" y="224.64" style="stroke: #000000; stroke-width: 0.8"/>
      </g>
     </g>
     <g id="text_1">
      <!-- 0 -->
      <g transform="translate(32.599432 239.238438)scale(0.1 -0.1)">
       <defs>
        <path id="DejaVuSans-30" d="M 2034 4250 
Q 1547 4250 1301 3770 
Q 1056 3291 1056 2328 
Q 1056 1369 1301 889 
Q 1547 409 2034 409 
Q 2525 409 2770 889 
Q 3016 1369 3016 2328 
Q 3016 3291 2770 3770 
Q 2525 4250 2034 4250 
z
M 2034 4750 
Q 2819 4750 3233 4129 
Q 3647 3509 3647 2328 
Q 3647 1150 3233 529 
Q 2819 -91 2034 -91 
Q 1250 -91 836 529 
Q 422 1150 422 2328 
Q 422 3509 836 4129 
Q 1250 4750 2034 4750 
z
" transform="scale(0.015625)"/>
       </defs>
       <use xlink:href="#DejaVuSans-30"/>
      </g>
     </g>
    </g>
    <g id="xtick_2">
     <g id="line2d_2">
      <g>
       <use xlink:href="#m5201d2f0cf" x="96.653409" y="224.64" style="stroke: #000000; stroke-width: 0.8"/>
      </g>
     </g>
     <g id="text_2">
      <!-- 20 -->
      <g transform="translate(90.290909 239.238438)scale(0.1 -0.1)">
       <defs>
        <path id="DejaVuSans-32" d="M 1228 531 
L 3431 531 
L 3431 0 
L 469 0 
L 469 531 
Q 828 903 1448 1529 
Q 2069 2156 2228 2338 
Q 2531 2678 2651 2914 
Q 2772 3150 2772 3378 
Q 2772 3750 2511 3984 
Q 2250 4219 1831 4219 
Q 1534 4219 1204 4116 
Q 875 4013 500 3803 
L 500 4441 
Q 881 4594 1212 4672 
Q 1544 4750 1819 4750 
Q 2544 4750 2975 4387 
Q 3406 4025 3406 3419 
Q 3406 3131 3298 2873 
Q 3191 2616 2906 2266 
Q 2828 2175 2409 1742 
Q 1991 1309 1228 531 
z
" transform="scale(0.015625)"/>
       </defs>
       <use xlink:href="#DejaVuSans-32"/>
       <use xlink:href="#DejaVuSans-30" x="63.623047"/>
      </g>
     </g>
    </g>
    <g id="xtick_3">
     <g id="line2d_3">
      <g>
       <use xlink:href="#m5201d2f0cf" x="157.526136" y="224.64" style="stroke: #000000; stroke-width: 0.8"/>
      </g>
     </g>
     <g id="text_3">
      <!-- 40 -->
      <g transform="translate(151.163636 239.238438)scale(0.1 -0.1)">
       <defs>
        <path id="DejaVuSans-34" d="M 2419 4116 
L 825 1625 
L 2419 1625 
L 2419 4116 
z
M 2253 4666 
L 3047 4666 
L 3047 1625 
L 3713 1625 
L 3713 1100 
L 3047 1100 
L 3047 0 
L 2419 0 
L 2419 1100 
L 313 1100 
L 313 1709 
L 2253 4666 
z
" transform="scale(0.015625)"/>
       </defs>
       <use xlink:href="#DejaVuSans-34"/>
       <use xlink:href="#DejaVuSans-30" x="63.623047"/>
      </g>
     </g>
    </g>
    <g id="xtick_4">
     <g id="line2d_4">
      <g>
       <use xlink:href="#m5201d2f0cf" x="218.398864" y="224.64" style="stroke: #000000; stroke-width: 0.8"/>
      </g>
     </g>
     <g id="text_4">
      <!-- 60 -->
      <g transform="translate(212.036364 239.238438)scale(0.1 -0.1)">
       <defs>
        <path id="DejaVuSans-36" d="M 2113 2584 
Q 1688 2584 1439 2293 
Q 1191 2003 1191 1497 
Q 1191 994 1439 701 
Q 1688 409 2113 409 
Q 2538 409 2786 701 
Q 3034 994 3034 1497 
Q 3034 2003 2786 2293 
Q 2538 2584 2113 2584 
z
M 3366 4563 
L 3366 3988 
Q 3128 4100 2886 4159 
Q 2644 4219 2406 4219 
Q 1781 4219 1451 3797 
Q 1122 3375 1075 2522 
Q 1259 2794 1537 2939 
Q 1816 3084 2150 3084 
Q 2853 3084 3261 2657 
Q 3669 2231 3669 1497 
Q 3669 778 3244 343 
Q 2819 -91 2113 -91 
Q 1303 -91 875 529 
Q 447 1150 447 2328 
Q 447 3434 972 4092 
Q 1497 4750 2381 4750 
Q 2619 4750 2861 4703 
Q 3103 4656 3366 4563 
z
" transform="scale(0.015625)"/>
       </defs>
       <use xlink:href="#DejaVuSans-36"/>
       <use xlink:href="#DejaVuSans-30" x="63.623047"/>
      </g>
     </g>
    </g>
    <g id="xtick_5">
     <g id="line2d_5">
      <g>
       <use xlink:href="#m5201d2f0cf" x="279.271591" y="224.64" style="stroke: #000000; stroke-width: 0.8"/>
      </g>
     </g>
     <g id="text_5">
      <!-- 80 -->
      <g transform="translate(272.909091 239.238438)scale(0.1 -0.1)">
       <defs>
        <path id="DejaVuSans-38" d="M 2034 2216 
Q 1584 2216 1326 1975 
Q 1069 1734 1069 1313 
Q 1069 891 1326 650 
Q 1584 409 2034 409 
Q 2484 409 2743 651 
Q 3003 894 3003 1313 
Q 3003 1734 2745 1975 
Q 2488 2216 2034 2216 
z
M 1403 2484 
Q 997 2584 770 2862 
Q 544 3141 544 3541 
Q 544 4100 942 4425 
Q 1341 4750 2034 4750 
Q 2731 4750 3128 4425 
Q 3525 4100 3525 3541 
Q 3525 3141 3298 2862 
Q 3072 2584 2669 2484 
Q 3125 2378 3379 2068 
Q 3634 1759 3634 1313 
Q 3634 634 3220 271 
Q 2806 -91 2034 -91 
Q 1263 -91 848 271 
Q 434 634 434 1313 
Q 434 1759 690 2068 
Q 947 2378 1403 2484 
z
M 1172 3481 
Q 1172 3119 1398 2916 
Q 1625 2713 2034 2713 
Q 2441 2713 2670 2916 
Q 2900 3119 2900 3481 
Q 2900 3844 2670 4047 
Q 2441 4250 2034 4250 
Q 1625 4250 1398 4047 
Q 1172 3844 1172 3481 
z
" transform="scale(0.015625)"/>
       </defs>
       <use xlink:href="#DejaVuSans-38"/>
       <use xlink:href="#DejaVuSans-30" x="63.623047"/>
      </g>
     </g>
    </g>
    <g id="xtick_6">
     <g id="line2d_6">
      <g>
       <use xlink:href="#m5201d2f0cf" x="340.144318" y="224.64" style="stroke: #000000; stroke-width: 0.8"/>
      </g>
     </g>
     <g id="text_6">
      <!-- 100 -->
      <g transform="translate(330.600568 239.238438)scale(0.1 -0.1)">
       <defs>
        <path id="DejaVuSans-31" d="M 794 531 
L 1825 531 
L 1825 4091 
L 703 3866 
L 703 4441 
L 1819 4666 
L 2450 4666 
L 2450 531 
L 3481 531 
L 3481 0 
L 794 0 
L 794 531 
z
" transform="scale(0.015625)"/>
       </defs>
       <use xlink:href="#DejaVuSans-31"/>
       <use xlink:href="#DejaVuSans-30" x="63.623047"/>
       <use xlink:href="#DejaVuSans-30" x="127.246094"/>
      </g>
     </g>
    </g>
    <g id="text_7">
     <!-- $n$ -->
     <g transform="translate(182.8425 257.475625)scale(0.16 -0.16)">
      <defs>
       <path id="DejaVuSans-Oblique-6e" d="M 3566 2113 
L 3156 0 
L 2578 0 
L 2988 2091 
Q 3016 2238 3031 2350 
Q 3047 2463 3047 2528 
Q 3047 2791 2881 2937 
Q 2716 3084 2419 3084 
Q 1956 3084 1622 2776 
Q 1288 2469 1184 1941 
L 800 0 
L 225 0 
L 903 3500 
L 1478 3500 
L 1363 2950 
Q 1603 3253 1940 3418 
Q 2278 3584 2650 3584 
Q 3113 3584 3367 3334 
Q 3622 3084 3622 2631 
Q 3622 2519 3608 2391 
Q 3594 2263 3566 2113 
z
" transform="scale(0.015625)"/>
      </defs>
      <use xlink:href="#DejaVuSans-Oblique-6e"/>
     </g>
    </g>
   </g>
   <g id="matplotlib.axis_2">
    <g id="ytick_1">
     <g id="line2d_7">
      <defs>
       <path id="mcacce3e9d2" d="M 0 0 
L -3.5 0 
" style="stroke: #000000; stroke-width: 0.8"/>
      </defs>
      <g>
       <use xlink:href="#mcacce3e9d2" x="20.5625" y="202.267445" style="stroke: #000000; stroke-width: 0.8"/>
      </g>
     </g>
     <g id="text_8">
      <!-- 1 -->
      <g transform="translate(7.2 206.066663)scale(0.1 -0.1)">
       <use xlink:href="#DejaVuSans-31"/>
      </g>
     </g>
    </g>
    <g id="ytick_2">
     <g id="line2d_8">
      <g>
       <use xlink:href="#mcacce3e9d2" x="20.5625" y="161.567415" style="stroke: #000000; stroke-width: 0.8"/>
      </g>
     </g>
     <g id="text_9">
      <!-- 2 -->
      <g transform="translate(7.2 165.366634)scale(0.1 -0.1)">
       <use xlink:href="#DejaVuSans-32"/>
      </g>
     </g>
    </g>
    <g id="ytick_3">
     <g id="line2d_9">
      <g>
       <use xlink:href="#mcacce3e9d2" x="20.5625" y="120.867385" style="stroke: #000000; stroke-width: 0.8"/>
      </g>
     </g>
     <g id="text_10">
      <!-- 3 -->
      <g transform="translate(7.2 124.666604)scale(0.1 -0.1)">
       <defs>
        <path id="DejaVuSans-33" d="M 2597 2516 
Q 3050 2419 3304 2112 
Q 3559 1806 3559 1356 
Q 3559 666 3084 287 
Q 2609 -91 1734 -91 
Q 1441 -91 1130 -33 
Q 819 25 488 141 
L 488 750 
Q 750 597 1062 519 
Q 1375 441 1716 441 
Q 2309 441 2620 675 
Q 2931 909 2931 1356 
Q 2931 1769 2642 2001 
Q 2353 2234 1838 2234 
L 1294 2234 
L 1294 2753 
L 1863 2753 
Q 2328 2753 2575 2939 
Q 2822 3125 2822 3475 
Q 2822 3834 2567 4026 
Q 2313 4219 1838 4219 
Q 1578 4219 1281 4162 
Q 984 4106 628 3988 
L 628 4550 
Q 988 4650 1302 4700 
Q 1616 4750 1894 4750 
Q 2613 4750 3031 4423 
Q 3450 4097 3450 3541 
Q 3450 3153 3228 2886 
Q 3006 2619 2597 2516 
z
" transform="scale(0.015625)"/>
       </defs>
       <use xlink:href="#DejaVuSans-33"/>
      </g>
     </g>
    </g>
    <g id="ytick_4">
     <g id="line2d_10">
      <g>
       <use xlink:href="#mcacce3e9d2" x="20.5625" y="80.167355" style="stroke: #000000; stroke-width: 0.8"/>
      </g>
     </g>
     <g id="text_11">
      <!-- 4 -->
      <g transform="translate(7.2 83.966574)scale(0.1 -0.1)">
       <use xlink:href="#DejaVuSans-34"/>
      </g>
     </g>
    </g>
    <g id="ytick_5">
     <g id="line2d_11">
      <g>
       <use xlink:href="#mcacce3e9d2" x="20.5625" y="39.467325" style="stroke: #000000; stroke-width: 0.8"/>
      </g>
     </g>
     <g id="text_12">
      <!-- 5 -->
      <g transform="translate(7.2 43.266544)scale(0.1 -0.1)">
       <defs>
        <path id="DejaVuSans-35" d="M 691 4666 
L 3169 4666 
L 3169 4134 
L 1269 4134 
L 1269 2991 
Q 1406 3038 1543 3061 
Q 1681 3084 1819 3084 
Q 2600 3084 3056 2656 
Q 3513 2228 3513 1497 
Q 3513 744 3044 326 
Q 2575 -91 1722 -91 
Q 1428 -91 1123 -41 
Q 819 9 494 109 
L 494 744 
Q 775 591 1075 516 
Q 1375 441 1709 441 
Q 2250 441 2565 725 
Q 2881 1009 2881 1497 
Q 2881 1984 2565 2268 
Q 2250 2553 1709 2553 
Q 1456 2553 1204 2497 
Q 953 2441 691 2322 
L 691 4666 
z
" transform="scale(0.015625)"/>
       </defs>
       <use xlink:href="#DejaVuSans-35"/>
      </g>
     </g>
    </g>
   </g>
   <g id="line2d_12">
    <path d="M 35.780682 149.252192 
L 38.855062 145.335709 
L 41.929442 141.763239 
L 45.003822 138.479198 
L 48.078202 135.440471 
L 51.152583 132.612943 
L 54.226963 129.969155 
L 57.301343 127.486677 
L 60.375723 125.14695 
L 63.450103 122.934447 
L 66.524483 120.836043 
L 69.598864 118.840544 
L 72.673244 116.938327 
L 75.747624 115.12106 
L 78.822004 113.381477 
L 81.896384 111.71321 
L 84.970764 110.110639 
L 88.045145 108.568787 
L 91.119525 107.08322 
L 94.193905 105.649972 
L 97.268285 104.265484 
L 100.342665 102.926546 
L 103.417045 101.630257 
L 106.491426 100.373984 
L 109.565806 99.155329 
L 112.640186 97.972105 
L 115.714566 96.822311 
L 118.788946 95.704108 
L 121.863326 94.615807 
L 124.937707 93.55585 
L 128.012087 92.522799 
L 131.086467 91.515321 
L 134.160847 90.532181 
L 137.235227 89.57223 
L 140.309607 88.6344 
L 143.383988 87.717694 
L 146.458368 86.821181 
L 149.532748 85.943991 
L 152.607128 85.085309 
L 155.681508 84.244369 
L 158.755888 83.420454 
L 161.830269 82.612887 
L 164.904649 81.821033 
L 167.979029 81.044291 
L 171.053409 80.282096 
L 174.127789 79.533913 
L 177.202169 78.799235 
L 180.27655 78.077584 
L 183.35093 77.368507 
L 186.42531 76.671571 
L 189.49969 75.986369 
L 192.57407 75.312512 
L 195.64845 74.649631 
L 198.722831 73.997373 
L 201.797211 73.355403 
L 204.871591 72.723403 
L 207.945971 72.101066 
L 211.020351 71.488102 
L 214.094731 70.884233 
L 217.169112 70.289193 
L 220.243492 69.702727 
L 223.317872 69.124592 
L 226.392252 68.554554 
L 229.466632 67.99239 
L 232.541012 67.437885 
L 235.615393 66.890833 
L 238.689773 66.351037 
L 241.764153 65.818307 
L 244.838533 65.292459 
L 247.912913 64.773319 
L 250.987293 64.260717 
L 254.061674 63.754492 
L 257.136054 63.254485 
L 260.210434 62.760546 
L 263.284814 62.272531 
L 266.359194 61.790297 
L 269.433574 61.313711 
L 272.507955 60.84264 
L 275.582335 60.37696 
L 278.656715 59.916547 
L 281.731095 59.461285 
L 284.805475 59.011059 
L 287.879855 58.565758 
L 290.954236 58.125278 
L 294.028616 57.689513 
L 297.102996 57.258365 
L 300.177376 56.831736 
L 303.251756 56.409532 
L 306.326136 55.991664 
L 309.400517 55.578042 
L 312.474897 55.168582 
L 315.549277 54.7632 
L 318.623657 54.361815 
L 321.698037 53.964351 
L 324.772417 53.570731 
L 327.846798 53.180881 
L 330.921178 52.794729 
L 333.995558 52.412207 
L 337.069938 52.033247 
L 340.144318 51.657783 
" clip-path="url(#p658cb9fa10)" style="fill: none; stroke: #1f77b4; stroke-width: 2; stroke-linecap: square"/>
   </g>
   <g id="line2d_13">
    <path d="M 35.780682 214.756364 
L 38.855062 198.117115 
L 41.929442 186.340214 
L 45.003822 177.217381 
L 48.078202 169.769655 
L 51.152583 163.476277 
L 54.226963 158.02697 
L 57.301343 153.221865 
L 60.375723 148.924625 
L 63.450103 145.038084 
L 66.524483 141.490541 
L 69.598864 138.227574 
L 72.673244 135.206898 
L 75.747624 132.395004 
L 78.822004 129.764889 
L 81.896384 127.294468 
L 84.970764 124.965456 
L 88.045145 122.762536 
L 91.119525 120.672753 
L 94.193905 118.685052 
L 97.268285 116.789922 
L 100.342665 114.979124 
L 103.417045 113.245471 
L 106.491426 111.582656 
L 109.565806 109.985119 
L 112.640186 108.447926 
L 115.714566 106.966684 
L 118.788946 105.537463 
L 121.863326 104.156733 
L 124.937707 102.82131 
L 128.012087 101.528316 
L 131.086467 100.275137 
L 134.160847 99.059395 
L 137.235227 97.878917 
L 140.309607 96.731715 
L 143.383988 95.615965 
L 146.458368 94.529987 
L 149.532748 93.472234 
L 152.607128 92.441277 
L 155.681508 91.43579 
L 158.755888 90.454546 
L 161.830269 89.496403 
L 164.904649 88.560299 
L 167.979029 87.645241 
L 171.053409 86.750306 
L 174.127789 85.874626 
L 177.202169 85.017391 
L 180.27655 84.177839 
L 183.35093 83.355256 
L 186.42531 82.548969 
L 189.49969 81.758345 
L 192.57407 80.982787 
L 195.64845 80.221732 
L 198.722831 79.474648 
L 201.797211 78.74103 
L 204.871591 78.020401 
L 207.945971 77.312311 
L 211.020351 76.616329 
L 214.094731 75.932048 
L 217.169112 75.259083 
L 220.243492 74.597064 
L 223.317872 73.945641 
L 226.392252 73.30448 
L 229.466632 72.673264 
L 232.541012 72.051688 
L 235.615393 71.439461 
L 238.689773 70.836308 
L 241.764153 70.241963 
L 244.838533 69.656172 
L 247.912913 69.078694 
L 250.987293 68.509294 
L 254.061674 67.94775 
L 257.136054 67.393849 
L 260.210434 66.847385 
L 263.284814 66.308161 
L 266.359194 65.775988 
L 269.433574 65.250683 
L 272.507955 64.732072 
L 275.582335 64.219987 
L 278.656715 63.714264 
L 281.731095 63.214748 
L 284.805475 62.721289 
L 287.879855 62.233741 
L 290.954236 61.751964 
L 294.028616 61.275824 
L 297.102996 60.805189 
L 300.177376 60.339934 
L 303.251756 59.879938 
L 306.326136 59.425083 
L 309.400517 58.975255 
L 312.474897 58.530344 
L 315.549277 58.090244 
L 318.623657 57.654853 
L 321.698037 57.224069 
L 324.772417 56.797798 
L 327.846798 56.375945 
L 330.921178 55.958419 
L 333.995558 55.545133 
L 337.069938 55.136002 
L 340.144318 54.730943 
" clip-path="url(#p658cb9fa10)" style="fill: none; stroke-dasharray: 3.7,1.6; stroke-dashoffset: 0; stroke: #ff7f0e"/>
   </g>
   <g id="line2d_14">
    <path d="M 35.780682 209.114141 
L 38.855062 189.147043 
L 41.929442 175.014762 
L 45.003822 164.067362 
L 48.078202 155.130091 
L 51.152583 147.578037 
L 54.226963 141.038869 
L 57.301343 135.272743 
L 60.375723 130.116055 
L 63.450103 125.452206 
L 66.524483 121.195154 
L 69.598864 117.279594 
L 72.673244 113.654782 
L 75.747624 110.28051 
L 78.822004 107.124371 
L 81.896384 104.159867 
L 84.970764 101.365052 
L 88.045145 98.721548 
L 91.119525 96.213809 
L 94.193905 93.828567 
L 97.268285 91.554412 
L 100.342665 89.381454 
L 103.417045 87.30107 
L 106.491426 85.305693 
L 109.565806 83.388648 
L 112.640186 81.544016 
L 115.714566 79.766526 
L 118.788946 78.051461 
L 121.863326 76.394585 
L 124.937707 74.792077 
L 128.012087 73.240484 
L 131.086467 71.73667 
L 134.160847 70.277779 
L 137.235227 68.861205 
L 140.309607 67.484563 
L 143.383988 66.145663 
L 146.458368 64.842489 
L 149.532748 63.573186 
L 152.607128 62.336037 
L 155.681508 61.129453 
L 158.755888 59.95196 
L 161.830269 58.802189 
L 164.904649 57.678863 
L 167.979029 56.580795 
L 171.053409 55.506872 
L 174.127789 54.456056 
L 177.202169 53.427374 
L 180.27655 52.419912 
L 183.35093 51.432812 
L 186.42531 50.465267 
L 189.49969 49.516519 
L 192.57407 48.58585 
L 195.64845 47.672584 
L 198.722831 46.776082 
L 201.797211 45.895741 
L 204.871591 45.030987 
L 207.945971 44.181278 
L 211.020351 43.346099 
L 214.094731 42.524963 
L 217.169112 41.717404 
L 220.243492 40.922982 
L 223.317872 40.141274 
L 226.392252 39.371882 
L 229.466632 38.614422 
L 232.541012 37.86853 
L 235.615393 37.133859 
L 238.689773 36.410075 
L 241.764153 35.696861 
L 244.838533 34.993912 
L 247.912913 34.300937 
L 250.987293 33.617658 
L 254.061674 32.943805 
L 257.136054 32.279124 
L 260.210434 31.623367 
L 263.284814 30.976298 
L 266.359194 30.33769 
L 269.433574 29.707325 
L 272.507955 29.084992 
L 275.582335 28.470489 
L 278.656715 27.863622 
L 281.731095 27.264203 
L 284.805475 26.672052 
L 287.879855 26.086994 
L 290.954236 25.508862 
L 294.028616 24.937493 
L 297.102996 24.372732 
L 300.177376 23.814426 
L 303.251756 23.262431 
L 306.326136 22.716605 
L 309.400517 22.176811 
L 312.474897 21.642918 
L 315.549277 21.114798 
L 318.623657 20.592328 
L 321.698037 20.075388 
L 324.772417 19.563862 
L 327.846798 19.057639 
L 330.921178 18.556608 
L 333.995558 18.060665 
L 337.069938 17.569708 
L 340.144318 17.083636 
" clip-path="url(#p658cb9fa10)" style="fill: none; stroke: #2ca02c; stroke-width: 2; stroke-linecap: square"/>
   </g>
   <g id="patch_3">
    <path d="M 20.5625 224.64 
L 20.5625 7.2 
" style="fill: none; stroke: #000000; stroke-width: 0.8; stroke-linejoin: miter; stroke-linecap: square"/>
   </g>
   <g id="patch_4">
    <path d="M 355.3625 224.64 
L 355.3625 7.2 
" style="fill: none; stroke: #000000; stroke-width: 0.8; stroke-linejoin: miter; stroke-linecap: square"/>
   </g>
   <g id="patch_5">
    <path d="M 20.5625 224.64 
L 355.3625 224.64 
" style="fill: none; stroke: #000000; stroke-width: 0.8; stroke-linejoin: miter; stroke-linecap: square"/>
   </g>
   <g id="patch_6">
    <path d="M 20.5625 7.2 
L 355.3625 7.2 
" style="fill: none; stroke: #000000; stroke-width: 0.8; stroke-linejoin: miter; stroke-linecap: square"/>
   </g>
   <g id="legend_1">
    <g id="patch_7">
     <path d="M 246.2975 216.64 
L 344.1625 216.64 
Q 347.3625 216.64 347.3625 213.44 
L 347.3625 144.55 
Q 347.3625 141.35 344.1625 141.35 
L 246.2975 141.35 
Q 243.0975 141.35 243.0975 144.55 
L 243.0975 213.44 
Q 243.0975 216.64 246.2975 216.64 
z
" style="fill: #ffffff; opacity: 0.8; stroke: #cccccc; stroke-linejoin: miter"/>
    </g>
    <g id="line2d_15">
     <path d="M 249.4975 154.3075 
L 265.4975 154.3075 
L 281.4975 154.3075 
" style="fill: none; stroke: #1f77b4; stroke-width: 2; stroke-linecap: square"/>
    </g>
    <g id="text_13">
     <!-- $f(n)$ -->
     <g transform="translate(294.2975 159.9075)scale(0.16 -0.16)">
      <defs>
       <path id="DejaVuSans-Oblique-66" d="M 3059 4863 
L 2969 4384 
L 2419 4384 
Q 2106 4384 1964 4261 
Q 1822 4138 1753 3809 
L 1691 3500 
L 2638 3500 
L 2553 3053 
L 1606 3053 
L 1013 0 
L 434 0 
L 1031 3053 
L 481 3053 
L 563 3500 
L 1113 3500 
L 1159 3744 
Q 1278 4363 1576 4613 
Q 1875 4863 2516 4863 
L 3059 4863 
z
" transform="scale(0.015625)"/>
       <path id="DejaVuSans-28" d="M 1984 4856 
Q 1566 4138 1362 3434 
Q 1159 2731 1159 2009 
Q 1159 1288 1364 580 
Q 1569 -128 1984 -844 
L 1484 -844 
Q 1016 -109 783 600 
Q 550 1309 550 2009 
Q 550 2706 781 3412 
Q 1013 4119 1484 4856 
L 1984 4856 
z
" transform="scale(0.015625)"/>
       <path id="DejaVuSans-29" d="M 513 4856 
L 1013 4856 
Q 1481 4119 1714 3412 
Q 1947 2706 1947 2009 
Q 1947 1309 1714 600 
Q 1481 -109 1013 -844 
L 513 -844 
Q 928 -128 1133 580 
Q 1338 1288 1338 2009 
Q 1338 2731 1133 3434 
Q 928 4138 513 4856 
z
" transform="scale(0.015625)"/>
      </defs>
      <use xlink:href="#DejaVuSans-Oblique-66" transform="translate(0 0.015625)"/>
      <use xlink:href="#DejaVuSans-28" transform="translate(35.205078 0.015625)"/>
      <use xlink:href="#DejaVuSans-Oblique-6e" transform="translate(74.21875 0.015625)"/>
      <use xlink:href="#DejaVuSans-29" transform="translate(137.597656 0.015625)"/>
     </g>
    </g>
    <g id="line2d_16">
     <path d="M 249.4975 177.795 
L 265.4975 177.795 
L 281.4975 177.795 
" style="fill: none; stroke-dasharray: 3.7,1.6; stroke-dashoffset: 0; stroke: #ff7f0e"/>
    </g>
    <g id="text_14">
     <!-- $g(n)$ -->
     <g transform="translate(294.2975 183.395)scale(0.16 -0.16)">
      <defs>
       <path id="DejaVuSans-Oblique-67" d="M 3816 3500 
L 3219 434 
Q 3047 -456 2561 -893 
Q 2075 -1331 1253 -1331 
Q 950 -1331 690 -1286 
Q 431 -1241 206 -1147 
L 313 -588 
Q 525 -725 762 -790 
Q 1000 -856 1269 -856 
Q 1816 -856 2167 -557 
Q 2519 -259 2631 300 
L 2681 563 
Q 2441 288 2122 144 
Q 1803 0 1434 0 
Q 903 0 598 351 
Q 294 703 294 1319 
Q 294 1803 478 2267 
Q 663 2731 997 3091 
Q 1219 3328 1514 3456 
Q 1809 3584 2131 3584 
Q 2484 3584 2746 3420 
Q 3009 3256 3138 2956 
L 3238 3500 
L 3816 3500 
z
M 2950 2216 
Q 2950 2641 2750 2872 
Q 2550 3103 2181 3103 
Q 1953 3103 1747 3012 
Q 1541 2922 1394 2759 
Q 1156 2491 1023 2127 
Q 891 1763 891 1375 
Q 891 944 1092 712 
Q 1294 481 1672 481 
Q 2219 481 2584 976 
Q 2950 1472 2950 2216 
z
" transform="scale(0.015625)"/>
      </defs>
      <use xlink:href="#DejaVuSans-Oblique-67" transform="translate(0 0.125)"/>
      <use xlink:href="#DejaVuSans-28" transform="translate(63.476562 0.125)"/>
      <use xlink:href="#DejaVuSans-Oblique-6e" transform="translate(102.490234 0.125)"/>
      <use xlink:href="#DejaVuSans-29" transform="translate(165.869141 0.125)"/>
     </g>
    </g>
    <g id="line2d_17">
     <path d="M 249.4975 201.3125 
L 265.4975 201.3125 
L 281.4975 201.3125 
" style="fill: none; stroke: #2ca02c; stroke-width: 2; stroke-linecap: square"/>
    </g>
    <g id="text_15">
     <!-- c g(n) -->
     <g transform="translate(294.2975 206.9125)scale(0.16 -0.16)">
      <defs>
       <path id="DejaVuSans-63" d="M 3122 3366 
L 3122 2828 
Q 2878 2963 2633 3030 
Q 2388 3097 2138 3097 
Q 1578 3097 1268 2742 
Q 959 2388 959 1747 
Q 959 1106 1268 751 
Q 1578 397 2138 397 
Q 2388 397 2633 464 
Q 2878 531 3122 666 
L 3122 134 
Q 2881 22 2623 -34 
Q 2366 -91 2075 -91 
Q 1284 -91 818 406 
Q 353 903 353 1747 
Q 353 2603 823 3093 
Q 1294 3584 2113 3584 
Q 2378 3584 2631 3529 
Q 2884 3475 3122 3366 
z
" transform="scale(0.015625)"/>
       <path id="DejaVuSans-20" transform="scale(0.015625)"/>
       <path id="DejaVuSans-67" d="M 2906 1791 
Q 2906 2416 2648 2759 
Q 2391 3103 1925 3103 
Q 1463 3103 1205 2759 
Q 947 2416 947 1791 
Q 947 1169 1205 825 
Q 1463 481 1925 481 
Q 2391 481 2648 825 
Q 2906 1169 2906 1791 
z
M 3481 434 
Q 3481 -459 3084 -895 
Q 2688 -1331 1869 -1331 
Q 1566 -1331 1297 -1286 
Q 1028 -1241 775 -1147 
L 775 -588 
Q 1028 -725 1275 -790 
Q 1522 -856 1778 -856 
Q 2344 -856 2625 -561 
Q 2906 -266 2906 331 
L 2906 616 
Q 2728 306 2450 153 
Q 2172 0 1784 0 
Q 1141 0 747 490 
Q 353 981 353 1791 
Q 353 2603 747 3093 
Q 1141 3584 1784 3584 
Q 2172 3584 2450 3431 
Q 2728 3278 2906 2969 
L 2906 3500 
L 3481 3500 
L 3481 434 
z
" transform="scale(0.015625)"/>
       <path id="DejaVuSans-6e" d="M 3513 2113 
L 3513 0 
L 2938 0 
L 2938 2094 
Q 2938 2591 2744 2837 
Q 2550 3084 2163 3084 
Q 1697 3084 1428 2787 
Q 1159 2491 1159 1978 
L 1159 0 
L 581 0 
L 581 3500 
L 1159 3500 
L 1159 2956 
Q 1366 3272 1645 3428 
Q 1925 3584 2291 3584 
Q 2894 3584 3203 3211 
Q 3513 2838 3513 2113 
z
" transform="scale(0.015625)"/>
      </defs>
      <use xlink:href="#DejaVuSans-63"/>
      <use xlink:href="#DejaVuSans-20" x="54.980469"/>
      <use xlink:href="#DejaVuSans-67" x="86.767578"/>
      <use xlink:href="#DejaVuSans-28" x="150.244141"/>
      <use xlink:href="#DejaVuSans-6e" x="189.257812"/>
      <use xlink:href="#DejaVuSans-29" x="252.636719"/>
     </g>
    </g>
   </g>
  </g>
 </g>
 <defs>
  <clipPath id="p658cb9fa10">
   <rect x="20.5625" y="7.2" width="334.8" height="217.44"/>
  </clipPath>
 </defs>
</svg>
