<?xml version="1.0" encoding="utf-8" standalone="no"?>
<!DOCTYPE svg PUBLIC "-//W3C//DTD SVG 1.1//EN"
  "http://www.w3.org/Graphics/SVG/1.1/DTD/svg11.dtd">
<svg xmlns:xlink="http://www.w3.org/1999/xlink" width="374.120625pt" height="461.42pt" viewBox="0 0 374.120625 461.42" xmlns="http://www.w3.org/2000/svg" version="1.1">
 <metadata>
  <rdf:RDF xmlns:dc="http://purl.org/dc/elements/1.1/" xmlns:cc="http://creativecommons.org/ns#" xmlns:rdf="http://www.w3.org/1999/02/22-rdf-syntax-ns#">
   <cc:Work>
    <dc:type rdf:resource="http://purl.org/dc/dcmitype/StillImage"/>
    <dc:date>2023-06-18T22:33:02.143787</dc:date>
    <dc:format>image/svg+xml</dc:format>
    <dc:creator>
     <cc:Agent>
      <dc:title>Matplotlib v3.6.2, https://matplotlib.org/</dc:title>
     </cc:Agent>
    </dc:creator>
   </cc:Work>
  </rdf:RDF>
 </metadata>
 <defs>
  <style type="text/css">*{stroke-linejoin: round; stroke-linecap: butt}</style>
 </defs>
 <g id="figure_1">
  <g id="patch_1">
   <path d="M 0 461.42 
L 374.120625 461.42 
L 374.120625 0 
L 0 0 
z
" style="fill: #ffffff"/>
  </g>
  <g id="axes_1">
   <g id="patch_2">
    <path d="M 32.120625 154.060927 
L 366.920625 154.060927 
L 366.920625 7.2 
L 32.120625 7.2 
z
" style="fill: #ffffff"/>
   </g>
   <g id="matplotlib.axis_1"/>
   <g id="matplotlib.axis_2">
    <g id="text_1">
     <!-- Exact -->
     <g transform="translate(20.877188 105.636401) rotate(-90) scale(0.18 -0.18)">
      <defs>
       <path id="DejaVuSans-45" d="M 628 4666 
L 3578 4666 
L 3578 4134 
L 1259 4134 
L 1259 2753 
L 3481 2753 
L 3481 2222 
L 1259 2222 
L 1259 531 
L 3634 531 
L 3634 0 
L 628 0 
L 628 4666 
z
" transform="scale(0.015625)"/>
       <path id="DejaVuSans-78" d="M 3513 3500 
L 2247 1797 
L 3578 0 
L 2900 0 
L 1881 1375 
L 863 0 
L 184 0 
L 1544 1831 
L 300 3500 
L 978 3500 
L 1906 2253 
L 2834 3500 
L 3513 3500 
z
" transform="scale(0.015625)"/>
       <path id="DejaVuSans-61" d="M 2194 1759 
Q 1497 1759 1228 1600 
Q 959 1441 959 1056 
Q 959 750 1161 570 
Q 1363 391 1709 391 
Q 2188 391 2477 730 
Q 2766 1069 2766 1631 
L 2766 1759 
L 2194 1759 
z
M 3341 1997 
L 3341 0 
L 2766 0 
L 2766 531 
Q 2569 213 2275 61 
Q 1981 -91 1556 -91 
Q 1019 -91 701 211 
Q 384 513 384 1019 
Q 384 1609 779 1909 
Q 1175 2209 1959 2209 
L 2766 2209 
L 2766 2266 
Q 2766 2663 2505 2880 
Q 2244 3097 1772 3097 
Q 1472 3097 1187 3025 
Q 903 2953 641 2809 
L 641 3341 
Q 956 3463 1253 3523 
Q 1550 3584 1831 3584 
Q 2591 3584 2966 3190 
Q 3341 2797 3341 1997 
z
" transform="scale(0.015625)"/>
       <path id="DejaVuSans-63" d="M 3122 3366 
L 3122 2828 
Q 2878 2963 2633 3030 
Q 2388 3097 2138 3097 
Q 1578 3097 1268 2742 
Q 959 2388 959 1747 
Q 959 1106 1268 751 
Q 1578 397 2138 397 
Q 2388 397 2633 464 
Q 2878 531 3122 666 
L 3122 134 
Q 2881 22 2623 -34 
Q 2366 -91 2075 -91 
Q 1284 -91 818 406 
Q 353 903 353 1747 
Q 353 2603 823 3093 
Q 1294 3584 2113 3584 
Q 2378 3584 2631 3529 
Q 2884 3475 3122 3366 
z
" transform="scale(0.015625)"/>
       <path id="DejaVuSans-74" d="M 1172 4494 
L 1172 3500 
L 2356 3500 
L 2356 3053 
L 1172 3053 
L 1172 1153 
Q 1172 725 1289 603 
Q 1406 481 1766 481 
L 2356 481 
L 2356 0 
L 1766 0 
Q 1100 0 847 248 
Q 594 497 594 1153 
L 594 3053 
L 172 3053 
L 172 3500 
L 594 3500 
L 594 4494 
L 1172 4494 
z
" transform="scale(0.015625)"/>
      </defs>
      <use xlink:href="#DejaVuSans-45"/>
      <use xlink:href="#DejaVuSans-78" x="63.183594"/>
      <use xlink:href="#DejaVuSans-61" x="122.363281"/>
      <use xlink:href="#DejaVuSans-63" x="183.642578"/>
      <use xlink:href="#DejaVuSans-74" x="238.623047"/>
     </g>
    </g>
   </g>
   <g id="line2d_1">
    <path d="M 199.520625 147.38543 
L 98.443272 13.875497 
" clip-path="url(#p71254a506d)" style="fill: none; stroke: #000000; stroke-width: 1.5; stroke-linecap: square"/>
   </g>
   <g id="line2d_2">
    <path d="M 199.520625 147.38543 
L 106.863725 13.875497 
" clip-path="url(#p71254a506d)" style="fill: none; stroke: #000000; stroke-width: 1.5; stroke-linecap: square"/>
   </g>
   <g id="line2d_3">
    <path d="M 199.520625 147.38543 
L 115.284177 13.875497 
" clip-path="url(#p71254a506d)" style="fill: none; stroke: #000000; stroke-width: 1.5; stroke-linecap: square"/>
   </g>
   <g id="line2d_4">
    <path d="M 199.520625 147.38543 
L 123.704629 13.875497 
" clip-path="url(#p71254a506d)" style="fill: none; stroke: #000000; stroke-width: 1.5; stroke-linecap: square"/>
   </g>
   <g id="line2d_5">
    <path d="M 199.520625 147.38543 
L 132.125081 13.875497 
" clip-path="url(#p71254a506d)" style="fill: none; stroke: #000000; stroke-width: 1.5; stroke-linecap: square"/>
   </g>
   <g id="line2d_6">
    <path d="M 199.520625 147.38543 
L 140.545534 13.875497 
" clip-path="url(#p71254a506d)" style="fill: none; stroke: #000000; stroke-width: 1.5; stroke-linecap: square"/>
   </g>
   <g id="line2d_7">
    <path d="M 199.520625 147.38543 
L 251.123095 13.875497 
" clip-path="url(#p71254a506d)" style="fill: none; stroke-dasharray: 5.55,2.4; stroke-dashoffset: 0; stroke: #000000; stroke-width: 1.5"/>
   </g>
   <g id="line2d_8">
    <path d="M 199.520625 147.38543 
L 334.116282 13.875497 
" clip-path="url(#p71254a506d)" style="fill: none; stroke: #000000; stroke-width: 3; stroke-linecap: square"/>
   </g>
   <g id="patch_3">
    <path d="M 32.120625 154.060927 
L 32.120625 7.2 
" style="fill: none; stroke: #000000; stroke-width: 0.8; stroke-linejoin: miter; stroke-linecap: square"/>
   </g>
   <g id="patch_4">
    <path d="M 366.920625 154.060927 
L 366.920625 7.2 
" style="fill: none; stroke: #000000; stroke-width: 0.8; stroke-linejoin: miter; stroke-linecap: square"/>
   </g>
   <g id="patch_5">
    <path d="M 32.120625 154.060927 
L 366.920625 154.060927 
" style="fill: none; stroke: #000000; stroke-width: 0.8; stroke-linejoin: miter; stroke-linecap: square"/>
   </g>
   <g id="patch_6">
    <path d="M 32.120625 7.2 
L 366.920625 7.2 
" style="fill: none; stroke: #000000; stroke-width: 0.8; stroke-linejoin: miter; stroke-linecap: square"/>
   </g>
   <g id="text_2">
    <!-- $\mathcal{R}_{L}$ -->
    <g transform="translate(126.283125 107.33245) scale(0.18 -0.18)">
     <defs>
      <path id="STIXNonUnicode-Italic-e23e" d="M 5120 826 
L 5222 710 
Q 4531 -19 3994 -19 
Q 3674 -19 3466 147 
Q 3258 314 3171 528 
Q 3085 742 2944 1046 
Q 2803 1350 2643 1536 
Q 2586 1606 2368 1734 
Q 2150 1862 2118 1862 
L 2176 2010 
Q 2963 2086 3436 2464 
Q 3910 2842 3910 3219 
Q 3910 3654 3657 3811 
Q 3405 3968 2765 3968 
Q 2605 3968 2544 3917 
Q 2483 3866 2451 3750 
L 1709 1216 
Q 1645 998 1593 857 
Q 1542 717 1433 537 
Q 1325 358 1193 252 
Q 1062 147 848 73 
Q 634 0 358 0 
L 416 154 
Q 608 154 707 314 
Q 806 474 934 902 
L 1517 2918 
Q 1709 3565 1709 3661 
Q 1709 3891 1414 3891 
Q 1254 3891 1113 3859 
Q 973 3827 845 3760 
Q 717 3693 646 3648 
Q 576 3603 467 3520 
Q 358 3437 346 3424 
L 243 3546 
Q 486 3795 723 3942 
Q 960 4090 1270 4150 
Q 1581 4211 1801 4224 
Q 2022 4237 2483 4237 
Q 3341 4237 3814 4118 
Q 4288 4000 4432 3811 
Q 4576 3622 4576 3302 
Q 4576 3110 4509 2934 
Q 4442 2758 4275 2560 
Q 4109 2362 3773 2189 
Q 3437 2016 2957 1888 
L 2957 1862 
Q 3219 1760 3382 1568 
Q 3546 1376 3610 1177 
Q 3674 979 3731 796 
Q 3789 614 3897 496 
Q 4006 378 4205 378 
Q 4659 378 5120 826 
z
" transform="scale(0.015625)"/>
      <path id="DejaVuSans-Oblique-4c" d="M 1075 4666 
L 1709 4666 
L 909 525 
L 3181 525 
L 3078 0 
L 172 0 
L 1075 4666 
z
" transform="scale(0.015625)"/>
     </defs>
     <use xlink:href="#STIXNonUnicode-Italic-e23e" transform="translate(0 0.796875)"/>
     <use xlink:href="#DejaVuSans-Oblique-4c" transform="translate(86.357025 -15.609375) scale(0.7)"/>
    </g>
   </g>
   <g id="text_3">
    <!-- $\mathcal{C}$ -->
    <g transform="translate(220.445625 40.577483) scale(0.18 -0.18)">
     <defs>
      <path id="STIXNonUnicode-Italic-e22f" d="M 3290 896 
L 3386 794 
Q 3354 742 3309 684 
Q 3264 627 3110 476 
Q 2957 326 2787 217 
Q 2618 109 2346 19 
Q 2074 -70 1786 -70 
Q 1158 -70 716 298 
Q 275 666 275 1402 
Q 275 2432 947 3232 
Q 1619 4032 2560 4243 
Q 2803 4294 2989 4294 
Q 3334 4294 3542 4134 
Q 3750 3974 3750 3693 
Q 3750 3520 3609 3334 
Q 3469 3149 3270 3149 
Q 3104 3149 3008 3245 
Q 2912 3341 2912 3482 
Q 2912 3590 2963 3664 
Q 3014 3738 3072 3763 
Q 3130 3789 3181 3827 
Q 3232 3866 3232 3923 
Q 3232 3987 3136 4028 
Q 3040 4070 2925 4070 
Q 2406 4070 1939 3708 
Q 1472 3347 1210 2701 
Q 960 2074 960 1370 
Q 960 787 1251 496 
Q 1542 205 1997 205 
Q 2637 205 3290 896 
z
" transform="scale(0.015625)"/>
     </defs>
     <use xlink:href="#STIXNonUnicode-Italic-e22f" transform="translate(0 0.90625)"/>
    </g>
   </g>
   <g id="text_4">
    <!-- $\mathcal{S}_{R}$ -->
    <g transform="translate(262.295625 107.33245) scale(0.18 -0.18)">
     <defs>
      <path id="STIXNonUnicode-Italic-e23f" d="M 243 1235 
L 410 1254 
Q 518 582 1139 365 
Q 1421 262 1766 262 
Q 2304 262 2685 515 
Q 3066 768 3066 1235 
Q 3066 1427 2883 1571 
Q 2701 1715 2445 1817 
Q 2189 1920 1929 2045 
Q 1670 2170 1488 2403 
Q 1306 2637 1306 2970 
Q 1306 3290 1507 3555 
Q 1709 3821 2000 3974 
Q 2291 4128 2572 4211 
Q 2854 4294 3059 4294 
Q 3603 4294 3948 4134 
Q 4294 3974 4294 3642 
Q 4294 3462 4182 3299 
Q 4070 3136 3853 3136 
Q 3712 3136 3603 3232 
Q 3494 3328 3494 3456 
Q 3494 3603 3590 3708 
Q 3686 3814 3686 3840 
Q 3686 3917 3628 3965 
Q 3571 4013 3456 4032 
Q 3341 4051 3264 4054 
Q 3187 4058 3059 4058 
Q 2931 4058 2745 4010 
Q 2560 3962 2352 3866 
Q 2144 3770 2000 3581 
Q 1856 3392 1856 3155 
Q 1856 2931 2057 2771 
Q 2259 2611 2550 2502 
Q 2842 2394 3133 2269 
Q 3424 2144 3625 1920 
Q 3827 1696 3827 1376 
Q 3827 902 3206 451 
Q 2586 0 1805 0 
Q 992 0 617 339 
Q 243 678 243 1235 
z
" transform="scale(0.015625)"/>
      <path id="DejaVuSans-Oblique-52" d="M 1613 4147 
L 1294 2491 
L 2106 2491 
Q 2584 2491 2879 2755 
Q 3175 3019 3175 3444 
Q 3175 3784 2976 3965 
Q 2778 4147 2406 4147 
L 1613 4147 
z
M 2772 2241 
Q 2972 2194 3105 2009 
Q 3238 1825 3413 1275 
L 3809 0 
L 3144 0 
L 2778 1197 
Q 2638 1659 2453 1815 
Q 2269 1972 1888 1972 
L 1191 1972 
L 806 0 
L 172 0 
L 1081 4666 
L 2503 4666 
Q 3150 4666 3495 4373 
Q 3841 4081 3841 3531 
Q 3841 3044 3547 2687 
Q 3253 2331 2772 2241 
z
" transform="scale(0.015625)"/>
     </defs>
     <use xlink:href="#STIXNonUnicode-Italic-e23f" transform="translate(0 0.90625)"/>
     <use xlink:href="#DejaVuSans-Oblique-52" transform="translate(64.357025 -15.5) scale(0.7)"/>
    </g>
   </g>
  </g>
  <g id="axes_2">
   <g id="patch_7">
    <path d="M 32.120625 302.390464 
L 366.920625 302.390464 
L 366.920625 155.529536 
L 32.120625 155.529536 
z
" style="fill: #ffffff"/>
   </g>
   <g id="matplotlib.axis_3"/>
   <g id="matplotlib.axis_4">
    <g id="text_5">
     <!-- Roe -->
     <g transform="translate(20.877188 245.853281) rotate(-90) scale(0.18 -0.18)">
      <defs>
       <path id="DejaVuSans-52" d="M 2841 2188 
Q 3044 2119 3236 1894 
Q 3428 1669 3622 1275 
L 4263 0 
L 3584 0 
L 2988 1197 
Q 2756 1666 2539 1819 
Q 2322 1972 1947 1972 
L 1259 1972 
L 1259 0 
L 628 0 
L 628 4666 
L 2053 4666 
Q 2853 4666 3247 4331 
Q 3641 3997 3641 3322 
Q 3641 2881 3436 2590 
Q 3231 2300 2841 2188 
z
M 1259 4147 
L 1259 2491 
L 2053 2491 
Q 2509 2491 2742 2702 
Q 2975 2913 2975 3322 
Q 2975 3731 2742 3939 
Q 2509 4147 2053 4147 
L 1259 4147 
z
" transform="scale(0.015625)"/>
       <path id="DejaVuSans-6f" d="M 1959 3097 
Q 1497 3097 1228 2736 
Q 959 2375 959 1747 
Q 959 1119 1226 758 
Q 1494 397 1959 397 
Q 2419 397 2687 759 
Q 2956 1122 2956 1747 
Q 2956 2369 2687 2733 
Q 2419 3097 1959 3097 
z
M 1959 3584 
Q 2709 3584 3137 3096 
Q 3566 2609 3566 1747 
Q 3566 888 3137 398 
Q 2709 -91 1959 -91 
Q 1206 -91 779 398 
Q 353 888 353 1747 
Q 353 2609 779 3096 
Q 1206 3584 1959 3584 
z
" transform="scale(0.015625)"/>
       <path id="DejaVuSans-65" d="M 3597 1894 
L 3597 1613 
L 953 1613 
Q 991 1019 1311 708 
Q 1631 397 2203 397 
Q 2534 397 2845 478 
Q 3156 559 3463 722 
L 3463 178 
Q 3153 47 2828 -22 
Q 2503 -91 2169 -91 
Q 1331 -91 842 396 
Q 353 884 353 1716 
Q 353 2575 817 3079 
Q 1281 3584 2069 3584 
Q 2775 3584 3186 3129 
Q 3597 2675 3597 1894 
z
M 3022 2063 
Q 3016 2534 2758 2815 
Q 2500 3097 2075 3097 
Q 1594 3097 1305 2825 
Q 1016 2553 972 2059 
L 3022 2063 
z
" transform="scale(0.015625)"/>
      </defs>
      <use xlink:href="#DejaVuSans-52"/>
      <use xlink:href="#DejaVuSans-6f" x="64.982422"/>
      <use xlink:href="#DejaVuSans-65" x="126.164062"/>
     </g>
    </g>
   </g>
   <g id="line2d_9">
    <path d="M 199.520625 295.714967 
L 98.443272 162.205033 
" clip-path="url(#p6a7ca7830f)" style="fill: none; stroke: #000000; stroke-width: 2; stroke-linecap: square"/>
   </g>
   <g id="line2d_10">
    <path d="M 199.520625 295.714967 
L 251.123095 162.205033 
" clip-path="url(#p6a7ca7830f)" style="fill: none; stroke: #000000; stroke-width: 2; stroke-linecap: square"/>
   </g>
   <g id="line2d_11">
    <path d="M 199.520625 295.714967 
L 334.116282 162.205033 
" clip-path="url(#p6a7ca7830f)" style="fill: none; stroke: #000000; stroke-width: 2; stroke-linecap: square"/>
   </g>
   <g id="patch_8">
    <path d="M 32.120625 302.390464 
L 32.120625 155.529536 
" style="fill: none; stroke: #000000; stroke-width: 0.8; stroke-linejoin: miter; stroke-linecap: square"/>
   </g>
   <g id="patch_9">
    <path d="M 366.920625 302.390464 
L 366.920625 155.529536 
" style="fill: none; stroke: #000000; stroke-width: 0.8; stroke-linejoin: miter; stroke-linecap: square"/>
   </g>
   <g id="patch_10">
    <path d="M 32.120625 302.390464 
L 366.920625 302.390464 
" style="fill: none; stroke: #000000; stroke-width: 0.8; stroke-linejoin: miter; stroke-linecap: square"/>
   </g>
   <g id="patch_11">
    <path d="M 32.120625 155.529536 
L 366.920625 155.529536 
" style="fill: none; stroke: #000000; stroke-width: 0.8; stroke-linejoin: miter; stroke-linecap: square"/>
   </g>
   <g id="text_6">
    <!-- $\mathcal{W}_{L}$ -->
    <g transform="translate(126.283125 255.661987) scale(0.18 -0.18)">
     <defs>
      <path id="STIXNonUnicode-Italic-e243" d="M 4634 736 
L 4672 717 
Q 4742 794 4931 1008 
Q 5120 1222 5248 1369 
Q 5376 1517 5545 1757 
Q 5715 1997 5837 2234 
Q 6131 2803 6131 3245 
Q 6131 3936 5741 3936 
Q 5696 3936 5661 3885 
Q 5626 3834 5606 3776 
Q 5587 3718 5529 3667 
Q 5472 3616 5382 3616 
Q 5229 3616 5145 3715 
Q 5062 3814 5062 3962 
Q 5062 4173 5209 4278 
Q 5357 4384 5594 4384 
Q 5965 4384 6176 4073 
Q 6387 3763 6387 3290 
Q 6387 2906 6236 2506 
Q 6086 2106 5814 1718 
Q 5542 1331 5289 1027 
Q 5037 723 4697 352 
Q 4358 -19 4211 -205 
L 4045 -205 
L 4045 230 
Q 4045 1306 3936 2099 
Q 3827 2893 3475 3373 
L 3430 3373 
L 1363 -205 
L 1171 -205 
Q 1459 1581 1459 2624 
Q 1459 4006 602 4006 
Q 448 4006 307 3891 
L 211 4013 
Q 486 4237 915 4237 
Q 1184 4237 1389 4157 
Q 1594 4077 1722 3923 
Q 1850 3770 1933 3590 
Q 2016 3411 2054 3155 
Q 2093 2899 2105 2684 
Q 2118 2470 2118 2182 
Q 2118 1920 2099 1658 
L 2138 1658 
L 3398 3846 
L 3686 4160 
Q 4077 3738 4365 2950 
Q 4653 2163 4653 1395 
Q 4653 966 4634 736 
z
" transform="scale(0.015625)"/>
     </defs>
     <use xlink:href="#STIXNonUnicode-Italic-e243" transform="translate(0 0.5)"/>
     <use xlink:href="#DejaVuSans-Oblique-4c" transform="translate(96.557022 -15.90625) scale(0.7)"/>
    </g>
   </g>
   <g id="text_7">
    <!-- $\mathcal{W}_0$ -->
    <g transform="translate(209.983125 188.90702) scale(0.18 -0.18)">
     <defs>
      <path id="DejaVuSans-30" d="M 2034 4250 
Q 1547 4250 1301 3770 
Q 1056 3291 1056 2328 
Q 1056 1369 1301 889 
Q 1547 409 2034 409 
Q 2525 409 2770 889 
Q 3016 1369 3016 2328 
Q 3016 3291 2770 3770 
Q 2525 4250 2034 4250 
z
M 2034 4750 
Q 2819 4750 3233 4129 
Q 3647 3509 3647 2328 
Q 3647 1150 3233 529 
Q 2819 -91 2034 -91 
Q 1250 -91 836 529 
Q 422 1150 422 2328 
Q 422 3509 836 4129 
Q 1250 4750 2034 4750 
z
" transform="scale(0.015625)"/>
     </defs>
     <use xlink:href="#STIXNonUnicode-Italic-e243" transform="translate(0 0.5)"/>
     <use xlink:href="#DejaVuSans-30" transform="translate(96.557022 -15.90625) scale(0.7)"/>
    </g>
   </g>
   <g id="text_8">
    <!-- $\mathcal{W}_{R}$ -->
    <g transform="translate(262.295625 255.661987) scale(0.18 -0.18)">
     <use xlink:href="#STIXNonUnicode-Italic-e243" transform="translate(0 0.5)"/>
     <use xlink:href="#DejaVuSans-Oblique-52" transform="translate(96.557022 -15.90625) scale(0.7)"/>
    </g>
   </g>
  </g>
  <g id="axes_3">
   <g id="patch_12">
    <path d="M 32.120625 450.72 
L 366.920625 450.72 
L 366.920625 303.859073 
L 32.120625 303.859073 
z
" style="fill: #ffffff"/>
   </g>
   <g id="matplotlib.axis_5"/>
   <g id="matplotlib.axis_6">
    <g id="text_9">
     <!-- HLLE -->
     <g transform="translate(20.877188 399.774068) rotate(-90) scale(0.18 -0.18)">
      <defs>
       <path id="DejaVuSans-48" d="M 628 4666 
L 1259 4666 
L 1259 2753 
L 3553 2753 
L 3553 4666 
L 4184 4666 
L 4184 0 
L 3553 0 
L 3553 2222 
L 1259 2222 
L 1259 0 
L 628 0 
L 628 4666 
z
" transform="scale(0.015625)"/>
       <path id="DejaVuSans-4c" d="M 628 4666 
L 1259 4666 
L 1259 531 
L 3531 531 
L 3531 0 
L 628 0 
L 628 4666 
z
" transform="scale(0.015625)"/>
      </defs>
      <use xlink:href="#DejaVuSans-48"/>
      <use xlink:href="#DejaVuSans-4c" x="75.195312"/>
      <use xlink:href="#DejaVuSans-4c" x="130.908203"/>
      <use xlink:href="#DejaVuSans-45" x="186.621094"/>
     </g>
    </g>
   </g>
   <g id="line2d_12">
    <path d="M 199.520625 444.044503 
L 78.227802 310.53457 
" clip-path="url(#p0b352f64b9)" style="fill: none; stroke: #000000; stroke-width: 2; stroke-linecap: square"/>
   </g>
   <g id="line2d_13">
    <path d="M 199.520625 444.044503 
L 361.035414 310.53457 
" clip-path="url(#p0b352f64b9)" style="fill: none; stroke: #000000; stroke-width: 2; stroke-linecap: square"/>
   </g>
   <g id="patch_13">
    <path d="M 32.120625 450.72 
L 32.120625 303.859073 
" style="fill: none; stroke: #000000; stroke-width: 0.8; stroke-linejoin: miter; stroke-linecap: square"/>
   </g>
   <g id="patch_14">
    <path d="M 366.920625 450.72 
L 366.920625 303.859073 
" style="fill: none; stroke: #000000; stroke-width: 0.8; stroke-linejoin: miter; stroke-linecap: square"/>
   </g>
   <g id="patch_15">
    <path d="M 32.120625 450.72 
L 366.920625 450.72 
" style="fill: none; stroke: #000000; stroke-width: 0.8; stroke-linejoin: miter; stroke-linecap: square"/>
   </g>
   <g id="patch_16">
    <path d="M 32.120625 303.859073 
L 366.920625 303.859073 
" style="fill: none; stroke: #000000; stroke-width: 0.8; stroke-linejoin: miter; stroke-linecap: square"/>
   </g>
   <g id="text_10">
    <!-- $\mathcal{W}_{L}$ -->
    <g transform="translate(115.820625 403.991523) scale(0.18 -0.18)">
     <use xlink:href="#STIXNonUnicode-Italic-e243" transform="translate(0 0.5)"/>
     <use xlink:href="#DejaVuSans-Oblique-4c" transform="translate(96.557022 -15.90625) scale(0.7)"/>
    </g>
   </g>
   <g id="text_11">
    <!-- $\mathcal{W}_{R}$ -->
    <g transform="translate(283.220625 403.991523) scale(0.18 -0.18)">
     <use xlink:href="#STIXNonUnicode-Italic-e243" transform="translate(0 0.5)"/>
     <use xlink:href="#DejaVuSans-Oblique-52" transform="translate(96.557022 -15.90625) scale(0.7)"/>
    </g>
   </g>
  </g>
 </g>
 <defs>
  <clipPath id="p71254a506d">
   <rect x="32.120625" y="7.2" width="334.8" height="146.860927"/>
  </clipPath>
  <clipPath id="p6a7ca7830f">
   <rect x="32.120625" y="155.529536" width="334.8" height="146.860927"/>
  </clipPath>
  <clipPath id="p0b352f64b9">
   <rect x="32.120625" y="303.859073" width="334.8" height="146.860927"/>
  </clipPath>
 </defs>
</svg>
