<?xml version="1.0" encoding="utf-8" standalone="no"?>
<!DOCTYPE svg PUBLIC "-//W3C//DTD SVG 1.1//EN"
  "http://www.w3.org/Graphics/SVG/1.1/DTD/svg11.dtd">
<svg xmlns:xlink="http://www.w3.org/1999/xlink" width="349.2pt" height="231.84pt" viewBox="0 0 349.2 231.84" xmlns="http://www.w3.org/2000/svg" version="1.1">
 <metadata>
  <rdf:RDF xmlns:dc="http://purl.org/dc/elements/1.1/" xmlns:cc="http://creativecommons.org/ns#" xmlns:rdf="http://www.w3.org/1999/02/22-rdf-syntax-ns#">
   <cc:Work>
    <dc:type rdf:resource="http://purl.org/dc/dcmitype/StillImage"/>
    <dc:date>2022-01-26T16:38:29.708538</dc:date>
    <dc:format>image/svg+xml</dc:format>
    <dc:creator>
     <cc:Agent>
      <dc:title>Matplotlib v3.5.1, https://matplotlib.org/</dc:title>
     </cc:Agent>
    </dc:creator>
   </cc:Work>
  </rdf:RDF>
 </metadata>
 <defs>
  <style type="text/css">*{stroke-linejoin: round; stroke-linecap: butt}</style>
 </defs>
 <g id="figure_1">
  <g id="patch_1">
   <path d="M 0 231.84 
L 349.2 231.84 
L 349.2 0 
L 0 0 
L 0 231.84 
z
" style="fill: none"/>
  </g>
  <g id="axes_1">
   <g id="patch_2">
    <path d="M 43.071429 20.79 
L 47.854286 18.072 
L 47.854286 20.76282 
L 66.985714 20.76282 
L 66.985714 20.81718 
L 47.854286 20.81718 
L 47.854286 23.508 
z
" clip-path="url(#pe55366cb1f)" style="fill: #1f77b4; stroke: #000000; stroke-linejoin: miter"/>
   </g>
   <g id="patch_3">
    <path d="M 319.673863 178.13665 
L 317.020812 183.413513 
L 315.707551 181.174615 
L 294.184694 197.482615 
L 294.158163 197.437385 
L 315.68102 181.129385 
L 314.36776 178.890487 
z
" clip-path="url(#pe55366cb1f)" style="fill: #1f77b4; stroke: #000000; stroke-linejoin: miter"/>
   </g>
   <g id="patch_4">
    <path d="M 224.558377 63.365025 
L 225.22164 57.334325 
L 227.191531 58.826923 
L 246.322959 26.210923 
L 246.362755 26.241077 
L 227.231326 58.857077 
L 229.201217 60.349675 
z
" clip-path="url(#pe55366cb1f)" style="fill: #1f77b4; stroke: #000000; stroke-linejoin: miter"/>
   </g>
   <g id="patch_5">
    <path d="M 126.771429 137.664 
L 129.162857 143.1 
L 126.795343 143.1 
L 126.795343 197.46 
L 126.747514 197.46 
L 126.747514 143.1 
L 124.38 143.1 
z
" clip-path="url(#pe55366cb1f)" style="fill: #1f77b4; stroke: #000000; stroke-linejoin: miter"/>
   </g>
   <g id="line2d_1">
    <path d="M -1 105.961677 
L 0.634354 95.939237 
L 2.551331 85.183067 
L 4.468308 75.424609 
L 6.385285 66.617119 
L 8.302262 58.715047 
L 10.219238 51.674031 
L 12.136215 45.450875 
L 14.053192 40.003545 
L 15.970169 35.291147 
L 17.887146 31.273919 
L 19.804123 27.913215 
L 21.721099 25.171491 
L 23.638076 23.012296 
L 25.555053 21.400251 
L 27.47203 20.301042 
L 29.389007 19.681404 
L 31.305983 19.509107 
L 33.22296 19.752945 
L 35.139937 20.382717 
L 37.056914 21.369221 
L 38.973891 22.684234 
L 40.890867 24.300504 
L 42.807844 26.19173 
L 44.724821 28.332555 
L 47.600286 31.958599 
L 50.475752 36.012879 
L 53.351217 40.42131 
L 57.18517 46.730345 
L 61.977612 55.096413 
L 80.188892 87.537277 
L 84.981334 95.322748 
L 88.815288 101.119368 
L 92.649241 106.469739 
L 95.524707 110.160816 
L 98.400172 113.557484 
L 101.275637 116.646002 
L 104.151102 119.415345 
L 107.026567 121.8571 
L 109.902033 123.965368 
L 112.777498 125.736654 
L 115.652963 127.16977 
L 118.528428 128.265733 
L 121.403894 129.027657 
L 124.279359 129.460657 
L 127.154824 129.571743 
L 130.030289 129.369717 
L 132.905754 128.865074 
L 135.78122 128.069896 
L 138.656685 126.997749 
L 141.53215 125.663586 
L 144.407615 124.083638 
L 147.28308 122.275317 
L 151.117034 119.541066 
L 154.950988 116.480258 
L 158.784941 113.142002 
L 163.577383 108.657381 
L 169.328314 102.956331 
L 186.581105 85.56597 
L 191.373547 81.140511 
L 195.207501 77.863478 
L 199.041454 74.875697 
L 202.875408 72.225656 
L 205.750873 70.487395 
L 208.626338 68.983044 
L 211.501804 67.729631 
L 214.377269 66.742972 
L 217.252734 66.03757 
L 220.128199 65.626508 
L 223.003664 65.52135 
L 225.87913 65.732038 
L 228.754595 66.266788 
L 231.63006 67.131989 
L 234.505525 68.332101 
L 237.380991 69.869551 
L 240.256456 71.744632 
L 243.131921 73.955398 
L 246.007386 76.497565 
L 248.882851 79.364406 
L 251.758317 82.546649 
L 254.633782 86.032377 
L 257.509247 89.80692 
L 261.343201 95.258207 
L 265.177154 101.14171 
L 269.011108 107.39791 
L 273.80355 115.635051 
L 280.512969 127.651922 
L 290.097853 144.803698 
L 294.890295 152.84583 
L 298.724248 158.768006 
L 301.599714 162.805126 
L 304.475179 166.413618 
L 306.392156 168.542523 
L 308.309133 170.421655 
L 310.226109 172.025655 
L 312.143086 173.328225 
L 314.060063 174.30211 
L 315.97704 174.919089 
L 317.894017 175.149959 
L 319.810993 174.96452 
L 320.769482 174.705972 
L 321.72797 174.331565 
L 323.644947 173.218865 
L 325.561924 171.593153 
L 327.478901 169.420117 
L 329.395877 166.664378 
L 331.312854 163.289483 
L 333.229831 159.25789 
L 335.146808 154.530952 
L 337.063785 149.068908 
L 338.980762 142.830864 
L 340.897738 135.774783 
L 342.814715 127.857473 
L 344.731692 119.03457 
L 346.648669 109.260525 
L 348.565646 98.488593 
L 350.2 88.452572 
L 350.2 88.452572 
" clip-path="url(#pe55366cb1f)" style="fill: none; stroke: #1f77b4; stroke-width: 1.5; stroke-linecap: square"/>
   </g>
   <g id="text_1">
    <!-- Global max -->
    <g transform="translate(66.985714 25.205)scale(0.16 -0.16)">
     <defs>
      <path id="DejaVuSans-47" d="M 3809 666 
L 3809 1919 
L 2778 1919 
L 2778 2438 
L 4434 2438 
L 4434 434 
Q 4069 175 3628 42 
Q 3188 -91 2688 -91 
Q 1594 -91 976 548 
Q 359 1188 359 2328 
Q 359 3472 976 4111 
Q 1594 4750 2688 4750 
Q 3144 4750 3555 4637 
Q 3966 4525 4313 4306 
L 4313 3634 
Q 3963 3931 3569 4081 
Q 3175 4231 2741 4231 
Q 1884 4231 1454 3753 
Q 1025 3275 1025 2328 
Q 1025 1384 1454 906 
Q 1884 428 2741 428 
Q 3075 428 3337 486 
Q 3600 544 3809 666 
z
" transform="scale(0.015625)"/>
      <path id="DejaVuSans-6c" d="M 603 4863 
L 1178 4863 
L 1178 0 
L 603 0 
L 603 4863 
z
" transform="scale(0.015625)"/>
      <path id="DejaVuSans-6f" d="M 1959 3097 
Q 1497 3097 1228 2736 
Q 959 2375 959 1747 
Q 959 1119 1226 758 
Q 1494 397 1959 397 
Q 2419 397 2687 759 
Q 2956 1122 2956 1747 
Q 2956 2369 2687 2733 
Q 2419 3097 1959 3097 
z
M 1959 3584 
Q 2709 3584 3137 3096 
Q 3566 2609 3566 1747 
Q 3566 888 3137 398 
Q 2709 -91 1959 -91 
Q 1206 -91 779 398 
Q 353 888 353 1747 
Q 353 2609 779 3096 
Q 1206 3584 1959 3584 
z
" transform="scale(0.015625)"/>
      <path id="DejaVuSans-62" d="M 3116 1747 
Q 3116 2381 2855 2742 
Q 2594 3103 2138 3103 
Q 1681 3103 1420 2742 
Q 1159 2381 1159 1747 
Q 1159 1113 1420 752 
Q 1681 391 2138 391 
Q 2594 391 2855 752 
Q 3116 1113 3116 1747 
z
M 1159 2969 
Q 1341 3281 1617 3432 
Q 1894 3584 2278 3584 
Q 2916 3584 3314 3078 
Q 3713 2572 3713 1747 
Q 3713 922 3314 415 
Q 2916 -91 2278 -91 
Q 1894 -91 1617 61 
Q 1341 213 1159 525 
L 1159 0 
L 581 0 
L 581 4863 
L 1159 4863 
L 1159 2969 
z
" transform="scale(0.015625)"/>
      <path id="DejaVuSans-61" d="M 2194 1759 
Q 1497 1759 1228 1600 
Q 959 1441 959 1056 
Q 959 750 1161 570 
Q 1363 391 1709 391 
Q 2188 391 2477 730 
Q 2766 1069 2766 1631 
L 2766 1759 
L 2194 1759 
z
M 3341 1997 
L 3341 0 
L 2766 0 
L 2766 531 
Q 2569 213 2275 61 
Q 1981 -91 1556 -91 
Q 1019 -91 701 211 
Q 384 513 384 1019 
Q 384 1609 779 1909 
Q 1175 2209 1959 2209 
L 2766 2209 
L 2766 2266 
Q 2766 2663 2505 2880 
Q 2244 3097 1772 3097 
Q 1472 3097 1187 3025 
Q 903 2953 641 2809 
L 641 3341 
Q 956 3463 1253 3523 
Q 1550 3584 1831 3584 
Q 2591 3584 2966 3190 
Q 3341 2797 3341 1997 
z
" transform="scale(0.015625)"/>
      <path id="DejaVuSans-20" transform="scale(0.015625)"/>
      <path id="DejaVuSans-6d" d="M 3328 2828 
Q 3544 3216 3844 3400 
Q 4144 3584 4550 3584 
Q 5097 3584 5394 3201 
Q 5691 2819 5691 2113 
L 5691 0 
L 5113 0 
L 5113 2094 
Q 5113 2597 4934 2840 
Q 4756 3084 4391 3084 
Q 3944 3084 3684 2787 
Q 3425 2491 3425 1978 
L 3425 0 
L 2847 0 
L 2847 2094 
Q 2847 2600 2669 2842 
Q 2491 3084 2119 3084 
Q 1678 3084 1418 2786 
Q 1159 2488 1159 1978 
L 1159 0 
L 581 0 
L 581 3500 
L 1159 3500 
L 1159 2956 
Q 1356 3278 1631 3431 
Q 1906 3584 2284 3584 
Q 2666 3584 2933 3390 
Q 3200 3197 3328 2828 
z
" transform="scale(0.015625)"/>
      <path id="DejaVuSans-78" d="M 3513 3500 
L 2247 1797 
L 3578 0 
L 2900 0 
L 1881 1375 
L 863 0 
L 184 0 
L 1544 1831 
L 300 3500 
L 978 3500 
L 1906 2253 
L 2834 3500 
L 3513 3500 
z
" transform="scale(0.015625)"/>
     </defs>
     <use xlink:href="#DejaVuSans-47"/>
     <use xlink:href="#DejaVuSans-6c" x="77.490234"/>
     <use xlink:href="#DejaVuSans-6f" x="105.273438"/>
     <use xlink:href="#DejaVuSans-62" x="166.455078"/>
     <use xlink:href="#DejaVuSans-61" x="229.931641"/>
     <use xlink:href="#DejaVuSans-6c" x="291.210938"/>
     <use xlink:href="#DejaVuSans-20" x="318.994141"/>
     <use xlink:href="#DejaVuSans-6d" x="350.78125"/>
     <use xlink:href="#DejaVuSans-61" x="448.193359"/>
     <use xlink:href="#DejaVuSans-78" x="509.472656"/>
    </g>
   </g>
   <g id="text_2">
    <!-- Global min -->
    <g transform="translate(251.023929 209.6175)scale(0.16 -0.16)">
     <defs>
      <path id="DejaVuSans-69" d="M 603 3500 
L 1178 3500 
L 1178 0 
L 603 0 
L 603 3500 
z
M 603 4863 
L 1178 4863 
L 1178 4134 
L 603 4134 
L 603 4863 
z
" transform="scale(0.015625)"/>
      <path id="DejaVuSans-6e" d="M 3513 2113 
L 3513 0 
L 2938 0 
L 2938 2094 
Q 2938 2591 2744 2837 
Q 2550 3084 2163 3084 
Q 1697 3084 1428 2787 
Q 1159 2491 1159 1978 
L 1159 0 
L 581 0 
L 581 3500 
L 1159 3500 
L 1159 2956 
Q 1366 3272 1645 3428 
Q 1925 3584 2291 3584 
Q 2894 3584 3203 3211 
Q 3513 2838 3513 2113 
z
" transform="scale(0.015625)"/>
     </defs>
     <use xlink:href="#DejaVuSans-47"/>
     <use xlink:href="#DejaVuSans-6c" x="77.490234"/>
     <use xlink:href="#DejaVuSans-6f" x="105.273438"/>
     <use xlink:href="#DejaVuSans-62" x="166.455078"/>
     <use xlink:href="#DejaVuSans-61" x="229.931641"/>
     <use xlink:href="#DejaVuSans-6c" x="291.210938"/>
     <use xlink:href="#DejaVuSans-20" x="318.994141"/>
     <use xlink:href="#DejaVuSans-6d" x="350.78125"/>
     <use xlink:href="#DejaVuSans-69" x="448.193359"/>
     <use xlink:href="#DejaVuSans-6e" x="475.976562"/>
    </g>
   </g>
   <g id="text_3">
    <!-- Local max -->
    <g transform="translate(205.634107 22.8985)scale(0.16 -0.16)">
     <defs>
      <path id="DejaVuSans-4c" d="M 628 4666 
L 1259 4666 
L 1259 531 
L 3531 531 
L 3531 0 
L 628 0 
L 628 4666 
z
" transform="scale(0.015625)"/>
      <path id="DejaVuSans-63" d="M 3122 3366 
L 3122 2828 
Q 2878 2963 2633 3030 
Q 2388 3097 2138 3097 
Q 1578 3097 1268 2742 
Q 959 2388 959 1747 
Q 959 1106 1268 751 
Q 1578 397 2138 397 
Q 2388 397 2633 464 
Q 2878 531 3122 666 
L 3122 134 
Q 2881 22 2623 -34 
Q 2366 -91 2075 -91 
Q 1284 -91 818 406 
Q 353 903 353 1747 
Q 353 2603 823 3093 
Q 1294 3584 2113 3584 
Q 2378 3584 2631 3529 
Q 2884 3475 3122 3366 
z
" transform="scale(0.015625)"/>
     </defs>
     <use xlink:href="#DejaVuSans-4c"/>
     <use xlink:href="#DejaVuSans-6f" x="53.962891"/>
     <use xlink:href="#DejaVuSans-63" x="115.144531"/>
     <use xlink:href="#DejaVuSans-61" x="170.125"/>
     <use xlink:href="#DejaVuSans-6c" x="231.404297"/>
     <use xlink:href="#DejaVuSans-20" x="259.1875"/>
     <use xlink:href="#DejaVuSans-6d" x="290.974609"/>
     <use xlink:href="#DejaVuSans-61" x="388.386719"/>
     <use xlink:href="#DejaVuSans-78" x="449.666016"/>
    </g>
   </g>
   <g id="text_4">
    <!-- Local min -->
    <g transform="translate(88.407679 212.3355)scale(0.16 -0.16)">
     <use xlink:href="#DejaVuSans-4c"/>
     <use xlink:href="#DejaVuSans-6f" x="53.962891"/>
     <use xlink:href="#DejaVuSans-63" x="115.144531"/>
     <use xlink:href="#DejaVuSans-61" x="170.125"/>
     <use xlink:href="#DejaVuSans-6c" x="231.404297"/>
     <use xlink:href="#DejaVuSans-20" x="259.1875"/>
     <use xlink:href="#DejaVuSans-6d" x="290.974609"/>
     <use xlink:href="#DejaVuSans-69" x="388.386719"/>
     <use xlink:href="#DejaVuSans-6e" x="416.169922"/>
    </g>
   </g>
  </g>
 </g>
 <defs>
  <clipPath id="pe55366cb1f">
   <rect x="7.2" y="7.2" width="334.8" height="217.44"/>
  </clipPath>
 </defs>
</svg>
