<?xml version="1.0" encoding="utf-8" standalone="no"?>
<!DOCTYPE svg PUBLIC "-//W3C//DTD SVG 1.1//EN"
  "http://www.w3.org/Graphics/SVG/1.1/DTD/svg11.dtd">
<svg xmlns:xlink="http://www.w3.org/1999/xlink" width="684pt" height="457.92pt" viewBox="0 0 684 457.92" xmlns="http://www.w3.org/2000/svg" version="1.1">
 <metadata>
  <rdf:RDF xmlns:dc="http://purl.org/dc/elements/1.1/" xmlns:cc="http://creativecommons.org/ns#" xmlns:rdf="http://www.w3.org/1999/02/22-rdf-syntax-ns#">
   <cc:Work>
    <dc:type rdf:resource="http://purl.org/dc/dcmitype/StillImage"/>
    <dc:date>2023-11-27T16:33:24.111564</dc:date>
    <dc:format>image/svg+xml</dc:format>
    <dc:creator>
     <cc:Agent>
      <dc:title>Matplotlib v3.7.2, https://matplotlib.org/</dc:title>
     </cc:Agent>
    </dc:creator>
   </cc:Work>
  </rdf:RDF>
 </metadata>
 <defs>
  <style type="text/css">*{stroke-linejoin: round; stroke-linecap: butt}</style>
 </defs>
 <g id="figure_1">
  <g id="patch_1">
   <path d="M 0 457.92 
L 684 457.92 
L 684 0 
L 0 0 
z
" style="fill: #ffffff"/>
  </g>
  <g id="axes_1">
   <g id="patch_2">
    <path d="M 65.305785 389.871754 
Q 65.305785 351.142741 65.305785 313.531761 
" clip-path="url(#pfe4c00d600)" style="fill: none; stroke: #000000; stroke-linecap: round"/>
    <path d="M 63.305785 317.531761 
L 65.305785 313.531761 
L 67.305785 317.531761 
z
" clip-path="url(#pfe4c00d600)" style="stroke: #000000; stroke-linecap: round"/>
   </g>
   <g id="patch_3">
    <path d="M 85.555914 402.748796 
Q 195.747507 351.141741 304.926608 300.008877 
" clip-path="url(#pfe4c00d600)" style="fill: none; stroke: #000000; stroke-linecap: round"/>
    <path d="M 300.455943 299.894189 
L 304.926608 300.008877 
L 302.152458 303.516597 
z
" clip-path="url(#pfe4c00d600)" style="stroke: #000000; stroke-linecap: round"/>
   </g>
   <g id="patch_4">
    <path d="M 163.758616 412.232727 
Q 179.442142 412.232727 194.007633 412.232727 
" clip-path="url(#pfe4c00d600)" style="fill: none; stroke: #000000; stroke-linecap: round"/>
    <path d="M 190.007633 410.232727 
L 194.007633 412.232727 
L 190.007633 414.232727 
z
" clip-path="url(#pfe4c00d600)" style="stroke: #000000; stroke-linecap: round"/>
   </g>
   <g id="patch_5">
    <path d="M 163.755133 412.232727 
Q 255.531461 412.232727 346.189754 412.232727 
" clip-path="url(#pfe4c00d600)" style="fill: none; stroke: #000000; stroke-linecap: round"/>
    <path d="M 342.189754 410.232727 
L 346.189754 412.232727 
L 342.189754 414.232727 
z
" clip-path="url(#pfe4c00d600)" style="stroke: #000000; stroke-linecap: round"/>
   </g>
   <g id="patch_6">
    <path d="M 163.758616 412.232727 
Q 293.578116 412.232727 422.279581 412.232727 
" clip-path="url(#pfe4c00d600)" style="fill: none; stroke: #000000; stroke-linecap: round"/>
    <path d="M 418.279581 410.232727 
L 422.279581 412.232727 
L 418.279581 414.232727 
z
" clip-path="url(#pfe4c00d600)" style="stroke: #000000; stroke-linecap: round"/>
   </g>
   <g id="patch_7">
    <path d="M 163.755133 412.232727 
Q 369.667013 412.232727 574.46086 412.232727 
" clip-path="url(#pfe4c00d600)" style="fill: none; stroke: #000000; stroke-linecap: round"/>
    <path d="M 570.46086 410.232727 
L 574.46086 412.232727 
L 570.46086 414.232727 
z
" clip-path="url(#pfe4c00d600)" style="stroke: #000000; stroke-linecap: round"/>
   </g>
   <g id="patch_8">
    <path d="M 162.565632 405.022367 
Q 320.755248 351.141338 477.886536 297.620786 
" clip-path="url(#pfe4c00d600)" style="fill: none; stroke: #000000; stroke-linecap: round"/>
    <path d="M 473.455309 297.017275 
L 477.886536 297.620786 
L 474.744992 300.803661 
z
" clip-path="url(#pfe4c00d600)" style="stroke: #000000; stroke-linecap: round"/>
   </g>
   <g id="patch_9">
    <path d="M 160.747842 401.02614 
Q 352.37744 290.050094 543.039533 179.634348 
" clip-path="url(#pfe4c00d600)" style="fill: none; stroke: #000000; stroke-linecap: round"/>
    <path d="M 538.57579 179.908209 
L 543.039533 179.634348 
L 540.580376 183.369659 
z
" clip-path="url(#pfe4c00d600)" style="stroke: #000000; stroke-linecap: round"/>
   </g>
   <g id="patch_10">
    <path d="M 149.634539 391.446195 
Q 214.02833 228.961502 278.010206 67.516196 
" clip-path="url(#pfe4c00d600)" style="fill: none; stroke: #000000; stroke-linecap: round"/>
    <path d="M 274.677178 70.497961 
L 278.010206 67.516196 
L 278.395802 71.971677 
z
" clip-path="url(#pfe4c00d600)" style="stroke: #000000; stroke-linecap: round"/>
   </g>
   <g id="patch_11">
    <path d="M 235.750473 399.329585 
Q 390.421266 290.051066 544.178937 181.417689 
" clip-path="url(#pfe4c00d600)" style="fill: none; stroke: #000000; stroke-linecap: round"/>
    <path d="M 539.757987 182.092377 
L 544.178937 181.417689 
L 542.066117 185.359262 
z
" clip-path="url(#pfe4c00d600)" style="stroke: #000000; stroke-linecap: round"/>
   </g>
   <g id="patch_12">
    <path d="M 221.634153 390.260471 
Q 252.074136 228.961296 282.306785 68.760763 
" clip-path="url(#pfe4c00d600)" style="fill: none; stroke: #000000; stroke-linecap: round"/>
    <path d="M 279.599699 72.320494 
L 282.306785 68.760763 
L 283.530318 73.06227 
z
" clip-path="url(#pfe4c00d600)" style="stroke: #000000; stroke-linecap: round"/>
   </g>
   <g id="patch_13">
    <path d="M 314.219253 403.639954 
Q 440.322479 351.142978 565.393539 299.075695 
" clip-path="url(#pfe4c00d600)" style="fill: none; stroke: #000000; stroke-linecap: round"/>
    <path d="M 560.932097 298.766615 
L 565.393539 299.075695 
L 562.46941 302.459401 
z
" clip-path="url(#pfe4c00d600)" style="stroke: #000000; stroke-linecap: round"/>
   </g>
   <g id="patch_14">
    <path d="M 372.185322 390.013445 
Q 383.504138 290.050858 394.697162 191.199207 
" clip-path="url(#pfe4c00d600)" style="fill: none; stroke: #000000; stroke-linecap: round"/>
    <path d="M 392.259815 194.948785 
L 394.697162 191.199207 
L 396.234416 195.398832 
z
" clip-path="url(#pfe4c00d600)" style="stroke: #000000; stroke-linecap: round"/>
   </g>
   <g id="patch_15">
    <path d="M 499.489318 412.232727 
Q 369.669818 412.232727 240.968353 412.232727 
" clip-path="url(#pfe4c00d600)" style="fill: none; stroke: #000000; stroke-linecap: round"/>
    <path d="M 244.968353 414.232727 
L 240.968353 412.232727 
L 244.968353 410.232727 
z
" clip-path="url(#pfe4c00d600)" style="stroke: #000000; stroke-linecap: round"/>
   </g>
   <g id="patch_16">
    <path d="M 499.489318 412.232727 
Q 445.761519 412.232727 393.151753 412.232727 
" clip-path="url(#pfe4c00d600)" style="fill: none; stroke: #000000; stroke-linecap: round"/>
    <path d="M 397.151753 414.232727 
L 393.151753 412.232727 
L 397.151753 410.232727 
z
" clip-path="url(#pfe4c00d600)" style="stroke: #000000; stroke-linecap: round"/>
   </g>
   <g id="patch_17">
    <path d="M 499.489318 412.232727 
Q 483.805792 412.232727 469.240301 412.232727 
" clip-path="url(#pfe4c00d600)" style="fill: none; stroke: #000000; stroke-linecap: round"/>
    <path d="M 473.240301 414.232727 
L 469.240301 412.232727 
L 473.240301 410.232727 
z
" clip-path="url(#pfe4c00d600)" style="stroke: #000000; stroke-linecap: round"/>
   </g>
   <g id="patch_18">
    <path d="M 544.213162 412.232727 
Q 559.896687 412.232727 574.462178 412.232727 
" clip-path="url(#pfe4c00d600)" style="fill: none; stroke: #000000; stroke-linecap: round"/>
    <path d="M 570.462178 410.232727 
L 574.462178 412.232727 
L 570.462178 414.232727 
z
" clip-path="url(#pfe4c00d600)" style="stroke: #000000; stroke-linecap: round"/>
   </g>
   <g id="patch_19">
    <path d="M 500.252131 406.452321 
Q 293.578617 351.141846 87.985129 296.120411 
" clip-path="url(#pfe4c00d600)" style="fill: none; stroke: #000000; stroke-linecap: round"/>
    <path d="M 91.332099 299.086518 
L 87.985129 296.120411 
L 92.366197 295.2225 
z
" clip-path="url(#pfe4c00d600)" style="stroke: #000000; stroke-linecap: round"/>
   </g>
   <g id="patch_20">
    <path d="M 500.621678 405.214395 
Q 337.06058 351.14233 174.561012 297.421199 
" clip-path="url(#pfe4c00d600)" style="fill: none; stroke: #000000; stroke-linecap: round"/>
    <path d="M 177.731087 300.57566 
L 174.561012 297.421199 
L 178.986626 296.777816 
z
" clip-path="url(#pfe4c00d600)" style="stroke: #000000; stroke-linecap: round"/>
   </g>
   <g id="patch_21">
    <path d="M 501.328097 403.360302 
Q 380.542266 351.142992 260.782675 299.369339 
" clip-path="url(#pfe4c00d600)" style="fill: none; stroke: #000000; stroke-linecap: round"/>
    <path d="M 263.660625 302.792409 
L 260.782675 299.369339 
L 265.247901 299.120821 
z
" clip-path="url(#pfe4c00d600)" style="stroke: #000000; stroke-linecap: round"/>
   </g>
   <g id="patch_22">
    <path d="M 502.883911 400.388533 
Q 424.020121 351.141849 346.104655 302.487349 
" clip-path="url(#pfe4c00d600)" style="fill: none; stroke: #000000; stroke-linecap: round"/>
    <path d="M 348.438153 306.302422 
L 346.104655 302.487349 
L 350.556812 302.909594 
z
" clip-path="url(#pfe4c00d600)" style="stroke: #000000; stroke-linecap: round"/>
   </g>
   <g id="patch_23">
    <path d="M 517.933508 390.214794 
Q 510.981101 351.14177 504.224554 313.16949 
" clip-path="url(#pfe4c00d600)" style="fill: none; stroke: #000000; stroke-linecap: round"/>
    <path d="M 502.95621 317.457999 
L 504.224554 313.16949 
L 506.894355 316.75727 
z
" clip-path="url(#pfe4c00d600)" style="stroke: #000000; stroke-linecap: round"/>
   </g>
   <g id="patch_24">
    <path d="M 525.595959 390.184964 
Q 542.603424 290.050212 559.423677 191.017709 
" clip-path="url(#pfe4c00d600)" style="fill: none; stroke: #000000; stroke-linecap: round"/>
    <path d="M 556.782124 194.626337 
L 559.423677 191.017709 
L 560.725648 195.296128 
z
" clip-path="url(#pfe4c00d600)" style="stroke: #000000; stroke-linecap: round"/>
   </g>
   <g id="patch_25">
    <path d="M 509.777005 393.414945 
Q 404.256071 228.959802 299.338912 65.445645 
" clip-path="url(#pfe4c00d600)" style="fill: none; stroke: #000000; stroke-linecap: round"/>
    <path d="M 299.815752 69.892287 
L 299.338912 65.445645 
L 303.182329 67.732158 
z
" clip-path="url(#pfe4c00d600)" style="stroke: #000000; stroke-linecap: round"/>
   </g>
   <g id="patch_26">
    <path d="M 576.148563 407.233482 
Q 331.626312 351.142356 88.193792 295.301205 
" clip-path="url(#pfe4c00d600)" style="fill: none; stroke: #000000; stroke-linecap: round"/>
    <path d="M 91.645364 298.144908 
L 88.193792 295.301205 
L 92.539698 294.246169 
z
" clip-path="url(#pfe4c00d600)" style="stroke: #000000; stroke-linecap: round"/>
   </g>
   <g id="patch_27">
    <path d="M 576.374472 406.319952 
Q 375.103567 351.141566 174.91091 296.258782 
" clip-path="url(#pfe4c00d600)" style="fill: none; stroke: #000000; stroke-linecap: round"/>
    <path d="M 178.239781 299.245188 
L 174.91091 296.258782 
L 179.297357 295.387529 
z
" clip-path="url(#pfe4c00d600)" style="stroke: #000000; stroke-linecap: round"/>
   </g>
   <g id="patch_28">
    <path d="M 576.773211 405.022367 
Q 418.583595 351.141338 261.452307 297.620786 
" clip-path="url(#pfe4c00d600)" style="fill: none; stroke: #000000; stroke-linecap: round"/>
    <path d="M 264.593851 300.803661 
L 261.452307 297.620786 
L 265.883534 297.017275 
z
" clip-path="url(#pfe4c00d600)" style="stroke: #000000; stroke-linecap: round"/>
   </g>
   <g id="patch_29">
    <path d="M 577.544898 403.062006 
Q 462.063279 351.140808 347.60137 299.678078 
" clip-path="url(#pfe4c00d600)" style="fill: none; stroke: #000000; stroke-linecap: round"/>
    <path d="M 350.429463 303.142452 
L 347.60137 299.678078 
L 352.069726 299.494228 
z
" clip-path="url(#pfe4c00d600)" style="stroke: #000000; stroke-linecap: round"/>
   </g>
   <g id="patch_30">
    <path d="M 583.966694 394.778714 
Q 549.026387 351.141596 514.784883 308.377217 
" clip-path="url(#pfe4c00d600)" style="fill: none; stroke: #000000; stroke-linecap: round"/>
    <path d="M 515.723795 312.749681 
L 514.784883 308.377217 
L 518.846202 310.249566 
z
" clip-path="url(#pfe4c00d600)" style="stroke: #000000; stroke-linecap: round"/>
   </g>
   <g id="patch_31">
    <path d="M 80.317595 273.478732 
Q 120.645982 228.958506 160.223772 185.266895 
" clip-path="url(#pfe4c00d600)" style="fill: none; stroke: #000000; stroke-linecap: round"/>
    <path d="M 156.056081 186.888733 
L 160.223772 185.266895 
L 159.020628 189.57415 
z
" clip-path="url(#pfe4c00d600)" style="stroke: #000000; stroke-linecap: round"/>
   </g>
   <g id="patch_32">
    <path d="M 84.879064 279.247021 
Q 175.980588 228.961592 266.103288 179.216445 
" clip-path="url(#pfe4c00d600)" style="fill: none; stroke: #000000; stroke-linecap: round"/>
    <path d="M 261.634857 179.398446 
L 266.103288 179.216445 
L 263.56783 182.90039 
z
" clip-path="url(#pfe4c00d600)" style="stroke: #000000; stroke-linecap: round"/>
   </g>
   <g id="patch_33">
    <path d="M 70.244703 268.241783 
Q 92.975657 167.867104 115.459672 68.582848 
" clip-path="url(#pfe4c00d600)" style="fill: none; stroke: #000000; stroke-linecap: round"/>
    <path d="M 112.625592 72.042326 
L 115.459672 68.582848 
L 116.526806 72.9258 
z
" clip-path="url(#pfe4c00d600)" style="stroke: #000000; stroke-linecap: round"/>
   </g>
   <g id="patch_34">
    <path d="M 139.302814 271.836243 
Q 108.786492 228.960263 78.918474 186.995163 
" clip-path="url(#pfe4c00d600)" style="fill: none; stroke: #000000; stroke-linecap: round"/>
    <path d="M 79.608488 191.413746 
L 78.918474 186.995163 
L 82.867349 189.094302 
z
" clip-path="url(#pfe4c00d600)" style="stroke: #000000; stroke-linecap: round"/>
   </g>
   <g id="patch_35">
    <path d="M 172.276901 280.07479 
Q 274.80241 228.960211 376.327341 178.344475 
" clip-path="url(#pfe4c00d600)" style="fill: none; stroke: #000000; stroke-linecap: round"/>
    <path d="M 371.855208 178.339301 
L 376.327341 178.344475 
L 373.639922 181.919077 
z
" clip-path="url(#pfe4c00d600)" style="stroke: #000000; stroke-linecap: round"/>
   </g>
   <g id="patch_36">
    <path d="M 172.981495 281.625927 
Q 302.473713 228.959407 430.930278 176.714104 
" clip-path="url(#pfe4c00d600)" style="fill: none; stroke: #000000; stroke-linecap: round"/>
    <path d="M 426.471519 176.368461 
L 430.930278 176.714104 
L 427.978508 180.073725 
z
" clip-path="url(#pfe4c00d600)" style="stroke: #000000; stroke-linecap: round"/>
   </g>
   <g id="patch_37">
    <path d="M 173.412805 282.788347 
Q 330.139594 228.960715 485.808976 175.496249 
" clip-path="url(#pfe4c00d600)" style="fill: none; stroke: #000000; stroke-linecap: round"/>
    <path d="M 481.376229 174.904001 
L 485.808976 175.496249 
L 482.675529 178.687097 
z
" clip-path="url(#pfe4c00d600)" style="stroke: #000000; stroke-linecap: round"/>
   </g>
   <g id="patch_38">
    <path d="M 169.614616 275.93967 
Q 302.472118 167.869202 434.462294 60.504245 
" clip-path="url(#pfe4c00d600)" style="fill: none; stroke: #000000; stroke-linecap: round"/>
    <path d="M 430.097198 61.476835 
L 434.462294 60.504245 
L 432.621309 64.579876 
z
" clip-path="url(#pfe4c00d600)" style="stroke: #000000; stroke-linecap: round"/>
   </g>
   <g id="patch_39">
    <path d="M 170.69865 277.390131 
Q 330.143061 167.86814 488.665906 58.97917 
" clip-path="url(#pfe4c00d600)" style="fill: none; stroke: #000000; stroke-linecap: round"/>
    <path d="M 484.236428 59.595389 
L 488.665906 58.97917 
L 486.501195 62.892484 
z
" clip-path="url(#pfe4c00d600)" style="stroke: #000000; stroke-linecap: round"/>
   </g>
   <g id="patch_40">
    <path d="M 171.489554 278.624329 
Q 357.812076 167.86851 543.173538 57.683974 
" clip-path="url(#pfe4c00d600)" style="fill: none; stroke: #000000; stroke-linecap: round"/>
    <path d="M 538.713204 58.008663 
L 543.173538 57.683974 
L 540.757089 61.447054 
z
" clip-path="url(#pfe4c00d600)" style="stroke: #000000; stroke-linecap: round"/>
   </g>
   <g id="patch_41">
    <path d="M 216.869259 290.050909 
Q 195.748474 290.050909 175.745723 290.050909 
" clip-path="url(#pfe4c00d600)" style="fill: none; stroke: #000000; stroke-linecap: round"/>
    <path d="M 179.745723 292.050909 
L 175.745723 290.050909 
L 179.745723 288.050909 
z
" clip-path="url(#pfe4c00d600)" style="stroke: #000000; stroke-linecap: round"/>
   </g>
   <g id="patch_42">
    <path d="M 226.263853 271.836243 
Q 152.267498 167.870037 78.919447 64.814711 
" clip-path="url(#pfe4c00d600)" style="fill: none; stroke: #000000; stroke-linecap: round"/>
    <path d="M 79.609461 69.233295 
L 78.919447 64.814711 
L 82.868322 66.91385 
z
" clip-path="url(#pfe4c00d600)" style="stroke: #000000; stroke-linecap: round"/>
   </g>
   <g id="patch_43">
    <path d="M 308.84111 275.93967 
Q 251.085865 228.959739 194.197947 182.685318 
" clip-path="url(#pfe4c00d600)" style="fill: none; stroke: #000000; stroke-linecap: round"/>
    <path d="M 196.038933 186.76095 
L 194.197947 182.685318 
L 198.563044 183.657909 
z
" clip-path="url(#pfe4c00d600)" style="stroke: #000000; stroke-linecap: round"/>
   </g>
   <g id="patch_44">
    <path d="M 319.307012 268.778714 
Q 306.425707 228.962095 293.888544 190.209228 
" clip-path="url(#pfe4c00d600)" style="fill: none; stroke: #000000; stroke-linecap: round"/>
    <path d="M 293.216881 194.630638 
L 293.888544 190.209228 
L 297.022674 193.399404 
z
" clip-path="url(#pfe4c00d600)" style="stroke: #000000; stroke-linecap: round"/>
   </g>
   <g id="patch_45">
    <path d="M 311.796161 272.939936 
Q 223.417453 167.869909 135.758427 63.655484 
" clip-path="url(#pfe4c00d600)" style="fill: none; stroke: #000000; stroke-linecap: round"/>
    <path d="M 136.802694 68.00399 
L 135.758427 63.655484 
L 139.863792 65.429175 
z
" clip-path="url(#pfe4c00d600)" style="stroke: #000000; stroke-linecap: round"/>
   </g>
   <g id="patch_46">
    <path d="M 410.280416 267.876371 
Q 405.244664 228.9621 400.352396 191.156618 
" clip-path="url(#pfe4c00d600)" style="fill: none; stroke: #000000; stroke-linecap: round"/>
    <path d="M 398.882279 195.380213 
L 400.352396 191.156618 
L 402.849202 194.866868 
z
" clip-path="url(#pfe4c00d600)" style="stroke: #000000; stroke-linecap: round"/>
   </g>
   <g id="patch_47">
    <path d="M 477.752375 290.050909 
Q 456.63159 290.050909 436.62884 290.050909 
" clip-path="url(#pfe4c00d600)" style="fill: none; stroke: #000000; stroke-linecap: round"/>
    <path d="M 440.62884 292.050909 
L 436.62884 290.050909 
L 440.62884 288.050909 
z
" clip-path="url(#pfe4c00d600)" style="stroke: #000000; stroke-linecap: round"/>
   </g>
   <g id="patch_48">
    <path d="M 485.718239 272.939936 
Q 448.725819 228.961079 412.453083 185.837826 
" clip-path="url(#pfe4c00d600)" style="fill: none; stroke: #000000; stroke-linecap: round"/>
    <path d="M 413.497349 190.186332 
L 412.453083 185.837826 
L 416.558447 187.611517 
z
" clip-path="url(#pfe4c00d600)" style="stroke: #000000; stroke-linecap: round"/>
   </g>
   <g id="patch_49">
    <path d="M 83.314384 154.615451 
Q 148.312892 106.779034 212.410942 59.605319 
" clip-path="url(#pfe4c00d600)" style="fill: none; stroke: #000000; stroke-linecap: round"/>
    <path d="M 208.003886 60.365489 
L 212.410942 59.605319 
L 210.374844 63.587066 
z
" clip-path="url(#pfe4c00d600)" style="stroke: #000000; stroke-linecap: round"/>
   </g>
   <g id="patch_50">
    <path d="M 87.137844 163.048823 
Q 341.996721 106.778906 595.763858 50.750032 
" clip-path="url(#pfe4c00d600)" style="fill: none; stroke: #000000; stroke-linecap: round"/>
    <path d="M 591.426735 49.659452 
L 595.763858 50.750032 
L 592.28912 53.565382 
z
" clip-path="url(#pfe4c00d600)" style="stroke: #000000; stroke-linecap: round"/>
   </g>
   <g id="patch_51">
    <path d="M 309.024345 167.869091 
Q 314.331767 167.869091 318.521155 167.869091 
" clip-path="url(#pfe4c00d600)" style="fill: none; stroke: #000000; stroke-linecap: round"/>
    <path d="M 314.521155 165.869091 
L 318.521155 167.869091 
L 314.521155 169.869091 
z
" clip-path="url(#pfe4c00d600)" style="stroke: #000000; stroke-linecap: round"/>
   </g>
   <g id="patch_52">
    <path d="M 271.649347 151.296914 
Q 231.320961 106.776688 191.74317 63.085077 
" clip-path="url(#pfe4c00d600)" style="fill: none; stroke: #000000; stroke-linecap: round"/>
    <path d="M 192.946314 67.392332 
L 191.74317 63.085077 
L 195.910861 64.706915 
z
" clip-path="url(#pfe4c00d600)" style="stroke: #000000; stroke-linecap: round"/>
   </g>
   <g id="PathCollection_1">
    <defs>
     <path id="m1271011df2" d="M 0 22.36068 
C 5.930122 22.36068 11.618159 20.004617 15.811388 15.811388 
C 20.004617 11.618159 22.36068 5.930122 22.36068 0 
C 22.36068 -5.930122 20.004617 -11.618159 15.811388 -15.811388 
C 11.618159 -20.004617 5.930122 -22.36068 0 -22.36068 
C -5.930122 -22.36068 -11.618159 -20.004617 -15.811388 -15.811388 
C -20.004617 -11.618159 -22.36068 -5.930122 -22.36068 0 
C -22.36068 5.930122 -20.004617 11.618159 -15.811388 15.811388 
C -11.618159 20.004617 -5.930122 22.36068 0 22.36068 
z
" style="stroke: #000000"/>
    </defs>
    <g clip-path="url(#pfe4c00d600)">
     <use xlink:href="#m1271011df2" x="65.305785" y="412.232727" style="fill: #ffffff; stroke: #000000"/>
     <use xlink:href="#m1271011df2" x="141.396694" y="412.232727" style="fill: #ffffff; stroke: #000000"/>
     <use xlink:href="#m1271011df2" x="217.487603" y="412.232727" style="fill: #ffffff; stroke: #000000"/>
     <use xlink:href="#m1271011df2" x="293.578512" y="412.232727" style="fill: #ffffff; stroke: #000000"/>
     <use xlink:href="#m1271011df2" x="369.669421" y="412.232727" style="fill: #ffffff; stroke: #000000"/>
     <use xlink:href="#m1271011df2" x="445.760331" y="412.232727" style="fill: #ffffff; stroke: #000000"/>
     <use xlink:href="#m1271011df2" x="521.85124" y="412.232727" style="fill: #ffffff; stroke: #000000"/>
     <use xlink:href="#m1271011df2" x="597.942149" y="412.232727" style="fill: #ffffff; stroke: #000000"/>
     <use xlink:href="#m1271011df2" x="65.305785" y="290.050909" style="fill: #ffffff; stroke: #000000"/>
     <use xlink:href="#m1271011df2" x="152.266824" y="290.050909" style="fill: #ffffff; stroke: #000000"/>
     <use xlink:href="#m1271011df2" x="239.227863" y="290.050909" style="fill: #ffffff; stroke: #000000"/>
     <use xlink:href="#m1271011df2" x="326.188902" y="290.050909" style="fill: #ffffff; stroke: #000000"/>
     <use xlink:href="#m1271011df2" x="413.149941" y="290.050909" style="fill: #ffffff; stroke: #000000"/>
     <use xlink:href="#m1271011df2" x="500.11098" y="290.050909" style="fill: #ffffff; stroke: #000000"/>
     <use xlink:href="#m1271011df2" x="587.072019" y="290.050909" style="fill: #ffffff; stroke: #000000"/>
     <use xlink:href="#m1271011df2" x="65.305785" y="167.869091" style="fill: #ffffff; stroke: #000000"/>
     <use xlink:href="#m1271011df2" x="120.644628" y="167.869091" style="fill: #ffffff; stroke: #000000"/>
     <use xlink:href="#m1271011df2" x="175.983471" y="167.869091" style="fill: #ffffff; stroke: #000000"/>
     <use xlink:href="#m1271011df2" x="231.322314" y="167.869091" style="fill: #ffffff; stroke: #000000"/>
     <use xlink:href="#m1271011df2" x="286.661157" y="167.869091" style="fill: #ffffff; stroke: #000000"/>
     <use xlink:href="#m1271011df2" x="342" y="167.869091" style="fill: #ffffff; stroke: #000000"/>
     <use xlink:href="#m1271011df2" x="397.338843" y="167.869091" style="fill: #ffffff; stroke: #000000"/>
     <use xlink:href="#m1271011df2" x="452.677686" y="167.869091" style="fill: #ffffff; stroke: #000000"/>
     <use xlink:href="#m1271011df2" x="508.016529" y="167.869091" style="fill: #ffffff; stroke: #000000"/>
     <use xlink:href="#m1271011df2" x="563.355372" y="167.869091" style="fill: #ffffff; stroke: #000000"/>
     <use xlink:href="#m1271011df2" x="618.694215" y="167.869091" style="fill: #ffffff; stroke: #000000"/>
     <use xlink:href="#m1271011df2" x="65.305785" y="45.687273" style="fill: #ffffff; stroke: #000000"/>
     <use xlink:href="#m1271011df2" x="120.644628" y="45.687273" style="fill: #ffffff; stroke: #000000"/>
     <use xlink:href="#m1271011df2" x="175.983471" y="45.687273" style="fill: #ffffff; stroke: #000000"/>
     <use xlink:href="#m1271011df2" x="231.322314" y="45.687273" style="fill: #ffffff; stroke: #000000"/>
     <use xlink:href="#m1271011df2" x="286.661157" y="45.687273" style="fill: #ffffff; stroke: #000000"/>
     <use xlink:href="#m1271011df2" x="342" y="45.687273" style="fill: #ffffff; stroke: #000000"/>
     <use xlink:href="#m1271011df2" x="397.338843" y="45.687273" style="fill: #ffffff; stroke: #000000"/>
     <use xlink:href="#m1271011df2" x="452.677686" y="45.687273" style="fill: #ffffff; stroke: #000000"/>
     <use xlink:href="#m1271011df2" x="508.016529" y="45.687273" style="fill: #ffffff; stroke: #000000"/>
     <use xlink:href="#m1271011df2" x="563.355372" y="45.687273" style="fill: #ffffff; stroke: #000000"/>
     <use xlink:href="#m1271011df2" x="618.694215" y="45.687273" style="fill: #ffffff; stroke: #000000"/>
    </g>
   </g>
   <g id="PathCollection_2">
    <defs>
     <path id="m705a2bc546" d="M 0 22.36068 
C 5.930122 22.36068 11.618159 20.004617 15.811388 15.811388 
C 20.004617 11.618159 22.36068 5.930122 22.36068 0 
C 22.36068 -5.930122 20.004617 -11.618159 15.811388 -15.811388 
C 11.618159 -20.004617 5.930122 -22.36068 0 -22.36068 
C -5.930122 -22.36068 -11.618159 -20.004617 -15.811388 -15.811388 
C -20.004617 -11.618159 -22.36068 -5.930122 -22.36068 0 
C -22.36068 5.930122 -20.004617 11.618159 -15.811388 15.811388 
C -11.618159 20.004617 -5.930122 22.36068 0 22.36068 
z
" style="stroke: #008000; stroke-opacity: 0.2; stroke-width: 4"/>
    </defs>
    <g clip-path="url(#pfe4c00d600)">
     <use xlink:href="#m705a2bc546" x="293.578512" y="412.232727" style="fill: #008000; fill-opacity: 0.2; stroke: #008000; stroke-opacity: 0.2; stroke-width: 4"/>
     <use xlink:href="#m705a2bc546" x="369.669421" y="412.232727" style="fill: #008000; fill-opacity: 0.2; stroke: #008000; stroke-opacity: 0.2; stroke-width: 4"/>
     <use xlink:href="#m705a2bc546" x="445.760331" y="412.232727" style="fill: #008000; fill-opacity: 0.2; stroke: #008000; stroke-opacity: 0.2; stroke-width: 4"/>
     <use xlink:href="#m705a2bc546" x="597.942149" y="412.232727" style="fill: #008000; fill-opacity: 0.2; stroke: #008000; stroke-opacity: 0.2; stroke-width: 4"/>
     <use xlink:href="#m705a2bc546" x="152.266824" y="290.050909" style="fill: #008000; fill-opacity: 0.2; stroke: #008000; stroke-opacity: 0.2; stroke-width: 4"/>
     <use xlink:href="#m705a2bc546" x="413.149941" y="290.050909" style="fill: #008000; fill-opacity: 0.2; stroke: #008000; stroke-opacity: 0.2; stroke-width: 4"/>
     <use xlink:href="#m705a2bc546" x="500.11098" y="290.050909" style="fill: #008000; fill-opacity: 0.2; stroke: #008000; stroke-opacity: 0.2; stroke-width: 4"/>
     <use xlink:href="#m705a2bc546" x="587.072019" y="290.050909" style="fill: #008000; fill-opacity: 0.2; stroke: #008000; stroke-opacity: 0.2; stroke-width: 4"/>
     <use xlink:href="#m705a2bc546" x="65.305785" y="167.869091" style="fill: #008000; fill-opacity: 0.2; stroke: #008000; stroke-opacity: 0.2; stroke-width: 4"/>
     <use xlink:href="#m705a2bc546" x="120.644628" y="167.869091" style="fill: #008000; fill-opacity: 0.2; stroke: #008000; stroke-opacity: 0.2; stroke-width: 4"/>
     <use xlink:href="#m705a2bc546" x="231.322314" y="167.869091" style="fill: #008000; fill-opacity: 0.2; stroke: #008000; stroke-opacity: 0.2; stroke-width: 4"/>
     <use xlink:href="#m705a2bc546" x="397.338843" y="167.869091" style="fill: #008000; fill-opacity: 0.2; stroke: #008000; stroke-opacity: 0.2; stroke-width: 4"/>
     <use xlink:href="#m705a2bc546" x="452.677686" y="167.869091" style="fill: #008000; fill-opacity: 0.2; stroke: #008000; stroke-opacity: 0.2; stroke-width: 4"/>
     <use xlink:href="#m705a2bc546" x="508.016529" y="167.869091" style="fill: #008000; fill-opacity: 0.2; stroke: #008000; stroke-opacity: 0.2; stroke-width: 4"/>
     <use xlink:href="#m705a2bc546" x="563.355372" y="167.869091" style="fill: #008000; fill-opacity: 0.2; stroke: #008000; stroke-opacity: 0.2; stroke-width: 4"/>
     <use xlink:href="#m705a2bc546" x="618.694215" y="167.869091" style="fill: #008000; fill-opacity: 0.2; stroke: #008000; stroke-opacity: 0.2; stroke-width: 4"/>
     <use xlink:href="#m705a2bc546" x="65.305785" y="45.687273" style="fill: #008000; fill-opacity: 0.2; stroke: #008000; stroke-opacity: 0.2; stroke-width: 4"/>
     <use xlink:href="#m705a2bc546" x="231.322314" y="45.687273" style="fill: #008000; fill-opacity: 0.2; stroke: #008000; stroke-opacity: 0.2; stroke-width: 4"/>
     <use xlink:href="#m705a2bc546" x="286.661157" y="45.687273" style="fill: #008000; fill-opacity: 0.2; stroke: #008000; stroke-opacity: 0.2; stroke-width: 4"/>
     <use xlink:href="#m705a2bc546" x="342" y="45.687273" style="fill: #008000; fill-opacity: 0.2; stroke: #008000; stroke-opacity: 0.2; stroke-width: 4"/>
     <use xlink:href="#m705a2bc546" x="397.338843" y="45.687273" style="fill: #008000; fill-opacity: 0.2; stroke: #008000; stroke-opacity: 0.2; stroke-width: 4"/>
     <use xlink:href="#m705a2bc546" x="452.677686" y="45.687273" style="fill: #008000; fill-opacity: 0.2; stroke: #008000; stroke-opacity: 0.2; stroke-width: 4"/>
     <use xlink:href="#m705a2bc546" x="508.016529" y="45.687273" style="fill: #008000; fill-opacity: 0.2; stroke: #008000; stroke-opacity: 0.2; stroke-width: 4"/>
     <use xlink:href="#m705a2bc546" x="563.355372" y="45.687273" style="fill: #008000; fill-opacity: 0.2; stroke: #008000; stroke-opacity: 0.2; stroke-width: 4"/>
     <use xlink:href="#m705a2bc546" x="618.694215" y="45.687273" style="fill: #008000; fill-opacity: 0.2; stroke: #008000; stroke-opacity: 0.2; stroke-width: 4"/>
    </g>
   </g>
   <g id="PathCollection_3">
    <defs>
     <path id="me1b292446e" d="M 0 22.36068 
C 5.930122 22.36068 11.618159 20.004617 15.811388 15.811388 
C 20.004617 11.618159 22.36068 5.930122 22.36068 0 
C 22.36068 -5.930122 20.004617 -11.618159 15.811388 -15.811388 
C 11.618159 -20.004617 5.930122 -22.36068 0 -22.36068 
C -5.930122 -22.36068 -11.618159 -20.004617 -15.811388 -15.811388 
C -20.004617 -11.618159 -22.36068 -5.930122 -22.36068 0 
C -22.36068 5.930122 -20.004617 11.618159 -15.811388 15.811388 
C -11.618159 20.004617 -5.930122 22.36068 0 22.36068 
z
" style="stroke: #ff0000; stroke-opacity: 0.5"/>
    </defs>
    <g clip-path="url(#pfe4c00d600)">
     <use xlink:href="#me1b292446e" x="120.644628" y="167.869091" style="fill: #ff0000; fill-opacity: 0.5; stroke: #ff0000; stroke-opacity: 0.5"/>
     <use xlink:href="#me1b292446e" x="231.322314" y="167.869091" style="fill: #ff0000; fill-opacity: 0.5; stroke: #ff0000; stroke-opacity: 0.5"/>
     <use xlink:href="#me1b292446e" x="618.694215" y="167.869091" style="fill: #ff0000; fill-opacity: 0.5; stroke: #ff0000; stroke-opacity: 0.5"/>
     <use xlink:href="#me1b292446e" x="342" y="45.687273" style="fill: #ff0000; fill-opacity: 0.5; stroke: #ff0000; stroke-opacity: 0.5"/>
     <use xlink:href="#me1b292446e" x="397.338843" y="45.687273" style="fill: #ff0000; fill-opacity: 0.5; stroke: #ff0000; stroke-opacity: 0.5"/>
    </g>
   </g>
   <g id="text_1">
    <g clip-path="url(#pfe4c00d600)">
     <!-- 1024 -->
     <g transform="translate(51.39016 409.393196) scale(0.1 -0.1)">
      <defs>
       <path id="DejaVuSans-Bold-31" d="M 750 831 
L 1813 831 
L 1813 3847 
L 722 3622 
L 722 4441 
L 1806 4666 
L 2950 4666 
L 2950 831 
L 4013 831 
L 4013 0 
L 750 0 
L 750 831 
z
" transform="scale(0.015625)"/>
       <path id="DejaVuSans-Bold-30" d="M 2944 2338 
Q 2944 3213 2780 3570 
Q 2616 3928 2228 3928 
Q 1841 3928 1675 3570 
Q 1509 3213 1509 2338 
Q 1509 1453 1675 1090 
Q 1841 728 2228 728 
Q 2613 728 2778 1090 
Q 2944 1453 2944 2338 
z
M 4147 2328 
Q 4147 1169 3647 539 
Q 3147 -91 2228 -91 
Q 1306 -91 806 539 
Q 306 1169 306 2328 
Q 306 3491 806 4120 
Q 1306 4750 2228 4750 
Q 3147 4750 3647 4120 
Q 4147 3491 4147 2328 
z
" transform="scale(0.015625)"/>
       <path id="DejaVuSans-Bold-32" d="M 1844 884 
L 3897 884 
L 3897 0 
L 506 0 
L 506 884 
L 2209 2388 
Q 2438 2594 2547 2791 
Q 2656 2988 2656 3200 
Q 2656 3528 2436 3728 
Q 2216 3928 1850 3928 
Q 1569 3928 1234 3808 
Q 900 3688 519 3450 
L 519 4475 
Q 925 4609 1322 4679 
Q 1719 4750 2100 4750 
Q 2938 4750 3402 4381 
Q 3866 4013 3866 3353 
Q 3866 2972 3669 2642 
Q 3472 2313 2841 1759 
L 1844 884 
z
" transform="scale(0.015625)"/>
       <path id="DejaVuSans-Bold-34" d="M 2356 3675 
L 1038 1722 
L 2356 1722 
L 2356 3675 
z
M 2156 4666 
L 3494 4666 
L 3494 1722 
L 4159 1722 
L 4159 850 
L 3494 850 
L 3494 0 
L 2356 0 
L 2356 850 
L 288 850 
L 288 1881 
L 2156 4666 
z
" transform="scale(0.015625)"/>
      </defs>
      <use xlink:href="#DejaVuSans-Bold-31"/>
      <use xlink:href="#DejaVuSans-Bold-30" x="69.580078"/>
      <use xlink:href="#DejaVuSans-Bold-32" x="139.160156"/>
      <use xlink:href="#DejaVuSans-Bold-34" x="208.740234"/>
     </g>
    </g>
    <g clip-path="url(#pfe4c00d600)">
     <!-- Stats -->
     <g transform="translate(50.575316 420.591009) scale(0.1 -0.1)">
      <defs>
       <path id="DejaVuSans-Bold-53" d="M 3834 4519 
L 3834 3531 
Q 3450 3703 3084 3790 
Q 2719 3878 2394 3878 
Q 1963 3878 1756 3759 
Q 1550 3641 1550 3391 
Q 1550 3203 1689 3098 
Q 1828 2994 2194 2919 
L 2706 2816 
Q 3484 2659 3812 2340 
Q 4141 2022 4141 1434 
Q 4141 663 3683 286 
Q 3225 -91 2284 -91 
Q 1841 -91 1394 -6 
Q 947 78 500 244 
L 500 1259 
Q 947 1022 1364 901 
Q 1781 781 2169 781 
Q 2563 781 2772 912 
Q 2981 1044 2981 1288 
Q 2981 1506 2839 1625 
Q 2697 1744 2272 1838 
L 1806 1941 
Q 1106 2091 782 2419 
Q 459 2747 459 3303 
Q 459 4000 909 4375 
Q 1359 4750 2203 4750 
Q 2588 4750 2994 4692 
Q 3400 4634 3834 4519 
z
" transform="scale(0.015625)"/>
       <path id="DejaVuSans-Bold-74" d="M 1759 4494 
L 1759 3500 
L 2913 3500 
L 2913 2700 
L 1759 2700 
L 1759 1216 
Q 1759 972 1856 886 
Q 1953 800 2241 800 
L 2816 800 
L 2816 0 
L 1856 0 
Q 1194 0 917 276 
Q 641 553 641 1216 
L 641 2700 
L 84 2700 
L 84 3500 
L 641 3500 
L 641 4494 
L 1759 4494 
z
" transform="scale(0.015625)"/>
       <path id="DejaVuSans-Bold-61" d="M 2106 1575 
Q 1756 1575 1579 1456 
Q 1403 1338 1403 1106 
Q 1403 894 1545 773 
Q 1688 653 1941 653 
Q 2256 653 2472 879 
Q 2688 1106 2688 1447 
L 2688 1575 
L 2106 1575 
z
M 3816 1997 
L 3816 0 
L 2688 0 
L 2688 519 
Q 2463 200 2181 54 
Q 1900 -91 1497 -91 
Q 953 -91 614 226 
Q 275 544 275 1050 
Q 275 1666 698 1953 
Q 1122 2241 2028 2241 
L 2688 2241 
L 2688 2328 
Q 2688 2594 2478 2717 
Q 2269 2841 1825 2841 
Q 1466 2841 1156 2769 
Q 847 2697 581 2553 
L 581 3406 
Q 941 3494 1303 3539 
Q 1666 3584 2028 3584 
Q 2975 3584 3395 3211 
Q 3816 2838 3816 1997 
z
" transform="scale(0.015625)"/>
       <path id="DejaVuSans-Bold-73" d="M 3272 3391 
L 3272 2541 
Q 2913 2691 2578 2766 
Q 2244 2841 1947 2841 
Q 1628 2841 1473 2761 
Q 1319 2681 1319 2516 
Q 1319 2381 1436 2309 
Q 1553 2238 1856 2203 
L 2053 2175 
Q 2913 2066 3209 1816 
Q 3506 1566 3506 1031 
Q 3506 472 3093 190 
Q 2681 -91 1863 -91 
Q 1516 -91 1145 -36 
Q 775 19 384 128 
L 384 978 
Q 719 816 1070 734 
Q 1422 653 1784 653 
Q 2113 653 2278 743 
Q 2444 834 2444 1013 
Q 2444 1163 2330 1236 
Q 2216 1309 1875 1350 
L 1678 1375 
Q 931 1469 631 1722 
Q 331 1975 331 2491 
Q 331 3047 712 3315 
Q 1094 3584 1881 3584 
Q 2191 3584 2531 3537 
Q 2872 3491 3272 3391 
z
" transform="scale(0.015625)"/>
      </defs>
      <use xlink:href="#DejaVuSans-Bold-53"/>
      <use xlink:href="#DejaVuSans-Bold-74" x="72.021484"/>
      <use xlink:href="#DejaVuSans-Bold-61" x="119.824219"/>
      <use xlink:href="#DejaVuSans-Bold-74" x="187.304688"/>
      <use xlink:href="#DejaVuSans-Bold-73" x="235.107422"/>
     </g>
    </g>
   </g>
   <g id="text_2">
    <g clip-path="url(#pfe4c00d600)">
     <!-- 1048 -->
     <g transform="translate(127.481069 409.393196) scale(0.1 -0.1)">
      <defs>
       <path id="DejaVuSans-Bold-38" d="M 2228 2088 
Q 1891 2088 1709 1903 
Q 1528 1719 1528 1375 
Q 1528 1031 1709 848 
Q 1891 666 2228 666 
Q 2563 666 2741 848 
Q 2919 1031 2919 1375 
Q 2919 1722 2741 1905 
Q 2563 2088 2228 2088 
z
M 1350 2484 
Q 925 2613 709 2878 
Q 494 3144 494 3541 
Q 494 4131 934 4440 
Q 1375 4750 2228 4750 
Q 3075 4750 3515 4442 
Q 3956 4134 3956 3541 
Q 3956 3144 3739 2878 
Q 3522 2613 3097 2484 
Q 3572 2353 3814 2058 
Q 4056 1763 4056 1313 
Q 4056 619 3595 264 
Q 3134 -91 2228 -91 
Q 1319 -91 855 264 
Q 391 619 391 1313 
Q 391 1763 633 2058 
Q 875 2353 1350 2484 
z
M 1631 3419 
Q 1631 3141 1786 2991 
Q 1941 2841 2228 2841 
Q 2509 2841 2662 2991 
Q 2816 3141 2816 3419 
Q 2816 3697 2662 3845 
Q 2509 3994 2228 3994 
Q 1941 3994 1786 3844 
Q 1631 3694 1631 3419 
z
" transform="scale(0.015625)"/>
      </defs>
      <use xlink:href="#DejaVuSans-Bold-31"/>
      <use xlink:href="#DejaVuSans-Bold-30" x="69.580078"/>
      <use xlink:href="#DejaVuSans-Bold-34" x="139.160156"/>
      <use xlink:href="#DejaVuSans-Bold-38" x="208.740234"/>
     </g>
    </g>
    <g clip-path="url(#pfe4c00d600)">
     <!-- LA1 -->
     <g transform="translate(130.862319 420.591009) scale(0.1 -0.1)">
      <defs>
       <path id="DejaVuSans-Bold-4c" d="M 588 4666 
L 1791 4666 
L 1791 909 
L 3903 909 
L 3903 0 
L 588 0 
L 588 4666 
z
" transform="scale(0.015625)"/>
       <path id="DejaVuSans-Bold-41" d="M 3419 850 
L 1538 850 
L 1241 0 
L 31 0 
L 1759 4666 
L 3194 4666 
L 4922 0 
L 3713 0 
L 3419 850 
z
M 1838 1716 
L 3116 1716 
L 2478 3572 
L 1838 1716 
z
" transform="scale(0.015625)"/>
      </defs>
      <use xlink:href="#DejaVuSans-Bold-4c"/>
      <use xlink:href="#DejaVuSans-Bold-41" x="63.720703"/>
      <use xlink:href="#DejaVuSans-Bold-31" x="141.113281"/>
     </g>
    </g>
   </g>
   <g id="text_3">
    <g clip-path="url(#pfe4c00d600)">
     <!-- 1049 -->
     <g transform="translate(203.571978 409.393196) scale(0.1 -0.1)">
      <defs>
       <path id="DejaVuSans-Bold-39" d="M 641 103 
L 641 966 
Q 928 831 1190 764 
Q 1453 697 1709 697 
Q 2247 697 2547 995 
Q 2847 1294 2900 1881 
Q 2688 1725 2447 1647 
Q 2206 1569 1925 1569 
Q 1209 1569 770 1986 
Q 331 2403 331 3084 
Q 331 3838 820 4291 
Q 1309 4744 2131 4744 
Q 3044 4744 3544 4128 
Q 4044 3513 4044 2388 
Q 4044 1231 3459 570 
Q 2875 -91 1856 -91 
Q 1528 -91 1228 -42 
Q 928 6 641 103 
z
M 2125 2350 
Q 2441 2350 2600 2554 
Q 2759 2759 2759 3169 
Q 2759 3575 2600 3781 
Q 2441 3988 2125 3988 
Q 1809 3988 1650 3781 
Q 1491 3575 1491 3169 
Q 1491 2759 1650 2554 
Q 1809 2350 2125 2350 
z
" transform="scale(0.015625)"/>
      </defs>
      <use xlink:href="#DejaVuSans-Bold-31"/>
      <use xlink:href="#DejaVuSans-Bold-30" x="69.580078"/>
      <use xlink:href="#DejaVuSans-Bold-34" x="139.160156"/>
      <use xlink:href="#DejaVuSans-Bold-39" x="208.740234"/>
     </g>
    </g>
    <g clip-path="url(#pfe4c00d600)">
     <!-- LA2 -->
     <g transform="translate(206.953228 420.591009) scale(0.1 -0.1)">
      <use xlink:href="#DejaVuSans-Bold-4c"/>
      <use xlink:href="#DejaVuSans-Bold-41" x="63.720703"/>
      <use xlink:href="#DejaVuSans-Bold-32" x="141.113281"/>
     </g>
    </g>
   </g>
   <g id="text_4">
    <g clip-path="url(#pfe4c00d600)">
     <!-- 1054 -->
     <g transform="translate(279.662887 409.393196) scale(0.1 -0.1)">
      <defs>
       <path id="DejaVuSans-Bold-35" d="M 678 4666 
L 3669 4666 
L 3669 3781 
L 1638 3781 
L 1638 3059 
Q 1775 3097 1914 3117 
Q 2053 3138 2203 3138 
Q 3056 3138 3531 2711 
Q 4006 2284 4006 1522 
Q 4006 766 3489 337 
Q 2972 -91 2053 -91 
Q 1656 -91 1267 -14 
Q 878 63 494 219 
L 494 1166 
Q 875 947 1217 837 
Q 1559 728 1863 728 
Q 2300 728 2551 942 
Q 2803 1156 2803 1522 
Q 2803 1891 2551 2103 
Q 2300 2316 1863 2316 
Q 1603 2316 1309 2248 
Q 1016 2181 678 2041 
L 678 4666 
z
" transform="scale(0.015625)"/>
      </defs>
      <use xlink:href="#DejaVuSans-Bold-31"/>
      <use xlink:href="#DejaVuSans-Bold-30" x="69.580078"/>
      <use xlink:href="#DejaVuSans-Bold-35" x="139.160156"/>
      <use xlink:href="#DejaVuSans-Bold-34" x="208.740234"/>
     </g>
    </g>
    <g clip-path="url(#pfe4c00d600)">
     <!-- Service -->
     <g transform="translate(272.791794 420.591009) scale(0.1 -0.1)">
      <defs>
       <path id="DejaVuSans-Bold-65" d="M 4031 1759 
L 4031 1441 
L 1416 1441 
Q 1456 1047 1700 850 
Q 1944 653 2381 653 
Q 2734 653 3104 758 
Q 3475 863 3866 1075 
L 3866 213 
Q 3469 63 3072 -14 
Q 2675 -91 2278 -91 
Q 1328 -91 801 392 
Q 275 875 275 1747 
Q 275 2603 792 3093 
Q 1309 3584 2216 3584 
Q 3041 3584 3536 3087 
Q 4031 2591 4031 1759 
z
M 2881 2131 
Q 2881 2450 2695 2645 
Q 2509 2841 2209 2841 
Q 1884 2841 1681 2658 
Q 1478 2475 1428 2131 
L 2881 2131 
z
" transform="scale(0.015625)"/>
       <path id="DejaVuSans-Bold-72" d="M 3138 2547 
Q 2991 2616 2845 2648 
Q 2700 2681 2553 2681 
Q 2122 2681 1889 2404 
Q 1656 2128 1656 1613 
L 1656 0 
L 538 0 
L 538 3500 
L 1656 3500 
L 1656 2925 
Q 1872 3269 2151 3426 
Q 2431 3584 2822 3584 
Q 2878 3584 2943 3579 
Q 3009 3575 3134 3559 
L 3138 2547 
z
" transform="scale(0.015625)"/>
       <path id="DejaVuSans-Bold-76" d="M 97 3500 
L 1216 3500 
L 2088 1081 
L 2956 3500 
L 4078 3500 
L 2700 0 
L 1472 0 
L 97 3500 
z
" transform="scale(0.015625)"/>
       <path id="DejaVuSans-Bold-69" d="M 538 3500 
L 1656 3500 
L 1656 0 
L 538 0 
L 538 3500 
z
M 538 4863 
L 1656 4863 
L 1656 3950 
L 538 3950 
L 538 4863 
z
" transform="scale(0.015625)"/>
       <path id="DejaVuSans-Bold-63" d="M 3366 3391 
L 3366 2478 
Q 3138 2634 2908 2709 
Q 2678 2784 2431 2784 
Q 1963 2784 1702 2511 
Q 1441 2238 1441 1747 
Q 1441 1256 1702 982 
Q 1963 709 2431 709 
Q 2694 709 2930 787 
Q 3166 866 3366 1019 
L 3366 103 
Q 3103 6 2833 -42 
Q 2563 -91 2291 -91 
Q 1344 -91 809 395 
Q 275 881 275 1747 
Q 275 2613 809 3098 
Q 1344 3584 2291 3584 
Q 2566 3584 2833 3536 
Q 3100 3488 3366 3391 
z
" transform="scale(0.015625)"/>
      </defs>
      <use xlink:href="#DejaVuSans-Bold-53"/>
      <use xlink:href="#DejaVuSans-Bold-65" x="72.021484"/>
      <use xlink:href="#DejaVuSans-Bold-72" x="139.84375"/>
      <use xlink:href="#DejaVuSans-Bold-76" x="189.160156"/>
      <use xlink:href="#DejaVuSans-Bold-69" x="254.345703"/>
      <use xlink:href="#DejaVuSans-Bold-63" x="288.623047"/>
      <use xlink:href="#DejaVuSans-Bold-65" x="347.900391"/>
     </g>
    </g>
   </g>
   <g id="text_5">
    <g clip-path="url(#pfe4c00d600)">
     <!-- 1057 -->
     <g transform="translate(355.753796 409.354134) scale(0.1 -0.1)">
      <defs>
       <path id="DejaVuSans-Bold-37" d="M 428 4666 
L 3944 4666 
L 3944 3988 
L 2125 0 
L 953 0 
L 2675 3781 
L 428 3781 
L 428 4666 
z
" transform="scale(0.015625)"/>
      </defs>
      <use xlink:href="#DejaVuSans-Bold-31"/>
      <use xlink:href="#DejaVuSans-Bold-30" x="69.580078"/>
      <use xlink:href="#DejaVuSans-Bold-35" x="139.160156"/>
      <use xlink:href="#DejaVuSans-Bold-37" x="208.740234"/>
     </g>
    </g>
    <g clip-path="url(#pfe4c00d600)">
     <!-- Dynamics -->
     <g transform="translate(342.461609 420.551946) scale(0.1 -0.1)">
      <defs>
       <path id="DejaVuSans-Bold-44" d="M 1791 3756 
L 1791 909 
L 2222 909 
Q 2959 909 3348 1275 
Q 3738 1641 3738 2338 
Q 3738 3031 3350 3393 
Q 2963 3756 2222 3756 
L 1791 3756 
z
M 588 4666 
L 1856 4666 
Q 2919 4666 3439 4514 
Q 3959 4363 4331 4000 
Q 4659 3684 4818 3271 
Q 4978 2859 4978 2338 
Q 4978 1809 4818 1395 
Q 4659 981 4331 666 
Q 3956 303 3431 151 
Q 2906 0 1856 0 
L 588 0 
L 588 4666 
z
" transform="scale(0.015625)"/>
       <path id="DejaVuSans-Bold-79" d="M 78 3500 
L 1197 3500 
L 2138 1125 
L 2938 3500 
L 4056 3500 
L 2584 -331 
Q 2363 -916 2067 -1148 
Q 1772 -1381 1288 -1381 
L 641 -1381 
L 641 -647 
L 991 -647 
Q 1275 -647 1404 -556 
Q 1534 -466 1606 -231 
L 1638 -134 
L 78 3500 
z
" transform="scale(0.015625)"/>
       <path id="DejaVuSans-Bold-6e" d="M 4056 2131 
L 4056 0 
L 2931 0 
L 2931 347 
L 2931 1631 
Q 2931 2084 2911 2256 
Q 2891 2428 2841 2509 
Q 2775 2619 2662 2680 
Q 2550 2741 2406 2741 
Q 2056 2741 1856 2470 
Q 1656 2200 1656 1722 
L 1656 0 
L 538 0 
L 538 3500 
L 1656 3500 
L 1656 2988 
Q 1909 3294 2193 3439 
Q 2478 3584 2822 3584 
Q 3428 3584 3742 3212 
Q 4056 2841 4056 2131 
z
" transform="scale(0.015625)"/>
       <path id="DejaVuSans-Bold-6d" d="M 3781 2919 
Q 3994 3244 4286 3414 
Q 4578 3584 4928 3584 
Q 5531 3584 5847 3212 
Q 6163 2841 6163 2131 
L 6163 0 
L 5038 0 
L 5038 1825 
Q 5041 1866 5042 1909 
Q 5044 1953 5044 2034 
Q 5044 2406 4934 2573 
Q 4825 2741 4581 2741 
Q 4263 2741 4089 2478 
Q 3916 2216 3909 1719 
L 3909 0 
L 2784 0 
L 2784 1825 
Q 2784 2406 2684 2573 
Q 2584 2741 2328 2741 
Q 2006 2741 1831 2477 
Q 1656 2213 1656 1722 
L 1656 0 
L 531 0 
L 531 3500 
L 1656 3500 
L 1656 2988 
Q 1863 3284 2130 3434 
Q 2397 3584 2719 3584 
Q 3081 3584 3359 3409 
Q 3638 3234 3781 2919 
z
" transform="scale(0.015625)"/>
      </defs>
      <use xlink:href="#DejaVuSans-Bold-44"/>
      <use xlink:href="#DejaVuSans-Bold-79" x="83.007812"/>
      <use xlink:href="#DejaVuSans-Bold-6e" x="148.193359"/>
      <use xlink:href="#DejaVuSans-Bold-61" x="219.384766"/>
      <use xlink:href="#DejaVuSans-Bold-6d" x="286.865234"/>
      <use xlink:href="#DejaVuSans-Bold-69" x="391.064453"/>
      <use xlink:href="#DejaVuSans-Bold-63" x="425.341797"/>
      <use xlink:href="#DejaVuSans-Bold-73" x="484.619141"/>
     </g>
    </g>
   </g>
   <g id="text_6">
    <g clip-path="url(#pfe4c00d600)">
     <!-- 1058 -->
     <g transform="translate(431.844706 409.393196) scale(0.1 -0.1)">
      <use xlink:href="#DejaVuSans-Bold-31"/>
      <use xlink:href="#DejaVuSans-Bold-30" x="69.580078"/>
      <use xlink:href="#DejaVuSans-Bold-35" x="139.160156"/>
      <use xlink:href="#DejaVuSans-Bold-38" x="208.740234"/>
     </g>
    </g>
    <g clip-path="url(#pfe4c00d600)">
     <!-- OR1 -->
     <g transform="translate(434.180643 420.591009) scale(0.1 -0.1)">
      <defs>
       <path id="DejaVuSans-Bold-4f" d="M 2719 3878 
Q 2169 3878 1866 3472 
Q 1563 3066 1563 2328 
Q 1563 1594 1866 1187 
Q 2169 781 2719 781 
Q 3272 781 3575 1187 
Q 3878 1594 3878 2328 
Q 3878 3066 3575 3472 
Q 3272 3878 2719 3878 
z
M 2719 4750 
Q 3844 4750 4481 4106 
Q 5119 3463 5119 2328 
Q 5119 1197 4481 553 
Q 3844 -91 2719 -91 
Q 1597 -91 958 553 
Q 319 1197 319 2328 
Q 319 3463 958 4106 
Q 1597 4750 2719 4750 
z
" transform="scale(0.015625)"/>
       <path id="DejaVuSans-Bold-52" d="M 2297 2597 
Q 2675 2597 2839 2737 
Q 3003 2878 3003 3200 
Q 3003 3519 2839 3656 
Q 2675 3794 2297 3794 
L 1791 3794 
L 1791 2597 
L 2297 2597 
z
M 1791 1766 
L 1791 0 
L 588 0 
L 588 4666 
L 2425 4666 
Q 3347 4666 3776 4356 
Q 4206 4047 4206 3378 
Q 4206 2916 3982 2619 
Q 3759 2322 3309 2181 
Q 3556 2125 3751 1926 
Q 3947 1728 4147 1325 
L 4800 0 
L 3519 0 
L 2950 1159 
Q 2778 1509 2601 1637 
Q 2425 1766 2131 1766 
L 1791 1766 
z
" transform="scale(0.015625)"/>
      </defs>
      <use xlink:href="#DejaVuSans-Bold-4f"/>
      <use xlink:href="#DejaVuSans-Bold-52" x="85.009766"/>
      <use xlink:href="#DejaVuSans-Bold-31" x="162.011719"/>
     </g>
    </g>
   </g>
   <g id="text_7">
    <g clip-path="url(#pfe4c00d600)">
     <!-- 1059 -->
     <g transform="translate(507.935615 409.393196) scale(0.1 -0.1)">
      <use xlink:href="#DejaVuSans-Bold-31"/>
      <use xlink:href="#DejaVuSans-Bold-30" x="69.580078"/>
      <use xlink:href="#DejaVuSans-Bold-35" x="139.160156"/>
      <use xlink:href="#DejaVuSans-Bold-39" x="208.740234"/>
     </g>
    </g>
    <g clip-path="url(#pfe4c00d600)">
     <!-- Calc -->
     <g transform="translate(510.129365 420.591009) scale(0.1 -0.1)">
      <defs>
       <path id="DejaVuSans-Bold-43" d="M 4288 256 
Q 3956 84 3597 -3 
Q 3238 -91 2847 -91 
Q 1681 -91 1000 561 
Q 319 1213 319 2328 
Q 319 3447 1000 4098 
Q 1681 4750 2847 4750 
Q 3238 4750 3597 4662 
Q 3956 4575 4288 4403 
L 4288 3438 
Q 3953 3666 3628 3772 
Q 3303 3878 2944 3878 
Q 2300 3878 1931 3465 
Q 1563 3053 1563 2328 
Q 1563 1606 1931 1193 
Q 2300 781 2944 781 
Q 3303 781 3628 887 
Q 3953 994 4288 1222 
L 4288 256 
z
" transform="scale(0.015625)"/>
       <path id="DejaVuSans-Bold-6c" d="M 538 4863 
L 1656 4863 
L 1656 0 
L 538 0 
L 538 4863 
z
" transform="scale(0.015625)"/>
      </defs>
      <use xlink:href="#DejaVuSans-Bold-43"/>
      <use xlink:href="#DejaVuSans-Bold-61" x="73.388672"/>
      <use xlink:href="#DejaVuSans-Bold-6c" x="140.869141"/>
      <use xlink:href="#DejaVuSans-Bold-63" x="175.146484"/>
     </g>
    </g>
   </g>
   <g id="text_8">
    <g clip-path="url(#pfe4c00d600)">
     <!-- 1060 -->
     <g transform="translate(584.026524 409.393196) scale(0.1 -0.1)">
      <defs>
       <path id="DejaVuSans-Bold-36" d="M 2316 2303 
Q 2000 2303 1842 2098 
Q 1684 1894 1684 1484 
Q 1684 1075 1842 870 
Q 2000 666 2316 666 
Q 2634 666 2792 870 
Q 2950 1075 2950 1484 
Q 2950 1894 2792 2098 
Q 2634 2303 2316 2303 
z
M 3803 4544 
L 3803 3681 
Q 3506 3822 3243 3889 
Q 2981 3956 2731 3956 
Q 2194 3956 1894 3657 
Q 1594 3359 1544 2772 
Q 1750 2925 1990 3001 
Q 2231 3078 2516 3078 
Q 3231 3078 3670 2659 
Q 4109 2241 4109 1563 
Q 4109 813 3618 361 
Q 3128 -91 2303 -91 
Q 1394 -91 895 523 
Q 397 1138 397 2266 
Q 397 3422 980 4083 
Q 1563 4744 2578 4744 
Q 2900 4744 3203 4694 
Q 3506 4644 3803 4544 
z
" transform="scale(0.015625)"/>
      </defs>
      <use xlink:href="#DejaVuSans-Bold-31"/>
      <use xlink:href="#DejaVuSans-Bold-30" x="69.580078"/>
      <use xlink:href="#DejaVuSans-Bold-36" x="139.160156"/>
      <use xlink:href="#DejaVuSans-Bold-30" x="208.740234"/>
     </g>
    </g>
    <g clip-path="url(#pfe4c00d600)">
     <!-- MVC -->
     <g transform="translate(585.427305 420.591009) scale(0.1 -0.1)">
      <defs>
       <path id="DejaVuSans-Bold-4d" d="M 588 4666 
L 2119 4666 
L 3181 2169 
L 4250 4666 
L 5778 4666 
L 5778 0 
L 4641 0 
L 4641 3413 
L 3566 897 
L 2803 897 
L 1728 3413 
L 1728 0 
L 588 0 
L 588 4666 
z
" transform="scale(0.015625)"/>
       <path id="DejaVuSans-Bold-56" d="M 31 4666 
L 1241 4666 
L 2478 1222 
L 3713 4666 
L 4922 4666 
L 3194 0 
L 1759 0 
L 31 4666 
z
" transform="scale(0.015625)"/>
      </defs>
      <use xlink:href="#DejaVuSans-Bold-4d"/>
      <use xlink:href="#DejaVuSans-Bold-56" x="99.511719"/>
      <use xlink:href="#DejaVuSans-Bold-43" x="176.904297"/>
     </g>
    </g>
   </g>
   <g id="text_9">
    <g clip-path="url(#pfe4c00d600)">
     <!-- 2011 -->
     <g transform="translate(51.39016 287.211378) scale(0.1 -0.1)">
      <use xlink:href="#DejaVuSans-Bold-32"/>
      <use xlink:href="#DejaVuSans-Bold-30" x="69.580078"/>
      <use xlink:href="#DejaVuSans-Bold-31" x="139.160156"/>
      <use xlink:href="#DejaVuSans-Bold-31" x="208.740234"/>
     </g>
    </g>
    <g clip-path="url(#pfe4c00d600)">
     <!-- SDT -->
     <g transform="translate(54.143285 298.40919) scale(0.1 -0.1)">
      <defs>
       <path id="DejaVuSans-Bold-54" d="M 31 4666 
L 4331 4666 
L 4331 3756 
L 2784 3756 
L 2784 0 
L 1581 0 
L 1581 3756 
L 31 3756 
L 31 4666 
z
" transform="scale(0.015625)"/>
      </defs>
      <use xlink:href="#DejaVuSans-Bold-53"/>
      <use xlink:href="#DejaVuSans-Bold-44" x="72.021484"/>
      <use xlink:href="#DejaVuSans-Bold-54" x="155.029297"/>
     </g>
    </g>
   </g>
   <g id="text_10">
    <g clip-path="url(#pfe4c00d600)">
     <!-- 2038 -->
     <g transform="translate(138.351199 287.211378) scale(0.1 -0.1)">
      <defs>
       <path id="DejaVuSans-Bold-33" d="M 2981 2516 
Q 3453 2394 3698 2092 
Q 3944 1791 3944 1325 
Q 3944 631 3412 270 
Q 2881 -91 1863 -91 
Q 1503 -91 1142 -33 
Q 781 25 428 141 
L 428 1069 
Q 766 900 1098 814 
Q 1431 728 1753 728 
Q 2231 728 2486 893 
Q 2741 1059 2741 1369 
Q 2741 1688 2480 1852 
Q 2219 2016 1709 2016 
L 1228 2016 
L 1228 2791 
L 1734 2791 
Q 2188 2791 2409 2933 
Q 2631 3075 2631 3366 
Q 2631 3634 2415 3781 
Q 2200 3928 1806 3928 
Q 1516 3928 1219 3862 
Q 922 3797 628 3669 
L 628 4550 
Q 984 4650 1334 4700 
Q 1684 4750 2022 4750 
Q 2931 4750 3382 4451 
Q 3834 4153 3834 3553 
Q 3834 3144 3618 2883 
Q 3403 2622 2981 2516 
z
" transform="scale(0.015625)"/>
      </defs>
      <use xlink:href="#DejaVuSans-Bold-32"/>
      <use xlink:href="#DejaVuSans-Bold-30" x="69.580078"/>
      <use xlink:href="#DejaVuSans-Bold-33" x="139.160156"/>
      <use xlink:href="#DejaVuSans-Bold-38" x="208.740234"/>
     </g>
    </g>
    <g clip-path="url(#pfe4c00d600)">
     <!-- PDEs -->
     <g transform="translate(138.059793 298.40919) scale(0.1 -0.1)">
      <defs>
       <path id="DejaVuSans-Bold-50" d="M 588 4666 
L 2584 4666 
Q 3475 4666 3951 4270 
Q 4428 3875 4428 3144 
Q 4428 2409 3951 2014 
Q 3475 1619 2584 1619 
L 1791 1619 
L 1791 0 
L 588 0 
L 588 4666 
z
M 1791 3794 
L 1791 2491 
L 2456 2491 
Q 2806 2491 2997 2661 
Q 3188 2831 3188 3144 
Q 3188 3456 2997 3625 
Q 2806 3794 2456 3794 
L 1791 3794 
z
" transform="scale(0.015625)"/>
       <path id="DejaVuSans-Bold-45" d="M 588 4666 
L 3834 4666 
L 3834 3756 
L 1791 3756 
L 1791 2888 
L 3713 2888 
L 3713 1978 
L 1791 1978 
L 1791 909 
L 3903 909 
L 3903 0 
L 588 0 
L 588 4666 
z
" transform="scale(0.015625)"/>
      </defs>
      <use xlink:href="#DejaVuSans-Bold-50"/>
      <use xlink:href="#DejaVuSans-Bold-44" x="73.291016"/>
      <use xlink:href="#DejaVuSans-Bold-45" x="156.298828"/>
      <use xlink:href="#DejaVuSans-Bold-73" x="224.609375"/>
     </g>
    </g>
   </g>
   <g id="text_11">
    <g clip-path="url(#pfe4c00d600)">
     <!-- 2039 -->
     <g transform="translate(225.312238 287.172315) scale(0.1 -0.1)">
      <use xlink:href="#DejaVuSans-Bold-32"/>
      <use xlink:href="#DejaVuSans-Bold-30" x="69.580078"/>
      <use xlink:href="#DejaVuSans-Bold-33" x="139.160156"/>
      <use xlink:href="#DejaVuSans-Bold-39" x="208.740234"/>
     </g>
    </g>
    <g clip-path="url(#pfe4c00d600)">
     <!-- Analysis -->
     <g transform="translate(215.785676 298.370128) scale(0.1 -0.1)">
      <use xlink:href="#DejaVuSans-Bold-41"/>
      <use xlink:href="#DejaVuSans-Bold-6e" x="77.392578"/>
      <use xlink:href="#DejaVuSans-Bold-61" x="148.583984"/>
      <use xlink:href="#DejaVuSans-Bold-6c" x="216.064453"/>
      <use xlink:href="#DejaVuSans-Bold-79" x="250.341797"/>
      <use xlink:href="#DejaVuSans-Bold-73" x="315.527344"/>
      <use xlink:href="#DejaVuSans-Bold-69" x="375.048828"/>
      <use xlink:href="#DejaVuSans-Bold-73" x="409.326172"/>
     </g>
    </g>
   </g>
   <g id="text_12">
    <g clip-path="url(#pfe4c00d600)">
     <!-- 2040 -->
     <g transform="translate(312.273277 287.211378) scale(0.1 -0.1)">
      <use xlink:href="#DejaVuSans-Bold-32"/>
      <use xlink:href="#DejaVuSans-Bold-30" x="69.580078"/>
      <use xlink:href="#DejaVuSans-Bold-34" x="139.160156"/>
      <use xlink:href="#DejaVuSans-Bold-30" x="208.740234"/>
     </g>
    </g>
    <g clip-path="url(#pfe4c00d600)">
     <!-- Finance -->
     <g transform="translate(304.210777 298.40919) scale(0.1 -0.1)">
      <defs>
       <path id="DejaVuSans-Bold-46" d="M 588 4666 
L 3834 4666 
L 3834 3756 
L 1791 3756 
L 1791 2888 
L 3713 2888 
L 3713 1978 
L 1791 1978 
L 1791 0 
L 588 0 
L 588 4666 
z
" transform="scale(0.015625)"/>
      </defs>
      <use xlink:href="#DejaVuSans-Bold-46"/>
      <use xlink:href="#DejaVuSans-Bold-69" x="68.310547"/>
      <use xlink:href="#DejaVuSans-Bold-6e" x="102.587891"/>
      <use xlink:href="#DejaVuSans-Bold-61" x="173.779297"/>
      <use xlink:href="#DejaVuSans-Bold-6e" x="241.259766"/>
      <use xlink:href="#DejaVuSans-Bold-63" x="312.451172"/>
      <use xlink:href="#DejaVuSans-Bold-65" x="371.728516"/>
     </g>
    </g>
   </g>
   <g id="text_13">
    <g clip-path="url(#pfe4c00d600)">
     <!-- 2044 -->
     <g transform="translate(399.234316 287.211378) scale(0.1 -0.1)">
      <use xlink:href="#DejaVuSans-Bold-32"/>
      <use xlink:href="#DejaVuSans-Bold-30" x="69.580078"/>
      <use xlink:href="#DejaVuSans-Bold-34" x="139.160156"/>
      <use xlink:href="#DejaVuSans-Bold-34" x="208.740234"/>
     </g>
    </g>
    <g clip-path="url(#pfe4c00d600)">
     <!-- F&amp;F -->
     <g transform="translate(401.958535 298.40919) scale(0.1 -0.1)">
      <defs>
       <path id="DejaVuSans-Bold-26" d="M 2497 3097 
L 3775 1691 
Q 3941 1909 4027 2181 
Q 4113 2453 4128 2797 
L 5100 2797 
Q 5053 2228 4879 1784 
Q 4706 1341 4397 1006 
L 5313 0 
L 3988 0 
L 3681 341 
Q 3353 122 2990 15 
Q 2628 -91 2222 -91 
Q 1400 -91 892 342 
Q 384 775 384 1459 
Q 384 1916 607 2267 
Q 831 2619 1338 2950 
Q 1206 3116 1143 3281 
Q 1081 3447 1081 3628 
Q 1081 4138 1478 4444 
Q 1875 4750 2534 4750 
Q 2819 4750 3126 4704 
Q 3434 4659 3769 4569 
L 3769 3700 
Q 3475 3850 3212 3922 
Q 2950 3994 2700 3994 
Q 2459 3994 2326 3901 
Q 2194 3809 2194 3641 
Q 2194 3534 2270 3398 
Q 2347 3263 2497 3097 
z
M 1875 2322 
Q 1672 2175 1569 1989 
Q 1466 1803 1466 1581 
Q 1466 1222 1731 969 
Q 1997 716 2369 716 
Q 2578 716 2759 780 
Q 2941 844 3097 972 
L 1875 2322 
z
" transform="scale(0.015625)"/>
      </defs>
      <use xlink:href="#DejaVuSans-Bold-46"/>
      <use xlink:href="#DejaVuSans-Bold-26" x="68.310547"/>
      <use xlink:href="#DejaVuSans-Bold-46" x="155.517578"/>
     </g>
    </g>
   </g>
   <g id="text_14">
    <g clip-path="url(#pfe4c00d600)">
     <!-- 2045 -->
     <g transform="translate(486.195355 287.211378) scale(0.1 -0.1)">
      <use xlink:href="#DejaVuSans-Bold-32"/>
      <use xlink:href="#DejaVuSans-Bold-30" x="69.580078"/>
      <use xlink:href="#DejaVuSans-Bold-34" x="139.160156"/>
      <use xlink:href="#DejaVuSans-Bold-35" x="208.740234"/>
     </g>
    </g>
    <g clip-path="url(#pfe4c00d600)">
     <!-- VC -->
     <g transform="translate(492.571917 298.40919) scale(0.1 -0.1)">
      <use xlink:href="#DejaVuSans-Bold-56"/>
      <use xlink:href="#DejaVuSans-Bold-43" x="77.392578"/>
     </g>
    </g>
   </g>
   <g id="text_15">
    <g clip-path="url(#pfe4c00d600)">
     <!-- 2048 -->
     <g transform="translate(573.156394 287.211378) scale(0.1 -0.1)">
      <use xlink:href="#DejaVuSans-Bold-32"/>
      <use xlink:href="#DejaVuSans-Bold-30" x="69.580078"/>
      <use xlink:href="#DejaVuSans-Bold-34" x="139.160156"/>
      <use xlink:href="#DejaVuSans-Bold-38" x="208.740234"/>
     </g>
    </g>
    <g clip-path="url(#pfe4c00d600)">
     <!-- Service -->
     <g transform="translate(566.2853 298.40919) scale(0.1 -0.1)">
      <use xlink:href="#DejaVuSans-Bold-53"/>
      <use xlink:href="#DejaVuSans-Bold-65" x="72.021484"/>
      <use xlink:href="#DejaVuSans-Bold-72" x="139.84375"/>
      <use xlink:href="#DejaVuSans-Bold-76" x="189.160156"/>
      <use xlink:href="#DejaVuSans-Bold-69" x="254.345703"/>
      <use xlink:href="#DejaVuSans-Bold-63" x="288.623047"/>
      <use xlink:href="#DejaVuSans-Bold-65" x="347.900391"/>
     </g>
    </g>
   </g>
   <g id="text_16">
    <g clip-path="url(#pfe4c00d600)">
     <!-- 3006 -->
     <g transform="translate(51.39016 165.02956) scale(0.1 -0.1)">
      <use xlink:href="#DejaVuSans-Bold-33"/>
      <use xlink:href="#DejaVuSans-Bold-30" x="69.580078"/>
      <use xlink:href="#DejaVuSans-Bold-30" x="139.160156"/>
      <use xlink:href="#DejaVuSans-Bold-36" x="208.740234"/>
     </g>
    </g>
    <g clip-path="url(#pfe4c00d600)">
     <!-- GR -->
     <g transform="translate(57.351879 176.227372) scale(0.1 -0.1)">
      <defs>
       <path id="DejaVuSans-Bold-47" d="M 4781 347 
Q 4331 128 3847 18 
Q 3363 -91 2847 -91 
Q 1681 -91 1000 561 
Q 319 1213 319 2328 
Q 319 3456 1012 4103 
Q 1706 4750 2913 4750 
Q 3378 4750 3804 4662 
Q 4231 4575 4609 4403 
L 4609 3438 
Q 4219 3659 3833 3768 
Q 3447 3878 3059 3878 
Q 2341 3878 1952 3476 
Q 1563 3075 1563 2328 
Q 1563 1588 1938 1184 
Q 2313 781 3003 781 
Q 3191 781 3352 804 
Q 3513 828 3641 878 
L 3641 1784 
L 2906 1784 
L 2906 2591 
L 4781 2591 
L 4781 347 
z
" transform="scale(0.015625)"/>
      </defs>
      <use xlink:href="#DejaVuSans-Bold-47"/>
      <use xlink:href="#DejaVuSans-Bold-52" x="82.080078"/>
     </g>
    </g>
   </g>
   <g id="text_17">
    <g clip-path="url(#pfe4c00d600)">
     <!-- 3018 -->
     <g transform="translate(106.729003 165.02956) scale(0.1 -0.1)">
      <use xlink:href="#DejaVuSans-Bold-33"/>
      <use xlink:href="#DejaVuSans-Bold-30" x="69.580078"/>
      <use xlink:href="#DejaVuSans-Bold-31" x="139.160156"/>
      <use xlink:href="#DejaVuSans-Bold-38" x="208.740234"/>
     </g>
    </g>
    <g clip-path="url(#pfe4c00d600)">
     <!-- Numerics -->
     <g transform="translate(94.179784 176.227372) scale(0.1 -0.1)">
      <defs>
       <path id="DejaVuSans-Bold-4e" d="M 588 4666 
L 1931 4666 
L 3628 1466 
L 3628 4666 
L 4769 4666 
L 4769 0 
L 3425 0 
L 1728 3200 
L 1728 0 
L 588 0 
L 588 4666 
z
" transform="scale(0.015625)"/>
       <path id="DejaVuSans-Bold-75" d="M 500 1363 
L 500 3500 
L 1625 3500 
L 1625 3150 
Q 1625 2866 1622 2436 
Q 1619 2006 1619 1863 
Q 1619 1441 1641 1255 
Q 1663 1069 1716 984 
Q 1784 875 1895 815 
Q 2006 756 2150 756 
Q 2500 756 2700 1025 
Q 2900 1294 2900 1772 
L 2900 3500 
L 4019 3500 
L 4019 0 
L 2900 0 
L 2900 506 
Q 2647 200 2364 54 
Q 2081 -91 1741 -91 
Q 1134 -91 817 281 
Q 500 653 500 1363 
z
" transform="scale(0.015625)"/>
      </defs>
      <use xlink:href="#DejaVuSans-Bold-4e"/>
      <use xlink:href="#DejaVuSans-Bold-75" x="83.691406"/>
      <use xlink:href="#DejaVuSans-Bold-6d" x="154.882812"/>
      <use xlink:href="#DejaVuSans-Bold-65" x="259.082031"/>
      <use xlink:href="#DejaVuSans-Bold-72" x="326.904297"/>
      <use xlink:href="#DejaVuSans-Bold-69" x="376.220703"/>
      <use xlink:href="#DejaVuSans-Bold-63" x="410.498047"/>
      <use xlink:href="#DejaVuSans-Bold-73" x="469.775391"/>
     </g>
    </g>
   </g>
   <g id="text_18">
    <g clip-path="url(#pfe4c00d600)">
     <!-- 3022 -->
     <g transform="translate(162.067846 165.02956) scale(0.1 -0.1)">
      <use xlink:href="#DejaVuSans-Bold-33"/>
      <use xlink:href="#DejaVuSans-Bold-30" x="69.580078"/>
      <use xlink:href="#DejaVuSans-Bold-32" x="139.160156"/>
      <use xlink:href="#DejaVuSans-Bold-32" x="208.740234"/>
     </g>
    </g>
    <g clip-path="url(#pfe4c00d600)">
     <!-- MFin -->
     <g transform="translate(162.318627 176.227372) scale(0.1 -0.1)">
      <use xlink:href="#DejaVuSans-Bold-4d"/>
      <use xlink:href="#DejaVuSans-Bold-46" x="99.511719"/>
      <use xlink:href="#DejaVuSans-Bold-69" x="167.822266"/>
      <use xlink:href="#DejaVuSans-Bold-6e" x="202.099609"/>
     </g>
    </g>
   </g>
   <g id="text_19">
    <g clip-path="url(#pfe4c00d600)">
     <!-- 3052 -->
     <g transform="translate(217.406689 165.02956) scale(0.1 -0.1)">
      <use xlink:href="#DejaVuSans-Bold-33"/>
      <use xlink:href="#DejaVuSans-Bold-30" x="69.580078"/>
      <use xlink:href="#DejaVuSans-Bold-35" x="139.160156"/>
      <use xlink:href="#DejaVuSans-Bold-32" x="208.740234"/>
     </g>
    </g>
    <g clip-path="url(#pfe4c00d600)">
     <!-- Bio -->
     <g transform="translate(222.362158 176.227372) scale(0.1 -0.1)">
      <defs>
       <path id="DejaVuSans-Bold-42" d="M 2456 2859 
Q 2741 2859 2887 2984 
Q 3034 3109 3034 3353 
Q 3034 3594 2887 3720 
Q 2741 3847 2456 3847 
L 1791 3847 
L 1791 2859 
L 2456 2859 
z
M 2497 819 
Q 2859 819 3042 972 
Q 3225 1125 3225 1434 
Q 3225 1738 3044 1889 
Q 2863 2041 2497 2041 
L 1791 2041 
L 1791 819 
L 2497 819 
z
M 3616 2497 
Q 4003 2384 4215 2081 
Q 4428 1778 4428 1338 
Q 4428 663 3972 331 
Q 3516 0 2584 0 
L 588 0 
L 588 4666 
L 2394 4666 
Q 3366 4666 3802 4372 
Q 4238 4078 4238 3431 
Q 4238 3091 4078 2852 
Q 3919 2613 3616 2497 
z
" transform="scale(0.015625)"/>
       <path id="DejaVuSans-Bold-6f" d="M 2203 2784 
Q 1831 2784 1636 2517 
Q 1441 2250 1441 1747 
Q 1441 1244 1636 976 
Q 1831 709 2203 709 
Q 2569 709 2762 976 
Q 2956 1244 2956 1747 
Q 2956 2250 2762 2517 
Q 2569 2784 2203 2784 
z
M 2203 3584 
Q 3106 3584 3614 3096 
Q 4122 2609 4122 1747 
Q 4122 884 3614 396 
Q 3106 -91 2203 -91 
Q 1297 -91 786 396 
Q 275 884 275 1747 
Q 275 2609 786 3096 
Q 1297 3584 2203 3584 
z
" transform="scale(0.015625)"/>
      </defs>
      <use xlink:href="#DejaVuSans-Bold-42"/>
      <use xlink:href="#DejaVuSans-Bold-69" x="76.220703"/>
      <use xlink:href="#DejaVuSans-Bold-6f" x="110.498047"/>
     </g>
    </g>
   </g>
   <g id="text_20">
    <g clip-path="url(#pfe4c00d600)">
     <!-- 3063 -->
     <g transform="translate(272.745532 165.02956) scale(0.1 -0.1)">
      <use xlink:href="#DejaVuSans-Bold-33"/>
      <use xlink:href="#DejaVuSans-Bold-30" x="69.580078"/>
      <use xlink:href="#DejaVuSans-Bold-36" x="139.160156"/>
      <use xlink:href="#DejaVuSans-Bold-33" x="208.740234"/>
     </g>
    </g>
    <g clip-path="url(#pfe4c00d600)">
     <!-- AM1 -->
     <g transform="translate(274.336938 176.227372) scale(0.1 -0.1)">
      <use xlink:href="#DejaVuSans-Bold-41"/>
      <use xlink:href="#DejaVuSans-Bold-4d" x="77.392578"/>
      <use xlink:href="#DejaVuSans-Bold-31" x="176.904297"/>
     </g>
    </g>
   </g>
   <g id="text_21">
    <g clip-path="url(#pfe4c00d600)">
     <!-- 3066 -->
     <g transform="translate(328.084375 165.02956) scale(0.1 -0.1)">
      <use xlink:href="#DejaVuSans-Bold-33"/>
      <use xlink:href="#DejaVuSans-Bold-30" x="69.580078"/>
      <use xlink:href="#DejaVuSans-Bold-36" x="139.160156"/>
      <use xlink:href="#DejaVuSans-Bold-36" x="208.740234"/>
     </g>
    </g>
    <g clip-path="url(#pfe4c00d600)">
     <!-- AM2 -->
     <g transform="translate(329.675781 176.227372) scale(0.1 -0.1)">
      <use xlink:href="#DejaVuSans-Bold-41"/>
      <use xlink:href="#DejaVuSans-Bold-4d" x="77.392578"/>
      <use xlink:href="#DejaVuSans-Bold-32" x="176.904297"/>
     </g>
    </g>
   </g>
   <g id="text_22">
    <g clip-path="url(#pfe4c00d600)">
     <!-- 3072 -->
     <g transform="translate(383.423218 165.02956) scale(0.1 -0.1)">
      <use xlink:href="#DejaVuSans-Bold-33"/>
      <use xlink:href="#DejaVuSans-Bold-30" x="69.580078"/>
      <use xlink:href="#DejaVuSans-Bold-37" x="139.160156"/>
      <use xlink:href="#DejaVuSans-Bold-32" x="208.740234"/>
     </g>
    </g>
    <g clip-path="url(#pfe4c00d600)">
     <!-- AFluids -->
     <g transform="translate(376.511499 176.227372) scale(0.1 -0.1)">
      <defs>
       <path id="DejaVuSans-Bold-64" d="M 2919 2988 
L 2919 4863 
L 4044 4863 
L 4044 0 
L 2919 0 
L 2919 506 
Q 2688 197 2409 53 
Q 2131 -91 1766 -91 
Q 1119 -91 703 423 
Q 288 938 288 1747 
Q 288 2556 703 3070 
Q 1119 3584 1766 3584 
Q 2128 3584 2408 3439 
Q 2688 3294 2919 2988 
z
M 2181 722 
Q 2541 722 2730 984 
Q 2919 1247 2919 1747 
Q 2919 2247 2730 2509 
Q 2541 2772 2181 2772 
Q 1825 2772 1636 2509 
Q 1447 2247 1447 1747 
Q 1447 1247 1636 984 
Q 1825 722 2181 722 
z
" transform="scale(0.015625)"/>
      </defs>
      <use xlink:href="#DejaVuSans-Bold-41"/>
      <use xlink:href="#DejaVuSans-Bold-46" x="77.392578"/>
      <use xlink:href="#DejaVuSans-Bold-6c" x="145.703125"/>
      <use xlink:href="#DejaVuSans-Bold-75" x="179.980469"/>
      <use xlink:href="#DejaVuSans-Bold-69" x="251.171875"/>
      <use xlink:href="#DejaVuSans-Bold-64" x="285.449219"/>
      <use xlink:href="#DejaVuSans-Bold-73" x="357.03125"/>
     </g>
    </g>
   </g>
   <g id="text_23">
    <g clip-path="url(#pfe4c00d600)">
     <!-- 3083 -->
     <g transform="translate(438.762061 165.02956) scale(0.1 -0.1)">
      <use xlink:href="#DejaVuSans-Bold-33"/>
      <use xlink:href="#DejaVuSans-Bold-30" x="69.580078"/>
      <use xlink:href="#DejaVuSans-Bold-38" x="139.160156"/>
      <use xlink:href="#DejaVuSans-Bold-33" x="208.740234"/>
     </g>
    </g>
    <g clip-path="url(#pfe4c00d600)">
     <!-- APDEs -->
     <g transform="translate(434.601123 176.227372) scale(0.1 -0.1)">
      <use xlink:href="#DejaVuSans-Bold-41"/>
      <use xlink:href="#DejaVuSans-Bold-50" x="77.392578"/>
      <use xlink:href="#DejaVuSans-Bold-44" x="150.683594"/>
      <use xlink:href="#DejaVuSans-Bold-45" x="233.691406"/>
      <use xlink:href="#DejaVuSans-Bold-73" x="302.001953"/>
     </g>
    </g>
   </g>
   <g id="text_24">
    <g clip-path="url(#pfe4c00d600)">
     <!-- 3084 -->
     <g transform="translate(494.100904 165.02956) scale(0.1 -0.1)">
      <use xlink:href="#DejaVuSans-Bold-33"/>
      <use xlink:href="#DejaVuSans-Bold-30" x="69.580078"/>
      <use xlink:href="#DejaVuSans-Bold-38" x="139.160156"/>
      <use xlink:href="#DejaVuSans-Bold-34" x="208.740234"/>
     </g>
    </g>
    <g clip-path="url(#pfe4c00d600)">
     <!-- ITMs -->
     <g transform="translate(494.793873 176.227372) scale(0.1 -0.1)">
      <defs>
       <path id="DejaVuSans-Bold-49" d="M 588 4666 
L 1791 4666 
L 1791 0 
L 588 0 
L 588 4666 
z
" transform="scale(0.015625)"/>
      </defs>
      <use xlink:href="#DejaVuSans-Bold-49"/>
      <use xlink:href="#DejaVuSans-Bold-54" x="37.207031"/>
      <use xlink:href="#DejaVuSans-Bold-4d" x="105.419922"/>
      <use xlink:href="#DejaVuSans-Bold-73" x="204.931641"/>
     </g>
    </g>
   </g>
   <g id="text_25">
    <g clip-path="url(#pfe4c00d600)">
     <!-- 3090 -->
     <g transform="translate(549.439747 165.02956) scale(0.1 -0.1)">
      <use xlink:href="#DejaVuSans-Bold-33"/>
      <use xlink:href="#DejaVuSans-Bold-30" x="69.580078"/>
      <use xlink:href="#DejaVuSans-Bold-39" x="139.160156"/>
      <use xlink:href="#DejaVuSans-Bold-30" x="208.740234"/>
     </g>
    </g>
    <g clip-path="url(#pfe4c00d600)">
     <!-- Networks -->
     <g transform="translate(536.568653 176.227372) scale(0.1 -0.1)">
      <defs>
       <path id="DejaVuSans-Bold-77" d="M 225 3500 
L 1313 3500 
L 1900 1088 
L 2491 3500 
L 3425 3500 
L 4013 1113 
L 4603 3500 
L 5691 3500 
L 4769 0 
L 3547 0 
L 2956 2406 
L 2369 0 
L 1147 0 
L 225 3500 
z
" transform="scale(0.015625)"/>
       <path id="DejaVuSans-Bold-6b" d="M 538 4863 
L 1656 4863 
L 1656 2216 
L 2944 3500 
L 4244 3500 
L 2534 1894 
L 4378 0 
L 3022 0 
L 1656 1459 
L 1656 0 
L 538 0 
L 538 4863 
z
" transform="scale(0.015625)"/>
      </defs>
      <use xlink:href="#DejaVuSans-Bold-4e"/>
      <use xlink:href="#DejaVuSans-Bold-65" x="83.691406"/>
      <use xlink:href="#DejaVuSans-Bold-74" x="151.513672"/>
      <use xlink:href="#DejaVuSans-Bold-77" x="199.316406"/>
      <use xlink:href="#DejaVuSans-Bold-6f" x="291.699219"/>
      <use xlink:href="#DejaVuSans-Bold-72" x="360.400391"/>
      <use xlink:href="#DejaVuSans-Bold-6b" x="409.716797"/>
      <use xlink:href="#DejaVuSans-Bold-73" x="476.220703"/>
     </g>
    </g>
   </g>
   <g id="text_26">
    <g clip-path="url(#pfe4c00d600)">
     <!-- 3092 -->
     <g transform="translate(604.77859 164.990497) scale(0.1 -0.1)">
      <use xlink:href="#DejaVuSans-Bold-33"/>
      <use xlink:href="#DejaVuSans-Bold-30" x="69.580078"/>
      <use xlink:href="#DejaVuSans-Bold-39" x="139.160156"/>
      <use xlink:href="#DejaVuSans-Bold-32" x="208.740234"/>
     </g>
    </g>
    <g clip-path="url(#pfe4c00d600)">
     <!-- Project -->
     <g transform="translate(598.669215 176.18831) scale(0.1 -0.1)">
      <defs>
       <path id="DejaVuSans-Bold-6a" d="M 538 3500 
L 1656 3500 
L 1656 63 
Q 1656 -641 1318 -1011 
Q 981 -1381 341 -1381 
L -213 -1381 
L -213 -647 
L -19 -647 
Q 300 -647 419 -503 
Q 538 -359 538 63 
L 538 3500 
z
M 538 4863 
L 1656 4863 
L 1656 3950 
L 538 3950 
L 538 4863 
z
" transform="scale(0.015625)"/>
      </defs>
      <use xlink:href="#DejaVuSans-Bold-50"/>
      <use xlink:href="#DejaVuSans-Bold-72" x="73.291016"/>
      <use xlink:href="#DejaVuSans-Bold-6f" x="122.607422"/>
      <use xlink:href="#DejaVuSans-Bold-6a" x="191.308594"/>
      <use xlink:href="#DejaVuSans-Bold-65" x="225.585938"/>
      <use xlink:href="#DejaVuSans-Bold-63" x="293.408203"/>
      <use xlink:href="#DejaVuSans-Bold-74" x="352.685547"/>
     </g>
    </g>
   </g>
   <g id="text_27">
    <g clip-path="url(#pfe4c00d600)">
     <!-- 6109 -->
     <g transform="translate(51.39016 42.847741) scale(0.1 -0.1)">
      <use xlink:href="#DejaVuSans-Bold-36"/>
      <use xlink:href="#DejaVuSans-Bold-31" x="69.580078"/>
      <use xlink:href="#DejaVuSans-Bold-30" x="139.160156"/>
      <use xlink:href="#DejaVuSans-Bold-39" x="208.740234"/>
     </g>
    </g>
    <g clip-path="url(#pfe4c00d600)">
     <!-- DiffGeom -->
     <g transform="translate(38.950316 54.045554) scale(0.1 -0.1)">
      <defs>
       <path id="DejaVuSans-Bold-66" d="M 2841 4863 
L 2841 4128 
L 2222 4128 
Q 1984 4128 1890 4042 
Q 1797 3956 1797 3744 
L 1797 3500 
L 2753 3500 
L 2753 2700 
L 1797 2700 
L 1797 0 
L 678 0 
L 678 2700 
L 122 2700 
L 122 3500 
L 678 3500 
L 678 3744 
Q 678 4316 997 4589 
Q 1316 4863 1984 4863 
L 2841 4863 
z
" transform="scale(0.015625)"/>
      </defs>
      <use xlink:href="#DejaVuSans-Bold-44"/>
      <use xlink:href="#DejaVuSans-Bold-69" x="83.007812"/>
      <use xlink:href="#DejaVuSans-Bold-66" x="117.285156"/>
      <use xlink:href="#DejaVuSans-Bold-66" x="160.791016"/>
      <use xlink:href="#DejaVuSans-Bold-47" x="204.296875"/>
      <use xlink:href="#DejaVuSans-Bold-65" x="286.376953"/>
      <use xlink:href="#DejaVuSans-Bold-6f" x="354.199219"/>
      <use xlink:href="#DejaVuSans-Bold-6d" x="422.900391"/>
     </g>
    </g>
   </g>
   <g id="text_28">
    <g clip-path="url(#pfe4c00d600)">
     <!-- 6129 -->
     <g transform="translate(106.729003 42.847741) scale(0.1 -0.1)">
      <use xlink:href="#DejaVuSans-Bold-36"/>
      <use xlink:href="#DejaVuSans-Bold-31" x="69.580078"/>
      <use xlink:href="#DejaVuSans-Bold-32" x="139.160156"/>
      <use xlink:href="#DejaVuSans-Bold-39" x="208.740234"/>
     </g>
    </g>
    <g clip-path="url(#pfe4c00d600)">
     <!-- AM1 -->
     <g transform="translate(108.320409 54.045554) scale(0.1 -0.1)">
      <use xlink:href="#DejaVuSans-Bold-41"/>
      <use xlink:href="#DejaVuSans-Bold-4d" x="77.392578"/>
      <use xlink:href="#DejaVuSans-Bold-31" x="176.904297"/>
     </g>
    </g>
   </g>
   <g id="text_29">
    <g clip-path="url(#pfe4c00d600)">
     <!-- 6130 -->
     <g transform="translate(162.067846 42.847741) scale(0.1 -0.1)">
      <use xlink:href="#DejaVuSans-Bold-36"/>
      <use xlink:href="#DejaVuSans-Bold-31" x="69.580078"/>
      <use xlink:href="#DejaVuSans-Bold-33" x="139.160156"/>
      <use xlink:href="#DejaVuSans-Bold-30" x="208.740234"/>
     </g>
    </g>
    <g clip-path="url(#pfe4c00d600)">
     <!-- AM2 -->
     <g transform="translate(163.659252 54.045554) scale(0.1 -0.1)">
      <use xlink:href="#DejaVuSans-Bold-41"/>
      <use xlink:href="#DejaVuSans-Bold-4d" x="77.392578"/>
      <use xlink:href="#DejaVuSans-Bold-32" x="176.904297"/>
     </g>
    </g>
   </g>
   <g id="text_30">
    <g clip-path="url(#pfe4c00d600)">
     <!-- 6139 -->
     <g transform="translate(217.406689 42.847741) scale(0.1 -0.1)">
      <use xlink:href="#DejaVuSans-Bold-36"/>
      <use xlink:href="#DejaVuSans-Bold-31" x="69.580078"/>
      <use xlink:href="#DejaVuSans-Bold-33" x="139.160156"/>
      <use xlink:href="#DejaVuSans-Bold-39" x="208.740234"/>
     </g>
    </g>
    <g clip-path="url(#pfe4c00d600)">
     <!-- AGR -->
     <g transform="translate(219.498877 54.045554) scale(0.1 -0.1)">
      <use xlink:href="#DejaVuSans-Bold-41"/>
      <use xlink:href="#DejaVuSans-Bold-47" x="77.392578"/>
      <use xlink:href="#DejaVuSans-Bold-52" x="159.472656"/>
     </g>
    </g>
   </g>
   <g id="text_31">
    <g clip-path="url(#pfe4c00d600)">
     <!-- 6140 -->
     <g transform="translate(272.745532 42.847741) scale(0.1 -0.1)">
      <use xlink:href="#DejaVuSans-Bold-36"/>
      <use xlink:href="#DejaVuSans-Bold-31" x="69.580078"/>
      <use xlink:href="#DejaVuSans-Bold-34" x="139.160156"/>
      <use xlink:href="#DejaVuSans-Bold-30" x="208.740234"/>
     </g>
    </g>
    <g clip-path="url(#pfe4c00d600)">
     <!-- Networks -->
     <g transform="translate(259.874438 54.045554) scale(0.1 -0.1)">
      <use xlink:href="#DejaVuSans-Bold-4e"/>
      <use xlink:href="#DejaVuSans-Bold-65" x="83.691406"/>
      <use xlink:href="#DejaVuSans-Bold-74" x="151.513672"/>
      <use xlink:href="#DejaVuSans-Bold-77" x="199.316406"/>
      <use xlink:href="#DejaVuSans-Bold-6f" x="291.699219"/>
      <use xlink:href="#DejaVuSans-Bold-72" x="360.400391"/>
      <use xlink:href="#DejaVuSans-Bold-6b" x="409.716797"/>
      <use xlink:href="#DejaVuSans-Bold-73" x="476.220703"/>
     </g>
    </g>
   </g>
   <g id="text_32">
    <g clip-path="url(#pfe4c00d600)">
     <!-- 6141 -->
     <g transform="translate(328.084375 42.847741) scale(0.1 -0.1)">
      <use xlink:href="#DejaVuSans-Bold-36"/>
      <use xlink:href="#DejaVuSans-Bold-31" x="69.580078"/>
      <use xlink:href="#DejaVuSans-Bold-34" x="139.160156"/>
      <use xlink:href="#DejaVuSans-Bold-31" x="208.740234"/>
     </g>
    </g>
    <g clip-path="url(#pfe4c00d600)">
     <!-- Numerics -->
     <g transform="translate(315.535156 54.045554) scale(0.1 -0.1)">
      <use xlink:href="#DejaVuSans-Bold-4e"/>
      <use xlink:href="#DejaVuSans-Bold-75" x="83.691406"/>
      <use xlink:href="#DejaVuSans-Bold-6d" x="154.882812"/>
      <use xlink:href="#DejaVuSans-Bold-65" x="259.082031"/>
      <use xlink:href="#DejaVuSans-Bold-72" x="326.904297"/>
      <use xlink:href="#DejaVuSans-Bold-69" x="376.220703"/>
      <use xlink:href="#DejaVuSans-Bold-63" x="410.498047"/>
      <use xlink:href="#DejaVuSans-Bold-73" x="469.775391"/>
     </g>
    </g>
   </g>
   <g id="text_33">
    <g clip-path="url(#pfe4c00d600)">
     <!-- 6144 -->
     <g transform="translate(383.423218 42.808679) scale(0.1 -0.1)">
      <use xlink:href="#DejaVuSans-Bold-36"/>
      <use xlink:href="#DejaVuSans-Bold-31" x="69.580078"/>
      <use xlink:href="#DejaVuSans-Bold-34" x="139.160156"/>
      <use xlink:href="#DejaVuSans-Bold-34" x="208.740234"/>
     </g>
    </g>
    <g clip-path="url(#pfe4c00d600)">
     <!-- Project -->
     <g transform="translate(377.313843 54.006491) scale(0.1 -0.1)">
      <use xlink:href="#DejaVuSans-Bold-50"/>
      <use xlink:href="#DejaVuSans-Bold-72" x="73.291016"/>
      <use xlink:href="#DejaVuSans-Bold-6f" x="122.607422"/>
      <use xlink:href="#DejaVuSans-Bold-6a" x="191.308594"/>
      <use xlink:href="#DejaVuSans-Bold-65" x="225.585938"/>
      <use xlink:href="#DejaVuSans-Bold-63" x="293.408203"/>
      <use xlink:href="#DejaVuSans-Bold-74" x="352.685547"/>
     </g>
    </g>
   </g>
   <g id="text_34">
    <g clip-path="url(#pfe4c00d600)">
     <!-- 6149 -->
     <g transform="translate(438.762061 42.808679) scale(0.1 -0.1)">
      <use xlink:href="#DejaVuSans-Bold-36"/>
      <use xlink:href="#DejaVuSans-Bold-31" x="69.580078"/>
      <use xlink:href="#DejaVuSans-Bold-34" x="139.160156"/>
      <use xlink:href="#DejaVuSans-Bold-39" x="208.740234"/>
     </g>
    </g>
    <g clip-path="url(#pfe4c00d600)">
     <!-- Modelling -->
     <g transform="translate(425.015967 54.006491) scale(0.1 -0.1)">
      <defs>
       <path id="DejaVuSans-Bold-67" d="M 2919 594 
Q 2688 288 2409 144 
Q 2131 0 1766 0 
Q 1125 0 706 504 
Q 288 1009 288 1791 
Q 288 2575 706 3076 
Q 1125 3578 1766 3578 
Q 2131 3578 2409 3434 
Q 2688 3291 2919 2981 
L 2919 3500 
L 4044 3500 
L 4044 353 
Q 4044 -491 3511 -936 
Q 2978 -1381 1966 -1381 
Q 1638 -1381 1331 -1331 
Q 1025 -1281 716 -1178 
L 716 -306 
Q 1009 -475 1290 -558 
Q 1572 -641 1856 -641 
Q 2406 -641 2662 -400 
Q 2919 -159 2919 353 
L 2919 594 
z
M 2181 2772 
Q 1834 2772 1640 2515 
Q 1447 2259 1447 1791 
Q 1447 1309 1634 1061 
Q 1822 813 2181 813 
Q 2531 813 2725 1069 
Q 2919 1325 2919 1791 
Q 2919 2259 2725 2515 
Q 2531 2772 2181 2772 
z
" transform="scale(0.015625)"/>
      </defs>
      <use xlink:href="#DejaVuSans-Bold-4d"/>
      <use xlink:href="#DejaVuSans-Bold-6f" x="99.511719"/>
      <use xlink:href="#DejaVuSans-Bold-64" x="168.212891"/>
      <use xlink:href="#DejaVuSans-Bold-65" x="239.794922"/>
      <use xlink:href="#DejaVuSans-Bold-6c" x="307.617188"/>
      <use xlink:href="#DejaVuSans-Bold-6c" x="341.894531"/>
      <use xlink:href="#DejaVuSans-Bold-69" x="376.171875"/>
      <use xlink:href="#DejaVuSans-Bold-6e" x="410.449219"/>
      <use xlink:href="#DejaVuSans-Bold-67" x="481.640625"/>
     </g>
    </g>
   </g>
   <g id="text_35">
    <g clip-path="url(#pfe4c00d600)">
     <!-- 6162 -->
     <g transform="translate(494.100904 42.847741) scale(0.1 -0.1)">
      <use xlink:href="#DejaVuSans-Bold-36"/>
      <use xlink:href="#DejaVuSans-Bold-31" x="69.580078"/>
      <use xlink:href="#DejaVuSans-Bold-36" x="139.160156"/>
      <use xlink:href="#DejaVuSans-Bold-32" x="208.740234"/>
     </g>
    </g>
    <g clip-path="url(#pfe4c00d600)">
     <!-- ITMs -->
     <g transform="translate(494.793873 54.045554) scale(0.1 -0.1)">
      <use xlink:href="#DejaVuSans-Bold-49"/>
      <use xlink:href="#DejaVuSans-Bold-54" x="37.207031"/>
      <use xlink:href="#DejaVuSans-Bold-4d" x="105.419922"/>
      <use xlink:href="#DejaVuSans-Bold-73" x="204.931641"/>
     </g>
    </g>
   </g>
   <g id="text_36">
    <g clip-path="url(#pfe4c00d600)">
     <!-- 6163 -->
     <g transform="translate(549.439747 42.847741) scale(0.1 -0.1)">
      <use xlink:href="#DejaVuSans-Bold-36"/>
      <use xlink:href="#DejaVuSans-Bold-31" x="69.580078"/>
      <use xlink:href="#DejaVuSans-Bold-36" x="139.160156"/>
      <use xlink:href="#DejaVuSans-Bold-33" x="208.740234"/>
     </g>
    </g>
    <g clip-path="url(#pfe4c00d600)">
     <!-- APDEs -->
     <g transform="translate(545.278809 54.045554) scale(0.1 -0.1)">
      <use xlink:href="#DejaVuSans-Bold-41"/>
      <use xlink:href="#DejaVuSans-Bold-50" x="77.392578"/>
      <use xlink:href="#DejaVuSans-Bold-44" x="150.683594"/>
      <use xlink:href="#DejaVuSans-Bold-45" x="233.691406"/>
      <use xlink:href="#DejaVuSans-Bold-73" x="302.001953"/>
     </g>
    </g>
   </g>
   <g id="text_37">
    <g clip-path="url(#pfe4c00d600)">
     <!-- 6172 -->
     <g transform="translate(604.77859 42.847741) scale(0.1 -0.1)">
      <use xlink:href="#DejaVuSans-Bold-36"/>
      <use xlink:href="#DejaVuSans-Bold-31" x="69.580078"/>
      <use xlink:href="#DejaVuSans-Bold-37" x="139.160156"/>
      <use xlink:href="#DejaVuSans-Bold-32" x="208.740234"/>
     </g>
    </g>
    <g clip-path="url(#pfe4c00d600)">
     <!-- GWs -->
     <g transform="translate(606.099684 54.045554) scale(0.1 -0.1)">
      <defs>
       <path id="DejaVuSans-Bold-57" d="M 191 4666 
L 1344 4666 
L 2150 1275 
L 2950 4666 
L 4109 4666 
L 4909 1275 
L 5716 4666 
L 6859 4666 
L 5759 0 
L 4372 0 
L 3525 3547 
L 2688 0 
L 1300 0 
L 191 4666 
z
" transform="scale(0.015625)"/>
      </defs>
      <use xlink:href="#DejaVuSans-Bold-47"/>
      <use xlink:href="#DejaVuSans-Bold-57" x="82.080078"/>
      <use xlink:href="#DejaVuSans-Bold-73" x="192.382812"/>
     </g>
    </g>
   </g>
  </g>
 </g>
 <defs>
  <clipPath id="pfe4c00d600">
   <rect x="7.2" y="7.2" width="669.6" height="443.52"/>
  </clipPath>
 </defs>
</svg>
