<?xml version="1.0" encoding="utf-8" standalone="no"?>
<!DOCTYPE svg PUBLIC "-//W3C//DTD SVG 1.1//EN"
  "http://www.w3.org/Graphics/SVG/1.1/DTD/svg11.dtd">
<svg xmlns:xlink="http://www.w3.org/1999/xlink" width="684pt" height="457.92pt" viewBox="0 0 684 457.92" xmlns="http://www.w3.org/2000/svg" version="1.1">
 <metadata>
  <rdf:RDF xmlns:dc="http://purl.org/dc/elements/1.1/" xmlns:cc="http://creativecommons.org/ns#" xmlns:rdf="http://www.w3.org/1999/02/22-rdf-syntax-ns#">
   <cc:Work>
    <dc:type rdf:resource="http://purl.org/dc/dcmitype/StillImage"/>
    <dc:date>2023-12-01T11:00:03.216215</dc:date>
    <dc:format>image/svg+xml</dc:format>
    <dc:creator>
     <cc:Agent>
      <dc:title>Matplotlib v3.7.2, https://matplotlib.org/</dc:title>
     </cc:Agent>
    </dc:creator>
   </cc:Work>
  </rdf:RDF>
 </metadata>
 <defs>
  <style type="text/css">*{stroke-linejoin: round; stroke-linecap: butt}</style>
 </defs>
 <g id="figure_1">
  <g id="patch_1">
   <path d="M 0 457.92 
L 684 457.92 
L 684 0 
L 0 0 
z
" style="fill: #ffffff"/>
  </g>
  <g id="axes_1">
   <g id="patch_2">
    <path d="M 67.127913 389.946328 
Q 69.592695 351.142653 67.19889 313.454762 
" clip-path="url(#p5379bf7f47)" style="fill: none; stroke: #000000; stroke-linecap: round"/>
    <path d="M 65.456467 317.573496 
L 67.19889 313.454762 
L 69.448423 317.31994 
z
" clip-path="url(#p5379bf7f47)" style="stroke: #000000; stroke-linecap: round"/>
   </g>
   <g id="patch_3">
    <path d="M 86.510344 405.124398 
Q 208.93164 363.088364 321.486915 301.467401 
" clip-path="url(#p5379bf7f47)" style="fill: none; stroke: #000000; stroke-linecap: round"/>
    <path d="M 317.017882 301.633965 
L 321.486915 301.467401 
L 318.938746 305.142566 
z
" clip-path="url(#p5379bf7f47)" style="stroke: #000000; stroke-linecap: round"/>
   </g>
   <g id="patch_4">
    <path d="M 166.668009 413.833982 
Q 183.891104 414.584338 199.997225 413.882475 
" clip-path="url(#p5379bf7f47)" style="fill: none; stroke: #000000; stroke-linecap: round"/>
    <path d="M 195.913946 412.058516 
L 199.997225 413.882475 
L 196.08809 416.054723 
z
" clip-path="url(#p5379bf7f47)" style="stroke: #000000; stroke-linecap: round"/>
   </g>
   <g id="patch_5">
    <path d="M 166.628201 414.250362 
Q 262.943766 422.073356 358.144966 414.340993 
" clip-path="url(#p5379bf7f47)" style="fill: none; stroke: #000000; stroke-linecap: round"/>
    <path d="M 353.996186 412.671376 
L 358.144966 414.340993 
L 354.320005 416.658247 
z
" clip-path="url(#p5379bf7f47)" style="stroke: #000000; stroke-linecap: round"/>
   </g>
   <g id="patch_6">
    <path d="M 166.629408 414.30273 
Q 302.475852 425.974132 437.208367 414.397821 
" clip-path="url(#p5379bf7f47)" style="fill: none; stroke: #000000; stroke-linecap: round"/>
    <path d="M 433.05184 412.747584 
L 437.208367 414.397821 
L 433.394261 416.732901 
z
" clip-path="url(#p5379bf7f47)" style="stroke: #000000; stroke-linecap: round"/>
   </g>
   <g id="patch_7">
    <path d="M 166.620964 414.354235 
Q 381.529245 433.828002 595.324054 414.454861 
" clip-path="url(#p5379bf7f47)" style="fill: none; stroke: #000000; stroke-linecap: round"/>
    <path d="M 591.159885 412.824005 
L 595.324054 414.454861 
L 591.520868 416.807683 
z
" clip-path="url(#p5379bf7f47)" style="stroke: #000000; stroke-linecap: round"/>
   </g>
   <g id="patch_8">
    <path d="M 166.203899 407.45561 
Q 340.87976 368.244546 504.868374 299.267481 
" clip-path="url(#p5379bf7f47)" style="fill: none; stroke: #000000; stroke-linecap: round"/>
    <path d="M 500.405826 298.974802 
L 504.868374 299.267481 
L 501.956702 302.661912 
z
" clip-path="url(#p5379bf7f47)" style="stroke: #000000; stroke-linecap: round"/>
   </g>
   <g id="patch_9">
    <path d="M 164.659195 402.853242 
Q 365.005455 309.166573 544.284464 181.567418 
" clip-path="url(#p5379bf7f47)" style="fill: none; stroke: #000000; stroke-linecap: round"/>
    <path d="M 539.86588 182.257433 
L 544.284464 181.567418 
L 542.185326 185.516294 
z
" clip-path="url(#p5379bf7f47)" style="stroke: #000000; stroke-linecap: round"/>
   </g>
   <g id="patch_10">
    <path d="M 154.375771 392.239808 
Q 231.880298 235.315734 280.250787 68.275918 
" clip-path="url(#p5379bf7f47)" style="fill: none; stroke: #000000; stroke-linecap: round"/>
    <path d="M 277.217121 71.561776 
L 280.250787 68.275918 
L 281.059274 72.674366 
z
" clip-path="url(#p5379bf7f47)" style="stroke: #000000; stroke-linecap: round"/>
   </g>
   <g id="patch_11">
    <path d="M 242.721228 400.951424 
Q 404.373211 305.337018 545.663637 183.305151 
" clip-path="url(#p5379bf7f47)" style="fill: none; stroke: #000000; stroke-linecap: round"/>
    <path d="M 541.329142 184.40613 
L 545.663637 183.305151 
L 543.943723 187.433334 
z
" clip-path="url(#p5379bf7f47)" style="stroke: #000000; stroke-linecap: round"/>
   </g>
   <g id="patch_12">
    <path d="M 229.264667 390.649907 
Q 271.30348 231.767072 284.845498 69.097534 
" clip-path="url(#p5379bf7f47)" style="fill: none; stroke: #000000; stroke-linecap: round"/>
    <path d="M 282.520545 72.917821 
L 284.845498 69.097534 
L 286.506756 73.249668 
z
" clip-path="url(#p5379bf7f47)" style="stroke: #000000; stroke-linecap: round"/>
   </g>
   <g id="patch_13">
    <path d="M 323.986985 406.149665 
Q 465.940256 365.013468 597.670095 300.508198 
" clip-path="url(#p5379bf7f47)" style="fill: none; stroke: #000000; stroke-linecap: round"/>
    <path d="M 593.198113 300.471118 
L 597.670095 300.508198 
L 594.957243 304.063536 
z
" clip-path="url(#p5379bf7f47)" style="stroke: #000000; stroke-linecap: round"/>
   </g>
   <g id="patch_14">
    <path d="M 384.985297 390.144138 
Q 399.631589 290.71072 397.940106 191.336837 
" clip-path="url(#p5379bf7f47)" style="fill: none; stroke: #000000; stroke-linecap: round"/>
    <path d="M 396.008471 195.370295 
L 397.940106 191.336837 
L 400.007892 195.30222 
z
" clip-path="url(#p5379bf7f47)" style="stroke: #000000; stroke-linecap: round"/>
   </g>
   <g id="patch_15">
    <path d="M 517.370592 410.162725 
Q 381.524148 398.491323 246.791633 410.067633 
" clip-path="url(#p5379bf7f47)" style="fill: none; stroke: #000000; stroke-linecap: round"/>
    <path d="M 250.94816 411.71787 
L 246.791633 410.067633 
L 250.605739 407.732554 
z
" clip-path="url(#p5379bf7f47)" style="stroke: #000000; stroke-linecap: round"/>
   </g>
   <g id="patch_16">
    <path d="M 517.360942 410.318842 
Q 460.584838 406.241178 404.923895 410.238525 
" clip-path="url(#p5379bf7f47)" style="fill: none; stroke: #000000; stroke-linecap: round"/>
    <path d="M 409.056883 411.946862 
L 404.923895 410.238525 
L 408.770357 407.957137 
z
" clip-path="url(#p5379bf7f47)" style="stroke: #000000; stroke-linecap: round"/>
   </g>
   <g id="patch_17">
    <path d="M 517.331991 410.631473 
Q 500.108896 409.881116 484.002775 410.58298 
" clip-path="url(#p5379bf7f47)" style="fill: none; stroke: #000000; stroke-linecap: round"/>
    <path d="M 488.086054 412.406939 
L 484.002775 410.58298 
L 487.91191 408.410732 
z
" clip-path="url(#p5379bf7f47)" style="stroke: #000000; stroke-linecap: round"/>
   </g>
   <g id="patch_18">
    <path d="M 561.945459 413.833982 
Q 579.168554 414.584338 595.274675 413.882475 
" clip-path="url(#p5379bf7f47)" style="fill: none; stroke: #000000; stroke-linecap: round"/>
    <path d="M 591.191395 412.058516 
L 595.274675 413.882475 
L 591.36554 416.054723 
z
" clip-path="url(#p5379bf7f47)" style="stroke: #000000; stroke-linecap: round"/>
   </g>
   <g id="patch_19">
    <path d="M 518.611156 404.621984 
Q 308.051919 329.483183 88.498289 293.726012 
" clip-path="url(#p5379bf7f47)" style="fill: none; stroke: #000000; stroke-linecap: round"/>
    <path d="M 92.124782 296.342985 
L 88.498289 293.726012 
L 92.767763 292.395001 
z
" clip-path="url(#p5379bf7f47)" style="stroke: #000000; stroke-linecap: round"/>
   </g>
   <g id="patch_20">
    <path d="M 519.076801 403.450452 
Q 354.057665 334.039727 180.472746 295.073368 
" clip-path="url(#p5379bf7f47)" style="fill: none; stroke: #000000; stroke-linecap: round"/>
    <path d="M 183.937561 297.900922 
L 180.472746 295.073368 
L 184.813678 293.998049 
z
" clip-path="url(#p5379bf7f47)" style="stroke: #000000; stroke-linecap: round"/>
   </g>
   <g id="patch_21">
    <path d="M 519.923766 401.677405 
Q 400.00635 338.553482 272.148559 297.135624 
" clip-path="url(#p5379bf7f47)" style="fill: none; stroke: #000000; stroke-linecap: round"/>
    <path d="M 275.337541 300.270971 
L 272.148559 297.135624 
L 276.570225 296.465647 
z
" clip-path="url(#p5379bf7f47)" style="stroke: #000000; stroke-linecap: round"/>
   </g>
   <g id="patch_22">
    <path d="M 521.755707 398.810127 
Q 445.869967 342.972729 362.996432 300.557923 
" clip-path="url(#p5379bf7f47)" style="fill: none; stroke: #000000; stroke-linecap: round"/>
    <path d="M 365.645977 304.160687 
L 362.996432 300.557923 
L 367.46837 300.599945 
z
" clip-path="url(#p5379bf7f47)" style="stroke: #000000; stroke-linecap: round"/>
   </g>
   <g id="patch_23">
    <path d="M 539.063125 389.877478 
Q 537.345752 350.677643 530.85652 313.114638 
" clip-path="url(#p5379bf7f47)" style="fill: none; stroke: #000000; stroke-linecap: round"/>
    <path d="M 529.56665 317.396721 
L 530.85652 313.114638 
L 533.508264 316.715784 
z
" clip-path="url(#p5379bf7f47)" style="stroke: #000000; stroke-linecap: round"/>
   </g>
   <g id="patch_24">
    <path d="M 543.805768 390.261272 
Q 561.699939 291.039277 563.202779 191.345968 
" clip-path="url(#p5379bf7f47)" style="fill: none; stroke: #000000; stroke-linecap: round"/>
    <path d="M 561.142714 195.315368 
L 563.202779 191.345968 
L 565.14226 195.37566 
z
" clip-path="url(#p5379bf7f47)" style="stroke: #000000; stroke-linecap: round"/>
   </g>
   <g id="patch_25">
    <path d="M 528.735301 392.711534 
Q 429.736263 217.511403 301.759108 63.664001 
" clip-path="url(#p5379bf7f47)" style="fill: none; stroke: #000000; stroke-linecap: round"/>
    <path d="M 302.779576 68.018153 
L 301.759108 63.664001 
L 305.854711 65.460118 
z
" clip-path="url(#p5379bf7f47)" style="stroke: #000000; stroke-linecap: round"/>
   </g>
   <g id="patch_26">
    <path d="M 597.424434 405.347092 
Q 347.651368 325.561167 88.613437 292.901767 
" clip-path="url(#p5379bf7f47)" style="fill: none; stroke: #000000; stroke-linecap: round"/>
    <path d="M 92.331841 295.386415 
L 88.613437 292.901767 
L 92.832198 291.417833 
z
" clip-path="url(#p5379bf7f47)" style="stroke: #000000; stroke-linecap: round"/>
   </g>
   <g id="patch_27">
    <path d="M 597.722942 404.481391 
Q 393.682593 330.135511 180.70009 293.888072 
" clip-path="url(#p5379bf7f47)" style="fill: none; stroke: #000000; stroke-linecap: round"/>
    <path d="M 184.307835 296.530832 
L 180.70009 293.888072 
L 184.978944 292.587532 
z
" clip-path="url(#p5379bf7f47)" style="stroke: #000000; stroke-linecap: round"/>
   </g>
   <g id="patch_28">
    <path d="M 598.218658 403.240578 
Q 439.680207 334.687815 272.651205 295.314449 
" clip-path="url(#p5379bf7f47)" style="fill: none; stroke: #000000; stroke-linecap: round"/>
    <path d="M 276.085619 298.178852 
L 272.651205 295.314449 
L 277.003375 294.28556 
z
" clip-path="url(#p5379bf7f47)" style="stroke: #000000; stroke-linecap: round"/>
   </g>
   <g id="patch_29">
    <path d="M 599.156294 401.350111 
Q 485.620119 339.19274 364.256042 297.520283 
" clip-path="url(#p5379bf7f47)" style="fill: none; stroke: #000000; stroke-linecap: round"/>
    <path d="M 367.389721 300.710903 
L 364.256042 297.520283 
L 368.688746 296.927711 
z
" clip-path="url(#p5379bf7f47)" style="stroke: #000000; stroke-linecap: round"/>
   </g>
   <g id="patch_30">
    <path d="M 606.790426 393.303628 
Q 577.16787 347.676719 542.139677 307.527674 
" clip-path="url(#p5379bf7f47)" style="fill: none; stroke: #000000; stroke-linecap: round"/>
    <path d="M 543.262293 311.856615 
L 542.139677 307.527674 
L 546.2764 309.226946 
z
" clip-path="url(#p5379bf7f47)" style="stroke: #000000; stroke-linecap: round"/>
   </g>
   <g id="patch_31">
    <path d="M 81.691643 274.832018 
Q 125.328034 233.197963 161.769591 186.551047 
" clip-path="url(#p5379bf7f47)" style="fill: none; stroke: #000000; stroke-linecap: round"/>
    <path d="M 157.731001 188.471929 
L 161.769591 186.551047 
L 160.883142 190.934448 
z
" clip-path="url(#p5379bf7f47)" style="stroke: #000000; stroke-linecap: round"/>
   </g>
   <g id="patch_32">
    <path d="M 85.779172 281.069341 
Q 181.110194 238.25073 267.21677 181.026091 
" clip-path="url(#p5379bf7f47)" style="fill: none; stroke: #000000; stroke-linecap: round"/>
    <path d="M 262.778371 181.574371 
L 267.21677 181.026091 
L 264.992355 184.905779 
z
" clip-path="url(#p5379bf7f47)" style="stroke: #000000; stroke-linecap: round"/>
   </g>
   <g id="patch_33">
    <path d="M 72.203351 268.779418 
Q 103.214604 170.187474 117.548262 68.961192 
" clip-path="url(#p5379bf7f47)" style="fill: none; stroke: #000000; stroke-linecap: round"/>
    <path d="M 115.00721 72.641281 
L 117.548262 68.961192 
L 118.967701 73.202087 
z
" clip-path="url(#p5379bf7f47)" style="stroke: #000000; stroke-linecap: round"/>
   </g>
   <g id="patch_34">
    <path d="M 145.633401 271.12181 
Q 116.010845 225.494901 80.982652 185.345856 
" clip-path="url(#p5379bf7f47)" style="fill: none; stroke: #000000; stroke-linecap: round"/>
    <path d="M 82.105268 189.674797 
L 80.982652 185.345856 
L 85.119375 187.045128 
z
" clip-path="url(#p5379bf7f47)" style="stroke: #000000; stroke-linecap: round"/>
   </g>
   <g id="patch_35">
    <path d="M 178.30777 281.760679 
Q 282.621881 239.129084 377.476436 180.385776 
" clip-path="url(#p5379bf7f47)" style="fill: none; stroke: #000000; stroke-linecap: round"/>
    <path d="M 373.02274 180.791473 
L 377.476436 180.385776 
L 375.128776 184.192151 
z
" clip-path="url(#p5379bf7f47)" style="stroke: #000000; stroke-linecap: round"/>
   </g>
   <g id="patch_36">
    <path d="M 178.896726 283.449853 
Q 310.420294 241.804916 431.902154 178.815599 
" clip-path="url(#p5379bf7f47)" style="fill: none; stroke: #000000; stroke-linecap: round"/>
    <path d="M 427.430501 178.881321 
L 431.902154 178.815599 
L 429.27174 182.432355 
z
" clip-path="url(#p5379bf7f47)" style="stroke: #000000; stroke-linecap: round"/>
   </g>
   <g id="patch_37">
    <path d="M 179.245906 284.699017 
Q 338.196522 244.508195 486.664967 177.632504 
" clip-path="url(#p5379bf7f47)" style="fill: none; stroke: #000000; stroke-linecap: round"/>
    <path d="M 482.196486 177.451743 
L 486.664967 177.632504 
L 483.83927 181.098833 
z
" clip-path="url(#p5379bf7f47)" style="stroke: #000000; stroke-linecap: round"/>
   </g>
   <g id="patch_38">
    <path d="M 176.021434 277.468992 
Q 315.988064 181.011266 436.072242 62.285988 
" clip-path="url(#p5379bf7f47)" style="fill: none; stroke: #000000; stroke-linecap: round"/>
    <path d="M 431.821623 63.676037 
L 436.072242 62.285988 
L 434.63391 66.520513 
z
" clip-path="url(#p5379bf7f47)" style="stroke: #000000; stroke-linecap: round"/>
   </g>
   <g id="patch_39">
    <path d="M 177.004391 279.050185 
Q 343.787344 183.662656 490.105041 60.8698 
" clip-path="url(#p5379bf7f47)" style="fill: none; stroke: #000000; stroke-linecap: round"/>
    <path d="M 485.755362 61.90917 
L 490.105041 60.8698 
L 488.326731 64.973165 
z
" clip-path="url(#p5379bf7f47)" style="stroke: #000000; stroke-linecap: round"/>
   </g>
   <g id="patch_40">
    <path d="M 177.700655 280.38571 
Q 371.569666 186.342931 544.477749 59.648563 
" clip-path="url(#p5379bf7f47)" style="fill: none; stroke: #000000; stroke-linecap: round"/>
    <path d="M 540.069105 60.399468 
L 544.477749 59.648563 
L 542.433287 63.626021 
z
" clip-path="url(#p5379bf7f47)" style="stroke: #000000; stroke-linecap: round"/>
   </g>
   <g id="patch_41">
    <path d="M 227.473522 288.36034 
Q 203.652739 287.1299 180.948502 288.302681 
" clip-path="url(#p5379bf7f47)" style="fill: none; stroke: #000000; stroke-linecap: round"/>
    <path d="M 185.046348 290.093674 
L 180.948502 288.302681 
L 184.840005 286.099 
z
" clip-path="url(#p5379bf7f47)" style="stroke: #000000; stroke-linecap: round"/>
   </g>
   <g id="patch_42">
    <path d="M 238.004189 271.040007 
Q 168.108272 159.89033 81.113509 63.043789 
" clip-path="url(#p5379bf7f47)" style="fill: none; stroke: #000000; stroke-linecap: round"/>
    <path d="M 82.298665 67.356028 
L 81.113509 63.043789 
L 85.274394 64.683008 
z
" clip-path="url(#p5379bf7f47)" style="stroke: #000000; stroke-linecap: round"/>
   </g>
   <g id="patch_43">
    <path d="M 325.239837 275.249516 
Q 263.923573 222.259346 196.048705 180.061231 
" clip-path="url(#p5379bf7f47)" style="fill: none; stroke: #000000; stroke-linecap: round"/>
    <path d="M 198.38975 183.871678 
L 196.048705 180.061231 
L 200.50169 180.474663 
z
" clip-path="url(#p5379bf7f47)" style="stroke: #000000; stroke-linecap: round"/>
   </g>
   <g id="patch_44">
    <path d="M 334.50023 268.989103 
Q 318.748331 226.962442 298.076725 188.388662 
" clip-path="url(#p5379bf7f47)" style="fill: none; stroke: #000000; stroke-linecap: round"/>
    <path d="M 298.203288 192.859007 
L 298.076725 188.388662 
L 301.728939 190.969618 
z
" clip-path="url(#p5379bf7f47)" style="stroke: #000000; stroke-linecap: round"/>
   </g>
   <g id="patch_45">
    <path d="M 328.591068 272.155752 
Q 242.000388 158.1933 137.946776 61.55247 
" clip-path="url(#p5379bf7f47)" style="fill: none; stroke: #000000; stroke-linecap: round"/>
    <path d="M 139.516624 65.740021 
L 137.946776 61.55247 
L 142.238725 62.809122 
z
" clip-path="url(#p5379bf7f47)" style="stroke: #000000; stroke-linecap: round"/>
   </g>
   <g id="patch_46">
    <path d="M 429.551044 268.1874 
Q 420.133425 227.646855 405.932587 189.716017 
" clip-path="url(#p5379bf7f47)" style="fill: none; stroke: #000000; stroke-linecap: round"/>
    <path d="M 405.462034 194.163328 
L 405.932587 189.716017 
L 409.208104 192.760846 
z
" clip-path="url(#p5379bf7f47)" style="stroke: #000000; stroke-linecap: round"/>
   </g>
   <g id="patch_47">
    <path d="M 504.167737 288.36034 
Q 480.346954 287.1299 457.642717 288.302681 
" clip-path="url(#p5379bf7f47)" style="fill: none; stroke: #000000; stroke-linecap: round"/>
    <path d="M 461.740563 290.093674 
L 457.642717 288.302681 
L 461.53422 286.099 
z
" clip-path="url(#p5379bf7f47)" style="stroke: #000000; stroke-linecap: round"/>
   </g>
   <g id="patch_48">
    <path d="M 511.620237 273.323635 
Q 466.670839 223.919439 415.727772 182.471592 
" clip-path="url(#p5379bf7f47)" style="fill: none; stroke: #000000; stroke-linecap: round"/>
    <path d="M 417.568317 186.547423 
L 415.727772 182.471592 
L 420.092763 183.444655 
z
" clip-path="url(#p5379bf7f47)" style="stroke: #000000; stroke-linecap: round"/>
   </g>
   <g id="patch_49">
    <path d="M 84.420959 156.267608 
Q 153.245352 113.479229 213.715734 61.220148 
" clip-path="url(#p5379bf7f47)" style="fill: none; stroke: #000000; stroke-linecap: round"/>
    <path d="M 209.381563 62.322404 
L 213.715734 61.220148 
L 211.997036 65.348838 
z
" clip-path="url(#p5379bf7f47)" style="stroke: #000000; stroke-linecap: round"/>
   </g>
   <g id="patch_50">
    <path d="M 87.497464 165.158935 
Q 347.644781 132.360287 596.352963 52.91517 
" clip-path="url(#p5379bf7f47)" style="fill: none; stroke: #000000; stroke-linecap: round"/>
    <path d="M 591.934069 52.227143 
L 596.352963 52.91517 
L 593.151205 56.037469 
z
" clip-path="url(#p5379bf7f47)" style="stroke: #000000; stroke-linecap: round"/>
   </g>
   <g id="patch_51">
    <path d="M 308.983814 169.200902 
Q 314.330002 169.304211 318.558364 169.22252 
" clip-path="url(#p5379bf7f47)" style="fill: none; stroke: #000000; stroke-linecap: round"/>
    <path d="M 314.520479 167.300157 
L 318.558364 169.22252 
L 314.597743 171.299411 
z
" clip-path="url(#p5379bf7f47)" style="stroke: #000000; stroke-linecap: round"/>
   </g>
   <g id="patch_52">
    <path d="M 273.131479 150.062946 
Q 236.001269 102.535305 193.173435 61.67336 
" clip-path="url(#p5379bf7f47)" style="fill: none; stroke: #000000; stroke-linecap: round"/>
    <path d="M 194.686892 65.88162 
L 193.173435 61.67336 
L 197.448117 62.987551 
z
" clip-path="url(#p5379bf7f47)" style="stroke: #000000; stroke-linecap: round"/>
   </g>
   <g id="PathCollection_1">
    <defs>
     <path id="me200ec9f3c" d="M 0 22.36068 
C 5.930122 22.36068 11.618159 20.004617 15.811388 15.811388 
C 20.004617 11.618159 22.36068 5.930122 22.36068 0 
C 22.36068 -5.930122 20.004617 -11.618159 15.811388 -15.811388 
C 11.618159 -20.004617 5.930122 -22.36068 0 -22.36068 
C -5.930122 -22.36068 -11.618159 -20.004617 -15.811388 -15.811388 
C -20.004617 -11.618159 -22.36068 -5.930122 -22.36068 0 
C -22.36068 5.930122 -20.004617 11.618159 -15.811388 15.811388 
C -11.618159 20.004617 -5.930122 22.36068 0 22.36068 
z
" style="stroke: #000000"/>
    </defs>
    <g clip-path="url(#p5379bf7f47)">
     <use xlink:href="#me200ec9f3c" x="65.305785" y="412.232727" style="fill: #ffffff; stroke: #000000"/>
     <use xlink:href="#me200ec9f3c" x="144.361275" y="412.232727" style="fill: #ffffff; stroke: #000000"/>
     <use xlink:href="#me200ec9f3c" x="223.416765" y="412.232727" style="fill: #ffffff; stroke: #000000"/>
     <use xlink:href="#me200ec9f3c" x="302.472255" y="412.232727" style="fill: #ffffff; stroke: #000000"/>
     <use xlink:href="#me200ec9f3c" x="381.527745" y="412.232727" style="fill: #ffffff; stroke: #000000"/>
     <use xlink:href="#me200ec9f3c" x="460.583235" y="412.232727" style="fill: #ffffff; stroke: #000000"/>
     <use xlink:href="#me200ec9f3c" x="539.638725" y="412.232727" style="fill: #ffffff; stroke: #000000"/>
     <use xlink:href="#me200ec9f3c" x="618.694215" y="412.232727" style="fill: #ffffff; stroke: #000000"/>
     <use xlink:href="#me200ec9f3c" x="65.305785" y="290.050909" style="fill: #ffffff; stroke: #000000"/>
     <use xlink:href="#me200ec9f3c" x="157.53719" y="290.050909" style="fill: #ffffff; stroke: #000000"/>
     <use xlink:href="#me200ec9f3c" x="249.768595" y="290.050909" style="fill: #ffffff; stroke: #000000"/>
     <use xlink:href="#me200ec9f3c" x="342" y="290.050909" style="fill: #ffffff; stroke: #000000"/>
     <use xlink:href="#me200ec9f3c" x="434.231405" y="290.050909" style="fill: #ffffff; stroke: #000000"/>
     <use xlink:href="#me200ec9f3c" x="526.46281" y="290.050909" style="fill: #ffffff; stroke: #000000"/>
     <use xlink:href="#me200ec9f3c" x="618.694215" y="290.050909" style="fill: #ffffff; stroke: #000000"/>
     <use xlink:href="#me200ec9f3c" x="65.305785" y="167.869091" style="fill: #ffffff; stroke: #000000"/>
     <use xlink:href="#me200ec9f3c" x="120.644628" y="167.869091" style="fill: #ffffff; stroke: #000000"/>
     <use xlink:href="#me200ec9f3c" x="175.983471" y="167.869091" style="fill: #ffffff; stroke: #000000"/>
     <use xlink:href="#me200ec9f3c" x="231.322314" y="167.869091" style="fill: #ffffff; stroke: #000000"/>
     <use xlink:href="#me200ec9f3c" x="286.661157" y="167.869091" style="fill: #ffffff; stroke: #000000"/>
     <use xlink:href="#me200ec9f3c" x="342" y="167.869091" style="fill: #ffffff; stroke: #000000"/>
     <use xlink:href="#me200ec9f3c" x="397.338843" y="167.869091" style="fill: #ffffff; stroke: #000000"/>
     <use xlink:href="#me200ec9f3c" x="452.677686" y="167.869091" style="fill: #ffffff; stroke: #000000"/>
     <use xlink:href="#me200ec9f3c" x="508.016529" y="167.869091" style="fill: #ffffff; stroke: #000000"/>
     <use xlink:href="#me200ec9f3c" x="563.355372" y="167.869091" style="fill: #ffffff; stroke: #000000"/>
     <use xlink:href="#me200ec9f3c" x="618.694215" y="167.869091" style="fill: #ffffff; stroke: #000000"/>
     <use xlink:href="#me200ec9f3c" x="65.305785" y="45.687273" style="fill: #ffffff; stroke: #000000"/>
     <use xlink:href="#me200ec9f3c" x="120.644628" y="45.687273" style="fill: #ffffff; stroke: #000000"/>
     <use xlink:href="#me200ec9f3c" x="175.983471" y="45.687273" style="fill: #ffffff; stroke: #000000"/>
     <use xlink:href="#me200ec9f3c" x="231.322314" y="45.687273" style="fill: #ffffff; stroke: #000000"/>
     <use xlink:href="#me200ec9f3c" x="286.661157" y="45.687273" style="fill: #ffffff; stroke: #000000"/>
     <use xlink:href="#me200ec9f3c" x="342" y="45.687273" style="fill: #ffffff; stroke: #000000"/>
     <use xlink:href="#me200ec9f3c" x="397.338843" y="45.687273" style="fill: #ffffff; stroke: #000000"/>
     <use xlink:href="#me200ec9f3c" x="452.677686" y="45.687273" style="fill: #ffffff; stroke: #000000"/>
     <use xlink:href="#me200ec9f3c" x="508.016529" y="45.687273" style="fill: #ffffff; stroke: #000000"/>
     <use xlink:href="#me200ec9f3c" x="563.355372" y="45.687273" style="fill: #ffffff; stroke: #000000"/>
     <use xlink:href="#me200ec9f3c" x="618.694215" y="45.687273" style="fill: #ffffff; stroke: #000000"/>
    </g>
   </g>
   <g id="PathCollection_2">
    <defs>
     <path id="mf01ac8a396" d="M 0 22.36068 
C 5.930122 22.36068 11.618159 20.004617 15.811388 15.811388 
C 20.004617 11.618159 22.36068 5.930122 22.36068 0 
C 22.36068 -5.930122 20.004617 -11.618159 15.811388 -15.811388 
C 11.618159 -20.004617 5.930122 -22.36068 0 -22.36068 
C -5.930122 -22.36068 -11.618159 -20.004617 -15.811388 -15.811388 
C -20.004617 -11.618159 -22.36068 -5.930122 -22.36068 0 
C -22.36068 5.930122 -20.004617 11.618159 -15.811388 15.811388 
C -11.618159 20.004617 -5.930122 22.36068 0 22.36068 
z
" style="stroke: #008000; stroke-opacity: 0.2; stroke-width: 4"/>
    </defs>
    <g clip-path="url(#p5379bf7f47)">
     <use xlink:href="#mf01ac8a396" x="302.472255" y="412.232727" style="fill: #008000; fill-opacity: 0.2; stroke: #008000; stroke-opacity: 0.2; stroke-width: 4"/>
     <use xlink:href="#mf01ac8a396" x="381.527745" y="412.232727" style="fill: #008000; fill-opacity: 0.2; stroke: #008000; stroke-opacity: 0.2; stroke-width: 4"/>
     <use xlink:href="#mf01ac8a396" x="460.583235" y="412.232727" style="fill: #008000; fill-opacity: 0.2; stroke: #008000; stroke-opacity: 0.2; stroke-width: 4"/>
     <use xlink:href="#mf01ac8a396" x="618.694215" y="412.232727" style="fill: #008000; fill-opacity: 0.2; stroke: #008000; stroke-opacity: 0.2; stroke-width: 4"/>
     <use xlink:href="#mf01ac8a396" x="157.53719" y="290.050909" style="fill: #008000; fill-opacity: 0.2; stroke: #008000; stroke-opacity: 0.2; stroke-width: 4"/>
     <use xlink:href="#mf01ac8a396" x="434.231405" y="290.050909" style="fill: #008000; fill-opacity: 0.2; stroke: #008000; stroke-opacity: 0.2; stroke-width: 4"/>
     <use xlink:href="#mf01ac8a396" x="526.46281" y="290.050909" style="fill: #008000; fill-opacity: 0.2; stroke: #008000; stroke-opacity: 0.2; stroke-width: 4"/>
     <use xlink:href="#mf01ac8a396" x="618.694215" y="290.050909" style="fill: #008000; fill-opacity: 0.2; stroke: #008000; stroke-opacity: 0.2; stroke-width: 4"/>
     <use xlink:href="#mf01ac8a396" x="65.305785" y="167.869091" style="fill: #008000; fill-opacity: 0.2; stroke: #008000; stroke-opacity: 0.2; stroke-width: 4"/>
     <use xlink:href="#mf01ac8a396" x="120.644628" y="167.869091" style="fill: #008000; fill-opacity: 0.2; stroke: #008000; stroke-opacity: 0.2; stroke-width: 4"/>
     <use xlink:href="#mf01ac8a396" x="231.322314" y="167.869091" style="fill: #008000; fill-opacity: 0.2; stroke: #008000; stroke-opacity: 0.2; stroke-width: 4"/>
     <use xlink:href="#mf01ac8a396" x="397.338843" y="167.869091" style="fill: #008000; fill-opacity: 0.2; stroke: #008000; stroke-opacity: 0.2; stroke-width: 4"/>
     <use xlink:href="#mf01ac8a396" x="452.677686" y="167.869091" style="fill: #008000; fill-opacity: 0.2; stroke: #008000; stroke-opacity: 0.2; stroke-width: 4"/>
     <use xlink:href="#mf01ac8a396" x="508.016529" y="167.869091" style="fill: #008000; fill-opacity: 0.2; stroke: #008000; stroke-opacity: 0.2; stroke-width: 4"/>
     <use xlink:href="#mf01ac8a396" x="563.355372" y="167.869091" style="fill: #008000; fill-opacity: 0.2; stroke: #008000; stroke-opacity: 0.2; stroke-width: 4"/>
     <use xlink:href="#mf01ac8a396" x="618.694215" y="167.869091" style="fill: #008000; fill-opacity: 0.2; stroke: #008000; stroke-opacity: 0.2; stroke-width: 4"/>
     <use xlink:href="#mf01ac8a396" x="65.305785" y="45.687273" style="fill: #008000; fill-opacity: 0.2; stroke: #008000; stroke-opacity: 0.2; stroke-width: 4"/>
     <use xlink:href="#mf01ac8a396" x="231.322314" y="45.687273" style="fill: #008000; fill-opacity: 0.2; stroke: #008000; stroke-opacity: 0.2; stroke-width: 4"/>
     <use xlink:href="#mf01ac8a396" x="286.661157" y="45.687273" style="fill: #008000; fill-opacity: 0.2; stroke: #008000; stroke-opacity: 0.2; stroke-width: 4"/>
     <use xlink:href="#mf01ac8a396" x="342" y="45.687273" style="fill: #008000; fill-opacity: 0.2; stroke: #008000; stroke-opacity: 0.2; stroke-width: 4"/>
     <use xlink:href="#mf01ac8a396" x="397.338843" y="45.687273" style="fill: #008000; fill-opacity: 0.2; stroke: #008000; stroke-opacity: 0.2; stroke-width: 4"/>
     <use xlink:href="#mf01ac8a396" x="452.677686" y="45.687273" style="fill: #008000; fill-opacity: 0.2; stroke: #008000; stroke-opacity: 0.2; stroke-width: 4"/>
     <use xlink:href="#mf01ac8a396" x="508.016529" y="45.687273" style="fill: #008000; fill-opacity: 0.2; stroke: #008000; stroke-opacity: 0.2; stroke-width: 4"/>
     <use xlink:href="#mf01ac8a396" x="563.355372" y="45.687273" style="fill: #008000; fill-opacity: 0.2; stroke: #008000; stroke-opacity: 0.2; stroke-width: 4"/>
     <use xlink:href="#mf01ac8a396" x="618.694215" y="45.687273" style="fill: #008000; fill-opacity: 0.2; stroke: #008000; stroke-opacity: 0.2; stroke-width: 4"/>
    </g>
   </g>
   <g id="PathCollection_3">
    <defs>
     <path id="m309274f9ae" d="M 0 22.36068 
C 5.930122 22.36068 11.618159 20.004617 15.811388 15.811388 
C 20.004617 11.618159 22.36068 5.930122 22.36068 0 
C 22.36068 -5.930122 20.004617 -11.618159 15.811388 -15.811388 
C 11.618159 -20.004617 5.930122 -22.36068 0 -22.36068 
C -5.930122 -22.36068 -11.618159 -20.004617 -15.811388 -15.811388 
C -20.004617 -11.618159 -22.36068 -5.930122 -22.36068 0 
C -22.36068 5.930122 -20.004617 11.618159 -15.811388 15.811388 
C -11.618159 20.004617 -5.930122 22.36068 0 22.36068 
z
" style="stroke: #ff0000; stroke-opacity: 0.5"/>
    </defs>
    <g clip-path="url(#p5379bf7f47)">
     <use xlink:href="#m309274f9ae" x="120.644628" y="167.869091" style="fill: #ff0000; fill-opacity: 0.5; stroke: #ff0000; stroke-opacity: 0.5"/>
     <use xlink:href="#m309274f9ae" x="231.322314" y="167.869091" style="fill: #ff0000; fill-opacity: 0.5; stroke: #ff0000; stroke-opacity: 0.5"/>
     <use xlink:href="#m309274f9ae" x="618.694215" y="167.869091" style="fill: #ff0000; fill-opacity: 0.5; stroke: #ff0000; stroke-opacity: 0.5"/>
     <use xlink:href="#m309274f9ae" x="342" y="45.687273" style="fill: #ff0000; fill-opacity: 0.5; stroke: #ff0000; stroke-opacity: 0.5"/>
     <use xlink:href="#m309274f9ae" x="397.338843" y="45.687273" style="fill: #ff0000; fill-opacity: 0.5; stroke: #ff0000; stroke-opacity: 0.5"/>
    </g>
   </g>
   <g id="text_1">
    <g clip-path="url(#p5379bf7f47)">
     <!-- 1024 -->
     <g transform="translate(51.39016 409.393196) scale(0.1 -0.1)">
      <defs>
       <path id="DejaVuSans-Bold-31" d="M 750 831 
L 1813 831 
L 1813 3847 
L 722 3622 
L 722 4441 
L 1806 4666 
L 2950 4666 
L 2950 831 
L 4013 831 
L 4013 0 
L 750 0 
L 750 831 
z
" transform="scale(0.015625)"/>
       <path id="DejaVuSans-Bold-30" d="M 2944 2338 
Q 2944 3213 2780 3570 
Q 2616 3928 2228 3928 
Q 1841 3928 1675 3570 
Q 1509 3213 1509 2338 
Q 1509 1453 1675 1090 
Q 1841 728 2228 728 
Q 2613 728 2778 1090 
Q 2944 1453 2944 2338 
z
M 4147 2328 
Q 4147 1169 3647 539 
Q 3147 -91 2228 -91 
Q 1306 -91 806 539 
Q 306 1169 306 2328 
Q 306 3491 806 4120 
Q 1306 4750 2228 4750 
Q 3147 4750 3647 4120 
Q 4147 3491 4147 2328 
z
" transform="scale(0.015625)"/>
       <path id="DejaVuSans-Bold-32" d="M 1844 884 
L 3897 884 
L 3897 0 
L 506 0 
L 506 884 
L 2209 2388 
Q 2438 2594 2547 2791 
Q 2656 2988 2656 3200 
Q 2656 3528 2436 3728 
Q 2216 3928 1850 3928 
Q 1569 3928 1234 3808 
Q 900 3688 519 3450 
L 519 4475 
Q 925 4609 1322 4679 
Q 1719 4750 2100 4750 
Q 2938 4750 3402 4381 
Q 3866 4013 3866 3353 
Q 3866 2972 3669 2642 
Q 3472 2313 2841 1759 
L 1844 884 
z
" transform="scale(0.015625)"/>
       <path id="DejaVuSans-Bold-34" d="M 2356 3675 
L 1038 1722 
L 2356 1722 
L 2356 3675 
z
M 2156 4666 
L 3494 4666 
L 3494 1722 
L 4159 1722 
L 4159 850 
L 3494 850 
L 3494 0 
L 2356 0 
L 2356 850 
L 288 850 
L 288 1881 
L 2156 4666 
z
" transform="scale(0.015625)"/>
      </defs>
      <use xlink:href="#DejaVuSans-Bold-31"/>
      <use xlink:href="#DejaVuSans-Bold-30" x="69.580078"/>
      <use xlink:href="#DejaVuSans-Bold-32" x="139.160156"/>
      <use xlink:href="#DejaVuSans-Bold-34" x="208.740234"/>
     </g>
    </g>
    <g clip-path="url(#p5379bf7f47)">
     <!-- Stats -->
     <g transform="translate(50.575316 420.591009) scale(0.1 -0.1)">
      <defs>
       <path id="DejaVuSans-Bold-53" d="M 3834 4519 
L 3834 3531 
Q 3450 3703 3084 3790 
Q 2719 3878 2394 3878 
Q 1963 3878 1756 3759 
Q 1550 3641 1550 3391 
Q 1550 3203 1689 3098 
Q 1828 2994 2194 2919 
L 2706 2816 
Q 3484 2659 3812 2340 
Q 4141 2022 4141 1434 
Q 4141 663 3683 286 
Q 3225 -91 2284 -91 
Q 1841 -91 1394 -6 
Q 947 78 500 244 
L 500 1259 
Q 947 1022 1364 901 
Q 1781 781 2169 781 
Q 2563 781 2772 912 
Q 2981 1044 2981 1288 
Q 2981 1506 2839 1625 
Q 2697 1744 2272 1838 
L 1806 1941 
Q 1106 2091 782 2419 
Q 459 2747 459 3303 
Q 459 4000 909 4375 
Q 1359 4750 2203 4750 
Q 2588 4750 2994 4692 
Q 3400 4634 3834 4519 
z
" transform="scale(0.015625)"/>
       <path id="DejaVuSans-Bold-74" d="M 1759 4494 
L 1759 3500 
L 2913 3500 
L 2913 2700 
L 1759 2700 
L 1759 1216 
Q 1759 972 1856 886 
Q 1953 800 2241 800 
L 2816 800 
L 2816 0 
L 1856 0 
Q 1194 0 917 276 
Q 641 553 641 1216 
L 641 2700 
L 84 2700 
L 84 3500 
L 641 3500 
L 641 4494 
L 1759 4494 
z
" transform="scale(0.015625)"/>
       <path id="DejaVuSans-Bold-61" d="M 2106 1575 
Q 1756 1575 1579 1456 
Q 1403 1338 1403 1106 
Q 1403 894 1545 773 
Q 1688 653 1941 653 
Q 2256 653 2472 879 
Q 2688 1106 2688 1447 
L 2688 1575 
L 2106 1575 
z
M 3816 1997 
L 3816 0 
L 2688 0 
L 2688 519 
Q 2463 200 2181 54 
Q 1900 -91 1497 -91 
Q 953 -91 614 226 
Q 275 544 275 1050 
Q 275 1666 698 1953 
Q 1122 2241 2028 2241 
L 2688 2241 
L 2688 2328 
Q 2688 2594 2478 2717 
Q 2269 2841 1825 2841 
Q 1466 2841 1156 2769 
Q 847 2697 581 2553 
L 581 3406 
Q 941 3494 1303 3539 
Q 1666 3584 2028 3584 
Q 2975 3584 3395 3211 
Q 3816 2838 3816 1997 
z
" transform="scale(0.015625)"/>
       <path id="DejaVuSans-Bold-73" d="M 3272 3391 
L 3272 2541 
Q 2913 2691 2578 2766 
Q 2244 2841 1947 2841 
Q 1628 2841 1473 2761 
Q 1319 2681 1319 2516 
Q 1319 2381 1436 2309 
Q 1553 2238 1856 2203 
L 2053 2175 
Q 2913 2066 3209 1816 
Q 3506 1566 3506 1031 
Q 3506 472 3093 190 
Q 2681 -91 1863 -91 
Q 1516 -91 1145 -36 
Q 775 19 384 128 
L 384 978 
Q 719 816 1070 734 
Q 1422 653 1784 653 
Q 2113 653 2278 743 
Q 2444 834 2444 1013 
Q 2444 1163 2330 1236 
Q 2216 1309 1875 1350 
L 1678 1375 
Q 931 1469 631 1722 
Q 331 1975 331 2491 
Q 331 3047 712 3315 
Q 1094 3584 1881 3584 
Q 2191 3584 2531 3537 
Q 2872 3491 3272 3391 
z
" transform="scale(0.015625)"/>
      </defs>
      <use xlink:href="#DejaVuSans-Bold-53"/>
      <use xlink:href="#DejaVuSans-Bold-74" x="72.021484"/>
      <use xlink:href="#DejaVuSans-Bold-61" x="119.824219"/>
      <use xlink:href="#DejaVuSans-Bold-74" x="187.304688"/>
      <use xlink:href="#DejaVuSans-Bold-73" x="235.107422"/>
     </g>
    </g>
   </g>
   <g id="text_2">
    <g clip-path="url(#p5379bf7f47)">
     <!-- 1048 -->
     <g transform="translate(130.44565 409.393196) scale(0.1 -0.1)">
      <defs>
       <path id="DejaVuSans-Bold-38" d="M 2228 2088 
Q 1891 2088 1709 1903 
Q 1528 1719 1528 1375 
Q 1528 1031 1709 848 
Q 1891 666 2228 666 
Q 2563 666 2741 848 
Q 2919 1031 2919 1375 
Q 2919 1722 2741 1905 
Q 2563 2088 2228 2088 
z
M 1350 2484 
Q 925 2613 709 2878 
Q 494 3144 494 3541 
Q 494 4131 934 4440 
Q 1375 4750 2228 4750 
Q 3075 4750 3515 4442 
Q 3956 4134 3956 3541 
Q 3956 3144 3739 2878 
Q 3522 2613 3097 2484 
Q 3572 2353 3814 2058 
Q 4056 1763 4056 1313 
Q 4056 619 3595 264 
Q 3134 -91 2228 -91 
Q 1319 -91 855 264 
Q 391 619 391 1313 
Q 391 1763 633 2058 
Q 875 2353 1350 2484 
z
M 1631 3419 
Q 1631 3141 1786 2991 
Q 1941 2841 2228 2841 
Q 2509 2841 2662 2991 
Q 2816 3141 2816 3419 
Q 2816 3697 2662 3845 
Q 2509 3994 2228 3994 
Q 1941 3994 1786 3844 
Q 1631 3694 1631 3419 
z
" transform="scale(0.015625)"/>
      </defs>
      <use xlink:href="#DejaVuSans-Bold-31"/>
      <use xlink:href="#DejaVuSans-Bold-30" x="69.580078"/>
      <use xlink:href="#DejaVuSans-Bold-34" x="139.160156"/>
      <use xlink:href="#DejaVuSans-Bold-38" x="208.740234"/>
     </g>
    </g>
    <g clip-path="url(#p5379bf7f47)">
     <!-- LA1 -->
     <g transform="translate(133.8269 420.591009) scale(0.1 -0.1)">
      <defs>
       <path id="DejaVuSans-Bold-4c" d="M 588 4666 
L 1791 4666 
L 1791 909 
L 3903 909 
L 3903 0 
L 588 0 
L 588 4666 
z
" transform="scale(0.015625)"/>
       <path id="DejaVuSans-Bold-41" d="M 3419 850 
L 1538 850 
L 1241 0 
L 31 0 
L 1759 4666 
L 3194 4666 
L 4922 0 
L 3713 0 
L 3419 850 
z
M 1838 1716 
L 3116 1716 
L 2478 3572 
L 1838 1716 
z
" transform="scale(0.015625)"/>
      </defs>
      <use xlink:href="#DejaVuSans-Bold-4c"/>
      <use xlink:href="#DejaVuSans-Bold-41" x="63.720703"/>
      <use xlink:href="#DejaVuSans-Bold-31" x="141.113281"/>
     </g>
    </g>
   </g>
   <g id="text_3">
    <g clip-path="url(#p5379bf7f47)">
     <!-- 1049 -->
     <g transform="translate(209.50114 409.393196) scale(0.1 -0.1)">
      <defs>
       <path id="DejaVuSans-Bold-39" d="M 641 103 
L 641 966 
Q 928 831 1190 764 
Q 1453 697 1709 697 
Q 2247 697 2547 995 
Q 2847 1294 2900 1881 
Q 2688 1725 2447 1647 
Q 2206 1569 1925 1569 
Q 1209 1569 770 1986 
Q 331 2403 331 3084 
Q 331 3838 820 4291 
Q 1309 4744 2131 4744 
Q 3044 4744 3544 4128 
Q 4044 3513 4044 2388 
Q 4044 1231 3459 570 
Q 2875 -91 1856 -91 
Q 1528 -91 1228 -42 
Q 928 6 641 103 
z
M 2125 2350 
Q 2441 2350 2600 2554 
Q 2759 2759 2759 3169 
Q 2759 3575 2600 3781 
Q 2441 3988 2125 3988 
Q 1809 3988 1650 3781 
Q 1491 3575 1491 3169 
Q 1491 2759 1650 2554 
Q 1809 2350 2125 2350 
z
" transform="scale(0.015625)"/>
      </defs>
      <use xlink:href="#DejaVuSans-Bold-31"/>
      <use xlink:href="#DejaVuSans-Bold-30" x="69.580078"/>
      <use xlink:href="#DejaVuSans-Bold-34" x="139.160156"/>
      <use xlink:href="#DejaVuSans-Bold-39" x="208.740234"/>
     </g>
    </g>
    <g clip-path="url(#p5379bf7f47)">
     <!-- LA2 -->
     <g transform="translate(212.88239 420.591009) scale(0.1 -0.1)">
      <use xlink:href="#DejaVuSans-Bold-4c"/>
      <use xlink:href="#DejaVuSans-Bold-41" x="63.720703"/>
      <use xlink:href="#DejaVuSans-Bold-32" x="141.113281"/>
     </g>
    </g>
   </g>
   <g id="text_4">
    <g clip-path="url(#p5379bf7f47)">
     <!-- 1054 -->
     <g transform="translate(288.55663 409.393196) scale(0.1 -0.1)">
      <defs>
       <path id="DejaVuSans-Bold-35" d="M 678 4666 
L 3669 4666 
L 3669 3781 
L 1638 3781 
L 1638 3059 
Q 1775 3097 1914 3117 
Q 2053 3138 2203 3138 
Q 3056 3138 3531 2711 
Q 4006 2284 4006 1522 
Q 4006 766 3489 337 
Q 2972 -91 2053 -91 
Q 1656 -91 1267 -14 
Q 878 63 494 219 
L 494 1166 
Q 875 947 1217 837 
Q 1559 728 1863 728 
Q 2300 728 2551 942 
Q 2803 1156 2803 1522 
Q 2803 1891 2551 2103 
Q 2300 2316 1863 2316 
Q 1603 2316 1309 2248 
Q 1016 2181 678 2041 
L 678 4666 
z
" transform="scale(0.015625)"/>
      </defs>
      <use xlink:href="#DejaVuSans-Bold-31"/>
      <use xlink:href="#DejaVuSans-Bold-30" x="69.580078"/>
      <use xlink:href="#DejaVuSans-Bold-35" x="139.160156"/>
      <use xlink:href="#DejaVuSans-Bold-34" x="208.740234"/>
     </g>
    </g>
    <g clip-path="url(#p5379bf7f47)">
     <!-- Service -->
     <g transform="translate(281.685536 420.591009) scale(0.1 -0.1)">
      <defs>
       <path id="DejaVuSans-Bold-65" d="M 4031 1759 
L 4031 1441 
L 1416 1441 
Q 1456 1047 1700 850 
Q 1944 653 2381 653 
Q 2734 653 3104 758 
Q 3475 863 3866 1075 
L 3866 213 
Q 3469 63 3072 -14 
Q 2675 -91 2278 -91 
Q 1328 -91 801 392 
Q 275 875 275 1747 
Q 275 2603 792 3093 
Q 1309 3584 2216 3584 
Q 3041 3584 3536 3087 
Q 4031 2591 4031 1759 
z
M 2881 2131 
Q 2881 2450 2695 2645 
Q 2509 2841 2209 2841 
Q 1884 2841 1681 2658 
Q 1478 2475 1428 2131 
L 2881 2131 
z
" transform="scale(0.015625)"/>
       <path id="DejaVuSans-Bold-72" d="M 3138 2547 
Q 2991 2616 2845 2648 
Q 2700 2681 2553 2681 
Q 2122 2681 1889 2404 
Q 1656 2128 1656 1613 
L 1656 0 
L 538 0 
L 538 3500 
L 1656 3500 
L 1656 2925 
Q 1872 3269 2151 3426 
Q 2431 3584 2822 3584 
Q 2878 3584 2943 3579 
Q 3009 3575 3134 3559 
L 3138 2547 
z
" transform="scale(0.015625)"/>
       <path id="DejaVuSans-Bold-76" d="M 97 3500 
L 1216 3500 
L 2088 1081 
L 2956 3500 
L 4078 3500 
L 2700 0 
L 1472 0 
L 97 3500 
z
" transform="scale(0.015625)"/>
       <path id="DejaVuSans-Bold-69" d="M 538 3500 
L 1656 3500 
L 1656 0 
L 538 0 
L 538 3500 
z
M 538 4863 
L 1656 4863 
L 1656 3950 
L 538 3950 
L 538 4863 
z
" transform="scale(0.015625)"/>
       <path id="DejaVuSans-Bold-63" d="M 3366 3391 
L 3366 2478 
Q 3138 2634 2908 2709 
Q 2678 2784 2431 2784 
Q 1963 2784 1702 2511 
Q 1441 2238 1441 1747 
Q 1441 1256 1702 982 
Q 1963 709 2431 709 
Q 2694 709 2930 787 
Q 3166 866 3366 1019 
L 3366 103 
Q 3103 6 2833 -42 
Q 2563 -91 2291 -91 
Q 1344 -91 809 395 
Q 275 881 275 1747 
Q 275 2613 809 3098 
Q 1344 3584 2291 3584 
Q 2566 3584 2833 3536 
Q 3100 3488 3366 3391 
z
" transform="scale(0.015625)"/>
      </defs>
      <use xlink:href="#DejaVuSans-Bold-53"/>
      <use xlink:href="#DejaVuSans-Bold-65" x="72.021484"/>
      <use xlink:href="#DejaVuSans-Bold-72" x="139.84375"/>
      <use xlink:href="#DejaVuSans-Bold-76" x="189.160156"/>
      <use xlink:href="#DejaVuSans-Bold-69" x="254.345703"/>
      <use xlink:href="#DejaVuSans-Bold-63" x="288.623047"/>
      <use xlink:href="#DejaVuSans-Bold-65" x="347.900391"/>
     </g>
    </g>
   </g>
   <g id="text_5">
    <g clip-path="url(#p5379bf7f47)">
     <!-- 1057 -->
     <g transform="translate(367.61212 409.354134) scale(0.1 -0.1)">
      <defs>
       <path id="DejaVuSans-Bold-37" d="M 428 4666 
L 3944 4666 
L 3944 3988 
L 2125 0 
L 953 0 
L 2675 3781 
L 428 3781 
L 428 4666 
z
" transform="scale(0.015625)"/>
      </defs>
      <use xlink:href="#DejaVuSans-Bold-31"/>
      <use xlink:href="#DejaVuSans-Bold-30" x="69.580078"/>
      <use xlink:href="#DejaVuSans-Bold-35" x="139.160156"/>
      <use xlink:href="#DejaVuSans-Bold-37" x="208.740234"/>
     </g>
    </g>
    <g clip-path="url(#p5379bf7f47)">
     <!-- Dynamics -->
     <g transform="translate(354.319932 420.551946) scale(0.1 -0.1)">
      <defs>
       <path id="DejaVuSans-Bold-44" d="M 1791 3756 
L 1791 909 
L 2222 909 
Q 2959 909 3348 1275 
Q 3738 1641 3738 2338 
Q 3738 3031 3350 3393 
Q 2963 3756 2222 3756 
L 1791 3756 
z
M 588 4666 
L 1856 4666 
Q 2919 4666 3439 4514 
Q 3959 4363 4331 4000 
Q 4659 3684 4818 3271 
Q 4978 2859 4978 2338 
Q 4978 1809 4818 1395 
Q 4659 981 4331 666 
Q 3956 303 3431 151 
Q 2906 0 1856 0 
L 588 0 
L 588 4666 
z
" transform="scale(0.015625)"/>
       <path id="DejaVuSans-Bold-79" d="M 78 3500 
L 1197 3500 
L 2138 1125 
L 2938 3500 
L 4056 3500 
L 2584 -331 
Q 2363 -916 2067 -1148 
Q 1772 -1381 1288 -1381 
L 641 -1381 
L 641 -647 
L 991 -647 
Q 1275 -647 1404 -556 
Q 1534 -466 1606 -231 
L 1638 -134 
L 78 3500 
z
" transform="scale(0.015625)"/>
       <path id="DejaVuSans-Bold-6e" d="M 4056 2131 
L 4056 0 
L 2931 0 
L 2931 347 
L 2931 1631 
Q 2931 2084 2911 2256 
Q 2891 2428 2841 2509 
Q 2775 2619 2662 2680 
Q 2550 2741 2406 2741 
Q 2056 2741 1856 2470 
Q 1656 2200 1656 1722 
L 1656 0 
L 538 0 
L 538 3500 
L 1656 3500 
L 1656 2988 
Q 1909 3294 2193 3439 
Q 2478 3584 2822 3584 
Q 3428 3584 3742 3212 
Q 4056 2841 4056 2131 
z
" transform="scale(0.015625)"/>
       <path id="DejaVuSans-Bold-6d" d="M 3781 2919 
Q 3994 3244 4286 3414 
Q 4578 3584 4928 3584 
Q 5531 3584 5847 3212 
Q 6163 2841 6163 2131 
L 6163 0 
L 5038 0 
L 5038 1825 
Q 5041 1866 5042 1909 
Q 5044 1953 5044 2034 
Q 5044 2406 4934 2573 
Q 4825 2741 4581 2741 
Q 4263 2741 4089 2478 
Q 3916 2216 3909 1719 
L 3909 0 
L 2784 0 
L 2784 1825 
Q 2784 2406 2684 2573 
Q 2584 2741 2328 2741 
Q 2006 2741 1831 2477 
Q 1656 2213 1656 1722 
L 1656 0 
L 531 0 
L 531 3500 
L 1656 3500 
L 1656 2988 
Q 1863 3284 2130 3434 
Q 2397 3584 2719 3584 
Q 3081 3584 3359 3409 
Q 3638 3234 3781 2919 
z
" transform="scale(0.015625)"/>
      </defs>
      <use xlink:href="#DejaVuSans-Bold-44"/>
      <use xlink:href="#DejaVuSans-Bold-79" x="83.007812"/>
      <use xlink:href="#DejaVuSans-Bold-6e" x="148.193359"/>
      <use xlink:href="#DejaVuSans-Bold-61" x="219.384766"/>
      <use xlink:href="#DejaVuSans-Bold-6d" x="286.865234"/>
      <use xlink:href="#DejaVuSans-Bold-69" x="391.064453"/>
      <use xlink:href="#DejaVuSans-Bold-63" x="425.341797"/>
      <use xlink:href="#DejaVuSans-Bold-73" x="484.619141"/>
     </g>
    </g>
   </g>
   <g id="text_6">
    <g clip-path="url(#p5379bf7f47)">
     <!-- 1058 -->
     <g transform="translate(446.66761 409.393196) scale(0.1 -0.1)">
      <use xlink:href="#DejaVuSans-Bold-31"/>
      <use xlink:href="#DejaVuSans-Bold-30" x="69.580078"/>
      <use xlink:href="#DejaVuSans-Bold-35" x="139.160156"/>
      <use xlink:href="#DejaVuSans-Bold-38" x="208.740234"/>
     </g>
    </g>
    <g clip-path="url(#p5379bf7f47)">
     <!-- OR1 -->
     <g transform="translate(449.003547 420.591009) scale(0.1 -0.1)">
      <defs>
       <path id="DejaVuSans-Bold-4f" d="M 2719 3878 
Q 2169 3878 1866 3472 
Q 1563 3066 1563 2328 
Q 1563 1594 1866 1187 
Q 2169 781 2719 781 
Q 3272 781 3575 1187 
Q 3878 1594 3878 2328 
Q 3878 3066 3575 3472 
Q 3272 3878 2719 3878 
z
M 2719 4750 
Q 3844 4750 4481 4106 
Q 5119 3463 5119 2328 
Q 5119 1197 4481 553 
Q 3844 -91 2719 -91 
Q 1597 -91 958 553 
Q 319 1197 319 2328 
Q 319 3463 958 4106 
Q 1597 4750 2719 4750 
z
" transform="scale(0.015625)"/>
       <path id="DejaVuSans-Bold-52" d="M 2297 2597 
Q 2675 2597 2839 2737 
Q 3003 2878 3003 3200 
Q 3003 3519 2839 3656 
Q 2675 3794 2297 3794 
L 1791 3794 
L 1791 2597 
L 2297 2597 
z
M 1791 1766 
L 1791 0 
L 588 0 
L 588 4666 
L 2425 4666 
Q 3347 4666 3776 4356 
Q 4206 4047 4206 3378 
Q 4206 2916 3982 2619 
Q 3759 2322 3309 2181 
Q 3556 2125 3751 1926 
Q 3947 1728 4147 1325 
L 4800 0 
L 3519 0 
L 2950 1159 
Q 2778 1509 2601 1637 
Q 2425 1766 2131 1766 
L 1791 1766 
z
" transform="scale(0.015625)"/>
      </defs>
      <use xlink:href="#DejaVuSans-Bold-4f"/>
      <use xlink:href="#DejaVuSans-Bold-52" x="85.009766"/>
      <use xlink:href="#DejaVuSans-Bold-31" x="162.011719"/>
     </g>
    </g>
   </g>
   <g id="text_7">
    <g clip-path="url(#p5379bf7f47)">
     <!-- 1059 -->
     <g transform="translate(525.7231 409.393196) scale(0.1 -0.1)">
      <use xlink:href="#DejaVuSans-Bold-31"/>
      <use xlink:href="#DejaVuSans-Bold-30" x="69.580078"/>
      <use xlink:href="#DejaVuSans-Bold-35" x="139.160156"/>
      <use xlink:href="#DejaVuSans-Bold-39" x="208.740234"/>
     </g>
    </g>
    <g clip-path="url(#p5379bf7f47)">
     <!-- Calc -->
     <g transform="translate(527.91685 420.591009) scale(0.1 -0.1)">
      <defs>
       <path id="DejaVuSans-Bold-43" d="M 4288 256 
Q 3956 84 3597 -3 
Q 3238 -91 2847 -91 
Q 1681 -91 1000 561 
Q 319 1213 319 2328 
Q 319 3447 1000 4098 
Q 1681 4750 2847 4750 
Q 3238 4750 3597 4662 
Q 3956 4575 4288 4403 
L 4288 3438 
Q 3953 3666 3628 3772 
Q 3303 3878 2944 3878 
Q 2300 3878 1931 3465 
Q 1563 3053 1563 2328 
Q 1563 1606 1931 1193 
Q 2300 781 2944 781 
Q 3303 781 3628 887 
Q 3953 994 4288 1222 
L 4288 256 
z
" transform="scale(0.015625)"/>
       <path id="DejaVuSans-Bold-6c" d="M 538 4863 
L 1656 4863 
L 1656 0 
L 538 0 
L 538 4863 
z
" transform="scale(0.015625)"/>
      </defs>
      <use xlink:href="#DejaVuSans-Bold-43"/>
      <use xlink:href="#DejaVuSans-Bold-61" x="73.388672"/>
      <use xlink:href="#DejaVuSans-Bold-6c" x="140.869141"/>
      <use xlink:href="#DejaVuSans-Bold-63" x="175.146484"/>
     </g>
    </g>
   </g>
   <g id="text_8">
    <g clip-path="url(#p5379bf7f47)">
     <!-- 1060 -->
     <g transform="translate(604.77859 409.393196) scale(0.1 -0.1)">
      <defs>
       <path id="DejaVuSans-Bold-36" d="M 2316 2303 
Q 2000 2303 1842 2098 
Q 1684 1894 1684 1484 
Q 1684 1075 1842 870 
Q 2000 666 2316 666 
Q 2634 666 2792 870 
Q 2950 1075 2950 1484 
Q 2950 1894 2792 2098 
Q 2634 2303 2316 2303 
z
M 3803 4544 
L 3803 3681 
Q 3506 3822 3243 3889 
Q 2981 3956 2731 3956 
Q 2194 3956 1894 3657 
Q 1594 3359 1544 2772 
Q 1750 2925 1990 3001 
Q 2231 3078 2516 3078 
Q 3231 3078 3670 2659 
Q 4109 2241 4109 1563 
Q 4109 813 3618 361 
Q 3128 -91 2303 -91 
Q 1394 -91 895 523 
Q 397 1138 397 2266 
Q 397 3422 980 4083 
Q 1563 4744 2578 4744 
Q 2900 4744 3203 4694 
Q 3506 4644 3803 4544 
z
" transform="scale(0.015625)"/>
      </defs>
      <use xlink:href="#DejaVuSans-Bold-31"/>
      <use xlink:href="#DejaVuSans-Bold-30" x="69.580078"/>
      <use xlink:href="#DejaVuSans-Bold-36" x="139.160156"/>
      <use xlink:href="#DejaVuSans-Bold-30" x="208.740234"/>
     </g>
    </g>
    <g clip-path="url(#p5379bf7f47)">
     <!-- MVC -->
     <g transform="translate(606.179371 420.591009) scale(0.1 -0.1)">
      <defs>
       <path id="DejaVuSans-Bold-4d" d="M 588 4666 
L 2119 4666 
L 3181 2169 
L 4250 4666 
L 5778 4666 
L 5778 0 
L 4641 0 
L 4641 3413 
L 3566 897 
L 2803 897 
L 1728 3413 
L 1728 0 
L 588 0 
L 588 4666 
z
" transform="scale(0.015625)"/>
       <path id="DejaVuSans-Bold-56" d="M 31 4666 
L 1241 4666 
L 2478 1222 
L 3713 4666 
L 4922 4666 
L 3194 0 
L 1759 0 
L 31 4666 
z
" transform="scale(0.015625)"/>
      </defs>
      <use xlink:href="#DejaVuSans-Bold-4d"/>
      <use xlink:href="#DejaVuSans-Bold-56" x="99.511719"/>
      <use xlink:href="#DejaVuSans-Bold-43" x="176.904297"/>
     </g>
    </g>
   </g>
   <g id="text_9">
    <g clip-path="url(#p5379bf7f47)">
     <!-- 2011 -->
     <g transform="translate(51.39016 287.211378) scale(0.1 -0.1)">
      <use xlink:href="#DejaVuSans-Bold-32"/>
      <use xlink:href="#DejaVuSans-Bold-30" x="69.580078"/>
      <use xlink:href="#DejaVuSans-Bold-31" x="139.160156"/>
      <use xlink:href="#DejaVuSans-Bold-31" x="208.740234"/>
     </g>
    </g>
    <g clip-path="url(#p5379bf7f47)">
     <!-- SDT -->
     <g transform="translate(54.143285 298.40919) scale(0.1 -0.1)">
      <defs>
       <path id="DejaVuSans-Bold-54" d="M 31 4666 
L 4331 4666 
L 4331 3756 
L 2784 3756 
L 2784 0 
L 1581 0 
L 1581 3756 
L 31 3756 
L 31 4666 
z
" transform="scale(0.015625)"/>
      </defs>
      <use xlink:href="#DejaVuSans-Bold-53"/>
      <use xlink:href="#DejaVuSans-Bold-44" x="72.021484"/>
      <use xlink:href="#DejaVuSans-Bold-54" x="155.029297"/>
     </g>
    </g>
   </g>
   <g id="text_10">
    <g clip-path="url(#p5379bf7f47)">
     <!-- 2038 -->
     <g transform="translate(143.621565 287.211378) scale(0.1 -0.1)">
      <defs>
       <path id="DejaVuSans-Bold-33" d="M 2981 2516 
Q 3453 2394 3698 2092 
Q 3944 1791 3944 1325 
Q 3944 631 3412 270 
Q 2881 -91 1863 -91 
Q 1503 -91 1142 -33 
Q 781 25 428 141 
L 428 1069 
Q 766 900 1098 814 
Q 1431 728 1753 728 
Q 2231 728 2486 893 
Q 2741 1059 2741 1369 
Q 2741 1688 2480 1852 
Q 2219 2016 1709 2016 
L 1228 2016 
L 1228 2791 
L 1734 2791 
Q 2188 2791 2409 2933 
Q 2631 3075 2631 3366 
Q 2631 3634 2415 3781 
Q 2200 3928 1806 3928 
Q 1516 3928 1219 3862 
Q 922 3797 628 3669 
L 628 4550 
Q 984 4650 1334 4700 
Q 1684 4750 2022 4750 
Q 2931 4750 3382 4451 
Q 3834 4153 3834 3553 
Q 3834 3144 3618 2883 
Q 3403 2622 2981 2516 
z
" transform="scale(0.015625)"/>
      </defs>
      <use xlink:href="#DejaVuSans-Bold-32"/>
      <use xlink:href="#DejaVuSans-Bold-30" x="69.580078"/>
      <use xlink:href="#DejaVuSans-Bold-33" x="139.160156"/>
      <use xlink:href="#DejaVuSans-Bold-38" x="208.740234"/>
     </g>
    </g>
    <g clip-path="url(#p5379bf7f47)">
     <!-- PDEs -->
     <g transform="translate(143.330159 298.40919) scale(0.1 -0.1)">
      <defs>
       <path id="DejaVuSans-Bold-50" d="M 588 4666 
L 2584 4666 
Q 3475 4666 3951 4270 
Q 4428 3875 4428 3144 
Q 4428 2409 3951 2014 
Q 3475 1619 2584 1619 
L 1791 1619 
L 1791 0 
L 588 0 
L 588 4666 
z
M 1791 3794 
L 1791 2491 
L 2456 2491 
Q 2806 2491 2997 2661 
Q 3188 2831 3188 3144 
Q 3188 3456 2997 3625 
Q 2806 3794 2456 3794 
L 1791 3794 
z
" transform="scale(0.015625)"/>
       <path id="DejaVuSans-Bold-45" d="M 588 4666 
L 3834 4666 
L 3834 3756 
L 1791 3756 
L 1791 2888 
L 3713 2888 
L 3713 1978 
L 1791 1978 
L 1791 909 
L 3903 909 
L 3903 0 
L 588 0 
L 588 4666 
z
" transform="scale(0.015625)"/>
      </defs>
      <use xlink:href="#DejaVuSans-Bold-50"/>
      <use xlink:href="#DejaVuSans-Bold-44" x="73.291016"/>
      <use xlink:href="#DejaVuSans-Bold-45" x="156.298828"/>
      <use xlink:href="#DejaVuSans-Bold-73" x="224.609375"/>
     </g>
    </g>
   </g>
   <g id="text_11">
    <g clip-path="url(#p5379bf7f47)">
     <!-- 2039 -->
     <g transform="translate(235.85297 287.172315) scale(0.1 -0.1)">
      <use xlink:href="#DejaVuSans-Bold-32"/>
      <use xlink:href="#DejaVuSans-Bold-30" x="69.580078"/>
      <use xlink:href="#DejaVuSans-Bold-33" x="139.160156"/>
      <use xlink:href="#DejaVuSans-Bold-39" x="208.740234"/>
     </g>
    </g>
    <g clip-path="url(#p5379bf7f47)">
     <!-- Analysis -->
     <g transform="translate(226.326408 298.370128) scale(0.1 -0.1)">
      <use xlink:href="#DejaVuSans-Bold-41"/>
      <use xlink:href="#DejaVuSans-Bold-6e" x="77.392578"/>
      <use xlink:href="#DejaVuSans-Bold-61" x="148.583984"/>
      <use xlink:href="#DejaVuSans-Bold-6c" x="216.064453"/>
      <use xlink:href="#DejaVuSans-Bold-79" x="250.341797"/>
      <use xlink:href="#DejaVuSans-Bold-73" x="315.527344"/>
      <use xlink:href="#DejaVuSans-Bold-69" x="375.048828"/>
      <use xlink:href="#DejaVuSans-Bold-73" x="409.326172"/>
     </g>
    </g>
   </g>
   <g id="text_12">
    <g clip-path="url(#p5379bf7f47)">
     <!-- 2040 -->
     <g transform="translate(328.084375 287.211378) scale(0.1 -0.1)">
      <use xlink:href="#DejaVuSans-Bold-32"/>
      <use xlink:href="#DejaVuSans-Bold-30" x="69.580078"/>
      <use xlink:href="#DejaVuSans-Bold-34" x="139.160156"/>
      <use xlink:href="#DejaVuSans-Bold-30" x="208.740234"/>
     </g>
    </g>
    <g clip-path="url(#p5379bf7f47)">
     <!-- Finance -->
     <g transform="translate(320.021875 298.40919) scale(0.1 -0.1)">
      <defs>
       <path id="DejaVuSans-Bold-46" d="M 588 4666 
L 3834 4666 
L 3834 3756 
L 1791 3756 
L 1791 2888 
L 3713 2888 
L 3713 1978 
L 1791 1978 
L 1791 0 
L 588 0 
L 588 4666 
z
" transform="scale(0.015625)"/>
      </defs>
      <use xlink:href="#DejaVuSans-Bold-46"/>
      <use xlink:href="#DejaVuSans-Bold-69" x="68.310547"/>
      <use xlink:href="#DejaVuSans-Bold-6e" x="102.587891"/>
      <use xlink:href="#DejaVuSans-Bold-61" x="173.779297"/>
      <use xlink:href="#DejaVuSans-Bold-6e" x="241.259766"/>
      <use xlink:href="#DejaVuSans-Bold-63" x="312.451172"/>
      <use xlink:href="#DejaVuSans-Bold-65" x="371.728516"/>
     </g>
    </g>
   </g>
   <g id="text_13">
    <g clip-path="url(#p5379bf7f47)">
     <!-- 2044 -->
     <g transform="translate(420.31578 287.211378) scale(0.1 -0.1)">
      <use xlink:href="#DejaVuSans-Bold-32"/>
      <use xlink:href="#DejaVuSans-Bold-30" x="69.580078"/>
      <use xlink:href="#DejaVuSans-Bold-34" x="139.160156"/>
      <use xlink:href="#DejaVuSans-Bold-34" x="208.740234"/>
     </g>
    </g>
    <g clip-path="url(#p5379bf7f47)">
     <!-- F&amp;F -->
     <g transform="translate(423.039999 298.40919) scale(0.1 -0.1)">
      <defs>
       <path id="DejaVuSans-Bold-26" d="M 2497 3097 
L 3775 1691 
Q 3941 1909 4027 2181 
Q 4113 2453 4128 2797 
L 5100 2797 
Q 5053 2228 4879 1784 
Q 4706 1341 4397 1006 
L 5313 0 
L 3988 0 
L 3681 341 
Q 3353 122 2990 15 
Q 2628 -91 2222 -91 
Q 1400 -91 892 342 
Q 384 775 384 1459 
Q 384 1916 607 2267 
Q 831 2619 1338 2950 
Q 1206 3116 1143 3281 
Q 1081 3447 1081 3628 
Q 1081 4138 1478 4444 
Q 1875 4750 2534 4750 
Q 2819 4750 3126 4704 
Q 3434 4659 3769 4569 
L 3769 3700 
Q 3475 3850 3212 3922 
Q 2950 3994 2700 3994 
Q 2459 3994 2326 3901 
Q 2194 3809 2194 3641 
Q 2194 3534 2270 3398 
Q 2347 3263 2497 3097 
z
M 1875 2322 
Q 1672 2175 1569 1989 
Q 1466 1803 1466 1581 
Q 1466 1222 1731 969 
Q 1997 716 2369 716 
Q 2578 716 2759 780 
Q 2941 844 3097 972 
L 1875 2322 
z
" transform="scale(0.015625)"/>
      </defs>
      <use xlink:href="#DejaVuSans-Bold-46"/>
      <use xlink:href="#DejaVuSans-Bold-26" x="68.310547"/>
      <use xlink:href="#DejaVuSans-Bold-46" x="155.517578"/>
     </g>
    </g>
   </g>
   <g id="text_14">
    <g clip-path="url(#p5379bf7f47)">
     <!-- 2045 -->
     <g transform="translate(512.547185 287.211378) scale(0.1 -0.1)">
      <use xlink:href="#DejaVuSans-Bold-32"/>
      <use xlink:href="#DejaVuSans-Bold-30" x="69.580078"/>
      <use xlink:href="#DejaVuSans-Bold-34" x="139.160156"/>
      <use xlink:href="#DejaVuSans-Bold-35" x="208.740234"/>
     </g>
    </g>
    <g clip-path="url(#p5379bf7f47)">
     <!-- VC -->
     <g transform="translate(518.923747 298.40919) scale(0.1 -0.1)">
      <use xlink:href="#DejaVuSans-Bold-56"/>
      <use xlink:href="#DejaVuSans-Bold-43" x="77.392578"/>
     </g>
    </g>
   </g>
   <g id="text_15">
    <g clip-path="url(#p5379bf7f47)">
     <!-- 2048 -->
     <g transform="translate(604.77859 287.211378) scale(0.1 -0.1)">
      <use xlink:href="#DejaVuSans-Bold-32"/>
      <use xlink:href="#DejaVuSans-Bold-30" x="69.580078"/>
      <use xlink:href="#DejaVuSans-Bold-34" x="139.160156"/>
      <use xlink:href="#DejaVuSans-Bold-38" x="208.740234"/>
     </g>
    </g>
    <g clip-path="url(#p5379bf7f47)">
     <!-- Service -->
     <g transform="translate(597.907496 298.40919) scale(0.1 -0.1)">
      <use xlink:href="#DejaVuSans-Bold-53"/>
      <use xlink:href="#DejaVuSans-Bold-65" x="72.021484"/>
      <use xlink:href="#DejaVuSans-Bold-72" x="139.84375"/>
      <use xlink:href="#DejaVuSans-Bold-76" x="189.160156"/>
      <use xlink:href="#DejaVuSans-Bold-69" x="254.345703"/>
      <use xlink:href="#DejaVuSans-Bold-63" x="288.623047"/>
      <use xlink:href="#DejaVuSans-Bold-65" x="347.900391"/>
     </g>
    </g>
   </g>
   <g id="text_16">
    <g clip-path="url(#p5379bf7f47)">
     <!-- 3006 -->
     <g transform="translate(51.39016 165.02956) scale(0.1 -0.1)">
      <use xlink:href="#DejaVuSans-Bold-33"/>
      <use xlink:href="#DejaVuSans-Bold-30" x="69.580078"/>
      <use xlink:href="#DejaVuSans-Bold-30" x="139.160156"/>
      <use xlink:href="#DejaVuSans-Bold-36" x="208.740234"/>
     </g>
    </g>
    <g clip-path="url(#p5379bf7f47)">
     <!-- GR -->
     <g transform="translate(57.351879 176.227372) scale(0.1 -0.1)">
      <defs>
       <path id="DejaVuSans-Bold-47" d="M 4781 347 
Q 4331 128 3847 18 
Q 3363 -91 2847 -91 
Q 1681 -91 1000 561 
Q 319 1213 319 2328 
Q 319 3456 1012 4103 
Q 1706 4750 2913 4750 
Q 3378 4750 3804 4662 
Q 4231 4575 4609 4403 
L 4609 3438 
Q 4219 3659 3833 3768 
Q 3447 3878 3059 3878 
Q 2341 3878 1952 3476 
Q 1563 3075 1563 2328 
Q 1563 1588 1938 1184 
Q 2313 781 3003 781 
Q 3191 781 3352 804 
Q 3513 828 3641 878 
L 3641 1784 
L 2906 1784 
L 2906 2591 
L 4781 2591 
L 4781 347 
z
" transform="scale(0.015625)"/>
      </defs>
      <use xlink:href="#DejaVuSans-Bold-47"/>
      <use xlink:href="#DejaVuSans-Bold-52" x="82.080078"/>
     </g>
    </g>
   </g>
   <g id="text_17">
    <g clip-path="url(#p5379bf7f47)">
     <!-- 3018 -->
     <g transform="translate(106.729003 165.02956) scale(0.1 -0.1)">
      <use xlink:href="#DejaVuSans-Bold-33"/>
      <use xlink:href="#DejaVuSans-Bold-30" x="69.580078"/>
      <use xlink:href="#DejaVuSans-Bold-31" x="139.160156"/>
      <use xlink:href="#DejaVuSans-Bold-38" x="208.740234"/>
     </g>
    </g>
    <g clip-path="url(#p5379bf7f47)">
     <!-- Numerics -->
     <g transform="translate(94.179784 176.227372) scale(0.1 -0.1)">
      <defs>
       <path id="DejaVuSans-Bold-4e" d="M 588 4666 
L 1931 4666 
L 3628 1466 
L 3628 4666 
L 4769 4666 
L 4769 0 
L 3425 0 
L 1728 3200 
L 1728 0 
L 588 0 
L 588 4666 
z
" transform="scale(0.015625)"/>
       <path id="DejaVuSans-Bold-75" d="M 500 1363 
L 500 3500 
L 1625 3500 
L 1625 3150 
Q 1625 2866 1622 2436 
Q 1619 2006 1619 1863 
Q 1619 1441 1641 1255 
Q 1663 1069 1716 984 
Q 1784 875 1895 815 
Q 2006 756 2150 756 
Q 2500 756 2700 1025 
Q 2900 1294 2900 1772 
L 2900 3500 
L 4019 3500 
L 4019 0 
L 2900 0 
L 2900 506 
Q 2647 200 2364 54 
Q 2081 -91 1741 -91 
Q 1134 -91 817 281 
Q 500 653 500 1363 
z
" transform="scale(0.015625)"/>
      </defs>
      <use xlink:href="#DejaVuSans-Bold-4e"/>
      <use xlink:href="#DejaVuSans-Bold-75" x="83.691406"/>
      <use xlink:href="#DejaVuSans-Bold-6d" x="154.882812"/>
      <use xlink:href="#DejaVuSans-Bold-65" x="259.082031"/>
      <use xlink:href="#DejaVuSans-Bold-72" x="326.904297"/>
      <use xlink:href="#DejaVuSans-Bold-69" x="376.220703"/>
      <use xlink:href="#DejaVuSans-Bold-63" x="410.498047"/>
      <use xlink:href="#DejaVuSans-Bold-73" x="469.775391"/>
     </g>
    </g>
   </g>
   <g id="text_18">
    <g clip-path="url(#p5379bf7f47)">
     <!-- 3022 -->
     <g transform="translate(162.067846 165.02956) scale(0.1 -0.1)">
      <use xlink:href="#DejaVuSans-Bold-33"/>
      <use xlink:href="#DejaVuSans-Bold-30" x="69.580078"/>
      <use xlink:href="#DejaVuSans-Bold-32" x="139.160156"/>
      <use xlink:href="#DejaVuSans-Bold-32" x="208.740234"/>
     </g>
    </g>
    <g clip-path="url(#p5379bf7f47)">
     <!-- MFin -->
     <g transform="translate(162.318627 176.227372) scale(0.1 -0.1)">
      <use xlink:href="#DejaVuSans-Bold-4d"/>
      <use xlink:href="#DejaVuSans-Bold-46" x="99.511719"/>
      <use xlink:href="#DejaVuSans-Bold-69" x="167.822266"/>
      <use xlink:href="#DejaVuSans-Bold-6e" x="202.099609"/>
     </g>
    </g>
   </g>
   <g id="text_19">
    <g clip-path="url(#p5379bf7f47)">
     <!-- 3052 -->
     <g transform="translate(217.406689 165.02956) scale(0.1 -0.1)">
      <use xlink:href="#DejaVuSans-Bold-33"/>
      <use xlink:href="#DejaVuSans-Bold-30" x="69.580078"/>
      <use xlink:href="#DejaVuSans-Bold-35" x="139.160156"/>
      <use xlink:href="#DejaVuSans-Bold-32" x="208.740234"/>
     </g>
    </g>
    <g clip-path="url(#p5379bf7f47)">
     <!-- Bio -->
     <g transform="translate(222.362158 176.227372) scale(0.1 -0.1)">
      <defs>
       <path id="DejaVuSans-Bold-42" d="M 2456 2859 
Q 2741 2859 2887 2984 
Q 3034 3109 3034 3353 
Q 3034 3594 2887 3720 
Q 2741 3847 2456 3847 
L 1791 3847 
L 1791 2859 
L 2456 2859 
z
M 2497 819 
Q 2859 819 3042 972 
Q 3225 1125 3225 1434 
Q 3225 1738 3044 1889 
Q 2863 2041 2497 2041 
L 1791 2041 
L 1791 819 
L 2497 819 
z
M 3616 2497 
Q 4003 2384 4215 2081 
Q 4428 1778 4428 1338 
Q 4428 663 3972 331 
Q 3516 0 2584 0 
L 588 0 
L 588 4666 
L 2394 4666 
Q 3366 4666 3802 4372 
Q 4238 4078 4238 3431 
Q 4238 3091 4078 2852 
Q 3919 2613 3616 2497 
z
" transform="scale(0.015625)"/>
       <path id="DejaVuSans-Bold-6f" d="M 2203 2784 
Q 1831 2784 1636 2517 
Q 1441 2250 1441 1747 
Q 1441 1244 1636 976 
Q 1831 709 2203 709 
Q 2569 709 2762 976 
Q 2956 1244 2956 1747 
Q 2956 2250 2762 2517 
Q 2569 2784 2203 2784 
z
M 2203 3584 
Q 3106 3584 3614 3096 
Q 4122 2609 4122 1747 
Q 4122 884 3614 396 
Q 3106 -91 2203 -91 
Q 1297 -91 786 396 
Q 275 884 275 1747 
Q 275 2609 786 3096 
Q 1297 3584 2203 3584 
z
" transform="scale(0.015625)"/>
      </defs>
      <use xlink:href="#DejaVuSans-Bold-42"/>
      <use xlink:href="#DejaVuSans-Bold-69" x="76.220703"/>
      <use xlink:href="#DejaVuSans-Bold-6f" x="110.498047"/>
     </g>
    </g>
   </g>
   <g id="text_20">
    <g clip-path="url(#p5379bf7f47)">
     <!-- 3063 -->
     <g transform="translate(272.745532 165.02956) scale(0.1 -0.1)">
      <use xlink:href="#DejaVuSans-Bold-33"/>
      <use xlink:href="#DejaVuSans-Bold-30" x="69.580078"/>
      <use xlink:href="#DejaVuSans-Bold-36" x="139.160156"/>
      <use xlink:href="#DejaVuSans-Bold-33" x="208.740234"/>
     </g>
    </g>
    <g clip-path="url(#p5379bf7f47)">
     <!-- AM1 -->
     <g transform="translate(274.336938 176.227372) scale(0.1 -0.1)">
      <use xlink:href="#DejaVuSans-Bold-41"/>
      <use xlink:href="#DejaVuSans-Bold-4d" x="77.392578"/>
      <use xlink:href="#DejaVuSans-Bold-31" x="176.904297"/>
     </g>
    </g>
   </g>
   <g id="text_21">
    <g clip-path="url(#p5379bf7f47)">
     <!-- 3066 -->
     <g transform="translate(328.084375 165.02956) scale(0.1 -0.1)">
      <use xlink:href="#DejaVuSans-Bold-33"/>
      <use xlink:href="#DejaVuSans-Bold-30" x="69.580078"/>
      <use xlink:href="#DejaVuSans-Bold-36" x="139.160156"/>
      <use xlink:href="#DejaVuSans-Bold-36" x="208.740234"/>
     </g>
    </g>
    <g clip-path="url(#p5379bf7f47)">
     <!-- AM2 -->
     <g transform="translate(329.675781 176.227372) scale(0.1 -0.1)">
      <use xlink:href="#DejaVuSans-Bold-41"/>
      <use xlink:href="#DejaVuSans-Bold-4d" x="77.392578"/>
      <use xlink:href="#DejaVuSans-Bold-32" x="176.904297"/>
     </g>
    </g>
   </g>
   <g id="text_22">
    <g clip-path="url(#p5379bf7f47)">
     <!-- 3072 -->
     <g transform="translate(383.423218 165.02956) scale(0.1 -0.1)">
      <use xlink:href="#DejaVuSans-Bold-33"/>
      <use xlink:href="#DejaVuSans-Bold-30" x="69.580078"/>
      <use xlink:href="#DejaVuSans-Bold-37" x="139.160156"/>
      <use xlink:href="#DejaVuSans-Bold-32" x="208.740234"/>
     </g>
    </g>
    <g clip-path="url(#p5379bf7f47)">
     <!-- AFluids -->
     <g transform="translate(376.511499 176.227372) scale(0.1 -0.1)">
      <defs>
       <path id="DejaVuSans-Bold-64" d="M 2919 2988 
L 2919 4863 
L 4044 4863 
L 4044 0 
L 2919 0 
L 2919 506 
Q 2688 197 2409 53 
Q 2131 -91 1766 -91 
Q 1119 -91 703 423 
Q 288 938 288 1747 
Q 288 2556 703 3070 
Q 1119 3584 1766 3584 
Q 2128 3584 2408 3439 
Q 2688 3294 2919 2988 
z
M 2181 722 
Q 2541 722 2730 984 
Q 2919 1247 2919 1747 
Q 2919 2247 2730 2509 
Q 2541 2772 2181 2772 
Q 1825 2772 1636 2509 
Q 1447 2247 1447 1747 
Q 1447 1247 1636 984 
Q 1825 722 2181 722 
z
" transform="scale(0.015625)"/>
      </defs>
      <use xlink:href="#DejaVuSans-Bold-41"/>
      <use xlink:href="#DejaVuSans-Bold-46" x="77.392578"/>
      <use xlink:href="#DejaVuSans-Bold-6c" x="145.703125"/>
      <use xlink:href="#DejaVuSans-Bold-75" x="179.980469"/>
      <use xlink:href="#DejaVuSans-Bold-69" x="251.171875"/>
      <use xlink:href="#DejaVuSans-Bold-64" x="285.449219"/>
      <use xlink:href="#DejaVuSans-Bold-73" x="357.03125"/>
     </g>
    </g>
   </g>
   <g id="text_23">
    <g clip-path="url(#p5379bf7f47)">
     <!-- 3083 -->
     <g transform="translate(438.762061 165.02956) scale(0.1 -0.1)">
      <use xlink:href="#DejaVuSans-Bold-33"/>
      <use xlink:href="#DejaVuSans-Bold-30" x="69.580078"/>
      <use xlink:href="#DejaVuSans-Bold-38" x="139.160156"/>
      <use xlink:href="#DejaVuSans-Bold-33" x="208.740234"/>
     </g>
    </g>
    <g clip-path="url(#p5379bf7f47)">
     <!-- APDEs -->
     <g transform="translate(434.601123 176.227372) scale(0.1 -0.1)">
      <use xlink:href="#DejaVuSans-Bold-41"/>
      <use xlink:href="#DejaVuSans-Bold-50" x="77.392578"/>
      <use xlink:href="#DejaVuSans-Bold-44" x="150.683594"/>
      <use xlink:href="#DejaVuSans-Bold-45" x="233.691406"/>
      <use xlink:href="#DejaVuSans-Bold-73" x="302.001953"/>
     </g>
    </g>
   </g>
   <g id="text_24">
    <g clip-path="url(#p5379bf7f47)">
     <!-- 3084 -->
     <g transform="translate(494.100904 165.02956) scale(0.1 -0.1)">
      <use xlink:href="#DejaVuSans-Bold-33"/>
      <use xlink:href="#DejaVuSans-Bold-30" x="69.580078"/>
      <use xlink:href="#DejaVuSans-Bold-38" x="139.160156"/>
      <use xlink:href="#DejaVuSans-Bold-34" x="208.740234"/>
     </g>
    </g>
    <g clip-path="url(#p5379bf7f47)">
     <!-- ITMs -->
     <g transform="translate(494.793873 176.227372) scale(0.1 -0.1)">
      <defs>
       <path id="DejaVuSans-Bold-49" d="M 588 4666 
L 1791 4666 
L 1791 0 
L 588 0 
L 588 4666 
z
" transform="scale(0.015625)"/>
      </defs>
      <use xlink:href="#DejaVuSans-Bold-49"/>
      <use xlink:href="#DejaVuSans-Bold-54" x="37.207031"/>
      <use xlink:href="#DejaVuSans-Bold-4d" x="105.419922"/>
      <use xlink:href="#DejaVuSans-Bold-73" x="204.931641"/>
     </g>
    </g>
   </g>
   <g id="text_25">
    <g clip-path="url(#p5379bf7f47)">
     <!-- 3090 -->
     <g transform="translate(549.439747 165.02956) scale(0.1 -0.1)">
      <use xlink:href="#DejaVuSans-Bold-33"/>
      <use xlink:href="#DejaVuSans-Bold-30" x="69.580078"/>
      <use xlink:href="#DejaVuSans-Bold-39" x="139.160156"/>
      <use xlink:href="#DejaVuSans-Bold-30" x="208.740234"/>
     </g>
    </g>
    <g clip-path="url(#p5379bf7f47)">
     <!-- Networks -->
     <g transform="translate(536.568653 176.227372) scale(0.1 -0.1)">
      <defs>
       <path id="DejaVuSans-Bold-77" d="M 225 3500 
L 1313 3500 
L 1900 1088 
L 2491 3500 
L 3425 3500 
L 4013 1113 
L 4603 3500 
L 5691 3500 
L 4769 0 
L 3547 0 
L 2956 2406 
L 2369 0 
L 1147 0 
L 225 3500 
z
" transform="scale(0.015625)"/>
       <path id="DejaVuSans-Bold-6b" d="M 538 4863 
L 1656 4863 
L 1656 2216 
L 2944 3500 
L 4244 3500 
L 2534 1894 
L 4378 0 
L 3022 0 
L 1656 1459 
L 1656 0 
L 538 0 
L 538 4863 
z
" transform="scale(0.015625)"/>
      </defs>
      <use xlink:href="#DejaVuSans-Bold-4e"/>
      <use xlink:href="#DejaVuSans-Bold-65" x="83.691406"/>
      <use xlink:href="#DejaVuSans-Bold-74" x="151.513672"/>
      <use xlink:href="#DejaVuSans-Bold-77" x="199.316406"/>
      <use xlink:href="#DejaVuSans-Bold-6f" x="291.699219"/>
      <use xlink:href="#DejaVuSans-Bold-72" x="360.400391"/>
      <use xlink:href="#DejaVuSans-Bold-6b" x="409.716797"/>
      <use xlink:href="#DejaVuSans-Bold-73" x="476.220703"/>
     </g>
    </g>
   </g>
   <g id="text_26">
    <g clip-path="url(#p5379bf7f47)">
     <!-- 3092 -->
     <g transform="translate(604.77859 164.990497) scale(0.1 -0.1)">
      <use xlink:href="#DejaVuSans-Bold-33"/>
      <use xlink:href="#DejaVuSans-Bold-30" x="69.580078"/>
      <use xlink:href="#DejaVuSans-Bold-39" x="139.160156"/>
      <use xlink:href="#DejaVuSans-Bold-32" x="208.740234"/>
     </g>
    </g>
    <g clip-path="url(#p5379bf7f47)">
     <!-- Project -->
     <g transform="translate(598.669215 176.18831) scale(0.1 -0.1)">
      <defs>
       <path id="DejaVuSans-Bold-6a" d="M 538 3500 
L 1656 3500 
L 1656 63 
Q 1656 -641 1318 -1011 
Q 981 -1381 341 -1381 
L -213 -1381 
L -213 -647 
L -19 -647 
Q 300 -647 419 -503 
Q 538 -359 538 63 
L 538 3500 
z
M 538 4863 
L 1656 4863 
L 1656 3950 
L 538 3950 
L 538 4863 
z
" transform="scale(0.015625)"/>
      </defs>
      <use xlink:href="#DejaVuSans-Bold-50"/>
      <use xlink:href="#DejaVuSans-Bold-72" x="73.291016"/>
      <use xlink:href="#DejaVuSans-Bold-6f" x="122.607422"/>
      <use xlink:href="#DejaVuSans-Bold-6a" x="191.308594"/>
      <use xlink:href="#DejaVuSans-Bold-65" x="225.585938"/>
      <use xlink:href="#DejaVuSans-Bold-63" x="293.408203"/>
      <use xlink:href="#DejaVuSans-Bold-74" x="352.685547"/>
     </g>
    </g>
   </g>
   <g id="text_27">
    <g clip-path="url(#p5379bf7f47)">
     <!-- 6109 -->
     <g transform="translate(51.39016 42.847741) scale(0.1 -0.1)">
      <use xlink:href="#DejaVuSans-Bold-36"/>
      <use xlink:href="#DejaVuSans-Bold-31" x="69.580078"/>
      <use xlink:href="#DejaVuSans-Bold-30" x="139.160156"/>
      <use xlink:href="#DejaVuSans-Bold-39" x="208.740234"/>
     </g>
    </g>
    <g clip-path="url(#p5379bf7f47)">
     <!-- DiffGeom -->
     <g transform="translate(38.950316 54.045554) scale(0.1 -0.1)">
      <defs>
       <path id="DejaVuSans-Bold-66" d="M 2841 4863 
L 2841 4128 
L 2222 4128 
Q 1984 4128 1890 4042 
Q 1797 3956 1797 3744 
L 1797 3500 
L 2753 3500 
L 2753 2700 
L 1797 2700 
L 1797 0 
L 678 0 
L 678 2700 
L 122 2700 
L 122 3500 
L 678 3500 
L 678 3744 
Q 678 4316 997 4589 
Q 1316 4863 1984 4863 
L 2841 4863 
z
" transform="scale(0.015625)"/>
      </defs>
      <use xlink:href="#DejaVuSans-Bold-44"/>
      <use xlink:href="#DejaVuSans-Bold-69" x="83.007812"/>
      <use xlink:href="#DejaVuSans-Bold-66" x="117.285156"/>
      <use xlink:href="#DejaVuSans-Bold-66" x="160.791016"/>
      <use xlink:href="#DejaVuSans-Bold-47" x="204.296875"/>
      <use xlink:href="#DejaVuSans-Bold-65" x="286.376953"/>
      <use xlink:href="#DejaVuSans-Bold-6f" x="354.199219"/>
      <use xlink:href="#DejaVuSans-Bold-6d" x="422.900391"/>
     </g>
    </g>
   </g>
   <g id="text_28">
    <g clip-path="url(#p5379bf7f47)">
     <!-- 6129 -->
     <g transform="translate(106.729003 42.847741) scale(0.1 -0.1)">
      <use xlink:href="#DejaVuSans-Bold-36"/>
      <use xlink:href="#DejaVuSans-Bold-31" x="69.580078"/>
      <use xlink:href="#DejaVuSans-Bold-32" x="139.160156"/>
      <use xlink:href="#DejaVuSans-Bold-39" x="208.740234"/>
     </g>
    </g>
    <g clip-path="url(#p5379bf7f47)">
     <!-- AM1 -->
     <g transform="translate(108.320409 54.045554) scale(0.1 -0.1)">
      <use xlink:href="#DejaVuSans-Bold-41"/>
      <use xlink:href="#DejaVuSans-Bold-4d" x="77.392578"/>
      <use xlink:href="#DejaVuSans-Bold-31" x="176.904297"/>
     </g>
    </g>
   </g>
   <g id="text_29">
    <g clip-path="url(#p5379bf7f47)">
     <!-- 6130 -->
     <g transform="translate(162.067846 42.847741) scale(0.1 -0.1)">
      <use xlink:href="#DejaVuSans-Bold-36"/>
      <use xlink:href="#DejaVuSans-Bold-31" x="69.580078"/>
      <use xlink:href="#DejaVuSans-Bold-33" x="139.160156"/>
      <use xlink:href="#DejaVuSans-Bold-30" x="208.740234"/>
     </g>
    </g>
    <g clip-path="url(#p5379bf7f47)">
     <!-- AM2 -->
     <g transform="translate(163.659252 54.045554) scale(0.1 -0.1)">
      <use xlink:href="#DejaVuSans-Bold-41"/>
      <use xlink:href="#DejaVuSans-Bold-4d" x="77.392578"/>
      <use xlink:href="#DejaVuSans-Bold-32" x="176.904297"/>
     </g>
    </g>
   </g>
   <g id="text_30">
    <g clip-path="url(#p5379bf7f47)">
     <!-- 6139 -->
     <g transform="translate(217.406689 42.847741) scale(0.1 -0.1)">
      <use xlink:href="#DejaVuSans-Bold-36"/>
      <use xlink:href="#DejaVuSans-Bold-31" x="69.580078"/>
      <use xlink:href="#DejaVuSans-Bold-33" x="139.160156"/>
      <use xlink:href="#DejaVuSans-Bold-39" x="208.740234"/>
     </g>
    </g>
    <g clip-path="url(#p5379bf7f47)">
     <!-- AGR -->
     <g transform="translate(219.498877 54.045554) scale(0.1 -0.1)">
      <use xlink:href="#DejaVuSans-Bold-41"/>
      <use xlink:href="#DejaVuSans-Bold-47" x="77.392578"/>
      <use xlink:href="#DejaVuSans-Bold-52" x="159.472656"/>
     </g>
    </g>
   </g>
   <g id="text_31">
    <g clip-path="url(#p5379bf7f47)">
     <!-- 6140 -->
     <g transform="translate(272.745532 42.847741) scale(0.1 -0.1)">
      <use xlink:href="#DejaVuSans-Bold-36"/>
      <use xlink:href="#DejaVuSans-Bold-31" x="69.580078"/>
      <use xlink:href="#DejaVuSans-Bold-34" x="139.160156"/>
      <use xlink:href="#DejaVuSans-Bold-30" x="208.740234"/>
     </g>
    </g>
    <g clip-path="url(#p5379bf7f47)">
     <!-- Networks -->
     <g transform="translate(259.874438 54.045554) scale(0.1 -0.1)">
      <use xlink:href="#DejaVuSans-Bold-4e"/>
      <use xlink:href="#DejaVuSans-Bold-65" x="83.691406"/>
      <use xlink:href="#DejaVuSans-Bold-74" x="151.513672"/>
      <use xlink:href="#DejaVuSans-Bold-77" x="199.316406"/>
      <use xlink:href="#DejaVuSans-Bold-6f" x="291.699219"/>
      <use xlink:href="#DejaVuSans-Bold-72" x="360.400391"/>
      <use xlink:href="#DejaVuSans-Bold-6b" x="409.716797"/>
      <use xlink:href="#DejaVuSans-Bold-73" x="476.220703"/>
     </g>
    </g>
   </g>
   <g id="text_32">
    <g clip-path="url(#p5379bf7f47)">
     <!-- 6141 -->
     <g transform="translate(328.084375 42.847741) scale(0.1 -0.1)">
      <use xlink:href="#DejaVuSans-Bold-36"/>
      <use xlink:href="#DejaVuSans-Bold-31" x="69.580078"/>
      <use xlink:href="#DejaVuSans-Bold-34" x="139.160156"/>
      <use xlink:href="#DejaVuSans-Bold-31" x="208.740234"/>
     </g>
    </g>
    <g clip-path="url(#p5379bf7f47)">
     <!-- Numerics -->
     <g transform="translate(315.535156 54.045554) scale(0.1 -0.1)">
      <use xlink:href="#DejaVuSans-Bold-4e"/>
      <use xlink:href="#DejaVuSans-Bold-75" x="83.691406"/>
      <use xlink:href="#DejaVuSans-Bold-6d" x="154.882812"/>
      <use xlink:href="#DejaVuSans-Bold-65" x="259.082031"/>
      <use xlink:href="#DejaVuSans-Bold-72" x="326.904297"/>
      <use xlink:href="#DejaVuSans-Bold-69" x="376.220703"/>
      <use xlink:href="#DejaVuSans-Bold-63" x="410.498047"/>
      <use xlink:href="#DejaVuSans-Bold-73" x="469.775391"/>
     </g>
    </g>
   </g>
   <g id="text_33">
    <g clip-path="url(#p5379bf7f47)">
     <!-- 6144 -->
     <g transform="translate(383.423218 42.808679) scale(0.1 -0.1)">
      <use xlink:href="#DejaVuSans-Bold-36"/>
      <use xlink:href="#DejaVuSans-Bold-31" x="69.580078"/>
      <use xlink:href="#DejaVuSans-Bold-34" x="139.160156"/>
      <use xlink:href="#DejaVuSans-Bold-34" x="208.740234"/>
     </g>
    </g>
    <g clip-path="url(#p5379bf7f47)">
     <!-- Project -->
     <g transform="translate(377.313843 54.006491) scale(0.1 -0.1)">
      <use xlink:href="#DejaVuSans-Bold-50"/>
      <use xlink:href="#DejaVuSans-Bold-72" x="73.291016"/>
      <use xlink:href="#DejaVuSans-Bold-6f" x="122.607422"/>
      <use xlink:href="#DejaVuSans-Bold-6a" x="191.308594"/>
      <use xlink:href="#DejaVuSans-Bold-65" x="225.585938"/>
      <use xlink:href="#DejaVuSans-Bold-63" x="293.408203"/>
      <use xlink:href="#DejaVuSans-Bold-74" x="352.685547"/>
     </g>
    </g>
   </g>
   <g id="text_34">
    <g clip-path="url(#p5379bf7f47)">
     <!-- 6149 -->
     <g transform="translate(438.762061 42.808679) scale(0.1 -0.1)">
      <use xlink:href="#DejaVuSans-Bold-36"/>
      <use xlink:href="#DejaVuSans-Bold-31" x="69.580078"/>
      <use xlink:href="#DejaVuSans-Bold-34" x="139.160156"/>
      <use xlink:href="#DejaVuSans-Bold-39" x="208.740234"/>
     </g>
    </g>
    <g clip-path="url(#p5379bf7f47)">
     <!-- Modelling -->
     <g transform="translate(425.015967 54.006491) scale(0.1 -0.1)">
      <defs>
       <path id="DejaVuSans-Bold-67" d="M 2919 594 
Q 2688 288 2409 144 
Q 2131 0 1766 0 
Q 1125 0 706 504 
Q 288 1009 288 1791 
Q 288 2575 706 3076 
Q 1125 3578 1766 3578 
Q 2131 3578 2409 3434 
Q 2688 3291 2919 2981 
L 2919 3500 
L 4044 3500 
L 4044 353 
Q 4044 -491 3511 -936 
Q 2978 -1381 1966 -1381 
Q 1638 -1381 1331 -1331 
Q 1025 -1281 716 -1178 
L 716 -306 
Q 1009 -475 1290 -558 
Q 1572 -641 1856 -641 
Q 2406 -641 2662 -400 
Q 2919 -159 2919 353 
L 2919 594 
z
M 2181 2772 
Q 1834 2772 1640 2515 
Q 1447 2259 1447 1791 
Q 1447 1309 1634 1061 
Q 1822 813 2181 813 
Q 2531 813 2725 1069 
Q 2919 1325 2919 1791 
Q 2919 2259 2725 2515 
Q 2531 2772 2181 2772 
z
" transform="scale(0.015625)"/>
      </defs>
      <use xlink:href="#DejaVuSans-Bold-4d"/>
      <use xlink:href="#DejaVuSans-Bold-6f" x="99.511719"/>
      <use xlink:href="#DejaVuSans-Bold-64" x="168.212891"/>
      <use xlink:href="#DejaVuSans-Bold-65" x="239.794922"/>
      <use xlink:href="#DejaVuSans-Bold-6c" x="307.617188"/>
      <use xlink:href="#DejaVuSans-Bold-6c" x="341.894531"/>
      <use xlink:href="#DejaVuSans-Bold-69" x="376.171875"/>
      <use xlink:href="#DejaVuSans-Bold-6e" x="410.449219"/>
      <use xlink:href="#DejaVuSans-Bold-67" x="481.640625"/>
     </g>
    </g>
   </g>
   <g id="text_35">
    <g clip-path="url(#p5379bf7f47)">
     <!-- 6162 -->
     <g transform="translate(494.100904 42.847741) scale(0.1 -0.1)">
      <use xlink:href="#DejaVuSans-Bold-36"/>
      <use xlink:href="#DejaVuSans-Bold-31" x="69.580078"/>
      <use xlink:href="#DejaVuSans-Bold-36" x="139.160156"/>
      <use xlink:href="#DejaVuSans-Bold-32" x="208.740234"/>
     </g>
    </g>
    <g clip-path="url(#p5379bf7f47)">
     <!-- ITMs -->
     <g transform="translate(494.793873 54.045554) scale(0.1 -0.1)">
      <use xlink:href="#DejaVuSans-Bold-49"/>
      <use xlink:href="#DejaVuSans-Bold-54" x="37.207031"/>
      <use xlink:href="#DejaVuSans-Bold-4d" x="105.419922"/>
      <use xlink:href="#DejaVuSans-Bold-73" x="204.931641"/>
     </g>
    </g>
   </g>
   <g id="text_36">
    <g clip-path="url(#p5379bf7f47)">
     <!-- 6163 -->
     <g transform="translate(549.439747 42.847741) scale(0.1 -0.1)">
      <use xlink:href="#DejaVuSans-Bold-36"/>
      <use xlink:href="#DejaVuSans-Bold-31" x="69.580078"/>
      <use xlink:href="#DejaVuSans-Bold-36" x="139.160156"/>
      <use xlink:href="#DejaVuSans-Bold-33" x="208.740234"/>
     </g>
    </g>
    <g clip-path="url(#p5379bf7f47)">
     <!-- APDEs -->
     <g transform="translate(545.278809 54.045554) scale(0.1 -0.1)">
      <use xlink:href="#DejaVuSans-Bold-41"/>
      <use xlink:href="#DejaVuSans-Bold-50" x="77.392578"/>
      <use xlink:href="#DejaVuSans-Bold-44" x="150.683594"/>
      <use xlink:href="#DejaVuSans-Bold-45" x="233.691406"/>
      <use xlink:href="#DejaVuSans-Bold-73" x="302.001953"/>
     </g>
    </g>
   </g>
   <g id="text_37">
    <g clip-path="url(#p5379bf7f47)">
     <!-- 6172 -->
     <g transform="translate(604.77859 42.847741) scale(0.1 -0.1)">
      <use xlink:href="#DejaVuSans-Bold-36"/>
      <use xlink:href="#DejaVuSans-Bold-31" x="69.580078"/>
      <use xlink:href="#DejaVuSans-Bold-37" x="139.160156"/>
      <use xlink:href="#DejaVuSans-Bold-32" x="208.740234"/>
     </g>
    </g>
    <g clip-path="url(#p5379bf7f47)">
     <!-- GWs -->
     <g transform="translate(606.099684 54.045554) scale(0.1 -0.1)">
      <defs>
       <path id="DejaVuSans-Bold-57" d="M 191 4666 
L 1344 4666 
L 2150 1275 
L 2950 4666 
L 4109 4666 
L 4909 1275 
L 5716 4666 
L 6859 4666 
L 5759 0 
L 4372 0 
L 3525 3547 
L 2688 0 
L 1300 0 
L 191 4666 
z
" transform="scale(0.015625)"/>
      </defs>
      <use xlink:href="#DejaVuSans-Bold-47"/>
      <use xlink:href="#DejaVuSans-Bold-57" x="82.080078"/>
      <use xlink:href="#DejaVuSans-Bold-73" x="192.382812"/>
     </g>
    </g>
   </g>
  </g>
 </g>
 <defs>
  <clipPath id="p5379bf7f47">
   <rect x="7.2" y="7.2" width="669.6" height="443.52"/>
  </clipPath>
 </defs>
</svg>
