<?xml version="1.0" encoding="utf-8" standalone="no"?>
<!DOCTYPE svg PUBLIC "-//W3C//DTD SVG 1.1//EN"
  "http://www.w3.org/Graphics/SVG/1.1/DTD/svg11.dtd">
<svg xmlns:xlink="http://www.w3.org/1999/xlink" width="684pt" height="457.92pt" viewBox="0 0 684 457.92" xmlns="http://www.w3.org/2000/svg" version="1.1">
 <metadata>
  <rdf:RDF xmlns:dc="http://purl.org/dc/elements/1.1/" xmlns:cc="http://creativecommons.org/ns#" xmlns:rdf="http://www.w3.org/1999/02/22-rdf-syntax-ns#">
   <cc:Work>
    <dc:type rdf:resource="http://purl.org/dc/dcmitype/StillImage"/>
    <dc:date>2023-12-01T11:00:14.976185</dc:date>
    <dc:format>image/svg+xml</dc:format>
    <dc:creator>
     <cc:Agent>
      <dc:title>Matplotlib v3.7.2, https://matplotlib.org/</dc:title>
     </cc:Agent>
    </dc:creator>
   </cc:Work>
  </rdf:RDF>
 </metadata>
 <defs>
  <style type="text/css">*{stroke-linejoin: round; stroke-linecap: butt}</style>
 </defs>
 <g id="figure_1">
  <g id="patch_1">
   <path d="M 0 457.92 
L 684 457.92 
L 684 0 
L 0 0 
z
" style="fill: #ffffff"/>
  </g>
  <g id="axes_1">
   <g id="patch_2">
    <path d="M 87.600858 413.923296 
Q 111.421641 415.153736 134.125878 413.980955 
" clip-path="url(#p06407abbe9)" style="fill: none; stroke: #000000; stroke-linecap: round"/>
    <path d="M 130.028032 412.189962 
L 134.125878 413.980955 
L 130.234375 416.184636 
z
" clip-path="url(#p06407abbe9)" style="stroke: #000000; stroke-linecap: round"/>
   </g>
   <g id="patch_3">
    <path d="M 87.56849 414.279873 
Q 203.651701 424.020192 318.620794 414.373554 
" clip-path="url(#p06407abbe9)" style="fill: none; stroke: #000000; stroke-linecap: round"/>
    <path d="M 314.467576 412.715008 
L 318.620794 414.373554 
L 314.802026 416.701001 
z
" clip-path="url(#p06407abbe9)" style="stroke: #000000; stroke-linecap: round"/>
   </g>
   <g id="patch_4">
    <path d="M 87.567082 414.32453 
Q 249.768439 428.587191 410.856059 414.42249 
" clip-path="url(#p06407abbe9)" style="fill: none; stroke: #000000; stroke-linecap: round"/>
    <path d="M 406.696247 412.780553 
L 410.856059 414.42249 
L 407.046622 416.765178 
z
" clip-path="url(#p06407abbe9)" style="stroke: #000000; stroke-linecap: round"/>
   </g>
   <g id="patch_5">
    <path d="M 87.560045 414.368659 
Q 341.997675 437.766003 595.321967 414.471464 
" clip-path="url(#p06407abbe9)" style="fill: none; stroke: #000000; stroke-linecap: round"/>
    <path d="M 591.155634 412.846143 
L 595.321967 414.471464 
L 591.52191 416.829338 
z
" clip-path="url(#p06407abbe9)" style="stroke: #000000; stroke-linecap: round"/>
   </g>
   <g id="patch_6">
    <path d="M 87.253817 407.972419 
Q 278.338858 369.868638 458.550652 298.772531 
" clip-path="url(#p06407abbe9)" style="fill: none; stroke: #000000; stroke-linecap: round"/>
    <path d="M 454.095774 298.380029 
L 458.550652 298.772531 
L 455.563723 302.100933 
z
" clip-path="url(#p06407abbe9)" style="stroke: #000000; stroke-linecap: round"/>
   </g>
   <g id="patch_7">
    <path d="M 86.066891 403.936262 
Q 313.713626 311.871673 519.887906 180.558099 
" clip-path="url(#p06407abbe9)" style="fill: none; stroke: #000000; stroke-linecap: round"/>
    <path d="M 515.439686 181.019994 
L 519.887906 180.558099 
L 517.58849 184.393811 
z
" clip-path="url(#p06407abbe9)" style="stroke: #000000; stroke-linecap: round"/>
   </g>
   <g id="patch_8">
    <path d="M 75.130373 392.148419 
Q 150.841504 235.137769 197.454818 68.334935 
" clip-path="url(#p06407abbe9)" style="fill: none; stroke: #000000; stroke-linecap: round"/>
    <path d="M 194.452055 71.649059 
L 197.454818 68.334935 
L 198.304459 72.72562 
z
" clip-path="url(#p06407abbe9)" style="stroke: #000000; stroke-linecap: round"/>
   </g>
   <g id="patch_9">
    <path d="M 177.431164 402.022694 
Q 359.665708 307.372657 521.141783 182.330215 
" clip-path="url(#p06407abbe9)" style="fill: none; stroke: #000000; stroke-linecap: round"/>
    <path d="M 516.754638 183.197948 
L 521.141783 182.330215 
L 519.203682 186.360571 
z
" clip-path="url(#p06407abbe9)" style="stroke: #000000; stroke-linecap: round"/>
   </g>
   <g id="patch_10">
    <path d="M 162.392182 390.404183 
Q 196.846622 231.003895 202.907812 69.153919 
" clip-path="url(#p06407abbe9)" style="fill: none; stroke: #000000; stroke-linecap: round"/>
    <path d="M 200.75952 73.076271 
L 202.907812 69.153919 
L 204.756718 73.225963 
z
" clip-path="url(#p06407abbe9)" style="stroke: #000000; stroke-linecap: round"/>
   </g>
   <g id="patch_11">
    <path d="M 271.563889 407.225498 
Q 439.681074 367.595535 597.193293 299.486431 
" clip-path="url(#p06407abbe9)" style="fill: none; stroke: #000000; stroke-linecap: round"/>
    <path d="M 592.728049 299.238259 
L 597.193293 299.486431 
L 594.315609 302.909723 
z
" clip-path="url(#p06407abbe9)" style="stroke: #000000; stroke-linecap: round"/>
   </g>
   <g id="patch_12">
    <path d="M 340.444805 389.928509 
Q 332.454142 288.40038 308.297385 190.616022 
" clip-path="url(#p06407abbe9)" style="fill: none; stroke: #000000; stroke-linecap: round"/>
    <path d="M 307.31508 194.978943 
L 308.297385 190.616022 
L 311.198339 194.019618 
z
" clip-path="url(#p06407abbe9)" style="stroke: #000000; stroke-linecap: round"/>
   </g>
   <g id="patch_13">
    <path d="M 504.201513 410.140924 
Q 342.000156 395.878263 180.912536 410.042964 
" clip-path="url(#p06407abbe9)" style="fill: none; stroke: #000000; stroke-linecap: round"/>
    <path d="M 185.072348 411.684902 
L 180.912536 410.042964 
L 184.721973 407.700277 
z
" clip-path="url(#p06407abbe9)" style="stroke: #000000; stroke-linecap: round"/>
   </g>
   <g id="patch_14">
    <path d="M 504.190254 410.274397 
Q 434.234323 404.968139 365.393224 410.1894 
" clip-path="url(#p06407abbe9)" style="fill: none; stroke: #000000; stroke-linecap: round"/>
    <path d="M 369.533024 411.88116 
L 365.393224 410.1894 
L 369.230512 407.892616 
z
" clip-path="url(#p06407abbe9)" style="stroke: #000000; stroke-linecap: round"/>
   </g>
   <g id="patch_15">
    <path d="M 504.167737 410.542158 
Q 480.346954 409.311718 457.642717 410.484499 
" clip-path="url(#p06407abbe9)" style="fill: none; stroke: #000000; stroke-linecap: round"/>
    <path d="M 461.740563 412.275493 
L 457.642717 410.484499 
L 461.53422 408.280818 
z
" clip-path="url(#p06407abbe9)" style="stroke: #000000; stroke-linecap: round"/>
   </g>
   <g id="patch_16">
    <path d="M 548.757883 413.923296 
Q 572.578666 415.153736 595.282903 413.980955 
" clip-path="url(#p06407abbe9)" style="fill: none; stroke: #000000; stroke-linecap: round"/>
    <path d="M 591.185056 412.189962 
L 595.282903 413.980955 
L 591.3914 416.184636 
z
" clip-path="url(#p06407abbe9)" style="stroke: #000000; stroke-linecap: round"/>
   </g>
   <g id="patch_17">
    <path d="M 505.491537 404.481391 
Q 301.451188 330.135511 88.468685 293.888072 
" clip-path="url(#p06407abbe9)" style="fill: none; stroke: #000000; stroke-linecap: round"/>
    <path d="M 92.07643 296.530832 
L 88.468685 293.888072 
L 92.747539 292.587532 
z
" clip-path="url(#p06407abbe9)" style="stroke: #000000; stroke-linecap: round"/>
   </g>
   <g id="patch_18">
    <path d="M 506.376774 402.403191 
Q 370.429619 336.949327 226.289565 296.287963 
" clip-path="url(#p06407abbe9)" style="fill: none; stroke: #000000; stroke-linecap: round"/>
    <path d="M 229.596318 299.298841 
L 226.289565 296.287963 
L 230.682319 295.449087 
z
" clip-path="url(#p06407abbe9)" style="stroke: #000000; stroke-linecap: round"/>
   </g>
   <g id="patch_19">
    <path d="M 520.323385 390.733014 
Q 507.784937 349.488288 490.406969 311.262601 
" clip-path="url(#p06407abbe9)" style="fill: none; stroke: #000000; stroke-linecap: round"/>
    <path d="M 490.241705 315.731683 
L 490.406969 311.262601 
L 493.883076 314.076261 
z
" clip-path="url(#p06407abbe9)" style="stroke: #000000; stroke-linecap: round"/>
   </g>
   <g id="patch_20">
    <path d="M 529.682777 390.107507 
Q 543.247575 290.602633 540.492116 191.333714 
" clip-path="url(#p06407abbe9)" style="fill: none; stroke: #000000; stroke-linecap: round"/>
    <path d="M 538.603874 195.387668 
L 540.492116 191.333714 
L 542.602333 195.27668 
z
" clip-path="url(#p06407abbe9)" style="stroke: #000000; stroke-linecap: round"/>
   </g>
   <g id="patch_21">
    <path d="M 513.346484 394.125094 
Q 381.791738 214.224695 220.771646 61.757574 
" clip-path="url(#p06407abbe9)" style="fill: none; stroke: #000000; stroke-linecap: round"/>
    <path d="M 222.301044 65.960066 
L 220.771646 61.757574 
L 225.051278 63.055551 
z
" clip-path="url(#p06407abbe9)" style="stroke: #000000; stroke-linecap: round"/>
   </g>
   <g id="patch_22">
    <path d="M 597.424434 405.347092 
Q 347.651368 325.561167 88.613437 292.901767 
" clip-path="url(#p06407abbe9)" style="fill: none; stroke: #000000; stroke-linecap: round"/>
    <path d="M 92.331841 295.386415 
L 88.613437 292.901767 
L 92.832198 291.417833 
z
" clip-path="url(#p06407abbe9)" style="stroke: #000000; stroke-linecap: round"/>
   </g>
   <g id="patch_23">
    <path d="M 597.938639 403.921747 
Q 416.686844 332.415257 226.698273 294.530038 
" clip-path="url(#p06407abbe9)" style="fill: none; stroke: #000000; stroke-linecap: round"/>
    <path d="M 230.229927 297.273653 
L 226.698273 294.530038 
L 231.012158 293.350884 
z
" clip-path="url(#p06407abbe9)" style="stroke: #000000; stroke-linecap: round"/>
   </g>
   <g id="patch_24">
    <path d="M 603.294807 396.019503 
Q 554.332782 345.692153 499.230314 304.001796 
" clip-path="url(#p06407abbe9)" style="fill: none; stroke: #000000; stroke-linecap: round"/>
    <path d="M 501.213461 308.010178 
L 499.230314 304.001796 
L 503.626908 304.820307 
z
" clip-path="url(#p06407abbe9)" style="stroke: #000000; stroke-linecap: round"/>
   </g>
   <g id="patch_25">
    <path d="M 67.127913 267.76451 
Q 69.592695 228.960834 67.19889 191.272944 
" clip-path="url(#p06407abbe9)" style="fill: none; stroke: #000000; stroke-linecap: round"/>
    <path d="M 65.456467 195.391678 
L 67.19889 191.272944 
L 69.448423 195.138122 
z
" clip-path="url(#p06407abbe9)" style="stroke: #000000; stroke-linecap: round"/>
   </g>
   <g id="patch_26">
    <path d="M 86.031927 281.668798 
Q 189.063489 239.004364 282.667028 180.472091 
" clip-path="url(#p06407abbe9)" style="fill: none; stroke: #000000; stroke-linecap: round"/>
    <path d="M 278.215135 180.897118 
L 282.667028 180.472091 
L 280.335914 184.288621 
z
" clip-path="url(#p06407abbe9)" style="stroke: #000000; stroke-linecap: round"/>
   </g>
   <g id="patch_27">
    <path d="M 86.820515 283.967846 
Q 228.773787 242.83165 360.503625 178.326379 
" clip-path="url(#p06407abbe9)" style="fill: none; stroke: #000000; stroke-linecap: round"/>
    <path d="M 356.031643 178.2893 
L 360.503625 178.326379 
L 357.790773 181.881718 
z
" clip-path="url(#p06407abbe9)" style="stroke: #000000; stroke-linecap: round"/>
   </g>
   <g id="patch_28">
    <path d="M 87.197796 285.48883 
Q 268.433139 246.710986 438.903869 176.878804 
" clip-path="url(#p06407abbe9)" style="fill: none; stroke: #000000; stroke-linecap: round"/>
    <path d="M 434.444257 176.544352 
L 438.903869 176.878804 
L 435.960539 180.245822 
z
" clip-path="url(#p06407abbe9)" style="stroke: #000000; stroke-linecap: round"/>
   </g>
   <g id="patch_29">
    <path d="M 84.701059 278.929725 
Q 249.238567 183.441596 393.355683 60.980669 
" clip-path="url(#p06407abbe9)" style="fill: none; stroke: #000000; stroke-linecap: round"/>
    <path d="M 389.012463 62.046708 
L 393.355683 60.980669 
L 391.602583 65.094868 
z
" clip-path="url(#p06407abbe9)" style="stroke: #000000; stroke-linecap: round"/>
   </g>
   <g id="patch_30">
    <path d="M 85.562412 280.587888 
Q 283.966722 186.792235 461.334815 59.462057 
" clip-path="url(#p06407abbe9)" style="fill: none; stroke: #000000; stroke-linecap: round"/>
    <path d="M 456.919078 60.170055 
L 461.334815 59.462057 
L 459.251772 63.419446 
z
" clip-path="url(#p06407abbe9)" style="stroke: #000000; stroke-linecap: round"/>
   </g>
   <g id="patch_31">
    <path d="M 86.138921 281.928185 
Q 318.670085 190.174097 529.663622 58.213628 
" clip-path="url(#p06407abbe9)" style="fill: none; stroke: #000000; stroke-linecap: round"/>
    <path d="M 525.21176 58.638985 
L 529.663622 58.213628 
L 527.33279 62.030331 
z
" clip-path="url(#p06407abbe9)" style="stroke: #000000; stroke-linecap: round"/>
   </g>
   <g id="patch_32">
    <path d="M 181.3733 288.181743 
Q 134.481216 285.002847 88.704607 288.105875 
" clip-path="url(#p06407abbe9)" style="fill: none; stroke: #000000; stroke-linecap: round"/>
    <path d="M 92.830711 289.830771 
L 88.704607 288.105875 
L 92.560186 285.83993 
z
" clip-path="url(#p06407abbe9)" style="stroke: #000000; stroke-linecap: round"/>
   </g>
   <g id="patch_33">
    <path d="M 194.466111 269.662798 
Q 144.913703 161.962515 78.692148 64.979769 
" clip-path="url(#p06407abbe9)" style="fill: none; stroke: #000000; stroke-linecap: round"/>
    <path d="M 79.296063 69.410941 
L 78.692148 64.979769 
L 82.599435 67.15534 
z
" clip-path="url(#p06407abbe9)" style="stroke: #000000; stroke-linecap: round"/>
   </g>
   <g id="patch_34">
    <path d="M 336.892309 268.278874 
Q 326.592625 227.550148 311.497312 189.545474 
" clip-path="url(#p06407abbe9)" style="fill: none; stroke: #000000; stroke-linecap: round"/>
    <path d="M 311.11514 194.001251 
L 311.497312 189.545474 
L 314.83263 192.524678 
z
" clip-path="url(#p06407abbe9)" style="stroke: #000000; stroke-linecap: round"/>
   </g>
   <g id="patch_35">
    <path d="M 458.067515 288.181743 
Q 411.175431 285.002847 365.398822 288.105875 
" clip-path="url(#p06407abbe9)" style="fill: none; stroke: #000000; stroke-linecap: round"/>
    <path d="M 369.524926 289.830771 
L 365.398822 288.105875 
L 369.254401 285.83993 
z
" clip-path="url(#p06407abbe9)" style="stroke: #000000; stroke-linecap: round"/>
   </g>
   <g id="patch_36">
    <path d="M 463.122021 275.796173 
Q 396.387779 221.712214 322.927027 179.389316 
" clip-path="url(#p06407abbe9)" style="fill: none; stroke: #000000; stroke-linecap: round"/>
    <path d="M 325.394547 183.119107 
L 322.927027 179.389316 
L 327.391372 179.653175 
z
" clip-path="url(#p06407abbe9)" style="stroke: #000000; stroke-linecap: round"/>
   </g>
   <g id="patch_37">
    <path d="M 77.91663 149.399827 
Q 104.371422 109.31129 124.650145 67.007953 
" clip-path="url(#p06407abbe9)" style="fill: none; stroke: #000000; stroke-linecap: round"/>
    <path d="M 121.117591 69.750408 
L 124.650145 67.007953 
L 124.724577 71.479469 
z
" clip-path="url(#p06407abbe9)" style="stroke: #000000; stroke-linecap: round"/>
   </g>
   <g id="patch_38">
    <path d="M 87.497464 165.158935 
Q 347.644781 132.360287 596.352963 52.91517 
" clip-path="url(#p06407abbe9)" style="fill: none; stroke: #000000; stroke-linecap: round"/>
    <path d="M 591.934069 52.227143 
L 596.352963 52.91517 
L 593.151205 56.037469 
z
" clip-path="url(#p06407abbe9)" style="stroke: #000000; stroke-linecap: round"/>
   </g>
   <g id="PathCollection_1">
    <defs>
     <path id="mcd307375b3" d="M 0 22.36068 
C 5.930122 22.36068 11.618159 20.004617 15.811388 15.811388 
C 20.004617 11.618159 22.36068 5.930122 22.36068 0 
C 22.36068 -5.930122 20.004617 -11.618159 15.811388 -15.811388 
C 11.618159 -20.004617 5.930122 -22.36068 0 -22.36068 
C -5.930122 -22.36068 -11.618159 -20.004617 -15.811388 -15.811388 
C -20.004617 -11.618159 -22.36068 -5.930122 -22.36068 0 
C -22.36068 5.930122 -20.004617 11.618159 -15.811388 15.811388 
C -11.618159 20.004617 -5.930122 22.36068 0 22.36068 
z
" style="stroke: #000000"/>
    </defs>
    <g clip-path="url(#p06407abbe9)">
     <use xlink:href="#mcd307375b3" x="65.305785" y="412.232727" style="fill: #ffffff; stroke: #000000"/>
     <use xlink:href="#mcd307375b3" x="157.53719" y="412.232727" style="fill: #ffffff; stroke: #000000"/>
     <use xlink:href="#mcd307375b3" x="249.768595" y="412.232727" style="fill: #ffffff; stroke: #000000"/>
     <use xlink:href="#mcd307375b3" x="342" y="412.232727" style="fill: #ffffff; stroke: #000000"/>
     <use xlink:href="#mcd307375b3" x="434.231405" y="412.232727" style="fill: #ffffff; stroke: #000000"/>
     <use xlink:href="#mcd307375b3" x="526.46281" y="412.232727" style="fill: #ffffff; stroke: #000000"/>
     <use xlink:href="#mcd307375b3" x="618.694215" y="412.232727" style="fill: #ffffff; stroke: #000000"/>
     <use xlink:href="#mcd307375b3" x="65.305785" y="290.050909" style="fill: #ffffff; stroke: #000000"/>
     <use xlink:href="#mcd307375b3" x="203.652893" y="290.050909" style="fill: #ffffff; stroke: #000000"/>
     <use xlink:href="#mcd307375b3" x="342" y="290.050909" style="fill: #ffffff; stroke: #000000"/>
     <use xlink:href="#mcd307375b3" x="480.347107" y="290.050909" style="fill: #ffffff; stroke: #000000"/>
     <use xlink:href="#mcd307375b3" x="618.694215" y="290.050909" style="fill: #ffffff; stroke: #000000"/>
     <use xlink:href="#mcd307375b3" x="65.305785" y="167.869091" style="fill: #ffffff; stroke: #000000"/>
     <use xlink:href="#mcd307375b3" x="144.361275" y="167.869091" style="fill: #ffffff; stroke: #000000"/>
     <use xlink:href="#mcd307375b3" x="223.416765" y="167.869091" style="fill: #ffffff; stroke: #000000"/>
     <use xlink:href="#mcd307375b3" x="302.472255" y="167.869091" style="fill: #ffffff; stroke: #000000"/>
     <use xlink:href="#mcd307375b3" x="381.527745" y="167.869091" style="fill: #ffffff; stroke: #000000"/>
     <use xlink:href="#mcd307375b3" x="460.583235" y="167.869091" style="fill: #ffffff; stroke: #000000"/>
     <use xlink:href="#mcd307375b3" x="539.638725" y="167.869091" style="fill: #ffffff; stroke: #000000"/>
     <use xlink:href="#mcd307375b3" x="618.694215" y="167.869091" style="fill: #ffffff; stroke: #000000"/>
     <use xlink:href="#mcd307375b3" x="65.305785" y="45.687273" style="fill: #ffffff; stroke: #000000"/>
     <use xlink:href="#mcd307375b3" x="134.479339" y="45.687273" style="fill: #ffffff; stroke: #000000"/>
     <use xlink:href="#mcd307375b3" x="203.652893" y="45.687273" style="fill: #ffffff; stroke: #000000"/>
     <use xlink:href="#mcd307375b3" x="272.826446" y="45.687273" style="fill: #ffffff; stroke: #000000"/>
     <use xlink:href="#mcd307375b3" x="342" y="45.687273" style="fill: #ffffff; stroke: #000000"/>
     <use xlink:href="#mcd307375b3" x="411.173554" y="45.687273" style="fill: #ffffff; stroke: #000000"/>
     <use xlink:href="#mcd307375b3" x="480.347107" y="45.687273" style="fill: #ffffff; stroke: #000000"/>
     <use xlink:href="#mcd307375b3" x="549.520661" y="45.687273" style="fill: #ffffff; stroke: #000000"/>
     <use xlink:href="#mcd307375b3" x="618.694215" y="45.687273" style="fill: #ffffff; stroke: #000000"/>
    </g>
   </g>
   <g id="PathCollection_2">
    <defs>
     <path id="mca45e11968" d="M 0 22.36068 
C 5.930122 22.36068 11.618159 20.004617 15.811388 15.811388 
C 20.004617 11.618159 22.36068 5.930122 22.36068 0 
C 22.36068 -5.930122 20.004617 -11.618159 15.811388 -15.811388 
C 11.618159 -20.004617 5.930122 -22.36068 0 -22.36068 
C -5.930122 -22.36068 -11.618159 -20.004617 -15.811388 -15.811388 
C -20.004617 -11.618159 -22.36068 -5.930122 -22.36068 0 
C -22.36068 5.930122 -20.004617 11.618159 -15.811388 15.811388 
C -11.618159 20.004617 -5.930122 22.36068 0 22.36068 
z
" style="stroke: #008000; stroke-opacity: 0.2; stroke-width: 4"/>
    </defs>
    <g clip-path="url(#p06407abbe9)">
     <use xlink:href="#mca45e11968" x="249.768595" y="412.232727" style="fill: #008000; fill-opacity: 0.2; stroke: #008000; stroke-opacity: 0.2; stroke-width: 4"/>
     <use xlink:href="#mca45e11968" x="342" y="412.232727" style="fill: #008000; fill-opacity: 0.2; stroke: #008000; stroke-opacity: 0.2; stroke-width: 4"/>
     <use xlink:href="#mca45e11968" x="434.231405" y="412.232727" style="fill: #008000; fill-opacity: 0.2; stroke: #008000; stroke-opacity: 0.2; stroke-width: 4"/>
     <use xlink:href="#mca45e11968" x="618.694215" y="412.232727" style="fill: #008000; fill-opacity: 0.2; stroke: #008000; stroke-opacity: 0.2; stroke-width: 4"/>
     <use xlink:href="#mca45e11968" x="65.305785" y="290.050909" style="fill: #008000; fill-opacity: 0.2; stroke: #008000; stroke-opacity: 0.2; stroke-width: 4"/>
     <use xlink:href="#mca45e11968" x="342" y="290.050909" style="fill: #008000; fill-opacity: 0.2; stroke: #008000; stroke-opacity: 0.2; stroke-width: 4"/>
     <use xlink:href="#mca45e11968" x="480.347107" y="290.050909" style="fill: #008000; fill-opacity: 0.2; stroke: #008000; stroke-opacity: 0.2; stroke-width: 4"/>
     <use xlink:href="#mca45e11968" x="618.694215" y="290.050909" style="fill: #008000; fill-opacity: 0.2; stroke: #008000; stroke-opacity: 0.2; stroke-width: 4"/>
     <use xlink:href="#mca45e11968" x="65.305785" y="167.869091" style="fill: #008000; fill-opacity: 0.2; stroke: #008000; stroke-opacity: 0.2; stroke-width: 4"/>
     <use xlink:href="#mca45e11968" x="144.361275" y="167.869091" style="fill: #008000; fill-opacity: 0.2; stroke: #008000; stroke-opacity: 0.2; stroke-width: 4"/>
     <use xlink:href="#mca45e11968" x="223.416765" y="167.869091" style="fill: #008000; fill-opacity: 0.2; stroke: #008000; stroke-opacity: 0.2; stroke-width: 4"/>
     <use xlink:href="#mca45e11968" x="302.472255" y="167.869091" style="fill: #008000; fill-opacity: 0.2; stroke: #008000; stroke-opacity: 0.2; stroke-width: 4"/>
     <use xlink:href="#mca45e11968" x="381.527745" y="167.869091" style="fill: #008000; fill-opacity: 0.2; stroke: #008000; stroke-opacity: 0.2; stroke-width: 4"/>
     <use xlink:href="#mca45e11968" x="460.583235" y="167.869091" style="fill: #008000; fill-opacity: 0.2; stroke: #008000; stroke-opacity: 0.2; stroke-width: 4"/>
     <use xlink:href="#mca45e11968" x="539.638725" y="167.869091" style="fill: #008000; fill-opacity: 0.2; stroke: #008000; stroke-opacity: 0.2; stroke-width: 4"/>
     <use xlink:href="#mca45e11968" x="618.694215" y="167.869091" style="fill: #008000; fill-opacity: 0.2; stroke: #008000; stroke-opacity: 0.2; stroke-width: 4"/>
     <use xlink:href="#mca45e11968" x="65.305785" y="45.687273" style="fill: #008000; fill-opacity: 0.2; stroke: #008000; stroke-opacity: 0.2; stroke-width: 4"/>
     <use xlink:href="#mca45e11968" x="134.479339" y="45.687273" style="fill: #008000; fill-opacity: 0.2; stroke: #008000; stroke-opacity: 0.2; stroke-width: 4"/>
     <use xlink:href="#mca45e11968" x="203.652893" y="45.687273" style="fill: #008000; fill-opacity: 0.2; stroke: #008000; stroke-opacity: 0.2; stroke-width: 4"/>
     <use xlink:href="#mca45e11968" x="272.826446" y="45.687273" style="fill: #008000; fill-opacity: 0.2; stroke: #008000; stroke-opacity: 0.2; stroke-width: 4"/>
     <use xlink:href="#mca45e11968" x="342" y="45.687273" style="fill: #008000; fill-opacity: 0.2; stroke: #008000; stroke-opacity: 0.2; stroke-width: 4"/>
     <use xlink:href="#mca45e11968" x="411.173554" y="45.687273" style="fill: #008000; fill-opacity: 0.2; stroke: #008000; stroke-opacity: 0.2; stroke-width: 4"/>
     <use xlink:href="#mca45e11968" x="480.347107" y="45.687273" style="fill: #008000; fill-opacity: 0.2; stroke: #008000; stroke-opacity: 0.2; stroke-width: 4"/>
     <use xlink:href="#mca45e11968" x="549.520661" y="45.687273" style="fill: #008000; fill-opacity: 0.2; stroke: #008000; stroke-opacity: 0.2; stroke-width: 4"/>
     <use xlink:href="#mca45e11968" x="618.694215" y="45.687273" style="fill: #008000; fill-opacity: 0.2; stroke: #008000; stroke-opacity: 0.2; stroke-width: 4"/>
    </g>
   </g>
   <g id="PathCollection_3">
    <defs>
     <path id="m62bfb008d7" d="M 0 22.36068 
C 5.930122 22.36068 11.618159 20.004617 15.811388 15.811388 
C 20.004617 11.618159 22.36068 5.930122 22.36068 0 
C 22.36068 -5.930122 20.004617 -11.618159 15.811388 -15.811388 
C 11.618159 -20.004617 5.930122 -22.36068 0 -22.36068 
C -5.930122 -22.36068 -11.618159 -20.004617 -15.811388 -15.811388 
C -20.004617 -11.618159 -22.36068 -5.930122 -22.36068 0 
C -22.36068 5.930122 -20.004617 11.618159 -15.811388 15.811388 
C -11.618159 20.004617 -5.930122 22.36068 0 22.36068 
z
" style="stroke: #ff0000; stroke-opacity: 0.5"/>
    </defs>
    <g clip-path="url(#p06407abbe9)">
     <use xlink:href="#m62bfb008d7" x="144.361275" y="167.869091" style="fill: #ff0000; fill-opacity: 0.5; stroke: #ff0000; stroke-opacity: 0.5"/>
     <use xlink:href="#m62bfb008d7" x="223.416765" y="167.869091" style="fill: #ff0000; fill-opacity: 0.5; stroke: #ff0000; stroke-opacity: 0.5"/>
     <use xlink:href="#m62bfb008d7" x="618.694215" y="167.869091" style="fill: #ff0000; fill-opacity: 0.5; stroke: #ff0000; stroke-opacity: 0.5"/>
     <use xlink:href="#m62bfb008d7" x="272.826446" y="45.687273" style="fill: #ff0000; fill-opacity: 0.5; stroke: #ff0000; stroke-opacity: 0.5"/>
     <use xlink:href="#m62bfb008d7" x="342" y="45.687273" style="fill: #ff0000; fill-opacity: 0.5; stroke: #ff0000; stroke-opacity: 0.5"/>
    </g>
   </g>
   <g id="text_1">
    <g clip-path="url(#p06407abbe9)">
     <!-- 1048 -->
     <g transform="translate(51.39016 409.393196) scale(0.1 -0.1)">
      <defs>
       <path id="DejaVuSans-Bold-31" d="M 750 831 
L 1813 831 
L 1813 3847 
L 722 3622 
L 722 4441 
L 1806 4666 
L 2950 4666 
L 2950 831 
L 4013 831 
L 4013 0 
L 750 0 
L 750 831 
z
" transform="scale(0.015625)"/>
       <path id="DejaVuSans-Bold-30" d="M 2944 2338 
Q 2944 3213 2780 3570 
Q 2616 3928 2228 3928 
Q 1841 3928 1675 3570 
Q 1509 3213 1509 2338 
Q 1509 1453 1675 1090 
Q 1841 728 2228 728 
Q 2613 728 2778 1090 
Q 2944 1453 2944 2338 
z
M 4147 2328 
Q 4147 1169 3647 539 
Q 3147 -91 2228 -91 
Q 1306 -91 806 539 
Q 306 1169 306 2328 
Q 306 3491 806 4120 
Q 1306 4750 2228 4750 
Q 3147 4750 3647 4120 
Q 4147 3491 4147 2328 
z
" transform="scale(0.015625)"/>
       <path id="DejaVuSans-Bold-34" d="M 2356 3675 
L 1038 1722 
L 2356 1722 
L 2356 3675 
z
M 2156 4666 
L 3494 4666 
L 3494 1722 
L 4159 1722 
L 4159 850 
L 3494 850 
L 3494 0 
L 2356 0 
L 2356 850 
L 288 850 
L 288 1881 
L 2156 4666 
z
" transform="scale(0.015625)"/>
       <path id="DejaVuSans-Bold-38" d="M 2228 2088 
Q 1891 2088 1709 1903 
Q 1528 1719 1528 1375 
Q 1528 1031 1709 848 
Q 1891 666 2228 666 
Q 2563 666 2741 848 
Q 2919 1031 2919 1375 
Q 2919 1722 2741 1905 
Q 2563 2088 2228 2088 
z
M 1350 2484 
Q 925 2613 709 2878 
Q 494 3144 494 3541 
Q 494 4131 934 4440 
Q 1375 4750 2228 4750 
Q 3075 4750 3515 4442 
Q 3956 4134 3956 3541 
Q 3956 3144 3739 2878 
Q 3522 2613 3097 2484 
Q 3572 2353 3814 2058 
Q 4056 1763 4056 1313 
Q 4056 619 3595 264 
Q 3134 -91 2228 -91 
Q 1319 -91 855 264 
Q 391 619 391 1313 
Q 391 1763 633 2058 
Q 875 2353 1350 2484 
z
M 1631 3419 
Q 1631 3141 1786 2991 
Q 1941 2841 2228 2841 
Q 2509 2841 2662 2991 
Q 2816 3141 2816 3419 
Q 2816 3697 2662 3845 
Q 2509 3994 2228 3994 
Q 1941 3994 1786 3844 
Q 1631 3694 1631 3419 
z
" transform="scale(0.015625)"/>
      </defs>
      <use xlink:href="#DejaVuSans-Bold-31"/>
      <use xlink:href="#DejaVuSans-Bold-30" x="69.580078"/>
      <use xlink:href="#DejaVuSans-Bold-34" x="139.160156"/>
      <use xlink:href="#DejaVuSans-Bold-38" x="208.740234"/>
     </g>
    </g>
    <g clip-path="url(#p06407abbe9)">
     <!-- LA1 -->
     <g transform="translate(54.77141 420.591009) scale(0.1 -0.1)">
      <defs>
       <path id="DejaVuSans-Bold-4c" d="M 588 4666 
L 1791 4666 
L 1791 909 
L 3903 909 
L 3903 0 
L 588 0 
L 588 4666 
z
" transform="scale(0.015625)"/>
       <path id="DejaVuSans-Bold-41" d="M 3419 850 
L 1538 850 
L 1241 0 
L 31 0 
L 1759 4666 
L 3194 4666 
L 4922 0 
L 3713 0 
L 3419 850 
z
M 1838 1716 
L 3116 1716 
L 2478 3572 
L 1838 1716 
z
" transform="scale(0.015625)"/>
      </defs>
      <use xlink:href="#DejaVuSans-Bold-4c"/>
      <use xlink:href="#DejaVuSans-Bold-41" x="63.720703"/>
      <use xlink:href="#DejaVuSans-Bold-31" x="141.113281"/>
     </g>
    </g>
   </g>
   <g id="text_2">
    <g clip-path="url(#p06407abbe9)">
     <!-- 1049 -->
     <g transform="translate(143.621565 409.393196) scale(0.1 -0.1)">
      <defs>
       <path id="DejaVuSans-Bold-39" d="M 641 103 
L 641 966 
Q 928 831 1190 764 
Q 1453 697 1709 697 
Q 2247 697 2547 995 
Q 2847 1294 2900 1881 
Q 2688 1725 2447 1647 
Q 2206 1569 1925 1569 
Q 1209 1569 770 1986 
Q 331 2403 331 3084 
Q 331 3838 820 4291 
Q 1309 4744 2131 4744 
Q 3044 4744 3544 4128 
Q 4044 3513 4044 2388 
Q 4044 1231 3459 570 
Q 2875 -91 1856 -91 
Q 1528 -91 1228 -42 
Q 928 6 641 103 
z
M 2125 2350 
Q 2441 2350 2600 2554 
Q 2759 2759 2759 3169 
Q 2759 3575 2600 3781 
Q 2441 3988 2125 3988 
Q 1809 3988 1650 3781 
Q 1491 3575 1491 3169 
Q 1491 2759 1650 2554 
Q 1809 2350 2125 2350 
z
" transform="scale(0.015625)"/>
      </defs>
      <use xlink:href="#DejaVuSans-Bold-31"/>
      <use xlink:href="#DejaVuSans-Bold-30" x="69.580078"/>
      <use xlink:href="#DejaVuSans-Bold-34" x="139.160156"/>
      <use xlink:href="#DejaVuSans-Bold-39" x="208.740234"/>
     </g>
    </g>
    <g clip-path="url(#p06407abbe9)">
     <!-- LA2 -->
     <g transform="translate(147.002815 420.591009) scale(0.1 -0.1)">
      <defs>
       <path id="DejaVuSans-Bold-32" d="M 1844 884 
L 3897 884 
L 3897 0 
L 506 0 
L 506 884 
L 2209 2388 
Q 2438 2594 2547 2791 
Q 2656 2988 2656 3200 
Q 2656 3528 2436 3728 
Q 2216 3928 1850 3928 
Q 1569 3928 1234 3808 
Q 900 3688 519 3450 
L 519 4475 
Q 925 4609 1322 4679 
Q 1719 4750 2100 4750 
Q 2938 4750 3402 4381 
Q 3866 4013 3866 3353 
Q 3866 2972 3669 2642 
Q 3472 2313 2841 1759 
L 1844 884 
z
" transform="scale(0.015625)"/>
      </defs>
      <use xlink:href="#DejaVuSans-Bold-4c"/>
      <use xlink:href="#DejaVuSans-Bold-41" x="63.720703"/>
      <use xlink:href="#DejaVuSans-Bold-32" x="141.113281"/>
     </g>
    </g>
   </g>
   <g id="text_3">
    <g clip-path="url(#p06407abbe9)">
     <!-- 1054 -->
     <g transform="translate(235.85297 409.393196) scale(0.1 -0.1)">
      <defs>
       <path id="DejaVuSans-Bold-35" d="M 678 4666 
L 3669 4666 
L 3669 3781 
L 1638 3781 
L 1638 3059 
Q 1775 3097 1914 3117 
Q 2053 3138 2203 3138 
Q 3056 3138 3531 2711 
Q 4006 2284 4006 1522 
Q 4006 766 3489 337 
Q 2972 -91 2053 -91 
Q 1656 -91 1267 -14 
Q 878 63 494 219 
L 494 1166 
Q 875 947 1217 837 
Q 1559 728 1863 728 
Q 2300 728 2551 942 
Q 2803 1156 2803 1522 
Q 2803 1891 2551 2103 
Q 2300 2316 1863 2316 
Q 1603 2316 1309 2248 
Q 1016 2181 678 2041 
L 678 4666 
z
" transform="scale(0.015625)"/>
      </defs>
      <use xlink:href="#DejaVuSans-Bold-31"/>
      <use xlink:href="#DejaVuSans-Bold-30" x="69.580078"/>
      <use xlink:href="#DejaVuSans-Bold-35" x="139.160156"/>
      <use xlink:href="#DejaVuSans-Bold-34" x="208.740234"/>
     </g>
    </g>
    <g clip-path="url(#p06407abbe9)">
     <!-- Service -->
     <g transform="translate(228.981876 420.591009) scale(0.1 -0.1)">
      <defs>
       <path id="DejaVuSans-Bold-53" d="M 3834 4519 
L 3834 3531 
Q 3450 3703 3084 3790 
Q 2719 3878 2394 3878 
Q 1963 3878 1756 3759 
Q 1550 3641 1550 3391 
Q 1550 3203 1689 3098 
Q 1828 2994 2194 2919 
L 2706 2816 
Q 3484 2659 3812 2340 
Q 4141 2022 4141 1434 
Q 4141 663 3683 286 
Q 3225 -91 2284 -91 
Q 1841 -91 1394 -6 
Q 947 78 500 244 
L 500 1259 
Q 947 1022 1364 901 
Q 1781 781 2169 781 
Q 2563 781 2772 912 
Q 2981 1044 2981 1288 
Q 2981 1506 2839 1625 
Q 2697 1744 2272 1838 
L 1806 1941 
Q 1106 2091 782 2419 
Q 459 2747 459 3303 
Q 459 4000 909 4375 
Q 1359 4750 2203 4750 
Q 2588 4750 2994 4692 
Q 3400 4634 3834 4519 
z
" transform="scale(0.015625)"/>
       <path id="DejaVuSans-Bold-65" d="M 4031 1759 
L 4031 1441 
L 1416 1441 
Q 1456 1047 1700 850 
Q 1944 653 2381 653 
Q 2734 653 3104 758 
Q 3475 863 3866 1075 
L 3866 213 
Q 3469 63 3072 -14 
Q 2675 -91 2278 -91 
Q 1328 -91 801 392 
Q 275 875 275 1747 
Q 275 2603 792 3093 
Q 1309 3584 2216 3584 
Q 3041 3584 3536 3087 
Q 4031 2591 4031 1759 
z
M 2881 2131 
Q 2881 2450 2695 2645 
Q 2509 2841 2209 2841 
Q 1884 2841 1681 2658 
Q 1478 2475 1428 2131 
L 2881 2131 
z
" transform="scale(0.015625)"/>
       <path id="DejaVuSans-Bold-72" d="M 3138 2547 
Q 2991 2616 2845 2648 
Q 2700 2681 2553 2681 
Q 2122 2681 1889 2404 
Q 1656 2128 1656 1613 
L 1656 0 
L 538 0 
L 538 3500 
L 1656 3500 
L 1656 2925 
Q 1872 3269 2151 3426 
Q 2431 3584 2822 3584 
Q 2878 3584 2943 3579 
Q 3009 3575 3134 3559 
L 3138 2547 
z
" transform="scale(0.015625)"/>
       <path id="DejaVuSans-Bold-76" d="M 97 3500 
L 1216 3500 
L 2088 1081 
L 2956 3500 
L 4078 3500 
L 2700 0 
L 1472 0 
L 97 3500 
z
" transform="scale(0.015625)"/>
       <path id="DejaVuSans-Bold-69" d="M 538 3500 
L 1656 3500 
L 1656 0 
L 538 0 
L 538 3500 
z
M 538 4863 
L 1656 4863 
L 1656 3950 
L 538 3950 
L 538 4863 
z
" transform="scale(0.015625)"/>
       <path id="DejaVuSans-Bold-63" d="M 3366 3391 
L 3366 2478 
Q 3138 2634 2908 2709 
Q 2678 2784 2431 2784 
Q 1963 2784 1702 2511 
Q 1441 2238 1441 1747 
Q 1441 1256 1702 982 
Q 1963 709 2431 709 
Q 2694 709 2930 787 
Q 3166 866 3366 1019 
L 3366 103 
Q 3103 6 2833 -42 
Q 2563 -91 2291 -91 
Q 1344 -91 809 395 
Q 275 881 275 1747 
Q 275 2613 809 3098 
Q 1344 3584 2291 3584 
Q 2566 3584 2833 3536 
Q 3100 3488 3366 3391 
z
" transform="scale(0.015625)"/>
      </defs>
      <use xlink:href="#DejaVuSans-Bold-53"/>
      <use xlink:href="#DejaVuSans-Bold-65" x="72.021484"/>
      <use xlink:href="#DejaVuSans-Bold-72" x="139.84375"/>
      <use xlink:href="#DejaVuSans-Bold-76" x="189.160156"/>
      <use xlink:href="#DejaVuSans-Bold-69" x="254.345703"/>
      <use xlink:href="#DejaVuSans-Bold-63" x="288.623047"/>
      <use xlink:href="#DejaVuSans-Bold-65" x="347.900391"/>
     </g>
    </g>
   </g>
   <g id="text_4">
    <g clip-path="url(#p06407abbe9)">
     <!-- 1057 -->
     <g transform="translate(328.084375 409.354134) scale(0.1 -0.1)">
      <defs>
       <path id="DejaVuSans-Bold-37" d="M 428 4666 
L 3944 4666 
L 3944 3988 
L 2125 0 
L 953 0 
L 2675 3781 
L 428 3781 
L 428 4666 
z
" transform="scale(0.015625)"/>
      </defs>
      <use xlink:href="#DejaVuSans-Bold-31"/>
      <use xlink:href="#DejaVuSans-Bold-30" x="69.580078"/>
      <use xlink:href="#DejaVuSans-Bold-35" x="139.160156"/>
      <use xlink:href="#DejaVuSans-Bold-37" x="208.740234"/>
     </g>
    </g>
    <g clip-path="url(#p06407abbe9)">
     <!-- Dynamics -->
     <g transform="translate(314.792188 420.551946) scale(0.1 -0.1)">
      <defs>
       <path id="DejaVuSans-Bold-44" d="M 1791 3756 
L 1791 909 
L 2222 909 
Q 2959 909 3348 1275 
Q 3738 1641 3738 2338 
Q 3738 3031 3350 3393 
Q 2963 3756 2222 3756 
L 1791 3756 
z
M 588 4666 
L 1856 4666 
Q 2919 4666 3439 4514 
Q 3959 4363 4331 4000 
Q 4659 3684 4818 3271 
Q 4978 2859 4978 2338 
Q 4978 1809 4818 1395 
Q 4659 981 4331 666 
Q 3956 303 3431 151 
Q 2906 0 1856 0 
L 588 0 
L 588 4666 
z
" transform="scale(0.015625)"/>
       <path id="DejaVuSans-Bold-79" d="M 78 3500 
L 1197 3500 
L 2138 1125 
L 2938 3500 
L 4056 3500 
L 2584 -331 
Q 2363 -916 2067 -1148 
Q 1772 -1381 1288 -1381 
L 641 -1381 
L 641 -647 
L 991 -647 
Q 1275 -647 1404 -556 
Q 1534 -466 1606 -231 
L 1638 -134 
L 78 3500 
z
" transform="scale(0.015625)"/>
       <path id="DejaVuSans-Bold-6e" d="M 4056 2131 
L 4056 0 
L 2931 0 
L 2931 347 
L 2931 1631 
Q 2931 2084 2911 2256 
Q 2891 2428 2841 2509 
Q 2775 2619 2662 2680 
Q 2550 2741 2406 2741 
Q 2056 2741 1856 2470 
Q 1656 2200 1656 1722 
L 1656 0 
L 538 0 
L 538 3500 
L 1656 3500 
L 1656 2988 
Q 1909 3294 2193 3439 
Q 2478 3584 2822 3584 
Q 3428 3584 3742 3212 
Q 4056 2841 4056 2131 
z
" transform="scale(0.015625)"/>
       <path id="DejaVuSans-Bold-61" d="M 2106 1575 
Q 1756 1575 1579 1456 
Q 1403 1338 1403 1106 
Q 1403 894 1545 773 
Q 1688 653 1941 653 
Q 2256 653 2472 879 
Q 2688 1106 2688 1447 
L 2688 1575 
L 2106 1575 
z
M 3816 1997 
L 3816 0 
L 2688 0 
L 2688 519 
Q 2463 200 2181 54 
Q 1900 -91 1497 -91 
Q 953 -91 614 226 
Q 275 544 275 1050 
Q 275 1666 698 1953 
Q 1122 2241 2028 2241 
L 2688 2241 
L 2688 2328 
Q 2688 2594 2478 2717 
Q 2269 2841 1825 2841 
Q 1466 2841 1156 2769 
Q 847 2697 581 2553 
L 581 3406 
Q 941 3494 1303 3539 
Q 1666 3584 2028 3584 
Q 2975 3584 3395 3211 
Q 3816 2838 3816 1997 
z
" transform="scale(0.015625)"/>
       <path id="DejaVuSans-Bold-6d" d="M 3781 2919 
Q 3994 3244 4286 3414 
Q 4578 3584 4928 3584 
Q 5531 3584 5847 3212 
Q 6163 2841 6163 2131 
L 6163 0 
L 5038 0 
L 5038 1825 
Q 5041 1866 5042 1909 
Q 5044 1953 5044 2034 
Q 5044 2406 4934 2573 
Q 4825 2741 4581 2741 
Q 4263 2741 4089 2478 
Q 3916 2216 3909 1719 
L 3909 0 
L 2784 0 
L 2784 1825 
Q 2784 2406 2684 2573 
Q 2584 2741 2328 2741 
Q 2006 2741 1831 2477 
Q 1656 2213 1656 1722 
L 1656 0 
L 531 0 
L 531 3500 
L 1656 3500 
L 1656 2988 
Q 1863 3284 2130 3434 
Q 2397 3584 2719 3584 
Q 3081 3584 3359 3409 
Q 3638 3234 3781 2919 
z
" transform="scale(0.015625)"/>
       <path id="DejaVuSans-Bold-73" d="M 3272 3391 
L 3272 2541 
Q 2913 2691 2578 2766 
Q 2244 2841 1947 2841 
Q 1628 2841 1473 2761 
Q 1319 2681 1319 2516 
Q 1319 2381 1436 2309 
Q 1553 2238 1856 2203 
L 2053 2175 
Q 2913 2066 3209 1816 
Q 3506 1566 3506 1031 
Q 3506 472 3093 190 
Q 2681 -91 1863 -91 
Q 1516 -91 1145 -36 
Q 775 19 384 128 
L 384 978 
Q 719 816 1070 734 
Q 1422 653 1784 653 
Q 2113 653 2278 743 
Q 2444 834 2444 1013 
Q 2444 1163 2330 1236 
Q 2216 1309 1875 1350 
L 1678 1375 
Q 931 1469 631 1722 
Q 331 1975 331 2491 
Q 331 3047 712 3315 
Q 1094 3584 1881 3584 
Q 2191 3584 2531 3537 
Q 2872 3491 3272 3391 
z
" transform="scale(0.015625)"/>
      </defs>
      <use xlink:href="#DejaVuSans-Bold-44"/>
      <use xlink:href="#DejaVuSans-Bold-79" x="83.007812"/>
      <use xlink:href="#DejaVuSans-Bold-6e" x="148.193359"/>
      <use xlink:href="#DejaVuSans-Bold-61" x="219.384766"/>
      <use xlink:href="#DejaVuSans-Bold-6d" x="286.865234"/>
      <use xlink:href="#DejaVuSans-Bold-69" x="391.064453"/>
      <use xlink:href="#DejaVuSans-Bold-63" x="425.341797"/>
      <use xlink:href="#DejaVuSans-Bold-73" x="484.619141"/>
     </g>
    </g>
   </g>
   <g id="text_5">
    <g clip-path="url(#p06407abbe9)">
     <!-- 1058 -->
     <g transform="translate(420.31578 409.393196) scale(0.1 -0.1)">
      <use xlink:href="#DejaVuSans-Bold-31"/>
      <use xlink:href="#DejaVuSans-Bold-30" x="69.580078"/>
      <use xlink:href="#DejaVuSans-Bold-35" x="139.160156"/>
      <use xlink:href="#DejaVuSans-Bold-38" x="208.740234"/>
     </g>
    </g>
    <g clip-path="url(#p06407abbe9)">
     <!-- OR1 -->
     <g transform="translate(422.651717 420.591009) scale(0.1 -0.1)">
      <defs>
       <path id="DejaVuSans-Bold-4f" d="M 2719 3878 
Q 2169 3878 1866 3472 
Q 1563 3066 1563 2328 
Q 1563 1594 1866 1187 
Q 2169 781 2719 781 
Q 3272 781 3575 1187 
Q 3878 1594 3878 2328 
Q 3878 3066 3575 3472 
Q 3272 3878 2719 3878 
z
M 2719 4750 
Q 3844 4750 4481 4106 
Q 5119 3463 5119 2328 
Q 5119 1197 4481 553 
Q 3844 -91 2719 -91 
Q 1597 -91 958 553 
Q 319 1197 319 2328 
Q 319 3463 958 4106 
Q 1597 4750 2719 4750 
z
" transform="scale(0.015625)"/>
       <path id="DejaVuSans-Bold-52" d="M 2297 2597 
Q 2675 2597 2839 2737 
Q 3003 2878 3003 3200 
Q 3003 3519 2839 3656 
Q 2675 3794 2297 3794 
L 1791 3794 
L 1791 2597 
L 2297 2597 
z
M 1791 1766 
L 1791 0 
L 588 0 
L 588 4666 
L 2425 4666 
Q 3347 4666 3776 4356 
Q 4206 4047 4206 3378 
Q 4206 2916 3982 2619 
Q 3759 2322 3309 2181 
Q 3556 2125 3751 1926 
Q 3947 1728 4147 1325 
L 4800 0 
L 3519 0 
L 2950 1159 
Q 2778 1509 2601 1637 
Q 2425 1766 2131 1766 
L 1791 1766 
z
" transform="scale(0.015625)"/>
      </defs>
      <use xlink:href="#DejaVuSans-Bold-4f"/>
      <use xlink:href="#DejaVuSans-Bold-52" x="85.009766"/>
      <use xlink:href="#DejaVuSans-Bold-31" x="162.011719"/>
     </g>
    </g>
   </g>
   <g id="text_6">
    <g clip-path="url(#p06407abbe9)">
     <!-- 1059 -->
     <g transform="translate(512.547185 409.393196) scale(0.1 -0.1)">
      <use xlink:href="#DejaVuSans-Bold-31"/>
      <use xlink:href="#DejaVuSans-Bold-30" x="69.580078"/>
      <use xlink:href="#DejaVuSans-Bold-35" x="139.160156"/>
      <use xlink:href="#DejaVuSans-Bold-39" x="208.740234"/>
     </g>
    </g>
    <g clip-path="url(#p06407abbe9)">
     <!-- Calc -->
     <g transform="translate(514.740935 420.591009) scale(0.1 -0.1)">
      <defs>
       <path id="DejaVuSans-Bold-43" d="M 4288 256 
Q 3956 84 3597 -3 
Q 3238 -91 2847 -91 
Q 1681 -91 1000 561 
Q 319 1213 319 2328 
Q 319 3447 1000 4098 
Q 1681 4750 2847 4750 
Q 3238 4750 3597 4662 
Q 3956 4575 4288 4403 
L 4288 3438 
Q 3953 3666 3628 3772 
Q 3303 3878 2944 3878 
Q 2300 3878 1931 3465 
Q 1563 3053 1563 2328 
Q 1563 1606 1931 1193 
Q 2300 781 2944 781 
Q 3303 781 3628 887 
Q 3953 994 4288 1222 
L 4288 256 
z
" transform="scale(0.015625)"/>
       <path id="DejaVuSans-Bold-6c" d="M 538 4863 
L 1656 4863 
L 1656 0 
L 538 0 
L 538 4863 
z
" transform="scale(0.015625)"/>
      </defs>
      <use xlink:href="#DejaVuSans-Bold-43"/>
      <use xlink:href="#DejaVuSans-Bold-61" x="73.388672"/>
      <use xlink:href="#DejaVuSans-Bold-6c" x="140.869141"/>
      <use xlink:href="#DejaVuSans-Bold-63" x="175.146484"/>
     </g>
    </g>
   </g>
   <g id="text_7">
    <g clip-path="url(#p06407abbe9)">
     <!-- 1060 -->
     <g transform="translate(604.77859 409.393196) scale(0.1 -0.1)">
      <defs>
       <path id="DejaVuSans-Bold-36" d="M 2316 2303 
Q 2000 2303 1842 2098 
Q 1684 1894 1684 1484 
Q 1684 1075 1842 870 
Q 2000 666 2316 666 
Q 2634 666 2792 870 
Q 2950 1075 2950 1484 
Q 2950 1894 2792 2098 
Q 2634 2303 2316 2303 
z
M 3803 4544 
L 3803 3681 
Q 3506 3822 3243 3889 
Q 2981 3956 2731 3956 
Q 2194 3956 1894 3657 
Q 1594 3359 1544 2772 
Q 1750 2925 1990 3001 
Q 2231 3078 2516 3078 
Q 3231 3078 3670 2659 
Q 4109 2241 4109 1563 
Q 4109 813 3618 361 
Q 3128 -91 2303 -91 
Q 1394 -91 895 523 
Q 397 1138 397 2266 
Q 397 3422 980 4083 
Q 1563 4744 2578 4744 
Q 2900 4744 3203 4694 
Q 3506 4644 3803 4544 
z
" transform="scale(0.015625)"/>
      </defs>
      <use xlink:href="#DejaVuSans-Bold-31"/>
      <use xlink:href="#DejaVuSans-Bold-30" x="69.580078"/>
      <use xlink:href="#DejaVuSans-Bold-36" x="139.160156"/>
      <use xlink:href="#DejaVuSans-Bold-30" x="208.740234"/>
     </g>
    </g>
    <g clip-path="url(#p06407abbe9)">
     <!-- MVC -->
     <g transform="translate(606.179371 420.591009) scale(0.1 -0.1)">
      <defs>
       <path id="DejaVuSans-Bold-4d" d="M 588 4666 
L 2119 4666 
L 3181 2169 
L 4250 4666 
L 5778 4666 
L 5778 0 
L 4641 0 
L 4641 3413 
L 3566 897 
L 2803 897 
L 1728 3413 
L 1728 0 
L 588 0 
L 588 4666 
z
" transform="scale(0.015625)"/>
       <path id="DejaVuSans-Bold-56" d="M 31 4666 
L 1241 4666 
L 2478 1222 
L 3713 4666 
L 4922 4666 
L 3194 0 
L 1759 0 
L 31 4666 
z
" transform="scale(0.015625)"/>
      </defs>
      <use xlink:href="#DejaVuSans-Bold-4d"/>
      <use xlink:href="#DejaVuSans-Bold-56" x="99.511719"/>
      <use xlink:href="#DejaVuSans-Bold-43" x="176.904297"/>
     </g>
    </g>
   </g>
   <g id="text_8">
    <g clip-path="url(#p06407abbe9)">
     <!-- 2038 -->
     <g transform="translate(51.39016 287.211378) scale(0.1 -0.1)">
      <defs>
       <path id="DejaVuSans-Bold-33" d="M 2981 2516 
Q 3453 2394 3698 2092 
Q 3944 1791 3944 1325 
Q 3944 631 3412 270 
Q 2881 -91 1863 -91 
Q 1503 -91 1142 -33 
Q 781 25 428 141 
L 428 1069 
Q 766 900 1098 814 
Q 1431 728 1753 728 
Q 2231 728 2486 893 
Q 2741 1059 2741 1369 
Q 2741 1688 2480 1852 
Q 2219 2016 1709 2016 
L 1228 2016 
L 1228 2791 
L 1734 2791 
Q 2188 2791 2409 2933 
Q 2631 3075 2631 3366 
Q 2631 3634 2415 3781 
Q 2200 3928 1806 3928 
Q 1516 3928 1219 3862 
Q 922 3797 628 3669 
L 628 4550 
Q 984 4650 1334 4700 
Q 1684 4750 2022 4750 
Q 2931 4750 3382 4451 
Q 3834 4153 3834 3553 
Q 3834 3144 3618 2883 
Q 3403 2622 2981 2516 
z
" transform="scale(0.015625)"/>
      </defs>
      <use xlink:href="#DejaVuSans-Bold-32"/>
      <use xlink:href="#DejaVuSans-Bold-30" x="69.580078"/>
      <use xlink:href="#DejaVuSans-Bold-33" x="139.160156"/>
      <use xlink:href="#DejaVuSans-Bold-38" x="208.740234"/>
     </g>
    </g>
    <g clip-path="url(#p06407abbe9)">
     <!-- PDEs -->
     <g transform="translate(51.098754 298.40919) scale(0.1 -0.1)">
      <defs>
       <path id="DejaVuSans-Bold-50" d="M 588 4666 
L 2584 4666 
Q 3475 4666 3951 4270 
Q 4428 3875 4428 3144 
Q 4428 2409 3951 2014 
Q 3475 1619 2584 1619 
L 1791 1619 
L 1791 0 
L 588 0 
L 588 4666 
z
M 1791 3794 
L 1791 2491 
L 2456 2491 
Q 2806 2491 2997 2661 
Q 3188 2831 3188 3144 
Q 3188 3456 2997 3625 
Q 2806 3794 2456 3794 
L 1791 3794 
z
" transform="scale(0.015625)"/>
       <path id="DejaVuSans-Bold-45" d="M 588 4666 
L 3834 4666 
L 3834 3756 
L 1791 3756 
L 1791 2888 
L 3713 2888 
L 3713 1978 
L 1791 1978 
L 1791 909 
L 3903 909 
L 3903 0 
L 588 0 
L 588 4666 
z
" transform="scale(0.015625)"/>
      </defs>
      <use xlink:href="#DejaVuSans-Bold-50"/>
      <use xlink:href="#DejaVuSans-Bold-44" x="73.291016"/>
      <use xlink:href="#DejaVuSans-Bold-45" x="156.298828"/>
      <use xlink:href="#DejaVuSans-Bold-73" x="224.609375"/>
     </g>
    </g>
   </g>
   <g id="text_9">
    <g clip-path="url(#p06407abbe9)">
     <!-- 2039 -->
     <g transform="translate(189.737268 287.172315) scale(0.1 -0.1)">
      <use xlink:href="#DejaVuSans-Bold-32"/>
      <use xlink:href="#DejaVuSans-Bold-30" x="69.580078"/>
      <use xlink:href="#DejaVuSans-Bold-33" x="139.160156"/>
      <use xlink:href="#DejaVuSans-Bold-39" x="208.740234"/>
     </g>
    </g>
    <g clip-path="url(#p06407abbe9)">
     <!-- Analysis -->
     <g transform="translate(180.210705 298.370128) scale(0.1 -0.1)">
      <use xlink:href="#DejaVuSans-Bold-41"/>
      <use xlink:href="#DejaVuSans-Bold-6e" x="77.392578"/>
      <use xlink:href="#DejaVuSans-Bold-61" x="148.583984"/>
      <use xlink:href="#DejaVuSans-Bold-6c" x="216.064453"/>
      <use xlink:href="#DejaVuSans-Bold-79" x="250.341797"/>
      <use xlink:href="#DejaVuSans-Bold-73" x="315.527344"/>
      <use xlink:href="#DejaVuSans-Bold-69" x="375.048828"/>
      <use xlink:href="#DejaVuSans-Bold-73" x="409.326172"/>
     </g>
    </g>
   </g>
   <g id="text_10">
    <g clip-path="url(#p06407abbe9)">
     <!-- 2044 -->
     <g transform="translate(328.084375 287.211378) scale(0.1 -0.1)">
      <use xlink:href="#DejaVuSans-Bold-32"/>
      <use xlink:href="#DejaVuSans-Bold-30" x="69.580078"/>
      <use xlink:href="#DejaVuSans-Bold-34" x="139.160156"/>
      <use xlink:href="#DejaVuSans-Bold-34" x="208.740234"/>
     </g>
    </g>
    <g clip-path="url(#p06407abbe9)">
     <!-- F&amp;F -->
     <g transform="translate(330.808594 298.40919) scale(0.1 -0.1)">
      <defs>
       <path id="DejaVuSans-Bold-46" d="M 588 4666 
L 3834 4666 
L 3834 3756 
L 1791 3756 
L 1791 2888 
L 3713 2888 
L 3713 1978 
L 1791 1978 
L 1791 0 
L 588 0 
L 588 4666 
z
" transform="scale(0.015625)"/>
       <path id="DejaVuSans-Bold-26" d="M 2497 3097 
L 3775 1691 
Q 3941 1909 4027 2181 
Q 4113 2453 4128 2797 
L 5100 2797 
Q 5053 2228 4879 1784 
Q 4706 1341 4397 1006 
L 5313 0 
L 3988 0 
L 3681 341 
Q 3353 122 2990 15 
Q 2628 -91 2222 -91 
Q 1400 -91 892 342 
Q 384 775 384 1459 
Q 384 1916 607 2267 
Q 831 2619 1338 2950 
Q 1206 3116 1143 3281 
Q 1081 3447 1081 3628 
Q 1081 4138 1478 4444 
Q 1875 4750 2534 4750 
Q 2819 4750 3126 4704 
Q 3434 4659 3769 4569 
L 3769 3700 
Q 3475 3850 3212 3922 
Q 2950 3994 2700 3994 
Q 2459 3994 2326 3901 
Q 2194 3809 2194 3641 
Q 2194 3534 2270 3398 
Q 2347 3263 2497 3097 
z
M 1875 2322 
Q 1672 2175 1569 1989 
Q 1466 1803 1466 1581 
Q 1466 1222 1731 969 
Q 1997 716 2369 716 
Q 2578 716 2759 780 
Q 2941 844 3097 972 
L 1875 2322 
z
" transform="scale(0.015625)"/>
      </defs>
      <use xlink:href="#DejaVuSans-Bold-46"/>
      <use xlink:href="#DejaVuSans-Bold-26" x="68.310547"/>
      <use xlink:href="#DejaVuSans-Bold-46" x="155.517578"/>
     </g>
    </g>
   </g>
   <g id="text_11">
    <g clip-path="url(#p06407abbe9)">
     <!-- 2045 -->
     <g transform="translate(466.431482 287.211378) scale(0.1 -0.1)">
      <use xlink:href="#DejaVuSans-Bold-32"/>
      <use xlink:href="#DejaVuSans-Bold-30" x="69.580078"/>
      <use xlink:href="#DejaVuSans-Bold-34" x="139.160156"/>
      <use xlink:href="#DejaVuSans-Bold-35" x="208.740234"/>
     </g>
    </g>
    <g clip-path="url(#p06407abbe9)">
     <!-- VC -->
     <g transform="translate(472.808045 298.40919) scale(0.1 -0.1)">
      <use xlink:href="#DejaVuSans-Bold-56"/>
      <use xlink:href="#DejaVuSans-Bold-43" x="77.392578"/>
     </g>
    </g>
   </g>
   <g id="text_12">
    <g clip-path="url(#p06407abbe9)">
     <!-- 2048 -->
     <g transform="translate(604.77859 287.211378) scale(0.1 -0.1)">
      <use xlink:href="#DejaVuSans-Bold-32"/>
      <use xlink:href="#DejaVuSans-Bold-30" x="69.580078"/>
      <use xlink:href="#DejaVuSans-Bold-34" x="139.160156"/>
      <use xlink:href="#DejaVuSans-Bold-38" x="208.740234"/>
     </g>
    </g>
    <g clip-path="url(#p06407abbe9)">
     <!-- Service -->
     <g transform="translate(597.907496 298.40919) scale(0.1 -0.1)">
      <use xlink:href="#DejaVuSans-Bold-53"/>
      <use xlink:href="#DejaVuSans-Bold-65" x="72.021484"/>
      <use xlink:href="#DejaVuSans-Bold-72" x="139.84375"/>
      <use xlink:href="#DejaVuSans-Bold-76" x="189.160156"/>
      <use xlink:href="#DejaVuSans-Bold-69" x="254.345703"/>
      <use xlink:href="#DejaVuSans-Bold-63" x="288.623047"/>
      <use xlink:href="#DejaVuSans-Bold-65" x="347.900391"/>
     </g>
    </g>
   </g>
   <g id="text_13">
    <g clip-path="url(#p06407abbe9)">
     <!-- 3006 -->
     <g transform="translate(51.39016 165.02956) scale(0.1 -0.1)">
      <use xlink:href="#DejaVuSans-Bold-33"/>
      <use xlink:href="#DejaVuSans-Bold-30" x="69.580078"/>
      <use xlink:href="#DejaVuSans-Bold-30" x="139.160156"/>
      <use xlink:href="#DejaVuSans-Bold-36" x="208.740234"/>
     </g>
    </g>
    <g clip-path="url(#p06407abbe9)">
     <!-- GR -->
     <g transform="translate(57.351879 176.227372) scale(0.1 -0.1)">
      <defs>
       <path id="DejaVuSans-Bold-47" d="M 4781 347 
Q 4331 128 3847 18 
Q 3363 -91 2847 -91 
Q 1681 -91 1000 561 
Q 319 1213 319 2328 
Q 319 3456 1012 4103 
Q 1706 4750 2913 4750 
Q 3378 4750 3804 4662 
Q 4231 4575 4609 4403 
L 4609 3438 
Q 4219 3659 3833 3768 
Q 3447 3878 3059 3878 
Q 2341 3878 1952 3476 
Q 1563 3075 1563 2328 
Q 1563 1588 1938 1184 
Q 2313 781 3003 781 
Q 3191 781 3352 804 
Q 3513 828 3641 878 
L 3641 1784 
L 2906 1784 
L 2906 2591 
L 4781 2591 
L 4781 347 
z
" transform="scale(0.015625)"/>
      </defs>
      <use xlink:href="#DejaVuSans-Bold-47"/>
      <use xlink:href="#DejaVuSans-Bold-52" x="82.080078"/>
     </g>
    </g>
   </g>
   <g id="text_14">
    <g clip-path="url(#p06407abbe9)">
     <!-- 3018 -->
     <g transform="translate(130.44565 165.02956) scale(0.1 -0.1)">
      <use xlink:href="#DejaVuSans-Bold-33"/>
      <use xlink:href="#DejaVuSans-Bold-30" x="69.580078"/>
      <use xlink:href="#DejaVuSans-Bold-31" x="139.160156"/>
      <use xlink:href="#DejaVuSans-Bold-38" x="208.740234"/>
     </g>
    </g>
    <g clip-path="url(#p06407abbe9)">
     <!-- Numerics -->
     <g transform="translate(117.896431 176.227372) scale(0.1 -0.1)">
      <defs>
       <path id="DejaVuSans-Bold-4e" d="M 588 4666 
L 1931 4666 
L 3628 1466 
L 3628 4666 
L 4769 4666 
L 4769 0 
L 3425 0 
L 1728 3200 
L 1728 0 
L 588 0 
L 588 4666 
z
" transform="scale(0.015625)"/>
       <path id="DejaVuSans-Bold-75" d="M 500 1363 
L 500 3500 
L 1625 3500 
L 1625 3150 
Q 1625 2866 1622 2436 
Q 1619 2006 1619 1863 
Q 1619 1441 1641 1255 
Q 1663 1069 1716 984 
Q 1784 875 1895 815 
Q 2006 756 2150 756 
Q 2500 756 2700 1025 
Q 2900 1294 2900 1772 
L 2900 3500 
L 4019 3500 
L 4019 0 
L 2900 0 
L 2900 506 
Q 2647 200 2364 54 
Q 2081 -91 1741 -91 
Q 1134 -91 817 281 
Q 500 653 500 1363 
z
" transform="scale(0.015625)"/>
      </defs>
      <use xlink:href="#DejaVuSans-Bold-4e"/>
      <use xlink:href="#DejaVuSans-Bold-75" x="83.691406"/>
      <use xlink:href="#DejaVuSans-Bold-6d" x="154.882812"/>
      <use xlink:href="#DejaVuSans-Bold-65" x="259.082031"/>
      <use xlink:href="#DejaVuSans-Bold-72" x="326.904297"/>
      <use xlink:href="#DejaVuSans-Bold-69" x="376.220703"/>
      <use xlink:href="#DejaVuSans-Bold-63" x="410.498047"/>
      <use xlink:href="#DejaVuSans-Bold-73" x="469.775391"/>
     </g>
    </g>
   </g>
   <g id="text_15">
    <g clip-path="url(#p06407abbe9)">
     <!-- 3052 -->
     <g transform="translate(209.50114 165.02956) scale(0.1 -0.1)">
      <use xlink:href="#DejaVuSans-Bold-33"/>
      <use xlink:href="#DejaVuSans-Bold-30" x="69.580078"/>
      <use xlink:href="#DejaVuSans-Bold-35" x="139.160156"/>
      <use xlink:href="#DejaVuSans-Bold-32" x="208.740234"/>
     </g>
    </g>
    <g clip-path="url(#p06407abbe9)">
     <!-- Bio -->
     <g transform="translate(214.456609 176.227372) scale(0.1 -0.1)">
      <defs>
       <path id="DejaVuSans-Bold-42" d="M 2456 2859 
Q 2741 2859 2887 2984 
Q 3034 3109 3034 3353 
Q 3034 3594 2887 3720 
Q 2741 3847 2456 3847 
L 1791 3847 
L 1791 2859 
L 2456 2859 
z
M 2497 819 
Q 2859 819 3042 972 
Q 3225 1125 3225 1434 
Q 3225 1738 3044 1889 
Q 2863 2041 2497 2041 
L 1791 2041 
L 1791 819 
L 2497 819 
z
M 3616 2497 
Q 4003 2384 4215 2081 
Q 4428 1778 4428 1338 
Q 4428 663 3972 331 
Q 3516 0 2584 0 
L 588 0 
L 588 4666 
L 2394 4666 
Q 3366 4666 3802 4372 
Q 4238 4078 4238 3431 
Q 4238 3091 4078 2852 
Q 3919 2613 3616 2497 
z
" transform="scale(0.015625)"/>
       <path id="DejaVuSans-Bold-6f" d="M 2203 2784 
Q 1831 2784 1636 2517 
Q 1441 2250 1441 1747 
Q 1441 1244 1636 976 
Q 1831 709 2203 709 
Q 2569 709 2762 976 
Q 2956 1244 2956 1747 
Q 2956 2250 2762 2517 
Q 2569 2784 2203 2784 
z
M 2203 3584 
Q 3106 3584 3614 3096 
Q 4122 2609 4122 1747 
Q 4122 884 3614 396 
Q 3106 -91 2203 -91 
Q 1297 -91 786 396 
Q 275 884 275 1747 
Q 275 2609 786 3096 
Q 1297 3584 2203 3584 
z
" transform="scale(0.015625)"/>
      </defs>
      <use xlink:href="#DejaVuSans-Bold-42"/>
      <use xlink:href="#DejaVuSans-Bold-69" x="76.220703"/>
      <use xlink:href="#DejaVuSans-Bold-6f" x="110.498047"/>
     </g>
    </g>
   </g>
   <g id="text_16">
    <g clip-path="url(#p06407abbe9)">
     <!-- 3072 -->
     <g transform="translate(288.55663 165.02956) scale(0.1 -0.1)">
      <use xlink:href="#DejaVuSans-Bold-33"/>
      <use xlink:href="#DejaVuSans-Bold-30" x="69.580078"/>
      <use xlink:href="#DejaVuSans-Bold-37" x="139.160156"/>
      <use xlink:href="#DejaVuSans-Bold-32" x="208.740234"/>
     </g>
    </g>
    <g clip-path="url(#p06407abbe9)">
     <!-- AFluids -->
     <g transform="translate(281.644911 176.227372) scale(0.1 -0.1)">
      <defs>
       <path id="DejaVuSans-Bold-64" d="M 2919 2988 
L 2919 4863 
L 4044 4863 
L 4044 0 
L 2919 0 
L 2919 506 
Q 2688 197 2409 53 
Q 2131 -91 1766 -91 
Q 1119 -91 703 423 
Q 288 938 288 1747 
Q 288 2556 703 3070 
Q 1119 3584 1766 3584 
Q 2128 3584 2408 3439 
Q 2688 3294 2919 2988 
z
M 2181 722 
Q 2541 722 2730 984 
Q 2919 1247 2919 1747 
Q 2919 2247 2730 2509 
Q 2541 2772 2181 2772 
Q 1825 2772 1636 2509 
Q 1447 2247 1447 1747 
Q 1447 1247 1636 984 
Q 1825 722 2181 722 
z
" transform="scale(0.015625)"/>
      </defs>
      <use xlink:href="#DejaVuSans-Bold-41"/>
      <use xlink:href="#DejaVuSans-Bold-46" x="77.392578"/>
      <use xlink:href="#DejaVuSans-Bold-6c" x="145.703125"/>
      <use xlink:href="#DejaVuSans-Bold-75" x="179.980469"/>
      <use xlink:href="#DejaVuSans-Bold-69" x="251.171875"/>
      <use xlink:href="#DejaVuSans-Bold-64" x="285.449219"/>
      <use xlink:href="#DejaVuSans-Bold-73" x="357.03125"/>
     </g>
    </g>
   </g>
   <g id="text_17">
    <g clip-path="url(#p06407abbe9)">
     <!-- 3083 -->
     <g transform="translate(367.61212 165.02956) scale(0.1 -0.1)">
      <use xlink:href="#DejaVuSans-Bold-33"/>
      <use xlink:href="#DejaVuSans-Bold-30" x="69.580078"/>
      <use xlink:href="#DejaVuSans-Bold-38" x="139.160156"/>
      <use xlink:href="#DejaVuSans-Bold-33" x="208.740234"/>
     </g>
    </g>
    <g clip-path="url(#p06407abbe9)">
     <!-- APDEs -->
     <g transform="translate(363.451182 176.227372) scale(0.1 -0.1)">
      <use xlink:href="#DejaVuSans-Bold-41"/>
      <use xlink:href="#DejaVuSans-Bold-50" x="77.392578"/>
      <use xlink:href="#DejaVuSans-Bold-44" x="150.683594"/>
      <use xlink:href="#DejaVuSans-Bold-45" x="233.691406"/>
      <use xlink:href="#DejaVuSans-Bold-73" x="302.001953"/>
     </g>
    </g>
   </g>
   <g id="text_18">
    <g clip-path="url(#p06407abbe9)">
     <!-- 3084 -->
     <g transform="translate(446.66761 165.02956) scale(0.1 -0.1)">
      <use xlink:href="#DejaVuSans-Bold-33"/>
      <use xlink:href="#DejaVuSans-Bold-30" x="69.580078"/>
      <use xlink:href="#DejaVuSans-Bold-38" x="139.160156"/>
      <use xlink:href="#DejaVuSans-Bold-34" x="208.740234"/>
     </g>
    </g>
    <g clip-path="url(#p06407abbe9)">
     <!-- ITMs -->
     <g transform="translate(447.360579 176.227372) scale(0.1 -0.1)">
      <defs>
       <path id="DejaVuSans-Bold-49" d="M 588 4666 
L 1791 4666 
L 1791 0 
L 588 0 
L 588 4666 
z
" transform="scale(0.015625)"/>
       <path id="DejaVuSans-Bold-54" d="M 31 4666 
L 4331 4666 
L 4331 3756 
L 2784 3756 
L 2784 0 
L 1581 0 
L 1581 3756 
L 31 3756 
L 31 4666 
z
" transform="scale(0.015625)"/>
      </defs>
      <use xlink:href="#DejaVuSans-Bold-49"/>
      <use xlink:href="#DejaVuSans-Bold-54" x="37.207031"/>
      <use xlink:href="#DejaVuSans-Bold-4d" x="105.419922"/>
      <use xlink:href="#DejaVuSans-Bold-73" x="204.931641"/>
     </g>
    </g>
   </g>
   <g id="text_19">
    <g clip-path="url(#p06407abbe9)">
     <!-- 3090 -->
     <g transform="translate(525.7231 165.02956) scale(0.1 -0.1)">
      <use xlink:href="#DejaVuSans-Bold-33"/>
      <use xlink:href="#DejaVuSans-Bold-30" x="69.580078"/>
      <use xlink:href="#DejaVuSans-Bold-39" x="139.160156"/>
      <use xlink:href="#DejaVuSans-Bold-30" x="208.740234"/>
     </g>
    </g>
    <g clip-path="url(#p06407abbe9)">
     <!-- Networks -->
     <g transform="translate(512.852006 176.227372) scale(0.1 -0.1)">
      <defs>
       <path id="DejaVuSans-Bold-74" d="M 1759 4494 
L 1759 3500 
L 2913 3500 
L 2913 2700 
L 1759 2700 
L 1759 1216 
Q 1759 972 1856 886 
Q 1953 800 2241 800 
L 2816 800 
L 2816 0 
L 1856 0 
Q 1194 0 917 276 
Q 641 553 641 1216 
L 641 2700 
L 84 2700 
L 84 3500 
L 641 3500 
L 641 4494 
L 1759 4494 
z
" transform="scale(0.015625)"/>
       <path id="DejaVuSans-Bold-77" d="M 225 3500 
L 1313 3500 
L 1900 1088 
L 2491 3500 
L 3425 3500 
L 4013 1113 
L 4603 3500 
L 5691 3500 
L 4769 0 
L 3547 0 
L 2956 2406 
L 2369 0 
L 1147 0 
L 225 3500 
z
" transform="scale(0.015625)"/>
       <path id="DejaVuSans-Bold-6b" d="M 538 4863 
L 1656 4863 
L 1656 2216 
L 2944 3500 
L 4244 3500 
L 2534 1894 
L 4378 0 
L 3022 0 
L 1656 1459 
L 1656 0 
L 538 0 
L 538 4863 
z
" transform="scale(0.015625)"/>
      </defs>
      <use xlink:href="#DejaVuSans-Bold-4e"/>
      <use xlink:href="#DejaVuSans-Bold-65" x="83.691406"/>
      <use xlink:href="#DejaVuSans-Bold-74" x="151.513672"/>
      <use xlink:href="#DejaVuSans-Bold-77" x="199.316406"/>
      <use xlink:href="#DejaVuSans-Bold-6f" x="291.699219"/>
      <use xlink:href="#DejaVuSans-Bold-72" x="360.400391"/>
      <use xlink:href="#DejaVuSans-Bold-6b" x="409.716797"/>
      <use xlink:href="#DejaVuSans-Bold-73" x="476.220703"/>
     </g>
    </g>
   </g>
   <g id="text_20">
    <g clip-path="url(#p06407abbe9)">
     <!-- 3092 -->
     <g transform="translate(604.77859 164.990497) scale(0.1 -0.1)">
      <use xlink:href="#DejaVuSans-Bold-33"/>
      <use xlink:href="#DejaVuSans-Bold-30" x="69.580078"/>
      <use xlink:href="#DejaVuSans-Bold-39" x="139.160156"/>
      <use xlink:href="#DejaVuSans-Bold-32" x="208.740234"/>
     </g>
    </g>
    <g clip-path="url(#p06407abbe9)">
     <!-- Project -->
     <g transform="translate(598.669215 176.18831) scale(0.1 -0.1)">
      <defs>
       <path id="DejaVuSans-Bold-6a" d="M 538 3500 
L 1656 3500 
L 1656 63 
Q 1656 -641 1318 -1011 
Q 981 -1381 341 -1381 
L -213 -1381 
L -213 -647 
L -19 -647 
Q 300 -647 419 -503 
Q 538 -359 538 63 
L 538 3500 
z
M 538 4863 
L 1656 4863 
L 1656 3950 
L 538 3950 
L 538 4863 
z
" transform="scale(0.015625)"/>
      </defs>
      <use xlink:href="#DejaVuSans-Bold-50"/>
      <use xlink:href="#DejaVuSans-Bold-72" x="73.291016"/>
      <use xlink:href="#DejaVuSans-Bold-6f" x="122.607422"/>
      <use xlink:href="#DejaVuSans-Bold-6a" x="191.308594"/>
      <use xlink:href="#DejaVuSans-Bold-65" x="225.585938"/>
      <use xlink:href="#DejaVuSans-Bold-63" x="293.408203"/>
      <use xlink:href="#DejaVuSans-Bold-74" x="352.685547"/>
     </g>
    </g>
   </g>
   <g id="text_21">
    <g clip-path="url(#p06407abbe9)">
     <!-- 6109 -->
     <g transform="translate(51.39016 42.847741) scale(0.1 -0.1)">
      <use xlink:href="#DejaVuSans-Bold-36"/>
      <use xlink:href="#DejaVuSans-Bold-31" x="69.580078"/>
      <use xlink:href="#DejaVuSans-Bold-30" x="139.160156"/>
      <use xlink:href="#DejaVuSans-Bold-39" x="208.740234"/>
     </g>
    </g>
    <g clip-path="url(#p06407abbe9)">
     <!-- DiffGeom -->
     <g transform="translate(38.950316 54.045554) scale(0.1 -0.1)">
      <defs>
       <path id="DejaVuSans-Bold-66" d="M 2841 4863 
L 2841 4128 
L 2222 4128 
Q 1984 4128 1890 4042 
Q 1797 3956 1797 3744 
L 1797 3500 
L 2753 3500 
L 2753 2700 
L 1797 2700 
L 1797 0 
L 678 0 
L 678 2700 
L 122 2700 
L 122 3500 
L 678 3500 
L 678 3744 
Q 678 4316 997 4589 
Q 1316 4863 1984 4863 
L 2841 4863 
z
" transform="scale(0.015625)"/>
      </defs>
      <use xlink:href="#DejaVuSans-Bold-44"/>
      <use xlink:href="#DejaVuSans-Bold-69" x="83.007812"/>
      <use xlink:href="#DejaVuSans-Bold-66" x="117.285156"/>
      <use xlink:href="#DejaVuSans-Bold-66" x="160.791016"/>
      <use xlink:href="#DejaVuSans-Bold-47" x="204.296875"/>
      <use xlink:href="#DejaVuSans-Bold-65" x="286.376953"/>
      <use xlink:href="#DejaVuSans-Bold-6f" x="354.199219"/>
      <use xlink:href="#DejaVuSans-Bold-6d" x="422.900391"/>
     </g>
    </g>
   </g>
   <g id="text_22">
    <g clip-path="url(#p06407abbe9)">
     <!-- 6139 -->
     <g transform="translate(120.563714 42.847741) scale(0.1 -0.1)">
      <use xlink:href="#DejaVuSans-Bold-36"/>
      <use xlink:href="#DejaVuSans-Bold-31" x="69.580078"/>
      <use xlink:href="#DejaVuSans-Bold-33" x="139.160156"/>
      <use xlink:href="#DejaVuSans-Bold-39" x="208.740234"/>
     </g>
    </g>
    <g clip-path="url(#p06407abbe9)">
     <!-- AGR -->
     <g transform="translate(122.655901 54.045554) scale(0.1 -0.1)">
      <use xlink:href="#DejaVuSans-Bold-41"/>
      <use xlink:href="#DejaVuSans-Bold-47" x="77.392578"/>
      <use xlink:href="#DejaVuSans-Bold-52" x="159.472656"/>
     </g>
    </g>
   </g>
   <g id="text_23">
    <g clip-path="url(#p06407abbe9)">
     <!-- 6140 -->
     <g transform="translate(189.737268 42.847741) scale(0.1 -0.1)">
      <use xlink:href="#DejaVuSans-Bold-36"/>
      <use xlink:href="#DejaVuSans-Bold-31" x="69.580078"/>
      <use xlink:href="#DejaVuSans-Bold-34" x="139.160156"/>
      <use xlink:href="#DejaVuSans-Bold-30" x="208.740234"/>
     </g>
    </g>
    <g clip-path="url(#p06407abbe9)">
     <!-- Networks -->
     <g transform="translate(176.866174 54.045554) scale(0.1 -0.1)">
      <use xlink:href="#DejaVuSans-Bold-4e"/>
      <use xlink:href="#DejaVuSans-Bold-65" x="83.691406"/>
      <use xlink:href="#DejaVuSans-Bold-74" x="151.513672"/>
      <use xlink:href="#DejaVuSans-Bold-77" x="199.316406"/>
      <use xlink:href="#DejaVuSans-Bold-6f" x="291.699219"/>
      <use xlink:href="#DejaVuSans-Bold-72" x="360.400391"/>
      <use xlink:href="#DejaVuSans-Bold-6b" x="409.716797"/>
      <use xlink:href="#DejaVuSans-Bold-73" x="476.220703"/>
     </g>
    </g>
   </g>
   <g id="text_24">
    <g clip-path="url(#p06407abbe9)">
     <!-- 6141 -->
     <g transform="translate(258.910821 42.847741) scale(0.1 -0.1)">
      <use xlink:href="#DejaVuSans-Bold-36"/>
      <use xlink:href="#DejaVuSans-Bold-31" x="69.580078"/>
      <use xlink:href="#DejaVuSans-Bold-34" x="139.160156"/>
      <use xlink:href="#DejaVuSans-Bold-31" x="208.740234"/>
     </g>
    </g>
    <g clip-path="url(#p06407abbe9)">
     <!-- Numerics -->
     <g transform="translate(246.361603 54.045554) scale(0.1 -0.1)">
      <use xlink:href="#DejaVuSans-Bold-4e"/>
      <use xlink:href="#DejaVuSans-Bold-75" x="83.691406"/>
      <use xlink:href="#DejaVuSans-Bold-6d" x="154.882812"/>
      <use xlink:href="#DejaVuSans-Bold-65" x="259.082031"/>
      <use xlink:href="#DejaVuSans-Bold-72" x="326.904297"/>
      <use xlink:href="#DejaVuSans-Bold-69" x="376.220703"/>
      <use xlink:href="#DejaVuSans-Bold-63" x="410.498047"/>
      <use xlink:href="#DejaVuSans-Bold-73" x="469.775391"/>
     </g>
    </g>
   </g>
   <g id="text_25">
    <g clip-path="url(#p06407abbe9)">
     <!-- 6144 -->
     <g transform="translate(328.084375 42.808679) scale(0.1 -0.1)">
      <use xlink:href="#DejaVuSans-Bold-36"/>
      <use xlink:href="#DejaVuSans-Bold-31" x="69.580078"/>
      <use xlink:href="#DejaVuSans-Bold-34" x="139.160156"/>
      <use xlink:href="#DejaVuSans-Bold-34" x="208.740234"/>
     </g>
    </g>
    <g clip-path="url(#p06407abbe9)">
     <!-- Project -->
     <g transform="translate(321.975 54.006491) scale(0.1 -0.1)">
      <use xlink:href="#DejaVuSans-Bold-50"/>
      <use xlink:href="#DejaVuSans-Bold-72" x="73.291016"/>
      <use xlink:href="#DejaVuSans-Bold-6f" x="122.607422"/>
      <use xlink:href="#DejaVuSans-Bold-6a" x="191.308594"/>
      <use xlink:href="#DejaVuSans-Bold-65" x="225.585938"/>
      <use xlink:href="#DejaVuSans-Bold-63" x="293.408203"/>
      <use xlink:href="#DejaVuSans-Bold-74" x="352.685547"/>
     </g>
    </g>
   </g>
   <g id="text_26">
    <g clip-path="url(#p06407abbe9)">
     <!-- 6149 -->
     <g transform="translate(397.257929 42.808679) scale(0.1 -0.1)">
      <use xlink:href="#DejaVuSans-Bold-36"/>
      <use xlink:href="#DejaVuSans-Bold-31" x="69.580078"/>
      <use xlink:href="#DejaVuSans-Bold-34" x="139.160156"/>
      <use xlink:href="#DejaVuSans-Bold-39" x="208.740234"/>
     </g>
    </g>
    <g clip-path="url(#p06407abbe9)">
     <!-- Modelling -->
     <g transform="translate(383.511835 54.006491) scale(0.1 -0.1)">
      <defs>
       <path id="DejaVuSans-Bold-67" d="M 2919 594 
Q 2688 288 2409 144 
Q 2131 0 1766 0 
Q 1125 0 706 504 
Q 288 1009 288 1791 
Q 288 2575 706 3076 
Q 1125 3578 1766 3578 
Q 2131 3578 2409 3434 
Q 2688 3291 2919 2981 
L 2919 3500 
L 4044 3500 
L 4044 353 
Q 4044 -491 3511 -936 
Q 2978 -1381 1966 -1381 
Q 1638 -1381 1331 -1331 
Q 1025 -1281 716 -1178 
L 716 -306 
Q 1009 -475 1290 -558 
Q 1572 -641 1856 -641 
Q 2406 -641 2662 -400 
Q 2919 -159 2919 353 
L 2919 594 
z
M 2181 2772 
Q 1834 2772 1640 2515 
Q 1447 2259 1447 1791 
Q 1447 1309 1634 1061 
Q 1822 813 2181 813 
Q 2531 813 2725 1069 
Q 2919 1325 2919 1791 
Q 2919 2259 2725 2515 
Q 2531 2772 2181 2772 
z
" transform="scale(0.015625)"/>
      </defs>
      <use xlink:href="#DejaVuSans-Bold-4d"/>
      <use xlink:href="#DejaVuSans-Bold-6f" x="99.511719"/>
      <use xlink:href="#DejaVuSans-Bold-64" x="168.212891"/>
      <use xlink:href="#DejaVuSans-Bold-65" x="239.794922"/>
      <use xlink:href="#DejaVuSans-Bold-6c" x="307.617188"/>
      <use xlink:href="#DejaVuSans-Bold-6c" x="341.894531"/>
      <use xlink:href="#DejaVuSans-Bold-69" x="376.171875"/>
      <use xlink:href="#DejaVuSans-Bold-6e" x="410.449219"/>
      <use xlink:href="#DejaVuSans-Bold-67" x="481.640625"/>
     </g>
    </g>
   </g>
   <g id="text_27">
    <g clip-path="url(#p06407abbe9)">
     <!-- 6162 -->
     <g transform="translate(466.431482 42.847741) scale(0.1 -0.1)">
      <use xlink:href="#DejaVuSans-Bold-36"/>
      <use xlink:href="#DejaVuSans-Bold-31" x="69.580078"/>
      <use xlink:href="#DejaVuSans-Bold-36" x="139.160156"/>
      <use xlink:href="#DejaVuSans-Bold-32" x="208.740234"/>
     </g>
    </g>
    <g clip-path="url(#p06407abbe9)">
     <!-- ITMs -->
     <g transform="translate(467.124451 54.045554) scale(0.1 -0.1)">
      <use xlink:href="#DejaVuSans-Bold-49"/>
      <use xlink:href="#DejaVuSans-Bold-54" x="37.207031"/>
      <use xlink:href="#DejaVuSans-Bold-4d" x="105.419922"/>
      <use xlink:href="#DejaVuSans-Bold-73" x="204.931641"/>
     </g>
    </g>
   </g>
   <g id="text_28">
    <g clip-path="url(#p06407abbe9)">
     <!-- 6163 -->
     <g transform="translate(535.605036 42.847741) scale(0.1 -0.1)">
      <use xlink:href="#DejaVuSans-Bold-36"/>
      <use xlink:href="#DejaVuSans-Bold-31" x="69.580078"/>
      <use xlink:href="#DejaVuSans-Bold-36" x="139.160156"/>
      <use xlink:href="#DejaVuSans-Bold-33" x="208.740234"/>
     </g>
    </g>
    <g clip-path="url(#p06407abbe9)">
     <!-- APDEs -->
     <g transform="translate(531.444099 54.045554) scale(0.1 -0.1)">
      <use xlink:href="#DejaVuSans-Bold-41"/>
      <use xlink:href="#DejaVuSans-Bold-50" x="77.392578"/>
      <use xlink:href="#DejaVuSans-Bold-44" x="150.683594"/>
      <use xlink:href="#DejaVuSans-Bold-45" x="233.691406"/>
      <use xlink:href="#DejaVuSans-Bold-73" x="302.001953"/>
     </g>
    </g>
   </g>
   <g id="text_29">
    <g clip-path="url(#p06407abbe9)">
     <!-- 6172 -->
     <g transform="translate(604.77859 42.847741) scale(0.1 -0.1)">
      <use xlink:href="#DejaVuSans-Bold-36"/>
      <use xlink:href="#DejaVuSans-Bold-31" x="69.580078"/>
      <use xlink:href="#DejaVuSans-Bold-37" x="139.160156"/>
      <use xlink:href="#DejaVuSans-Bold-32" x="208.740234"/>
     </g>
    </g>
    <g clip-path="url(#p06407abbe9)">
     <!-- GWs -->
     <g transform="translate(606.099684 54.045554) scale(0.1 -0.1)">
      <defs>
       <path id="DejaVuSans-Bold-57" d="M 191 4666 
L 1344 4666 
L 2150 1275 
L 2950 4666 
L 4109 4666 
L 4909 1275 
L 5716 4666 
L 6859 4666 
L 5759 0 
L 4372 0 
L 3525 3547 
L 2688 0 
L 1300 0 
L 191 4666 
z
" transform="scale(0.015625)"/>
      </defs>
      <use xlink:href="#DejaVuSans-Bold-47"/>
      <use xlink:href="#DejaVuSans-Bold-57" x="82.080078"/>
      <use xlink:href="#DejaVuSans-Bold-73" x="192.382812"/>
     </g>
    </g>
   </g>
  </g>
 </g>
 <defs>
  <clipPath id="p06407abbe9">
   <rect x="7.2" y="7.2" width="669.6" height="443.52"/>
  </clipPath>
 </defs>
</svg>
