<?xml version="1.0" encoding="utf-8" standalone="no"?>
<!DOCTYPE svg PUBLIC "-//W3C//DTD SVG 1.1//EN"
  "http://www.w3.org/Graphics/SVG/1.1/DTD/svg11.dtd">
<svg xmlns:xlink="http://www.w3.org/1999/xlink" width="684pt" height="457.92pt" viewBox="0 0 684 457.92" xmlns="http://www.w3.org/2000/svg" version="1.1">
 <metadata>
  <rdf:RDF xmlns:dc="http://purl.org/dc/elements/1.1/" xmlns:cc="http://creativecommons.org/ns#" xmlns:rdf="http://www.w3.org/1999/02/22-rdf-syntax-ns#">
   <cc:Work>
    <dc:type rdf:resource="http://purl.org/dc/dcmitype/StillImage"/>
    <dc:date>2023-12-01T11:00:25.555034</dc:date>
    <dc:format>image/svg+xml</dc:format>
    <dc:creator>
     <cc:Agent>
      <dc:title>Matplotlib v3.7.2, https://matplotlib.org/</dc:title>
     </cc:Agent>
    </dc:creator>
   </cc:Work>
  </rdf:RDF>
 </metadata>
 <defs>
  <style type="text/css">*{stroke-linejoin: round; stroke-linecap: butt}</style>
 </defs>
 <g id="figure_1">
  <g id="patch_1">
   <path d="M 0 457.92 
L 684 457.92 
L 684 0 
L 0 0 
z
" style="fill: #ffffff"/>
  </g>
  <g id="axes_1">
   <g id="patch_2">
    <path d="M 67.127913 389.946328 
Q 69.592695 351.142653 67.19889 313.454762 
" clip-path="url(#pe5ea6bec3b)" style="fill: none; stroke: #000000; stroke-linecap: round"/>
    <path d="M 65.456467 317.573496 
L 67.19889 313.454762 
L 69.448423 317.31994 
z
" clip-path="url(#pe5ea6bec3b)" style="stroke: #000000; stroke-linecap: round"/>
   </g>
   <g id="patch_3">
    <path d="M 83.298323 398.955717 
Q 139.292328 356.590715 187.474672 307.064666 
" clip-path="url(#pe5ea6bec3b)" style="fill: none; stroke: #000000; stroke-linecap: round"/>
    <path d="M 183.251879 308.537086 
L 187.474672 307.064666 
L 186.118933 311.326352 
z
" clip-path="url(#pe5ea6bec3b)" style="stroke: #000000; stroke-linecap: round"/>
   </g>
   <g id="patch_4">
    <path d="M 86.510344 405.124398 
Q 208.93164 363.088364 321.486915 301.467401 
" clip-path="url(#pe5ea6bec3b)" style="fill: none; stroke: #000000; stroke-linecap: round"/>
    <path d="M 317.017882 301.633965 
L 321.486915 301.467401 
L 318.938746 305.142566 
z
" clip-path="url(#pe5ea6bec3b)" style="stroke: #000000; stroke-linecap: round"/>
   </g>
   <g id="patch_5">
    <path d="M 225.932485 414.101893 
Q 272.824569 417.280789 318.601178 414.177762 
" clip-path="url(#pe5ea6bec3b)" style="fill: none; stroke: #000000; stroke-linecap: round"/>
    <path d="M 314.475074 412.452865 
L 318.601178 414.177762 
L 314.745599 416.443707 
z
" clip-path="url(#pe5ea6bec3b)" style="stroke: #000000; stroke-linecap: round"/>
   </g>
   <g id="patch_6">
    <path d="M 225.916652 414.339675 
Q 411.174359 430.877917 595.31846 414.438946 
" clip-path="url(#pe5ea6bec3b)" style="fill: none; stroke: #000000; stroke-linecap: round"/>
    <path d="M 591.156467 412.802543 
L 595.31846 414.438946 
L 591.512142 416.786698 
z
" clip-path="url(#pe5ea6bec3b)" style="stroke: #000000; stroke-linecap: round"/>
   </g>
   <g id="patch_7">
    <path d="M 221.64543 398.955717 
Q 277.639436 356.590715 325.82178 307.064666 
" clip-path="url(#pe5ea6bec3b)" style="fill: none; stroke: #000000; stroke-linecap: round"/>
    <path d="M 321.598987 308.537086 
L 325.82178 307.064666 
L 324.46604 311.326352 
z
" clip-path="url(#pe5ea6bec3b)" style="stroke: #000000; stroke-linecap: round"/>
   </g>
   <g id="patch_8">
    <path d="M 224.857452 405.124398 
Q 347.278747 363.088364 459.834022 301.467401 
" clip-path="url(#pe5ea6bec3b)" style="fill: none; stroke: #000000; stroke-linecap: round"/>
    <path d="M 455.364989 301.633965 
L 459.834022 301.467401 
L 457.285853 305.142566 
z
" clip-path="url(#pe5ea6bec3b)" style="stroke: #000000; stroke-linecap: round"/>
   </g>
   <g id="patch_9">
    <path d="M 343.822128 389.946328 
Q 346.28691 351.142653 343.893105 313.454762 
" clip-path="url(#pe5ea6bec3b)" style="fill: none; stroke: #000000; stroke-linecap: round"/>
    <path d="M 342.150682 317.573496 
L 343.893105 313.454762 
L 346.142638 317.31994 
z
" clip-path="url(#pe5ea6bec3b)" style="stroke: #000000; stroke-linecap: round"/>
   </g>
   <g id="patch_10">
    <path d="M 458.067515 410.363561 
Q 411.175431 407.184665 365.398822 410.287693 
" clip-path="url(#pe5ea6bec3b)" style="fill: none; stroke: #000000; stroke-linecap: round"/>
    <path d="M 369.524926 412.012589 
L 365.398822 410.287693 
L 369.254401 408.021748 
z
" clip-path="url(#pe5ea6bec3b)" style="stroke: #000000; stroke-linecap: round"/>
   </g>
   <g id="patch_11">
    <path d="M 502.6267 414.101893 
Q 549.518784 417.280789 595.295393 414.177762 
" clip-path="url(#pe5ea6bec3b)" style="fill: none; stroke: #000000; stroke-linecap: round"/>
    <path d="M 591.169289 412.452865 
L 595.295393 414.177762 
L 591.439814 416.443707 
z
" clip-path="url(#pe5ea6bec3b)" style="stroke: #000000; stroke-linecap: round"/>
   </g>
   <g id="patch_12">
    <path d="M 460.809187 401.350111 
Q 347.273012 339.19274 225.908935 297.520283 
" clip-path="url(#pe5ea6bec3b)" style="fill: none; stroke: #000000; stroke-linecap: round"/>
    <path d="M 229.042614 300.710903 
L 225.908935 297.520283 
L 230.341638 296.927711 
z
" clip-path="url(#pe5ea6bec3b)" style="stroke: #000000; stroke-linecap: round"/>
   </g>
   <g id="patch_13">
    <path d="M 464.9477 396.019503 
Q 415.985674 345.692153 360.883206 304.001796 
" clip-path="url(#pe5ea6bec3b)" style="fill: none; stroke: #000000; stroke-linecap: round"/>
    <path d="M 362.866354 308.010178 
L 360.883206 304.001796 
L 365.2798 304.820307 
z
" clip-path="url(#pe5ea6bec3b)" style="stroke: #000000; stroke-linecap: round"/>
   </g>
   <g id="patch_14">
    <path d="M 482.169235 389.946328 
Q 484.634017 351.142653 482.240212 313.454762 
" clip-path="url(#pe5ea6bec3b)" style="fill: none; stroke: #000000; stroke-linecap: round"/>
    <path d="M 480.49779 317.573496 
L 482.240212 313.454762 
L 484.489745 317.31994 
z
" clip-path="url(#pe5ea6bec3b)" style="stroke: #000000; stroke-linecap: round"/>
   </g>
   <g id="patch_15">
    <path d="M 498.339645 398.955717 
Q 554.333651 356.590715 602.515995 307.064666 
" clip-path="url(#pe5ea6bec3b)" style="fill: none; stroke: #000000; stroke-linecap: round"/>
    <path d="M 598.293202 308.537086 
L 602.515995 307.064666 
L 601.160255 311.326352 
z
" clip-path="url(#pe5ea6bec3b)" style="stroke: #000000; stroke-linecap: round"/>
   </g>
   <g id="patch_16">
    <path d="M 597.938639 403.921747 
Q 416.686844 332.415257 226.698273 294.530038 
" clip-path="url(#pe5ea6bec3b)" style="fill: none; stroke: #000000; stroke-linecap: round"/>
    <path d="M 230.229927 297.273653 
L 226.698273 294.530038 
L 231.012158 293.350884 
z
" clip-path="url(#pe5ea6bec3b)" style="stroke: #000000; stroke-linecap: round"/>
   </g>
   <g id="patch_17">
    <path d="M 620.516343 389.946328 
Q 622.981125 351.142653 620.58732 313.454762 
" clip-path="url(#pe5ea6bec3b)" style="fill: none; stroke: #000000; stroke-linecap: round"/>
    <path d="M 618.844897 317.573496 
L 620.58732 313.454762 
L 622.836853 317.31994 
z
" clip-path="url(#pe5ea6bec3b)" style="stroke: #000000; stroke-linecap: round"/>
   </g>
   <g id="patch_18">
    <path d="M 67.127913 267.76451 
Q 69.592695 228.960834 67.19889 191.272944 
" clip-path="url(#pe5ea6bec3b)" style="fill: none; stroke: #000000; stroke-linecap: round"/>
    <path d="M 65.456467 195.391678 
L 67.19889 191.272944 
L 69.448423 195.138122 
z
" clip-path="url(#pe5ea6bec3b)" style="stroke: #000000; stroke-linecap: round"/>
   </g>
   <g id="patch_19">
    <path d="M 181.3733 288.181743 
Q 134.481216 285.002847 88.704607 288.105875 
" clip-path="url(#pe5ea6bec3b)" style="fill: none; stroke: #000000; stroke-linecap: round"/>
    <path d="M 92.830711 289.830771 
L 88.704607 288.105875 
L 92.560186 285.83993 
z
" clip-path="url(#pe5ea6bec3b)" style="stroke: #000000; stroke-linecap: round"/>
   </g>
   <g id="patch_20">
    <path d="M 188.253485 273.837685 
Q 139.291459 223.510335 84.188991 181.819978 
" clip-path="url(#pe5ea6bec3b)" style="fill: none; stroke: #000000; stroke-linecap: round"/>
    <path d="M 86.172139 185.82836 
L 84.188991 181.819978 
L 88.585586 182.638489 
z
" clip-path="url(#pe5ea6bec3b)" style="stroke: #000000; stroke-linecap: round"/>
   </g>
   <g id="patch_21">
    <path d="M 322.462079 279.168293 
Q 208.925905 217.010922 87.561827 175.338465 
" clip-path="url(#pe5ea6bec3b)" style="fill: none; stroke: #000000; stroke-linecap: round"/>
    <path d="M 90.695507 178.529084 
L 87.561827 175.338465 
L 91.994531 174.745893 
z
" clip-path="url(#pe5ea6bec3b)" style="stroke: #000000; stroke-linecap: round"/>
   </g>
   <g id="patch_22">
    <path d="M 356.94262 273.415733 
Q 392.705762 232.424169 421.719443 187.734948 
" clip-path="url(#pe5ea6bec3b)" style="fill: none; stroke: #000000; stroke-linecap: round"/>
    <path d="M 417.863825 190.000828 
L 421.719443 187.734948 
L 421.218776 192.17897 
z
" clip-path="url(#pe5ea6bec3b)" style="stroke: #000000; stroke-linecap: round"/>
   </g>
   <g id="patch_23">
    <path d="M 598.218658 281.05876 
Q 439.680207 212.505997 272.651205 173.132631 
" clip-path="url(#pe5ea6bec3b)" style="fill: none; stroke: #000000; stroke-linecap: round"/>
    <path d="M 276.085619 175.997034 
L 272.651205 173.132631 
L 277.003375 172.103742 
z
" clip-path="url(#pe5ea6bec3b)" style="stroke: #000000; stroke-linecap: round"/>
   </g>
   <g id="patch_24">
    <path d="M 498.77001 43.612851 
Q 358.273405 31.485329 218.890692 43.517168 
" clip-path="url(#pe5ea6bec3b)" style="fill: none; stroke: #000000; stroke-linecap: round"/>
    <path d="M 223.047877 45.165748 
L 218.890692 43.517168 
L 222.703867 41.180568 
z
" clip-path="url(#pe5ea6bec3b)" style="stroke: #000000; stroke-linecap: round"/>
   </g>
   <g id="patch_25">
    <path d="M 608.493818 46.387678 
Q 613.594016 46.197293 617.581729 45.798521 
" clip-path="url(#pe5ea6bec3b)" style="fill: none; stroke: #000000; stroke-linecap: round"/>
    <path d="M 613.402573 44.206462 
L 617.581729 45.798521 
L 613.800588 48.186611 
z
" clip-path="url(#pe5ea6bec3b)" style="stroke: #000000; stroke-linecap: round"/>
   </g>
   <g id="patch_26">
    <path d="M 596.424308 43.677932 
Q 504.761645 36.30335 414.213414 43.588217 
" clip-path="url(#pe5ea6bec3b)" style="fill: none; stroke: #000000; stroke-linecap: round"/>
    <path d="M 418.360919 45.261001 
L 414.213414 43.588217 
L 418.040144 41.273883 
z
" clip-path="url(#pe5ea6bec3b)" style="stroke: #000000; stroke-linecap: round"/>
   </g>
   <g id="patch_27">
    <path d="M 596.342351 44.986867 
Q 591.242153 45.177253 587.25444 45.576024 
" clip-path="url(#pe5ea6bec3b)" style="fill: none; stroke: #000000; stroke-linecap: round"/>
    <path d="M 591.433596 47.168084 
L 587.25444 45.576024 
L 591.035581 43.187935 
z
" clip-path="url(#pe5ea6bec3b)" style="stroke: #000000; stroke-linecap: round"/>
   </g>
   <g id="PathCollection_1">
    <defs>
     <path id="m841e346f3e" d="M 0 22.36068 
C 5.930122 22.36068 11.618159 20.004617 15.811388 15.811388 
C 20.004617 11.618159 22.36068 5.930122 22.36068 0 
C 22.36068 -5.930122 20.004617 -11.618159 15.811388 -15.811388 
C 11.618159 -20.004617 5.930122 -22.36068 0 -22.36068 
C -5.930122 -22.36068 -11.618159 -20.004617 -15.811388 -15.811388 
C -20.004617 -11.618159 -22.36068 -5.930122 -22.36068 0 
C -22.36068 5.930122 -20.004617 11.618159 -15.811388 15.811388 
C -11.618159 20.004617 -5.930122 22.36068 0 22.36068 
z
" style="stroke: #000000"/>
    </defs>
    <g clip-path="url(#pe5ea6bec3b)">
     <use xlink:href="#m841e346f3e" x="65.305785" y="412.232727" style="fill: #ffffff; stroke: #000000"/>
     <use xlink:href="#m841e346f3e" x="203.652893" y="412.232727" style="fill: #ffffff; stroke: #000000"/>
     <use xlink:href="#m841e346f3e" x="342" y="412.232727" style="fill: #ffffff; stroke: #000000"/>
     <use xlink:href="#m841e346f3e" x="480.347107" y="412.232727" style="fill: #ffffff; stroke: #000000"/>
     <use xlink:href="#m841e346f3e" x="618.694215" y="412.232727" style="fill: #ffffff; stroke: #000000"/>
     <use xlink:href="#m841e346f3e" x="65.305785" y="290.050909" style="fill: #ffffff; stroke: #000000"/>
     <use xlink:href="#m841e346f3e" x="203.652893" y="290.050909" style="fill: #ffffff; stroke: #000000"/>
     <use xlink:href="#m841e346f3e" x="342" y="290.050909" style="fill: #ffffff; stroke: #000000"/>
     <use xlink:href="#m841e346f3e" x="480.347107" y="290.050909" style="fill: #ffffff; stroke: #000000"/>
     <use xlink:href="#m841e346f3e" x="618.694215" y="290.050909" style="fill: #ffffff; stroke: #000000"/>
     <use xlink:href="#m841e346f3e" x="65.305785" y="167.869091" style="fill: #ffffff; stroke: #000000"/>
     <use xlink:href="#m841e346f3e" x="249.768595" y="167.869091" style="fill: #ffffff; stroke: #000000"/>
     <use xlink:href="#m841e346f3e" x="434.231405" y="167.869091" style="fill: #ffffff; stroke: #000000"/>
     <use xlink:href="#m841e346f3e" x="618.694215" y="167.869091" style="fill: #ffffff; stroke: #000000"/>
     <use xlink:href="#m841e346f3e" x="65.305785" y="45.687273" style="fill: #ffffff; stroke: #000000"/>
     <use xlink:href="#m841e346f3e" x="97.858046" y="45.687273" style="fill: #ffffff; stroke: #000000"/>
     <use xlink:href="#m841e346f3e" x="130.410306" y="45.687273" style="fill: #ffffff; stroke: #000000"/>
     <use xlink:href="#m841e346f3e" x="162.962567" y="45.687273" style="fill: #ffffff; stroke: #000000"/>
     <use xlink:href="#m841e346f3e" x="195.514827" y="45.687273" style="fill: #ffffff; stroke: #000000"/>
     <use xlink:href="#m841e346f3e" x="228.067088" y="45.687273" style="fill: #ffffff; stroke: #000000"/>
     <use xlink:href="#m841e346f3e" x="260.619349" y="45.687273" style="fill: #ffffff; stroke: #000000"/>
     <use xlink:href="#m841e346f3e" x="293.171609" y="45.687273" style="fill: #ffffff; stroke: #000000"/>
     <use xlink:href="#m841e346f3e" x="325.72387" y="45.687273" style="fill: #ffffff; stroke: #000000"/>
     <use xlink:href="#m841e346f3e" x="358.27613" y="45.687273" style="fill: #ffffff; stroke: #000000"/>
     <use xlink:href="#m841e346f3e" x="390.828391" y="45.687273" style="fill: #ffffff; stroke: #000000"/>
     <use xlink:href="#m841e346f3e" x="423.380651" y="45.687273" style="fill: #ffffff; stroke: #000000"/>
     <use xlink:href="#m841e346f3e" x="455.932912" y="45.687273" style="fill: #ffffff; stroke: #000000"/>
     <use xlink:href="#m841e346f3e" x="488.485173" y="45.687273" style="fill: #ffffff; stroke: #000000"/>
     <use xlink:href="#m841e346f3e" x="521.037433" y="45.687273" style="fill: #ffffff; stroke: #000000"/>
     <use xlink:href="#m841e346f3e" x="553.589694" y="45.687273" style="fill: #ffffff; stroke: #000000"/>
     <use xlink:href="#m841e346f3e" x="586.141954" y="45.687273" style="fill: #ffffff; stroke: #000000"/>
     <use xlink:href="#m841e346f3e" x="618.694215" y="45.687273" style="fill: #ffffff; stroke: #000000"/>
    </g>
   </g>
   <g id="PathCollection_2">
    <defs>
     <path id="m333a404624" d="M 0 22.36068 
C 5.930122 22.36068 11.618159 20.004617 15.811388 15.811388 
C 20.004617 11.618159 22.36068 5.930122 22.36068 0 
C 22.36068 -5.930122 20.004617 -11.618159 15.811388 -15.811388 
C 11.618159 -20.004617 5.930122 -22.36068 0 -22.36068 
C -5.930122 -22.36068 -11.618159 -20.004617 -15.811388 -15.811388 
C -20.004617 -11.618159 -22.36068 -5.930122 -22.36068 0 
C -22.36068 5.930122 -20.004617 11.618159 -15.811388 15.811388 
C -11.618159 20.004617 -5.930122 22.36068 0 22.36068 
z
" style="stroke: #bfbf00; stroke-opacity: 0.2; stroke-width: 4"/>
    </defs>
    <g clip-path="url(#pe5ea6bec3b)">
     <use xlink:href="#m333a404624" x="342" y="412.232727" style="fill: #bfbf00; fill-opacity: 0.2; stroke: #bfbf00; stroke-opacity: 0.2; stroke-width: 4"/>
     <use xlink:href="#m333a404624" x="342" y="290.050909" style="fill: #bfbf00; fill-opacity: 0.2; stroke: #bfbf00; stroke-opacity: 0.2; stroke-width: 4"/>
     <use xlink:href="#m333a404624" x="480.347107" y="290.050909" style="fill: #bfbf00; fill-opacity: 0.2; stroke: #bfbf00; stroke-opacity: 0.2; stroke-width: 4"/>
     <use xlink:href="#m333a404624" x="65.305785" y="167.869091" style="fill: #bfbf00; fill-opacity: 0.2; stroke: #bfbf00; stroke-opacity: 0.2; stroke-width: 4"/>
     <use xlink:href="#m333a404624" x="249.768595" y="167.869091" style="fill: #bfbf00; fill-opacity: 0.2; stroke: #bfbf00; stroke-opacity: 0.2; stroke-width: 4"/>
     <use xlink:href="#m333a404624" x="434.231405" y="167.869091" style="fill: #bfbf00; fill-opacity: 0.2; stroke: #bfbf00; stroke-opacity: 0.2; stroke-width: 4"/>
     <use xlink:href="#m333a404624" x="618.694215" y="167.869091" style="fill: #bfbf00; fill-opacity: 0.2; stroke: #bfbf00; stroke-opacity: 0.2; stroke-width: 4"/>
     <use xlink:href="#m333a404624" x="65.305785" y="45.687273" style="fill: #bfbf00; fill-opacity: 0.2; stroke: #bfbf00; stroke-opacity: 0.2; stroke-width: 4"/>
     <use xlink:href="#m333a404624" x="97.858046" y="45.687273" style="fill: #bfbf00; fill-opacity: 0.2; stroke: #bfbf00; stroke-opacity: 0.2; stroke-width: 4"/>
     <use xlink:href="#m333a404624" x="130.410306" y="45.687273" style="fill: #bfbf00; fill-opacity: 0.2; stroke: #bfbf00; stroke-opacity: 0.2; stroke-width: 4"/>
     <use xlink:href="#m333a404624" x="162.962567" y="45.687273" style="fill: #bfbf00; fill-opacity: 0.2; stroke: #bfbf00; stroke-opacity: 0.2; stroke-width: 4"/>
     <use xlink:href="#m333a404624" x="195.514827" y="45.687273" style="fill: #bfbf00; fill-opacity: 0.2; stroke: #bfbf00; stroke-opacity: 0.2; stroke-width: 4"/>
     <use xlink:href="#m333a404624" x="228.067088" y="45.687273" style="fill: #bfbf00; fill-opacity: 0.2; stroke: #bfbf00; stroke-opacity: 0.2; stroke-width: 4"/>
     <use xlink:href="#m333a404624" x="260.619349" y="45.687273" style="fill: #bfbf00; fill-opacity: 0.2; stroke: #bfbf00; stroke-opacity: 0.2; stroke-width: 4"/>
     <use xlink:href="#m333a404624" x="293.171609" y="45.687273" style="fill: #bfbf00; fill-opacity: 0.2; stroke: #bfbf00; stroke-opacity: 0.2; stroke-width: 4"/>
     <use xlink:href="#m333a404624" x="325.72387" y="45.687273" style="fill: #bfbf00; fill-opacity: 0.2; stroke: #bfbf00; stroke-opacity: 0.2; stroke-width: 4"/>
     <use xlink:href="#m333a404624" x="358.27613" y="45.687273" style="fill: #bfbf00; fill-opacity: 0.2; stroke: #bfbf00; stroke-opacity: 0.2; stroke-width: 4"/>
     <use xlink:href="#m333a404624" x="390.828391" y="45.687273" style="fill: #bfbf00; fill-opacity: 0.2; stroke: #bfbf00; stroke-opacity: 0.2; stroke-width: 4"/>
     <use xlink:href="#m333a404624" x="423.380651" y="45.687273" style="fill: #bfbf00; fill-opacity: 0.2; stroke: #bfbf00; stroke-opacity: 0.2; stroke-width: 4"/>
     <use xlink:href="#m333a404624" x="455.932912" y="45.687273" style="fill: #bfbf00; fill-opacity: 0.2; stroke: #bfbf00; stroke-opacity: 0.2; stroke-width: 4"/>
     <use xlink:href="#m333a404624" x="488.485173" y="45.687273" style="fill: #bfbf00; fill-opacity: 0.2; stroke: #bfbf00; stroke-opacity: 0.2; stroke-width: 4"/>
     <use xlink:href="#m333a404624" x="521.037433" y="45.687273" style="fill: #bfbf00; fill-opacity: 0.2; stroke: #bfbf00; stroke-opacity: 0.2; stroke-width: 4"/>
     <use xlink:href="#m333a404624" x="553.589694" y="45.687273" style="fill: #bfbf00; fill-opacity: 0.2; stroke: #bfbf00; stroke-opacity: 0.2; stroke-width: 4"/>
     <use xlink:href="#m333a404624" x="586.141954" y="45.687273" style="fill: #bfbf00; fill-opacity: 0.2; stroke: #bfbf00; stroke-opacity: 0.2; stroke-width: 4"/>
     <use xlink:href="#m333a404624" x="618.694215" y="45.687273" style="fill: #bfbf00; fill-opacity: 0.2; stroke: #bfbf00; stroke-opacity: 0.2; stroke-width: 4"/>
    </g>
   </g>
   <g id="PathCollection_3">
    <defs>
     <path id="med942d272d" d="M 0 22.36068 
C 5.930122 22.36068 11.618159 20.004617 15.811388 15.811388 
C 20.004617 11.618159 22.36068 5.930122 22.36068 0 
C 22.36068 -5.930122 20.004617 -11.618159 15.811388 -15.811388 
C 11.618159 -20.004617 5.930122 -22.36068 0 -22.36068 
C -5.930122 -22.36068 -11.618159 -20.004617 -15.811388 -15.811388 
C -20.004617 -11.618159 -22.36068 -5.930122 -22.36068 0 
C -22.36068 5.930122 -20.004617 11.618159 -15.811388 15.811388 
C -11.618159 20.004617 -5.930122 22.36068 0 22.36068 
z
" style="stroke: #ff0000"/>
    </defs>
    <g clip-path="url(#pe5ea6bec3b)">
     <use xlink:href="#med942d272d" x="618.694215" y="167.869091" style="fill: #ff0000; stroke: #ff0000"/>
     <use xlink:href="#med942d272d" x="65.305785" y="45.687273" style="fill: #ff0000; stroke: #ff0000"/>
     <use xlink:href="#med942d272d" x="97.858046" y="45.687273" style="fill: #ff0000; stroke: #ff0000"/>
     <use xlink:href="#med942d272d" x="130.410306" y="45.687273" style="fill: #ff0000; stroke: #ff0000"/>
     <use xlink:href="#med942d272d" x="162.962567" y="45.687273" style="fill: #ff0000; stroke: #ff0000"/>
     <use xlink:href="#med942d272d" x="228.067088" y="45.687273" style="fill: #ff0000; stroke: #ff0000"/>
     <use xlink:href="#med942d272d" x="260.619349" y="45.687273" style="fill: #ff0000; stroke: #ff0000"/>
     <use xlink:href="#med942d272d" x="293.171609" y="45.687273" style="fill: #ff0000; stroke: #ff0000"/>
     <use xlink:href="#med942d272d" x="325.72387" y="45.687273" style="fill: #ff0000; stroke: #ff0000"/>
     <use xlink:href="#med942d272d" x="358.27613" y="45.687273" style="fill: #ff0000; stroke: #ff0000"/>
     <use xlink:href="#med942d272d" x="423.380651" y="45.687273" style="fill: #ff0000; stroke: #ff0000"/>
     <use xlink:href="#med942d272d" x="455.932912" y="45.687273" style="fill: #ff0000; stroke: #ff0000"/>
     <use xlink:href="#med942d272d" x="488.485173" y="45.687273" style="fill: #ff0000; stroke: #ff0000"/>
     <use xlink:href="#med942d272d" x="553.589694" y="45.687273" style="fill: #ff0000; stroke: #ff0000"/>
    </g>
   </g>
   <g id="text_1">
    <g clip-path="url(#pe5ea6bec3b)">
     <!-- 1024 -->
     <g transform="translate(51.39016 409.393196) scale(0.1 -0.1)">
      <defs>
       <path id="DejaVuSans-Bold-31" d="M 750 831 
L 1813 831 
L 1813 3847 
L 722 3622 
L 722 4441 
L 1806 4666 
L 2950 4666 
L 2950 831 
L 4013 831 
L 4013 0 
L 750 0 
L 750 831 
z
" transform="scale(0.015625)"/>
       <path id="DejaVuSans-Bold-30" d="M 2944 2338 
Q 2944 3213 2780 3570 
Q 2616 3928 2228 3928 
Q 1841 3928 1675 3570 
Q 1509 3213 1509 2338 
Q 1509 1453 1675 1090 
Q 1841 728 2228 728 
Q 2613 728 2778 1090 
Q 2944 1453 2944 2338 
z
M 4147 2328 
Q 4147 1169 3647 539 
Q 3147 -91 2228 -91 
Q 1306 -91 806 539 
Q 306 1169 306 2328 
Q 306 3491 806 4120 
Q 1306 4750 2228 4750 
Q 3147 4750 3647 4120 
Q 4147 3491 4147 2328 
z
" transform="scale(0.015625)"/>
       <path id="DejaVuSans-Bold-32" d="M 1844 884 
L 3897 884 
L 3897 0 
L 506 0 
L 506 884 
L 2209 2388 
Q 2438 2594 2547 2791 
Q 2656 2988 2656 3200 
Q 2656 3528 2436 3728 
Q 2216 3928 1850 3928 
Q 1569 3928 1234 3808 
Q 900 3688 519 3450 
L 519 4475 
Q 925 4609 1322 4679 
Q 1719 4750 2100 4750 
Q 2938 4750 3402 4381 
Q 3866 4013 3866 3353 
Q 3866 2972 3669 2642 
Q 3472 2313 2841 1759 
L 1844 884 
z
" transform="scale(0.015625)"/>
       <path id="DejaVuSans-Bold-34" d="M 2356 3675 
L 1038 1722 
L 2356 1722 
L 2356 3675 
z
M 2156 4666 
L 3494 4666 
L 3494 1722 
L 4159 1722 
L 4159 850 
L 3494 850 
L 3494 0 
L 2356 0 
L 2356 850 
L 288 850 
L 288 1881 
L 2156 4666 
z
" transform="scale(0.015625)"/>
      </defs>
      <use xlink:href="#DejaVuSans-Bold-31"/>
      <use xlink:href="#DejaVuSans-Bold-30" x="69.580078"/>
      <use xlink:href="#DejaVuSans-Bold-32" x="139.160156"/>
      <use xlink:href="#DejaVuSans-Bold-34" x="208.740234"/>
     </g>
    </g>
    <g clip-path="url(#pe5ea6bec3b)">
     <!-- Stats -->
     <g transform="translate(50.575316 420.591009) scale(0.1 -0.1)">
      <defs>
       <path id="DejaVuSans-Bold-53" d="M 3834 4519 
L 3834 3531 
Q 3450 3703 3084 3790 
Q 2719 3878 2394 3878 
Q 1963 3878 1756 3759 
Q 1550 3641 1550 3391 
Q 1550 3203 1689 3098 
Q 1828 2994 2194 2919 
L 2706 2816 
Q 3484 2659 3812 2340 
Q 4141 2022 4141 1434 
Q 4141 663 3683 286 
Q 3225 -91 2284 -91 
Q 1841 -91 1394 -6 
Q 947 78 500 244 
L 500 1259 
Q 947 1022 1364 901 
Q 1781 781 2169 781 
Q 2563 781 2772 912 
Q 2981 1044 2981 1288 
Q 2981 1506 2839 1625 
Q 2697 1744 2272 1838 
L 1806 1941 
Q 1106 2091 782 2419 
Q 459 2747 459 3303 
Q 459 4000 909 4375 
Q 1359 4750 2203 4750 
Q 2588 4750 2994 4692 
Q 3400 4634 3834 4519 
z
" transform="scale(0.015625)"/>
       <path id="DejaVuSans-Bold-74" d="M 1759 4494 
L 1759 3500 
L 2913 3500 
L 2913 2700 
L 1759 2700 
L 1759 1216 
Q 1759 972 1856 886 
Q 1953 800 2241 800 
L 2816 800 
L 2816 0 
L 1856 0 
Q 1194 0 917 276 
Q 641 553 641 1216 
L 641 2700 
L 84 2700 
L 84 3500 
L 641 3500 
L 641 4494 
L 1759 4494 
z
" transform="scale(0.015625)"/>
       <path id="DejaVuSans-Bold-61" d="M 2106 1575 
Q 1756 1575 1579 1456 
Q 1403 1338 1403 1106 
Q 1403 894 1545 773 
Q 1688 653 1941 653 
Q 2256 653 2472 879 
Q 2688 1106 2688 1447 
L 2688 1575 
L 2106 1575 
z
M 3816 1997 
L 3816 0 
L 2688 0 
L 2688 519 
Q 2463 200 2181 54 
Q 1900 -91 1497 -91 
Q 953 -91 614 226 
Q 275 544 275 1050 
Q 275 1666 698 1953 
Q 1122 2241 2028 2241 
L 2688 2241 
L 2688 2328 
Q 2688 2594 2478 2717 
Q 2269 2841 1825 2841 
Q 1466 2841 1156 2769 
Q 847 2697 581 2553 
L 581 3406 
Q 941 3494 1303 3539 
Q 1666 3584 2028 3584 
Q 2975 3584 3395 3211 
Q 3816 2838 3816 1997 
z
" transform="scale(0.015625)"/>
       <path id="DejaVuSans-Bold-73" d="M 3272 3391 
L 3272 2541 
Q 2913 2691 2578 2766 
Q 2244 2841 1947 2841 
Q 1628 2841 1473 2761 
Q 1319 2681 1319 2516 
Q 1319 2381 1436 2309 
Q 1553 2238 1856 2203 
L 2053 2175 
Q 2913 2066 3209 1816 
Q 3506 1566 3506 1031 
Q 3506 472 3093 190 
Q 2681 -91 1863 -91 
Q 1516 -91 1145 -36 
Q 775 19 384 128 
L 384 978 
Q 719 816 1070 734 
Q 1422 653 1784 653 
Q 2113 653 2278 743 
Q 2444 834 2444 1013 
Q 2444 1163 2330 1236 
Q 2216 1309 1875 1350 
L 1678 1375 
Q 931 1469 631 1722 
Q 331 1975 331 2491 
Q 331 3047 712 3315 
Q 1094 3584 1881 3584 
Q 2191 3584 2531 3537 
Q 2872 3491 3272 3391 
z
" transform="scale(0.015625)"/>
      </defs>
      <use xlink:href="#DejaVuSans-Bold-53"/>
      <use xlink:href="#DejaVuSans-Bold-74" x="72.021484"/>
      <use xlink:href="#DejaVuSans-Bold-61" x="119.824219"/>
      <use xlink:href="#DejaVuSans-Bold-74" x="187.304688"/>
      <use xlink:href="#DejaVuSans-Bold-73" x="235.107422"/>
     </g>
    </g>
   </g>
   <g id="text_2">
    <g clip-path="url(#pe5ea6bec3b)">
     <!-- 1048 -->
     <g transform="translate(189.737268 409.393196) scale(0.1 -0.1)">
      <defs>
       <path id="DejaVuSans-Bold-38" d="M 2228 2088 
Q 1891 2088 1709 1903 
Q 1528 1719 1528 1375 
Q 1528 1031 1709 848 
Q 1891 666 2228 666 
Q 2563 666 2741 848 
Q 2919 1031 2919 1375 
Q 2919 1722 2741 1905 
Q 2563 2088 2228 2088 
z
M 1350 2484 
Q 925 2613 709 2878 
Q 494 3144 494 3541 
Q 494 4131 934 4440 
Q 1375 4750 2228 4750 
Q 3075 4750 3515 4442 
Q 3956 4134 3956 3541 
Q 3956 3144 3739 2878 
Q 3522 2613 3097 2484 
Q 3572 2353 3814 2058 
Q 4056 1763 4056 1313 
Q 4056 619 3595 264 
Q 3134 -91 2228 -91 
Q 1319 -91 855 264 
Q 391 619 391 1313 
Q 391 1763 633 2058 
Q 875 2353 1350 2484 
z
M 1631 3419 
Q 1631 3141 1786 2991 
Q 1941 2841 2228 2841 
Q 2509 2841 2662 2991 
Q 2816 3141 2816 3419 
Q 2816 3697 2662 3845 
Q 2509 3994 2228 3994 
Q 1941 3994 1786 3844 
Q 1631 3694 1631 3419 
z
" transform="scale(0.015625)"/>
      </defs>
      <use xlink:href="#DejaVuSans-Bold-31"/>
      <use xlink:href="#DejaVuSans-Bold-30" x="69.580078"/>
      <use xlink:href="#DejaVuSans-Bold-34" x="139.160156"/>
      <use xlink:href="#DejaVuSans-Bold-38" x="208.740234"/>
     </g>
    </g>
    <g clip-path="url(#pe5ea6bec3b)">
     <!-- LA1 -->
     <g transform="translate(193.118518 420.591009) scale(0.1 -0.1)">
      <defs>
       <path id="DejaVuSans-Bold-4c" d="M 588 4666 
L 1791 4666 
L 1791 909 
L 3903 909 
L 3903 0 
L 588 0 
L 588 4666 
z
" transform="scale(0.015625)"/>
       <path id="DejaVuSans-Bold-41" d="M 3419 850 
L 1538 850 
L 1241 0 
L 31 0 
L 1759 4666 
L 3194 4666 
L 4922 0 
L 3713 0 
L 3419 850 
z
M 1838 1716 
L 3116 1716 
L 2478 3572 
L 1838 1716 
z
" transform="scale(0.015625)"/>
      </defs>
      <use xlink:href="#DejaVuSans-Bold-4c"/>
      <use xlink:href="#DejaVuSans-Bold-41" x="63.720703"/>
      <use xlink:href="#DejaVuSans-Bold-31" x="141.113281"/>
     </g>
    </g>
   </g>
   <g id="text_3">
    <g clip-path="url(#pe5ea6bec3b)">
     <!-- 1058 -->
     <g transform="translate(328.084375 409.393196) scale(0.1 -0.1)">
      <defs>
       <path id="DejaVuSans-Bold-35" d="M 678 4666 
L 3669 4666 
L 3669 3781 
L 1638 3781 
L 1638 3059 
Q 1775 3097 1914 3117 
Q 2053 3138 2203 3138 
Q 3056 3138 3531 2711 
Q 4006 2284 4006 1522 
Q 4006 766 3489 337 
Q 2972 -91 2053 -91 
Q 1656 -91 1267 -14 
Q 878 63 494 219 
L 494 1166 
Q 875 947 1217 837 
Q 1559 728 1863 728 
Q 2300 728 2551 942 
Q 2803 1156 2803 1522 
Q 2803 1891 2551 2103 
Q 2300 2316 1863 2316 
Q 1603 2316 1309 2248 
Q 1016 2181 678 2041 
L 678 4666 
z
" transform="scale(0.015625)"/>
      </defs>
      <use xlink:href="#DejaVuSans-Bold-31"/>
      <use xlink:href="#DejaVuSans-Bold-30" x="69.580078"/>
      <use xlink:href="#DejaVuSans-Bold-35" x="139.160156"/>
      <use xlink:href="#DejaVuSans-Bold-38" x="208.740234"/>
     </g>
    </g>
    <g clip-path="url(#pe5ea6bec3b)">
     <!-- OR1 -->
     <g transform="translate(330.420313 420.591009) scale(0.1 -0.1)">
      <defs>
       <path id="DejaVuSans-Bold-4f" d="M 2719 3878 
Q 2169 3878 1866 3472 
Q 1563 3066 1563 2328 
Q 1563 1594 1866 1187 
Q 2169 781 2719 781 
Q 3272 781 3575 1187 
Q 3878 1594 3878 2328 
Q 3878 3066 3575 3472 
Q 3272 3878 2719 3878 
z
M 2719 4750 
Q 3844 4750 4481 4106 
Q 5119 3463 5119 2328 
Q 5119 1197 4481 553 
Q 3844 -91 2719 -91 
Q 1597 -91 958 553 
Q 319 1197 319 2328 
Q 319 3463 958 4106 
Q 1597 4750 2719 4750 
z
" transform="scale(0.015625)"/>
       <path id="DejaVuSans-Bold-52" d="M 2297 2597 
Q 2675 2597 2839 2737 
Q 3003 2878 3003 3200 
Q 3003 3519 2839 3656 
Q 2675 3794 2297 3794 
L 1791 3794 
L 1791 2597 
L 2297 2597 
z
M 1791 1766 
L 1791 0 
L 588 0 
L 588 4666 
L 2425 4666 
Q 3347 4666 3776 4356 
Q 4206 4047 4206 3378 
Q 4206 2916 3982 2619 
Q 3759 2322 3309 2181 
Q 3556 2125 3751 1926 
Q 3947 1728 4147 1325 
L 4800 0 
L 3519 0 
L 2950 1159 
Q 2778 1509 2601 1637 
Q 2425 1766 2131 1766 
L 1791 1766 
z
" transform="scale(0.015625)"/>
      </defs>
      <use xlink:href="#DejaVuSans-Bold-4f"/>
      <use xlink:href="#DejaVuSans-Bold-52" x="85.009766"/>
      <use xlink:href="#DejaVuSans-Bold-31" x="162.011719"/>
     </g>
    </g>
   </g>
   <g id="text_4">
    <g clip-path="url(#pe5ea6bec3b)">
     <!-- 1059 -->
     <g transform="translate(466.431482 409.393196) scale(0.1 -0.1)">
      <defs>
       <path id="DejaVuSans-Bold-39" d="M 641 103 
L 641 966 
Q 928 831 1190 764 
Q 1453 697 1709 697 
Q 2247 697 2547 995 
Q 2847 1294 2900 1881 
Q 2688 1725 2447 1647 
Q 2206 1569 1925 1569 
Q 1209 1569 770 1986 
Q 331 2403 331 3084 
Q 331 3838 820 4291 
Q 1309 4744 2131 4744 
Q 3044 4744 3544 4128 
Q 4044 3513 4044 2388 
Q 4044 1231 3459 570 
Q 2875 -91 1856 -91 
Q 1528 -91 1228 -42 
Q 928 6 641 103 
z
M 2125 2350 
Q 2441 2350 2600 2554 
Q 2759 2759 2759 3169 
Q 2759 3575 2600 3781 
Q 2441 3988 2125 3988 
Q 1809 3988 1650 3781 
Q 1491 3575 1491 3169 
Q 1491 2759 1650 2554 
Q 1809 2350 2125 2350 
z
" transform="scale(0.015625)"/>
      </defs>
      <use xlink:href="#DejaVuSans-Bold-31"/>
      <use xlink:href="#DejaVuSans-Bold-30" x="69.580078"/>
      <use xlink:href="#DejaVuSans-Bold-35" x="139.160156"/>
      <use xlink:href="#DejaVuSans-Bold-39" x="208.740234"/>
     </g>
    </g>
    <g clip-path="url(#pe5ea6bec3b)">
     <!-- Calc -->
     <g transform="translate(468.625232 420.591009) scale(0.1 -0.1)">
      <defs>
       <path id="DejaVuSans-Bold-43" d="M 4288 256 
Q 3956 84 3597 -3 
Q 3238 -91 2847 -91 
Q 1681 -91 1000 561 
Q 319 1213 319 2328 
Q 319 3447 1000 4098 
Q 1681 4750 2847 4750 
Q 3238 4750 3597 4662 
Q 3956 4575 4288 4403 
L 4288 3438 
Q 3953 3666 3628 3772 
Q 3303 3878 2944 3878 
Q 2300 3878 1931 3465 
Q 1563 3053 1563 2328 
Q 1563 1606 1931 1193 
Q 2300 781 2944 781 
Q 3303 781 3628 887 
Q 3953 994 4288 1222 
L 4288 256 
z
" transform="scale(0.015625)"/>
       <path id="DejaVuSans-Bold-6c" d="M 538 4863 
L 1656 4863 
L 1656 0 
L 538 0 
L 538 4863 
z
" transform="scale(0.015625)"/>
       <path id="DejaVuSans-Bold-63" d="M 3366 3391 
L 3366 2478 
Q 3138 2634 2908 2709 
Q 2678 2784 2431 2784 
Q 1963 2784 1702 2511 
Q 1441 2238 1441 1747 
Q 1441 1256 1702 982 
Q 1963 709 2431 709 
Q 2694 709 2930 787 
Q 3166 866 3366 1019 
L 3366 103 
Q 3103 6 2833 -42 
Q 2563 -91 2291 -91 
Q 1344 -91 809 395 
Q 275 881 275 1747 
Q 275 2613 809 3098 
Q 1344 3584 2291 3584 
Q 2566 3584 2833 3536 
Q 3100 3488 3366 3391 
z
" transform="scale(0.015625)"/>
      </defs>
      <use xlink:href="#DejaVuSans-Bold-43"/>
      <use xlink:href="#DejaVuSans-Bold-61" x="73.388672"/>
      <use xlink:href="#DejaVuSans-Bold-6c" x="140.869141"/>
      <use xlink:href="#DejaVuSans-Bold-63" x="175.146484"/>
     </g>
    </g>
   </g>
   <g id="text_5">
    <g clip-path="url(#pe5ea6bec3b)">
     <!-- 1060 -->
     <g transform="translate(604.77859 409.393196) scale(0.1 -0.1)">
      <defs>
       <path id="DejaVuSans-Bold-36" d="M 2316 2303 
Q 2000 2303 1842 2098 
Q 1684 1894 1684 1484 
Q 1684 1075 1842 870 
Q 2000 666 2316 666 
Q 2634 666 2792 870 
Q 2950 1075 2950 1484 
Q 2950 1894 2792 2098 
Q 2634 2303 2316 2303 
z
M 3803 4544 
L 3803 3681 
Q 3506 3822 3243 3889 
Q 2981 3956 2731 3956 
Q 2194 3956 1894 3657 
Q 1594 3359 1544 2772 
Q 1750 2925 1990 3001 
Q 2231 3078 2516 3078 
Q 3231 3078 3670 2659 
Q 4109 2241 4109 1563 
Q 4109 813 3618 361 
Q 3128 -91 2303 -91 
Q 1394 -91 895 523 
Q 397 1138 397 2266 
Q 397 3422 980 4083 
Q 1563 4744 2578 4744 
Q 2900 4744 3203 4694 
Q 3506 4644 3803 4544 
z
" transform="scale(0.015625)"/>
      </defs>
      <use xlink:href="#DejaVuSans-Bold-31"/>
      <use xlink:href="#DejaVuSans-Bold-30" x="69.580078"/>
      <use xlink:href="#DejaVuSans-Bold-36" x="139.160156"/>
      <use xlink:href="#DejaVuSans-Bold-30" x="208.740234"/>
     </g>
    </g>
    <g clip-path="url(#pe5ea6bec3b)">
     <!-- MVC -->
     <g transform="translate(606.179371 420.591009) scale(0.1 -0.1)">
      <defs>
       <path id="DejaVuSans-Bold-4d" d="M 588 4666 
L 2119 4666 
L 3181 2169 
L 4250 4666 
L 5778 4666 
L 5778 0 
L 4641 0 
L 4641 3413 
L 3566 897 
L 2803 897 
L 1728 3413 
L 1728 0 
L 588 0 
L 588 4666 
z
" transform="scale(0.015625)"/>
       <path id="DejaVuSans-Bold-56" d="M 31 4666 
L 1241 4666 
L 2478 1222 
L 3713 4666 
L 4922 4666 
L 3194 0 
L 1759 0 
L 31 4666 
z
" transform="scale(0.015625)"/>
      </defs>
      <use xlink:href="#DejaVuSans-Bold-4d"/>
      <use xlink:href="#DejaVuSans-Bold-56" x="99.511719"/>
      <use xlink:href="#DejaVuSans-Bold-43" x="176.904297"/>
     </g>
    </g>
   </g>
   <g id="text_6">
    <g clip-path="url(#pe5ea6bec3b)">
     <!-- 2010 -->
     <g transform="translate(51.39016 287.211378) scale(0.1 -0.1)">
      <use xlink:href="#DejaVuSans-Bold-32"/>
      <use xlink:href="#DejaVuSans-Bold-30" x="69.580078"/>
      <use xlink:href="#DejaVuSans-Bold-31" x="139.160156"/>
      <use xlink:href="#DejaVuSans-Bold-30" x="208.740234"/>
     </g>
    </g>
    <g clip-path="url(#pe5ea6bec3b)">
     <!-- SM1 -->
     <g transform="translate(53.250316 298.40919) scale(0.1 -0.1)">
      <use xlink:href="#DejaVuSans-Bold-53"/>
      <use xlink:href="#DejaVuSans-Bold-4d" x="72.021484"/>
      <use xlink:href="#DejaVuSans-Bold-31" x="171.533203"/>
     </g>
    </g>
   </g>
   <g id="text_7">
    <g clip-path="url(#pe5ea6bec3b)">
     <!-- 2011 -->
     <g transform="translate(189.737268 287.211378) scale(0.1 -0.1)">
      <use xlink:href="#DejaVuSans-Bold-32"/>
      <use xlink:href="#DejaVuSans-Bold-30" x="69.580078"/>
      <use xlink:href="#DejaVuSans-Bold-31" x="139.160156"/>
      <use xlink:href="#DejaVuSans-Bold-31" x="208.740234"/>
     </g>
    </g>
    <g clip-path="url(#pe5ea6bec3b)">
     <!-- SDT -->
     <g transform="translate(192.490393 298.40919) scale(0.1 -0.1)">
      <defs>
       <path id="DejaVuSans-Bold-44" d="M 1791 3756 
L 1791 909 
L 2222 909 
Q 2959 909 3348 1275 
Q 3738 1641 3738 2338 
Q 3738 3031 3350 3393 
Q 2963 3756 2222 3756 
L 1791 3756 
z
M 588 4666 
L 1856 4666 
Q 2919 4666 3439 4514 
Q 3959 4363 4331 4000 
Q 4659 3684 4818 3271 
Q 4978 2859 4978 2338 
Q 4978 1809 4818 1395 
Q 4659 981 4331 666 
Q 3956 303 3431 151 
Q 2906 0 1856 0 
L 588 0 
L 588 4666 
z
" transform="scale(0.015625)"/>
       <path id="DejaVuSans-Bold-54" d="M 31 4666 
L 4331 4666 
L 4331 3756 
L 2784 3756 
L 2784 0 
L 1581 0 
L 1581 3756 
L 31 3756 
L 31 4666 
z
" transform="scale(0.015625)"/>
      </defs>
      <use xlink:href="#DejaVuSans-Bold-53"/>
      <use xlink:href="#DejaVuSans-Bold-44" x="72.021484"/>
      <use xlink:href="#DejaVuSans-Bold-54" x="155.029297"/>
     </g>
    </g>
   </g>
   <g id="text_8">
    <g clip-path="url(#pe5ea6bec3b)">
     <!-- 2013 -->
     <g transform="translate(328.084375 287.211378) scale(0.1 -0.1)">
      <defs>
       <path id="DejaVuSans-Bold-33" d="M 2981 2516 
Q 3453 2394 3698 2092 
Q 3944 1791 3944 1325 
Q 3944 631 3412 270 
Q 2881 -91 1863 -91 
Q 1503 -91 1142 -33 
Q 781 25 428 141 
L 428 1069 
Q 766 900 1098 814 
Q 1431 728 1753 728 
Q 2231 728 2486 893 
Q 2741 1059 2741 1369 
Q 2741 1688 2480 1852 
Q 2219 2016 1709 2016 
L 1228 2016 
L 1228 2791 
L 1734 2791 
Q 2188 2791 2409 2933 
Q 2631 3075 2631 3366 
Q 2631 3634 2415 3781 
Q 2200 3928 1806 3928 
Q 1516 3928 1219 3862 
Q 922 3797 628 3669 
L 628 4550 
Q 984 4650 1334 4700 
Q 1684 4750 2022 4750 
Q 2931 4750 3382 4451 
Q 3834 4153 3834 3553 
Q 3834 3144 3618 2883 
Q 3403 2622 2981 2516 
z
" transform="scale(0.015625)"/>
      </defs>
      <use xlink:href="#DejaVuSans-Bold-32"/>
      <use xlink:href="#DejaVuSans-Bold-30" x="69.580078"/>
      <use xlink:href="#DejaVuSans-Bold-31" x="139.160156"/>
      <use xlink:href="#DejaVuSans-Bold-33" x="208.740234"/>
     </g>
    </g>
    <g clip-path="url(#pe5ea6bec3b)">
     <!-- OR2 -->
     <g transform="translate(330.420313 298.40919) scale(0.1 -0.1)">
      <use xlink:href="#DejaVuSans-Bold-4f"/>
      <use xlink:href="#DejaVuSans-Bold-52" x="85.009766"/>
      <use xlink:href="#DejaVuSans-Bold-32" x="162.011719"/>
     </g>
    </g>
   </g>
   <g id="text_9">
    <g clip-path="url(#pe5ea6bec3b)">
     <!-- 2014 -->
     <g transform="translate(466.431482 287.172315) scale(0.1 -0.1)">
      <use xlink:href="#DejaVuSans-Bold-32"/>
      <use xlink:href="#DejaVuSans-Bold-30" x="69.580078"/>
      <use xlink:href="#DejaVuSans-Bold-31" x="139.160156"/>
      <use xlink:href="#DejaVuSans-Bold-34" x="208.740234"/>
     </g>
    </g>
    <g clip-path="url(#pe5ea6bec3b)">
     <!-- Algs -->
     <g transform="translate(468.208826 298.370128) scale(0.1 -0.1)">
      <defs>
       <path id="DejaVuSans-Bold-67" d="M 2919 594 
Q 2688 288 2409 144 
Q 2131 0 1766 0 
Q 1125 0 706 504 
Q 288 1009 288 1791 
Q 288 2575 706 3076 
Q 1125 3578 1766 3578 
Q 2131 3578 2409 3434 
Q 2688 3291 2919 2981 
L 2919 3500 
L 4044 3500 
L 4044 353 
Q 4044 -491 3511 -936 
Q 2978 -1381 1966 -1381 
Q 1638 -1381 1331 -1331 
Q 1025 -1281 716 -1178 
L 716 -306 
Q 1009 -475 1290 -558 
Q 1572 -641 1856 -641 
Q 2406 -641 2662 -400 
Q 2919 -159 2919 353 
L 2919 594 
z
M 2181 2772 
Q 1834 2772 1640 2515 
Q 1447 2259 1447 1791 
Q 1447 1309 1634 1061 
Q 1822 813 2181 813 
Q 2531 813 2725 1069 
Q 2919 1325 2919 1791 
Q 2919 2259 2725 2515 
Q 2531 2772 2181 2772 
z
" transform="scale(0.015625)"/>
      </defs>
      <use xlink:href="#DejaVuSans-Bold-41"/>
      <use xlink:href="#DejaVuSans-Bold-6c" x="77.392578"/>
      <use xlink:href="#DejaVuSans-Bold-67" x="111.669922"/>
      <use xlink:href="#DejaVuSans-Bold-73" x="183.251953"/>
     </g>
    </g>
   </g>
   <g id="text_10">
    <g clip-path="url(#pe5ea6bec3b)">
     <!-- 2039 -->
     <g transform="translate(604.77859 287.172315) scale(0.1 -0.1)">
      <use xlink:href="#DejaVuSans-Bold-32"/>
      <use xlink:href="#DejaVuSans-Bold-30" x="69.580078"/>
      <use xlink:href="#DejaVuSans-Bold-33" x="139.160156"/>
      <use xlink:href="#DejaVuSans-Bold-39" x="208.740234"/>
     </g>
    </g>
    <g clip-path="url(#pe5ea6bec3b)">
     <!-- Analysis -->
     <g transform="translate(595.252027 298.370128) scale(0.1 -0.1)">
      <defs>
       <path id="DejaVuSans-Bold-6e" d="M 4056 2131 
L 4056 0 
L 2931 0 
L 2931 347 
L 2931 1631 
Q 2931 2084 2911 2256 
Q 2891 2428 2841 2509 
Q 2775 2619 2662 2680 
Q 2550 2741 2406 2741 
Q 2056 2741 1856 2470 
Q 1656 2200 1656 1722 
L 1656 0 
L 538 0 
L 538 3500 
L 1656 3500 
L 1656 2988 
Q 1909 3294 2193 3439 
Q 2478 3584 2822 3584 
Q 3428 3584 3742 3212 
Q 4056 2841 4056 2131 
z
" transform="scale(0.015625)"/>
       <path id="DejaVuSans-Bold-79" d="M 78 3500 
L 1197 3500 
L 2138 1125 
L 2938 3500 
L 4056 3500 
L 2584 -331 
Q 2363 -916 2067 -1148 
Q 1772 -1381 1288 -1381 
L 641 -1381 
L 641 -647 
L 991 -647 
Q 1275 -647 1404 -556 
Q 1534 -466 1606 -231 
L 1638 -134 
L 78 3500 
z
" transform="scale(0.015625)"/>
       <path id="DejaVuSans-Bold-69" d="M 538 3500 
L 1656 3500 
L 1656 0 
L 538 0 
L 538 3500 
z
M 538 4863 
L 1656 4863 
L 1656 3950 
L 538 3950 
L 538 4863 
z
" transform="scale(0.015625)"/>
      </defs>
      <use xlink:href="#DejaVuSans-Bold-41"/>
      <use xlink:href="#DejaVuSans-Bold-6e" x="77.392578"/>
      <use xlink:href="#DejaVuSans-Bold-61" x="148.583984"/>
      <use xlink:href="#DejaVuSans-Bold-6c" x="216.064453"/>
      <use xlink:href="#DejaVuSans-Bold-79" x="250.341797"/>
      <use xlink:href="#DejaVuSans-Bold-73" x="315.527344"/>
      <use xlink:href="#DejaVuSans-Bold-69" x="375.048828"/>
      <use xlink:href="#DejaVuSans-Bold-73" x="409.326172"/>
     </g>
    </g>
   </g>
   <g id="text_11">
    <g clip-path="url(#pe5ea6bec3b)">
     <!-- 3013 -->
     <g transform="translate(51.39016 165.02956) scale(0.1 -0.1)">
      <use xlink:href="#DejaVuSans-Bold-33"/>
      <use xlink:href="#DejaVuSans-Bold-30" x="69.580078"/>
      <use xlink:href="#DejaVuSans-Bold-31" x="139.160156"/>
      <use xlink:href="#DejaVuSans-Bold-33" x="208.740234"/>
     </g>
    </g>
    <g clip-path="url(#pe5ea6bec3b)">
     <!-- SQ -->
     <g transform="translate(57.454223 176.227372) scale(0.1 -0.1)">
      <defs>
       <path id="DejaVuSans-Bold-51" d="M 2847 -84 
L 2753 -84 
Q 1600 -84 959 553 
Q 319 1191 319 2328 
Q 319 3463 958 4106 
Q 1597 4750 2719 4750 
Q 3853 4750 4486 4112 
Q 5119 3475 5119 2328 
Q 5119 1541 4783 972 
Q 4447 403 3816 116 
L 4756 -934 
L 3609 -934 
L 2847 -84 
z
M 2719 3878 
Q 2169 3878 1866 3472 
Q 1563 3066 1563 2328 
Q 1563 1578 1859 1179 
Q 2156 781 2719 781 
Q 3272 781 3575 1187 
Q 3878 1594 3878 2328 
Q 3878 3066 3575 3472 
Q 3272 3878 2719 3878 
z
" transform="scale(0.015625)"/>
      </defs>
      <use xlink:href="#DejaVuSans-Bold-53"/>
      <use xlink:href="#DejaVuSans-Bold-51" x="72.021484"/>
     </g>
    </g>
   </g>
   <g id="text_12">
    <g clip-path="url(#pe5ea6bec3b)">
     <!-- 3016 -->
     <g transform="translate(235.85297 165.02956) scale(0.1 -0.1)">
      <use xlink:href="#DejaVuSans-Bold-33"/>
      <use xlink:href="#DejaVuSans-Bold-30" x="69.580078"/>
      <use xlink:href="#DejaVuSans-Bold-31" x="139.160156"/>
      <use xlink:href="#DejaVuSans-Bold-36" x="208.740234"/>
     </g>
    </g>
    <g clip-path="url(#pe5ea6bec3b)">
     <!-- Opt -->
     <g transform="translate(239.549064 176.227372) scale(0.1 -0.1)">
      <defs>
       <path id="DejaVuSans-Bold-70" d="M 1656 506 
L 1656 -1331 
L 538 -1331 
L 538 3500 
L 1656 3500 
L 1656 2988 
Q 1888 3294 2169 3439 
Q 2450 3584 2816 3584 
Q 3463 3584 3878 3070 
Q 4294 2556 4294 1747 
Q 4294 938 3878 423 
Q 3463 -91 2816 -91 
Q 2450 -91 2169 54 
Q 1888 200 1656 506 
z
M 2400 2772 
Q 2041 2772 1848 2508 
Q 1656 2244 1656 1747 
Q 1656 1250 1848 986 
Q 2041 722 2400 722 
Q 2759 722 2948 984 
Q 3138 1247 3138 1747 
Q 3138 2247 2948 2509 
Q 2759 2772 2400 2772 
z
" transform="scale(0.015625)"/>
      </defs>
      <use xlink:href="#DejaVuSans-Bold-4f"/>
      <use xlink:href="#DejaVuSans-Bold-70" x="85.009766"/>
      <use xlink:href="#DejaVuSans-Bold-74" x="156.591797"/>
     </g>
    </g>
   </g>
   <g id="text_13">
    <g clip-path="url(#pe5ea6bec3b)">
     <!-- 3017 -->
     <g transform="translate(420.31578 164.990497) scale(0.1 -0.1)">
      <defs>
       <path id="DejaVuSans-Bold-37" d="M 428 4666 
L 3944 4666 
L 3944 3988 
L 2125 0 
L 953 0 
L 2675 3781 
L 428 3781 
L 428 4666 
z
" transform="scale(0.015625)"/>
      </defs>
      <use xlink:href="#DejaVuSans-Bold-33"/>
      <use xlink:href="#DejaVuSans-Bold-30" x="69.580078"/>
      <use xlink:href="#DejaVuSans-Bold-31" x="139.160156"/>
      <use xlink:href="#DejaVuSans-Bold-37" x="208.740234"/>
     </g>
    </g>
    <g clip-path="url(#pe5ea6bec3b)">
     <!-- MProg -->
     <g transform="translate(416.111092 176.18831) scale(0.1 -0.1)">
      <defs>
       <path id="DejaVuSans-Bold-50" d="M 588 4666 
L 2584 4666 
Q 3475 4666 3951 4270 
Q 4428 3875 4428 3144 
Q 4428 2409 3951 2014 
Q 3475 1619 2584 1619 
L 1791 1619 
L 1791 0 
L 588 0 
L 588 4666 
z
M 1791 3794 
L 1791 2491 
L 2456 2491 
Q 2806 2491 2997 2661 
Q 3188 2831 3188 3144 
Q 3188 3456 2997 3625 
Q 2806 3794 2456 3794 
L 1791 3794 
z
" transform="scale(0.015625)"/>
       <path id="DejaVuSans-Bold-72" d="M 3138 2547 
Q 2991 2616 2845 2648 
Q 2700 2681 2553 2681 
Q 2122 2681 1889 2404 
Q 1656 2128 1656 1613 
L 1656 0 
L 538 0 
L 538 3500 
L 1656 3500 
L 1656 2925 
Q 1872 3269 2151 3426 
Q 2431 3584 2822 3584 
Q 2878 3584 2943 3579 
Q 3009 3575 3134 3559 
L 3138 2547 
z
" transform="scale(0.015625)"/>
       <path id="DejaVuSans-Bold-6f" d="M 2203 2784 
Q 1831 2784 1636 2517 
Q 1441 2250 1441 1747 
Q 1441 1244 1636 976 
Q 1831 709 2203 709 
Q 2569 709 2762 976 
Q 2956 1244 2956 1747 
Q 2956 2250 2762 2517 
Q 2569 2784 2203 2784 
z
M 2203 3584 
Q 3106 3584 3614 3096 
Q 4122 2609 4122 1747 
Q 4122 884 3614 396 
Q 3106 -91 2203 -91 
Q 1297 -91 786 396 
Q 275 884 275 1747 
Q 275 2609 786 3096 
Q 1297 3584 2203 3584 
z
" transform="scale(0.015625)"/>
      </defs>
      <use xlink:href="#DejaVuSans-Bold-4d"/>
      <use xlink:href="#DejaVuSans-Bold-50" x="99.511719"/>
      <use xlink:href="#DejaVuSans-Bold-72" x="172.802734"/>
      <use xlink:href="#DejaVuSans-Bold-6f" x="222.119141"/>
      <use xlink:href="#DejaVuSans-Bold-67" x="290.820312"/>
     </g>
    </g>
   </g>
   <g id="text_14">
    <g clip-path="url(#pe5ea6bec3b)">
     <!-- 3092 -->
     <g transform="translate(604.77859 164.990497) scale(0.1 -0.1)">
      <use xlink:href="#DejaVuSans-Bold-33"/>
      <use xlink:href="#DejaVuSans-Bold-30" x="69.580078"/>
      <use xlink:href="#DejaVuSans-Bold-39" x="139.160156"/>
      <use xlink:href="#DejaVuSans-Bold-32" x="208.740234"/>
     </g>
    </g>
    <g clip-path="url(#pe5ea6bec3b)">
     <!-- Project -->
     <g transform="translate(598.669215 176.18831) scale(0.1 -0.1)">
      <defs>
       <path id="DejaVuSans-Bold-6a" d="M 538 3500 
L 1656 3500 
L 1656 63 
Q 1656 -641 1318 -1011 
Q 981 -1381 341 -1381 
L -213 -1381 
L -213 -647 
L -19 -647 
Q 300 -647 419 -503 
Q 538 -359 538 63 
L 538 3500 
z
M 538 4863 
L 1656 4863 
L 1656 3950 
L 538 3950 
L 538 4863 
z
" transform="scale(0.015625)"/>
       <path id="DejaVuSans-Bold-65" d="M 4031 1759 
L 4031 1441 
L 1416 1441 
Q 1456 1047 1700 850 
Q 1944 653 2381 653 
Q 2734 653 3104 758 
Q 3475 863 3866 1075 
L 3866 213 
Q 3469 63 3072 -14 
Q 2675 -91 2278 -91 
Q 1328 -91 801 392 
Q 275 875 275 1747 
Q 275 2603 792 3093 
Q 1309 3584 2216 3584 
Q 3041 3584 3536 3087 
Q 4031 2591 4031 1759 
z
M 2881 2131 
Q 2881 2450 2695 2645 
Q 2509 2841 2209 2841 
Q 1884 2841 1681 2658 
Q 1478 2475 1428 2131 
L 2881 2131 
z
" transform="scale(0.015625)"/>
      </defs>
      <use xlink:href="#DejaVuSans-Bold-50"/>
      <use xlink:href="#DejaVuSans-Bold-72" x="73.291016"/>
      <use xlink:href="#DejaVuSans-Bold-6f" x="122.607422"/>
      <use xlink:href="#DejaVuSans-Bold-6a" x="191.308594"/>
      <use xlink:href="#DejaVuSans-Bold-65" x="225.585938"/>
      <use xlink:href="#DejaVuSans-Bold-63" x="293.408203"/>
      <use xlink:href="#DejaVuSans-Bold-74" x="352.685547"/>
     </g>
    </g>
   </g>
   <g id="text_15">
    <g clip-path="url(#pe5ea6bec3b)">
     <!-- 6001 -->
     <g transform="translate(51.39016 42.808679) scale(0.1 -0.1)">
      <use xlink:href="#DejaVuSans-Bold-36"/>
      <use xlink:href="#DejaVuSans-Bold-30" x="69.580078"/>
      <use xlink:href="#DejaVuSans-Bold-30" x="139.160156"/>
      <use xlink:href="#DejaVuSans-Bold-31" x="208.740234"/>
     </g>
    </g>
    <g clip-path="url(#pe5ea6bec3b)">
     <!-- Project -->
     <g transform="translate(45.280785 54.006491) scale(0.1 -0.1)">
      <use xlink:href="#DejaVuSans-Bold-50"/>
      <use xlink:href="#DejaVuSans-Bold-72" x="73.291016"/>
      <use xlink:href="#DejaVuSans-Bold-6f" x="122.607422"/>
      <use xlink:href="#DejaVuSans-Bold-6a" x="191.308594"/>
      <use xlink:href="#DejaVuSans-Bold-65" x="225.585938"/>
      <use xlink:href="#DejaVuSans-Bold-63" x="293.408203"/>
      <use xlink:href="#DejaVuSans-Bold-74" x="352.685547"/>
     </g>
    </g>
   </g>
   <g id="text_16">
    <g clip-path="url(#pe5ea6bec3b)">
     <!-- 6005 -->
     <g transform="translate(83.942421 42.808679) scale(0.1 -0.1)">
      <use xlink:href="#DejaVuSans-Bold-36"/>
      <use xlink:href="#DejaVuSans-Bold-30" x="69.580078"/>
      <use xlink:href="#DejaVuSans-Bold-30" x="139.160156"/>
      <use xlink:href="#DejaVuSans-Bold-35" x="208.740234"/>
     </g>
    </g>
    <g clip-path="url(#pe5ea6bec3b)">
     <!-- Python -->
     <g transform="translate(77.896327 54.006491) scale(0.1 -0.1)">
      <defs>
       <path id="DejaVuSans-Bold-68" d="M 4056 2131 
L 4056 0 
L 2931 0 
L 2931 347 
L 2931 1625 
Q 2931 2084 2911 2256 
Q 2891 2428 2841 2509 
Q 2775 2619 2662 2680 
Q 2550 2741 2406 2741 
Q 2056 2741 1856 2470 
Q 1656 2200 1656 1722 
L 1656 0 
L 538 0 
L 538 4863 
L 1656 4863 
L 1656 2988 
Q 1909 3294 2193 3439 
Q 2478 3584 2822 3584 
Q 3428 3584 3742 3212 
Q 4056 2841 4056 2131 
z
" transform="scale(0.015625)"/>
      </defs>
      <use xlink:href="#DejaVuSans-Bold-50"/>
      <use xlink:href="#DejaVuSans-Bold-79" x="75.166016"/>
      <use xlink:href="#DejaVuSans-Bold-74" x="140.351562"/>
      <use xlink:href="#DejaVuSans-Bold-68" x="188.154297"/>
      <use xlink:href="#DejaVuSans-Bold-6f" x="259.345703"/>
      <use xlink:href="#DejaVuSans-Bold-6e" x="328.046875"/>
     </g>
    </g>
   </g>
   <g id="text_17">
    <g clip-path="url(#pe5ea6bec3b)">
     <!-- 6011 -->
     <g transform="translate(116.494681 42.847741) scale(0.1 -0.1)">
      <use xlink:href="#DejaVuSans-Bold-36"/>
      <use xlink:href="#DejaVuSans-Bold-30" x="69.580078"/>
      <use xlink:href="#DejaVuSans-Bold-31" x="139.160156"/>
      <use xlink:href="#DejaVuSans-Bold-31" x="208.740234"/>
     </g>
    </g>
    <g clip-path="url(#pe5ea6bec3b)">
     <!-- Fore -->
     <g transform="translate(117.902494 54.045554) scale(0.1 -0.1)">
      <defs>
       <path id="DejaVuSans-Bold-46" d="M 588 4666 
L 3834 4666 
L 3834 3756 
L 1791 3756 
L 1791 2888 
L 3713 2888 
L 3713 1978 
L 1791 1978 
L 1791 0 
L 588 0 
L 588 4666 
z
" transform="scale(0.015625)"/>
      </defs>
      <use xlink:href="#DejaVuSans-Bold-46"/>
      <use xlink:href="#DejaVuSans-Bold-6f" x="64.310547"/>
      <use xlink:href="#DejaVuSans-Bold-72" x="133.011719"/>
      <use xlink:href="#DejaVuSans-Bold-65" x="182.328125"/>
     </g>
    </g>
   </g>
   <g id="text_18">
    <g clip-path="url(#pe5ea6bec3b)">
     <!-- 6017 -->
     <g transform="translate(149.046942 42.847741) scale(0.1 -0.1)">
      <use xlink:href="#DejaVuSans-Bold-36"/>
      <use xlink:href="#DejaVuSans-Bold-30" x="69.580078"/>
      <use xlink:href="#DejaVuSans-Bold-31" x="139.160156"/>
      <use xlink:href="#DejaVuSans-Bold-37" x="208.740234"/>
     </g>
    </g>
    <g clip-path="url(#pe5ea6bec3b)">
     <!-- FPT -->
     <g transform="translate(152.471161 54.045554) scale(0.1 -0.1)">
      <use xlink:href="#DejaVuSans-Bold-46"/>
      <use xlink:href="#DejaVuSans-Bold-50" x="68.310547"/>
      <use xlink:href="#DejaVuSans-Bold-54" x="141.601562"/>
     </g>
    </g>
   </g>
   <g id="text_19">
    <g clip-path="url(#pe5ea6bec3b)">
     <!-- 6112 -->
     <g transform="translate(181.599202 42.847741) scale(0.1 -0.1)">
      <use xlink:href="#DejaVuSans-Bold-36"/>
      <use xlink:href="#DejaVuSans-Bold-31" x="69.580078"/>
      <use xlink:href="#DejaVuSans-Bold-31" x="139.160156"/>
      <use xlink:href="#DejaVuSans-Bold-32" x="208.740234"/>
     </g>
    </g>
    <g clip-path="url(#pe5ea6bec3b)">
     <!-- CompStats -->
     <g transform="translate(164.890609 54.045554) scale(0.1 -0.1)">
      <defs>
       <path id="DejaVuSans-Bold-6d" d="M 3781 2919 
Q 3994 3244 4286 3414 
Q 4578 3584 4928 3584 
Q 5531 3584 5847 3212 
Q 6163 2841 6163 2131 
L 6163 0 
L 5038 0 
L 5038 1825 
Q 5041 1866 5042 1909 
Q 5044 1953 5044 2034 
Q 5044 2406 4934 2573 
Q 4825 2741 4581 2741 
Q 4263 2741 4089 2478 
Q 3916 2216 3909 1719 
L 3909 0 
L 2784 0 
L 2784 1825 
Q 2784 2406 2684 2573 
Q 2584 2741 2328 2741 
Q 2006 2741 1831 2477 
Q 1656 2213 1656 1722 
L 1656 0 
L 531 0 
L 531 3500 
L 1656 3500 
L 1656 2988 
Q 1863 3284 2130 3434 
Q 2397 3584 2719 3584 
Q 3081 3584 3359 3409 
Q 3638 3234 3781 2919 
z
" transform="scale(0.015625)"/>
      </defs>
      <use xlink:href="#DejaVuSans-Bold-43"/>
      <use xlink:href="#DejaVuSans-Bold-6f" x="73.388672"/>
      <use xlink:href="#DejaVuSans-Bold-6d" x="142.089844"/>
      <use xlink:href="#DejaVuSans-Bold-70" x="246.289062"/>
      <use xlink:href="#DejaVuSans-Bold-53" x="317.871094"/>
      <use xlink:href="#DejaVuSans-Bold-74" x="389.892578"/>
      <use xlink:href="#DejaVuSans-Bold-61" x="437.695312"/>
      <use xlink:href="#DejaVuSans-Bold-74" x="505.175781"/>
      <use xlink:href="#DejaVuSans-Bold-73" x="552.978516"/>
     </g>
    </g>
   </g>
   <g id="text_20">
    <g clip-path="url(#pe5ea6bec3b)">
     <!-- 6119 -->
     <g transform="translate(214.151463 42.847741) scale(0.1 -0.1)">
      <use xlink:href="#DejaVuSans-Bold-36"/>
      <use xlink:href="#DejaVuSans-Bold-31" x="69.580078"/>
      <use xlink:href="#DejaVuSans-Bold-31" x="139.160156"/>
      <use xlink:href="#DejaVuSans-Bold-39" x="208.740234"/>
     </g>
    </g>
    <g clip-path="url(#pe5ea6bec3b)">
     <!-- CompStats -->
     <g transform="translate(197.442869 54.045554) scale(0.1 -0.1)">
      <use xlink:href="#DejaVuSans-Bold-43"/>
      <use xlink:href="#DejaVuSans-Bold-6f" x="73.388672"/>
      <use xlink:href="#DejaVuSans-Bold-6d" x="142.089844"/>
      <use xlink:href="#DejaVuSans-Bold-70" x="246.289062"/>
      <use xlink:href="#DejaVuSans-Bold-53" x="317.871094"/>
      <use xlink:href="#DejaVuSans-Bold-74" x="389.892578"/>
      <use xlink:href="#DejaVuSans-Bold-61" x="437.695312"/>
      <use xlink:href="#DejaVuSans-Bold-74" x="505.175781"/>
      <use xlink:href="#DejaVuSans-Bold-73" x="552.978516"/>
     </g>
    </g>
   </g>
   <g id="text_21">
    <g clip-path="url(#pe5ea6bec3b)">
     <!-- 6120 -->
     <g transform="translate(246.703724 42.847741) scale(0.1 -0.1)">
      <use xlink:href="#DejaVuSans-Bold-36"/>
      <use xlink:href="#DejaVuSans-Bold-31" x="69.580078"/>
      <use xlink:href="#DejaVuSans-Bold-32" x="139.160156"/>
      <use xlink:href="#DejaVuSans-Bold-30" x="208.740234"/>
     </g>
    </g>
    <g clip-path="url(#pe5ea6bec3b)">
     <!-- NLO -->
     <g transform="translate(249.179505 54.045554) scale(0.1 -0.1)">
      <defs>
       <path id="DejaVuSans-Bold-4e" d="M 588 4666 
L 1931 4666 
L 3628 1466 
L 3628 4666 
L 4769 4666 
L 4769 0 
L 3425 0 
L 1728 3200 
L 1728 0 
L 588 0 
L 588 4666 
z
" transform="scale(0.015625)"/>
      </defs>
      <use xlink:href="#DejaVuSans-Bold-4e"/>
      <use xlink:href="#DejaVuSans-Bold-4c" x="83.691406"/>
      <use xlink:href="#DejaVuSans-Bold-4f" x="143.787109"/>
     </g>
    </g>
   </g>
   <g id="text_22">
    <g clip-path="url(#pe5ea6bec3b)">
     <!-- 6144 -->
     <g transform="translate(279.255984 42.808679) scale(0.1 -0.1)">
      <use xlink:href="#DejaVuSans-Bold-36"/>
      <use xlink:href="#DejaVuSans-Bold-31" x="69.580078"/>
      <use xlink:href="#DejaVuSans-Bold-34" x="139.160156"/>
      <use xlink:href="#DejaVuSans-Bold-34" x="208.740234"/>
     </g>
    </g>
    <g clip-path="url(#pe5ea6bec3b)">
     <!-- Project -->
     <g transform="translate(273.146609 54.006491) scale(0.1 -0.1)">
      <use xlink:href="#DejaVuSans-Bold-50"/>
      <use xlink:href="#DejaVuSans-Bold-72" x="73.291016"/>
      <use xlink:href="#DejaVuSans-Bold-6f" x="122.607422"/>
      <use xlink:href="#DejaVuSans-Bold-6a" x="191.308594"/>
      <use xlink:href="#DejaVuSans-Bold-65" x="225.585938"/>
      <use xlink:href="#DejaVuSans-Bold-63" x="293.408203"/>
      <use xlink:href="#DejaVuSans-Bold-74" x="352.685547"/>
     </g>
    </g>
   </g>
   <g id="text_23">
    <g clip-path="url(#pe5ea6bec3b)">
     <!-- 6145 -->
     <g transform="translate(311.808245 42.847741) scale(0.1 -0.1)">
      <use xlink:href="#DejaVuSans-Bold-36"/>
      <use xlink:href="#DejaVuSans-Bold-31" x="69.580078"/>
      <use xlink:href="#DejaVuSans-Bold-34" x="139.160156"/>
      <use xlink:href="#DejaVuSans-Bold-35" x="208.740234"/>
     </g>
    </g>
    <g clip-path="url(#pe5ea6bec3b)">
     <!-- Reports -->
     <g transform="translate(303.637151 54.045554) scale(0.1 -0.1)">
      <use xlink:href="#DejaVuSans-Bold-52"/>
      <use xlink:href="#DejaVuSans-Bold-65" x="77.001953"/>
      <use xlink:href="#DejaVuSans-Bold-70" x="144.824219"/>
      <use xlink:href="#DejaVuSans-Bold-6f" x="216.40625"/>
      <use xlink:href="#DejaVuSans-Bold-72" x="285.107422"/>
      <use xlink:href="#DejaVuSans-Bold-74" x="334.423828"/>
      <use xlink:href="#DejaVuSans-Bold-73" x="382.226562"/>
     </g>
    </g>
   </g>
   <g id="text_24">
    <g clip-path="url(#pe5ea6bec3b)">
     <!-- 6146 -->
     <g transform="translate(344.360505 42.847741) scale(0.1 -0.1)">
      <use xlink:href="#DejaVuSans-Bold-36"/>
      <use xlink:href="#DejaVuSans-Bold-31" x="69.580078"/>
      <use xlink:href="#DejaVuSans-Bold-34" x="139.160156"/>
      <use xlink:href="#DejaVuSans-Bold-36" x="208.740234"/>
     </g>
    </g>
    <g clip-path="url(#pe5ea6bec3b)">
     <!-- RM -->
     <g transform="translate(349.450349 54.045554) scale(0.1 -0.1)">
      <use xlink:href="#DejaVuSans-Bold-52"/>
      <use xlink:href="#DejaVuSans-Bold-4d" x="77.001953"/>
     </g>
    </g>
   </g>
   <g id="text_25">
    <g clip-path="url(#pe5ea6bec3b)">
     <!-- 6147 -->
     <g transform="translate(376.912766 42.847741) scale(0.1 -0.1)">
      <use xlink:href="#DejaVuSans-Bold-36"/>
      <use xlink:href="#DejaVuSans-Bold-31" x="69.580078"/>
      <use xlink:href="#DejaVuSans-Bold-34" x="139.160156"/>
      <use xlink:href="#DejaVuSans-Bold-37" x="208.740234"/>
     </g>
    </g>
    <g clip-path="url(#pe5ea6bec3b)">
     <!-- DA -->
     <g transform="translate(382.808078 54.045554) scale(0.1 -0.1)">
      <use xlink:href="#DejaVuSans-Bold-44"/>
      <use xlink:href="#DejaVuSans-Bold-41" x="83.007812"/>
     </g>
    </g>
   </g>
   <g id="text_26">
    <g clip-path="url(#pe5ea6bec3b)">
     <!-- 6161 -->
     <g transform="translate(409.465026 42.847741) scale(0.1 -0.1)">
      <use xlink:href="#DejaVuSans-Bold-36"/>
      <use xlink:href="#DejaVuSans-Bold-31" x="69.580078"/>
      <use xlink:href="#DejaVuSans-Bold-36" x="139.160156"/>
      <use xlink:href="#DejaVuSans-Bold-31" x="208.740234"/>
     </g>
    </g>
    <g clip-path="url(#pe5ea6bec3b)">
     <!-- DetOR -->
     <g transform="translate(405.347839 54.045554) scale(0.1 -0.1)">
      <use xlink:href="#DejaVuSans-Bold-44"/>
      <use xlink:href="#DejaVuSans-Bold-65" x="83.007812"/>
      <use xlink:href="#DejaVuSans-Bold-74" x="150.830078"/>
      <use xlink:href="#DejaVuSans-Bold-4f" x="198.632812"/>
      <use xlink:href="#DejaVuSans-Bold-52" x="283.642578"/>
     </g>
    </g>
   </g>
   <g id="text_27">
    <g clip-path="url(#pe5ea6bec3b)">
     <!-- 6164 -->
     <g transform="translate(442.017287 42.847741) scale(0.1 -0.1)">
      <use xlink:href="#DejaVuSans-Bold-36"/>
      <use xlink:href="#DejaVuSans-Bold-31" x="69.580078"/>
      <use xlink:href="#DejaVuSans-Bold-36" x="139.160156"/>
      <use xlink:href="#DejaVuSans-Bold-34" x="208.740234"/>
     </g>
    </g>
    <g clip-path="url(#pe5ea6bec3b)">
     <!-- StochOR -->
     <g transform="translate(431.882912 54.045554) scale(0.1 -0.1)">
      <use xlink:href="#DejaVuSans-Bold-53"/>
      <use xlink:href="#DejaVuSans-Bold-74" x="72.021484"/>
      <use xlink:href="#DejaVuSans-Bold-6f" x="119.824219"/>
      <use xlink:href="#DejaVuSans-Bold-63" x="188.525391"/>
      <use xlink:href="#DejaVuSans-Bold-68" x="247.802734"/>
      <use xlink:href="#DejaVuSans-Bold-4f" x="318.994141"/>
      <use xlink:href="#DejaVuSans-Bold-52" x="404.003906"/>
     </g>
    </g>
   </g>
   <g id="text_28">
    <g clip-path="url(#pe5ea6bec3b)">
     <!-- 6166 -->
     <g transform="translate(474.569548 42.847741) scale(0.1 -0.1)">
      <use xlink:href="#DejaVuSans-Bold-36"/>
      <use xlink:href="#DejaVuSans-Bold-31" x="69.580078"/>
      <use xlink:href="#DejaVuSans-Bold-36" x="139.160156"/>
      <use xlink:href="#DejaVuSans-Bold-36" x="208.740234"/>
     </g>
    </g>
    <g clip-path="url(#pe5ea6bec3b)">
     <!-- StatCompDS -->
     <g transform="translate(453.085173 54.045554) scale(0.1 -0.1)">
      <use xlink:href="#DejaVuSans-Bold-53"/>
      <use xlink:href="#DejaVuSans-Bold-74" x="72.021484"/>
      <use xlink:href="#DejaVuSans-Bold-61" x="119.824219"/>
      <use xlink:href="#DejaVuSans-Bold-74" x="187.304688"/>
      <use xlink:href="#DejaVuSans-Bold-43" x="235.107422"/>
      <use xlink:href="#DejaVuSans-Bold-6f" x="308.496094"/>
      <use xlink:href="#DejaVuSans-Bold-6d" x="377.197266"/>
      <use xlink:href="#DejaVuSans-Bold-70" x="481.396484"/>
      <use xlink:href="#DejaVuSans-Bold-44" x="552.978516"/>
      <use xlink:href="#DejaVuSans-Bold-53" x="635.986328"/>
     </g>
    </g>
   </g>
   <g id="text_29">
    <g clip-path="url(#pe5ea6bec3b)">
     <!-- 6183 -->
     <g transform="translate(507.121808 42.847741) scale(0.1 -0.1)">
      <use xlink:href="#DejaVuSans-Bold-36"/>
      <use xlink:href="#DejaVuSans-Bold-31" x="69.580078"/>
      <use xlink:href="#DejaVuSans-Bold-38" x="139.160156"/>
      <use xlink:href="#DejaVuSans-Bold-33" x="208.740234"/>
     </g>
    </g>
    <g clip-path="url(#pe5ea6bec3b)">
     <!-- DMA -->
     <g transform="translate(508.041339 54.045554) scale(0.1 -0.1)">
      <use xlink:href="#DejaVuSans-Bold-44"/>
      <use xlink:href="#DejaVuSans-Bold-4d" x="83.007812"/>
      <use xlink:href="#DejaVuSans-Bold-41" x="182.519531"/>
     </g>
    </g>
   </g>
   <g id="text_30">
    <g clip-path="url(#pe5ea6bec3b)">
     <!-- 6184 -->
     <g transform="translate(539.674069 42.847741) scale(0.1 -0.1)">
      <use xlink:href="#DejaVuSans-Bold-36"/>
      <use xlink:href="#DejaVuSans-Bold-31" x="69.580078"/>
      <use xlink:href="#DejaVuSans-Bold-38" x="139.160156"/>
      <use xlink:href="#DejaVuSans-Bold-34" x="208.740234"/>
     </g>
    </g>
    <g clip-path="url(#pe5ea6bec3b)">
     <!-- CMLO -->
     <g transform="translate(537.688912 54.045554) scale(0.1 -0.1)">
      <use xlink:href="#DejaVuSans-Bold-43"/>
      <use xlink:href="#DejaVuSans-Bold-4d" x="73.388672"/>
      <use xlink:href="#DejaVuSans-Bold-4c" x="172.900391"/>
      <use xlink:href="#DejaVuSans-Bold-4f" x="232.996094"/>
     </g>
    </g>
   </g>
   <g id="text_31">
    <g clip-path="url(#pe5ea6bec3b)">
     <!-- 6185 -->
     <g transform="translate(572.226329 42.847741) scale(0.1 -0.1)">
      <use xlink:href="#DejaVuSans-Bold-36"/>
      <use xlink:href="#DejaVuSans-Bold-31" x="69.580078"/>
      <use xlink:href="#DejaVuSans-Bold-38" x="139.160156"/>
      <use xlink:href="#DejaVuSans-Bold-35" x="208.740234"/>
     </g>
    </g>
    <g clip-path="url(#pe5ea6bec3b)">
     <!-- CS1 -->
     <g transform="translate(575.298986 54.045554) scale(0.1 -0.1)">
      <use xlink:href="#DejaVuSans-Bold-43"/>
      <use xlink:href="#DejaVuSans-Bold-53" x="75.263672"/>
      <use xlink:href="#DejaVuSans-Bold-31" x="147.285156"/>
     </g>
    </g>
   </g>
   <g id="text_32">
    <g clip-path="url(#pe5ea6bec3b)">
     <!-- 6186 -->
     <g transform="translate(604.77859 42.847741) scale(0.1 -0.1)">
      <use xlink:href="#DejaVuSans-Bold-36"/>
      <use xlink:href="#DejaVuSans-Bold-31" x="69.580078"/>
      <use xlink:href="#DejaVuSans-Bold-38" x="139.160156"/>
      <use xlink:href="#DejaVuSans-Bold-36" x="208.740234"/>
     </g>
    </g>
    <g clip-path="url(#pe5ea6bec3b)">
     <!-- CS2 -->
     <g transform="translate(607.851246 54.045554) scale(0.1 -0.1)">
      <use xlink:href="#DejaVuSans-Bold-43"/>
      <use xlink:href="#DejaVuSans-Bold-53" x="75.263672"/>
      <use xlink:href="#DejaVuSans-Bold-32" x="147.285156"/>
     </g>
    </g>
   </g>
  </g>
 </g>
 <defs>
  <clipPath id="pe5ea6bec3b">
   <rect x="7.2" y="7.2" width="669.6" height="443.52"/>
  </clipPath>
 </defs>
</svg>
