<?xml version="1.0" encoding="utf-8" standalone="no"?>
<!DOCTYPE svg PUBLIC "-//W3C//DTD SVG 1.1//EN"
  "http://www.w3.org/Graphics/SVG/1.1/DTD/svg11.dtd">
<svg xmlns:xlink="http://www.w3.org/1999/xlink" width="684pt" height="457.92pt" viewBox="0 0 684 457.92" xmlns="http://www.w3.org/2000/svg" version="1.1">
 <metadata>
  <rdf:RDF xmlns:dc="http://purl.org/dc/elements/1.1/" xmlns:cc="http://creativecommons.org/ns#" xmlns:rdf="http://www.w3.org/1999/02/22-rdf-syntax-ns#">
   <cc:Work>
    <dc:type rdf:resource="http://purl.org/dc/dcmitype/StillImage"/>
    <dc:date>2023-12-01T11:00:18.865941</dc:date>
    <dc:format>image/svg+xml</dc:format>
    <dc:creator>
     <cc:Agent>
      <dc:title>Matplotlib v3.7.2, https://matplotlib.org/</dc:title>
     </cc:Agent>
    </dc:creator>
   </cc:Work>
  </rdf:RDF>
 </metadata>
 <defs>
  <style type="text/css">*{stroke-linejoin: round; stroke-linecap: butt}</style>
 </defs>
 <g id="figure_1">
  <g id="patch_1">
   <path d="M 0 457.92 
L 684 457.92 
L 684 0 
L 0 0 
z
" style="fill: #ffffff"/>
  </g>
  <g id="axes_1">
   <g id="patch_2">
    <path d="M 79.126274 394.657704 
Q 154.852255 296.840817 212.521223 188.66738 
" clip-path="url(#pfbaf6cc970)" style="fill: none; stroke: #000000; stroke-linecap: round"/>
    <path d="M 208.874603 191.256233 
L 212.521223 188.66738 
L 212.404333 193.137988 
z
" clip-path="url(#pfbaf6cc970)" style="stroke: #000000; stroke-linecap: round"/>
   </g>
   <g id="patch_3">
    <path d="M 225.932485 414.101893 
Q 272.824569 417.280789 318.601178 414.177762 
" clip-path="url(#pfbaf6cc970)" style="fill: none; stroke: #000000; stroke-linecap: round"/>
    <path d="M 314.475074 412.452865 
L 318.601178 414.177762 
L 314.745599 416.443707 
z
" clip-path="url(#pfbaf6cc970)" style="stroke: #000000; stroke-linecap: round"/>
   </g>
   <g id="patch_4">
    <path d="M 225.916652 414.339675 
Q 411.174359 430.877917 595.31846 414.438946 
" clip-path="url(#pfbaf6cc970)" style="fill: none; stroke: #000000; stroke-linecap: round"/>
    <path d="M 591.156467 412.802543 
L 595.31846 414.438946 
L 591.512142 416.786698 
z
" clip-path="url(#pfbaf6cc970)" style="stroke: #000000; stroke-linecap: round"/>
   </g>
   <g id="patch_5">
    <path d="M 194.466111 391.844617 
Q 144.913703 284.144333 78.692148 187.161587 
" clip-path="url(#pfbaf6cc970)" style="fill: none; stroke: #000000; stroke-linecap: round"/>
    <path d="M 79.296063 191.592759 
L 78.692148 187.161587 
L 82.599435 189.337158 
z
" clip-path="url(#pfbaf6cc970)" style="stroke: #000000; stroke-linecap: round"/>
   </g>
   <g id="patch_6">
    <path d="M 221.221419 398.402815 
Q 342.897641 301.386231 445.149204 185.562188 
" clip-path="url(#pfbaf6cc970)" style="fill: none; stroke: #000000; stroke-linecap: round"/>
    <path d="M 441.002604 187.237212 
L 445.149204 185.562188 
L 444.001263 189.884483 
z
" clip-path="url(#pfbaf6cc970)" style="stroke: #000000; stroke-linecap: round"/>
   </g>
   <g id="patch_7">
    <path d="M 222.894604 400.843215 
Q 382.624306 305.146712 522.03235 183.40239 
" clip-path="url(#pfbaf6cc970)" style="fill: none; stroke: #000000; stroke-linecap: round"/>
    <path d="M 517.703945 184.527072 
L 522.03235 183.40239 
L 520.335052 187.539923 
z
" clip-path="url(#pfbaf6cc970)" style="stroke: #000000; stroke-linecap: round"/>
   </g>
   <g id="patch_8">
    <path d="M 215.264102 393.125558 
Q 309.024295 236.935229 373.30578 67.677484 
" clip-path="url(#pfbaf6cc970)" style="fill: none; stroke: #000000; stroke-linecap: round"/>
    <path d="M 370.015912 70.706802 
L 373.30578 67.677484 
L 373.755314 72.126969 
z
" clip-path="url(#pfbaf6cc970)" style="stroke: #000000; stroke-linecap: round"/>
   </g>
   <g id="patch_9">
    <path d="M 322.462079 401.350111 
Q 208.925905 339.19274 87.561827 297.520283 
" clip-path="url(#pfbaf6cc970)" style="fill: none; stroke: #000000; stroke-linecap: round"/>
    <path d="M 90.695507 300.710903 
L 87.561827 297.520283 
L 91.994531 296.927711 
z
" clip-path="url(#pfbaf6cc970)" style="stroke: #000000; stroke-linecap: round"/>
   </g>
   <g id="patch_10">
    <path d="M 326.697354 395.926958 
Q 214.484955 277.783006 84.274929 181.700345 
" clip-path="url(#pfbaf6cc970)" style="fill: none; stroke: #000000; stroke-linecap: round"/>
    <path d="M 86.306011 185.684652 
L 84.274929 181.700345 
L 88.681024 182.466064 
z
" clip-path="url(#pfbaf6cc970)" style="stroke: #000000; stroke-linecap: round"/>
   </g>
   <g id="patch_11">
    <path d="M 329.606557 393.619402 
Q 253.790212 281.469935 160.746654 184.686329 
" clip-path="url(#pfbaf6cc970)" style="fill: none; stroke: #000000; stroke-linecap: round"/>
    <path d="M 162.077019 188.956005 
L 160.746654 184.686329 
L 164.960614 186.183842 
z
" clip-path="url(#pfbaf6cc970)" style="stroke: #000000; stroke-linecap: round"/>
   </g>
   <g id="patch_12">
    <path d="M 357.610604 396.221408 
Q 451.428998 298.631807 526.619172 187.408574 
" clip-path="url(#pfbaf6cc970)" style="fill: none; stroke: #000000; stroke-linecap: round"/>
    <path d="M 522.722032 189.602269 
L 526.619172 187.408574 
L 526.035844 191.842503 
z
" clip-path="url(#pfbaf6cc970)" style="stroke: #000000; stroke-linecap: round"/>
   </g>
   <g id="patch_13">
    <path d="M 346.466731 390.322553 
Q 378.011537 230.711224 381.198563 69.162027 
" clip-path="url(#pfbaf6cc970)" style="fill: none; stroke: #000000; stroke-linecap: round"/>
    <path d="M 379.120056 73.121801 
L 381.198563 69.162027 
L 383.119277 73.200697 
z
" clip-path="url(#pfbaf6cc970)" style="stroke: #000000; stroke-linecap: round"/>
   </g>
   <g id="patch_14">
    <path d="M 458.067515 410.363561 
Q 411.175431 407.184665 365.398822 410.287693 
" clip-path="url(#pfbaf6cc970)" style="fill: none; stroke: #000000; stroke-linecap: round"/>
    <path d="M 369.524926 412.012589 
L 365.398822 410.287693 
L 369.254401 408.021748 
z
" clip-path="url(#pfbaf6cc970)" style="stroke: #000000; stroke-linecap: round"/>
   </g>
   <g id="patch_15">
    <path d="M 502.6267 414.101893 
Q 549.518784 417.280789 595.295393 414.177762 
" clip-path="url(#pfbaf6cc970)" style="fill: none; stroke: #000000; stroke-linecap: round"/>
    <path d="M 591.169289 412.452865 
L 595.295393 414.177762 
L 591.439814 416.443707 
z
" clip-path="url(#pfbaf6cc970)" style="stroke: #000000; stroke-linecap: round"/>
   </g>
   <g id="patch_16">
    <path d="M 464.9477 396.019503 
Q 415.985674 345.692153 360.883206 304.001796 
" clip-path="url(#pfbaf6cc970)" style="fill: none; stroke: #000000; stroke-linecap: round"/>
    <path d="M 362.866354 308.010178 
L 360.883206 304.001796 
L 365.2798 304.820307 
z
" clip-path="url(#pfbaf6cc970)" style="stroke: #000000; stroke-linecap: round"/>
   </g>
   <g id="patch_17">
    <path d="M 487.569354 391.073641 
Q 520.238796 292.537377 536.187047 191.090534 
" clip-path="url(#pfbaf6cc970)" style="fill: none; stroke: #000000; stroke-linecap: round"/>
    <path d="M 533.59011 194.731402 
L 536.187047 191.090534 
L 537.541579 195.352605 
z
" clip-path="url(#pfbaf6cc970)" style="stroke: #000000; stroke-linecap: round"/>
   </g>
   <g id="patch_18">
    <path d="M 476.575245 390.19032 
Q 447.24087 224.563368 389.730796 67.685952 
" clip-path="url(#pfbaf6cc970)" style="fill: none; stroke: #000000; stroke-linecap: round"/>
    <path d="M 389.229772 72.129934 
L 389.730796 67.685952 
L 392.985367 70.753161 
z
" clip-path="url(#pfbaf6cc970)" style="stroke: #000000; stroke-linecap: round"/>
   </g>
   <g id="patch_19">
    <path d="M 599.156294 401.350111 
Q 485.620119 339.19274 364.256042 297.520283 
" clip-path="url(#pfbaf6cc970)" style="fill: none; stroke: #000000; stroke-linecap: round"/>
    <path d="M 367.389721 300.710903 
L 364.256042 297.520283 
L 368.688746 296.927711 
z
" clip-path="url(#pfbaf6cc970)" style="stroke: #000000; stroke-linecap: round"/>
   </g>
   <g id="patch_20">
    <path d="M 599.197507 401.279632 
Q 353.351607 264.342568 87.59367 175.254484 
" clip-path="url(#pfbaf6cc970)" style="fill: none; stroke: #000000; stroke-linecap: round"/>
    <path d="M 90.750569 178.422131 
L 87.59367 175.254484 
L 92.021927 174.629553 
z
" clip-path="url(#pfbaf6cc970)" style="stroke: #000000; stroke-linecap: round"/>
   </g>
   <g id="patch_21">
    <path d="M 86.031927 281.668798 
Q 189.063489 239.004364 282.667028 180.472091 
" clip-path="url(#pfbaf6cc970)" style="fill: none; stroke: #000000; stroke-linecap: round"/>
    <path d="M 278.215135 180.897118 
L 282.667028 180.472091 
L 280.335914 184.288621 
z
" clip-path="url(#pfbaf6cc970)" style="stroke: #000000; stroke-linecap: round"/>
   </g>
   <g id="patch_22">
    <path d="M 86.820515 283.967846 
Q 228.773787 242.83165 360.503625 178.326379 
" clip-path="url(#pfbaf6cc970)" style="fill: none; stroke: #000000; stroke-linecap: round"/>
    <path d="M 356.031643 178.2893 
L 360.503625 178.326379 
L 357.790773 181.881718 
z
" clip-path="url(#pfbaf6cc970)" style="stroke: #000000; stroke-linecap: round"/>
   </g>
   <g id="patch_23">
    <path d="M 67.32995 267.779425 
Q 75.499938 167.867439 67.420802 69.069768 
" clip-path="url(#pfbaf6cc970)" style="fill: none; stroke: #000000; stroke-linecap: round"/>
    <path d="M 65.753466 73.219466 
L 67.420802 69.069768 
L 69.740158 72.893456 
z
" clip-path="url(#pfbaf6cc970)" style="stroke: #000000; stroke-linecap: round"/>
   </g>
   <g id="patch_24">
    <path d="M 74.096401 269.486834 
Q 115.117552 171.193131 139.187159 68.586428 
" clip-path="url(#pfbaf6cc970)" style="fill: none; stroke: #000000; stroke-linecap: round"/>
    <path d="M 136.326489 72.023951 
L 139.187159 68.586428 
L 140.220776 72.937478 
z
" clip-path="url(#pfbaf6cc970)" style="stroke: #000000; stroke-linecap: round"/>
   </g>
   <g id="patch_25">
    <path d="M 79.126274 272.475886 
Q 154.852255 174.658999 212.521223 66.485561 
" clip-path="url(#pfbaf6cc970)" style="fill: none; stroke: #000000; stroke-linecap: round"/>
    <path d="M 208.874603 69.074414 
L 212.521223 66.485561 
L 212.404333 70.95617 
z
" clip-path="url(#pfbaf6cc970)" style="stroke: #000000; stroke-linecap: round"/>
   </g>
   <g id="patch_26">
    <path d="M 82.303963 275.524463 
Q 194.612608 178.279554 287.751573 63.981741 
" clip-path="url(#pfbaf6cc970)" style="fill: none; stroke: #000000; stroke-linecap: round"/>
    <path d="M 283.67434 65.819177 
L 287.751573 63.981741 
L 286.775181 68.345989 
z
" clip-path="url(#pfbaf6cc970)" style="stroke: #000000; stroke-linecap: round"/>
   </g>
   <g id="patch_27">
    <path d="M 364.262704 292.098055 
Q 480.345916 301.838374 595.315009 292.191736 
" clip-path="url(#pfbaf6cc970)" style="fill: none; stroke: #000000; stroke-linecap: round"/>
    <path d="M 591.161791 290.53319 
L 595.315009 292.191736 
L 591.496241 294.519183 
z
" clip-path="url(#pfbaf6cc970)" style="stroke: #000000; stroke-linecap: round"/>
   </g>
   <g id="patch_28">
    <path d="M 324.116982 276.628309 
Q 248.231242 220.79091 165.357707 178.376105 
" clip-path="url(#pfbaf6cc970)" style="fill: none; stroke: #000000; stroke-linecap: round"/>
    <path d="M 168.007252 181.978869 
L 165.357707 178.376105 
L 169.829645 178.418127 
z
" clip-path="url(#pfbaf6cc970)" style="stroke: #000000; stroke-linecap: round"/>
   </g>
   <g id="patch_29">
    <path d="M 336.892309 268.278874 
Q 326.592625 227.550148 311.497312 189.545474 
" clip-path="url(#pfbaf6cc970)" style="fill: none; stroke: #000000; stroke-linecap: round"/>
    <path d="M 311.11514 194.001251 
L 311.497312 189.545474 
L 314.83263 192.524678 
z
" clip-path="url(#pfbaf6cc970)" style="stroke: #000000; stroke-linecap: round"/>
   </g>
   <g id="patch_30">
    <path d="M 358.905418 275.412712 
Q 406.011119 233.540666 445.739183 186.062074 
" clip-path="url(#pfbaf6cc970)" style="fill: none; stroke: #000000; stroke-linecap: round"/>
    <path d="M 441.638395 187.846321 
L 445.739183 186.062074 
L 444.706108 190.413252 
z
" clip-path="url(#pfbaf6cc970)" style="stroke: #000000; stroke-linecap: round"/>
   </g>
   <g id="patch_31">
    <path d="M 597.666646 282.440166 
Q 387.107409 207.301365 167.553778 171.544194 
" clip-path="url(#pfbaf6cc970)" style="fill: none; stroke: #000000; stroke-linecap: round"/>
    <path d="M 171.180272 174.161167 
L 167.553778 171.544194 
L 171.823253 170.213183 
z
" clip-path="url(#pfbaf6cc970)" style="stroke: #000000; stroke-linecap: round"/>
   </g>
   <g id="patch_32">
    <path d="M 598.678757 280.087541 
Q 465.944965 215.090169 325.065704 174.264756 
" clip-path="url(#pfbaf6cc970)" style="fill: none; stroke: #000000; stroke-linecap: round"/>
    <path d="M 328.35096 177.299076 
L 325.065704 174.264756 
L 329.464314 173.457143 
z
" clip-path="url(#pfbaf6cc970)" style="stroke: #000000; stroke-linecap: round"/>
   </g>
   <g id="patch_33">
    <path d="M 599.837122 278.040798 
Q 505.285637 218.915733 403.287056 176.679029 
" clip-path="url(#pfbaf6cc970)" style="fill: none; stroke: #000000; stroke-linecap: round"/>
    <path d="M 406.21756 180.057215 
L 403.287056 176.679029 
L 407.747908 176.361537 
z
" clip-path="url(#pfbaf6cc970)" style="stroke: #000000; stroke-linecap: round"/>
   </g>
   <g id="patch_34">
    <path d="M 599.197507 279.097814 
Q 353.351607 142.16075 87.59367 53.072666 
" clip-path="url(#pfbaf6cc970)" style="fill: none; stroke: #000000; stroke-linecap: round"/>
    <path d="M 90.750569 56.240313 
L 87.59367 53.072666 
L 92.021927 52.447735 
z
" clip-path="url(#pfbaf6cc970)" style="stroke: #000000; stroke-linecap: round"/>
   </g>
   <g id="patch_35">
    <path d="M 599.886561 277.962609 
Q 392.769278 146.048411 166.159033 54.40298 
" clip-path="url(#pfbaf6cc970)" style="fill: none; stroke: #000000; stroke-linecap: round"/>
    <path d="M 169.117424 57.756772 
L 166.159033 54.40298 
L 170.617101 54.048542 
z
" clip-path="url(#pfbaf6cc970)" style="stroke: #000000; stroke-linecap: round"/>
   </g>
   <g id="patch_36">
    <path d="M 600.873006 276.541813 
Q 432.159222 149.908153 244.467336 56.090626 
" clip-path="url(#pfbaf6cc970)" style="fill: none; stroke: #000000; stroke-linecap: round"/>
    <path d="M 247.151051 59.66801 
L 244.467336 56.090626 
L 248.939472 56.090085 
z
" clip-path="url(#pfbaf6cc970)" style="stroke: #000000; stroke-linecap: round"/>
   </g>
   <g id="patch_37">
    <path d="M 602.365293 274.776004 
Q 471.517487 153.722608 322.316798 58.24028 
" clip-path="url(#pfbaf6cc970)" style="fill: none; stroke: #000000; stroke-linecap: round"/>
    <path d="M 324.607887 62.080971 
L 322.316798 58.24028 
L 326.764004 58.711822 
z
" clip-path="url(#pfbaf6cc970)" style="stroke: #000000; stroke-linecap: round"/>
   </g>
   <g id="patch_38">
    <path d="M 166.253286 163.307012 
Q 347.488629 124.529168 517.959359 54.696986 
" clip-path="url(#pfbaf6cc970)" style="fill: none; stroke: #000000; stroke-linecap: round"/>
    <path d="M 513.499747 54.362533 
L 517.959359 54.696986 
L 515.016029 58.064004 
z
" clip-path="url(#pfbaf6cc970)" style="stroke: #000000; stroke-linecap: round"/>
   </g>
   <g id="patch_39">
    <path d="M 359.249962 165.955206 
Q 302.473858 161.877542 246.812916 165.874889 
" clip-path="url(#pfbaf6cc970)" style="fill: none; stroke: #000000; stroke-linecap: round"/>
    <path d="M 250.945903 167.583225 
L 246.812916 165.874889 
L 250.659377 163.593501 
z
" clip-path="url(#pfbaf6cc970)" style="stroke: #000000; stroke-linecap: round"/>
   </g>
   <g id="patch_40">
    <path d="M 402.253886 159.486979 
Q 505.285449 116.822546 598.888988 58.290273 
" clip-path="url(#pfbaf6cc970)" style="fill: none; stroke: #000000; stroke-linecap: round"/>
    <path d="M 594.437095 58.7153 
L 598.888988 58.290273 
L 596.557874 62.106803 
z
" clip-path="url(#pfbaf6cc970)" style="stroke: #000000; stroke-linecap: round"/>
   </g>
   <g id="PathCollection_1">
    <defs>
     <path id="m9015cfd592" d="M 0 22.36068 
C 5.930122 22.36068 11.618159 20.004617 15.811388 15.811388 
C 20.004617 11.618159 22.36068 5.930122 22.36068 0 
C 22.36068 -5.930122 20.004617 -11.618159 15.811388 -15.811388 
C 11.618159 -20.004617 5.930122 -22.36068 0 -22.36068 
C -5.930122 -22.36068 -11.618159 -20.004617 -15.811388 -15.811388 
C -20.004617 -11.618159 -22.36068 -5.930122 -22.36068 0 
C -22.36068 5.930122 -20.004617 11.618159 -15.811388 15.811388 
C -11.618159 20.004617 -5.930122 22.36068 0 22.36068 
z
" style="stroke: #000000"/>
    </defs>
    <g clip-path="url(#pfbaf6cc970)">
     <use xlink:href="#m9015cfd592" x="65.305785" y="412.232727" style="fill: #ffffff; stroke: #000000"/>
     <use xlink:href="#m9015cfd592" x="203.652893" y="412.232727" style="fill: #ffffff; stroke: #000000"/>
     <use xlink:href="#m9015cfd592" x="342" y="412.232727" style="fill: #ffffff; stroke: #000000"/>
     <use xlink:href="#m9015cfd592" x="480.347107" y="412.232727" style="fill: #ffffff; stroke: #000000"/>
     <use xlink:href="#m9015cfd592" x="618.694215" y="412.232727" style="fill: #ffffff; stroke: #000000"/>
     <use xlink:href="#m9015cfd592" x="65.305785" y="290.050909" style="fill: #ffffff; stroke: #000000"/>
     <use xlink:href="#m9015cfd592" x="342" y="290.050909" style="fill: #ffffff; stroke: #000000"/>
     <use xlink:href="#m9015cfd592" x="618.694215" y="290.050909" style="fill: #ffffff; stroke: #000000"/>
     <use xlink:href="#m9015cfd592" x="65.305785" y="167.869091" style="fill: #ffffff; stroke: #000000"/>
     <use xlink:href="#m9015cfd592" x="144.361275" y="167.869091" style="fill: #ffffff; stroke: #000000"/>
     <use xlink:href="#m9015cfd592" x="223.416765" y="167.869091" style="fill: #ffffff; stroke: #000000"/>
     <use xlink:href="#m9015cfd592" x="302.472255" y="167.869091" style="fill: #ffffff; stroke: #000000"/>
     <use xlink:href="#m9015cfd592" x="381.527745" y="167.869091" style="fill: #ffffff; stroke: #000000"/>
     <use xlink:href="#m9015cfd592" x="460.583235" y="167.869091" style="fill: #ffffff; stroke: #000000"/>
     <use xlink:href="#m9015cfd592" x="539.638725" y="167.869091" style="fill: #ffffff; stroke: #000000"/>
     <use xlink:href="#m9015cfd592" x="618.694215" y="167.869091" style="fill: #ffffff; stroke: #000000"/>
     <use xlink:href="#m9015cfd592" x="65.305785" y="45.687273" style="fill: #ffffff; stroke: #000000"/>
     <use xlink:href="#m9015cfd592" x="144.361275" y="45.687273" style="fill: #ffffff; stroke: #000000"/>
     <use xlink:href="#m9015cfd592" x="223.416765" y="45.687273" style="fill: #ffffff; stroke: #000000"/>
     <use xlink:href="#m9015cfd592" x="302.472255" y="45.687273" style="fill: #ffffff; stroke: #000000"/>
     <use xlink:href="#m9015cfd592" x="381.527745" y="45.687273" style="fill: #ffffff; stroke: #000000"/>
     <use xlink:href="#m9015cfd592" x="460.583235" y="45.687273" style="fill: #ffffff; stroke: #000000"/>
     <use xlink:href="#m9015cfd592" x="539.638725" y="45.687273" style="fill: #ffffff; stroke: #000000"/>
     <use xlink:href="#m9015cfd592" x="618.694215" y="45.687273" style="fill: #ffffff; stroke: #000000"/>
    </g>
   </g>
   <g id="PathCollection_2">
    <defs>
     <path id="ma7a6cb7acb" d="M 0 22.36068 
C 5.930122 22.36068 11.618159 20.004617 15.811388 15.811388 
C 20.004617 11.618159 22.36068 5.930122 22.36068 0 
C 22.36068 -5.930122 20.004617 -11.618159 15.811388 -15.811388 
C 11.618159 -20.004617 5.930122 -22.36068 0 -22.36068 
C -5.930122 -22.36068 -11.618159 -20.004617 -15.811388 -15.811388 
C -20.004617 -11.618159 -22.36068 -5.930122 -22.36068 0 
C -22.36068 5.930122 -20.004617 11.618159 -15.811388 15.811388 
C -11.618159 20.004617 -5.930122 22.36068 0 22.36068 
z
" style="stroke: #0000ff; stroke-opacity: 0.2; stroke-width: 4"/>
    </defs>
    <g clip-path="url(#pfbaf6cc970)">
     <use xlink:href="#ma7a6cb7acb" x="65.305785" y="412.232727" style="fill: #0000ff; fill-opacity: 0.2; stroke: #0000ff; stroke-opacity: 0.2; stroke-width: 4"/>
     <use xlink:href="#ma7a6cb7acb" x="203.652893" y="412.232727" style="fill: #0000ff; fill-opacity: 0.2; stroke: #0000ff; stroke-opacity: 0.2; stroke-width: 4"/>
     <use xlink:href="#ma7a6cb7acb" x="342" y="412.232727" style="fill: #0000ff; fill-opacity: 0.2; stroke: #0000ff; stroke-opacity: 0.2; stroke-width: 4"/>
     <use xlink:href="#ma7a6cb7acb" x="480.347107" y="412.232727" style="fill: #0000ff; fill-opacity: 0.2; stroke: #0000ff; stroke-opacity: 0.2; stroke-width: 4"/>
     <use xlink:href="#ma7a6cb7acb" x="65.305785" y="290.050909" style="fill: #0000ff; fill-opacity: 0.2; stroke: #0000ff; stroke-opacity: 0.2; stroke-width: 4"/>
     <use xlink:href="#ma7a6cb7acb" x="342" y="290.050909" style="fill: #0000ff; fill-opacity: 0.2; stroke: #0000ff; stroke-opacity: 0.2; stroke-width: 4"/>
     <use xlink:href="#ma7a6cb7acb" x="618.694215" y="290.050909" style="fill: #0000ff; fill-opacity: 0.2; stroke: #0000ff; stroke-opacity: 0.2; stroke-width: 4"/>
     <use xlink:href="#ma7a6cb7acb" x="65.305785" y="167.869091" style="fill: #0000ff; fill-opacity: 0.2; stroke: #0000ff; stroke-opacity: 0.2; stroke-width: 4"/>
     <use xlink:href="#ma7a6cb7acb" x="144.361275" y="167.869091" style="fill: #0000ff; fill-opacity: 0.2; stroke: #0000ff; stroke-opacity: 0.2; stroke-width: 4"/>
     <use xlink:href="#ma7a6cb7acb" x="223.416765" y="167.869091" style="fill: #0000ff; fill-opacity: 0.2; stroke: #0000ff; stroke-opacity: 0.2; stroke-width: 4"/>
     <use xlink:href="#ma7a6cb7acb" x="302.472255" y="167.869091" style="fill: #0000ff; fill-opacity: 0.2; stroke: #0000ff; stroke-opacity: 0.2; stroke-width: 4"/>
     <use xlink:href="#ma7a6cb7acb" x="381.527745" y="167.869091" style="fill: #0000ff; fill-opacity: 0.2; stroke: #0000ff; stroke-opacity: 0.2; stroke-width: 4"/>
     <use xlink:href="#ma7a6cb7acb" x="460.583235" y="167.869091" style="fill: #0000ff; fill-opacity: 0.2; stroke: #0000ff; stroke-opacity: 0.2; stroke-width: 4"/>
     <use xlink:href="#ma7a6cb7acb" x="539.638725" y="167.869091" style="fill: #0000ff; fill-opacity: 0.2; stroke: #0000ff; stroke-opacity: 0.2; stroke-width: 4"/>
     <use xlink:href="#ma7a6cb7acb" x="618.694215" y="167.869091" style="fill: #0000ff; fill-opacity: 0.2; stroke: #0000ff; stroke-opacity: 0.2; stroke-width: 4"/>
     <use xlink:href="#ma7a6cb7acb" x="65.305785" y="45.687273" style="fill: #0000ff; fill-opacity: 0.2; stroke: #0000ff; stroke-opacity: 0.2; stroke-width: 4"/>
     <use xlink:href="#ma7a6cb7acb" x="144.361275" y="45.687273" style="fill: #0000ff; fill-opacity: 0.2; stroke: #0000ff; stroke-opacity: 0.2; stroke-width: 4"/>
     <use xlink:href="#ma7a6cb7acb" x="223.416765" y="45.687273" style="fill: #0000ff; fill-opacity: 0.2; stroke: #0000ff; stroke-opacity: 0.2; stroke-width: 4"/>
     <use xlink:href="#ma7a6cb7acb" x="302.472255" y="45.687273" style="fill: #0000ff; fill-opacity: 0.2; stroke: #0000ff; stroke-opacity: 0.2; stroke-width: 4"/>
     <use xlink:href="#ma7a6cb7acb" x="381.527745" y="45.687273" style="fill: #0000ff; fill-opacity: 0.2; stroke: #0000ff; stroke-opacity: 0.2; stroke-width: 4"/>
     <use xlink:href="#ma7a6cb7acb" x="460.583235" y="45.687273" style="fill: #0000ff; fill-opacity: 0.2; stroke: #0000ff; stroke-opacity: 0.2; stroke-width: 4"/>
     <use xlink:href="#ma7a6cb7acb" x="539.638725" y="45.687273" style="fill: #0000ff; fill-opacity: 0.2; stroke: #0000ff; stroke-opacity: 0.2; stroke-width: 4"/>
     <use xlink:href="#ma7a6cb7acb" x="618.694215" y="45.687273" style="fill: #0000ff; fill-opacity: 0.2; stroke: #0000ff; stroke-opacity: 0.2; stroke-width: 4"/>
    </g>
   </g>
   <g id="PathCollection_3">
    <defs>
     <path id="m703d7797eb" d="M 0 22.36068 
C 5.930122 22.36068 11.618159 20.004617 15.811388 15.811388 
C 20.004617 11.618159 22.36068 5.930122 22.36068 0 
C 22.36068 -5.930122 20.004617 -11.618159 15.811388 -15.811388 
C 11.618159 -20.004617 5.930122 -22.36068 0 -22.36068 
C -5.930122 -22.36068 -11.618159 -20.004617 -15.811388 -15.811388 
C -20.004617 -11.618159 -22.36068 -5.930122 -22.36068 0 
C -22.36068 5.930122 -20.004617 11.618159 -15.811388 15.811388 
C -11.618159 20.004617 -5.930122 22.36068 0 22.36068 
z
" style="stroke: #ff0000"/>
    </defs>
    <g clip-path="url(#pfbaf6cc970)">
     <use xlink:href="#m703d7797eb" x="618.694215" y="167.869091" style="fill: #ff0000; stroke: #ff0000"/>
     <use xlink:href="#m703d7797eb" x="460.583235" y="45.687273" style="fill: #ff0000; stroke: #ff0000"/>
    </g>
   </g>
   <g id="text_1">
    <g clip-path="url(#pfbaf6cc970)">
     <!-- 1001 -->
     <g transform="translate(51.39016 409.393196) scale(0.1 -0.1)">
      <defs>
       <path id="DejaVuSans-Bold-31" d="M 750 831 
L 1813 831 
L 1813 3847 
L 722 3622 
L 722 4441 
L 1806 4666 
L 2950 4666 
L 2950 831 
L 4013 831 
L 4013 0 
L 750 0 
L 750 831 
z
" transform="scale(0.015625)"/>
       <path id="DejaVuSans-Bold-30" d="M 2944 2338 
Q 2944 3213 2780 3570 
Q 2616 3928 2228 3928 
Q 1841 3928 1675 3570 
Q 1509 3213 1509 2338 
Q 1509 1453 1675 1090 
Q 1841 728 2228 728 
Q 2613 728 2778 1090 
Q 2944 1453 2944 2338 
z
M 4147 2328 
Q 4147 1169 3647 539 
Q 3147 -91 2228 -91 
Q 1306 -91 806 539 
Q 306 1169 306 2328 
Q 306 3491 806 4120 
Q 1306 4750 2228 4750 
Q 3147 4750 3647 4120 
Q 4147 3491 4147 2328 
z
" transform="scale(0.015625)"/>
      </defs>
      <use xlink:href="#DejaVuSans-Bold-31"/>
      <use xlink:href="#DejaVuSans-Bold-30" x="69.580078"/>
      <use xlink:href="#DejaVuSans-Bold-30" x="139.160156"/>
      <use xlink:href="#DejaVuSans-Bold-31" x="208.740234"/>
     </g>
    </g>
    <g clip-path="url(#pfbaf6cc970)">
     <!-- NumTh -->
     <g transform="translate(45.381566 420.591009) scale(0.1 -0.1)">
      <defs>
       <path id="DejaVuSans-Bold-4e" d="M 588 4666 
L 1931 4666 
L 3628 1466 
L 3628 4666 
L 4769 4666 
L 4769 0 
L 3425 0 
L 1728 3200 
L 1728 0 
L 588 0 
L 588 4666 
z
" transform="scale(0.015625)"/>
       <path id="DejaVuSans-Bold-75" d="M 500 1363 
L 500 3500 
L 1625 3500 
L 1625 3150 
Q 1625 2866 1622 2436 
Q 1619 2006 1619 1863 
Q 1619 1441 1641 1255 
Q 1663 1069 1716 984 
Q 1784 875 1895 815 
Q 2006 756 2150 756 
Q 2500 756 2700 1025 
Q 2900 1294 2900 1772 
L 2900 3500 
L 4019 3500 
L 4019 0 
L 2900 0 
L 2900 506 
Q 2647 200 2364 54 
Q 2081 -91 1741 -91 
Q 1134 -91 817 281 
Q 500 653 500 1363 
z
" transform="scale(0.015625)"/>
       <path id="DejaVuSans-Bold-6d" d="M 3781 2919 
Q 3994 3244 4286 3414 
Q 4578 3584 4928 3584 
Q 5531 3584 5847 3212 
Q 6163 2841 6163 2131 
L 6163 0 
L 5038 0 
L 5038 1825 
Q 5041 1866 5042 1909 
Q 5044 1953 5044 2034 
Q 5044 2406 4934 2573 
Q 4825 2741 4581 2741 
Q 4263 2741 4089 2478 
Q 3916 2216 3909 1719 
L 3909 0 
L 2784 0 
L 2784 1825 
Q 2784 2406 2684 2573 
Q 2584 2741 2328 2741 
Q 2006 2741 1831 2477 
Q 1656 2213 1656 1722 
L 1656 0 
L 531 0 
L 531 3500 
L 1656 3500 
L 1656 2988 
Q 1863 3284 2130 3434 
Q 2397 3584 2719 3584 
Q 3081 3584 3359 3409 
Q 3638 3234 3781 2919 
z
" transform="scale(0.015625)"/>
       <path id="DejaVuSans-Bold-54" d="M 31 4666 
L 4331 4666 
L 4331 3756 
L 2784 3756 
L 2784 0 
L 1581 0 
L 1581 3756 
L 31 3756 
L 31 4666 
z
" transform="scale(0.015625)"/>
       <path id="DejaVuSans-Bold-68" d="M 4056 2131 
L 4056 0 
L 2931 0 
L 2931 347 
L 2931 1625 
Q 2931 2084 2911 2256 
Q 2891 2428 2841 2509 
Q 2775 2619 2662 2680 
Q 2550 2741 2406 2741 
Q 2056 2741 1856 2470 
Q 1656 2200 1656 1722 
L 1656 0 
L 538 0 
L 538 4863 
L 1656 4863 
L 1656 2988 
Q 1909 3294 2193 3439 
Q 2478 3584 2822 3584 
Q 3428 3584 3742 3212 
Q 4056 2841 4056 2131 
z
" transform="scale(0.015625)"/>
      </defs>
      <use xlink:href="#DejaVuSans-Bold-4e"/>
      <use xlink:href="#DejaVuSans-Bold-75" x="83.691406"/>
      <use xlink:href="#DejaVuSans-Bold-6d" x="154.882812"/>
      <use xlink:href="#DejaVuSans-Bold-54" x="259.082031"/>
      <use xlink:href="#DejaVuSans-Bold-68" x="327.294922"/>
     </g>
    </g>
   </g>
   <g id="text_2">
    <g clip-path="url(#pfbaf6cc970)">
     <!-- 1048 -->
     <g transform="translate(189.737268 409.393196) scale(0.1 -0.1)">
      <defs>
       <path id="DejaVuSans-Bold-34" d="M 2356 3675 
L 1038 1722 
L 2356 1722 
L 2356 3675 
z
M 2156 4666 
L 3494 4666 
L 3494 1722 
L 4159 1722 
L 4159 850 
L 3494 850 
L 3494 0 
L 2356 0 
L 2356 850 
L 288 850 
L 288 1881 
L 2156 4666 
z
" transform="scale(0.015625)"/>
       <path id="DejaVuSans-Bold-38" d="M 2228 2088 
Q 1891 2088 1709 1903 
Q 1528 1719 1528 1375 
Q 1528 1031 1709 848 
Q 1891 666 2228 666 
Q 2563 666 2741 848 
Q 2919 1031 2919 1375 
Q 2919 1722 2741 1905 
Q 2563 2088 2228 2088 
z
M 1350 2484 
Q 925 2613 709 2878 
Q 494 3144 494 3541 
Q 494 4131 934 4440 
Q 1375 4750 2228 4750 
Q 3075 4750 3515 4442 
Q 3956 4134 3956 3541 
Q 3956 3144 3739 2878 
Q 3522 2613 3097 2484 
Q 3572 2353 3814 2058 
Q 4056 1763 4056 1313 
Q 4056 619 3595 264 
Q 3134 -91 2228 -91 
Q 1319 -91 855 264 
Q 391 619 391 1313 
Q 391 1763 633 2058 
Q 875 2353 1350 2484 
z
M 1631 3419 
Q 1631 3141 1786 2991 
Q 1941 2841 2228 2841 
Q 2509 2841 2662 2991 
Q 2816 3141 2816 3419 
Q 2816 3697 2662 3845 
Q 2509 3994 2228 3994 
Q 1941 3994 1786 3844 
Q 1631 3694 1631 3419 
z
" transform="scale(0.015625)"/>
      </defs>
      <use xlink:href="#DejaVuSans-Bold-31"/>
      <use xlink:href="#DejaVuSans-Bold-30" x="69.580078"/>
      <use xlink:href="#DejaVuSans-Bold-34" x="139.160156"/>
      <use xlink:href="#DejaVuSans-Bold-38" x="208.740234"/>
     </g>
    </g>
    <g clip-path="url(#pfbaf6cc970)">
     <!-- LA1 -->
     <g transform="translate(193.118518 420.591009) scale(0.1 -0.1)">
      <defs>
       <path id="DejaVuSans-Bold-4c" d="M 588 4666 
L 1791 4666 
L 1791 909 
L 3903 909 
L 3903 0 
L 588 0 
L 588 4666 
z
" transform="scale(0.015625)"/>
       <path id="DejaVuSans-Bold-41" d="M 3419 850 
L 1538 850 
L 1241 0 
L 31 0 
L 1759 4666 
L 3194 4666 
L 4922 0 
L 3713 0 
L 3419 850 
z
M 1838 1716 
L 3116 1716 
L 2478 3572 
L 1838 1716 
z
" transform="scale(0.015625)"/>
      </defs>
      <use xlink:href="#DejaVuSans-Bold-4c"/>
      <use xlink:href="#DejaVuSans-Bold-41" x="63.720703"/>
      <use xlink:href="#DejaVuSans-Bold-31" x="141.113281"/>
     </g>
    </g>
   </g>
   <g id="text_3">
    <g clip-path="url(#pfbaf6cc970)">
     <!-- 1049 -->
     <g transform="translate(328.084375 409.393196) scale(0.1 -0.1)">
      <defs>
       <path id="DejaVuSans-Bold-39" d="M 641 103 
L 641 966 
Q 928 831 1190 764 
Q 1453 697 1709 697 
Q 2247 697 2547 995 
Q 2847 1294 2900 1881 
Q 2688 1725 2447 1647 
Q 2206 1569 1925 1569 
Q 1209 1569 770 1986 
Q 331 2403 331 3084 
Q 331 3838 820 4291 
Q 1309 4744 2131 4744 
Q 3044 4744 3544 4128 
Q 4044 3513 4044 2388 
Q 4044 1231 3459 570 
Q 2875 -91 1856 -91 
Q 1528 -91 1228 -42 
Q 928 6 641 103 
z
M 2125 2350 
Q 2441 2350 2600 2554 
Q 2759 2759 2759 3169 
Q 2759 3575 2600 3781 
Q 2441 3988 2125 3988 
Q 1809 3988 1650 3781 
Q 1491 3575 1491 3169 
Q 1491 2759 1650 2554 
Q 1809 2350 2125 2350 
z
" transform="scale(0.015625)"/>
      </defs>
      <use xlink:href="#DejaVuSans-Bold-31"/>
      <use xlink:href="#DejaVuSans-Bold-30" x="69.580078"/>
      <use xlink:href="#DejaVuSans-Bold-34" x="139.160156"/>
      <use xlink:href="#DejaVuSans-Bold-39" x="208.740234"/>
     </g>
    </g>
    <g clip-path="url(#pfbaf6cc970)">
     <!-- LA2 -->
     <g transform="translate(331.465625 420.591009) scale(0.1 -0.1)">
      <defs>
       <path id="DejaVuSans-Bold-32" d="M 1844 884 
L 3897 884 
L 3897 0 
L 506 0 
L 506 884 
L 2209 2388 
Q 2438 2594 2547 2791 
Q 2656 2988 2656 3200 
Q 2656 3528 2436 3728 
Q 2216 3928 1850 3928 
Q 1569 3928 1234 3808 
Q 900 3688 519 3450 
L 519 4475 
Q 925 4609 1322 4679 
Q 1719 4750 2100 4750 
Q 2938 4750 3402 4381 
Q 3866 4013 3866 3353 
Q 3866 2972 3669 2642 
Q 3472 2313 2841 1759 
L 1844 884 
z
" transform="scale(0.015625)"/>
      </defs>
      <use xlink:href="#DejaVuSans-Bold-4c"/>
      <use xlink:href="#DejaVuSans-Bold-41" x="63.720703"/>
      <use xlink:href="#DejaVuSans-Bold-32" x="141.113281"/>
     </g>
    </g>
   </g>
   <g id="text_4">
    <g clip-path="url(#pfbaf6cc970)">
     <!-- 1059 -->
     <g transform="translate(466.431482 409.393196) scale(0.1 -0.1)">
      <defs>
       <path id="DejaVuSans-Bold-35" d="M 678 4666 
L 3669 4666 
L 3669 3781 
L 1638 3781 
L 1638 3059 
Q 1775 3097 1914 3117 
Q 2053 3138 2203 3138 
Q 3056 3138 3531 2711 
Q 4006 2284 4006 1522 
Q 4006 766 3489 337 
Q 2972 -91 2053 -91 
Q 1656 -91 1267 -14 
Q 878 63 494 219 
L 494 1166 
Q 875 947 1217 837 
Q 1559 728 1863 728 
Q 2300 728 2551 942 
Q 2803 1156 2803 1522 
Q 2803 1891 2551 2103 
Q 2300 2316 1863 2316 
Q 1603 2316 1309 2248 
Q 1016 2181 678 2041 
L 678 4666 
z
" transform="scale(0.015625)"/>
      </defs>
      <use xlink:href="#DejaVuSans-Bold-31"/>
      <use xlink:href="#DejaVuSans-Bold-30" x="69.580078"/>
      <use xlink:href="#DejaVuSans-Bold-35" x="139.160156"/>
      <use xlink:href="#DejaVuSans-Bold-39" x="208.740234"/>
     </g>
    </g>
    <g clip-path="url(#pfbaf6cc970)">
     <!-- Calc -->
     <g transform="translate(468.625232 420.591009) scale(0.1 -0.1)">
      <defs>
       <path id="DejaVuSans-Bold-43" d="M 4288 256 
Q 3956 84 3597 -3 
Q 3238 -91 2847 -91 
Q 1681 -91 1000 561 
Q 319 1213 319 2328 
Q 319 3447 1000 4098 
Q 1681 4750 2847 4750 
Q 3238 4750 3597 4662 
Q 3956 4575 4288 4403 
L 4288 3438 
Q 3953 3666 3628 3772 
Q 3303 3878 2944 3878 
Q 2300 3878 1931 3465 
Q 1563 3053 1563 2328 
Q 1563 1606 1931 1193 
Q 2300 781 2944 781 
Q 3303 781 3628 887 
Q 3953 994 4288 1222 
L 4288 256 
z
" transform="scale(0.015625)"/>
       <path id="DejaVuSans-Bold-61" d="M 2106 1575 
Q 1756 1575 1579 1456 
Q 1403 1338 1403 1106 
Q 1403 894 1545 773 
Q 1688 653 1941 653 
Q 2256 653 2472 879 
Q 2688 1106 2688 1447 
L 2688 1575 
L 2106 1575 
z
M 3816 1997 
L 3816 0 
L 2688 0 
L 2688 519 
Q 2463 200 2181 54 
Q 1900 -91 1497 -91 
Q 953 -91 614 226 
Q 275 544 275 1050 
Q 275 1666 698 1953 
Q 1122 2241 2028 2241 
L 2688 2241 
L 2688 2328 
Q 2688 2594 2478 2717 
Q 2269 2841 1825 2841 
Q 1466 2841 1156 2769 
Q 847 2697 581 2553 
L 581 3406 
Q 941 3494 1303 3539 
Q 1666 3584 2028 3584 
Q 2975 3584 3395 3211 
Q 3816 2838 3816 1997 
z
" transform="scale(0.015625)"/>
       <path id="DejaVuSans-Bold-6c" d="M 538 4863 
L 1656 4863 
L 1656 0 
L 538 0 
L 538 4863 
z
" transform="scale(0.015625)"/>
       <path id="DejaVuSans-Bold-63" d="M 3366 3391 
L 3366 2478 
Q 3138 2634 2908 2709 
Q 2678 2784 2431 2784 
Q 1963 2784 1702 2511 
Q 1441 2238 1441 1747 
Q 1441 1256 1702 982 
Q 1963 709 2431 709 
Q 2694 709 2930 787 
Q 3166 866 3366 1019 
L 3366 103 
Q 3103 6 2833 -42 
Q 2563 -91 2291 -91 
Q 1344 -91 809 395 
Q 275 881 275 1747 
Q 275 2613 809 3098 
Q 1344 3584 2291 3584 
Q 2566 3584 2833 3536 
Q 3100 3488 3366 3391 
z
" transform="scale(0.015625)"/>
      </defs>
      <use xlink:href="#DejaVuSans-Bold-43"/>
      <use xlink:href="#DejaVuSans-Bold-61" x="73.388672"/>
      <use xlink:href="#DejaVuSans-Bold-6c" x="140.869141"/>
      <use xlink:href="#DejaVuSans-Bold-63" x="175.146484"/>
     </g>
    </g>
   </g>
   <g id="text_5">
    <g clip-path="url(#pfbaf6cc970)">
     <!-- 1060 -->
     <g transform="translate(604.77859 409.393196) scale(0.1 -0.1)">
      <defs>
       <path id="DejaVuSans-Bold-36" d="M 2316 2303 
Q 2000 2303 1842 2098 
Q 1684 1894 1684 1484 
Q 1684 1075 1842 870 
Q 2000 666 2316 666 
Q 2634 666 2792 870 
Q 2950 1075 2950 1484 
Q 2950 1894 2792 2098 
Q 2634 2303 2316 2303 
z
M 3803 4544 
L 3803 3681 
Q 3506 3822 3243 3889 
Q 2981 3956 2731 3956 
Q 2194 3956 1894 3657 
Q 1594 3359 1544 2772 
Q 1750 2925 1990 3001 
Q 2231 3078 2516 3078 
Q 3231 3078 3670 2659 
Q 4109 2241 4109 1563 
Q 4109 813 3618 361 
Q 3128 -91 2303 -91 
Q 1394 -91 895 523 
Q 397 1138 397 2266 
Q 397 3422 980 4083 
Q 1563 4744 2578 4744 
Q 2900 4744 3203 4694 
Q 3506 4644 3803 4544 
z
" transform="scale(0.015625)"/>
      </defs>
      <use xlink:href="#DejaVuSans-Bold-31"/>
      <use xlink:href="#DejaVuSans-Bold-30" x="69.580078"/>
      <use xlink:href="#DejaVuSans-Bold-36" x="139.160156"/>
      <use xlink:href="#DejaVuSans-Bold-30" x="208.740234"/>
     </g>
    </g>
    <g clip-path="url(#pfbaf6cc970)">
     <!-- MVC -->
     <g transform="translate(606.179371 420.591009) scale(0.1 -0.1)">
      <defs>
       <path id="DejaVuSans-Bold-4d" d="M 588 4666 
L 2119 4666 
L 3181 2169 
L 4250 4666 
L 5778 4666 
L 5778 0 
L 4641 0 
L 4641 3413 
L 3566 897 
L 2803 897 
L 1728 3413 
L 1728 0 
L 588 0 
L 588 4666 
z
" transform="scale(0.015625)"/>
       <path id="DejaVuSans-Bold-56" d="M 31 4666 
L 1241 4666 
L 2478 1222 
L 3713 4666 
L 4922 4666 
L 3194 0 
L 1759 0 
L 31 4666 
z
" transform="scale(0.015625)"/>
      </defs>
      <use xlink:href="#DejaVuSans-Bold-4d"/>
      <use xlink:href="#DejaVuSans-Bold-56" x="99.511719"/>
      <use xlink:href="#DejaVuSans-Bold-43" x="176.904297"/>
     </g>
    </g>
   </g>
   <g id="text_6">
    <g clip-path="url(#pfbaf6cc970)">
     <!-- 2003 -->
     <g transform="translate(51.39016 287.211378) scale(0.1 -0.1)">
      <defs>
       <path id="DejaVuSans-Bold-33" d="M 2981 2516 
Q 3453 2394 3698 2092 
Q 3944 1791 3944 1325 
Q 3944 631 3412 270 
Q 2881 -91 1863 -91 
Q 1503 -91 1142 -33 
Q 781 25 428 141 
L 428 1069 
Q 766 900 1098 814 
Q 1431 728 1753 728 
Q 2231 728 2486 893 
Q 2741 1059 2741 1369 
Q 2741 1688 2480 1852 
Q 2219 2016 1709 2016 
L 1228 2016 
L 1228 2791 
L 1734 2791 
Q 2188 2791 2409 2933 
Q 2631 3075 2631 3366 
Q 2631 3634 2415 3781 
Q 2200 3928 1806 3928 
Q 1516 3928 1219 3862 
Q 922 3797 628 3669 
L 628 4550 
Q 984 4650 1334 4700 
Q 1684 4750 2022 4750 
Q 2931 4750 3382 4451 
Q 3834 4153 3834 3553 
Q 3834 3144 3618 2883 
Q 3403 2622 2981 2516 
z
" transform="scale(0.015625)"/>
      </defs>
      <use xlink:href="#DejaVuSans-Bold-32"/>
      <use xlink:href="#DejaVuSans-Bold-30" x="69.580078"/>
      <use xlink:href="#DejaVuSans-Bold-30" x="139.160156"/>
      <use xlink:href="#DejaVuSans-Bold-33" x="208.740234"/>
     </g>
    </g>
    <g clip-path="url(#pfbaf6cc970)">
     <!-- Groups -->
     <g transform="translate(45.187035 298.40919) scale(0.1 -0.1)">
      <defs>
       <path id="DejaVuSans-Bold-47" d="M 4781 347 
Q 4331 128 3847 18 
Q 3363 -91 2847 -91 
Q 1681 -91 1000 561 
Q 319 1213 319 2328 
Q 319 3456 1012 4103 
Q 1706 4750 2913 4750 
Q 3378 4750 3804 4662 
Q 4231 4575 4609 4403 
L 4609 3438 
Q 4219 3659 3833 3768 
Q 3447 3878 3059 3878 
Q 2341 3878 1952 3476 
Q 1563 3075 1563 2328 
Q 1563 1588 1938 1184 
Q 2313 781 3003 781 
Q 3191 781 3352 804 
Q 3513 828 3641 878 
L 3641 1784 
L 2906 1784 
L 2906 2591 
L 4781 2591 
L 4781 347 
z
" transform="scale(0.015625)"/>
       <path id="DejaVuSans-Bold-72" d="M 3138 2547 
Q 2991 2616 2845 2648 
Q 2700 2681 2553 2681 
Q 2122 2681 1889 2404 
Q 1656 2128 1656 1613 
L 1656 0 
L 538 0 
L 538 3500 
L 1656 3500 
L 1656 2925 
Q 1872 3269 2151 3426 
Q 2431 3584 2822 3584 
Q 2878 3584 2943 3579 
Q 3009 3575 3134 3559 
L 3138 2547 
z
" transform="scale(0.015625)"/>
       <path id="DejaVuSans-Bold-6f" d="M 2203 2784 
Q 1831 2784 1636 2517 
Q 1441 2250 1441 1747 
Q 1441 1244 1636 976 
Q 1831 709 2203 709 
Q 2569 709 2762 976 
Q 2956 1244 2956 1747 
Q 2956 2250 2762 2517 
Q 2569 2784 2203 2784 
z
M 2203 3584 
Q 3106 3584 3614 3096 
Q 4122 2609 4122 1747 
Q 4122 884 3614 396 
Q 3106 -91 2203 -91 
Q 1297 -91 786 396 
Q 275 884 275 1747 
Q 275 2609 786 3096 
Q 1297 3584 2203 3584 
z
" transform="scale(0.015625)"/>
       <path id="DejaVuSans-Bold-70" d="M 1656 506 
L 1656 -1331 
L 538 -1331 
L 538 3500 
L 1656 3500 
L 1656 2988 
Q 1888 3294 2169 3439 
Q 2450 3584 2816 3584 
Q 3463 3584 3878 3070 
Q 4294 2556 4294 1747 
Q 4294 938 3878 423 
Q 3463 -91 2816 -91 
Q 2450 -91 2169 54 
Q 1888 200 1656 506 
z
M 2400 2772 
Q 2041 2772 1848 2508 
Q 1656 2244 1656 1747 
Q 1656 1250 1848 986 
Q 2041 722 2400 722 
Q 2759 722 2948 984 
Q 3138 1247 3138 1747 
Q 3138 2247 2948 2509 
Q 2759 2772 2400 2772 
z
" transform="scale(0.015625)"/>
       <path id="DejaVuSans-Bold-73" d="M 3272 3391 
L 3272 2541 
Q 2913 2691 2578 2766 
Q 2244 2841 1947 2841 
Q 1628 2841 1473 2761 
Q 1319 2681 1319 2516 
Q 1319 2381 1436 2309 
Q 1553 2238 1856 2203 
L 2053 2175 
Q 2913 2066 3209 1816 
Q 3506 1566 3506 1031 
Q 3506 472 3093 190 
Q 2681 -91 1863 -91 
Q 1516 -91 1145 -36 
Q 775 19 384 128 
L 384 978 
Q 719 816 1070 734 
Q 1422 653 1784 653 
Q 2113 653 2278 743 
Q 2444 834 2444 1013 
Q 2444 1163 2330 1236 
Q 2216 1309 1875 1350 
L 1678 1375 
Q 931 1469 631 1722 
Q 331 1975 331 2491 
Q 331 3047 712 3315 
Q 1094 3584 1881 3584 
Q 2191 3584 2531 3537 
Q 2872 3491 3272 3391 
z
" transform="scale(0.015625)"/>
      </defs>
      <use xlink:href="#DejaVuSans-Bold-47"/>
      <use xlink:href="#DejaVuSans-Bold-72" x="82.080078"/>
      <use xlink:href="#DejaVuSans-Bold-6f" x="131.396484"/>
      <use xlink:href="#DejaVuSans-Bold-75" x="200.097656"/>
      <use xlink:href="#DejaVuSans-Bold-70" x="271.289062"/>
      <use xlink:href="#DejaVuSans-Bold-73" x="342.871094"/>
     </g>
    </g>
   </g>
   <g id="text_7">
    <g clip-path="url(#pfbaf6cc970)">
     <!-- 2039 -->
     <g transform="translate(328.084375 287.172315) scale(0.1 -0.1)">
      <use xlink:href="#DejaVuSans-Bold-32"/>
      <use xlink:href="#DejaVuSans-Bold-30" x="69.580078"/>
      <use xlink:href="#DejaVuSans-Bold-33" x="139.160156"/>
      <use xlink:href="#DejaVuSans-Bold-39" x="208.740234"/>
     </g>
    </g>
    <g clip-path="url(#pfbaf6cc970)">
     <!-- Analysis -->
     <g transform="translate(318.557813 298.370128) scale(0.1 -0.1)">
      <defs>
       <path id="DejaVuSans-Bold-6e" d="M 4056 2131 
L 4056 0 
L 2931 0 
L 2931 347 
L 2931 1631 
Q 2931 2084 2911 2256 
Q 2891 2428 2841 2509 
Q 2775 2619 2662 2680 
Q 2550 2741 2406 2741 
Q 2056 2741 1856 2470 
Q 1656 2200 1656 1722 
L 1656 0 
L 538 0 
L 538 3500 
L 1656 3500 
L 1656 2988 
Q 1909 3294 2193 3439 
Q 2478 3584 2822 3584 
Q 3428 3584 3742 3212 
Q 4056 2841 4056 2131 
z
" transform="scale(0.015625)"/>
       <path id="DejaVuSans-Bold-79" d="M 78 3500 
L 1197 3500 
L 2138 1125 
L 2938 3500 
L 4056 3500 
L 2584 -331 
Q 2363 -916 2067 -1148 
Q 1772 -1381 1288 -1381 
L 641 -1381 
L 641 -647 
L 991 -647 
Q 1275 -647 1404 -556 
Q 1534 -466 1606 -231 
L 1638 -134 
L 78 3500 
z
" transform="scale(0.015625)"/>
       <path id="DejaVuSans-Bold-69" d="M 538 3500 
L 1656 3500 
L 1656 0 
L 538 0 
L 538 3500 
z
M 538 4863 
L 1656 4863 
L 1656 3950 
L 538 3950 
L 538 4863 
z
" transform="scale(0.015625)"/>
      </defs>
      <use xlink:href="#DejaVuSans-Bold-41"/>
      <use xlink:href="#DejaVuSans-Bold-6e" x="77.392578"/>
      <use xlink:href="#DejaVuSans-Bold-61" x="148.583984"/>
      <use xlink:href="#DejaVuSans-Bold-6c" x="216.064453"/>
      <use xlink:href="#DejaVuSans-Bold-79" x="250.341797"/>
      <use xlink:href="#DejaVuSans-Bold-73" x="315.527344"/>
      <use xlink:href="#DejaVuSans-Bold-69" x="375.048828"/>
      <use xlink:href="#DejaVuSans-Bold-73" x="409.326172"/>
     </g>
    </g>
   </g>
   <g id="text_8">
    <g clip-path="url(#pfbaf6cc970)">
     <!-- 2049 -->
     <g transform="translate(604.77859 287.211378) scale(0.1 -0.1)">
      <use xlink:href="#DejaVuSans-Bold-32"/>
      <use xlink:href="#DejaVuSans-Bold-30" x="69.580078"/>
      <use xlink:href="#DejaVuSans-Bold-34" x="139.160156"/>
      <use xlink:href="#DejaVuSans-Bold-39" x="208.740234"/>
     </g>
    </g>
    <g clip-path="url(#pfbaf6cc970)">
     <!-- GT -->
     <g transform="translate(611.266871 298.40919) scale(0.1 -0.1)">
      <use xlink:href="#DejaVuSans-Bold-47"/>
      <use xlink:href="#DejaVuSans-Bold-54" x="80.330078"/>
     </g>
    </g>
   </g>
   <g id="text_9">
    <g clip-path="url(#pfbaf6cc970)">
     <!-- 3033 -->
     <g transform="translate(51.39016 165.02956) scale(0.1 -0.1)">
      <use xlink:href="#DejaVuSans-Bold-33"/>
      <use xlink:href="#DejaVuSans-Bold-30" x="69.580078"/>
      <use xlink:href="#DejaVuSans-Bold-33" x="139.160156"/>
      <use xlink:href="#DejaVuSans-Bold-33" x="208.740234"/>
     </g>
    </g>
    <g clip-path="url(#pfbaf6cc970)">
     <!-- Graph -->
     <g transform="translate(48.223754 176.227372) scale(0.1 -0.1)">
      <use xlink:href="#DejaVuSans-Bold-47"/>
      <use xlink:href="#DejaVuSans-Bold-72" x="82.080078"/>
      <use xlink:href="#DejaVuSans-Bold-61" x="131.396484"/>
      <use xlink:href="#DejaVuSans-Bold-70" x="198.876953"/>
      <use xlink:href="#DejaVuSans-Bold-68" x="270.458984"/>
     </g>
    </g>
   </g>
   <g id="text_10">
    <g clip-path="url(#pfbaf6cc970)">
     <!-- 3076 -->
     <g transform="translate(130.44565 165.02956) scale(0.1 -0.1)">
      <defs>
       <path id="DejaVuSans-Bold-37" d="M 428 4666 
L 3944 4666 
L 3944 3988 
L 2125 0 
L 953 0 
L 2675 3781 
L 428 3781 
L 428 4666 
z
" transform="scale(0.015625)"/>
      </defs>
      <use xlink:href="#DejaVuSans-Bold-33"/>
      <use xlink:href="#DejaVuSans-Bold-30" x="69.580078"/>
      <use xlink:href="#DejaVuSans-Bold-37" x="139.160156"/>
      <use xlink:href="#DejaVuSans-Bold-36" x="208.740234"/>
     </g>
    </g>
    <g clip-path="url(#pfbaf6cc970)">
     <!-- HilS -->
     <g transform="translate(133.147994 176.227372) scale(0.1 -0.1)">
      <defs>
       <path id="DejaVuSans-Bold-48" d="M 588 4666 
L 1791 4666 
L 1791 2888 
L 3566 2888 
L 3566 4666 
L 4769 4666 
L 4769 0 
L 3566 0 
L 3566 1978 
L 1791 1978 
L 1791 0 
L 588 0 
L 588 4666 
z
" transform="scale(0.015625)"/>
       <path id="DejaVuSans-Bold-53" d="M 3834 4519 
L 3834 3531 
Q 3450 3703 3084 3790 
Q 2719 3878 2394 3878 
Q 1963 3878 1756 3759 
Q 1550 3641 1550 3391 
Q 1550 3203 1689 3098 
Q 1828 2994 2194 2919 
L 2706 2816 
Q 3484 2659 3812 2340 
Q 4141 2022 4141 1434 
Q 4141 663 3683 286 
Q 3225 -91 2284 -91 
Q 1841 -91 1394 -6 
Q 947 78 500 244 
L 500 1259 
Q 947 1022 1364 901 
Q 1781 781 2169 781 
Q 2563 781 2772 912 
Q 2981 1044 2981 1288 
Q 2981 1506 2839 1625 
Q 2697 1744 2272 1838 
L 1806 1941 
Q 1106 2091 782 2419 
Q 459 2747 459 3303 
Q 459 4000 909 4375 
Q 1359 4750 2203 4750 
Q 2588 4750 2994 4692 
Q 3400 4634 3834 4519 
z
" transform="scale(0.015625)"/>
      </defs>
      <use xlink:href="#DejaVuSans-Bold-48"/>
      <use xlink:href="#DejaVuSans-Bold-69" x="83.691406"/>
      <use xlink:href="#DejaVuSans-Bold-6c" x="117.96875"/>
      <use xlink:href="#DejaVuSans-Bold-53" x="152.246094"/>
     </g>
    </g>
   </g>
   <g id="text_11">
    <g clip-path="url(#pfbaf6cc970)">
     <!-- 3078 -->
     <g transform="translate(209.50114 165.02956) scale(0.1 -0.1)">
      <use xlink:href="#DejaVuSans-Bold-33"/>
      <use xlink:href="#DejaVuSans-Bold-30" x="69.580078"/>
      <use xlink:href="#DejaVuSans-Bold-37" x="139.160156"/>
      <use xlink:href="#DejaVuSans-Bold-38" x="208.740234"/>
     </g>
    </g>
    <g clip-path="url(#pfbaf6cc970)">
     <!-- FNT -->
     <g transform="translate(212.405828 176.227372) scale(0.1 -0.1)">
      <defs>
       <path id="DejaVuSans-Bold-46" d="M 588 4666 
L 3834 4666 
L 3834 3756 
L 1791 3756 
L 1791 2888 
L 3713 2888 
L 3713 1978 
L 1791 1978 
L 1791 0 
L 588 0 
L 588 4666 
z
" transform="scale(0.015625)"/>
      </defs>
      <use xlink:href="#DejaVuSans-Bold-46"/>
      <use xlink:href="#DejaVuSans-Bold-4e" x="68.310547"/>
      <use xlink:href="#DejaVuSans-Bold-54" x="152.001953"/>
     </g>
    </g>
   </g>
   <g id="text_12">
    <g clip-path="url(#pfbaf6cc970)">
     <!-- 3080 -->
     <g transform="translate(288.55663 165.02956) scale(0.1 -0.1)">
      <use xlink:href="#DejaVuSans-Bold-33"/>
      <use xlink:href="#DejaVuSans-Bold-30" x="69.580078"/>
      <use xlink:href="#DejaVuSans-Bold-38" x="139.160156"/>
      <use xlink:href="#DejaVuSans-Bold-30" x="208.740234"/>
     </g>
    </g>
    <g clip-path="url(#pfbaf6cc970)">
     <!-- AT -->
     <g transform="translate(295.579286 176.227372) scale(0.1 -0.1)">
      <use xlink:href="#DejaVuSans-Bold-41"/>
      <use xlink:href="#DejaVuSans-Bold-54" x="69.642578"/>
     </g>
    </g>
   </g>
   <g id="text_13">
    <g clip-path="url(#pfbaf6cc970)">
     <!-- 3086 -->
     <g transform="translate(367.61212 165.02956) scale(0.1 -0.1)">
      <use xlink:href="#DejaVuSans-Bold-33"/>
      <use xlink:href="#DejaVuSans-Bold-30" x="69.580078"/>
      <use xlink:href="#DejaVuSans-Bold-38" x="139.160156"/>
      <use xlink:href="#DejaVuSans-Bold-36" x="208.740234"/>
     </g>
    </g>
    <g clip-path="url(#pfbaf6cc970)">
     <!-- GalT -->
     <g transform="translate(368.92462 176.227372) scale(0.1 -0.1)">
      <use xlink:href="#DejaVuSans-Bold-47"/>
      <use xlink:href="#DejaVuSans-Bold-61" x="82.080078"/>
      <use xlink:href="#DejaVuSans-Bold-6c" x="149.560547"/>
      <use xlink:href="#DejaVuSans-Bold-54" x="183.837891"/>
     </g>
    </g>
   </g>
   <g id="text_14">
    <g clip-path="url(#pfbaf6cc970)">
     <!-- 3088 -->
     <g transform="translate(446.66761 165.02956) scale(0.1 -0.1)">
      <use xlink:href="#DejaVuSans-Bold-33"/>
      <use xlink:href="#DejaVuSans-Bold-30" x="69.580078"/>
      <use xlink:href="#DejaVuSans-Bold-38" x="139.160156"/>
      <use xlink:href="#DejaVuSans-Bold-38" x="208.740234"/>
     </g>
    </g>
    <g clip-path="url(#pfbaf6cc970)">
     <!-- CA -->
     <g transform="translate(453.044172 176.227372) scale(0.1 -0.1)">
      <use xlink:href="#DejaVuSans-Bold-43"/>
      <use xlink:href="#DejaVuSans-Bold-41" x="73.388672"/>
     </g>
    </g>
   </g>
   <g id="text_15">
    <g clip-path="url(#pfbaf6cc970)">
     <!-- 3090 -->
     <g transform="translate(525.7231 165.02956) scale(0.1 -0.1)">
      <use xlink:href="#DejaVuSans-Bold-33"/>
      <use xlink:href="#DejaVuSans-Bold-30" x="69.580078"/>
      <use xlink:href="#DejaVuSans-Bold-39" x="139.160156"/>
      <use xlink:href="#DejaVuSans-Bold-30" x="208.740234"/>
     </g>
    </g>
    <g clip-path="url(#pfbaf6cc970)">
     <!-- Networks -->
     <g transform="translate(512.852006 176.227372) scale(0.1 -0.1)">
      <defs>
       <path id="DejaVuSans-Bold-65" d="M 4031 1759 
L 4031 1441 
L 1416 1441 
Q 1456 1047 1700 850 
Q 1944 653 2381 653 
Q 2734 653 3104 758 
Q 3475 863 3866 1075 
L 3866 213 
Q 3469 63 3072 -14 
Q 2675 -91 2278 -91 
Q 1328 -91 801 392 
Q 275 875 275 1747 
Q 275 2603 792 3093 
Q 1309 3584 2216 3584 
Q 3041 3584 3536 3087 
Q 4031 2591 4031 1759 
z
M 2881 2131 
Q 2881 2450 2695 2645 
Q 2509 2841 2209 2841 
Q 1884 2841 1681 2658 
Q 1478 2475 1428 2131 
L 2881 2131 
z
" transform="scale(0.015625)"/>
       <path id="DejaVuSans-Bold-74" d="M 1759 4494 
L 1759 3500 
L 2913 3500 
L 2913 2700 
L 1759 2700 
L 1759 1216 
Q 1759 972 1856 886 
Q 1953 800 2241 800 
L 2816 800 
L 2816 0 
L 1856 0 
Q 1194 0 917 276 
Q 641 553 641 1216 
L 641 2700 
L 84 2700 
L 84 3500 
L 641 3500 
L 641 4494 
L 1759 4494 
z
" transform="scale(0.015625)"/>
       <path id="DejaVuSans-Bold-77" d="M 225 3500 
L 1313 3500 
L 1900 1088 
L 2491 3500 
L 3425 3500 
L 4013 1113 
L 4603 3500 
L 5691 3500 
L 4769 0 
L 3547 0 
L 2956 2406 
L 2369 0 
L 1147 0 
L 225 3500 
z
" transform="scale(0.015625)"/>
       <path id="DejaVuSans-Bold-6b" d="M 538 4863 
L 1656 4863 
L 1656 2216 
L 2944 3500 
L 4244 3500 
L 2534 1894 
L 4378 0 
L 3022 0 
L 1656 1459 
L 1656 0 
L 538 0 
L 538 4863 
z
" transform="scale(0.015625)"/>
      </defs>
      <use xlink:href="#DejaVuSans-Bold-4e"/>
      <use xlink:href="#DejaVuSans-Bold-65" x="83.691406"/>
      <use xlink:href="#DejaVuSans-Bold-74" x="151.513672"/>
      <use xlink:href="#DejaVuSans-Bold-77" x="199.316406"/>
      <use xlink:href="#DejaVuSans-Bold-6f" x="291.699219"/>
      <use xlink:href="#DejaVuSans-Bold-72" x="360.400391"/>
      <use xlink:href="#DejaVuSans-Bold-6b" x="409.716797"/>
      <use xlink:href="#DejaVuSans-Bold-73" x="476.220703"/>
     </g>
    </g>
   </g>
   <g id="text_16">
    <g clip-path="url(#pfbaf6cc970)">
     <!-- 3092 -->
     <g transform="translate(604.77859 164.990497) scale(0.1 -0.1)">
      <use xlink:href="#DejaVuSans-Bold-33"/>
      <use xlink:href="#DejaVuSans-Bold-30" x="69.580078"/>
      <use xlink:href="#DejaVuSans-Bold-39" x="139.160156"/>
      <use xlink:href="#DejaVuSans-Bold-32" x="208.740234"/>
     </g>
    </g>
    <g clip-path="url(#pfbaf6cc970)">
     <!-- Project -->
     <g transform="translate(598.669215 176.18831) scale(0.1 -0.1)">
      <defs>
       <path id="DejaVuSans-Bold-50" d="M 588 4666 
L 2584 4666 
Q 3475 4666 3951 4270 
Q 4428 3875 4428 3144 
Q 4428 2409 3951 2014 
Q 3475 1619 2584 1619 
L 1791 1619 
L 1791 0 
L 588 0 
L 588 4666 
z
M 1791 3794 
L 1791 2491 
L 2456 2491 
Q 2806 2491 2997 2661 
Q 3188 2831 3188 3144 
Q 3188 3456 2997 3625 
Q 2806 3794 2456 3794 
L 1791 3794 
z
" transform="scale(0.015625)"/>
       <path id="DejaVuSans-Bold-6a" d="M 538 3500 
L 1656 3500 
L 1656 63 
Q 1656 -641 1318 -1011 
Q 981 -1381 341 -1381 
L -213 -1381 
L -213 -647 
L -19 -647 
Q 300 -647 419 -503 
Q 538 -359 538 63 
L 538 3500 
z
M 538 4863 
L 1656 4863 
L 1656 3950 
L 538 3950 
L 538 4863 
z
" transform="scale(0.015625)"/>
      </defs>
      <use xlink:href="#DejaVuSans-Bold-50"/>
      <use xlink:href="#DejaVuSans-Bold-72" x="73.291016"/>
      <use xlink:href="#DejaVuSans-Bold-6f" x="122.607422"/>
      <use xlink:href="#DejaVuSans-Bold-6a" x="191.308594"/>
      <use xlink:href="#DejaVuSans-Bold-65" x="225.585938"/>
      <use xlink:href="#DejaVuSans-Bold-63" x="293.408203"/>
      <use xlink:href="#DejaVuSans-Bold-74" x="352.685547"/>
     </g>
    </g>
   </g>
   <g id="text_17">
    <g clip-path="url(#pfbaf6cc970)">
     <!-- 6079 -->
     <g transform="translate(51.39016 42.808679) scale(0.1 -0.1)">
      <use xlink:href="#DejaVuSans-Bold-36"/>
      <use xlink:href="#DejaVuSans-Bold-30" x="69.580078"/>
      <use xlink:href="#DejaVuSans-Bold-37" x="139.160156"/>
      <use xlink:href="#DejaVuSans-Bold-39" x="208.740234"/>
     </g>
    </g>
    <g clip-path="url(#pfbaf6cc970)">
     <!-- HypG -->
     <g transform="translate(50.179223 54.006491) scale(0.1 -0.1)">
      <use xlink:href="#DejaVuSans-Bold-48"/>
      <use xlink:href="#DejaVuSans-Bold-79" x="83.691406"/>
      <use xlink:href="#DejaVuSans-Bold-70" x="148.876953"/>
      <use xlink:href="#DejaVuSans-Bold-47" x="220.458984"/>
     </g>
    </g>
   </g>
   <g id="text_18">
    <g clip-path="url(#pfbaf6cc970)">
     <!-- 6094 -->
     <g transform="translate(130.44565 42.847741) scale(0.1 -0.1)">
      <use xlink:href="#DejaVuSans-Bold-36"/>
      <use xlink:href="#DejaVuSans-Bold-30" x="69.580078"/>
      <use xlink:href="#DejaVuSans-Bold-39" x="139.160156"/>
      <use xlink:href="#DejaVuSans-Bold-34" x="208.740234"/>
     </g>
    </g>
    <g clip-path="url(#pfbaf6cc970)">
     <!-- GGT -->
     <g transform="translate(132.830025 54.045554) scale(0.1 -0.1)">
      <use xlink:href="#DejaVuSans-Bold-47"/>
      <use xlink:href="#DejaVuSans-Bold-47" x="82.080078"/>
      <use xlink:href="#DejaVuSans-Bold-54" x="162.410156"/>
     </g>
    </g>
   </g>
   <g id="text_19">
    <g clip-path="url(#pfbaf6cc970)">
     <!-- 6095 -->
     <g transform="translate(209.50114 42.847741) scale(0.1 -0.1)">
      <use xlink:href="#DejaVuSans-Bold-36"/>
      <use xlink:href="#DejaVuSans-Bold-30" x="69.580078"/>
      <use xlink:href="#DejaVuSans-Bold-39" x="139.160156"/>
      <use xlink:href="#DejaVuSans-Bold-35" x="208.740234"/>
     </g>
    </g>
    <g clip-path="url(#pfbaf6cc970)">
     <!-- IST -->
     <g transform="translate(214.54489 54.045554) scale(0.1 -0.1)">
      <defs>
       <path id="DejaVuSans-Bold-49" d="M 588 4666 
L 1791 4666 
L 1791 0 
L 588 0 
L 588 4666 
z
" transform="scale(0.015625)"/>
      </defs>
      <use xlink:href="#DejaVuSans-Bold-49"/>
      <use xlink:href="#DejaVuSans-Bold-53" x="37.207031"/>
      <use xlink:href="#DejaVuSans-Bold-54" x="109.228516"/>
     </g>
    </g>
   </g>
   <g id="text_20">
    <g clip-path="url(#pfbaf6cc970)">
     <!-- 6137 -->
     <g transform="translate(288.55663 42.847741) scale(0.1 -0.1)">
      <use xlink:href="#DejaVuSans-Bold-36"/>
      <use xlink:href="#DejaVuSans-Bold-31" x="69.580078"/>
      <use xlink:href="#DejaVuSans-Bold-33" x="139.160156"/>
      <use xlink:href="#DejaVuSans-Bold-37" x="208.740234"/>
     </g>
    </g>
    <g clip-path="url(#pfbaf6cc970)">
     <!-- HH -->
     <g transform="translate(294.103505 54.045554) scale(0.1 -0.1)">
      <use xlink:href="#DejaVuSans-Bold-48"/>
      <use xlink:href="#DejaVuSans-Bold-48" x="83.691406"/>
     </g>
    </g>
   </g>
   <g id="text_21">
    <g clip-path="url(#pfbaf6cc970)">
     <!-- 6140 -->
     <g transform="translate(367.61212 42.847741) scale(0.1 -0.1)">
      <use xlink:href="#DejaVuSans-Bold-36"/>
      <use xlink:href="#DejaVuSans-Bold-31" x="69.580078"/>
      <use xlink:href="#DejaVuSans-Bold-34" x="139.160156"/>
      <use xlink:href="#DejaVuSans-Bold-30" x="208.740234"/>
     </g>
    </g>
    <g clip-path="url(#pfbaf6cc970)">
     <!-- Networks -->
     <g transform="translate(354.741026 54.045554) scale(0.1 -0.1)">
      <use xlink:href="#DejaVuSans-Bold-4e"/>
      <use xlink:href="#DejaVuSans-Bold-65" x="83.691406"/>
      <use xlink:href="#DejaVuSans-Bold-74" x="151.513672"/>
      <use xlink:href="#DejaVuSans-Bold-77" x="199.316406"/>
      <use xlink:href="#DejaVuSans-Bold-6f" x="291.699219"/>
      <use xlink:href="#DejaVuSans-Bold-72" x="360.400391"/>
      <use xlink:href="#DejaVuSans-Bold-6b" x="409.716797"/>
      <use xlink:href="#DejaVuSans-Bold-73" x="476.220703"/>
     </g>
    </g>
   </g>
   <g id="text_22">
    <g clip-path="url(#pfbaf6cc970)">
     <!-- 6144 -->
     <g transform="translate(446.66761 42.808679) scale(0.1 -0.1)">
      <use xlink:href="#DejaVuSans-Bold-36"/>
      <use xlink:href="#DejaVuSans-Bold-31" x="69.580078"/>
      <use xlink:href="#DejaVuSans-Bold-34" x="139.160156"/>
      <use xlink:href="#DejaVuSans-Bold-34" x="208.740234"/>
     </g>
    </g>
    <g clip-path="url(#pfbaf6cc970)">
     <!-- Project -->
     <g transform="translate(440.558235 54.006491) scale(0.1 -0.1)">
      <use xlink:href="#DejaVuSans-Bold-50"/>
      <use xlink:href="#DejaVuSans-Bold-72" x="73.291016"/>
      <use xlink:href="#DejaVuSans-Bold-6f" x="122.607422"/>
      <use xlink:href="#DejaVuSans-Bold-6a" x="191.308594"/>
      <use xlink:href="#DejaVuSans-Bold-65" x="225.585938"/>
      <use xlink:href="#DejaVuSans-Bold-63" x="293.408203"/>
      <use xlink:href="#DejaVuSans-Bold-74" x="352.685547"/>
     </g>
    </g>
   </g>
   <g id="text_23">
    <g clip-path="url(#pfbaf6cc970)">
     <!-- 6155 -->
     <g transform="translate(525.7231 42.847741) scale(0.1 -0.1)">
      <use xlink:href="#DejaVuSans-Bold-36"/>
      <use xlink:href="#DejaVuSans-Bold-31" x="69.580078"/>
      <use xlink:href="#DejaVuSans-Bold-35" x="139.160156"/>
      <use xlink:href="#DejaVuSans-Bold-35" x="208.740234"/>
     </g>
    </g>
    <g clip-path="url(#pfbaf6cc970)">
     <!-- HA -->
     <g transform="translate(531.584819 54.045554) scale(0.1 -0.1)">
      <use xlink:href="#DejaVuSans-Bold-48"/>
      <use xlink:href="#DejaVuSans-Bold-41" x="83.691406"/>
     </g>
    </g>
   </g>
   <g id="text_24">
    <g clip-path="url(#pfbaf6cc970)">
     <!-- 6156 -->
     <g transform="translate(604.77859 42.847741) scale(0.1 -0.1)">
      <use xlink:href="#DejaVuSans-Bold-36"/>
      <use xlink:href="#DejaVuSans-Bold-31" x="69.580078"/>
      <use xlink:href="#DejaVuSans-Bold-35" x="139.160156"/>
      <use xlink:href="#DejaVuSans-Bold-36" x="208.740234"/>
     </g>
    </g>
    <g clip-path="url(#pfbaf6cc970)">
     <!-- MR -->
     <g transform="translate(609.868434 54.045554) scale(0.1 -0.1)">
      <defs>
       <path id="DejaVuSans-Bold-52" d="M 2297 2597 
Q 2675 2597 2839 2737 
Q 3003 2878 3003 3200 
Q 3003 3519 2839 3656 
Q 2675 3794 2297 3794 
L 1791 3794 
L 1791 2597 
L 2297 2597 
z
M 1791 1766 
L 1791 0 
L 588 0 
L 588 4666 
L 2425 4666 
Q 3347 4666 3776 4356 
Q 4206 4047 4206 3378 
Q 4206 2916 3982 2619 
Q 3759 2322 3309 2181 
Q 3556 2125 3751 1926 
Q 3947 1728 4147 1325 
L 4800 0 
L 3519 0 
L 2950 1159 
Q 2778 1509 2601 1637 
Q 2425 1766 2131 1766 
L 1791 1766 
z
" transform="scale(0.015625)"/>
      </defs>
      <use xlink:href="#DejaVuSans-Bold-4d"/>
      <use xlink:href="#DejaVuSans-Bold-52" x="99.511719"/>
     </g>
    </g>
   </g>
  </g>
 </g>
 <defs>
  <clipPath id="pfbaf6cc970">
   <rect x="7.2" y="7.2" width="669.6" height="443.52"/>
  </clipPath>
 </defs>
</svg>
