<?xml version="1.0" encoding="utf-8" standalone="no"?>
<!DOCTYPE svg PUBLIC "-//W3C//DTD SVG 1.1//EN"
  "http://www.w3.org/Graphics/SVG/1.1/DTD/svg11.dtd">
<svg xmlns:xlink="http://www.w3.org/1999/xlink" width="684pt" height="457.92pt" viewBox="0 0 684 457.92" xmlns="http://www.w3.org/2000/svg" version="1.1">
 <metadata>
  <rdf:RDF xmlns:dc="http://purl.org/dc/elements/1.1/" xmlns:cc="http://creativecommons.org/ns#" xmlns:rdf="http://www.w3.org/1999/02/22-rdf-syntax-ns#">
   <cc:Work>
    <dc:type rdf:resource="http://purl.org/dc/dcmitype/StillImage"/>
    <dc:date>2023-11-27T16:33:52.145174</dc:date>
    <dc:format>image/svg+xml</dc:format>
    <dc:creator>
     <cc:Agent>
      <dc:title>Matplotlib v3.7.2, https://matplotlib.org/</dc:title>
     </cc:Agent>
    </dc:creator>
   </cc:Work>
  </rdf:RDF>
 </metadata>
 <defs>
  <style type="text/css">*{stroke-linejoin: round; stroke-linecap: butt}</style>
 </defs>
 <g id="figure_1">
  <g id="patch_1">
   <path d="M 0 457.92 
L 684 457.92 
L 684 0 
L 0 0 
z
" style="fill: #ffffff"/>
  </g>
  <g id="axes_1">
   <g id="patch_2">
    <path d="M 77.453136 393.458757 
Q 144.362413 290.049151 210.664334 187.578224 
" clip-path="url(#pc883e421b5)" style="fill: none; stroke: #000000; stroke-linecap: round"/>
    <path d="M 206.812232 189.850076 
L 210.664334 187.578224 
L 210.170555 192.023017 
z
" clip-path="url(#pc883e421b5)" style="stroke: #000000; stroke-linecap: round"/>
   </g>
   <g id="patch_3">
    <path d="M 214.15631 412.232727 
Q 255.039076 412.232727 294.803808 412.232727 
" clip-path="url(#pc883e421b5)" style="fill: none; stroke: #000000; stroke-linecap: round"/>
    <path d="M 290.803808 410.232727 
L 294.803808 412.232727 
L 290.803808 414.232727 
z
" clip-path="url(#pc883e421b5)" style="stroke: #000000; stroke-linecap: round"/>
   </g>
   <g id="patch_4">
    <path d="M 214.153415 412.232727 
Q 381.527124 412.232727 547.7828 412.232727 
" clip-path="url(#pc883e421b5)" style="fill: none; stroke: #000000; stroke-linecap: round"/>
    <path d="M 543.7828 410.232727 
L 547.7828 412.232727 
L 543.7828 414.232727 
z
" clip-path="url(#pc883e421b5)" style="stroke: #000000; stroke-linecap: round"/>
   </g>
   <g id="patch_5">
    <path d="M 181.516969 392.377436 
Q 128.551119 290.052729 76.09922 188.720923 
" clip-path="url(#pc883e421b5)" style="fill: none; stroke: #000000; stroke-linecap: round"/>
    <path d="M 76.16183 193.192621 
L 76.09922 188.720923 
L 79.714144 191.353854 
z
" clip-path="url(#pc883e421b5)" style="stroke: #000000; stroke-linecap: round"/>
   </g>
   <g id="patch_6">
    <path d="M 208.341625 397.189315 
Q 326.190179 290.049749 443.211469 183.662271 
" clip-path="url(#pc883e421b5)" style="fill: none; stroke: #000000; stroke-linecap: round"/>
    <path d="M 438.906389 184.873172 
L 443.211469 183.662271 
L 441.597142 187.832876 
z
" clip-path="url(#pc883e421b5)" style="stroke: #000000; stroke-linecap: round"/>
   </g>
   <g id="patch_7">
    <path d="M 210.092798 399.378058 
Q 365.717714 290.050159 520.427781 181.364951 
" clip-path="url(#pc883e421b5)" style="fill: none; stroke: #000000; stroke-linecap: round"/>
    <path d="M 516.005037 182.027776 
L 520.427781 181.364951 
L 518.304395 185.300841 
z
" clip-path="url(#pc883e421b5)" style="stroke: #000000; stroke-linecap: round"/>
   </g>
   <g id="patch_8">
    <path d="M 202.073616 392.37464 
Q 286.661665 228.959019 370.735762 66.5363 
" clip-path="url(#pc883e421b5)" style="fill: none; stroke: #000000; stroke-linecap: round"/>
    <path d="M 367.120838 69.16923 
L 370.735762 66.5363 
L 370.673152 71.007998 
z
" clip-path="url(#pc883e421b5)" style="stroke: #000000; stroke-linecap: round"/>
   </g>
   <g id="patch_9">
    <path d="M 298.145048 402.506431 
Q 191.792403 351.140772 86.446521 300.261354 
" clip-path="url(#pc883e421b5)" style="fill: none; stroke: #000000; stroke-linecap: round"/>
    <path d="M 89.178608 303.801933 
L 86.446521 300.261354 
L 90.918236 300.200031 
z
" clip-path="url(#pc883e421b5)" style="stroke: #000000; stroke-linecap: round"/>
   </g>
   <g id="patch_10">
    <path d="M 302.200116 396.697127 
Q 191.7948 290.051132 82.193626 184.181898 
" clip-path="url(#pc883e421b5)" style="fill: none; stroke: #000000; stroke-linecap: round"/>
    <path d="M 83.681099 188.399412 
L 82.193626 184.181898 
L 86.460121 185.522428 
z
" clip-path="url(#pc883e421b5)" style="stroke: #000000; stroke-linecap: round"/>
   </g>
   <g id="patch_11">
    <path d="M 305.319343 394.018061 
Q 231.322988 290.051856 157.974937 186.996529 
" clip-path="url(#pc883e421b5)" style="fill: none; stroke: #000000; stroke-linecap: round"/>
    <path d="M 158.664951 191.415113 
L 157.974937 186.996529 
L 161.923812 189.095668 
z
" clip-path="url(#pc883e421b5)" style="stroke: #000000; stroke-linecap: round"/>
   </g>
   <g id="patch_12">
    <path d="M 333.295163 395.66055 
Q 428.962368 290.049442 523.878976 185.266949 
" clip-path="url(#pc883e421b5)" style="fill: none; stroke: #000000; stroke-linecap: round"/>
    <path d="M 519.711286 186.888787 
L 523.878976 185.266949 
L 522.675833 189.574204 
z
" clip-path="url(#pc883e421b5)" style="stroke: #000000; stroke-linecap: round"/>
   </g>
   <g id="patch_13">
    <path d="M 322.0851 390.198947 
Q 349.905529 228.960113 377.53586 68.823034 
" clip-path="url(#pc883e421b5)" style="fill: none; stroke: #000000; stroke-linecap: round"/>
    <path d="M 374.884865 72.424731 
L 377.53586 68.823034 
L 378.826621 73.104849 
z
" clip-path="url(#pc883e421b5)" style="stroke: #000000; stroke-linecap: round"/>
   </g>
   <g id="patch_14">
    <path d="M 422.410396 412.232727 
Q 381.52763 412.232727 341.762898 412.232727 
" clip-path="url(#pc883e421b5)" style="fill: none; stroke: #000000; stroke-linecap: round"/>
    <path d="M 345.762898 414.232727 
L 341.762898 412.232727 
L 345.762898 410.232727 
z
" clip-path="url(#pc883e421b5)" style="stroke: #000000; stroke-linecap: round"/>
   </g>
   <g id="patch_15">
    <path d="M 467.133878 412.232727 
Q 508.016644 412.232727 547.781376 412.232727 
" clip-path="url(#pc883e421b5)" style="fill: none; stroke: #000000; stroke-linecap: round"/>
    <path d="M 543.781376 410.232727 
L 547.781376 412.232727 
L 543.781376 414.232727 
z
" clip-path="url(#pc883e421b5)" style="stroke: #000000; stroke-linecap: round"/>
   </g>
   <g id="patch_16">
    <path d="M 426.662974 399.11332 
Q 360.445707 351.141403 295.133844 303.825416 
" clip-path="url(#pc883e421b5)" style="fill: none; stroke: #000000; stroke-linecap: round"/>
    <path d="M 297.199749 307.791779 
L 295.133844 303.825416 
L 299.546477 304.55251 
z
" clip-path="url(#pc883e421b5)" style="stroke: #000000; stroke-linecap: round"/>
   </g>
   <g id="patch_17">
    <path d="M 452.865385 391.385604 
Q 492.206401 290.048409 531.142798 189.753463 
" clip-path="url(#pc883e421b5)" style="fill: none; stroke: #000000; stroke-linecap: round"/>
    <path d="M 527.830752 192.758518 
L 531.142798 189.753463 
L 531.559614 194.206132 
z
" clip-path="url(#pc883e421b5)" style="stroke: #000000; stroke-linecap: round"/>
   </g>
   <g id="patch_18">
    <path d="M 440.97039 390.198947 
Q 413.149961 228.960113 385.51963 68.823034 
" clip-path="url(#pc883e421b5)" style="fill: none; stroke: #000000; stroke-linecap: round"/>
    <path d="M 384.228869 73.104849 
L 385.51963 68.823034 
L 388.170625 72.424731 
z
" clip-path="url(#pc883e421b5)" style="stroke: #000000; stroke-linecap: round"/>
   </g>
   <g id="patch_19">
    <path d="M 550.603428 403.680969 
Q 423.692315 351.142498 297.814216 299.031672 
" clip-path="url(#pc883e421b5)" style="fill: none; stroke: #000000; stroke-linecap: round"/>
    <path d="M 300.745045 302.409577 
L 297.814216 299.031672 
L 302.275037 298.713752 
z
" clip-path="url(#pc883e421b5)" style="stroke: #000000; stroke-linecap: round"/>
   </g>
   <g id="patch_20">
    <path d="M 551.122616 402.506431 
Q 318.282876 290.050679 86.449898 178.081167 
" clip-path="url(#pc883e421b5)" style="fill: none; stroke: #000000; stroke-linecap: round"/>
    <path d="M 89.181985 181.621746 
L 86.449898 178.081167 
L 90.921613 178.019844 
z
" clip-path="url(#pc883e421b5)" style="stroke: #000000; stroke-linecap: round"/>
   </g>
   <g id="patch_21">
    <path d="M 85.184255 279.810053 
Q 183.889889 228.959552 281.601627 178.62108 
" clip-path="url(#pc883e421b5)" style="fill: none; stroke: #000000; stroke-linecap: round"/>
    <path d="M 277.129817 178.675034 
L 281.601627 178.62108 
L 278.961704 182.230901 
z
" clip-path="url(#pc883e421b5)" style="stroke: #000000; stroke-linecap: round"/>
   </g>
   <g id="patch_22">
    <path d="M 86.162557 281.992271 
Q 223.418403 228.959367 359.631355 176.329417 
" clip-path="url(#pc883e421b5)" style="fill: none; stroke: #000000; stroke-linecap: round"/>
    <path d="M 355.179357 175.905481 
L 359.631355 176.329417 
L 356.621007 179.636653 
z
" clip-path="url(#pc883e421b5)" style="stroke: #000000; stroke-linecap: round"/>
   </g>
   <g id="patch_23">
    <path d="M 65.305785 267.689936 
Q 65.305785 167.869021 65.305785 69.16614 
" clip-path="url(#pc883e421b5)" style="fill: none; stroke: #000000; stroke-linecap: round"/>
    <path d="M 63.305785 73.16614 
L 65.305785 69.16614 
L 67.305785 73.16614 
z
" clip-path="url(#pc883e421b5)" style="stroke: #000000; stroke-linecap: round"/>
   </g>
   <g id="patch_24">
    <path d="M 72.187676 268.778714 
Q 104.833521 167.86912 137.135225 68.023278 
" clip-path="url(#pc883e421b5)" style="fill: none; stroke: #000000; stroke-linecap: round"/>
    <path d="M 134.001094 71.213454 
L 137.135225 68.023278 
L 137.806888 72.444688 
z
" clip-path="url(#pc883e421b5)" style="stroke: #000000; stroke-linecap: round"/>
   </g>
   <g id="patch_25">
    <path d="M 77.453136 271.276939 
Q 144.362413 167.867333 210.664334 65.396406 
" clip-path="url(#pc883e421b5)" style="fill: none; stroke: #000000; stroke-linecap: round"/>
    <path d="M 206.812232 67.668258 
L 210.664334 65.396406 
L 210.170555 69.841199 
z
" clip-path="url(#pc883e421b5)" style="stroke: #000000; stroke-linecap: round"/>
   </g>
   <g id="patch_26">
    <path d="M 80.879606 274.004478 
Q 183.890636 167.867426 286.122999 62.532671 
" clip-path="url(#pc883e421b5)" style="fill: none; stroke: #000000; stroke-linecap: round"/>
    <path d="M 281.901968 64.010132 
L 286.122999 62.532671 
L 284.772349 66.795973 
z
" clip-path="url(#pc883e421b5)" style="stroke: #000000; stroke-linecap: round"/>
   </g>
   <g id="patch_27">
    <path d="M 298.480236 290.050909 
Q 381.525909 290.050909 463.453548 290.050909 
" clip-path="url(#pc883e421b5)" style="fill: none; stroke: #000000; stroke-linecap: round"/>
    <path d="M 459.453548 288.050909 
L 463.453548 290.050909 
L 459.453548 292.050909 
z
" clip-path="url(#pc883e421b5)" style="stroke: #000000; stroke-linecap: round"/>
   </g>
   <g id="patch_28">
    <path d="M 259.724919 274.847163 
Q 210.240859 228.960008 161.576601 183.833066 
" clip-path="url(#pc883e421b5)" style="fill: none; stroke: #000000; stroke-linecap: round"/>
    <path d="M 163.149706 188.019394 
L 161.576601 183.833066 
L 165.869526 185.086378 
z
" clip-path="url(#pc883e421b5)" style="stroke: #000000; stroke-linecap: round"/>
   </g>
   <g id="patch_29">
    <path d="M 280.835415 268.189581 
Q 289.29688 228.957497 297.522631 190.818317 
" clip-path="url(#pc883e421b5)" style="fill: none; stroke: #000000; stroke-linecap: round"/>
    <path d="M 294.724267 194.30675 
L 297.522631 190.818317 
L 298.634359 195.150068 
z
" clip-path="url(#pc883e421b5)" style="stroke: #000000; stroke-linecap: round"/>
   </g>
   <g id="patch_30">
    <path d="M 294.762045 277.703342 
Q 368.352536 228.959533 441.01092 180.833119 
" clip-path="url(#pc883e421b5)" style="fill: none; stroke: #000000; stroke-linecap: round"/>
    <path d="M 436.571683 181.374577 
L 441.01092 180.833119 
L 438.780544 184.709383 
z
" clip-path="url(#pc883e421b5)" style="stroke: #000000; stroke-linecap: round"/>
   </g>
   <g id="patch_31">
    <path d="M 465.871816 282.538525 
Q 315.648204 228.960012 166.477653 175.757083 
" clip-path="url(#pc883e421b5)" style="fill: none; stroke: #000000; stroke-linecap: round"/>
    <path d="M 169.573335 178.984582 
L 166.477653 175.757083 
L 170.917061 175.217037 
z
" clip-path="url(#pc883e421b5)" style="stroke: #000000; stroke-linecap: round"/>
   </g>
   <g id="patch_32">
    <path d="M 468.293445 277.703342 
Q 394.702954 228.959533 322.04457 180.833119 
" clip-path="url(#pc883e421b5)" style="fill: none; stroke: #000000; stroke-linecap: round"/>
    <path d="M 324.274946 184.709383 
L 322.04457 180.833119 
L 326.483807 181.374577 
z
" clip-path="url(#pc883e421b5)" style="stroke: #000000; stroke-linecap: round"/>
   </g>
   <g id="patch_33">
    <path d="M 472.327685 273.118913 
Q 434.23067 228.959148 396.863975 185.645925 
" clip-path="url(#pc883e421b5)" style="fill: none; stroke: #000000; stroke-linecap: round"/>
    <path d="M 397.962504 189.981042 
L 396.863975 185.645925 
L 400.991186 187.368172 
z
" clip-path="url(#pc883e421b5)" style="stroke: #000000; stroke-linecap: round"/>
   </g>
   <g id="patch_34">
    <path d="M 467.586157 278.836864 
Q 276.118415 167.867926 85.617988 57.459614 
" clip-path="url(#pc883e421b5)" style="fill: none; stroke: #000000; stroke-linecap: round"/>
    <path d="M 88.075879 61.195758 
L 85.617988 57.459614 
L 90.081638 57.734987 
z
" clip-path="url(#pc883e421b5)" style="stroke: #000000; stroke-linecap: round"/>
   </g>
   <g id="patch_35">
    <path d="M 468.731128 277.065735 
Q 315.647078 167.868312 163.473227 59.320149 
" clip-path="url(#pc883e421b5)" style="fill: none; stroke: #000000; stroke-linecap: round"/>
    <path d="M 165.568221 63.271225 
L 163.473227 59.320149 
L 167.891085 60.014799 
z
" clip-path="url(#pc883e421b5)" style="stroke: #000000; stroke-linecap: round"/>
   </g>
   <g id="patch_36">
    <path d="M 470.539559 274.847163 
Q 355.176812 167.869923 240.633868 61.652896 
" clip-path="url(#pc883e421b5)" style="fill: none; stroke: #000000; stroke-linecap: round"/>
    <path d="M 242.206974 65.839224 
L 240.633868 61.652896 
L 244.926793 62.906208 
z
" clip-path="url(#pc883e421b5)" style="stroke: #000000; stroke-linecap: round"/>
   </g>
   <g id="patch_37">
    <path d="M 473.461196 272.201655 
Q 394.702076 167.866993 316.616555 64.424668 
" clip-path="url(#pc883e421b5)" style="fill: none; stroke: #000000; stroke-linecap: round"/>
    <path d="M 317.430233 68.822159 
L 316.616555 64.424668 
L 320.622755 66.41222 
z
" clip-path="url(#pc883e421b5)" style="stroke: #000000; stroke-linecap: round"/>
   </g>
   <g id="patch_38">
    <path d="M 165.721674 161.266507 
Q 341.998037 106.778789 517.206231 52.621245 
" clip-path="url(#pc883e421b5)" style="fill: none; stroke: #000000; stroke-linecap: round"/>
    <path d="M 512.794 51.891717 
L 517.206231 52.621245 
L 513.97527 55.713314 
z
" clip-path="url(#pc883e421b5)" style="stroke: #000000; stroke-linecap: round"/>
   </g>
   <g id="patch_39">
    <path d="M 359.163109 167.869091 
Q 302.468877 167.869091 246.892679 167.869091 
" clip-path="url(#pc883e421b5)" style="fill: none; stroke: #000000; stroke-linecap: round"/>
    <path d="M 250.892679 169.869091 
L 246.892679 167.869091 
L 250.892679 165.869091 
z
" clip-path="url(#pc883e421b5)" style="stroke: #000000; stroke-linecap: round"/>
   </g>
   <g id="patch_40">
    <path d="M 401.406215 157.628235 
Q 500.111849 106.777734 597.823587 56.439262 
" clip-path="url(#pc883e421b5)" style="fill: none; stroke: #000000; stroke-linecap: round"/>
    <path d="M 593.351777 56.493216 
L 597.823587 56.439262 
L 595.183664 60.049082 
z
" clip-path="url(#pc883e421b5)" style="stroke: #000000; stroke-linecap: round"/>
   </g>
   <g id="PathCollection_1">
    <defs>
     <path id="mbce373f52b" d="M 0 22.36068 
C 5.930122 22.36068 11.618159 20.004617 15.811388 15.811388 
C 20.004617 11.618159 22.36068 5.930122 22.36068 0 
C 22.36068 -5.930122 20.004617 -11.618159 15.811388 -15.811388 
C 11.618159 -20.004617 5.930122 -22.36068 0 -22.36068 
C -5.930122 -22.36068 -11.618159 -20.004617 -15.811388 -15.811388 
C -20.004617 -11.618159 -22.36068 -5.930122 -22.36068 0 
C -22.36068 5.930122 -20.004617 11.618159 -15.811388 15.811388 
C -11.618159 20.004617 -5.930122 22.36068 0 22.36068 
z
" style="stroke: #000000"/>
    </defs>
    <g clip-path="url(#pc883e421b5)">
     <use xlink:href="#mbce373f52b" x="65.305785" y="412.232727" style="fill: #ffffff; stroke: #000000"/>
     <use xlink:href="#mbce373f52b" x="191.794569" y="412.232727" style="fill: #ffffff; stroke: #000000"/>
     <use xlink:href="#mbce373f52b" x="318.283353" y="412.232727" style="fill: #ffffff; stroke: #000000"/>
     <use xlink:href="#mbce373f52b" x="444.772137" y="412.232727" style="fill: #ffffff; stroke: #000000"/>
     <use xlink:href="#mbce373f52b" x="571.260921" y="412.232727" style="fill: #ffffff; stroke: #000000"/>
     <use xlink:href="#mbce373f52b" x="65.305785" y="290.050909" style="fill: #ffffff; stroke: #000000"/>
     <use xlink:href="#mbce373f52b" x="276.120425" y="290.050909" style="fill: #ffffff; stroke: #000000"/>
     <use xlink:href="#mbce373f52b" x="486.935065" y="290.050909" style="fill: #ffffff; stroke: #000000"/>
     <use xlink:href="#mbce373f52b" x="65.305785" y="167.869091" style="fill: #ffffff; stroke: #000000"/>
     <use xlink:href="#mbce373f52b" x="144.361275" y="167.869091" style="fill: #ffffff; stroke: #000000"/>
     <use xlink:href="#mbce373f52b" x="223.416765" y="167.869091" style="fill: #ffffff; stroke: #000000"/>
     <use xlink:href="#mbce373f52b" x="302.472255" y="167.869091" style="fill: #ffffff; stroke: #000000"/>
     <use xlink:href="#mbce373f52b" x="381.527745" y="167.869091" style="fill: #ffffff; stroke: #000000"/>
     <use xlink:href="#mbce373f52b" x="460.583235" y="167.869091" style="fill: #ffffff; stroke: #000000"/>
     <use xlink:href="#mbce373f52b" x="539.638725" y="167.869091" style="fill: #ffffff; stroke: #000000"/>
     <use xlink:href="#mbce373f52b" x="618.694215" y="167.869091" style="fill: #ffffff; stroke: #000000"/>
     <use xlink:href="#mbce373f52b" x="65.305785" y="45.687273" style="fill: #ffffff; stroke: #000000"/>
     <use xlink:href="#mbce373f52b" x="144.361275" y="45.687273" style="fill: #ffffff; stroke: #000000"/>
     <use xlink:href="#mbce373f52b" x="223.416765" y="45.687273" style="fill: #ffffff; stroke: #000000"/>
     <use xlink:href="#mbce373f52b" x="302.472255" y="45.687273" style="fill: #ffffff; stroke: #000000"/>
     <use xlink:href="#mbce373f52b" x="381.527745" y="45.687273" style="fill: #ffffff; stroke: #000000"/>
     <use xlink:href="#mbce373f52b" x="460.583235" y="45.687273" style="fill: #ffffff; stroke: #000000"/>
     <use xlink:href="#mbce373f52b" x="539.638725" y="45.687273" style="fill: #ffffff; stroke: #000000"/>
     <use xlink:href="#mbce373f52b" x="618.694215" y="45.687273" style="fill: #ffffff; stroke: #000000"/>
    </g>
   </g>
   <g id="PathCollection_2">
    <defs>
     <path id="mee3761170d" d="M 0 22.36068 
C 5.930122 22.36068 11.618159 20.004617 15.811388 15.811388 
C 20.004617 11.618159 22.36068 5.930122 22.36068 0 
C 22.36068 -5.930122 20.004617 -11.618159 15.811388 -15.811388 
C 11.618159 -20.004617 5.930122 -22.36068 0 -22.36068 
C -5.930122 -22.36068 -11.618159 -20.004617 -15.811388 -15.811388 
C -20.004617 -11.618159 -22.36068 -5.930122 -22.36068 0 
C -22.36068 5.930122 -20.004617 11.618159 -15.811388 15.811388 
C -11.618159 20.004617 -5.930122 22.36068 0 22.36068 
z
" style="stroke: #0000ff; stroke-opacity: 0.2; stroke-width: 4"/>
    </defs>
    <g clip-path="url(#pc883e421b5)">
     <use xlink:href="#mee3761170d" x="65.305785" y="412.232727" style="fill: #0000ff; fill-opacity: 0.2; stroke: #0000ff; stroke-opacity: 0.2; stroke-width: 4"/>
     <use xlink:href="#mee3761170d" x="191.794569" y="412.232727" style="fill: #0000ff; fill-opacity: 0.2; stroke: #0000ff; stroke-opacity: 0.2; stroke-width: 4"/>
     <use xlink:href="#mee3761170d" x="318.283353" y="412.232727" style="fill: #0000ff; fill-opacity: 0.2; stroke: #0000ff; stroke-opacity: 0.2; stroke-width: 4"/>
     <use xlink:href="#mee3761170d" x="444.772137" y="412.232727" style="fill: #0000ff; fill-opacity: 0.2; stroke: #0000ff; stroke-opacity: 0.2; stroke-width: 4"/>
     <use xlink:href="#mee3761170d" x="65.305785" y="290.050909" style="fill: #0000ff; fill-opacity: 0.2; stroke: #0000ff; stroke-opacity: 0.2; stroke-width: 4"/>
     <use xlink:href="#mee3761170d" x="276.120425" y="290.050909" style="fill: #0000ff; fill-opacity: 0.2; stroke: #0000ff; stroke-opacity: 0.2; stroke-width: 4"/>
     <use xlink:href="#mee3761170d" x="486.935065" y="290.050909" style="fill: #0000ff; fill-opacity: 0.2; stroke: #0000ff; stroke-opacity: 0.2; stroke-width: 4"/>
     <use xlink:href="#mee3761170d" x="65.305785" y="167.869091" style="fill: #0000ff; fill-opacity: 0.2; stroke: #0000ff; stroke-opacity: 0.2; stroke-width: 4"/>
     <use xlink:href="#mee3761170d" x="144.361275" y="167.869091" style="fill: #0000ff; fill-opacity: 0.2; stroke: #0000ff; stroke-opacity: 0.2; stroke-width: 4"/>
     <use xlink:href="#mee3761170d" x="223.416765" y="167.869091" style="fill: #0000ff; fill-opacity: 0.2; stroke: #0000ff; stroke-opacity: 0.2; stroke-width: 4"/>
     <use xlink:href="#mee3761170d" x="302.472255" y="167.869091" style="fill: #0000ff; fill-opacity: 0.2; stroke: #0000ff; stroke-opacity: 0.2; stroke-width: 4"/>
     <use xlink:href="#mee3761170d" x="381.527745" y="167.869091" style="fill: #0000ff; fill-opacity: 0.2; stroke: #0000ff; stroke-opacity: 0.2; stroke-width: 4"/>
     <use xlink:href="#mee3761170d" x="460.583235" y="167.869091" style="fill: #0000ff; fill-opacity: 0.2; stroke: #0000ff; stroke-opacity: 0.2; stroke-width: 4"/>
     <use xlink:href="#mee3761170d" x="539.638725" y="167.869091" style="fill: #0000ff; fill-opacity: 0.2; stroke: #0000ff; stroke-opacity: 0.2; stroke-width: 4"/>
     <use xlink:href="#mee3761170d" x="618.694215" y="167.869091" style="fill: #0000ff; fill-opacity: 0.2; stroke: #0000ff; stroke-opacity: 0.2; stroke-width: 4"/>
     <use xlink:href="#mee3761170d" x="65.305785" y="45.687273" style="fill: #0000ff; fill-opacity: 0.2; stroke: #0000ff; stroke-opacity: 0.2; stroke-width: 4"/>
     <use xlink:href="#mee3761170d" x="144.361275" y="45.687273" style="fill: #0000ff; fill-opacity: 0.2; stroke: #0000ff; stroke-opacity: 0.2; stroke-width: 4"/>
     <use xlink:href="#mee3761170d" x="223.416765" y="45.687273" style="fill: #0000ff; fill-opacity: 0.2; stroke: #0000ff; stroke-opacity: 0.2; stroke-width: 4"/>
     <use xlink:href="#mee3761170d" x="302.472255" y="45.687273" style="fill: #0000ff; fill-opacity: 0.2; stroke: #0000ff; stroke-opacity: 0.2; stroke-width: 4"/>
     <use xlink:href="#mee3761170d" x="381.527745" y="45.687273" style="fill: #0000ff; fill-opacity: 0.2; stroke: #0000ff; stroke-opacity: 0.2; stroke-width: 4"/>
     <use xlink:href="#mee3761170d" x="460.583235" y="45.687273" style="fill: #0000ff; fill-opacity: 0.2; stroke: #0000ff; stroke-opacity: 0.2; stroke-width: 4"/>
     <use xlink:href="#mee3761170d" x="539.638725" y="45.687273" style="fill: #0000ff; fill-opacity: 0.2; stroke: #0000ff; stroke-opacity: 0.2; stroke-width: 4"/>
     <use xlink:href="#mee3761170d" x="618.694215" y="45.687273" style="fill: #0000ff; fill-opacity: 0.2; stroke: #0000ff; stroke-opacity: 0.2; stroke-width: 4"/>
    </g>
   </g>
   <g id="PathCollection_3">
    <defs>
     <path id="mce09207189" d="M 0 22.36068 
C 5.930122 22.36068 11.618159 20.004617 15.811388 15.811388 
C 20.004617 11.618159 22.36068 5.930122 22.36068 0 
C 22.36068 -5.930122 20.004617 -11.618159 15.811388 -15.811388 
C 11.618159 -20.004617 5.930122 -22.36068 0 -22.36068 
C -5.930122 -22.36068 -11.618159 -20.004617 -15.811388 -15.811388 
C -20.004617 -11.618159 -22.36068 -5.930122 -22.36068 0 
C -22.36068 5.930122 -20.004617 11.618159 -15.811388 15.811388 
C -11.618159 20.004617 -5.930122 22.36068 0 22.36068 
z
" style="stroke: #ff0000"/>
    </defs>
    <g clip-path="url(#pc883e421b5)">
     <use xlink:href="#mce09207189" x="618.694215" y="167.869091" style="fill: #ff0000; stroke: #ff0000"/>
     <use xlink:href="#mce09207189" x="460.583235" y="45.687273" style="fill: #ff0000; stroke: #ff0000"/>
    </g>
   </g>
   <g id="text_1">
    <g clip-path="url(#pc883e421b5)">
     <!-- 1001 -->
     <g transform="translate(51.39016 409.393196) scale(0.1 -0.1)">
      <defs>
       <path id="DejaVuSans-Bold-31" d="M 750 831 
L 1813 831 
L 1813 3847 
L 722 3622 
L 722 4441 
L 1806 4666 
L 2950 4666 
L 2950 831 
L 4013 831 
L 4013 0 
L 750 0 
L 750 831 
z
" transform="scale(0.015625)"/>
       <path id="DejaVuSans-Bold-30" d="M 2944 2338 
Q 2944 3213 2780 3570 
Q 2616 3928 2228 3928 
Q 1841 3928 1675 3570 
Q 1509 3213 1509 2338 
Q 1509 1453 1675 1090 
Q 1841 728 2228 728 
Q 2613 728 2778 1090 
Q 2944 1453 2944 2338 
z
M 4147 2328 
Q 4147 1169 3647 539 
Q 3147 -91 2228 -91 
Q 1306 -91 806 539 
Q 306 1169 306 2328 
Q 306 3491 806 4120 
Q 1306 4750 2228 4750 
Q 3147 4750 3647 4120 
Q 4147 3491 4147 2328 
z
" transform="scale(0.015625)"/>
      </defs>
      <use xlink:href="#DejaVuSans-Bold-31"/>
      <use xlink:href="#DejaVuSans-Bold-30" x="69.580078"/>
      <use xlink:href="#DejaVuSans-Bold-30" x="139.160156"/>
      <use xlink:href="#DejaVuSans-Bold-31" x="208.740234"/>
     </g>
    </g>
    <g clip-path="url(#pc883e421b5)">
     <!-- NumTh -->
     <g transform="translate(45.381566 420.591009) scale(0.1 -0.1)">
      <defs>
       <path id="DejaVuSans-Bold-4e" d="M 588 4666 
L 1931 4666 
L 3628 1466 
L 3628 4666 
L 4769 4666 
L 4769 0 
L 3425 0 
L 1728 3200 
L 1728 0 
L 588 0 
L 588 4666 
z
" transform="scale(0.015625)"/>
       <path id="DejaVuSans-Bold-75" d="M 500 1363 
L 500 3500 
L 1625 3500 
L 1625 3150 
Q 1625 2866 1622 2436 
Q 1619 2006 1619 1863 
Q 1619 1441 1641 1255 
Q 1663 1069 1716 984 
Q 1784 875 1895 815 
Q 2006 756 2150 756 
Q 2500 756 2700 1025 
Q 2900 1294 2900 1772 
L 2900 3500 
L 4019 3500 
L 4019 0 
L 2900 0 
L 2900 506 
Q 2647 200 2364 54 
Q 2081 -91 1741 -91 
Q 1134 -91 817 281 
Q 500 653 500 1363 
z
" transform="scale(0.015625)"/>
       <path id="DejaVuSans-Bold-6d" d="M 3781 2919 
Q 3994 3244 4286 3414 
Q 4578 3584 4928 3584 
Q 5531 3584 5847 3212 
Q 6163 2841 6163 2131 
L 6163 0 
L 5038 0 
L 5038 1825 
Q 5041 1866 5042 1909 
Q 5044 1953 5044 2034 
Q 5044 2406 4934 2573 
Q 4825 2741 4581 2741 
Q 4263 2741 4089 2478 
Q 3916 2216 3909 1719 
L 3909 0 
L 2784 0 
L 2784 1825 
Q 2784 2406 2684 2573 
Q 2584 2741 2328 2741 
Q 2006 2741 1831 2477 
Q 1656 2213 1656 1722 
L 1656 0 
L 531 0 
L 531 3500 
L 1656 3500 
L 1656 2988 
Q 1863 3284 2130 3434 
Q 2397 3584 2719 3584 
Q 3081 3584 3359 3409 
Q 3638 3234 3781 2919 
z
" transform="scale(0.015625)"/>
       <path id="DejaVuSans-Bold-54" d="M 31 4666 
L 4331 4666 
L 4331 3756 
L 2784 3756 
L 2784 0 
L 1581 0 
L 1581 3756 
L 31 3756 
L 31 4666 
z
" transform="scale(0.015625)"/>
       <path id="DejaVuSans-Bold-68" d="M 4056 2131 
L 4056 0 
L 2931 0 
L 2931 347 
L 2931 1625 
Q 2931 2084 2911 2256 
Q 2891 2428 2841 2509 
Q 2775 2619 2662 2680 
Q 2550 2741 2406 2741 
Q 2056 2741 1856 2470 
Q 1656 2200 1656 1722 
L 1656 0 
L 538 0 
L 538 4863 
L 1656 4863 
L 1656 2988 
Q 1909 3294 2193 3439 
Q 2478 3584 2822 3584 
Q 3428 3584 3742 3212 
Q 4056 2841 4056 2131 
z
" transform="scale(0.015625)"/>
      </defs>
      <use xlink:href="#DejaVuSans-Bold-4e"/>
      <use xlink:href="#DejaVuSans-Bold-75" x="83.691406"/>
      <use xlink:href="#DejaVuSans-Bold-6d" x="154.882812"/>
      <use xlink:href="#DejaVuSans-Bold-54" x="259.082031"/>
      <use xlink:href="#DejaVuSans-Bold-68" x="327.294922"/>
     </g>
    </g>
   </g>
   <g id="text_2">
    <g clip-path="url(#pc883e421b5)">
     <!-- 1048 -->
     <g transform="translate(177.878944 409.393196) scale(0.1 -0.1)">
      <defs>
       <path id="DejaVuSans-Bold-34" d="M 2356 3675 
L 1038 1722 
L 2356 1722 
L 2356 3675 
z
M 2156 4666 
L 3494 4666 
L 3494 1722 
L 4159 1722 
L 4159 850 
L 3494 850 
L 3494 0 
L 2356 0 
L 2356 850 
L 288 850 
L 288 1881 
L 2156 4666 
z
" transform="scale(0.015625)"/>
       <path id="DejaVuSans-Bold-38" d="M 2228 2088 
Q 1891 2088 1709 1903 
Q 1528 1719 1528 1375 
Q 1528 1031 1709 848 
Q 1891 666 2228 666 
Q 2563 666 2741 848 
Q 2919 1031 2919 1375 
Q 2919 1722 2741 1905 
Q 2563 2088 2228 2088 
z
M 1350 2484 
Q 925 2613 709 2878 
Q 494 3144 494 3541 
Q 494 4131 934 4440 
Q 1375 4750 2228 4750 
Q 3075 4750 3515 4442 
Q 3956 4134 3956 3541 
Q 3956 3144 3739 2878 
Q 3522 2613 3097 2484 
Q 3572 2353 3814 2058 
Q 4056 1763 4056 1313 
Q 4056 619 3595 264 
Q 3134 -91 2228 -91 
Q 1319 -91 855 264 
Q 391 619 391 1313 
Q 391 1763 633 2058 
Q 875 2353 1350 2484 
z
M 1631 3419 
Q 1631 3141 1786 2991 
Q 1941 2841 2228 2841 
Q 2509 2841 2662 2991 
Q 2816 3141 2816 3419 
Q 2816 3697 2662 3845 
Q 2509 3994 2228 3994 
Q 1941 3994 1786 3844 
Q 1631 3694 1631 3419 
z
" transform="scale(0.015625)"/>
      </defs>
      <use xlink:href="#DejaVuSans-Bold-31"/>
      <use xlink:href="#DejaVuSans-Bold-30" x="69.580078"/>
      <use xlink:href="#DejaVuSans-Bold-34" x="139.160156"/>
      <use xlink:href="#DejaVuSans-Bold-38" x="208.740234"/>
     </g>
    </g>
    <g clip-path="url(#pc883e421b5)">
     <!-- LA1 -->
     <g transform="translate(181.260194 420.591009) scale(0.1 -0.1)">
      <defs>
       <path id="DejaVuSans-Bold-4c" d="M 588 4666 
L 1791 4666 
L 1791 909 
L 3903 909 
L 3903 0 
L 588 0 
L 588 4666 
z
" transform="scale(0.015625)"/>
       <path id="DejaVuSans-Bold-41" d="M 3419 850 
L 1538 850 
L 1241 0 
L 31 0 
L 1759 4666 
L 3194 4666 
L 4922 0 
L 3713 0 
L 3419 850 
z
M 1838 1716 
L 3116 1716 
L 2478 3572 
L 1838 1716 
z
" transform="scale(0.015625)"/>
      </defs>
      <use xlink:href="#DejaVuSans-Bold-4c"/>
      <use xlink:href="#DejaVuSans-Bold-41" x="63.720703"/>
      <use xlink:href="#DejaVuSans-Bold-31" x="141.113281"/>
     </g>
    </g>
   </g>
   <g id="text_3">
    <g clip-path="url(#pc883e421b5)">
     <!-- 1049 -->
     <g transform="translate(304.367728 409.393196) scale(0.1 -0.1)">
      <defs>
       <path id="DejaVuSans-Bold-39" d="M 641 103 
L 641 966 
Q 928 831 1190 764 
Q 1453 697 1709 697 
Q 2247 697 2547 995 
Q 2847 1294 2900 1881 
Q 2688 1725 2447 1647 
Q 2206 1569 1925 1569 
Q 1209 1569 770 1986 
Q 331 2403 331 3084 
Q 331 3838 820 4291 
Q 1309 4744 2131 4744 
Q 3044 4744 3544 4128 
Q 4044 3513 4044 2388 
Q 4044 1231 3459 570 
Q 2875 -91 1856 -91 
Q 1528 -91 1228 -42 
Q 928 6 641 103 
z
M 2125 2350 
Q 2441 2350 2600 2554 
Q 2759 2759 2759 3169 
Q 2759 3575 2600 3781 
Q 2441 3988 2125 3988 
Q 1809 3988 1650 3781 
Q 1491 3575 1491 3169 
Q 1491 2759 1650 2554 
Q 1809 2350 2125 2350 
z
" transform="scale(0.015625)"/>
      </defs>
      <use xlink:href="#DejaVuSans-Bold-31"/>
      <use xlink:href="#DejaVuSans-Bold-30" x="69.580078"/>
      <use xlink:href="#DejaVuSans-Bold-34" x="139.160156"/>
      <use xlink:href="#DejaVuSans-Bold-39" x="208.740234"/>
     </g>
    </g>
    <g clip-path="url(#pc883e421b5)">
     <!-- LA2 -->
     <g transform="translate(307.748978 420.591009) scale(0.1 -0.1)">
      <defs>
       <path id="DejaVuSans-Bold-32" d="M 1844 884 
L 3897 884 
L 3897 0 
L 506 0 
L 506 884 
L 2209 2388 
Q 2438 2594 2547 2791 
Q 2656 2988 2656 3200 
Q 2656 3528 2436 3728 
Q 2216 3928 1850 3928 
Q 1569 3928 1234 3808 
Q 900 3688 519 3450 
L 519 4475 
Q 925 4609 1322 4679 
Q 1719 4750 2100 4750 
Q 2938 4750 3402 4381 
Q 3866 4013 3866 3353 
Q 3866 2972 3669 2642 
Q 3472 2313 2841 1759 
L 1844 884 
z
" transform="scale(0.015625)"/>
      </defs>
      <use xlink:href="#DejaVuSans-Bold-4c"/>
      <use xlink:href="#DejaVuSans-Bold-41" x="63.720703"/>
      <use xlink:href="#DejaVuSans-Bold-32" x="141.113281"/>
     </g>
    </g>
   </g>
   <g id="text_4">
    <g clip-path="url(#pc883e421b5)">
     <!-- 1059 -->
     <g transform="translate(430.856512 409.393196) scale(0.1 -0.1)">
      <defs>
       <path id="DejaVuSans-Bold-35" d="M 678 4666 
L 3669 4666 
L 3669 3781 
L 1638 3781 
L 1638 3059 
Q 1775 3097 1914 3117 
Q 2053 3138 2203 3138 
Q 3056 3138 3531 2711 
Q 4006 2284 4006 1522 
Q 4006 766 3489 337 
Q 2972 -91 2053 -91 
Q 1656 -91 1267 -14 
Q 878 63 494 219 
L 494 1166 
Q 875 947 1217 837 
Q 1559 728 1863 728 
Q 2300 728 2551 942 
Q 2803 1156 2803 1522 
Q 2803 1891 2551 2103 
Q 2300 2316 1863 2316 
Q 1603 2316 1309 2248 
Q 1016 2181 678 2041 
L 678 4666 
z
" transform="scale(0.015625)"/>
      </defs>
      <use xlink:href="#DejaVuSans-Bold-31"/>
      <use xlink:href="#DejaVuSans-Bold-30" x="69.580078"/>
      <use xlink:href="#DejaVuSans-Bold-35" x="139.160156"/>
      <use xlink:href="#DejaVuSans-Bold-39" x="208.740234"/>
     </g>
    </g>
    <g clip-path="url(#pc883e421b5)">
     <!-- Calc -->
     <g transform="translate(433.050262 420.591009) scale(0.1 -0.1)">
      <defs>
       <path id="DejaVuSans-Bold-43" d="M 4288 256 
Q 3956 84 3597 -3 
Q 3238 -91 2847 -91 
Q 1681 -91 1000 561 
Q 319 1213 319 2328 
Q 319 3447 1000 4098 
Q 1681 4750 2847 4750 
Q 3238 4750 3597 4662 
Q 3956 4575 4288 4403 
L 4288 3438 
Q 3953 3666 3628 3772 
Q 3303 3878 2944 3878 
Q 2300 3878 1931 3465 
Q 1563 3053 1563 2328 
Q 1563 1606 1931 1193 
Q 2300 781 2944 781 
Q 3303 781 3628 887 
Q 3953 994 4288 1222 
L 4288 256 
z
" transform="scale(0.015625)"/>
       <path id="DejaVuSans-Bold-61" d="M 2106 1575 
Q 1756 1575 1579 1456 
Q 1403 1338 1403 1106 
Q 1403 894 1545 773 
Q 1688 653 1941 653 
Q 2256 653 2472 879 
Q 2688 1106 2688 1447 
L 2688 1575 
L 2106 1575 
z
M 3816 1997 
L 3816 0 
L 2688 0 
L 2688 519 
Q 2463 200 2181 54 
Q 1900 -91 1497 -91 
Q 953 -91 614 226 
Q 275 544 275 1050 
Q 275 1666 698 1953 
Q 1122 2241 2028 2241 
L 2688 2241 
L 2688 2328 
Q 2688 2594 2478 2717 
Q 2269 2841 1825 2841 
Q 1466 2841 1156 2769 
Q 847 2697 581 2553 
L 581 3406 
Q 941 3494 1303 3539 
Q 1666 3584 2028 3584 
Q 2975 3584 3395 3211 
Q 3816 2838 3816 1997 
z
" transform="scale(0.015625)"/>
       <path id="DejaVuSans-Bold-6c" d="M 538 4863 
L 1656 4863 
L 1656 0 
L 538 0 
L 538 4863 
z
" transform="scale(0.015625)"/>
       <path id="DejaVuSans-Bold-63" d="M 3366 3391 
L 3366 2478 
Q 3138 2634 2908 2709 
Q 2678 2784 2431 2784 
Q 1963 2784 1702 2511 
Q 1441 2238 1441 1747 
Q 1441 1256 1702 982 
Q 1963 709 2431 709 
Q 2694 709 2930 787 
Q 3166 866 3366 1019 
L 3366 103 
Q 3103 6 2833 -42 
Q 2563 -91 2291 -91 
Q 1344 -91 809 395 
Q 275 881 275 1747 
Q 275 2613 809 3098 
Q 1344 3584 2291 3584 
Q 2566 3584 2833 3536 
Q 3100 3488 3366 3391 
z
" transform="scale(0.015625)"/>
      </defs>
      <use xlink:href="#DejaVuSans-Bold-43"/>
      <use xlink:href="#DejaVuSans-Bold-61" x="73.388672"/>
      <use xlink:href="#DejaVuSans-Bold-6c" x="140.869141"/>
      <use xlink:href="#DejaVuSans-Bold-63" x="175.146484"/>
     </g>
    </g>
   </g>
   <g id="text_5">
    <g clip-path="url(#pc883e421b5)">
     <!-- 1060 -->
     <g transform="translate(557.345296 409.393196) scale(0.1 -0.1)">
      <defs>
       <path id="DejaVuSans-Bold-36" d="M 2316 2303 
Q 2000 2303 1842 2098 
Q 1684 1894 1684 1484 
Q 1684 1075 1842 870 
Q 2000 666 2316 666 
Q 2634 666 2792 870 
Q 2950 1075 2950 1484 
Q 2950 1894 2792 2098 
Q 2634 2303 2316 2303 
z
M 3803 4544 
L 3803 3681 
Q 3506 3822 3243 3889 
Q 2981 3956 2731 3956 
Q 2194 3956 1894 3657 
Q 1594 3359 1544 2772 
Q 1750 2925 1990 3001 
Q 2231 3078 2516 3078 
Q 3231 3078 3670 2659 
Q 4109 2241 4109 1563 
Q 4109 813 3618 361 
Q 3128 -91 2303 -91 
Q 1394 -91 895 523 
Q 397 1138 397 2266 
Q 397 3422 980 4083 
Q 1563 4744 2578 4744 
Q 2900 4744 3203 4694 
Q 3506 4644 3803 4544 
z
" transform="scale(0.015625)"/>
      </defs>
      <use xlink:href="#DejaVuSans-Bold-31"/>
      <use xlink:href="#DejaVuSans-Bold-30" x="69.580078"/>
      <use xlink:href="#DejaVuSans-Bold-36" x="139.160156"/>
      <use xlink:href="#DejaVuSans-Bold-30" x="208.740234"/>
     </g>
    </g>
    <g clip-path="url(#pc883e421b5)">
     <!-- MVC -->
     <g transform="translate(558.746077 420.591009) scale(0.1 -0.1)">
      <defs>
       <path id="DejaVuSans-Bold-4d" d="M 588 4666 
L 2119 4666 
L 3181 2169 
L 4250 4666 
L 5778 4666 
L 5778 0 
L 4641 0 
L 4641 3413 
L 3566 897 
L 2803 897 
L 1728 3413 
L 1728 0 
L 588 0 
L 588 4666 
z
" transform="scale(0.015625)"/>
       <path id="DejaVuSans-Bold-56" d="M 31 4666 
L 1241 4666 
L 2478 1222 
L 3713 4666 
L 4922 4666 
L 3194 0 
L 1759 0 
L 31 4666 
z
" transform="scale(0.015625)"/>
      </defs>
      <use xlink:href="#DejaVuSans-Bold-4d"/>
      <use xlink:href="#DejaVuSans-Bold-56" x="99.511719"/>
      <use xlink:href="#DejaVuSans-Bold-43" x="176.904297"/>
     </g>
    </g>
   </g>
   <g id="text_6">
    <g clip-path="url(#pc883e421b5)">
     <!-- 2003 -->
     <g transform="translate(51.39016 287.211378) scale(0.1 -0.1)">
      <defs>
       <path id="DejaVuSans-Bold-33" d="M 2981 2516 
Q 3453 2394 3698 2092 
Q 3944 1791 3944 1325 
Q 3944 631 3412 270 
Q 2881 -91 1863 -91 
Q 1503 -91 1142 -33 
Q 781 25 428 141 
L 428 1069 
Q 766 900 1098 814 
Q 1431 728 1753 728 
Q 2231 728 2486 893 
Q 2741 1059 2741 1369 
Q 2741 1688 2480 1852 
Q 2219 2016 1709 2016 
L 1228 2016 
L 1228 2791 
L 1734 2791 
Q 2188 2791 2409 2933 
Q 2631 3075 2631 3366 
Q 2631 3634 2415 3781 
Q 2200 3928 1806 3928 
Q 1516 3928 1219 3862 
Q 922 3797 628 3669 
L 628 4550 
Q 984 4650 1334 4700 
Q 1684 4750 2022 4750 
Q 2931 4750 3382 4451 
Q 3834 4153 3834 3553 
Q 3834 3144 3618 2883 
Q 3403 2622 2981 2516 
z
" transform="scale(0.015625)"/>
      </defs>
      <use xlink:href="#DejaVuSans-Bold-32"/>
      <use xlink:href="#DejaVuSans-Bold-30" x="69.580078"/>
      <use xlink:href="#DejaVuSans-Bold-30" x="139.160156"/>
      <use xlink:href="#DejaVuSans-Bold-33" x="208.740234"/>
     </g>
    </g>
    <g clip-path="url(#pc883e421b5)">
     <!-- Groups -->
     <g transform="translate(45.187035 298.40919) scale(0.1 -0.1)">
      <defs>
       <path id="DejaVuSans-Bold-47" d="M 4781 347 
Q 4331 128 3847 18 
Q 3363 -91 2847 -91 
Q 1681 -91 1000 561 
Q 319 1213 319 2328 
Q 319 3456 1012 4103 
Q 1706 4750 2913 4750 
Q 3378 4750 3804 4662 
Q 4231 4575 4609 4403 
L 4609 3438 
Q 4219 3659 3833 3768 
Q 3447 3878 3059 3878 
Q 2341 3878 1952 3476 
Q 1563 3075 1563 2328 
Q 1563 1588 1938 1184 
Q 2313 781 3003 781 
Q 3191 781 3352 804 
Q 3513 828 3641 878 
L 3641 1784 
L 2906 1784 
L 2906 2591 
L 4781 2591 
L 4781 347 
z
" transform="scale(0.015625)"/>
       <path id="DejaVuSans-Bold-72" d="M 3138 2547 
Q 2991 2616 2845 2648 
Q 2700 2681 2553 2681 
Q 2122 2681 1889 2404 
Q 1656 2128 1656 1613 
L 1656 0 
L 538 0 
L 538 3500 
L 1656 3500 
L 1656 2925 
Q 1872 3269 2151 3426 
Q 2431 3584 2822 3584 
Q 2878 3584 2943 3579 
Q 3009 3575 3134 3559 
L 3138 2547 
z
" transform="scale(0.015625)"/>
       <path id="DejaVuSans-Bold-6f" d="M 2203 2784 
Q 1831 2784 1636 2517 
Q 1441 2250 1441 1747 
Q 1441 1244 1636 976 
Q 1831 709 2203 709 
Q 2569 709 2762 976 
Q 2956 1244 2956 1747 
Q 2956 2250 2762 2517 
Q 2569 2784 2203 2784 
z
M 2203 3584 
Q 3106 3584 3614 3096 
Q 4122 2609 4122 1747 
Q 4122 884 3614 396 
Q 3106 -91 2203 -91 
Q 1297 -91 786 396 
Q 275 884 275 1747 
Q 275 2609 786 3096 
Q 1297 3584 2203 3584 
z
" transform="scale(0.015625)"/>
       <path id="DejaVuSans-Bold-70" d="M 1656 506 
L 1656 -1331 
L 538 -1331 
L 538 3500 
L 1656 3500 
L 1656 2988 
Q 1888 3294 2169 3439 
Q 2450 3584 2816 3584 
Q 3463 3584 3878 3070 
Q 4294 2556 4294 1747 
Q 4294 938 3878 423 
Q 3463 -91 2816 -91 
Q 2450 -91 2169 54 
Q 1888 200 1656 506 
z
M 2400 2772 
Q 2041 2772 1848 2508 
Q 1656 2244 1656 1747 
Q 1656 1250 1848 986 
Q 2041 722 2400 722 
Q 2759 722 2948 984 
Q 3138 1247 3138 1747 
Q 3138 2247 2948 2509 
Q 2759 2772 2400 2772 
z
" transform="scale(0.015625)"/>
       <path id="DejaVuSans-Bold-73" d="M 3272 3391 
L 3272 2541 
Q 2913 2691 2578 2766 
Q 2244 2841 1947 2841 
Q 1628 2841 1473 2761 
Q 1319 2681 1319 2516 
Q 1319 2381 1436 2309 
Q 1553 2238 1856 2203 
L 2053 2175 
Q 2913 2066 3209 1816 
Q 3506 1566 3506 1031 
Q 3506 472 3093 190 
Q 2681 -91 1863 -91 
Q 1516 -91 1145 -36 
Q 775 19 384 128 
L 384 978 
Q 719 816 1070 734 
Q 1422 653 1784 653 
Q 2113 653 2278 743 
Q 2444 834 2444 1013 
Q 2444 1163 2330 1236 
Q 2216 1309 1875 1350 
L 1678 1375 
Q 931 1469 631 1722 
Q 331 1975 331 2491 
Q 331 3047 712 3315 
Q 1094 3584 1881 3584 
Q 2191 3584 2531 3537 
Q 2872 3491 3272 3391 
z
" transform="scale(0.015625)"/>
      </defs>
      <use xlink:href="#DejaVuSans-Bold-47"/>
      <use xlink:href="#DejaVuSans-Bold-72" x="82.080078"/>
      <use xlink:href="#DejaVuSans-Bold-6f" x="131.396484"/>
      <use xlink:href="#DejaVuSans-Bold-75" x="200.097656"/>
      <use xlink:href="#DejaVuSans-Bold-70" x="271.289062"/>
      <use xlink:href="#DejaVuSans-Bold-73" x="342.871094"/>
     </g>
    </g>
   </g>
   <g id="text_7">
    <g clip-path="url(#pc883e421b5)">
     <!-- 2039 -->
     <g transform="translate(262.2048 287.172315) scale(0.1 -0.1)">
      <use xlink:href="#DejaVuSans-Bold-32"/>
      <use xlink:href="#DejaVuSans-Bold-30" x="69.580078"/>
      <use xlink:href="#DejaVuSans-Bold-33" x="139.160156"/>
      <use xlink:href="#DejaVuSans-Bold-39" x="208.740234"/>
     </g>
    </g>
    <g clip-path="url(#pc883e421b5)">
     <!-- Analysis -->
     <g transform="translate(252.678238 298.370128) scale(0.1 -0.1)">
      <defs>
       <path id="DejaVuSans-Bold-6e" d="M 4056 2131 
L 4056 0 
L 2931 0 
L 2931 347 
L 2931 1631 
Q 2931 2084 2911 2256 
Q 2891 2428 2841 2509 
Q 2775 2619 2662 2680 
Q 2550 2741 2406 2741 
Q 2056 2741 1856 2470 
Q 1656 2200 1656 1722 
L 1656 0 
L 538 0 
L 538 3500 
L 1656 3500 
L 1656 2988 
Q 1909 3294 2193 3439 
Q 2478 3584 2822 3584 
Q 3428 3584 3742 3212 
Q 4056 2841 4056 2131 
z
" transform="scale(0.015625)"/>
       <path id="DejaVuSans-Bold-79" d="M 78 3500 
L 1197 3500 
L 2138 1125 
L 2938 3500 
L 4056 3500 
L 2584 -331 
Q 2363 -916 2067 -1148 
Q 1772 -1381 1288 -1381 
L 641 -1381 
L 641 -647 
L 991 -647 
Q 1275 -647 1404 -556 
Q 1534 -466 1606 -231 
L 1638 -134 
L 78 3500 
z
" transform="scale(0.015625)"/>
       <path id="DejaVuSans-Bold-69" d="M 538 3500 
L 1656 3500 
L 1656 0 
L 538 0 
L 538 3500 
z
M 538 4863 
L 1656 4863 
L 1656 3950 
L 538 3950 
L 538 4863 
z
" transform="scale(0.015625)"/>
      </defs>
      <use xlink:href="#DejaVuSans-Bold-41"/>
      <use xlink:href="#DejaVuSans-Bold-6e" x="77.392578"/>
      <use xlink:href="#DejaVuSans-Bold-61" x="148.583984"/>
      <use xlink:href="#DejaVuSans-Bold-6c" x="216.064453"/>
      <use xlink:href="#DejaVuSans-Bold-79" x="250.341797"/>
      <use xlink:href="#DejaVuSans-Bold-73" x="315.527344"/>
      <use xlink:href="#DejaVuSans-Bold-69" x="375.048828"/>
      <use xlink:href="#DejaVuSans-Bold-73" x="409.326172"/>
     </g>
    </g>
   </g>
   <g id="text_8">
    <g clip-path="url(#pc883e421b5)">
     <!-- 2049 -->
     <g transform="translate(473.01944 287.211378) scale(0.1 -0.1)">
      <use xlink:href="#DejaVuSans-Bold-32"/>
      <use xlink:href="#DejaVuSans-Bold-30" x="69.580078"/>
      <use xlink:href="#DejaVuSans-Bold-34" x="139.160156"/>
      <use xlink:href="#DejaVuSans-Bold-39" x="208.740234"/>
     </g>
    </g>
    <g clip-path="url(#pc883e421b5)">
     <!-- GT -->
     <g transform="translate(479.507721 298.40919) scale(0.1 -0.1)">
      <use xlink:href="#DejaVuSans-Bold-47"/>
      <use xlink:href="#DejaVuSans-Bold-54" x="80.330078"/>
     </g>
    </g>
   </g>
   <g id="text_9">
    <g clip-path="url(#pc883e421b5)">
     <!-- 3033 -->
     <g transform="translate(51.39016 165.02956) scale(0.1 -0.1)">
      <use xlink:href="#DejaVuSans-Bold-33"/>
      <use xlink:href="#DejaVuSans-Bold-30" x="69.580078"/>
      <use xlink:href="#DejaVuSans-Bold-33" x="139.160156"/>
      <use xlink:href="#DejaVuSans-Bold-33" x="208.740234"/>
     </g>
    </g>
    <g clip-path="url(#pc883e421b5)">
     <!-- Graph -->
     <g transform="translate(48.223754 176.227372) scale(0.1 -0.1)">
      <use xlink:href="#DejaVuSans-Bold-47"/>
      <use xlink:href="#DejaVuSans-Bold-72" x="82.080078"/>
      <use xlink:href="#DejaVuSans-Bold-61" x="131.396484"/>
      <use xlink:href="#DejaVuSans-Bold-70" x="198.876953"/>
      <use xlink:href="#DejaVuSans-Bold-68" x="270.458984"/>
     </g>
    </g>
   </g>
   <g id="text_10">
    <g clip-path="url(#pc883e421b5)">
     <!-- 3076 -->
     <g transform="translate(130.44565 165.02956) scale(0.1 -0.1)">
      <defs>
       <path id="DejaVuSans-Bold-37" d="M 428 4666 
L 3944 4666 
L 3944 3988 
L 2125 0 
L 953 0 
L 2675 3781 
L 428 3781 
L 428 4666 
z
" transform="scale(0.015625)"/>
      </defs>
      <use xlink:href="#DejaVuSans-Bold-33"/>
      <use xlink:href="#DejaVuSans-Bold-30" x="69.580078"/>
      <use xlink:href="#DejaVuSans-Bold-37" x="139.160156"/>
      <use xlink:href="#DejaVuSans-Bold-36" x="208.740234"/>
     </g>
    </g>
    <g clip-path="url(#pc883e421b5)">
     <!-- HilS -->
     <g transform="translate(133.147994 176.227372) scale(0.1 -0.1)">
      <defs>
       <path id="DejaVuSans-Bold-48" d="M 588 4666 
L 1791 4666 
L 1791 2888 
L 3566 2888 
L 3566 4666 
L 4769 4666 
L 4769 0 
L 3566 0 
L 3566 1978 
L 1791 1978 
L 1791 0 
L 588 0 
L 588 4666 
z
" transform="scale(0.015625)"/>
       <path id="DejaVuSans-Bold-53" d="M 3834 4519 
L 3834 3531 
Q 3450 3703 3084 3790 
Q 2719 3878 2394 3878 
Q 1963 3878 1756 3759 
Q 1550 3641 1550 3391 
Q 1550 3203 1689 3098 
Q 1828 2994 2194 2919 
L 2706 2816 
Q 3484 2659 3812 2340 
Q 4141 2022 4141 1434 
Q 4141 663 3683 286 
Q 3225 -91 2284 -91 
Q 1841 -91 1394 -6 
Q 947 78 500 244 
L 500 1259 
Q 947 1022 1364 901 
Q 1781 781 2169 781 
Q 2563 781 2772 912 
Q 2981 1044 2981 1288 
Q 2981 1506 2839 1625 
Q 2697 1744 2272 1838 
L 1806 1941 
Q 1106 2091 782 2419 
Q 459 2747 459 3303 
Q 459 4000 909 4375 
Q 1359 4750 2203 4750 
Q 2588 4750 2994 4692 
Q 3400 4634 3834 4519 
z
" transform="scale(0.015625)"/>
      </defs>
      <use xlink:href="#DejaVuSans-Bold-48"/>
      <use xlink:href="#DejaVuSans-Bold-69" x="83.691406"/>
      <use xlink:href="#DejaVuSans-Bold-6c" x="117.96875"/>
      <use xlink:href="#DejaVuSans-Bold-53" x="152.246094"/>
     </g>
    </g>
   </g>
   <g id="text_11">
    <g clip-path="url(#pc883e421b5)">
     <!-- 3078 -->
     <g transform="translate(209.50114 165.02956) scale(0.1 -0.1)">
      <use xlink:href="#DejaVuSans-Bold-33"/>
      <use xlink:href="#DejaVuSans-Bold-30" x="69.580078"/>
      <use xlink:href="#DejaVuSans-Bold-37" x="139.160156"/>
      <use xlink:href="#DejaVuSans-Bold-38" x="208.740234"/>
     </g>
    </g>
    <g clip-path="url(#pc883e421b5)">
     <!-- FNT -->
     <g transform="translate(212.405828 176.227372) scale(0.1 -0.1)">
      <defs>
       <path id="DejaVuSans-Bold-46" d="M 588 4666 
L 3834 4666 
L 3834 3756 
L 1791 3756 
L 1791 2888 
L 3713 2888 
L 3713 1978 
L 1791 1978 
L 1791 0 
L 588 0 
L 588 4666 
z
" transform="scale(0.015625)"/>
      </defs>
      <use xlink:href="#DejaVuSans-Bold-46"/>
      <use xlink:href="#DejaVuSans-Bold-4e" x="68.310547"/>
      <use xlink:href="#DejaVuSans-Bold-54" x="152.001953"/>
     </g>
    </g>
   </g>
   <g id="text_12">
    <g clip-path="url(#pc883e421b5)">
     <!-- 3080 -->
     <g transform="translate(288.55663 165.02956) scale(0.1 -0.1)">
      <use xlink:href="#DejaVuSans-Bold-33"/>
      <use xlink:href="#DejaVuSans-Bold-30" x="69.580078"/>
      <use xlink:href="#DejaVuSans-Bold-38" x="139.160156"/>
      <use xlink:href="#DejaVuSans-Bold-30" x="208.740234"/>
     </g>
    </g>
    <g clip-path="url(#pc883e421b5)">
     <!-- AT -->
     <g transform="translate(295.579286 176.227372) scale(0.1 -0.1)">
      <use xlink:href="#DejaVuSans-Bold-41"/>
      <use xlink:href="#DejaVuSans-Bold-54" x="69.642578"/>
     </g>
    </g>
   </g>
   <g id="text_13">
    <g clip-path="url(#pc883e421b5)">
     <!-- 3086 -->
     <g transform="translate(367.61212 165.02956) scale(0.1 -0.1)">
      <use xlink:href="#DejaVuSans-Bold-33"/>
      <use xlink:href="#DejaVuSans-Bold-30" x="69.580078"/>
      <use xlink:href="#DejaVuSans-Bold-38" x="139.160156"/>
      <use xlink:href="#DejaVuSans-Bold-36" x="208.740234"/>
     </g>
    </g>
    <g clip-path="url(#pc883e421b5)">
     <!-- GalT -->
     <g transform="translate(368.92462 176.227372) scale(0.1 -0.1)">
      <use xlink:href="#DejaVuSans-Bold-47"/>
      <use xlink:href="#DejaVuSans-Bold-61" x="82.080078"/>
      <use xlink:href="#DejaVuSans-Bold-6c" x="149.560547"/>
      <use xlink:href="#DejaVuSans-Bold-54" x="183.837891"/>
     </g>
    </g>
   </g>
   <g id="text_14">
    <g clip-path="url(#pc883e421b5)">
     <!-- 3088 -->
     <g transform="translate(446.66761 165.02956) scale(0.1 -0.1)">
      <use xlink:href="#DejaVuSans-Bold-33"/>
      <use xlink:href="#DejaVuSans-Bold-30" x="69.580078"/>
      <use xlink:href="#DejaVuSans-Bold-38" x="139.160156"/>
      <use xlink:href="#DejaVuSans-Bold-38" x="208.740234"/>
     </g>
    </g>
    <g clip-path="url(#pc883e421b5)">
     <!-- CA -->
     <g transform="translate(453.044172 176.227372) scale(0.1 -0.1)">
      <use xlink:href="#DejaVuSans-Bold-43"/>
      <use xlink:href="#DejaVuSans-Bold-41" x="73.388672"/>
     </g>
    </g>
   </g>
   <g id="text_15">
    <g clip-path="url(#pc883e421b5)">
     <!-- 3090 -->
     <g transform="translate(525.7231 165.02956) scale(0.1 -0.1)">
      <use xlink:href="#DejaVuSans-Bold-33"/>
      <use xlink:href="#DejaVuSans-Bold-30" x="69.580078"/>
      <use xlink:href="#DejaVuSans-Bold-39" x="139.160156"/>
      <use xlink:href="#DejaVuSans-Bold-30" x="208.740234"/>
     </g>
    </g>
    <g clip-path="url(#pc883e421b5)">
     <!-- Networks -->
     <g transform="translate(512.852006 176.227372) scale(0.1 -0.1)">
      <defs>
       <path id="DejaVuSans-Bold-65" d="M 4031 1759 
L 4031 1441 
L 1416 1441 
Q 1456 1047 1700 850 
Q 1944 653 2381 653 
Q 2734 653 3104 758 
Q 3475 863 3866 1075 
L 3866 213 
Q 3469 63 3072 -14 
Q 2675 -91 2278 -91 
Q 1328 -91 801 392 
Q 275 875 275 1747 
Q 275 2603 792 3093 
Q 1309 3584 2216 3584 
Q 3041 3584 3536 3087 
Q 4031 2591 4031 1759 
z
M 2881 2131 
Q 2881 2450 2695 2645 
Q 2509 2841 2209 2841 
Q 1884 2841 1681 2658 
Q 1478 2475 1428 2131 
L 2881 2131 
z
" transform="scale(0.015625)"/>
       <path id="DejaVuSans-Bold-74" d="M 1759 4494 
L 1759 3500 
L 2913 3500 
L 2913 2700 
L 1759 2700 
L 1759 1216 
Q 1759 972 1856 886 
Q 1953 800 2241 800 
L 2816 800 
L 2816 0 
L 1856 0 
Q 1194 0 917 276 
Q 641 553 641 1216 
L 641 2700 
L 84 2700 
L 84 3500 
L 641 3500 
L 641 4494 
L 1759 4494 
z
" transform="scale(0.015625)"/>
       <path id="DejaVuSans-Bold-77" d="M 225 3500 
L 1313 3500 
L 1900 1088 
L 2491 3500 
L 3425 3500 
L 4013 1113 
L 4603 3500 
L 5691 3500 
L 4769 0 
L 3547 0 
L 2956 2406 
L 2369 0 
L 1147 0 
L 225 3500 
z
" transform="scale(0.015625)"/>
       <path id="DejaVuSans-Bold-6b" d="M 538 4863 
L 1656 4863 
L 1656 2216 
L 2944 3500 
L 4244 3500 
L 2534 1894 
L 4378 0 
L 3022 0 
L 1656 1459 
L 1656 0 
L 538 0 
L 538 4863 
z
" transform="scale(0.015625)"/>
      </defs>
      <use xlink:href="#DejaVuSans-Bold-4e"/>
      <use xlink:href="#DejaVuSans-Bold-65" x="83.691406"/>
      <use xlink:href="#DejaVuSans-Bold-74" x="151.513672"/>
      <use xlink:href="#DejaVuSans-Bold-77" x="199.316406"/>
      <use xlink:href="#DejaVuSans-Bold-6f" x="291.699219"/>
      <use xlink:href="#DejaVuSans-Bold-72" x="360.400391"/>
      <use xlink:href="#DejaVuSans-Bold-6b" x="409.716797"/>
      <use xlink:href="#DejaVuSans-Bold-73" x="476.220703"/>
     </g>
    </g>
   </g>
   <g id="text_16">
    <g clip-path="url(#pc883e421b5)">
     <!-- 3092 -->
     <g transform="translate(604.77859 164.990497) scale(0.1 -0.1)">
      <use xlink:href="#DejaVuSans-Bold-33"/>
      <use xlink:href="#DejaVuSans-Bold-30" x="69.580078"/>
      <use xlink:href="#DejaVuSans-Bold-39" x="139.160156"/>
      <use xlink:href="#DejaVuSans-Bold-32" x="208.740234"/>
     </g>
    </g>
    <g clip-path="url(#pc883e421b5)">
     <!-- Project -->
     <g transform="translate(598.669215 176.18831) scale(0.1 -0.1)">
      <defs>
       <path id="DejaVuSans-Bold-50" d="M 588 4666 
L 2584 4666 
Q 3475 4666 3951 4270 
Q 4428 3875 4428 3144 
Q 4428 2409 3951 2014 
Q 3475 1619 2584 1619 
L 1791 1619 
L 1791 0 
L 588 0 
L 588 4666 
z
M 1791 3794 
L 1791 2491 
L 2456 2491 
Q 2806 2491 2997 2661 
Q 3188 2831 3188 3144 
Q 3188 3456 2997 3625 
Q 2806 3794 2456 3794 
L 1791 3794 
z
" transform="scale(0.015625)"/>
       <path id="DejaVuSans-Bold-6a" d="M 538 3500 
L 1656 3500 
L 1656 63 
Q 1656 -641 1318 -1011 
Q 981 -1381 341 -1381 
L -213 -1381 
L -213 -647 
L -19 -647 
Q 300 -647 419 -503 
Q 538 -359 538 63 
L 538 3500 
z
M 538 4863 
L 1656 4863 
L 1656 3950 
L 538 3950 
L 538 4863 
z
" transform="scale(0.015625)"/>
      </defs>
      <use xlink:href="#DejaVuSans-Bold-50"/>
      <use xlink:href="#DejaVuSans-Bold-72" x="73.291016"/>
      <use xlink:href="#DejaVuSans-Bold-6f" x="122.607422"/>
      <use xlink:href="#DejaVuSans-Bold-6a" x="191.308594"/>
      <use xlink:href="#DejaVuSans-Bold-65" x="225.585938"/>
      <use xlink:href="#DejaVuSans-Bold-63" x="293.408203"/>
      <use xlink:href="#DejaVuSans-Bold-74" x="352.685547"/>
     </g>
    </g>
   </g>
   <g id="text_17">
    <g clip-path="url(#pc883e421b5)">
     <!-- 6079 -->
     <g transform="translate(51.39016 42.808679) scale(0.1 -0.1)">
      <use xlink:href="#DejaVuSans-Bold-36"/>
      <use xlink:href="#DejaVuSans-Bold-30" x="69.580078"/>
      <use xlink:href="#DejaVuSans-Bold-37" x="139.160156"/>
      <use xlink:href="#DejaVuSans-Bold-39" x="208.740234"/>
     </g>
    </g>
    <g clip-path="url(#pc883e421b5)">
     <!-- HypG -->
     <g transform="translate(50.179223 54.006491) scale(0.1 -0.1)">
      <use xlink:href="#DejaVuSans-Bold-48"/>
      <use xlink:href="#DejaVuSans-Bold-79" x="83.691406"/>
      <use xlink:href="#DejaVuSans-Bold-70" x="148.876953"/>
      <use xlink:href="#DejaVuSans-Bold-47" x="220.458984"/>
     </g>
    </g>
   </g>
   <g id="text_18">
    <g clip-path="url(#pc883e421b5)">
     <!-- 6094 -->
     <g transform="translate(130.44565 42.847741) scale(0.1 -0.1)">
      <use xlink:href="#DejaVuSans-Bold-36"/>
      <use xlink:href="#DejaVuSans-Bold-30" x="69.580078"/>
      <use xlink:href="#DejaVuSans-Bold-39" x="139.160156"/>
      <use xlink:href="#DejaVuSans-Bold-34" x="208.740234"/>
     </g>
    </g>
    <g clip-path="url(#pc883e421b5)">
     <!-- GGT -->
     <g transform="translate(132.830025 54.045554) scale(0.1 -0.1)">
      <use xlink:href="#DejaVuSans-Bold-47"/>
      <use xlink:href="#DejaVuSans-Bold-47" x="82.080078"/>
      <use xlink:href="#DejaVuSans-Bold-54" x="162.410156"/>
     </g>
    </g>
   </g>
   <g id="text_19">
    <g clip-path="url(#pc883e421b5)">
     <!-- 6095 -->
     <g transform="translate(209.50114 42.847741) scale(0.1 -0.1)">
      <use xlink:href="#DejaVuSans-Bold-36"/>
      <use xlink:href="#DejaVuSans-Bold-30" x="69.580078"/>
      <use xlink:href="#DejaVuSans-Bold-39" x="139.160156"/>
      <use xlink:href="#DejaVuSans-Bold-35" x="208.740234"/>
     </g>
    </g>
    <g clip-path="url(#pc883e421b5)">
     <!-- IST -->
     <g transform="translate(214.54489 54.045554) scale(0.1 -0.1)">
      <defs>
       <path id="DejaVuSans-Bold-49" d="M 588 4666 
L 1791 4666 
L 1791 0 
L 588 0 
L 588 4666 
z
" transform="scale(0.015625)"/>
      </defs>
      <use xlink:href="#DejaVuSans-Bold-49"/>
      <use xlink:href="#DejaVuSans-Bold-53" x="37.207031"/>
      <use xlink:href="#DejaVuSans-Bold-54" x="109.228516"/>
     </g>
    </g>
   </g>
   <g id="text_20">
    <g clip-path="url(#pc883e421b5)">
     <!-- 6137 -->
     <g transform="translate(288.55663 42.847741) scale(0.1 -0.1)">
      <use xlink:href="#DejaVuSans-Bold-36"/>
      <use xlink:href="#DejaVuSans-Bold-31" x="69.580078"/>
      <use xlink:href="#DejaVuSans-Bold-33" x="139.160156"/>
      <use xlink:href="#DejaVuSans-Bold-37" x="208.740234"/>
     </g>
    </g>
    <g clip-path="url(#pc883e421b5)">
     <!-- HH -->
     <g transform="translate(294.103505 54.045554) scale(0.1 -0.1)">
      <use xlink:href="#DejaVuSans-Bold-48"/>
      <use xlink:href="#DejaVuSans-Bold-48" x="83.691406"/>
     </g>
    </g>
   </g>
   <g id="text_21">
    <g clip-path="url(#pc883e421b5)">
     <!-- 6140 -->
     <g transform="translate(367.61212 42.847741) scale(0.1 -0.1)">
      <use xlink:href="#DejaVuSans-Bold-36"/>
      <use xlink:href="#DejaVuSans-Bold-31" x="69.580078"/>
      <use xlink:href="#DejaVuSans-Bold-34" x="139.160156"/>
      <use xlink:href="#DejaVuSans-Bold-30" x="208.740234"/>
     </g>
    </g>
    <g clip-path="url(#pc883e421b5)">
     <!-- Networks -->
     <g transform="translate(354.741026 54.045554) scale(0.1 -0.1)">
      <use xlink:href="#DejaVuSans-Bold-4e"/>
      <use xlink:href="#DejaVuSans-Bold-65" x="83.691406"/>
      <use xlink:href="#DejaVuSans-Bold-74" x="151.513672"/>
      <use xlink:href="#DejaVuSans-Bold-77" x="199.316406"/>
      <use xlink:href="#DejaVuSans-Bold-6f" x="291.699219"/>
      <use xlink:href="#DejaVuSans-Bold-72" x="360.400391"/>
      <use xlink:href="#DejaVuSans-Bold-6b" x="409.716797"/>
      <use xlink:href="#DejaVuSans-Bold-73" x="476.220703"/>
     </g>
    </g>
   </g>
   <g id="text_22">
    <g clip-path="url(#pc883e421b5)">
     <!-- 6144 -->
     <g transform="translate(446.66761 42.808679) scale(0.1 -0.1)">
      <use xlink:href="#DejaVuSans-Bold-36"/>
      <use xlink:href="#DejaVuSans-Bold-31" x="69.580078"/>
      <use xlink:href="#DejaVuSans-Bold-34" x="139.160156"/>
      <use xlink:href="#DejaVuSans-Bold-34" x="208.740234"/>
     </g>
    </g>
    <g clip-path="url(#pc883e421b5)">
     <!-- Project -->
     <g transform="translate(440.558235 54.006491) scale(0.1 -0.1)">
      <use xlink:href="#DejaVuSans-Bold-50"/>
      <use xlink:href="#DejaVuSans-Bold-72" x="73.291016"/>
      <use xlink:href="#DejaVuSans-Bold-6f" x="122.607422"/>
      <use xlink:href="#DejaVuSans-Bold-6a" x="191.308594"/>
      <use xlink:href="#DejaVuSans-Bold-65" x="225.585938"/>
      <use xlink:href="#DejaVuSans-Bold-63" x="293.408203"/>
      <use xlink:href="#DejaVuSans-Bold-74" x="352.685547"/>
     </g>
    </g>
   </g>
   <g id="text_23">
    <g clip-path="url(#pc883e421b5)">
     <!-- 6155 -->
     <g transform="translate(525.7231 42.847741) scale(0.1 -0.1)">
      <use xlink:href="#DejaVuSans-Bold-36"/>
      <use xlink:href="#DejaVuSans-Bold-31" x="69.580078"/>
      <use xlink:href="#DejaVuSans-Bold-35" x="139.160156"/>
      <use xlink:href="#DejaVuSans-Bold-35" x="208.740234"/>
     </g>
    </g>
    <g clip-path="url(#pc883e421b5)">
     <!-- HA -->
     <g transform="translate(531.584819 54.045554) scale(0.1 -0.1)">
      <use xlink:href="#DejaVuSans-Bold-48"/>
      <use xlink:href="#DejaVuSans-Bold-41" x="83.691406"/>
     </g>
    </g>
   </g>
   <g id="text_24">
    <g clip-path="url(#pc883e421b5)">
     <!-- 6156 -->
     <g transform="translate(604.77859 42.847741) scale(0.1 -0.1)">
      <use xlink:href="#DejaVuSans-Bold-36"/>
      <use xlink:href="#DejaVuSans-Bold-31" x="69.580078"/>
      <use xlink:href="#DejaVuSans-Bold-35" x="139.160156"/>
      <use xlink:href="#DejaVuSans-Bold-36" x="208.740234"/>
     </g>
    </g>
    <g clip-path="url(#pc883e421b5)">
     <!-- MR -->
     <g transform="translate(609.868434 54.045554) scale(0.1 -0.1)">
      <defs>
       <path id="DejaVuSans-Bold-52" d="M 2297 2597 
Q 2675 2597 2839 2737 
Q 3003 2878 3003 3200 
Q 3003 3519 2839 3656 
Q 2675 3794 2297 3794 
L 1791 3794 
L 1791 2597 
L 2297 2597 
z
M 1791 1766 
L 1791 0 
L 588 0 
L 588 4666 
L 2425 4666 
Q 3347 4666 3776 4356 
Q 4206 4047 4206 3378 
Q 4206 2916 3982 2619 
Q 3759 2322 3309 2181 
Q 3556 2125 3751 1926 
Q 3947 1728 4147 1325 
L 4800 0 
L 3519 0 
L 2950 1159 
Q 2778 1509 2601 1637 
Q 2425 1766 2131 1766 
L 1791 1766 
z
" transform="scale(0.015625)"/>
      </defs>
      <use xlink:href="#DejaVuSans-Bold-4d"/>
      <use xlink:href="#DejaVuSans-Bold-52" x="99.511719"/>
     </g>
    </g>
   </g>
  </g>
 </g>
 <defs>
  <clipPath id="pc883e421b5">
   <rect x="7.2" y="7.2" width="669.6" height="443.52"/>
  </clipPath>
 </defs>
</svg>
