<?xml version="1.0" encoding="utf-8" standalone="no"?>
<!DOCTYPE svg PUBLIC "-//W3C//DTD SVG 1.1//EN"
  "http://www.w3.org/Graphics/SVG/1.1/DTD/svg11.dtd">
<svg xmlns:xlink="http://www.w3.org/1999/xlink" width="266.847724pt" height="338.18825pt" viewBox="0 0 266.847724 338.18825" xmlns="http://www.w3.org/2000/svg" version="1.1">
 <metadata>
  <rdf:RDF xmlns:dc="http://purl.org/dc/elements/1.1/" xmlns:cc="http://creativecommons.org/ns#" xmlns:rdf="http://www.w3.org/1999/02/22-rdf-syntax-ns#">
   <cc:Work>
    <dc:type rdf:resource="http://purl.org/dc/dcmitype/StillImage"/>
    <dc:date>2022-08-24T17:33:32.244383</dc:date>
    <dc:format>image/svg+xml</dc:format>
    <dc:creator>
     <cc:Agent>
      <dc:title>Matplotlib v3.5.2, https://matplotlib.org/</dc:title>
     </cc:Agent>
    </dc:creator>
   </cc:Work>
  </rdf:RDF>
 </metadata>
 <defs>
  <style type="text/css">*{stroke-linejoin: round; stroke-linecap: butt}</style>
 </defs>
 <g id="figure_1">
  <g id="patch_1">
   <path d="M 0 338.18825 
L 266.847724 338.18825 
L 266.847724 0 
L 0 0 
z
" style="fill: #ffffff"/>
  </g>
  <g id="axes_1">
   <g id="patch_2">
    <path d="M 7.2 91.110125 
L 259.647724 91.110125 
L 259.647724 22.318125 
L 7.2 22.318125 
z
" style="fill: #ffffff"/>
   </g>
   <g id="matplotlib.axis_1">
    <g id="xtick_1">
     <g id="line2d_1">
      <defs>
       <path id="mf58048e86e" d="M 0 0 
L 0 3.5 
" style="stroke: #000000; stroke-width: 0.8"/>
      </defs>
      <g>
       <use xlink:href="#mf58048e86e" x="18.674897" y="91.110125" style="stroke: #000000; stroke-width: 0.8"/>
      </g>
     </g>
     <g id="text_1">
      <!-- $x_{i-2}$ -->
      <g transform="translate(8.074897 105.708562)scale(0.1 -0.1)">
       <defs>
        <path id="DejaVuSans-Oblique-78" d="M 3841 3500 
L 2234 1784 
L 3219 0 
L 2559 0 
L 1819 1388 
L 531 0 
L -166 0 
L 1556 1844 
L 641 3500 
L 1300 3500 
L 1972 2234 
L 3144 3500 
L 3841 3500 
z
" transform="scale(0.015625)"/>
        <path id="DejaVuSans-Oblique-69" d="M 1172 4863 
L 1747 4863 
L 1606 4134 
L 1031 4134 
L 1172 4863 
z
M 909 3500 
L 1484 3500 
L 800 0 
L 225 0 
L 909 3500 
z
" transform="scale(0.015625)"/>
        <path id="DejaVuSans-2212" d="M 678 2272 
L 4684 2272 
L 4684 1741 
L 678 1741 
L 678 2272 
z
" transform="scale(0.015625)"/>
        <path id="DejaVuSans-32" d="M 1228 531 
L 3431 531 
L 3431 0 
L 469 0 
L 469 531 
Q 828 903 1448 1529 
Q 2069 2156 2228 2338 
Q 2531 2678 2651 2914 
Q 2772 3150 2772 3378 
Q 2772 3750 2511 3984 
Q 2250 4219 1831 4219 
Q 1534 4219 1204 4116 
Q 875 4013 500 3803 
L 500 4441 
Q 881 4594 1212 4672 
Q 1544 4750 1819 4750 
Q 2544 4750 2975 4387 
Q 3406 4025 3406 3419 
Q 3406 3131 3298 2873 
Q 3191 2616 2906 2266 
Q 2828 2175 2409 1742 
Q 1991 1309 1228 531 
z
" transform="scale(0.015625)"/>
       </defs>
       <use xlink:href="#DejaVuSans-Oblique-78" transform="translate(0 0.3125)"/>
       <use xlink:href="#DejaVuSans-Oblique-69" transform="translate(59.179688 -16.09375)scale(0.7)"/>
       <use xlink:href="#DejaVuSans-2212" transform="translate(92.265625 -16.09375)scale(0.7)"/>
       <use xlink:href="#DejaVuSans-32" transform="translate(164.555664 -16.09375)scale(0.7)"/>
      </g>
     </g>
    </g>
    <g id="xtick_2">
     <g id="line2d_2">
      <g>
       <use xlink:href="#mf58048e86e" x="76.049379" y="91.110125" style="stroke: #000000; stroke-width: 0.8"/>
      </g>
     </g>
     <g id="text_2">
      <!-- $x_{i-1}$ -->
      <g transform="translate(65.449379 105.708562)scale(0.1 -0.1)">
       <defs>
        <path id="DejaVuSans-31" d="M 794 531 
L 1825 531 
L 1825 4091 
L 703 3866 
L 703 4441 
L 1819 4666 
L 2450 4666 
L 2450 531 
L 3481 531 
L 3481 0 
L 794 0 
L 794 531 
z
" transform="scale(0.015625)"/>
       </defs>
       <use xlink:href="#DejaVuSans-Oblique-78" transform="translate(0 0.3125)"/>
       <use xlink:href="#DejaVuSans-Oblique-69" transform="translate(59.179688 -16.09375)scale(0.7)"/>
       <use xlink:href="#DejaVuSans-2212" transform="translate(92.265625 -16.09375)scale(0.7)"/>
       <use xlink:href="#DejaVuSans-31" transform="translate(164.555664 -16.09375)scale(0.7)"/>
      </g>
     </g>
    </g>
    <g id="xtick_3">
     <g id="line2d_3">
      <g>
       <use xlink:href="#mf58048e86e" x="133.423862" y="91.110125" style="stroke: #000000; stroke-width: 0.8"/>
      </g>
     </g>
     <g id="text_3">
      <!-- $x_{i}$ -->
      <g transform="translate(129.323862 105.708562)scale(0.1 -0.1)">
       <use xlink:href="#DejaVuSans-Oblique-78" transform="translate(0 0.3125)"/>
       <use xlink:href="#DejaVuSans-Oblique-69" transform="translate(59.179688 -16.09375)scale(0.7)"/>
      </g>
     </g>
    </g>
    <g id="xtick_4">
     <g id="line2d_4">
      <g>
       <use xlink:href="#mf58048e86e" x="190.798345" y="91.110125" style="stroke: #000000; stroke-width: 0.8"/>
      </g>
     </g>
     <g id="text_4">
      <!-- $x_{i+1}$ -->
      <g transform="translate(180.198345 105.708562)scale(0.1 -0.1)">
       <defs>
        <path id="DejaVuSans-2b" d="M 2944 4013 
L 2944 2272 
L 4684 2272 
L 4684 1741 
L 2944 1741 
L 2944 0 
L 2419 0 
L 2419 1741 
L 678 1741 
L 678 2272 
L 2419 2272 
L 2419 4013 
L 2944 4013 
z
" transform="scale(0.015625)"/>
       </defs>
       <use xlink:href="#DejaVuSans-Oblique-78" transform="translate(0 0.3125)"/>
       <use xlink:href="#DejaVuSans-Oblique-69" transform="translate(59.179688 -16.09375)scale(0.7)"/>
       <use xlink:href="#DejaVuSans-2b" transform="translate(92.265625 -16.09375)scale(0.7)"/>
       <use xlink:href="#DejaVuSans-31" transform="translate(164.555664 -16.09375)scale(0.7)"/>
      </g>
     </g>
    </g>
    <g id="xtick_5">
     <g id="line2d_5">
      <g>
       <use xlink:href="#mf58048e86e" x="248.172827" y="91.110125" style="stroke: #000000; stroke-width: 0.8"/>
      </g>
     </g>
     <g id="text_5">
      <!-- $x_{i+2}$ -->
      <g transform="translate(237.572827 105.708562)scale(0.1 -0.1)">
       <use xlink:href="#DejaVuSans-Oblique-78" transform="translate(0 0.3125)"/>
       <use xlink:href="#DejaVuSans-Oblique-69" transform="translate(59.179688 -16.09375)scale(0.7)"/>
       <use xlink:href="#DejaVuSans-2b" transform="translate(92.265625 -16.09375)scale(0.7)"/>
       <use xlink:href="#DejaVuSans-32" transform="translate(164.555664 -16.09375)scale(0.7)"/>
      </g>
     </g>
    </g>
   </g>
   <g id="matplotlib.axis_2"/>
   <g id="line2d_6">
    <path d="M 18.674897 91.110125 
L 18.674897 29.197325 
" clip-path="url(#p4b30b96cd6)" style="fill: none; stroke-dasharray: 3.7,1.6; stroke-dashoffset: 0; stroke: #0000ff"/>
   </g>
   <g id="line2d_7">
    <path d="M 76.049379 91.110125 
L 76.049379 29.197325 
" clip-path="url(#p4b30b96cd6)" style="fill: none; stroke-dasharray: 3.7,1.6; stroke-dashoffset: 0; stroke: #0000ff"/>
   </g>
   <g id="line2d_8">
    <path d="M 133.423862 91.110125 
L 133.423862 29.197325 
" clip-path="url(#p4b30b96cd6)" style="fill: none; stroke-dasharray: 3.7,1.6; stroke-dashoffset: 0; stroke: #0000ff"/>
   </g>
   <g id="line2d_9">
    <path d="M 190.798345 91.110125 
L 190.798345 29.197325 
" clip-path="url(#p4b30b96cd6)" style="fill: none; stroke-dasharray: 3.7,1.6; stroke-dashoffset: 0; stroke: #0000ff"/>
   </g>
   <g id="line2d_10">
    <path d="M 248.172827 91.110125 
L 248.172827 29.197325 
" clip-path="url(#p4b30b96cd6)" style="fill: none; stroke-dasharray: 3.7,1.6; stroke-dashoffset: 0; stroke: #0000ff"/>
   </g>
   <g id="line2d_11">
    <defs>
     <path id="m055fb475d1" d="M -5 5 
L 5 -5 
M -5 -5 
L 5 5 
" style="stroke: #000000; stroke-width: 3"/>
    </defs>
    <g clip-path="url(#p4b30b96cd6)">
     <use xlink:href="#m055fb475d1" x="18.674897" y="36.076525" style="stroke: #000000; stroke-width: 3"/>
     <use xlink:href="#m055fb475d1" x="76.049379" y="56.714125" style="stroke: #000000; stroke-width: 3"/>
     <use xlink:href="#m055fb475d1" x="133.423862" y="60.153725" style="stroke: #000000; stroke-width: 3"/>
     <use xlink:href="#m055fb475d1" x="190.798345" y="70.472525" style="stroke: #000000; stroke-width: 3"/>
     <use xlink:href="#m055fb475d1" x="248.172827" y="85.950725" style="stroke: #000000; stroke-width: 3"/>
    </g>
   </g>
   <g id="patch_3">
    <path d="M 7.2 91.110125 
L 259.647724 91.110125 
" style="fill: none; stroke: #000000; stroke-width: 0.8; stroke-linejoin: miter; stroke-linecap: square"/>
   </g>
   <g id="text_6">
    <!-- Finite differences -->
    <g transform="translate(81.986049 16.318125)scale(0.12 -0.12)">
     <defs>
      <path id="DejaVuSans-46" d="M 628 4666 
L 3309 4666 
L 3309 4134 
L 1259 4134 
L 1259 2759 
L 3109 2759 
L 3109 2228 
L 1259 2228 
L 1259 0 
L 628 0 
L 628 4666 
z
" transform="scale(0.015625)"/>
      <path id="DejaVuSans-69" d="M 603 3500 
L 1178 3500 
L 1178 0 
L 603 0 
L 603 3500 
z
M 603 4863 
L 1178 4863 
L 1178 4134 
L 603 4134 
L 603 4863 
z
" transform="scale(0.015625)"/>
      <path id="DejaVuSans-6e" d="M 3513 2113 
L 3513 0 
L 2938 0 
L 2938 2094 
Q 2938 2591 2744 2837 
Q 2550 3084 2163 3084 
Q 1697 3084 1428 2787 
Q 1159 2491 1159 1978 
L 1159 0 
L 581 0 
L 581 3500 
L 1159 3500 
L 1159 2956 
Q 1366 3272 1645 3428 
Q 1925 3584 2291 3584 
Q 2894 3584 3203 3211 
Q 3513 2838 3513 2113 
z
" transform="scale(0.015625)"/>
      <path id="DejaVuSans-74" d="M 1172 4494 
L 1172 3500 
L 2356 3500 
L 2356 3053 
L 1172 3053 
L 1172 1153 
Q 1172 725 1289 603 
Q 1406 481 1766 481 
L 2356 481 
L 2356 0 
L 1766 0 
Q 1100 0 847 248 
Q 594 497 594 1153 
L 594 3053 
L 172 3053 
L 172 3500 
L 594 3500 
L 594 4494 
L 1172 4494 
z
" transform="scale(0.015625)"/>
      <path id="DejaVuSans-65" d="M 3597 1894 
L 3597 1613 
L 953 1613 
Q 991 1019 1311 708 
Q 1631 397 2203 397 
Q 2534 397 2845 478 
Q 3156 559 3463 722 
L 3463 178 
Q 3153 47 2828 -22 
Q 2503 -91 2169 -91 
Q 1331 -91 842 396 
Q 353 884 353 1716 
Q 353 2575 817 3079 
Q 1281 3584 2069 3584 
Q 2775 3584 3186 3129 
Q 3597 2675 3597 1894 
z
M 3022 2063 
Q 3016 2534 2758 2815 
Q 2500 3097 2075 3097 
Q 1594 3097 1305 2825 
Q 1016 2553 972 2059 
L 3022 2063 
z
" transform="scale(0.015625)"/>
      <path id="DejaVuSans-20" transform="scale(0.015625)"/>
      <path id="DejaVuSans-64" d="M 2906 2969 
L 2906 4863 
L 3481 4863 
L 3481 0 
L 2906 0 
L 2906 525 
Q 2725 213 2448 61 
Q 2172 -91 1784 -91 
Q 1150 -91 751 415 
Q 353 922 353 1747 
Q 353 2572 751 3078 
Q 1150 3584 1784 3584 
Q 2172 3584 2448 3432 
Q 2725 3281 2906 2969 
z
M 947 1747 
Q 947 1113 1208 752 
Q 1469 391 1925 391 
Q 2381 391 2643 752 
Q 2906 1113 2906 1747 
Q 2906 2381 2643 2742 
Q 2381 3103 1925 3103 
Q 1469 3103 1208 2742 
Q 947 2381 947 1747 
z
" transform="scale(0.015625)"/>
      <path id="DejaVuSans-66" d="M 2375 4863 
L 2375 4384 
L 1825 4384 
Q 1516 4384 1395 4259 
Q 1275 4134 1275 3809 
L 1275 3500 
L 2222 3500 
L 2222 3053 
L 1275 3053 
L 1275 0 
L 697 0 
L 697 3053 
L 147 3053 
L 147 3500 
L 697 3500 
L 697 3744 
Q 697 4328 969 4595 
Q 1241 4863 1831 4863 
L 2375 4863 
z
" transform="scale(0.015625)"/>
      <path id="DejaVuSans-72" d="M 2631 2963 
Q 2534 3019 2420 3045 
Q 2306 3072 2169 3072 
Q 1681 3072 1420 2755 
Q 1159 2438 1159 1844 
L 1159 0 
L 581 0 
L 581 3500 
L 1159 3500 
L 1159 2956 
Q 1341 3275 1631 3429 
Q 1922 3584 2338 3584 
Q 2397 3584 2469 3576 
Q 2541 3569 2628 3553 
L 2631 2963 
z
" transform="scale(0.015625)"/>
      <path id="DejaVuSans-63" d="M 3122 3366 
L 3122 2828 
Q 2878 2963 2633 3030 
Q 2388 3097 2138 3097 
Q 1578 3097 1268 2742 
Q 959 2388 959 1747 
Q 959 1106 1268 751 
Q 1578 397 2138 397 
Q 2388 397 2633 464 
Q 2878 531 3122 666 
L 3122 134 
Q 2881 22 2623 -34 
Q 2366 -91 2075 -91 
Q 1284 -91 818 406 
Q 353 903 353 1747 
Q 353 2603 823 3093 
Q 1294 3584 2113 3584 
Q 2378 3584 2631 3529 
Q 2884 3475 3122 3366 
z
" transform="scale(0.015625)"/>
      <path id="DejaVuSans-73" d="M 2834 3397 
L 2834 2853 
Q 2591 2978 2328 3040 
Q 2066 3103 1784 3103 
Q 1356 3103 1142 2972 
Q 928 2841 928 2578 
Q 928 2378 1081 2264 
Q 1234 2150 1697 2047 
L 1894 2003 
Q 2506 1872 2764 1633 
Q 3022 1394 3022 966 
Q 3022 478 2636 193 
Q 2250 -91 1575 -91 
Q 1294 -91 989 -36 
Q 684 19 347 128 
L 347 722 
Q 666 556 975 473 
Q 1284 391 1588 391 
Q 1994 391 2212 530 
Q 2431 669 2431 922 
Q 2431 1156 2273 1281 
Q 2116 1406 1581 1522 
L 1381 1569 
Q 847 1681 609 1914 
Q 372 2147 372 2553 
Q 372 3047 722 3315 
Q 1072 3584 1716 3584 
Q 2034 3584 2315 3537 
Q 2597 3491 2834 3397 
z
" transform="scale(0.015625)"/>
     </defs>
     <use xlink:href="#DejaVuSans-46"/>
     <use xlink:href="#DejaVuSans-69" x="50.269531"/>
     <use xlink:href="#DejaVuSans-6e" x="78.052734"/>
     <use xlink:href="#DejaVuSans-69" x="141.431641"/>
     <use xlink:href="#DejaVuSans-74" x="169.214844"/>
     <use xlink:href="#DejaVuSans-65" x="208.423828"/>
     <use xlink:href="#DejaVuSans-20" x="269.947266"/>
     <use xlink:href="#DejaVuSans-64" x="301.734375"/>
     <use xlink:href="#DejaVuSans-69" x="365.210938"/>
     <use xlink:href="#DejaVuSans-66" x="392.994141"/>
     <use xlink:href="#DejaVuSans-66" x="428.199219"/>
     <use xlink:href="#DejaVuSans-65" x="463.404297"/>
     <use xlink:href="#DejaVuSans-72" x="524.927734"/>
     <use xlink:href="#DejaVuSans-65" x="563.791016"/>
     <use xlink:href="#DejaVuSans-6e" x="625.314453"/>
     <use xlink:href="#DejaVuSans-63" x="688.693359"/>
     <use xlink:href="#DejaVuSans-65" x="743.673828"/>
     <use xlink:href="#DejaVuSans-73" x="805.197266"/>
    </g>
   </g>
  </g>
  <g id="axes_2">
   <g id="patch_4">
    <path d="M 7.2 202.710125 
L 259.647724 202.710125 
L 259.647724 133.918125 
L 7.2 133.918125 
z
" style="fill: #ffffff"/>
   </g>
   <g id="matplotlib.axis_3">
    <g id="xtick_6">
     <g id="line2d_12">
      <g>
       <use xlink:href="#mf58048e86e" x="18.674897" y="202.710125" style="stroke: #000000; stroke-width: 0.8"/>
      </g>
     </g>
     <g id="text_7">
      <!-- $x_{i-2}$ -->
      <g transform="translate(8.074897 217.308562)scale(0.1 -0.1)">
       <use xlink:href="#DejaVuSans-Oblique-78" transform="translate(0 0.3125)"/>
       <use xlink:href="#DejaVuSans-Oblique-69" transform="translate(59.179688 -16.09375)scale(0.7)"/>
       <use xlink:href="#DejaVuSans-2212" transform="translate(92.265625 -16.09375)scale(0.7)"/>
       <use xlink:href="#DejaVuSans-32" transform="translate(164.555664 -16.09375)scale(0.7)"/>
      </g>
     </g>
    </g>
    <g id="xtick_7">
     <g id="line2d_13">
      <g>
       <use xlink:href="#mf58048e86e" x="76.049379" y="202.710125" style="stroke: #000000; stroke-width: 0.8"/>
      </g>
     </g>
     <g id="text_8">
      <!-- $x_{i-1}$ -->
      <g transform="translate(65.449379 217.308562)scale(0.1 -0.1)">
       <use xlink:href="#DejaVuSans-Oblique-78" transform="translate(0 0.3125)"/>
       <use xlink:href="#DejaVuSans-Oblique-69" transform="translate(59.179688 -16.09375)scale(0.7)"/>
       <use xlink:href="#DejaVuSans-2212" transform="translate(92.265625 -16.09375)scale(0.7)"/>
       <use xlink:href="#DejaVuSans-31" transform="translate(164.555664 -16.09375)scale(0.7)"/>
      </g>
     </g>
    </g>
    <g id="xtick_8">
     <g id="line2d_14">
      <g>
       <use xlink:href="#mf58048e86e" x="133.423862" y="202.710125" style="stroke: #000000; stroke-width: 0.8"/>
      </g>
     </g>
     <g id="text_9">
      <!-- $x_{i}$ -->
      <g transform="translate(129.323862 217.308562)scale(0.1 -0.1)">
       <use xlink:href="#DejaVuSans-Oblique-78" transform="translate(0 0.3125)"/>
       <use xlink:href="#DejaVuSans-Oblique-69" transform="translate(59.179688 -16.09375)scale(0.7)"/>
      </g>
     </g>
    </g>
    <g id="xtick_9">
     <g id="line2d_15">
      <g>
       <use xlink:href="#mf58048e86e" x="190.798345" y="202.710125" style="stroke: #000000; stroke-width: 0.8"/>
      </g>
     </g>
     <g id="text_10">
      <!-- $x_{i+1}$ -->
      <g transform="translate(180.198345 217.308562)scale(0.1 -0.1)">
       <use xlink:href="#DejaVuSans-Oblique-78" transform="translate(0 0.3125)"/>
       <use xlink:href="#DejaVuSans-Oblique-69" transform="translate(59.179688 -16.09375)scale(0.7)"/>
       <use xlink:href="#DejaVuSans-2b" transform="translate(92.265625 -16.09375)scale(0.7)"/>
       <use xlink:href="#DejaVuSans-31" transform="translate(164.555664 -16.09375)scale(0.7)"/>
      </g>
     </g>
    </g>
    <g id="xtick_10">
     <g id="line2d_16">
      <g>
       <use xlink:href="#mf58048e86e" x="248.172827" y="202.710125" style="stroke: #000000; stroke-width: 0.8"/>
      </g>
     </g>
     <g id="text_11">
      <!-- $x_{i+2}$ -->
      <g transform="translate(237.572827 217.308562)scale(0.1 -0.1)">
       <use xlink:href="#DejaVuSans-Oblique-78" transform="translate(0 0.3125)"/>
       <use xlink:href="#DejaVuSans-Oblique-69" transform="translate(59.179688 -16.09375)scale(0.7)"/>
       <use xlink:href="#DejaVuSans-2b" transform="translate(92.265625 -16.09375)scale(0.7)"/>
       <use xlink:href="#DejaVuSans-32" transform="translate(164.555664 -16.09375)scale(0.7)"/>
      </g>
     </g>
    </g>
   </g>
   <g id="matplotlib.axis_4"/>
   <g id="line2d_17">
    <path d="M 47.362138 202.710125 
L 47.362138 140.797325 
" clip-path="url(#p75026b9bfe)" style="fill: none; stroke-dasharray: 3.7,1.6; stroke-dashoffset: 0; stroke: #0000ff"/>
   </g>
   <g id="line2d_18">
    <path d="M 104.736621 202.710125 
L 104.736621 140.797325 
" clip-path="url(#p75026b9bfe)" style="fill: none; stroke-dasharray: 3.7,1.6; stroke-dashoffset: 0; stroke: #0000ff"/>
   </g>
   <g id="line2d_19">
    <path d="M 162.111103 202.710125 
L 162.111103 140.797325 
" clip-path="url(#p75026b9bfe)" style="fill: none; stroke-dasharray: 3.7,1.6; stroke-dashoffset: 0; stroke: #0000ff"/>
   </g>
   <g id="line2d_20">
    <path d="M 219.485586 202.710125 
L 219.485586 140.797325 
" clip-path="url(#p75026b9bfe)" style="fill: none; stroke-dasharray: 3.7,1.6; stroke-dashoffset: 0; stroke: #0000ff"/>
   </g>
   <g id="line2d_21">
    <path d="M -1 147.676525 
L 47.362138 147.676525 
L 47.362138 168.314125 
L 104.736621 168.314125 
L 104.736621 171.753725 
L 162.111103 171.753725 
L 162.111103 182.072525 
L 219.485586 182.072525 
L 219.485586 197.550725 
L 267.847724 197.550725 
" clip-path="url(#p75026b9bfe)" style="fill: none; stroke: #000000; stroke-width: 3; stroke-linecap: square"/>
   </g>
   <g id="patch_5">
    <path d="M 7.2 202.710125 
L 259.647724 202.710125 
" style="fill: none; stroke: #000000; stroke-width: 0.8; stroke-linejoin: miter; stroke-linecap: square"/>
   </g>
   <g id="text_12">
    <!-- Finite volumes -->
    <g transform="translate(89.966987 127.918125)scale(0.12 -0.12)">
     <defs>
      <path id="DejaVuSans-76" d="M 191 3500 
L 800 3500 
L 1894 563 
L 2988 3500 
L 3597 3500 
L 2284 0 
L 1503 0 
L 191 3500 
z
" transform="scale(0.015625)"/>
      <path id="DejaVuSans-6f" d="M 1959 3097 
Q 1497 3097 1228 2736 
Q 959 2375 959 1747 
Q 959 1119 1226 758 
Q 1494 397 1959 397 
Q 2419 397 2687 759 
Q 2956 1122 2956 1747 
Q 2956 2369 2687 2733 
Q 2419 3097 1959 3097 
z
M 1959 3584 
Q 2709 3584 3137 3096 
Q 3566 2609 3566 1747 
Q 3566 888 3137 398 
Q 2709 -91 1959 -91 
Q 1206 -91 779 398 
Q 353 888 353 1747 
Q 353 2609 779 3096 
Q 1206 3584 1959 3584 
z
" transform="scale(0.015625)"/>
      <path id="DejaVuSans-6c" d="M 603 4863 
L 1178 4863 
L 1178 0 
L 603 0 
L 603 4863 
z
" transform="scale(0.015625)"/>
      <path id="DejaVuSans-75" d="M 544 1381 
L 544 3500 
L 1119 3500 
L 1119 1403 
Q 1119 906 1312 657 
Q 1506 409 1894 409 
Q 2359 409 2629 706 
Q 2900 1003 2900 1516 
L 2900 3500 
L 3475 3500 
L 3475 0 
L 2900 0 
L 2900 538 
Q 2691 219 2414 64 
Q 2138 -91 1772 -91 
Q 1169 -91 856 284 
Q 544 659 544 1381 
z
M 1991 3584 
L 1991 3584 
z
" transform="scale(0.015625)"/>
      <path id="DejaVuSans-6d" d="M 3328 2828 
Q 3544 3216 3844 3400 
Q 4144 3584 4550 3584 
Q 5097 3584 5394 3201 
Q 5691 2819 5691 2113 
L 5691 0 
L 5113 0 
L 5113 2094 
Q 5113 2597 4934 2840 
Q 4756 3084 4391 3084 
Q 3944 3084 3684 2787 
Q 3425 2491 3425 1978 
L 3425 0 
L 2847 0 
L 2847 2094 
Q 2847 2600 2669 2842 
Q 2491 3084 2119 3084 
Q 1678 3084 1418 2786 
Q 1159 2488 1159 1978 
L 1159 0 
L 581 0 
L 581 3500 
L 1159 3500 
L 1159 2956 
Q 1356 3278 1631 3431 
Q 1906 3584 2284 3584 
Q 2666 3584 2933 3390 
Q 3200 3197 3328 2828 
z
" transform="scale(0.015625)"/>
     </defs>
     <use xlink:href="#DejaVuSans-46"/>
     <use xlink:href="#DejaVuSans-69" x="50.269531"/>
     <use xlink:href="#DejaVuSans-6e" x="78.052734"/>
     <use xlink:href="#DejaVuSans-69" x="141.431641"/>
     <use xlink:href="#DejaVuSans-74" x="169.214844"/>
     <use xlink:href="#DejaVuSans-65" x="208.423828"/>
     <use xlink:href="#DejaVuSans-20" x="269.947266"/>
     <use xlink:href="#DejaVuSans-76" x="301.734375"/>
     <use xlink:href="#DejaVuSans-6f" x="360.914062"/>
     <use xlink:href="#DejaVuSans-6c" x="422.095703"/>
     <use xlink:href="#DejaVuSans-75" x="449.878906"/>
     <use xlink:href="#DejaVuSans-6d" x="513.257812"/>
     <use xlink:href="#DejaVuSans-65" x="610.669922"/>
     <use xlink:href="#DejaVuSans-73" x="672.193359"/>
    </g>
   </g>
  </g>
  <g id="axes_3">
   <g id="patch_6">
    <path d="M 7.2 314.310125 
L 259.647724 314.310125 
L 259.647724 245.518125 
L 7.2 245.518125 
z
" style="fill: #ffffff"/>
   </g>
   <g id="matplotlib.axis_5">
    <g id="xtick_11">
     <g id="line2d_22">
      <g>
       <use xlink:href="#mf58048e86e" x="18.674897" y="314.310125" style="stroke: #000000; stroke-width: 0.8"/>
      </g>
     </g>
     <g id="text_13">
      <!-- $x_{i-2}$ -->
      <g transform="translate(8.074897 328.908562)scale(0.1 -0.1)">
       <use xlink:href="#DejaVuSans-Oblique-78" transform="translate(0 0.3125)"/>
       <use xlink:href="#DejaVuSans-Oblique-69" transform="translate(59.179688 -16.09375)scale(0.7)"/>
       <use xlink:href="#DejaVuSans-2212" transform="translate(92.265625 -16.09375)scale(0.7)"/>
       <use xlink:href="#DejaVuSans-32" transform="translate(164.555664 -16.09375)scale(0.7)"/>
      </g>
     </g>
    </g>
    <g id="xtick_12">
     <g id="line2d_23">
      <g>
       <use xlink:href="#mf58048e86e" x="76.049379" y="314.310125" style="stroke: #000000; stroke-width: 0.8"/>
      </g>
     </g>
     <g id="text_14">
      <!-- $x_{i-1}$ -->
      <g transform="translate(65.449379 328.908562)scale(0.1 -0.1)">
       <use xlink:href="#DejaVuSans-Oblique-78" transform="translate(0 0.3125)"/>
       <use xlink:href="#DejaVuSans-Oblique-69" transform="translate(59.179688 -16.09375)scale(0.7)"/>
       <use xlink:href="#DejaVuSans-2212" transform="translate(92.265625 -16.09375)scale(0.7)"/>
       <use xlink:href="#DejaVuSans-31" transform="translate(164.555664 -16.09375)scale(0.7)"/>
      </g>
     </g>
    </g>
    <g id="xtick_13">
     <g id="line2d_24">
      <g>
       <use xlink:href="#mf58048e86e" x="133.423862" y="314.310125" style="stroke: #000000; stroke-width: 0.8"/>
      </g>
     </g>
     <g id="text_15">
      <!-- $x_{i}$ -->
      <g transform="translate(129.323862 328.908562)scale(0.1 -0.1)">
       <use xlink:href="#DejaVuSans-Oblique-78" transform="translate(0 0.3125)"/>
       <use xlink:href="#DejaVuSans-Oblique-69" transform="translate(59.179688 -16.09375)scale(0.7)"/>
      </g>
     </g>
    </g>
    <g id="xtick_14">
     <g id="line2d_25">
      <g>
       <use xlink:href="#mf58048e86e" x="190.798345" y="314.310125" style="stroke: #000000; stroke-width: 0.8"/>
      </g>
     </g>
     <g id="text_16">
      <!-- $x_{i+1}$ -->
      <g transform="translate(180.198345 328.908562)scale(0.1 -0.1)">
       <use xlink:href="#DejaVuSans-Oblique-78" transform="translate(0 0.3125)"/>
       <use xlink:href="#DejaVuSans-Oblique-69" transform="translate(59.179688 -16.09375)scale(0.7)"/>
       <use xlink:href="#DejaVuSans-2b" transform="translate(92.265625 -16.09375)scale(0.7)"/>
       <use xlink:href="#DejaVuSans-31" transform="translate(164.555664 -16.09375)scale(0.7)"/>
      </g>
     </g>
    </g>
    <g id="xtick_15">
     <g id="line2d_26">
      <g>
       <use xlink:href="#mf58048e86e" x="248.172827" y="314.310125" style="stroke: #000000; stroke-width: 0.8"/>
      </g>
     </g>
     <g id="text_17">
      <!-- $x_{i+2}$ -->
      <g transform="translate(237.572827 328.908562)scale(0.1 -0.1)">
       <use xlink:href="#DejaVuSans-Oblique-78" transform="translate(0 0.3125)"/>
       <use xlink:href="#DejaVuSans-Oblique-69" transform="translate(59.179688 -16.09375)scale(0.7)"/>
       <use xlink:href="#DejaVuSans-2b" transform="translate(92.265625 -16.09375)scale(0.7)"/>
       <use xlink:href="#DejaVuSans-32" transform="translate(164.555664 -16.09375)scale(0.7)"/>
      </g>
     </g>
    </g>
   </g>
   <g id="matplotlib.axis_6"/>
   <g id="line2d_27">
    <path d="M 47.362138 314.310125 
L 47.362138 252.397325 
" clip-path="url(#p786d4ea47d)" style="fill: none; stroke-dasharray: 3.7,1.6; stroke-dashoffset: 0; stroke: #0000ff"/>
   </g>
   <g id="line2d_28">
    <path d="M -1 259.276525 
L -0.645082 259.276525 
L 0.525825 259.276525 
L 1.696733 259.276525 
L 2.867641 259.276525 
L 4.038549 259.276525 
L 5.209457 259.276525 
L 6.380365 259.276525 
L 7.551272 259.276525 
L 8.72218 259.276525 
L 9.893088 259.276525 
L 11.063996 259.276525 
L 12.234904 259.276525 
L 13.405811 259.276525 
L 14.576719 259.276525 
L 15.747627 259.276525 
L 16.918535 259.276525 
L 18.089443 259.276525 
L 19.26035 259.276525 
L 20.431258 259.276525 
L 21.602166 259.276525 
L 22.773074 259.276525 
L 23.943982 259.276525 
L 25.11489 259.276525 
L 26.285797 259.276525 
L 27.456705 259.276525 
L 28.627613 259.276525 
L 29.798521 259.276525 
L 30.969429 259.276525 
L 32.140336 259.276525 
L 33.311244 259.276525 
L 34.482152 259.276525 
L 35.65306 259.276525 
L 36.823968 259.276525 
L 37.994875 259.276525 
L 39.165783 259.276525 
L 40.336691 259.276525 
L 41.507599 259.276525 
L 42.678507 259.276525 
L 43.849414 259.276525 
L 45.020322 259.276525 
L 46.19123 259.276525 
L 47.362138 259.276525 
" clip-path="url(#p786d4ea47d)" style="fill: none; stroke-dasharray: 2,3.3; stroke-dashoffset: 0; stroke: #000000; stroke-width: 2"/>
   </g>
   <g id="line2d_29">
    <path d="M -1 266.353585 
L -0.645082 266.225921 
L 0.525825 265.804745 
L 1.696733 265.38357 
L 2.867641 264.962394 
L 4.038549 264.541219 
L 5.209457 264.120043 
L 6.380365 263.698868 
L 7.551272 263.277692 
L 8.72218 262.856517 
L 9.893088 262.435341 
L 11.063996 262.014166 
L 12.234904 261.59299 
L 13.405811 261.171815 
L 14.576719 260.750639 
L 15.747627 260.329464 
L 16.918535 259.908288 
L 18.089443 259.487113 
L 19.26035 259.065937 
L 20.431258 258.644762 
L 21.602166 258.223586 
L 22.773074 257.802411 
L 23.943982 257.381235 
L 25.11489 256.96006 
L 26.285797 256.538884 
L 27.456705 256.117709 
L 28.627613 255.696533 
L 29.798521 255.275358 
L 30.969429 254.854182 
L 32.140336 254.433007 
L 33.311244 254.011831 
L 34.482152 253.590656 
L 35.65306 253.16948 
L 36.823968 252.748305 
L 37.994875 252.327129 
L 39.165783 251.905954 
L 40.336691 251.484778 
L 41.507599 251.063603 
L 42.678507 250.642427 
L 43.849414 250.221252 
L 45.020322 249.800076 
L 46.19123 249.378901 
L 47.362138 248.957725 
" clip-path="url(#p786d4ea47d)" style="fill: none; stroke-dasharray: 2,3.3; stroke-dashoffset: 0; stroke: #008000; stroke-width: 2"/>
   </g>
   <g id="line2d_30">
    <path d="M -1 258.062182 
L -0.645082 258.106474 
L 0.525825 258.244 
L 1.696733 258.372932 
L 2.867641 258.493267 
L 4.038549 258.605008 
L 5.209457 258.708153 
L 6.380365 258.802703 
L 7.551272 258.888657 
L 8.72218 258.966016 
L 9.893088 259.034779 
L 11.063996 259.094947 
L 12.234904 259.146519 
L 13.405811 259.189496 
L 14.576719 259.223878 
L 15.747627 259.249664 
L 16.918535 259.266855 
L 18.089443 259.275451 
L 19.26035 259.275451 
L 20.431258 259.266855 
L 21.602166 259.249664 
L 22.773074 259.223878 
L 23.943982 259.189496 
L 25.11489 259.146519 
L 26.285797 259.094947 
L 27.456705 259.034779 
L 28.627613 258.966016 
L 29.798521 258.888657 
L 30.969429 258.802703 
L 32.140336 258.708153 
L 33.311244 258.605008 
L 34.482152 258.493267 
L 35.65306 258.372932 
L 36.823968 258.244 
L 37.994875 258.106474 
L 39.165783 257.960352 
L 40.336691 257.805634 
L 41.507599 257.642321 
L 42.678507 257.470413 
L 43.849414 257.289909 
L 45.020322 257.10081 
L 46.19123 256.903115 
L 47.362138 256.696825 
" clip-path="url(#p786d4ea47d)" style="fill: none; stroke-dasharray: 2,3.3; stroke-dashoffset: 0; stroke: #ff0000; stroke-width: 2"/>
   </g>
   <g id="line2d_31">
    <path d="M 104.736621 314.310125 
L 104.736621 252.397325 
" clip-path="url(#p786d4ea47d)" style="fill: none; stroke-dasharray: 3.7,1.6; stroke-dashoffset: 0; stroke: #0000ff"/>
   </g>
   <g id="line2d_32">
    <path d="M 47.362138 279.914125 
L 48.533046 279.914125 
L 49.703954 279.914125 
L 50.874861 279.914125 
L 52.045769 279.914125 
L 53.216677 279.914125 
L 54.387585 279.914125 
L 55.558493 279.914125 
L 56.7294 279.914125 
L 57.900308 279.914125 
L 59.071216 279.914125 
L 60.242124 279.914125 
L 61.413032 279.914125 
L 62.583939 279.914125 
L 63.754847 279.914125 
L 64.925755 279.914125 
L 66.096663 279.914125 
L 67.267571 279.914125 
L 68.438478 279.914125 
L 69.609386 279.914125 
L 70.780294 279.914125 
L 71.951202 279.914125 
L 73.12211 279.914125 
L 74.293018 279.914125 
L 75.463925 279.914125 
L 76.634833 279.914125 
L 77.805741 279.914125 
L 78.976649 279.914125 
L 80.147557 279.914125 
L 81.318464 279.914125 
L 82.489372 279.914125 
L 83.66028 279.914125 
L 84.831188 279.914125 
L 86.002096 279.914125 
L 87.173003 279.914125 
L 88.343911 279.914125 
L 89.514819 279.914125 
L 90.685727 279.914125 
L 91.856635 279.914125 
L 93.027543 279.914125 
L 94.19845 279.914125 
L 95.369358 279.914125 
L 96.540266 279.914125 
L 97.711174 279.914125 
L 98.882082 279.914125 
L 100.052989 279.914125 
L 101.223897 279.914125 
L 102.394805 279.914125 
L 103.565713 279.914125 
L 104.736621 279.914125 
" clip-path="url(#p786d4ea47d)" style="fill: none; stroke-dasharray: 2,3.3; stroke-dashoffset: 0; stroke: #000000; stroke-width: 2"/>
   </g>
   <g id="line2d_33">
    <path d="M 47.362138 283.353725 
L 48.533046 283.213333 
L 49.703954 283.072941 
L 50.874861 282.932549 
L 52.045769 282.792158 
L 53.216677 282.651766 
L 54.387585 282.511374 
L 55.558493 282.370982 
L 56.7294 282.23059 
L 57.900308 282.090198 
L 59.071216 281.949807 
L 60.242124 281.809415 
L 61.413032 281.669023 
L 62.583939 281.528631 
L 63.754847 281.388239 
L 64.925755 281.247847 
L 66.096663 281.107456 
L 67.267571 280.967064 
L 68.438478 280.826672 
L 69.609386 280.68628 
L 70.780294 280.545888 
L 71.951202 280.405496 
L 73.12211 280.265105 
L 74.293018 280.124713 
L 75.463925 279.984321 
L 76.634833 279.843929 
L 77.805741 279.703537 
L 78.976649 279.563145 
L 80.147557 279.422754 
L 81.318464 279.282362 
L 82.489372 279.14197 
L 83.66028 279.001578 
L 84.831188 278.861186 
L 86.002096 278.720794 
L 87.173003 278.580403 
L 88.343911 278.440011 
L 89.514819 278.299619 
L 90.685727 278.159227 
L 91.856635 278.018835 
L 93.027543 277.878443 
L 94.19845 277.738052 
L 95.369358 277.59766 
L 96.540266 277.457268 
L 97.711174 277.316876 
L 98.882082 277.176484 
L 100.052989 277.036092 
L 101.223897 276.895701 
L 102.394805 276.755309 
L 103.565713 276.614917 
L 104.736621 276.474525 
" clip-path="url(#p786d4ea47d)" style="fill: none; stroke-dasharray: 2,3.3; stroke-dashoffset: 0; stroke: #008000; stroke-width: 2"/>
   </g>
   <g id="line2d_34">
    <path d="M 47.362138 282.493825 
L 48.533046 282.287535 
L 49.703954 282.08984 
L 50.874861 281.900741 
L 52.045769 281.720237 
L 53.216677 281.548329 
L 54.387585 281.385016 
L 55.558493 281.230298 
L 56.7294 281.084176 
L 57.900308 280.94665 
L 59.071216 280.817718 
L 60.242124 280.697383 
L 61.413032 280.585642 
L 62.583939 280.482497 
L 63.754847 280.387947 
L 64.925755 280.301993 
L 66.096663 280.224634 
L 67.267571 280.155871 
L 68.438478 280.095703 
L 69.609386 280.044131 
L 70.780294 280.001154 
L 71.951202 279.966772 
L 73.12211 279.940986 
L 74.293018 279.923795 
L 75.463925 279.915199 
L 76.634833 279.915199 
L 77.805741 279.923795 
L 78.976649 279.940986 
L 80.147557 279.966772 
L 81.318464 280.001154 
L 82.489372 280.044131 
L 83.66028 280.095703 
L 84.831188 280.155871 
L 86.002096 280.224634 
L 87.173003 280.301993 
L 88.343911 280.387947 
L 89.514819 280.482497 
L 90.685727 280.585642 
L 91.856635 280.697383 
L 93.027543 280.817718 
L 94.19845 280.94665 
L 95.369358 281.084176 
L 96.540266 281.230298 
L 97.711174 281.385016 
L 98.882082 281.548329 
L 100.052989 281.720237 
L 101.223897 281.900741 
L 102.394805 282.08984 
L 103.565713 282.287535 
L 104.736621 282.493825 
" clip-path="url(#p786d4ea47d)" style="fill: none; stroke-dasharray: 2,3.3; stroke-dashoffset: 0; stroke: #ff0000; stroke-width: 2"/>
   </g>
   <g id="line2d_35">
    <path d="M 162.111103 314.310125 
L 162.111103 252.397325 
" clip-path="url(#p786d4ea47d)" style="fill: none; stroke-dasharray: 3.7,1.6; stroke-dashoffset: 0; stroke: #0000ff"/>
   </g>
   <g id="line2d_36">
    <path d="M 104.736621 283.353725 
L 105.907528 283.353725 
L 107.078436 283.353725 
L 108.249344 283.353725 
L 109.420252 283.353725 
L 110.59116 283.353725 
L 111.762067 283.353725 
L 112.932975 283.353725 
L 114.103883 283.353725 
L 115.274791 283.353725 
L 116.445699 283.353725 
L 117.616607 283.353725 
L 118.787514 283.353725 
L 119.958422 283.353725 
L 121.12933 283.353725 
L 122.300238 283.353725 
L 123.471146 283.353725 
L 124.642053 283.353725 
L 125.812961 283.353725 
L 126.983869 283.353725 
L 128.154777 283.353725 
L 129.325685 283.353725 
L 130.496592 283.353725 
L 131.6675 283.353725 
L 132.838408 283.353725 
L 134.009316 283.353725 
L 135.180224 283.353725 
L 136.351132 283.353725 
L 137.522039 283.353725 
L 138.692947 283.353725 
L 139.863855 283.353725 
L 141.034763 283.353725 
L 142.205671 283.353725 
L 143.376578 283.353725 
L 144.547486 283.353725 
L 145.718394 283.353725 
L 146.889302 283.353725 
L 148.06021 283.353725 
L 149.231117 283.353725 
L 150.402025 283.353725 
L 151.572933 283.353725 
L 152.743841 283.353725 
L 153.914749 283.353725 
L 155.085656 283.353725 
L 156.256564 283.353725 
L 157.427472 283.353725 
L 158.59838 283.353725 
L 159.769288 283.353725 
L 160.940196 283.353725 
L 162.111103 283.353725 
" clip-path="url(#p786d4ea47d)" style="fill: none; stroke-dasharray: 2,3.3; stroke-dashoffset: 0; stroke: #000000; stroke-width: 2"/>
   </g>
   <g id="line2d_37">
    <path d="M 104.736621 291.952725 
L 105.907528 291.601745 
L 107.078436 291.250766 
L 108.249344 290.899786 
L 109.420252 290.548807 
L 110.59116 290.197827 
L 111.762067 289.846847 
L 112.932975 289.495868 
L 114.103883 289.144888 
L 115.274791 288.793909 
L 116.445699 288.442929 
L 117.616607 288.091949 
L 118.787514 287.74097 
L 119.958422 287.38999 
L 121.12933 287.039011 
L 122.300238 286.688031 
L 123.471146 286.337052 
L 124.642053 285.986072 
L 125.812961 285.635092 
L 126.983869 285.284113 
L 128.154777 284.933133 
L 129.325685 284.582154 
L 130.496592 284.231174 
L 131.6675 283.880194 
L 132.838408 283.529215 
L 134.009316 283.178235 
L 135.180224 282.827256 
L 136.351132 282.476276 
L 137.522039 282.125296 
L 138.692947 281.774317 
L 139.863855 281.423337 
L 141.034763 281.072358 
L 142.205671 280.721378 
L 143.376578 280.370398 
L 144.547486 280.019419 
L 145.718394 279.668439 
L 146.889302 279.31746 
L 148.06021 278.96648 
L 149.231117 278.615501 
L 150.402025 278.264521 
L 151.572933 277.913541 
L 152.743841 277.562562 
L 153.914749 277.211582 
L 155.085656 276.860603 
L 156.256564 276.509623 
L 157.427472 276.158643 
L 158.59838 275.807664 
L 159.769288 275.456684 
L 160.940196 275.105705 
L 162.111103 274.754725 
" clip-path="url(#p786d4ea47d)" style="fill: none; stroke-dasharray: 2,3.3; stroke-dashoffset: 0; stroke: #008000; stroke-width: 2"/>
   </g>
   <g id="line2d_38">
    <path d="M 104.736621 279.914125 
L 105.907528 280.189178 
L 107.078436 280.452771 
L 108.249344 280.704904 
L 109.420252 280.945575 
L 110.59116 281.174786 
L 111.762067 281.392537 
L 112.932975 281.598827 
L 114.103883 281.793657 
L 115.274791 281.977025 
L 116.445699 282.148934 
L 117.616607 282.309382 
L 118.787514 282.458369 
L 119.958422 282.595896 
L 121.12933 282.721962 
L 122.300238 282.836567 
L 123.471146 282.939712 
L 124.642053 283.031397 
L 125.812961 283.111621 
L 126.983869 283.180384 
L 128.154777 283.237687 
L 129.325685 283.283529 
L 130.496592 283.317911 
L 131.6675 283.340832 
L 132.838408 283.352292 
L 134.009316 283.352292 
L 135.180224 283.340832 
L 136.351132 283.317911 
L 137.522039 283.283529 
L 138.692947 283.237687 
L 139.863855 283.180384 
L 141.034763 283.111621 
L 142.205671 283.031397 
L 143.376578 282.939712 
L 144.547486 282.836567 
L 145.718394 282.721962 
L 146.889302 282.595896 
L 148.06021 282.458369 
L 149.231117 282.309382 
L 150.402025 282.148934 
L 151.572933 281.977025 
L 152.743841 281.793657 
L 153.914749 281.598827 
L 155.085656 281.392537 
L 156.256564 281.174786 
L 157.427472 280.945575 
L 158.59838 280.704904 
L 159.769288 280.452771 
L 160.940196 280.189178 
L 162.111103 279.914125 
" clip-path="url(#p786d4ea47d)" style="fill: none; stroke-dasharray: 2,3.3; stroke-dashoffset: 0; stroke: #ff0000; stroke-width: 2"/>
   </g>
   <g id="line2d_39">
    <path d="M 219.485586 314.310125 
L 219.485586 252.397325 
" clip-path="url(#p786d4ea47d)" style="fill: none; stroke-dasharray: 3.7,1.6; stroke-dashoffset: 0; stroke: #0000ff"/>
   </g>
   <g id="line2d_40">
    <path d="M 162.111103 293.672525 
L 163.282011 293.672525 
L 164.452919 293.672525 
L 165.623827 293.672525 
L 166.794735 293.672525 
L 167.965642 293.672525 
L 169.13655 293.672525 
L 170.307458 293.672525 
L 171.478366 293.672525 
L 172.649274 293.672525 
L 173.820181 293.672525 
L 174.991089 293.672525 
L 176.161997 293.672525 
L 177.332905 293.672525 
L 178.503813 293.672525 
L 179.674721 293.672525 
L 180.845628 293.672525 
L 182.016536 293.672525 
L 183.187444 293.672525 
L 184.358352 293.672525 
L 185.52926 293.672525 
L 186.700167 293.672525 
L 187.871075 293.672525 
L 189.041983 293.672525 
L 190.212891 293.672525 
L 191.383799 293.672525 
L 192.554706 293.672525 
L 193.725614 293.672525 
L 194.896522 293.672525 
L 196.06743 293.672525 
L 197.238338 293.672525 
L 198.409245 293.672525 
L 199.580153 293.672525 
L 200.751061 293.672525 
L 201.921969 293.672525 
L 203.092877 293.672525 
L 204.263785 293.672525 
L 205.434692 293.672525 
L 206.6056 293.672525 
L 207.776508 293.672525 
L 208.947416 293.672525 
L 210.118324 293.672525 
L 211.289231 293.672525 
L 212.460139 293.672525 
L 213.631047 293.672525 
L 214.801955 293.672525 
L 215.972863 293.672525 
L 217.14377 293.672525 
L 218.314678 293.672525 
L 219.485586 293.672525 
" clip-path="url(#p786d4ea47d)" style="fill: none; stroke-dasharray: 2,3.3; stroke-dashoffset: 0; stroke: #000000; stroke-width: 2"/>
   </g>
   <g id="line2d_41">
    <path d="M 162.111103 286.793325 
L 163.282011 287.074109 
L 164.452919 287.354892 
L 165.623827 287.635676 
L 166.794735 287.91646 
L 167.965642 288.197243 
L 169.13655 288.478027 
L 170.307458 288.758811 
L 171.478366 289.039594 
L 172.649274 289.320378 
L 173.820181 289.601162 
L 174.991089 289.881945 
L 176.161997 290.162729 
L 177.332905 290.443513 
L 178.503813 290.724296 
L 179.674721 291.00508 
L 180.845628 291.285864 
L 182.016536 291.566647 
L 183.187444 291.847431 
L 184.358352 292.128215 
L 185.52926 292.408998 
L 186.700167 292.689782 
L 187.871075 292.970566 
L 189.041983 293.251349 
L 190.212891 293.532133 
L 191.383799 293.812917 
L 192.554706 294.093701 
L 193.725614 294.374484 
L 194.896522 294.655268 
L 196.06743 294.936052 
L 197.238338 295.216835 
L 198.409245 295.497619 
L 199.580153 295.778403 
L 200.751061 296.059186 
L 201.921969 296.33997 
L 203.092877 296.620754 
L 204.263785 296.901537 
L 205.434692 297.182321 
L 206.6056 297.463105 
L 207.776508 297.743888 
L 208.947416 298.024672 
L 210.118324 298.305456 
L 211.289231 298.586239 
L 212.460139 298.867023 
L 213.631047 299.147807 
L 214.801955 299.42859 
L 215.972863 299.709374 
L 217.14377 299.990158 
L 218.314678 300.270941 
L 219.485586 300.551725 
" clip-path="url(#p786d4ea47d)" style="fill: none; stroke-dasharray: 2,3.3; stroke-dashoffset: 0; stroke: #008000; stroke-width: 2"/>
   </g>
   <g id="line2d_42">
    <path d="M 162.111103 296.252225 
L 163.282011 296.045935 
L 164.452919 295.84824 
L 165.623827 295.659141 
L 166.794735 295.478637 
L 167.965642 295.306729 
L 169.13655 295.143416 
L 170.307458 294.988698 
L 171.478366 294.842576 
L 172.649274 294.70505 
L 173.820181 294.576118 
L 174.991089 294.455783 
L 176.161997 294.344042 
L 177.332905 294.240897 
L 178.503813 294.146347 
L 179.674721 294.060393 
L 180.845628 293.983034 
L 182.016536 293.914271 
L 183.187444 293.854103 
L 184.358352 293.802531 
L 185.52926 293.759554 
L 186.700167 293.725172 
L 187.871075 293.699386 
L 189.041983 293.682195 
L 190.212891 293.673599 
L 191.383799 293.673599 
L 192.554706 293.682195 
L 193.725614 293.699386 
L 194.896522 293.725172 
L 196.06743 293.759554 
L 197.238338 293.802531 
L 198.409245 293.854103 
L 199.580153 293.914271 
L 200.751061 293.983034 
L 201.921969 294.060393 
L 203.092877 294.146347 
L 204.263785 294.240897 
L 205.434692 294.344042 
L 206.6056 294.455783 
L 207.776508 294.576118 
L 208.947416 294.70505 
L 210.118324 294.842576 
L 211.289231 294.988698 
L 212.460139 295.143416 
L 213.631047 295.306729 
L 214.801955 295.478637 
L 215.972863 295.659141 
L 217.14377 295.84824 
L 218.314678 296.045935 
L 219.485586 296.252225 
" clip-path="url(#p786d4ea47d)" style="fill: none; stroke-dasharray: 2,3.3; stroke-dashoffset: 0; stroke: #ff0000; stroke-width: 2"/>
   </g>
   <g id="line2d_43">
    <path clip-path="url(#p786d4ea47d)" style="fill: none; stroke-dasharray: 3.7,1.6; stroke-dashoffset: 0; stroke: #0000ff"/>
   </g>
   <g id="line2d_44">
    <path d="M 219.485586 309.150725 
L 220.656494 309.150725 
L 221.827402 309.150725 
L 222.998309 309.150725 
L 224.169217 309.150725 
L 225.340125 309.150725 
L 226.511033 309.150725 
L 227.681941 309.150725 
L 228.852849 309.150725 
L 230.023756 309.150725 
L 231.194664 309.150725 
L 232.365572 309.150725 
L 233.53648 309.150725 
L 234.707388 309.150725 
L 235.878295 309.150725 
L 237.049203 309.150725 
L 238.220111 309.150725 
L 239.391019 309.150725 
L 240.561927 309.150725 
L 241.732834 309.150725 
L 242.903742 309.150725 
L 244.07465 309.150725 
L 245.245558 309.150725 
L 246.416466 309.150725 
L 247.587374 309.150725 
L 248.758281 309.150725 
L 249.929189 309.150725 
L 251.100097 309.150725 
L 252.271005 309.150725 
L 253.441913 309.150725 
L 254.61282 309.150725 
L 255.783728 309.150725 
L 256.954636 309.150725 
L 258.125544 309.150725 
L 259.296452 309.150725 
L 260.467359 309.150725 
L 261.638267 309.150725 
L 262.809175 309.150725 
L 263.980083 309.150725 
L 265.150991 309.150725 
L 266.321898 309.150725 
L 267.492806 309.150725 
L 267.847724 309.150725 
" clip-path="url(#p786d4ea47d)" style="fill: none; stroke-dasharray: 2,3.3; stroke-dashoffset: 0; stroke: #000000; stroke-width: 2"/>
   </g>
   <g id="line2d_45">
    <path d="M 219.485586 305.711125 
L 220.656494 305.851517 
L 221.827402 305.991909 
L 222.998309 306.132301 
L 224.169217 306.272692 
L 225.340125 306.413084 
L 226.511033 306.553476 
L 227.681941 306.693868 
L 228.852849 306.83426 
L 230.023756 306.974652 
L 231.194664 307.115043 
L 232.365572 307.255435 
L 233.53648 307.395827 
L 234.707388 307.536219 
L 235.878295 307.676611 
L 237.049203 307.817003 
L 238.220111 307.957394 
L 239.391019 308.097786 
L 240.561927 308.238178 
L 241.732834 308.37857 
L 242.903742 308.518962 
L 244.07465 308.659354 
L 245.245558 308.799745 
L 246.416466 308.940137 
L 247.587374 309.080529 
L 248.758281 309.220921 
L 249.929189 309.361313 
L 251.100097 309.501705 
L 252.271005 309.642096 
L 253.441913 309.782488 
L 254.61282 309.92288 
L 255.783728 310.063272 
L 256.954636 310.203664 
L 258.125544 310.344056 
L 259.296452 310.484447 
L 260.467359 310.624839 
L 261.638267 310.765231 
L 262.809175 310.905623 
L 263.980083 311.046015 
L 265.150991 311.186407 
L 266.321898 311.326798 
L 267.492806 311.46719 
L 267.847724 311.509745 
" clip-path="url(#p786d4ea47d)" style="fill: none; stroke-dasharray: 2,3.3; stroke-dashoffset: 0; stroke: #008000; stroke-width: 2"/>
   </g>
   <g id="line2d_46">
    <path d="M 219.485586 306.571025 
L 220.656494 306.777315 
L 221.827402 306.97501 
L 222.998309 307.164109 
L 224.169217 307.344613 
L 225.340125 307.516521 
L 226.511033 307.679834 
L 227.681941 307.834552 
L 228.852849 307.980674 
L 230.023756 308.1182 
L 231.194664 308.247132 
L 232.365572 308.367467 
L 233.53648 308.479208 
L 234.707388 308.582353 
L 235.878295 308.676903 
L 237.049203 308.762857 
L 238.220111 308.840216 
L 239.391019 308.908979 
L 240.561927 308.969147 
L 241.732834 309.020719 
L 242.903742 309.063696 
L 244.07465 309.098078 
L 245.245558 309.123864 
L 246.416466 309.141055 
L 247.587374 309.149651 
L 248.758281 309.149651 
L 249.929189 309.141055 
L 251.100097 309.123864 
L 252.271005 309.098078 
L 253.441913 309.063696 
L 254.61282 309.020719 
L 255.783728 308.969147 
L 256.954636 308.908979 
L 258.125544 308.840216 
L 259.296452 308.762857 
L 260.467359 308.676903 
L 261.638267 308.582353 
L 262.809175 308.479208 
L 263.980083 308.367467 
L 265.150991 308.247132 
L 266.321898 308.1182 
L 267.492806 307.980674 
L 267.847724 307.936382 
" clip-path="url(#p786d4ea47d)" style="fill: none; stroke-dasharray: 2,3.3; stroke-dashoffset: 0; stroke: #ff0000; stroke-width: 2"/>
   </g>
   <g id="patch_7">
    <path d="M 7.2 314.310125 
L 259.647724 314.310125 
" style="fill: none; stroke: #000000; stroke-width: 0.8; stroke-linejoin: miter; stroke-linecap: square"/>
   </g>
   <g id="text_18">
    <!-- Finite Elements -->
    <g transform="translate(87.354174 239.518125)scale(0.12 -0.12)">
     <defs>
      <path id="DejaVuSans-45" d="M 628 4666 
L 3578 4666 
L 3578 4134 
L 1259 4134 
L 1259 2753 
L 3481 2753 
L 3481 2222 
L 1259 2222 
L 1259 531 
L 3634 531 
L 3634 0 
L 628 0 
L 628 4666 
z
" transform="scale(0.015625)"/>
     </defs>
     <use xlink:href="#DejaVuSans-46"/>
     <use xlink:href="#DejaVuSans-69" x="50.269531"/>
     <use xlink:href="#DejaVuSans-6e" x="78.052734"/>
     <use xlink:href="#DejaVuSans-69" x="141.431641"/>
     <use xlink:href="#DejaVuSans-74" x="169.214844"/>
     <use xlink:href="#DejaVuSans-65" x="208.423828"/>
     <use xlink:href="#DejaVuSans-20" x="269.947266"/>
     <use xlink:href="#DejaVuSans-45" x="301.734375"/>
     <use xlink:href="#DejaVuSans-6c" x="364.917969"/>
     <use xlink:href="#DejaVuSans-65" x="392.701172"/>
     <use xlink:href="#DejaVuSans-6d" x="454.224609"/>
     <use xlink:href="#DejaVuSans-65" x="551.636719"/>
     <use xlink:href="#DejaVuSans-6e" x="613.160156"/>
     <use xlink:href="#DejaVuSans-74" x="676.539062"/>
     <use xlink:href="#DejaVuSans-73" x="715.748047"/>
    </g>
   </g>
  </g>
 </g>
 <defs>
  <clipPath id="p4b30b96cd6">
   <rect x="7.2" y="22.318125" width="252.447724" height="68.792"/>
  </clipPath>
  <clipPath id="p75026b9bfe">
   <rect x="7.2" y="133.918125" width="252.447724" height="68.792"/>
  </clipPath>
  <clipPath id="p786d4ea47d">
   <rect x="7.2" y="245.518125" width="252.447724" height="68.792"/>
  </clipPath>
 </defs>
</svg>
