<?xml version="1.0" encoding="utf-8" standalone="no"?>
<!DOCTYPE svg PUBLIC "-//W3C//DTD SVG 1.1//EN"
  "http://www.w3.org/Graphics/SVG/1.1/DTD/svg11.dtd">
<svg xmlns:xlink="http://www.w3.org/1999/xlink" width="267.083273pt" height="340.616863pt" viewBox="0 0 267.083273 340.616863" xmlns="http://www.w3.org/2000/svg" version="1.1">
 <metadata>
  <rdf:RDF xmlns:dc="http://purl.org/dc/elements/1.1/" xmlns:cc="http://creativecommons.org/ns#" xmlns:rdf="http://www.w3.org/1999/02/22-rdf-syntax-ns#">
   <cc:Work>
    <dc:type rdf:resource="http://purl.org/dc/dcmitype/StillImage"/>
    <dc:date>2022-08-18T14:34:25.785142</dc:date>
    <dc:format>image/svg+xml</dc:format>
    <dc:creator>
     <cc:Agent>
      <dc:title>Matplotlib v3.5.2, https://matplotlib.org/</dc:title>
     </cc:Agent>
    </dc:creator>
   </cc:Work>
  </rdf:RDF>
 </metadata>
 <defs>
  <style type="text/css">*{stroke-linejoin: round; stroke-linecap: butt}</style>
 </defs>
 <g id="figure_1">
  <g id="patch_1">
   <path d="M 0 340.616863 
L 267.083273 340.616863 
L 267.083273 0 
L 0 0 
z
" style="fill: #ffffff"/>
  </g>
  <g id="axes_1">
   <g id="patch_2">
    <path d="M 43.78125 89.901961 
L 253.683273 89.901961 
L 253.683273 7.2 
L 43.78125 7.2 
z
" style="fill: #ffffff"/>
   </g>
   <g id="matplotlib.axis_1">
    <g id="xtick_1">
     <g id="line2d_1">
      <defs>
       <path id="mb27434a679" d="M 0 0 
L 0 3.5 
" style="stroke: #000000; stroke-width: 0.8"/>
      </defs>
      <g>
       <use xlink:href="#mb27434a679" x="43.78125" y="89.901961" style="stroke: #000000; stroke-width: 0.8"/>
      </g>
     </g>
    </g>
    <g id="xtick_2">
     <g id="line2d_2">
      <g>
       <use xlink:href="#mb27434a679" x="96.256756" y="89.901961" style="stroke: #000000; stroke-width: 0.8"/>
      </g>
     </g>
    </g>
    <g id="xtick_3">
     <g id="line2d_3">
      <g>
       <use xlink:href="#mb27434a679" x="148.732261" y="89.901961" style="stroke: #000000; stroke-width: 0.8"/>
      </g>
     </g>
    </g>
    <g id="xtick_4">
     <g id="line2d_4">
      <g>
       <use xlink:href="#mb27434a679" x="201.207767" y="89.901961" style="stroke: #000000; stroke-width: 0.8"/>
      </g>
     </g>
    </g>
    <g id="xtick_5">
     <g id="line2d_5">
      <g>
       <use xlink:href="#mb27434a679" x="253.683273" y="89.901961" style="stroke: #000000; stroke-width: 0.8"/>
      </g>
     </g>
    </g>
   </g>
   <g id="matplotlib.axis_2">
    <g id="ytick_1">
     <g id="line2d_6">
      <defs>
       <path id="m36c746f7bb" d="M 0 0 
L -3.5 0 
" style="stroke: #000000; stroke-width: 0.8"/>
      </defs>
      <g>
       <use xlink:href="#m36c746f7bb" x="43.78125" y="83.010131" style="stroke: #000000; stroke-width: 0.8"/>
      </g>
     </g>
     <g id="text_1">
      <!-- 0.0 -->
      <g transform="translate(20.878125 86.809349)scale(0.1 -0.1)">
       <defs>
        <path id="DejaVuSans-30" d="M 2034 4250 
Q 1547 4250 1301 3770 
Q 1056 3291 1056 2328 
Q 1056 1369 1301 889 
Q 1547 409 2034 409 
Q 2525 409 2770 889 
Q 3016 1369 3016 2328 
Q 3016 3291 2770 3770 
Q 2525 4250 2034 4250 
z
M 2034 4750 
Q 2819 4750 3233 4129 
Q 3647 3509 3647 2328 
Q 3647 1150 3233 529 
Q 2819 -91 2034 -91 
Q 1250 -91 836 529 
Q 422 1150 422 2328 
Q 422 3509 836 4129 
Q 1250 4750 2034 4750 
z
" transform="scale(0.015625)"/>
        <path id="DejaVuSans-2e" d="M 684 794 
L 1344 794 
L 1344 0 
L 684 0 
L 684 794 
z
" transform="scale(0.015625)"/>
       </defs>
       <use xlink:href="#DejaVuSans-30"/>
       <use xlink:href="#DejaVuSans-2e" x="63.623047"/>
       <use xlink:href="#DejaVuSans-30" x="95.410156"/>
      </g>
     </g>
    </g>
    <g id="ytick_2">
     <g id="line2d_7">
      <g>
       <use xlink:href="#m36c746f7bb" x="43.78125" y="48.55098" style="stroke: #000000; stroke-width: 0.8"/>
      </g>
     </g>
     <g id="text_2">
      <!-- 0.5 -->
      <g transform="translate(20.878125 52.350199)scale(0.1 -0.1)">
       <defs>
        <path id="DejaVuSans-35" d="M 691 4666 
L 3169 4666 
L 3169 4134 
L 1269 4134 
L 1269 2991 
Q 1406 3038 1543 3061 
Q 1681 3084 1819 3084 
Q 2600 3084 3056 2656 
Q 3513 2228 3513 1497 
Q 3513 744 3044 326 
Q 2575 -91 1722 -91 
Q 1428 -91 1123 -41 
Q 819 9 494 109 
L 494 744 
Q 775 591 1075 516 
Q 1375 441 1709 441 
Q 2250 441 2565 725 
Q 2881 1009 2881 1497 
Q 2881 1984 2565 2268 
Q 2250 2553 1709 2553 
Q 1456 2553 1204 2497 
Q 953 2441 691 2322 
L 691 4666 
z
" transform="scale(0.015625)"/>
       </defs>
       <use xlink:href="#DejaVuSans-30"/>
       <use xlink:href="#DejaVuSans-2e" x="63.623047"/>
       <use xlink:href="#DejaVuSans-35" x="95.410156"/>
      </g>
     </g>
    </g>
    <g id="ytick_3">
     <g id="line2d_8">
      <g>
       <use xlink:href="#m36c746f7bb" x="43.78125" y="14.09183" style="stroke: #000000; stroke-width: 0.8"/>
      </g>
     </g>
     <g id="text_3">
      <!-- 1.0 -->
      <g transform="translate(20.878125 17.891049)scale(0.1 -0.1)">
       <defs>
        <path id="DejaVuSans-31" d="M 794 531 
L 1825 531 
L 1825 4091 
L 703 3866 
L 703 4441 
L 1819 4666 
L 2450 4666 
L 2450 531 
L 3481 531 
L 3481 0 
L 794 0 
L 794 531 
z
" transform="scale(0.015625)"/>
       </defs>
       <use xlink:href="#DejaVuSans-31"/>
       <use xlink:href="#DejaVuSans-2e" x="63.623047"/>
       <use xlink:href="#DejaVuSans-30" x="95.410156"/>
      </g>
     </g>
    </g>
    <g id="text_4">
     <!-- $y$ -->
     <g transform="translate(14.778125 51.55098)rotate(-90)scale(0.1 -0.1)">
      <defs>
       <path id="DejaVuSans-Oblique-79" d="M 1588 -325 
Q 1188 -997 936 -1164 
Q 684 -1331 294 -1331 
L -159 -1331 
L -63 -850 
L 269 -850 
Q 509 -850 678 -719 
Q 847 -588 1056 -206 
L 1234 128 
L 459 3500 
L 1069 3500 
L 1650 819 
L 3256 3500 
L 3859 3500 
L 1588 -325 
z
" transform="scale(0.015625)"/>
      </defs>
      <use xlink:href="#DejaVuSans-Oblique-79" transform="translate(0 0.3125)"/>
     </g>
    </g>
   </g>
   <g id="line2d_9">
    <path d="M 43.78125 83.010131 
L 70.045267 82.941143 
L 96.309284 14.229805 
L 122.573301 83.010131 
L 174.891222 83.010131 
L 175.101334 14.09183 
L 227.419256 14.09183 
L 227.629368 83.010131 
L 253.683273 83.010131 
L 253.683273 83.010131 
" clip-path="url(#p1cf4e8955c)" style="fill: none; stroke: #0000ff; stroke-width: 1.5; stroke-linecap: square"/>
   </g>
   <g id="patch_3">
    <path d="M 43.78125 89.901961 
L 43.78125 7.2 
" style="fill: none; stroke: #000000; stroke-width: 0.8; stroke-linejoin: miter; stroke-linecap: square"/>
   </g>
   <g id="patch_4">
    <path d="M 253.683273 89.901961 
L 253.683273 7.2 
" style="fill: none; stroke: #000000; stroke-width: 0.8; stroke-linejoin: miter; stroke-linecap: square"/>
   </g>
   <g id="patch_5">
    <path d="M 43.78125 89.901961 
L 253.683273 89.901961 
" style="fill: none; stroke: #000000; stroke-width: 0.8; stroke-linejoin: miter; stroke-linecap: square"/>
   </g>
   <g id="patch_6">
    <path d="M 43.78125 7.2 
L 253.683273 7.2 
" style="fill: none; stroke: #000000; stroke-width: 0.8; stroke-linejoin: miter; stroke-linecap: square"/>
   </g>
  </g>
  <g id="axes_2">
   <g id="patch_7">
    <path d="M 43.78125 193.483922 
L 253.683273 193.483922 
L 253.683273 110.781961 
L 43.78125 110.781961 
z
" style="fill: #ffffff"/>
   </g>
   <g id="matplotlib.axis_3">
    <g id="xtick_6">
     <g id="line2d_10">
      <g>
       <use xlink:href="#mb27434a679" x="43.78125" y="193.483922" style="stroke: #000000; stroke-width: 0.8"/>
      </g>
     </g>
    </g>
    <g id="xtick_7">
     <g id="line2d_11">
      <g>
       <use xlink:href="#mb27434a679" x="96.256756" y="193.483922" style="stroke: #000000; stroke-width: 0.8"/>
      </g>
     </g>
    </g>
    <g id="xtick_8">
     <g id="line2d_12">
      <g>
       <use xlink:href="#mb27434a679" x="148.732261" y="193.483922" style="stroke: #000000; stroke-width: 0.8"/>
      </g>
     </g>
    </g>
    <g id="xtick_9">
     <g id="line2d_13">
      <g>
       <use xlink:href="#mb27434a679" x="201.207767" y="193.483922" style="stroke: #000000; stroke-width: 0.8"/>
      </g>
     </g>
    </g>
    <g id="xtick_10">
     <g id="line2d_14">
      <g>
       <use xlink:href="#mb27434a679" x="253.683273" y="193.483922" style="stroke: #000000; stroke-width: 0.8"/>
      </g>
     </g>
    </g>
   </g>
   <g id="matplotlib.axis_4">
    <g id="ytick_4">
     <g id="line2d_15">
      <g>
       <use xlink:href="#m36c746f7bb" x="43.78125" y="193.483922" style="stroke: #000000; stroke-width: 0.8"/>
      </g>
     </g>
     <g id="text_5">
      <!-- −2 -->
      <g transform="translate(22.039063 197.28314)scale(0.1 -0.1)">
       <defs>
        <path id="DejaVuSans-2212" d="M 678 2272 
L 4684 2272 
L 4684 1741 
L 678 1741 
L 678 2272 
z
" transform="scale(0.015625)"/>
        <path id="DejaVuSans-32" d="M 1228 531 
L 3431 531 
L 3431 0 
L 469 0 
L 469 531 
Q 828 903 1448 1529 
Q 2069 2156 2228 2338 
Q 2531 2678 2651 2914 
Q 2772 3150 2772 3378 
Q 2772 3750 2511 3984 
Q 2250 4219 1831 4219 
Q 1534 4219 1204 4116 
Q 875 4013 500 3803 
L 500 4441 
Q 881 4594 1212 4672 
Q 1544 4750 1819 4750 
Q 2544 4750 2975 4387 
Q 3406 4025 3406 3419 
Q 3406 3131 3298 2873 
Q 3191 2616 2906 2266 
Q 2828 2175 2409 1742 
Q 1991 1309 1228 531 
z
" transform="scale(0.015625)"/>
       </defs>
       <use xlink:href="#DejaVuSans-2212"/>
       <use xlink:href="#DejaVuSans-32" x="83.789062"/>
      </g>
     </g>
    </g>
    <g id="ytick_5">
     <g id="line2d_16">
      <g>
       <use xlink:href="#m36c746f7bb" x="43.78125" y="172.808431" style="stroke: #000000; stroke-width: 0.8"/>
      </g>
     </g>
     <g id="text_6">
      <!-- −1 -->
      <g transform="translate(22.039063 176.60765)scale(0.1 -0.1)">
       <use xlink:href="#DejaVuSans-2212"/>
       <use xlink:href="#DejaVuSans-31" x="83.789062"/>
      </g>
     </g>
    </g>
    <g id="ytick_6">
     <g id="line2d_17">
      <g>
       <use xlink:href="#m36c746f7bb" x="43.78125" y="152.132941" style="stroke: #000000; stroke-width: 0.8"/>
      </g>
     </g>
     <g id="text_7">
      <!-- 0 -->
      <g transform="translate(30.41875 155.93216)scale(0.1 -0.1)">
       <use xlink:href="#DejaVuSans-30"/>
      </g>
     </g>
    </g>
    <g id="ytick_7">
     <g id="line2d_18">
      <g>
       <use xlink:href="#m36c746f7bb" x="43.78125" y="131.457451" style="stroke: #000000; stroke-width: 0.8"/>
      </g>
     </g>
     <g id="text_8">
      <!-- 1 -->
      <g transform="translate(30.41875 135.25667)scale(0.1 -0.1)">
       <use xlink:href="#DejaVuSans-31"/>
      </g>
     </g>
    </g>
    <g id="ytick_8">
     <g id="line2d_19">
      <g>
       <use xlink:href="#m36c746f7bb" x="43.78125" y="110.781961" style="stroke: #000000; stroke-width: 0.8"/>
      </g>
     </g>
     <g id="text_9">
      <!-- 2 -->
      <g transform="translate(30.41875 114.58118)scale(0.1 -0.1)">
       <use xlink:href="#DejaVuSans-32"/>
      </g>
     </g>
    </g>
    <g id="text_10">
     <!-- $N=41: \partial_x y$ -->
     <g transform="translate(15.939063 179.832941)rotate(-90)scale(0.1 -0.1)">
      <defs>
       <path id="DejaVuSans-Oblique-4e" d="M 1081 4666 
L 1931 4666 
L 3219 666 
L 4000 4666 
L 4616 4666 
L 3706 0 
L 2853 0 
L 1569 4025 
L 788 0 
L 172 0 
L 1081 4666 
z
" transform="scale(0.015625)"/>
       <path id="DejaVuSans-3d" d="M 678 2906 
L 4684 2906 
L 4684 2381 
L 678 2381 
L 678 2906 
z
M 678 1631 
L 4684 1631 
L 4684 1100 
L 678 1100 
L 678 1631 
z
" transform="scale(0.015625)"/>
       <path id="DejaVuSans-34" d="M 2419 4116 
L 825 1625 
L 2419 1625 
L 2419 4116 
z
M 2253 4666 
L 3047 4666 
L 3047 1625 
L 3713 1625 
L 3713 1100 
L 3047 1100 
L 3047 0 
L 2419 0 
L 2419 1100 
L 313 1100 
L 313 1709 
L 2253 4666 
z
" transform="scale(0.015625)"/>
       <path id="DejaVuSans-3a" d="M 750 794 
L 1409 794 
L 1409 0 
L 750 0 
L 750 794 
z
M 750 3309 
L 1409 3309 
L 1409 2516 
L 750 2516 
L 750 3309 
z
" transform="scale(0.015625)"/>
       <path id="DejaVuSans-2202" d="M 1366 -91 
Q 925 -91 638 175 
Q 297 491 297 1063 
Q 297 1656 597 2119 
Q 906 2594 1463 2594 
Q 1828 2594 2116 2366 
Q 2284 2231 2400 2006 
Q 2441 2259 2441 2547 
Q 2441 2969 2341 3213 
Q 2119 3753 1531 3753 
Q 1309 3753 966 3616 
L 966 4141 
Q 1328 4238 1653 4238 
Q 2491 4238 2847 3469 
Q 3013 3106 3013 2566 
Q 3013 2213 2934 1803 
Q 2738 778 2228 291 
Q 1828 -91 1366 -91 
z
M 831 969 
Q 831 656 969 488 
Q 1116 309 1341 309 
Q 1541 309 1700 450 
Q 1925 644 2091 959 
Q 2228 1219 2297 1497 
Q 2019 2169 1538 2169 
Q 1125 2169 944 1625 
Q 831 1288 831 969 
z
" transform="scale(0.015625)"/>
       <path id="DejaVuSans-Oblique-78" d="M 3841 3500 
L 2234 1784 
L 3219 0 
L 2559 0 
L 1819 1388 
L 531 0 
L -166 0 
L 1556 1844 
L 641 3500 
L 1300 3500 
L 1972 2234 
L 3144 3500 
L 3841 3500 
z
" transform="scale(0.015625)"/>
      </defs>
      <use xlink:href="#DejaVuSans-Oblique-4e" transform="translate(0 0.09375)"/>
      <use xlink:href="#DejaVuSans-3d" transform="translate(94.287109 0.09375)"/>
      <use xlink:href="#DejaVuSans-34" transform="translate(197.558594 0.09375)"/>
      <use xlink:href="#DejaVuSans-31" transform="translate(261.181641 0.09375)"/>
      <use xlink:href="#DejaVuSans-3a" transform="translate(344.287109 0.09375)"/>
      <use xlink:href="#DejaVuSans-2202" transform="translate(397.460938 0.09375)"/>
      <use xlink:href="#DejaVuSans-Oblique-78" transform="translate(450.126953 -16.3125)scale(0.7)"/>
      <use xlink:href="#DejaVuSans-Oblique-79" transform="translate(494.287109 0.09375)"/>
     </g>
    </g>
   </g>
   <g id="line2d_20">
    <path d="M 43.78125 152.132941 
L 69.835155 152.132941 
L 70.045267 125.808089 
L 96.099172 125.808089 
L 96.309284 178.457793 
L 122.363188 178.457793 
L 122.573301 152.132941 
L 253.683273 152.132941 
L 253.683273 152.132941 
" clip-path="url(#p1c92b025f6)" style="fill: none; stroke: #0000ff; stroke-width: 1.5; stroke-linecap: square"/>
   </g>
   <g id="line2d_21">
    <path d="M 46.341031 152.132941 
L 51.460592 152.132941 
L 56.580154 152.132941 
L 61.699715 152.132941 
L 66.819277 147.197031 
L 71.938838 134.034606 
L 77.0584 125.808089 
L 82.177961 125.808089 
L 87.297523 125.808089 
L 92.417085 132.389302 
L 97.536646 158.714154 
L 102.656208 178.457793 
L 107.775769 178.457793 
L 112.895331 178.457793 
L 118.014892 176.81249 
L 123.134454 163.650064 
L 128.254015 152.132941 
L 133.373577 152.132941 
L 138.493138 152.132941 
L 143.6127 152.132941 
L 148.732261 152.132941 
L 153.851823 152.132941 
L 158.971384 152.132941 
L 164.090946 152.132941 
L 169.210507 152.132941 
L 174.330069 84.675509 
L 179.449631 84.675509 
L 184.569192 152.132941 
L 189.688754 152.132941 
L 194.808315 152.132941 
L 199.927877 152.132941 
L 205.047438 152.132941 
L 210.167 152.132941 
L 215.286561 152.132941 
L 220.406123 152.132941 
L 225.525684 219.590374 
L 230.645246 219.590374 
L 235.764807 152.132941 
L 240.884369 152.132941 
L 246.00393 152.132941 
L 251.123492 152.132941 
" clip-path="url(#p1c92b025f6)" style="fill: none; stroke-dasharray: 5.55,2.4; stroke-dashoffset: 0; stroke: #ff0000; stroke-width: 1.5"/>
   </g>
   <g id="line2d_22">
    <path d="M 46.341031 146.483636 
L 51.460592 156.078656 
L 56.580154 149.421115 
L 61.699715 154.06175 
L 66.819277 149.329081 
L 71.938838 132.410269 
L 77.0584 124.208547 
L 82.177961 125.677362 
L 87.297523 127.075545 
L 92.417085 124.800356 
L 97.536646 161.808374 
L 102.656208 183.423024 
L 107.775769 176.891977 
L 112.895331 177.981465 
L 118.014892 180.778702 
L 123.134454 162.645646 
L 128.254015 149.24523 
L 133.373577 152.428243 
L 138.493138 153.583743 
L 143.6127 149.017527 
L 148.732261 157.191233 
L 153.851823 144.469249 
L 158.971384 163.744067 
L 164.090946 133.625001 
L 169.210507 185.632488 
L 174.330069 66.97815 
L 179.449631 49.659053 
L 184.569192 203.259408 
L 189.688754 115.345791 
L 194.808315 183.105196 
L 199.927877 123.431303 
L 205.047438 180.822582 
L 210.167 121.197114 
L 215.286561 188.857876 
L 220.406123 101.096885 
L 225.525684 254.484495 
L 230.645246 237.447475 
L 235.764807 118.428257 
L 240.884369 170.90317 
L 246.00393 140.184584 
L 251.123492 160.236961 
" clip-path="url(#p1c92b025f6)" style="fill: none; stroke-dasharray: 1.5,2.475; stroke-dashoffset: 0; stroke: #000000; stroke-width: 1.5"/>
   </g>
   <g id="patch_8">
    <path d="M 43.78125 193.483922 
L 43.78125 110.781961 
" style="fill: none; stroke: #000000; stroke-width: 0.8; stroke-linejoin: miter; stroke-linecap: square"/>
   </g>
   <g id="patch_9">
    <path d="M 253.683273 193.483922 
L 253.683273 110.781961 
" style="fill: none; stroke: #000000; stroke-width: 0.8; stroke-linejoin: miter; stroke-linecap: square"/>
   </g>
   <g id="patch_10">
    <path d="M 43.78125 193.483922 
L 253.683273 193.483922 
" style="fill: none; stroke: #000000; stroke-width: 0.8; stroke-linejoin: miter; stroke-linecap: square"/>
   </g>
   <g id="patch_11">
    <path d="M 43.78125 110.781961 
L 253.683273 110.781961 
" style="fill: none; stroke: #000000; stroke-width: 0.8; stroke-linejoin: miter; stroke-linecap: square"/>
   </g>
  </g>
  <g id="axes_3">
   <g id="patch_12">
    <path d="M 43.78125 297.065882 
L 253.683273 297.065882 
L 253.683273 214.363922 
L 43.78125 214.363922 
z
" style="fill: #ffffff"/>
   </g>
   <g id="matplotlib.axis_5">
    <g id="xtick_11">
     <g id="line2d_23">
      <g>
       <use xlink:href="#mb27434a679" x="43.78125" y="297.065882" style="stroke: #000000; stroke-width: 0.8"/>
      </g>
     </g>
     <g id="text_11">
      <!-- 0 -->
      <g transform="translate(40.6 311.66432)scale(0.1 -0.1)">
       <use xlink:href="#DejaVuSans-30"/>
      </g>
     </g>
    </g>
    <g id="xtick_12">
     <g id="line2d_24">
      <g>
       <use xlink:href="#mb27434a679" x="96.256756" y="297.065882" style="stroke: #000000; stroke-width: 0.8"/>
      </g>
     </g>
     <g id="text_12">
      <!-- $\pi$/2 -->
      <g transform="translate(88.556756 311.66432)scale(0.1 -0.1)">
       <defs>
        <path id="DejaVuSans-Oblique-3c0" d="M 584 3500 
L 3938 3500 
L 3825 2925 
L 3384 2925 
L 2966 775 
Q 2922 550 2981 450 
Q 3038 353 3209 353 
Q 3256 353 3325 363 
Q 3397 369 3419 372 
L 3338 -44 
Q 3222 -84 3103 -103 
Q 2981 -122 2866 -122 
Q 2491 -122 2388 81 
Q 2284 288 2391 838 
L 2797 2925 
L 1506 2925 
L 938 0 
L 350 0 
L 919 2925 
L 472 2925 
L 584 3500 
z
" transform="scale(0.015625)"/>
        <path id="DejaVuSans-2f" d="M 1625 4666 
L 2156 4666 
L 531 -594 
L 0 -594 
L 1625 4666 
z
" transform="scale(0.015625)"/>
       </defs>
       <use xlink:href="#DejaVuSans-Oblique-3c0" transform="translate(0 0.78125)"/>
       <use xlink:href="#DejaVuSans-2f" transform="translate(60.205078 0.78125)"/>
       <use xlink:href="#DejaVuSans-32" transform="translate(90.271484 0.78125)"/>
      </g>
     </g>
    </g>
    <g id="xtick_13">
     <g id="line2d_25">
      <g>
       <use xlink:href="#mb27434a679" x="148.732261" y="297.065882" style="stroke: #000000; stroke-width: 0.8"/>
      </g>
     </g>
     <g id="text_13">
      <!-- $\pi$ -->
      <g transform="translate(145.682261 311.66432)scale(0.1 -0.1)">
       <use xlink:href="#DejaVuSans-Oblique-3c0" transform="translate(0 0.3125)"/>
      </g>
     </g>
    </g>
    <g id="xtick_14">
     <g id="line2d_26">
      <g>
       <use xlink:href="#mb27434a679" x="201.207767" y="297.065882" style="stroke: #000000; stroke-width: 0.8"/>
      </g>
     </g>
     <g id="text_14">
      <!-- 3$\pi$/2 -->
      <g transform="translate(190.307767 311.66432)scale(0.1 -0.1)">
       <defs>
        <path id="DejaVuSans-33" d="M 2597 2516 
Q 3050 2419 3304 2112 
Q 3559 1806 3559 1356 
Q 3559 666 3084 287 
Q 2609 -91 1734 -91 
Q 1441 -91 1130 -33 
Q 819 25 488 141 
L 488 750 
Q 750 597 1062 519 
Q 1375 441 1716 441 
Q 2309 441 2620 675 
Q 2931 909 2931 1356 
Q 2931 1769 2642 2001 
Q 2353 2234 1838 2234 
L 1294 2234 
L 1294 2753 
L 1863 2753 
Q 2328 2753 2575 2939 
Q 2822 3125 2822 3475 
Q 2822 3834 2567 4026 
Q 2313 4219 1838 4219 
Q 1578 4219 1281 4162 
Q 984 4106 628 3988 
L 628 4550 
Q 988 4650 1302 4700 
Q 1616 4750 1894 4750 
Q 2613 4750 3031 4423 
Q 3450 4097 3450 3541 
Q 3450 3153 3228 2886 
Q 3006 2619 2597 2516 
z
" transform="scale(0.015625)"/>
       </defs>
       <use xlink:href="#DejaVuSans-33" transform="translate(0 0.78125)"/>
       <use xlink:href="#DejaVuSans-Oblique-3c0" transform="translate(63.623047 0.78125)"/>
       <use xlink:href="#DejaVuSans-2f" transform="translate(123.828125 0.78125)"/>
       <use xlink:href="#DejaVuSans-32" transform="translate(153.894531 0.78125)"/>
      </g>
     </g>
    </g>
    <g id="xtick_15">
     <g id="line2d_27">
      <g>
       <use xlink:href="#mb27434a679" x="253.683273" y="297.065882" style="stroke: #000000; stroke-width: 0.8"/>
      </g>
     </g>
     <g id="text_15">
      <!-- 2$\pi$ -->
      <g transform="translate(247.483273 311.66432)scale(0.1 -0.1)">
       <use xlink:href="#DejaVuSans-32" transform="translate(0 0.78125)"/>
       <use xlink:href="#DejaVuSans-Oblique-3c0" transform="translate(63.623047 0.78125)"/>
      </g>
     </g>
    </g>
   </g>
   <g id="matplotlib.axis_6">
    <g id="ytick_9">
     <g id="line2d_28">
      <g>
       <use xlink:href="#m36c746f7bb" x="43.78125" y="297.065882" style="stroke: #000000; stroke-width: 0.8"/>
      </g>
     </g>
     <g id="text_16">
      <!-- −2 -->
      <g transform="translate(22.039063 300.865101)scale(0.1 -0.1)">
       <use xlink:href="#DejaVuSans-2212"/>
       <use xlink:href="#DejaVuSans-32" x="83.789062"/>
      </g>
     </g>
    </g>
    <g id="ytick_10">
     <g id="line2d_29">
      <g>
       <use xlink:href="#m36c746f7bb" x="43.78125" y="276.390392" style="stroke: #000000; stroke-width: 0.8"/>
      </g>
     </g>
     <g id="text_17">
      <!-- −1 -->
      <g transform="translate(22.039063 280.189611)scale(0.1 -0.1)">
       <use xlink:href="#DejaVuSans-2212"/>
       <use xlink:href="#DejaVuSans-31" x="83.789062"/>
      </g>
     </g>
    </g>
    <g id="ytick_11">
     <g id="line2d_30">
      <g>
       <use xlink:href="#m36c746f7bb" x="43.78125" y="255.714902" style="stroke: #000000; stroke-width: 0.8"/>
      </g>
     </g>
     <g id="text_18">
      <!-- 0 -->
      <g transform="translate(30.41875 259.514121)scale(0.1 -0.1)">
       <use xlink:href="#DejaVuSans-30"/>
      </g>
     </g>
    </g>
    <g id="ytick_12">
     <g id="line2d_31">
      <g>
       <use xlink:href="#m36c746f7bb" x="43.78125" y="235.039412" style="stroke: #000000; stroke-width: 0.8"/>
      </g>
     </g>
     <g id="text_19">
      <!-- 1 -->
      <g transform="translate(30.41875 238.838631)scale(0.1 -0.1)">
       <use xlink:href="#DejaVuSans-31"/>
      </g>
     </g>
    </g>
    <g id="ytick_13">
     <g id="line2d_32">
      <g>
       <use xlink:href="#m36c746f7bb" x="43.78125" y="214.363922" style="stroke: #000000; stroke-width: 0.8"/>
      </g>
     </g>
     <g id="text_20">
      <!-- 2 -->
      <g transform="translate(30.41875 218.16314)scale(0.1 -0.1)">
       <use xlink:href="#DejaVuSans-32"/>
      </g>
     </g>
    </g>
    <g id="text_21">
     <!-- $N=101: \partial_x y$ -->
     <g transform="translate(15.939063 286.614902)rotate(-90)scale(0.1 -0.1)">
      <use xlink:href="#DejaVuSans-Oblique-4e" transform="translate(0 0.78125)"/>
      <use xlink:href="#DejaVuSans-3d" transform="translate(94.287109 0.78125)"/>
      <use xlink:href="#DejaVuSans-31" transform="translate(197.558594 0.78125)"/>
      <use xlink:href="#DejaVuSans-30" transform="translate(261.181641 0.78125)"/>
      <use xlink:href="#DejaVuSans-31" transform="translate(324.804688 0.78125)"/>
      <use xlink:href="#DejaVuSans-3a" transform="translate(407.910156 0.78125)"/>
      <use xlink:href="#DejaVuSans-2202" transform="translate(461.083984 0.78125)"/>
      <use xlink:href="#DejaVuSans-Oblique-78" transform="translate(513.75 -15.625)scale(0.7)"/>
      <use xlink:href="#DejaVuSans-Oblique-79" transform="translate(557.910156 0.78125)"/>
     </g>
    </g>
   </g>
   <g id="line2d_33">
    <path d="M 43.78125 255.714902 
L 69.835155 255.714902 
L 70.045267 229.39005 
L 96.099172 229.39005 
L 96.309284 282.039754 
L 122.363188 282.039754 
L 122.573301 255.714902 
L 253.683273 255.714902 
L 253.683273 255.714902 
" clip-path="url(#pbe8ab1348e)" style="fill: none; stroke: #0000ff; stroke-width: 1.5; stroke-linecap: square"/>
   </g>
   <g id="line2d_34">
    <path d="M 44.820369 255.714902 
L 46.898607 255.714902 
L 48.976845 255.714902 
L 51.055082 255.714902 
L 53.13332 255.714902 
L 55.211558 255.714902 
L 57.289796 255.714902 
L 59.368034 255.714902 
L 61.446272 255.714902 
L 63.52451 255.714902 
L 65.602747 255.714902 
L 67.680985 255.714902 
L 69.759223 244.197779 
L 71.837461 231.035353 
L 73.915699 229.39005 
L 75.993937 229.39005 
L 78.072175 229.39005 
L 80.150412 229.39005 
L 82.22865 229.39005 
L 84.306888 229.39005 
L 86.385126 229.39005 
L 88.463364 229.39005 
L 90.541602 229.39005 
L 92.619839 229.39005 
L 94.698077 235.971263 
L 96.776315 262.296115 
L 98.854553 282.039754 
L 100.932791 282.039754 
L 103.011029 282.039754 
L 105.089267 282.039754 
L 107.167504 282.039754 
L 109.245742 282.039754 
L 111.32398 282.039754 
L 113.402218 282.039754 
L 115.480456 282.039754 
L 117.558694 282.039754 
L 119.636931 282.039754 
L 121.715169 273.813238 
L 123.793407 260.650812 
L 125.871645 255.714902 
L 127.949883 255.714902 
L 130.028121 255.714902 
L 132.106359 255.714902 
L 134.184596 255.714902 
L 136.262834 255.714902 
L 138.341072 255.714902 
L 140.41931 255.714902 
L 142.497548 255.714902 
L 144.575786 255.714902 
L 146.654024 255.714902 
L 148.732261 255.714902 
L 150.810499 255.714902 
L 152.888737 255.714902 
L 154.966975 255.714902 
L 157.045213 255.714902 
L 159.123451 255.714902 
L 161.201688 255.714902 
L 163.279926 255.714902 
L 165.358164 255.714902 
L 167.436402 255.714902 
L 169.51464 255.714902 
L 171.592878 255.714902 
L 173.671116 89.539275 
L 175.749353 89.539275 
L 177.827591 255.714902 
L 179.905829 255.714902 
L 181.984067 255.714902 
L 184.062305 255.714902 
L 186.140543 255.714902 
L 188.21878 255.714902 
L 190.297018 255.714902 
L 192.375256 255.714902 
L 194.453494 255.714902 
L 196.531732 255.714902 
L 198.60997 255.714902 
L 200.688208 255.714902 
L 202.766445 255.714902 
L 204.844683 255.714902 
L 206.922921 255.714902 
L 209.001159 255.714902 
L 211.079397 255.714902 
L 213.157635 255.714902 
L 215.235873 255.714902 
L 217.31411 255.714902 
L 219.392348 255.714902 
L 221.470586 255.714902 
L 223.548824 255.714902 
L 224.623137 341.616863 
M 228.709224 341.616863 
L 229.783537 255.714902 
L 231.861775 255.714902 
L 233.940013 255.714902 
L 236.018251 255.714902 
L 238.096489 255.714902 
L 240.174727 255.714902 
L 242.252965 255.714902 
L 244.331202 255.714902 
L 246.40944 255.714902 
L 248.487678 255.714902 
L 250.565916 255.714902 
L 252.644154 255.714902 
" clip-path="url(#pbe8ab1348e)" style="fill: none; stroke-dasharray: 5.55,2.4; stroke-dashoffset: 0; stroke: #ff0000; stroke-width: 1.5"/>
   </g>
   <g id="line2d_35">
    <path d="M 44.820369 236.848534 
L 46.898607 273.745395 
L 48.976845 238.396186 
L 51.055082 272.428562 
L 53.13332 239.511182 
L 55.211558 271.497617 
L 57.289796 240.264183 
L 59.368034 270.931907 
L 61.446272 240.606911 
L 63.52451 270.904677 
L 65.602747 240.070438 
L 67.680985 272.837848 
L 69.759223 231.991796 
L 71.837461 239.251852 
L 73.915699 218.854555 
L 75.993937 240.336426 
L 78.072175 218.212378 
L 80.150412 240.720918 
L 82.22865 217.93238 
L 84.306888 240.978878 
L 86.385126 217.641844 
L 88.463364 241.349753 
L 90.541602 217.144689 
L 92.619839 241.945586 
L 94.698077 217.727561 
L 96.776315 275.471355 
L 98.854553 277.513186 
L 100.932791 289.283946 
L 103.011029 273.649415 
L 105.089267 291.060566 
L 107.167504 272.612086 
L 109.245742 291.756998 
L 111.32398 272.10815 
L 113.402218 292.119829 
L 115.480456 271.900783 
L 117.558694 292.050041 
L 119.636931 272.74142 
L 121.715169 287.342427 
L 123.793407 245.565057 
L 125.871645 267.893368 
L 127.949883 242.98403 
L 130.028121 268.838394 
L 132.106359 242.201762 
L 134.184596 269.65064 
L 136.262834 241.309293 
L 138.341072 270.64779 
L 140.41931 240.186955 
L 142.497548 271.918016 
L 144.575786 238.741036 
L 146.654024 273.575062 
L 148.732261 236.826652 
L 150.810499 275.808309 
L 152.888737 234.190754 
L 154.966975 278.963986 
L 157.045213 230.346367 
L 159.123451 283.750112 
L 161.201688 224.221407 
L 163.279926 291.87499 
L 165.358164 212.907738 
L 167.436402 308.753578 
L 169.51464 184.922515 
L 171.328397 341.616863 
M 171.73009 341.616863 
L 173.671116 18.391841 
L 175.749353 32.508252 
L 177.770766 341.616863 
M 177.947078 341.616863 
L 179.905829 199.169257 
L 181.984067 294.373989 
L 184.062305 227.468498 
L 186.140543 277.081013 
L 188.21878 239.305659 
L 190.297018 268.311945 
L 192.375256 246.210655 
L 194.453494 262.590257 
L 196.531732 251.171741 
L 198.60997 258.103184 
L 200.688208 255.3982 
L 202.766445 253.960372 
L 204.844683 259.62326 
L 206.922921 249.476106 
L 209.001159 264.580114 
L 211.079397 243.760103 
L 213.157635 271.477938 
L 215.235873 234.999741 
L 217.31411 283.3048 
L 219.392348 217.718727 
L 221.470586 311.590334 
L 223.548824 161.801922 
L 224.729799 341.616863 
M 228.615102 341.616863 
L 229.783537 146.254298 
L 231.861775 327.229658 
L 233.940013 201.939681 
L 236.018251 299.274316 
L 238.096489 218.785163 
L 240.174727 287.997343 
L 242.252965 226.869318 
L 244.331202 281.917663 
L 246.40944 231.604957 
L 248.487678 278.129773 
L 250.565916 234.697115 
L 252.644154 275.565707 
" clip-path="url(#pbe8ab1348e)" style="fill: none; stroke-dasharray: 1.5,2.475; stroke-dashoffset: 0; stroke: #000000; stroke-width: 1.5"/>
   </g>
   <g id="patch_13">
    <path d="M 43.78125 297.065882 
L 43.78125 214.363922 
" style="fill: none; stroke: #000000; stroke-width: 0.8; stroke-linejoin: miter; stroke-linecap: square"/>
   </g>
   <g id="patch_14">
    <path d="M 253.683273 297.065882 
L 253.683273 214.363922 
" style="fill: none; stroke: #000000; stroke-width: 0.8; stroke-linejoin: miter; stroke-linecap: square"/>
   </g>
   <g id="patch_15">
    <path d="M 43.78125 297.065882 
L 253.683273 297.065882 
" style="fill: none; stroke: #000000; stroke-width: 0.8; stroke-linejoin: miter; stroke-linecap: square"/>
   </g>
   <g id="patch_16">
    <path d="M 43.78125 214.363922 
L 253.683273 214.363922 
" style="fill: none; stroke: #000000; stroke-width: 0.8; stroke-linejoin: miter; stroke-linecap: square"/>
   </g>
   <g id="legend_1">
    <g id="patch_17">
     <path d="M 46.58321 333.416863 
L 257.105085 333.416863 
Q 259.105085 333.416863 259.105085 331.416863 
L 259.105085 317.738738 
Q 259.105085 315.738738 257.105085 315.738738 
L 46.58321 315.738738 
Q 44.58321 315.738738 44.58321 317.738738 
L 44.58321 331.416863 
Q 44.58321 333.416863 46.58321 333.416863 
z
" style="fill: #ffffff; opacity: 0.8; stroke: #cccccc; stroke-linejoin: miter"/>
    </g>
    <g id="line2d_36">
     <path d="M 48.58321 323.837175 
L 58.58321 323.837175 
L 68.58321 323.837175 
" style="fill: none; stroke: #0000ff; stroke-width: 1.5; stroke-linecap: square"/>
    </g>
    <g id="text_22">
     <!-- Exact -->
     <g transform="translate(76.58321 327.337175)scale(0.1 -0.1)">
      <defs>
       <path id="DejaVuSans-45" d="M 628 4666 
L 3578 4666 
L 3578 4134 
L 1259 4134 
L 1259 2753 
L 3481 2753 
L 3481 2222 
L 1259 2222 
L 1259 531 
L 3634 531 
L 3634 0 
L 628 0 
L 628 4666 
z
" transform="scale(0.015625)"/>
       <path id="DejaVuSans-78" d="M 3513 3500 
L 2247 1797 
L 3578 0 
L 2900 0 
L 1881 1375 
L 863 0 
L 184 0 
L 1544 1831 
L 300 3500 
L 978 3500 
L 1906 2253 
L 2834 3500 
L 3513 3500 
z
" transform="scale(0.015625)"/>
       <path id="DejaVuSans-61" d="M 2194 1759 
Q 1497 1759 1228 1600 
Q 959 1441 959 1056 
Q 959 750 1161 570 
Q 1363 391 1709 391 
Q 2188 391 2477 730 
Q 2766 1069 2766 1631 
L 2766 1759 
L 2194 1759 
z
M 3341 1997 
L 3341 0 
L 2766 0 
L 2766 531 
Q 2569 213 2275 61 
Q 1981 -91 1556 -91 
Q 1019 -91 701 211 
Q 384 513 384 1019 
Q 384 1609 779 1909 
Q 1175 2209 1959 2209 
L 2766 2209 
L 2766 2266 
Q 2766 2663 2505 2880 
Q 2244 3097 1772 3097 
Q 1472 3097 1187 3025 
Q 903 2953 641 2809 
L 641 3341 
Q 956 3463 1253 3523 
Q 1550 3584 1831 3584 
Q 2591 3584 2966 3190 
Q 3341 2797 3341 1997 
z
" transform="scale(0.015625)"/>
       <path id="DejaVuSans-63" d="M 3122 3366 
L 3122 2828 
Q 2878 2963 2633 3030 
Q 2388 3097 2138 3097 
Q 1578 3097 1268 2742 
Q 959 2388 959 1747 
Q 959 1106 1268 751 
Q 1578 397 2138 397 
Q 2388 397 2633 464 
Q 2878 531 3122 666 
L 3122 134 
Q 2881 22 2623 -34 
Q 2366 -91 2075 -91 
Q 1284 -91 818 406 
Q 353 903 353 1747 
Q 353 2603 823 3093 
Q 1294 3584 2113 3584 
Q 2378 3584 2631 3529 
Q 2884 3475 3122 3366 
z
" transform="scale(0.015625)"/>
       <path id="DejaVuSans-74" d="M 1172 4494 
L 1172 3500 
L 2356 3500 
L 2356 3053 
L 1172 3053 
L 1172 1153 
Q 1172 725 1289 603 
Q 1406 481 1766 481 
L 2356 481 
L 2356 0 
L 1766 0 
Q 1100 0 847 248 
Q 594 497 594 1153 
L 594 3053 
L 172 3053 
L 172 3500 
L 594 3500 
L 594 4494 
L 1172 4494 
z
" transform="scale(0.015625)"/>
      </defs>
      <use xlink:href="#DejaVuSans-45"/>
      <use xlink:href="#DejaVuSans-78" x="63.183594"/>
      <use xlink:href="#DejaVuSans-61" x="122.363281"/>
      <use xlink:href="#DejaVuSans-63" x="183.642578"/>
      <use xlink:href="#DejaVuSans-74" x="238.623047"/>
     </g>
    </g>
    <g id="line2d_37">
     <path d="M 124.367585 323.837175 
L 134.367585 323.837175 
L 144.367585 323.837175 
" style="fill: none; stroke-dasharray: 5.55,2.4; stroke-dashoffset: 0; stroke: #ff0000; stroke-width: 1.5"/>
    </g>
    <g id="text_23">
     <!-- FD -->
     <g transform="translate(152.367585 327.337175)scale(0.1 -0.1)">
      <defs>
       <path id="DejaVuSans-46" d="M 628 4666 
L 3309 4666 
L 3309 4134 
L 1259 4134 
L 1259 2759 
L 3109 2759 
L 3109 2228 
L 1259 2228 
L 1259 0 
L 628 0 
L 628 4666 
z
" transform="scale(0.015625)"/>
       <path id="DejaVuSans-44" d="M 1259 4147 
L 1259 519 
L 2022 519 
Q 2988 519 3436 956 
Q 3884 1394 3884 2338 
Q 3884 3275 3436 3711 
Q 2988 4147 2022 4147 
L 1259 4147 
z
M 628 4666 
L 1925 4666 
Q 3281 4666 3915 4102 
Q 4550 3538 4550 2338 
Q 4550 1131 3912 565 
Q 3275 0 1925 0 
L 628 0 
L 628 4666 
z
" transform="scale(0.015625)"/>
      </defs>
      <use xlink:href="#DejaVuSans-46"/>
      <use xlink:href="#DejaVuSans-44" x="57.519531"/>
     </g>
    </g>
    <g id="line2d_38">
     <path d="M 185.819147 323.837175 
L 195.819147 323.837175 
L 205.819147 323.837175 
" style="fill: none; stroke-dasharray: 1.5,2.475; stroke-dashoffset: 0; stroke: #000000; stroke-width: 1.5"/>
    </g>
    <g id="text_24">
     <!-- Spectral -->
     <g transform="translate(213.819147 327.337175)scale(0.1 -0.1)">
      <defs>
       <path id="DejaVuSans-53" d="M 3425 4513 
L 3425 3897 
Q 3066 4069 2747 4153 
Q 2428 4238 2131 4238 
Q 1616 4238 1336 4038 
Q 1056 3838 1056 3469 
Q 1056 3159 1242 3001 
Q 1428 2844 1947 2747 
L 2328 2669 
Q 3034 2534 3370 2195 
Q 3706 1856 3706 1288 
Q 3706 609 3251 259 
Q 2797 -91 1919 -91 
Q 1588 -91 1214 -16 
Q 841 59 441 206 
L 441 856 
Q 825 641 1194 531 
Q 1563 422 1919 422 
Q 2459 422 2753 634 
Q 3047 847 3047 1241 
Q 3047 1584 2836 1778 
Q 2625 1972 2144 2069 
L 1759 2144 
Q 1053 2284 737 2584 
Q 422 2884 422 3419 
Q 422 4038 858 4394 
Q 1294 4750 2059 4750 
Q 2388 4750 2728 4690 
Q 3069 4631 3425 4513 
z
" transform="scale(0.015625)"/>
       <path id="DejaVuSans-70" d="M 1159 525 
L 1159 -1331 
L 581 -1331 
L 581 3500 
L 1159 3500 
L 1159 2969 
Q 1341 3281 1617 3432 
Q 1894 3584 2278 3584 
Q 2916 3584 3314 3078 
Q 3713 2572 3713 1747 
Q 3713 922 3314 415 
Q 2916 -91 2278 -91 
Q 1894 -91 1617 61 
Q 1341 213 1159 525 
z
M 3116 1747 
Q 3116 2381 2855 2742 
Q 2594 3103 2138 3103 
Q 1681 3103 1420 2742 
Q 1159 2381 1159 1747 
Q 1159 1113 1420 752 
Q 1681 391 2138 391 
Q 2594 391 2855 752 
Q 3116 1113 3116 1747 
z
" transform="scale(0.015625)"/>
       <path id="DejaVuSans-65" d="M 3597 1894 
L 3597 1613 
L 953 1613 
Q 991 1019 1311 708 
Q 1631 397 2203 397 
Q 2534 397 2845 478 
Q 3156 559 3463 722 
L 3463 178 
Q 3153 47 2828 -22 
Q 2503 -91 2169 -91 
Q 1331 -91 842 396 
Q 353 884 353 1716 
Q 353 2575 817 3079 
Q 1281 3584 2069 3584 
Q 2775 3584 3186 3129 
Q 3597 2675 3597 1894 
z
M 3022 2063 
Q 3016 2534 2758 2815 
Q 2500 3097 2075 3097 
Q 1594 3097 1305 2825 
Q 1016 2553 972 2059 
L 3022 2063 
z
" transform="scale(0.015625)"/>
       <path id="DejaVuSans-72" d="M 2631 2963 
Q 2534 3019 2420 3045 
Q 2306 3072 2169 3072 
Q 1681 3072 1420 2755 
Q 1159 2438 1159 1844 
L 1159 0 
L 581 0 
L 581 3500 
L 1159 3500 
L 1159 2956 
Q 1341 3275 1631 3429 
Q 1922 3584 2338 3584 
Q 2397 3584 2469 3576 
Q 2541 3569 2628 3553 
L 2631 2963 
z
" transform="scale(0.015625)"/>
       <path id="DejaVuSans-6c" d="M 603 4863 
L 1178 4863 
L 1178 0 
L 603 0 
L 603 4863 
z
" transform="scale(0.015625)"/>
      </defs>
      <use xlink:href="#DejaVuSans-53"/>
      <use xlink:href="#DejaVuSans-70" x="63.476562"/>
      <use xlink:href="#DejaVuSans-65" x="126.953125"/>
      <use xlink:href="#DejaVuSans-63" x="188.476562"/>
      <use xlink:href="#DejaVuSans-74" x="243.457031"/>
      <use xlink:href="#DejaVuSans-72" x="282.666016"/>
      <use xlink:href="#DejaVuSans-61" x="323.779297"/>
      <use xlink:href="#DejaVuSans-6c" x="385.058594"/>
     </g>
    </g>
   </g>
  </g>
 </g>
 <defs>
  <clipPath id="p1cf4e8955c">
   <rect x="43.78125" y="7.2" width="209.902023" height="82.701961"/>
  </clipPath>
  <clipPath id="p1c92b025f6">
   <rect x="43.78125" y="110.781961" width="209.902023" height="82.701961"/>
  </clipPath>
  <clipPath id="pbe8ab1348e">
   <rect x="43.78125" y="214.363922" width="209.902023" height="82.701961"/>
  </clipPath>
 </defs>
</svg>
