<?xml version="1.0" encoding="utf-8" standalone="no"?>
<!DOCTYPE svg PUBLIC "-//W3C//DTD SVG 1.1//EN"
  "http://www.w3.org/Graphics/SVG/1.1/DTD/svg11.dtd">
<svg xmlns:xlink="http://www.w3.org/1999/xlink" width="268.073273pt" height="336.87625pt" viewBox="0 0 268.073273 336.87625" xmlns="http://www.w3.org/2000/svg" version="1.1">
 <metadata>
  <rdf:RDF xmlns:dc="http://purl.org/dc/elements/1.1/" xmlns:cc="http://creativecommons.org/ns#" xmlns:rdf="http://www.w3.org/1999/02/22-rdf-syntax-ns#">
   <cc:Work>
    <dc:type rdf:resource="http://purl.org/dc/dcmitype/StillImage"/>
    <dc:date>2022-08-18T14:34:34.681834</dc:date>
    <dc:format>image/svg+xml</dc:format>
    <dc:creator>
     <cc:Agent>
      <dc:title>Matplotlib v3.5.2, https://matplotlib.org/</dc:title>
     </cc:Agent>
    </dc:creator>
   </cc:Work>
  </rdf:RDF>
 </metadata>
 <defs>
  <style type="text/css">*{stroke-linejoin: round; stroke-linecap: butt}</style>
 </defs>
 <g id="figure_1">
  <g id="patch_1">
   <path d="M 0 336.87625 
L 268.073273 336.87625 
L 268.073273 0 
L 0 0 
z
" style="fill: #ffffff"/>
  </g>
  <g id="axes_1">
   <g id="patch_2">
    <path d="M 43.78125 146.11 
L 254.673273 146.11 
L 254.673273 7.2 
L 43.78125 7.2 
z
" style="fill: #ffffff"/>
   </g>
   <g id="matplotlib.axis_1">
    <g id="xtick_1">
     <g id="line2d_1">
      <defs>
       <path id="m9ed940d211" d="M 0 0 
L 0 3.5 
" style="stroke: #000000; stroke-width: 0.8"/>
      </defs>
      <g>
       <use xlink:href="#m9ed940d211" x="43.78125" y="146.11" style="stroke: #000000; stroke-width: 0.8"/>
      </g>
     </g>
    </g>
    <g id="xtick_2">
     <g id="line2d_2">
      <g>
       <use xlink:href="#m9ed940d211" x="96.504256" y="146.11" style="stroke: #000000; stroke-width: 0.8"/>
      </g>
     </g>
    </g>
    <g id="xtick_3">
     <g id="line2d_3">
      <g>
       <use xlink:href="#m9ed940d211" x="149.227261" y="146.11" style="stroke: #000000; stroke-width: 0.8"/>
      </g>
     </g>
    </g>
    <g id="xtick_4">
     <g id="line2d_4">
      <g>
       <use xlink:href="#m9ed940d211" x="201.950267" y="146.11" style="stroke: #000000; stroke-width: 0.8"/>
      </g>
     </g>
    </g>
    <g id="xtick_5">
     <g id="line2d_5">
      <g>
       <use xlink:href="#m9ed940d211" x="254.673273" y="146.11" style="stroke: #000000; stroke-width: 0.8"/>
      </g>
     </g>
    </g>
   </g>
   <g id="matplotlib.axis_2">
    <g id="ytick_1">
     <g id="line2d_6">
      <defs>
       <path id="ma4f8fdc9a5" d="M 0 0 
L -3.5 0 
" style="stroke: #000000; stroke-width: 0.8"/>
      </defs>
      <g>
       <use xlink:href="#ma4f8fdc9a5" x="43.78125" y="122.958333" style="stroke: #000000; stroke-width: 0.8"/>
      </g>
     </g>
     <g id="text_1">
      <!-- 0.0 -->
      <g transform="translate(20.878125 126.757552)scale(0.1 -0.1)">
       <defs>
        <path id="DejaVuSans-30" d="M 2034 4250 
Q 1547 4250 1301 3770 
Q 1056 3291 1056 2328 
Q 1056 1369 1301 889 
Q 1547 409 2034 409 
Q 2525 409 2770 889 
Q 3016 1369 3016 2328 
Q 3016 3291 2770 3770 
Q 2525 4250 2034 4250 
z
M 2034 4750 
Q 2819 4750 3233 4129 
Q 3647 3509 3647 2328 
Q 3647 1150 3233 529 
Q 2819 -91 2034 -91 
Q 1250 -91 836 529 
Q 422 1150 422 2328 
Q 422 3509 836 4129 
Q 1250 4750 2034 4750 
z
" transform="scale(0.015625)"/>
        <path id="DejaVuSans-2e" d="M 684 794 
L 1344 794 
L 1344 0 
L 684 0 
L 684 794 
z
" transform="scale(0.015625)"/>
       </defs>
       <use xlink:href="#DejaVuSans-30"/>
       <use xlink:href="#DejaVuSans-2e" x="63.623047"/>
       <use xlink:href="#DejaVuSans-30" x="95.410156"/>
      </g>
     </g>
    </g>
    <g id="ytick_2">
     <g id="line2d_7">
      <g>
       <use xlink:href="#ma4f8fdc9a5" x="43.78125" y="76.655" style="stroke: #000000; stroke-width: 0.8"/>
      </g>
     </g>
     <g id="text_2">
      <!-- 0.5 -->
      <g transform="translate(20.878125 80.454219)scale(0.1 -0.1)">
       <defs>
        <path id="DejaVuSans-35" d="M 691 4666 
L 3169 4666 
L 3169 4134 
L 1269 4134 
L 1269 2991 
Q 1406 3038 1543 3061 
Q 1681 3084 1819 3084 
Q 2600 3084 3056 2656 
Q 3513 2228 3513 1497 
Q 3513 744 3044 326 
Q 2575 -91 1722 -91 
Q 1428 -91 1123 -41 
Q 819 9 494 109 
L 494 744 
Q 775 591 1075 516 
Q 1375 441 1709 441 
Q 2250 441 2565 725 
Q 2881 1009 2881 1497 
Q 2881 1984 2565 2268 
Q 2250 2553 1709 2553 
Q 1456 2553 1204 2497 
Q 953 2441 691 2322 
L 691 4666 
z
" transform="scale(0.015625)"/>
       </defs>
       <use xlink:href="#DejaVuSans-30"/>
       <use xlink:href="#DejaVuSans-2e" x="63.623047"/>
       <use xlink:href="#DejaVuSans-35" x="95.410156"/>
      </g>
     </g>
    </g>
    <g id="ytick_3">
     <g id="line2d_8">
      <g>
       <use xlink:href="#ma4f8fdc9a5" x="43.78125" y="30.351667" style="stroke: #000000; stroke-width: 0.8"/>
      </g>
     </g>
     <g id="text_3">
      <!-- 1.0 -->
      <g transform="translate(20.878125 34.150885)scale(0.1 -0.1)">
       <defs>
        <path id="DejaVuSans-31" d="M 794 531 
L 1825 531 
L 1825 4091 
L 703 3866 
L 703 4441 
L 1819 4666 
L 2450 4666 
L 2450 531 
L 3481 531 
L 3481 0 
L 794 0 
L 794 531 
z
" transform="scale(0.015625)"/>
       </defs>
       <use xlink:href="#DejaVuSans-31"/>
       <use xlink:href="#DejaVuSans-2e" x="63.623047"/>
       <use xlink:href="#DejaVuSans-30" x="95.410156"/>
      </g>
     </g>
    </g>
    <g id="text_4">
     <!-- $N=$100 -->
     <g transform="translate(14.798438 96.105)rotate(-90)scale(0.1 -0.1)">
      <defs>
       <path id="DejaVuSans-Oblique-4e" d="M 1081 4666 
L 1931 4666 
L 3219 666 
L 4000 4666 
L 4616 4666 
L 3706 0 
L 2853 0 
L 1569 4025 
L 788 0 
L 172 0 
L 1081 4666 
z
" transform="scale(0.015625)"/>
       <path id="DejaVuSans-3d" d="M 678 2906 
L 4684 2906 
L 4684 2381 
L 678 2381 
L 678 2906 
z
M 678 1631 
L 4684 1631 
L 4684 1100 
L 678 1100 
L 678 1631 
z
" transform="scale(0.015625)"/>
      </defs>
      <use xlink:href="#DejaVuSans-Oblique-4e" transform="translate(0 0.78125)"/>
      <use xlink:href="#DejaVuSans-3d" transform="translate(94.287109 0.78125)"/>
      <use xlink:href="#DejaVuSans-31" transform="translate(197.558594 0.78125)"/>
      <use xlink:href="#DejaVuSans-30" transform="translate(261.181641 0.78125)"/>
      <use xlink:href="#DejaVuSans-30" transform="translate(324.804688 0.78125)"/>
     </g>
    </g>
   </g>
   <g id="line2d_9">
    <path d="M 43.78125 122.958333 
L 70.169141 122.865634 
L 96.557031 30.537065 
L 122.944922 122.958333 
L 175.509601 122.958333 
L 175.720704 30.351667 
L 228.285382 30.351667 
L 228.496485 122.958333 
L 254.673273 122.958333 
L 254.673273 122.958333 
" clip-path="url(#p1043b551db)" style="fill: none; stroke: #000000; stroke-width: 1.5; stroke-linecap: square"/>
   </g>
   <g id="line2d_10">
    <path d="M 40.61787 116.279832 
L 42.72679 117.725119 
L 44.83571 122.911151 
L 46.94463 135.733002 
L 49.053551 114.380934 
L 51.162471 122.092236 
L 53.271391 120.173188 
L 55.380311 131.617499 
L 57.489231 122.649396 
L 59.598152 110.915364 
L 61.707072 125.809363 
L 63.815992 131.618024 
L 65.924912 122.864462 
L 68.033833 119.391565 
L 70.142753 127.634107 
L 72.251673 107.200707 
L 74.360593 111.766091 
L 76.469514 103.12391 
L 78.578434 83.43902 
L 80.687354 93.305341 
L 82.796274 78.620306 
L 84.905194 77.564073 
L 87.014115 61.553498 
L 89.123035 56.16078 
L 91.231955 31.355735 
L 93.340875 53.100986 
L 95.449796 39.372683 
L 97.558716 28.750269 
L 99.667636 37.102904 
L 101.776556 55.536751 
L 103.885476 60.87521 
L 105.994397 69.64893 
L 108.103317 55.511459 
L 110.212237 71.576102 
L 112.321157 93.079281 
L 114.430078 106.245306 
L 116.538998 97.828681 
L 118.647918 96.725635 
L 120.756838 121.274971 
L 122.865759 119.506324 
L 124.974679 132.981565 
L 127.083599 117.287624 
L 129.192519 121.90918 
L 131.301439 121.623261 
L 133.41036 115.364097 
L 135.51928 132.686853 
L 137.6282 123.699044 
L 139.73712 129.794255 
L 141.846041 120.601673 
L 143.954961 111.914434 
L 146.063881 113.943945 
L 148.172801 125.072165 
L 150.281721 148.643698 
L 152.390642 127.857252 
L 154.499562 111.511022 
L 156.608482 110.130941 
L 158.717402 107.952899 
L 160.826323 122.426208 
L 162.935243 143.68823 
L 165.044163 139.739428 
L 167.153083 123.657307 
L 169.262004 127.819991 
L 171.370924 111.266656 
L 173.479844 78.701023 
L 175.588764 53.754739 
L 177.697684 38.964952 
L 179.806605 31.883961 
L 181.915525 26.349972 
L 184.024445 43.61128 
L 186.133365 36.40463 
L 188.242286 11.922855 
L 190.351206 26.647759 
L 192.460126 30.686464 
L 194.569046 34.629332 
L 196.677966 41.771728 
L 198.786887 30.16016 
L 200.895807 28.382169 
L 203.004727 16.194471 
L 205.113647 19.67823 
L 207.222568 43.516575 
L 209.331488 38.224694 
L 211.440408 43.330535 
L 213.549328 36.130015 
L 215.658249 14.017066 
L 217.767169 16.307173 
L 219.876089 13.295253 
L 221.985009 24.350606 
L 224.093929 58.822581 
L 226.20285 75.691416 
L 228.31177 92.427544 
L 230.42069 108.039111 
L 232.52961 122.229774 
L 234.638531 127.812634 
L 236.747451 121.066588 
L 238.856371 116.862586 
L 240.965291 132.969201 
L 243.074211 122.345712 
L 245.183132 119.892234 
L 247.292052 119.007439 
L 249.400972 135.261078 
L 251.509892 116.279832 
L 253.618813 117.725119 
L 255.727733 122.911151 
L 257.836653 135.733002 
" clip-path="url(#p1043b551db)" style="fill: none; stroke-dasharray: 5.55,2.4; stroke-dashoffset: 0; stroke: #0000ff; stroke-width: 1.5"/>
   </g>
   <g id="line2d_11">
    <path d="M 36.400029 122.94175 
L 38.508949 122.955196 
L 40.61787 122.95969 
L 42.72679 122.959523 
L 44.83571 122.957731 
L 46.94463 122.956815 
L 49.053551 122.957987 
L 51.162471 122.960367 
L 53.271391 122.961109 
L 55.380311 122.956511 
L 57.489231 122.941755 
L 59.598152 122.906255 
L 61.707072 122.825788 
L 63.815992 122.64751 
L 65.924912 122.260536 
L 68.033833 121.437737 
L 70.142753 119.700833 
L 72.251673 116.119597 
L 74.360593 110.156238 
L 76.469514 102.557528 
L 78.578434 94.413328 
L 80.687354 86.478888 
L 82.796274 78.848177 
L 84.905194 71.086832 
L 87.014115 62.835685 
L 89.123035 54.341496 
L 91.231955 46.480596 
L 93.340875 40.444605 
L 95.449796 37.424792 
L 97.558716 38.165647 
L 99.667636 42.080858 
L 101.776556 48.182675 
L 103.885476 55.495168 
L 105.994397 63.160335 
L 108.103317 70.700777 
L 110.212237 78.180615 
L 112.321157 85.982342 
L 114.430078 94.288213 
L 116.538998 102.72096 
L 118.647918 110.409796 
L 120.756838 116.328811 
L 122.865759 119.861283 
L 124.974679 121.541498 
L 127.083599 122.318275 
L 129.192519 122.674671 
L 131.301439 122.836175 
L 133.41036 122.908852 
L 135.51928 122.941167 
L 137.6282 122.954785 
L 139.73712 122.959241 
L 141.846041 122.959009 
L 143.954961 122.957554 
L 146.063881 122.957631 
L 148.172801 122.959635 
L 150.281721 122.960985 
L 152.390642 122.957593 
L 154.499562 122.944481 
L 156.608482 122.910705 
L 158.717402 122.829586 
L 160.826323 122.638792 
L 162.935243 122.197062 
L 165.044163 121.192741 
L 167.153083 118.949284 
L 169.262004 113.929036 
L 171.370924 103.116699 
L 173.479844 86.193248 
L 175.588764 67.095973 
L 177.697684 50.345643 
L 179.806605 39.424976 
L 181.915525 34.302937 
L 184.024445 32.057571 
L 186.133365 31.071081 
L 188.242286 30.648785 
L 190.351206 30.472865 
L 192.460126 30.400945 
L 194.569046 30.371232 
L 196.677966 30.358179 
L 198.786887 30.351915 
L 200.895807 30.34875 
L 203.004727 30.348159 
L 205.113647 30.352514 
L 207.222568 30.366387 
L 209.331488 30.400567 
L 211.440408 30.4816 
L 213.549328 30.671782 
L 215.658249 31.112544 
L 217.767169 32.115989 
L 219.876089 34.359331 
L 221.985009 39.380816 
L 224.093929 50.192317 
L 226.20285 67.110049 
L 228.31177 86.206169 
L 230.42069 102.966706 
L 232.52961 113.899934 
L 234.638531 119.017818 
L 236.747451 121.252479 
L 238.856371 122.232085 
L 240.965291 122.653788 
L 243.074211 122.833199 
L 245.183132 122.909343 
L 247.292052 122.94175 
L 249.400972 122.955196 
L 251.509892 122.95969 
L 253.618813 122.959523 
L 255.727733 122.957731 
L 257.836653 122.956815 
L 259.945573 122.957987 
L 262.054493 122.960367 
" clip-path="url(#p1043b551db)" style="fill: none; stroke-dasharray: 5.55,2.4; stroke-dashoffset: 0; stroke: #ff0000; stroke-width: 1.5"/>
   </g>
   <g id="patch_3">
    <path d="M 43.78125 146.11 
L 43.78125 7.2 
" style="fill: none; stroke: #000000; stroke-width: 0.8; stroke-linejoin: miter; stroke-linecap: square"/>
   </g>
   <g id="patch_4">
    <path d="M 254.673273 146.11 
L 254.673273 7.2 
" style="fill: none; stroke: #000000; stroke-width: 0.8; stroke-linejoin: miter; stroke-linecap: square"/>
   </g>
   <g id="patch_5">
    <path d="M 43.78125 146.11 
L 254.673273 146.11 
" style="fill: none; stroke: #000000; stroke-width: 0.8; stroke-linejoin: miter; stroke-linecap: square"/>
   </g>
   <g id="patch_6">
    <path d="M 43.78125 7.2 
L 254.673273 7.2 
" style="fill: none; stroke: #000000; stroke-width: 0.8; stroke-linejoin: miter; stroke-linecap: square"/>
   </g>
   <g id="legend_1">
    <g id="patch_7">
     <path d="M 50.78125 59.234375 
L 144.840625 59.234375 
Q 146.840625 59.234375 146.840625 57.234375 
L 146.840625 14.2 
Q 146.840625 12.2 144.840625 12.2 
L 50.78125 12.2 
Q 48.78125 12.2 48.78125 14.2 
L 48.78125 57.234375 
Q 48.78125 59.234375 50.78125 59.234375 
z
" style="fill: #ffffff; opacity: 0.8; stroke: #cccccc; stroke-linejoin: miter"/>
    </g>
    <g id="line2d_12">
     <path d="M 52.78125 20.298437 
L 62.78125 20.298437 
L 72.78125 20.298437 
" style="fill: none; stroke: #000000; stroke-width: 1.5; stroke-linecap: square"/>
    </g>
    <g id="text_5">
     <!-- Exact -->
     <g transform="translate(80.78125 23.798437)scale(0.1 -0.1)">
      <defs>
       <path id="DejaVuSans-45" d="M 628 4666 
L 3578 4666 
L 3578 4134 
L 1259 4134 
L 1259 2753 
L 3481 2753 
L 3481 2222 
L 1259 2222 
L 1259 531 
L 3634 531 
L 3634 0 
L 628 0 
L 628 4666 
z
" transform="scale(0.015625)"/>
       <path id="DejaVuSans-78" d="M 3513 3500 
L 2247 1797 
L 3578 0 
L 2900 0 
L 1881 1375 
L 863 0 
L 184 0 
L 1544 1831 
L 300 3500 
L 978 3500 
L 1906 2253 
L 2834 3500 
L 3513 3500 
z
" transform="scale(0.015625)"/>
       <path id="DejaVuSans-61" d="M 2194 1759 
Q 1497 1759 1228 1600 
Q 959 1441 959 1056 
Q 959 750 1161 570 
Q 1363 391 1709 391 
Q 2188 391 2477 730 
Q 2766 1069 2766 1631 
L 2766 1759 
L 2194 1759 
z
M 3341 1997 
L 3341 0 
L 2766 0 
L 2766 531 
Q 2569 213 2275 61 
Q 1981 -91 1556 -91 
Q 1019 -91 701 211 
Q 384 513 384 1019 
Q 384 1609 779 1909 
Q 1175 2209 1959 2209 
L 2766 2209 
L 2766 2266 
Q 2766 2663 2505 2880 
Q 2244 3097 1772 3097 
Q 1472 3097 1187 3025 
Q 903 2953 641 2809 
L 641 3341 
Q 956 3463 1253 3523 
Q 1550 3584 1831 3584 
Q 2591 3584 2966 3190 
Q 3341 2797 3341 1997 
z
" transform="scale(0.015625)"/>
       <path id="DejaVuSans-63" d="M 3122 3366 
L 3122 2828 
Q 2878 2963 2633 3030 
Q 2388 3097 2138 3097 
Q 1578 3097 1268 2742 
Q 959 2388 959 1747 
Q 959 1106 1268 751 
Q 1578 397 2138 397 
Q 2388 397 2633 464 
Q 2878 531 3122 666 
L 3122 134 
Q 2881 22 2623 -34 
Q 2366 -91 2075 -91 
Q 1284 -91 818 406 
Q 353 903 353 1747 
Q 353 2603 823 3093 
Q 1294 3584 2113 3584 
Q 2378 3584 2631 3529 
Q 2884 3475 3122 3366 
z
" transform="scale(0.015625)"/>
       <path id="DejaVuSans-74" d="M 1172 4494 
L 1172 3500 
L 2356 3500 
L 2356 3053 
L 1172 3053 
L 1172 1153 
Q 1172 725 1289 603 
Q 1406 481 1766 481 
L 2356 481 
L 2356 0 
L 1766 0 
Q 1100 0 847 248 
Q 594 497 594 1153 
L 594 3053 
L 172 3053 
L 172 3500 
L 594 3500 
L 594 4494 
L 1172 4494 
z
" transform="scale(0.015625)"/>
      </defs>
      <use xlink:href="#DejaVuSans-45"/>
      <use xlink:href="#DejaVuSans-78" x="63.183594"/>
      <use xlink:href="#DejaVuSans-61" x="122.363281"/>
      <use xlink:href="#DejaVuSans-63" x="183.642578"/>
      <use xlink:href="#DejaVuSans-74" x="238.623047"/>
     </g>
    </g>
    <g id="line2d_13">
     <path d="M 52.78125 34.976562 
L 62.78125 34.976562 
L 72.78125 34.976562 
" style="fill: none; stroke-dasharray: 5.55,2.4; stroke-dashoffset: 0; stroke: #0000ff; stroke-width: 1.5"/>
    </g>
    <g id="text_6">
     <!-- Fourth order -->
     <g transform="translate(80.78125 38.476562)scale(0.1 -0.1)">
      <defs>
       <path id="DejaVuSans-46" d="M 628 4666 
L 3309 4666 
L 3309 4134 
L 1259 4134 
L 1259 2759 
L 3109 2759 
L 3109 2228 
L 1259 2228 
L 1259 0 
L 628 0 
L 628 4666 
z
" transform="scale(0.015625)"/>
       <path id="DejaVuSans-6f" d="M 1959 3097 
Q 1497 3097 1228 2736 
Q 959 2375 959 1747 
Q 959 1119 1226 758 
Q 1494 397 1959 397 
Q 2419 397 2687 759 
Q 2956 1122 2956 1747 
Q 2956 2369 2687 2733 
Q 2419 3097 1959 3097 
z
M 1959 3584 
Q 2709 3584 3137 3096 
Q 3566 2609 3566 1747 
Q 3566 888 3137 398 
Q 2709 -91 1959 -91 
Q 1206 -91 779 398 
Q 353 888 353 1747 
Q 353 2609 779 3096 
Q 1206 3584 1959 3584 
z
" transform="scale(0.015625)"/>
       <path id="DejaVuSans-75" d="M 544 1381 
L 544 3500 
L 1119 3500 
L 1119 1403 
Q 1119 906 1312 657 
Q 1506 409 1894 409 
Q 2359 409 2629 706 
Q 2900 1003 2900 1516 
L 2900 3500 
L 3475 3500 
L 3475 0 
L 2900 0 
L 2900 538 
Q 2691 219 2414 64 
Q 2138 -91 1772 -91 
Q 1169 -91 856 284 
Q 544 659 544 1381 
z
M 1991 3584 
L 1991 3584 
z
" transform="scale(0.015625)"/>
       <path id="DejaVuSans-72" d="M 2631 2963 
Q 2534 3019 2420 3045 
Q 2306 3072 2169 3072 
Q 1681 3072 1420 2755 
Q 1159 2438 1159 1844 
L 1159 0 
L 581 0 
L 581 3500 
L 1159 3500 
L 1159 2956 
Q 1341 3275 1631 3429 
Q 1922 3584 2338 3584 
Q 2397 3584 2469 3576 
Q 2541 3569 2628 3553 
L 2631 2963 
z
" transform="scale(0.015625)"/>
       <path id="DejaVuSans-68" d="M 3513 2113 
L 3513 0 
L 2938 0 
L 2938 2094 
Q 2938 2591 2744 2837 
Q 2550 3084 2163 3084 
Q 1697 3084 1428 2787 
Q 1159 2491 1159 1978 
L 1159 0 
L 581 0 
L 581 4863 
L 1159 4863 
L 1159 2956 
Q 1366 3272 1645 3428 
Q 1925 3584 2291 3584 
Q 2894 3584 3203 3211 
Q 3513 2838 3513 2113 
z
" transform="scale(0.015625)"/>
       <path id="DejaVuSans-20" transform="scale(0.015625)"/>
       <path id="DejaVuSans-64" d="M 2906 2969 
L 2906 4863 
L 3481 4863 
L 3481 0 
L 2906 0 
L 2906 525 
Q 2725 213 2448 61 
Q 2172 -91 1784 -91 
Q 1150 -91 751 415 
Q 353 922 353 1747 
Q 353 2572 751 3078 
Q 1150 3584 1784 3584 
Q 2172 3584 2448 3432 
Q 2725 3281 2906 2969 
z
M 947 1747 
Q 947 1113 1208 752 
Q 1469 391 1925 391 
Q 2381 391 2643 752 
Q 2906 1113 2906 1747 
Q 2906 2381 2643 2742 
Q 2381 3103 1925 3103 
Q 1469 3103 1208 2742 
Q 947 2381 947 1747 
z
" transform="scale(0.015625)"/>
       <path id="DejaVuSans-65" d="M 3597 1894 
L 3597 1613 
L 953 1613 
Q 991 1019 1311 708 
Q 1631 397 2203 397 
Q 2534 397 2845 478 
Q 3156 559 3463 722 
L 3463 178 
Q 3153 47 2828 -22 
Q 2503 -91 2169 -91 
Q 1331 -91 842 396 
Q 353 884 353 1716 
Q 353 2575 817 3079 
Q 1281 3584 2069 3584 
Q 2775 3584 3186 3129 
Q 3597 2675 3597 1894 
z
M 3022 2063 
Q 3016 2534 2758 2815 
Q 2500 3097 2075 3097 
Q 1594 3097 1305 2825 
Q 1016 2553 972 2059 
L 3022 2063 
z
" transform="scale(0.015625)"/>
      </defs>
      <use xlink:href="#DejaVuSans-46"/>
      <use xlink:href="#DejaVuSans-6f" x="53.894531"/>
      <use xlink:href="#DejaVuSans-75" x="115.076172"/>
      <use xlink:href="#DejaVuSans-72" x="178.455078"/>
      <use xlink:href="#DejaVuSans-74" x="219.568359"/>
      <use xlink:href="#DejaVuSans-68" x="258.777344"/>
      <use xlink:href="#DejaVuSans-20" x="322.15625"/>
      <use xlink:href="#DejaVuSans-6f" x="353.943359"/>
      <use xlink:href="#DejaVuSans-72" x="415.125"/>
      <use xlink:href="#DejaVuSans-64" x="454.488281"/>
      <use xlink:href="#DejaVuSans-65" x="517.964844"/>
      <use xlink:href="#DejaVuSans-72" x="579.488281"/>
     </g>
    </g>
    <g id="line2d_14">
     <path d="M 52.78125 49.654687 
L 62.78125 49.654687 
L 72.78125 49.654687 
" style="fill: none; stroke-dasharray: 5.55,2.4; stroke-dashoffset: 0; stroke: #ff0000; stroke-width: 1.5"/>
    </g>
    <g id="text_7">
     <!-- WENO -->
     <g transform="translate(80.78125 53.154687)scale(0.1 -0.1)">
      <defs>
       <path id="DejaVuSans-57" d="M 213 4666 
L 850 4666 
L 1831 722 
L 2809 4666 
L 3519 4666 
L 4500 722 
L 5478 4666 
L 6119 4666 
L 4947 0 
L 4153 0 
L 3169 4050 
L 2175 0 
L 1381 0 
L 213 4666 
z
" transform="scale(0.015625)"/>
       <path id="DejaVuSans-4e" d="M 628 4666 
L 1478 4666 
L 3547 763 
L 3547 4666 
L 4159 4666 
L 4159 0 
L 3309 0 
L 1241 3903 
L 1241 0 
L 628 0 
L 628 4666 
z
" transform="scale(0.015625)"/>
       <path id="DejaVuSans-4f" d="M 2522 4238 
Q 1834 4238 1429 3725 
Q 1025 3213 1025 2328 
Q 1025 1447 1429 934 
Q 1834 422 2522 422 
Q 3209 422 3611 934 
Q 4013 1447 4013 2328 
Q 4013 3213 3611 3725 
Q 3209 4238 2522 4238 
z
M 2522 4750 
Q 3503 4750 4090 4092 
Q 4678 3434 4678 2328 
Q 4678 1225 4090 567 
Q 3503 -91 2522 -91 
Q 1538 -91 948 565 
Q 359 1222 359 2328 
Q 359 3434 948 4092 
Q 1538 4750 2522 4750 
z
" transform="scale(0.015625)"/>
      </defs>
      <use xlink:href="#DejaVuSans-57"/>
      <use xlink:href="#DejaVuSans-45" x="98.876953"/>
      <use xlink:href="#DejaVuSans-4e" x="162.060547"/>
      <use xlink:href="#DejaVuSans-4f" x="236.865234"/>
     </g>
    </g>
   </g>
  </g>
  <g id="axes_2">
   <g id="patch_8">
    <path d="M 43.78125 299.32 
L 254.673273 299.32 
L 254.673273 160.41 
L 43.78125 160.41 
z
" style="fill: #ffffff"/>
   </g>
   <g id="matplotlib.axis_3">
    <g id="xtick_6">
     <g id="line2d_15">
      <g>
       <use xlink:href="#m9ed940d211" x="43.78125" y="299.32" style="stroke: #000000; stroke-width: 0.8"/>
      </g>
     </g>
     <g id="text_8">
      <!-- 0 -->
      <g transform="translate(40.6 313.918437)scale(0.1 -0.1)">
       <use xlink:href="#DejaVuSans-30"/>
      </g>
     </g>
    </g>
    <g id="xtick_7">
     <g id="line2d_16">
      <g>
       <use xlink:href="#m9ed940d211" x="96.504256" y="299.32" style="stroke: #000000; stroke-width: 0.8"/>
      </g>
     </g>
     <g id="text_9">
      <!-- $\pi$/2 -->
      <g transform="translate(88.804256 313.918437)scale(0.1 -0.1)">
       <defs>
        <path id="DejaVuSans-Oblique-3c0" d="M 584 3500 
L 3938 3500 
L 3825 2925 
L 3384 2925 
L 2966 775 
Q 2922 550 2981 450 
Q 3038 353 3209 353 
Q 3256 353 3325 363 
Q 3397 369 3419 372 
L 3338 -44 
Q 3222 -84 3103 -103 
Q 2981 -122 2866 -122 
Q 2491 -122 2388 81 
Q 2284 288 2391 838 
L 2797 2925 
L 1506 2925 
L 938 0 
L 350 0 
L 919 2925 
L 472 2925 
L 584 3500 
z
" transform="scale(0.015625)"/>
        <path id="DejaVuSans-2f" d="M 1625 4666 
L 2156 4666 
L 531 -594 
L 0 -594 
L 1625 4666 
z
" transform="scale(0.015625)"/>
        <path id="DejaVuSans-32" d="M 1228 531 
L 3431 531 
L 3431 0 
L 469 0 
L 469 531 
Q 828 903 1448 1529 
Q 2069 2156 2228 2338 
Q 2531 2678 2651 2914 
Q 2772 3150 2772 3378 
Q 2772 3750 2511 3984 
Q 2250 4219 1831 4219 
Q 1534 4219 1204 4116 
Q 875 4013 500 3803 
L 500 4441 
Q 881 4594 1212 4672 
Q 1544 4750 1819 4750 
Q 2544 4750 2975 4387 
Q 3406 4025 3406 3419 
Q 3406 3131 3298 2873 
Q 3191 2616 2906 2266 
Q 2828 2175 2409 1742 
Q 1991 1309 1228 531 
z
" transform="scale(0.015625)"/>
       </defs>
       <use xlink:href="#DejaVuSans-Oblique-3c0" transform="translate(0 0.78125)"/>
       <use xlink:href="#DejaVuSans-2f" transform="translate(60.205078 0.78125)"/>
       <use xlink:href="#DejaVuSans-32" transform="translate(90.271484 0.78125)"/>
      </g>
     </g>
    </g>
    <g id="xtick_8">
     <g id="line2d_17">
      <g>
       <use xlink:href="#m9ed940d211" x="149.227261" y="299.32" style="stroke: #000000; stroke-width: 0.8"/>
      </g>
     </g>
     <g id="text_10">
      <!-- $\pi$ -->
      <g transform="translate(146.177261 313.918437)scale(0.1 -0.1)">
       <use xlink:href="#DejaVuSans-Oblique-3c0" transform="translate(0 0.3125)"/>
      </g>
     </g>
    </g>
    <g id="xtick_9">
     <g id="line2d_18">
      <g>
       <use xlink:href="#m9ed940d211" x="201.950267" y="299.32" style="stroke: #000000; stroke-width: 0.8"/>
      </g>
     </g>
     <g id="text_11">
      <!-- 3$\pi$/2 -->
      <g transform="translate(191.050267 313.918437)scale(0.1 -0.1)">
       <defs>
        <path id="DejaVuSans-33" d="M 2597 2516 
Q 3050 2419 3304 2112 
Q 3559 1806 3559 1356 
Q 3559 666 3084 287 
Q 2609 -91 1734 -91 
Q 1441 -91 1130 -33 
Q 819 25 488 141 
L 488 750 
Q 750 597 1062 519 
Q 1375 441 1716 441 
Q 2309 441 2620 675 
Q 2931 909 2931 1356 
Q 2931 1769 2642 2001 
Q 2353 2234 1838 2234 
L 1294 2234 
L 1294 2753 
L 1863 2753 
Q 2328 2753 2575 2939 
Q 2822 3125 2822 3475 
Q 2822 3834 2567 4026 
Q 2313 4219 1838 4219 
Q 1578 4219 1281 4162 
Q 984 4106 628 3988 
L 628 4550 
Q 988 4650 1302 4700 
Q 1616 4750 1894 4750 
Q 2613 4750 3031 4423 
Q 3450 4097 3450 3541 
Q 3450 3153 3228 2886 
Q 3006 2619 2597 2516 
z
" transform="scale(0.015625)"/>
       </defs>
       <use xlink:href="#DejaVuSans-33" transform="translate(0 0.78125)"/>
       <use xlink:href="#DejaVuSans-Oblique-3c0" transform="translate(63.623047 0.78125)"/>
       <use xlink:href="#DejaVuSans-2f" transform="translate(123.828125 0.78125)"/>
       <use xlink:href="#DejaVuSans-32" transform="translate(153.894531 0.78125)"/>
      </g>
     </g>
    </g>
    <g id="xtick_10">
     <g id="line2d_19">
      <g>
       <use xlink:href="#m9ed940d211" x="254.673273" y="299.32" style="stroke: #000000; stroke-width: 0.8"/>
      </g>
     </g>
     <g id="text_12">
      <!-- 2$\pi$ -->
      <g transform="translate(248.473273 313.918437)scale(0.1 -0.1)">
       <use xlink:href="#DejaVuSans-32" transform="translate(0 0.78125)"/>
       <use xlink:href="#DejaVuSans-Oblique-3c0" transform="translate(63.623047 0.78125)"/>
      </g>
     </g>
    </g>
    <g id="text_13">
     <!-- $x$ -->
     <g transform="translate(146.227261 327.596562)scale(0.1 -0.1)">
      <defs>
       <path id="DejaVuSans-Oblique-78" d="M 3841 3500 
L 2234 1784 
L 3219 0 
L 2559 0 
L 1819 1388 
L 531 0 
L -166 0 
L 1556 1844 
L 641 3500 
L 1300 3500 
L 1972 2234 
L 3144 3500 
L 3841 3500 
z
" transform="scale(0.015625)"/>
      </defs>
      <use xlink:href="#DejaVuSans-Oblique-78" transform="translate(0 0.3125)"/>
     </g>
    </g>
   </g>
   <g id="matplotlib.axis_4">
    <g id="ytick_4">
     <g id="line2d_20">
      <g>
       <use xlink:href="#ma4f8fdc9a5" x="43.78125" y="276.168333" style="stroke: #000000; stroke-width: 0.8"/>
      </g>
     </g>
     <g id="text_14">
      <!-- 0.0 -->
      <g transform="translate(20.878125 279.967552)scale(0.1 -0.1)">
       <use xlink:href="#DejaVuSans-30"/>
       <use xlink:href="#DejaVuSans-2e" x="63.623047"/>
       <use xlink:href="#DejaVuSans-30" x="95.410156"/>
      </g>
     </g>
    </g>
    <g id="ytick_5">
     <g id="line2d_21">
      <g>
       <use xlink:href="#ma4f8fdc9a5" x="43.78125" y="229.865" style="stroke: #000000; stroke-width: 0.8"/>
      </g>
     </g>
     <g id="text_15">
      <!-- 0.5 -->
      <g transform="translate(20.878125 233.664219)scale(0.1 -0.1)">
       <use xlink:href="#DejaVuSans-30"/>
       <use xlink:href="#DejaVuSans-2e" x="63.623047"/>
       <use xlink:href="#DejaVuSans-35" x="95.410156"/>
      </g>
     </g>
    </g>
    <g id="ytick_6">
     <g id="line2d_22">
      <g>
       <use xlink:href="#ma4f8fdc9a5" x="43.78125" y="183.561667" style="stroke: #000000; stroke-width: 0.8"/>
      </g>
     </g>
     <g id="text_16">
      <!-- 1.0 -->
      <g transform="translate(20.878125 187.360885)scale(0.1 -0.1)">
       <use xlink:href="#DejaVuSans-31"/>
       <use xlink:href="#DejaVuSans-2e" x="63.623047"/>
       <use xlink:href="#DejaVuSans-30" x="95.410156"/>
      </g>
     </g>
    </g>
    <g id="text_17">
     <!-- $N=$400 -->
     <g transform="translate(14.798438 249.315)rotate(-90)scale(0.1 -0.1)">
      <defs>
       <path id="DejaVuSans-34" d="M 2419 4116 
L 825 1625 
L 2419 1625 
L 2419 4116 
z
M 2253 4666 
L 3047 4666 
L 3047 1625 
L 3713 1625 
L 3713 1100 
L 3047 1100 
L 3047 0 
L 2419 0 
L 2419 1100 
L 313 1100 
L 313 1709 
L 2253 4666 
z
" transform="scale(0.015625)"/>
      </defs>
      <use xlink:href="#DejaVuSans-Oblique-4e" transform="translate(0 0.78125)"/>
      <use xlink:href="#DejaVuSans-3d" transform="translate(94.287109 0.78125)"/>
      <use xlink:href="#DejaVuSans-34" transform="translate(197.558594 0.78125)"/>
      <use xlink:href="#DejaVuSans-30" transform="translate(261.181641 0.78125)"/>
      <use xlink:href="#DejaVuSans-30" transform="translate(324.804688 0.78125)"/>
     </g>
    </g>
   </g>
   <g id="line2d_23">
    <path d="M 43.78125 276.168333 
L 70.169141 276.075634 
L 96.557031 183.747065 
L 122.944922 276.168333 
L 175.509601 276.168333 
L 175.720704 183.561667 
L 228.285382 183.561667 
L 228.496485 276.168333 
L 254.673273 276.168333 
L 254.673273 276.168333 
" clip-path="url(#p2f13ab32ef)" style="fill: none; stroke: #000000; stroke-width: 1.5; stroke-linecap: square"/>
   </g>
   <g id="line2d_24">
    <path d="M 42.990405 271.593845 
L 43.517635 278.350449 
L 44.044865 277.803694 
L 44.572095 274.346602 
L 45.099325 276.831522 
L 45.626555 274.689931 
L 46.153785 276.531514 
L 46.681015 279.1074 
L 47.735475 270.7036 
L 48.262705 284.679813 
L 48.789936 273.030185 
L 49.844396 275.4715 
L 50.371626 279.769313 
L 50.898856 276.24399 
L 51.426086 274.735128 
L 51.953316 272.102614 
L 52.480546 281.576283 
L 53.007776 278.539386 
L 53.535006 268.765408 
L 54.062236 278.356988 
L 54.589466 278.400075 
L 55.116696 277.975951 
L 55.643926 271.637556 
L 56.171156 277.382697 
L 56.698386 276.56482 
L 57.225616 278.32754 
L 57.752847 272.755026 
L 58.280077 276.320176 
L 58.807307 278.418238 
L 59.334537 276.032987 
L 59.861767 276.5927 
L 60.388997 272.903948 
L 60.916227 278.939674 
L 61.443457 274.074404 
L 61.970687 278.193849 
L 62.497917 276.132303 
L 63.025147 274.695415 
L 63.552377 275.49462 
L 64.079607 280.649585 
L 64.606837 275.022238 
L 65.134067 271.069951 
L 65.661297 279.813636 
L 66.188527 274.938486 
L 66.715757 278.685023 
L 67.242988 272.53372 
L 67.770218 274.199838 
L 68.297448 282.0808 
L 68.824678 279.927162 
L 69.351908 269.356463 
L 69.879138 274.146264 
L 70.406368 281.521663 
L 70.933598 270.107009 
L 71.460828 271.932843 
L 71.988058 266.642405 
L 72.515288 269.725167 
L 73.042518 270.235359 
L 73.569748 260.927803 
L 74.096978 258.67083 
L 74.624208 263.283709 
L 75.151438 262.233467 
L 75.678668 252.496178 
L 76.205898 256.880972 
L 76.733129 251.158728 
L 77.260359 251.201617 
L 77.787589 251.491601 
L 78.314819 246.010096 
L 78.842049 246.196606 
L 79.369279 241.620436 
L 79.896509 244.589242 
L 80.423739 240.022189 
L 80.950969 238.879908 
L 81.478199 232.263962 
L 82.532659 236.774657 
L 83.059889 231.93316 
L 83.587119 226.06366 
L 84.114349 223.121148 
L 84.641579 230.51095 
L 85.168809 226.319881 
L 85.69604 214.629648 
L 86.22327 220.156701 
L 86.7505 217.739519 
L 87.27773 222.793561 
L 87.80496 211.254356 
L 88.33219 210.778623 
L 88.85942 205.177506 
L 89.38665 217.406691 
L 89.91388 204.053948 
L 90.44111 200.797981 
L 90.96834 203.813524 
L 91.49557 204.119306 
L 92.0228 197.844047 
L 92.55003 203.197415 
L 93.07726 190.811864 
L 93.60449 194.574222 
L 94.13172 189.774374 
L 94.65895 192.654589 
L 95.186181 182.455547 
L 95.713411 190.883671 
L 96.240641 180.387261 
L 96.767871 184.950476 
L 97.295101 193.864478 
L 97.822331 186.909957 
L 98.349561 186.667704 
L 98.876791 188.27207 
L 99.404021 198.845665 
L 99.931251 196.952708 
L 100.458481 198.225146 
L 100.985711 192.558036 
L 102.040171 208.434107 
L 102.567401 207.613041 
L 103.094631 200.331402 
L 103.621861 207.874947 
L 104.149091 210.907002 
L 104.676322 218.318975 
L 105.203552 211.104562 
L 105.730782 213.268107 
L 106.258012 218.611956 
L 106.785242 218.492808 
L 107.312472 226.338658 
L 107.839702 220.789285 
L 108.366932 226.781165 
L 108.894162 222.566592 
L 109.421392 232.035194 
L 109.948622 229.167099 
L 110.475852 234.693476 
L 111.003082 238.330848 
L 111.530312 228.595215 
L 112.584772 245.109056 
L 113.112002 245.099576 
L 113.639233 239.268153 
L 114.166463 243.266133 
L 114.693693 244.958378 
L 115.220923 254.22699 
L 115.748153 257.001838 
L 116.275383 249.390629 
L 116.802613 246.549638 
L 117.329843 261.608344 
L 117.857073 262.638917 
L 118.384303 257.835533 
L 118.911533 263.65658 
L 119.438763 257.983286 
L 119.965993 267.869745 
L 120.493223 269.820814 
L 121.020453 273.494413 
L 121.547683 269.708525 
L 122.074913 272.563032 
L 122.602143 276.345739 
L 123.129374 269.252538 
L 123.656604 282.030919 
L 124.183834 278.077436 
L 124.711064 276.150473 
L 125.238294 271.531278 
L 125.765524 272.381065 
L 126.292754 281.661763 
L 126.819984 280.32504 
L 127.347214 277.177418 
L 127.874444 269.195106 
L 128.401674 272.787622 
L 128.928904 279.225502 
L 129.456134 283.037274 
L 130.510594 270.230514 
L 131.037824 273.08038 
L 131.565054 279.30069 
L 132.092285 278.104407 
L 132.619515 276.182922 
L 133.146745 279.775596 
L 133.673975 270.019759 
L 134.201205 275.81959 
L 134.728435 276.982304 
L 135.255665 275.275487 
L 135.782895 281.015311 
L 136.310125 278.033119 
L 136.837355 274.377589 
L 137.364585 265.107821 
L 137.891815 280.38126 
L 138.419045 283.753626 
L 138.946275 276.12828 
L 139.473505 278.674368 
L 140.000735 266.91946 
L 140.527965 272.091701 
L 141.055195 281.101972 
L 141.582426 283.672706 
L 142.109656 275.97316 
L 142.636886 270.500141 
L 143.164116 276.766491 
L 143.691346 272.671244 
L 144.745806 280.514148 
L 145.273036 278.096558 
L 145.800266 276.878098 
L 146.327496 275.025036 
L 146.854726 270.080696 
L 147.381956 271.726813 
L 147.909186 282.053767 
L 148.436416 283.335211 
L 148.963646 280.268605 
L 149.490876 268.852981 
L 150.018106 267.944571 
L 150.545336 275.750816 
L 151.072567 279.536005 
L 151.599797 284.824098 
L 152.127027 276.274362 
L 152.654257 274.937068 
L 153.181487 271.152794 
L 153.708717 271.485496 
L 154.235947 279.796379 
L 154.763177 272.29828 
L 155.290407 282.251943 
L 155.817637 285.11867 
L 156.344867 274.524681 
L 157.399327 266.281867 
L 157.926557 275.038927 
L 158.453787 279.237665 
L 158.981017 287.376135 
L 159.508247 285.075914 
L 160.035478 267.324638 
L 161.089938 273.288891 
L 161.617168 271.261958 
L 162.144398 276.231561 
L 162.671628 282.707737 
L 163.198858 283.37725 
L 163.726088 280.685363 
L 164.253318 279.688153 
L 164.780548 268.245619 
L 165.307778 260.726238 
L 165.835008 268.213598 
L 166.362238 281.733935 
L 166.889468 286.461279 
L 167.416698 285.403609 
L 167.943928 285.846767 
L 168.471158 274.125945 
L 168.998388 271.067793 
L 169.525619 269.197486 
L 170.052849 260.80142 
L 171.107309 270.600053 
L 171.634539 286.900357 
L 172.161769 298.422738 
L 172.688999 293.580116 
L 173.216229 290.265349 
L 173.743459 274.297227 
L 174.270689 264.201643 
L 174.797919 250.070562 
L 175.325149 227.984824 
L 175.852379 216.425645 
L 176.379609 194.743508 
L 176.906839 187.955199 
L 177.434069 193.234951 
L 177.961299 185.763224 
L 178.48853 181.771523 
L 179.01576 179.043144 
L 179.54299 181.128151 
L 180.07022 182.238276 
L 180.59745 184.161775 
L 181.12468 190.307623 
L 181.65191 181.348301 
L 182.17914 175.784091 
L 182.70637 184.299636 
L 183.2336 188.193404 
L 183.76083 184.393115 
L 184.28806 184.184916 
L 184.81529 184.166426 
L 185.34252 177.031837 
L 185.86975 181.917643 
L 186.39698 190.032325 
L 186.92421 186.922742 
L 187.978671 178.191473 
L 188.505901 183.166612 
L 189.560361 184.529267 
L 190.087591 191.225738 
L 190.614821 180.538831 
L 191.142051 177.622736 
L 191.669281 182.830332 
L 192.196511 182.659219 
L 192.723741 190.707935 
L 193.778201 180.244811 
L 194.305431 181.857425 
L 194.832661 177.94626 
L 195.359891 185.822664 
L 195.887121 188.564802 
L 196.414351 186.350906 
L 196.941581 185.103631 
L 197.468812 174.810964 
L 197.996042 180.447929 
L 198.523272 187.753082 
L 199.050502 184.222495 
L 199.577732 188.408042 
L 200.104962 186.521202 
L 200.632192 178.3557 
L 201.159422 176.027652 
L 202.213882 190.550887 
L 202.741112 186.707783 
L 203.268342 184.463956 
L 203.795572 184.512643 
L 204.322802 177.915719 
L 204.850032 175.625032 
L 205.904492 193.144326 
L 206.431723 186.344278 
L 206.958953 182.868839 
L 207.486183 183.769821 
L 208.013413 175.529351 
L 208.540643 177.787749 
L 209.067873 186.069324 
L 209.595103 190.31007 
L 210.122333 191.271331 
L 210.649563 182.204688 
L 211.176793 180.846148 
L 211.704023 178.868968 
L 212.231253 173.490654 
L 212.758483 185.667542 
L 213.285713 190.466212 
L 213.812943 189.578561 
L 214.340173 191.46468 
L 214.867403 179.333491 
L 215.394633 176.088219 
L 215.921864 178.030344 
L 216.449094 175.642791 
L 216.976324 185.932186 
L 217.503554 192.215419 
L 218.030784 193.41994 
L 218.558014 191.095735 
L 219.085244 179.11526 
L 219.612474 177.391493 
L 220.139704 174.980219 
L 220.666934 169.493821 
L 221.721394 193.516559 
L 222.248624 194.55419 
L 222.775854 194.819811 
L 223.303084 194.310527 
L 223.830314 187.292832 
L 224.357544 171.742026 
L 224.884774 164.439997 
L 225.412005 168.206525 
L 225.939235 170.627366 
L 226.466465 177.337382 
L 226.993695 194.989612 
L 227.520925 217.696231 
L 228.575385 242.168782 
L 229.102615 261.781797 
L 229.629845 269.604938 
L 230.157075 270.092554 
L 230.684305 276.963598 
L 231.211535 277.28626 
L 231.738765 278.238015 
L 232.265995 278.176779 
L 232.793225 273.75964 
L 233.320455 279.154711 
L 233.847685 277.298169 
L 234.374916 273.206057 
L 234.902146 278.53944 
L 235.429376 274.854283 
L 235.956606 275.45799 
L 236.483836 280.068289 
L 237.011066 271.919995 
L 238.065526 280.100199 
L 238.592756 274.394873 
L 239.119986 274.863762 
L 239.647216 276.768116 
L 240.174446 276.561072 
L 240.701676 278.609124 
L 241.228906 271.246517 
L 241.756136 277.298352 
L 242.283366 280.642567 
L 242.810596 273.70298 
L 243.337826 271.652903 
L 243.865057 281.271569 
L 244.392287 276.56342 
L 244.919517 275.140703 
L 245.446747 272.048689 
L 245.973977 281.276819 
L 246.501207 275.865207 
L 247.028437 275.119149 
L 247.555667 272.599816 
L 248.082897 281.680312 
L 248.610127 274.446493 
L 249.137357 276.43918 
L 249.664587 271.836113 
L 250.191817 282.815454 
L 250.719047 272.547316 
L 251.246277 276.55258 
L 251.773507 275.514809 
L 252.300737 278.350187 
L 252.827968 273.41424 
L 253.355198 279.834712 
L 253.882428 271.593845 
L 254.409658 278.350449 
L 254.936888 277.803694 
L 255.464118 274.346602 
L 255.464118 274.346602 
" clip-path="url(#p2f13ab32ef)" style="fill: none; stroke-dasharray: 5.55,2.4; stroke-dashoffset: 0; stroke: #0000ff; stroke-width: 1.5"/>
   </g>
   <g id="line2d_25">
    <path d="M 41.935945 276.168333 
L 67.770218 276.114683 
L 68.824678 275.947213 
L 69.351908 275.751585 
L 69.879138 275.393719 
L 70.406368 274.738877 
L 70.933598 273.653138 
L 71.988058 270.305112 
L 75.151438 258.519156 
L 82.005429 234.494996 
L 93.60449 193.423867 
L 94.65895 189.274225 
L 95.186181 187.581133 
L 95.713411 186.383615 
L 96.240641 185.830549 
L 96.767871 185.982629 
L 97.295101 186.758977 
L 97.822331 188.033604 
L 98.876791 191.539825 
L 102.040171 203.036137 
L 111.530312 236.346188 
L 120.493223 268.251539 
L 121.547683 272.184368 
L 122.074913 273.713126 
L 122.602143 274.791284 
L 123.129374 275.429013 
L 123.656604 275.771404 
L 124.711064 276.058118 
L 126.292754 276.158827 
L 134.728435 276.168318 
L 170.052849 276.119532 
L 171.107309 275.927459 
L 171.634539 275.67509 
L 172.161769 275.184348 
L 172.688999 274.242315 
L 173.216229 272.438835 
L 173.743459 268.928076 
L 174.270689 262.17202 
L 174.797919 251.263765 
L 176.906839 197.645341 
L 177.434069 190.833933 
L 177.961299 187.284682 
L 178.48853 185.476493 
L 179.01576 184.53872 
L 179.54299 184.053242 
L 180.59745 183.67867 
L 182.17914 183.569045 
L 191.142051 183.561661 
L 222.775854 183.610468 
L 223.830314 183.802541 
L 224.357544 184.05491 
L 224.884774 184.545652 
L 225.412005 185.487685 
L 225.939235 187.291165 
L 226.466465 190.801924 
L 226.993695 197.55798 
L 227.520925 208.466235 
L 229.629845 262.084659 
L 230.157075 268.896067 
L 230.684305 272.445318 
L 231.211535 274.253507 
L 231.738765 275.19128 
L 232.265995 275.676758 
L 233.320455 276.05133 
L 234.902146 276.160955 
L 243.865057 276.168339 
L 256.518578 276.168333 
L 256.518578 276.168333 
" clip-path="url(#p2f13ab32ef)" style="fill: none; stroke-dasharray: 5.55,2.4; stroke-dashoffset: 0; stroke: #ff0000; stroke-width: 1.5"/>
   </g>
   <g id="patch_9">
    <path d="M 43.78125 299.32 
L 43.78125 160.41 
" style="fill: none; stroke: #000000; stroke-width: 0.8; stroke-linejoin: miter; stroke-linecap: square"/>
   </g>
   <g id="patch_10">
    <path d="M 254.673273 299.32 
L 254.673273 160.41 
" style="fill: none; stroke: #000000; stroke-width: 0.8; stroke-linejoin: miter; stroke-linecap: square"/>
   </g>
   <g id="patch_11">
    <path d="M 43.78125 299.32 
L 254.673273 299.32 
" style="fill: none; stroke: #000000; stroke-width: 0.8; stroke-linejoin: miter; stroke-linecap: square"/>
   </g>
   <g id="patch_12">
    <path d="M 43.78125 160.41 
L 254.673273 160.41 
" style="fill: none; stroke: #000000; stroke-width: 0.8; stroke-linejoin: miter; stroke-linecap: square"/>
   </g>
   <g id="legend_2">
    <g id="patch_13">
     <path d="M 50.78125 212.444375 
L 144.840625 212.444375 
Q 146.840625 212.444375 146.840625 210.444375 
L 146.840625 167.41 
Q 146.840625 165.41 144.840625 165.41 
L 50.78125 165.41 
Q 48.78125 165.41 48.78125 167.41 
L 48.78125 210.444375 
Q 48.78125 212.444375 50.78125 212.444375 
z
" style="fill: #ffffff; opacity: 0.8; stroke: #cccccc; stroke-linejoin: miter"/>
    </g>
    <g id="line2d_26">
     <path d="M 52.78125 173.508437 
L 62.78125 173.508437 
L 72.78125 173.508437 
" style="fill: none; stroke: #000000; stroke-width: 1.5; stroke-linecap: square"/>
    </g>
    <g id="text_18">
     <!-- Exact -->
     <g transform="translate(80.78125 177.008437)scale(0.1 -0.1)">
      <use xlink:href="#DejaVuSans-45"/>
      <use xlink:href="#DejaVuSans-78" x="63.183594"/>
      <use xlink:href="#DejaVuSans-61" x="122.363281"/>
      <use xlink:href="#DejaVuSans-63" x="183.642578"/>
      <use xlink:href="#DejaVuSans-74" x="238.623047"/>
     </g>
    </g>
    <g id="line2d_27">
     <path d="M 52.78125 188.186562 
L 62.78125 188.186562 
L 72.78125 188.186562 
" style="fill: none; stroke-dasharray: 5.55,2.4; stroke-dashoffset: 0; stroke: #0000ff; stroke-width: 1.5"/>
    </g>
    <g id="text_19">
     <!-- Fourth order -->
     <g transform="translate(80.78125 191.686562)scale(0.1 -0.1)">
      <use xlink:href="#DejaVuSans-46"/>
      <use xlink:href="#DejaVuSans-6f" x="53.894531"/>
      <use xlink:href="#DejaVuSans-75" x="115.076172"/>
      <use xlink:href="#DejaVuSans-72" x="178.455078"/>
      <use xlink:href="#DejaVuSans-74" x="219.568359"/>
      <use xlink:href="#DejaVuSans-68" x="258.777344"/>
      <use xlink:href="#DejaVuSans-20" x="322.15625"/>
      <use xlink:href="#DejaVuSans-6f" x="353.943359"/>
      <use xlink:href="#DejaVuSans-72" x="415.125"/>
      <use xlink:href="#DejaVuSans-64" x="454.488281"/>
      <use xlink:href="#DejaVuSans-65" x="517.964844"/>
      <use xlink:href="#DejaVuSans-72" x="579.488281"/>
     </g>
    </g>
    <g id="line2d_28">
     <path d="M 52.78125 202.864687 
L 62.78125 202.864687 
L 72.78125 202.864687 
" style="fill: none; stroke-dasharray: 5.55,2.4; stroke-dashoffset: 0; stroke: #ff0000; stroke-width: 1.5"/>
    </g>
    <g id="text_20">
     <!-- WENO -->
     <g transform="translate(80.78125 206.364687)scale(0.1 -0.1)">
      <use xlink:href="#DejaVuSans-57"/>
      <use xlink:href="#DejaVuSans-45" x="98.876953"/>
      <use xlink:href="#DejaVuSans-4e" x="162.060547"/>
      <use xlink:href="#DejaVuSans-4f" x="236.865234"/>
     </g>
    </g>
   </g>
  </g>
 </g>
 <defs>
  <clipPath id="p1043b551db">
   <rect x="43.78125" y="7.2" width="210.892023" height="138.91"/>
  </clipPath>
  <clipPath id="p2f13ab32ef">
   <rect x="43.78125" y="160.41" width="210.892023" height="138.91"/>
  </clipPath>
 </defs>
</svg>
