<?xml version="1.0" encoding="utf-8" standalone="no"?>
<!DOCTYPE svg PUBLIC "-//W3C//DTD SVG 1.1//EN"
  "http://www.w3.org/Graphics/SVG/1.1/DTD/svg11.dtd">
<svg xmlns:xlink="http://www.w3.org/1999/xlink" width="265.010673pt" height="337.59625pt" viewBox="0 0 265.010673 337.59625" xmlns="http://www.w3.org/2000/svg" version="1.1">
 <metadata>
  <rdf:RDF xmlns:dc="http://purl.org/dc/elements/1.1/" xmlns:cc="http://creativecommons.org/ns#" xmlns:rdf="http://www.w3.org/1999/02/22-rdf-syntax-ns#">
   <cc:Work>
    <dc:type rdf:resource="http://purl.org/dc/dcmitype/StillImage"/>
    <dc:date>2022-08-28T18:23:40.449618</dc:date>
    <dc:format>image/svg+xml</dc:format>
    <dc:creator>
     <cc:Agent>
      <dc:title>Matplotlib v3.5.2, https://matplotlib.org/</dc:title>
     </cc:Agent>
    </dc:creator>
   </cc:Work>
  </rdf:RDF>
 </metadata>
 <defs>
  <style type="text/css">*{stroke-linejoin: round; stroke-linecap: butt}</style>
 </defs>
 <g id="figure_1">
  <g id="patch_1">
   <path d="M 0 337.59625 
L 265.010673 337.59625 
L 265.010673 0 
L 0 0 
z
" style="fill: #ffffff"/>
  </g>
  <g id="axes_1">
   <g id="patch_2">
    <path d="M 56.6 146.47 
L 249.859111 146.47 
L 249.859111 7.2 
L 56.6 7.2 
z
" style="fill: #ffffff"/>
   </g>
   <g id="matplotlib.axis_1">
    <g id="xtick_1">
     <g id="line2d_1">
      <defs>
       <path id="m82a7402f6f" d="M 0 0 
L 0 3.5 
" style="stroke: #000000; stroke-width: 0.8"/>
      </defs>
      <g>
       <use xlink:href="#m82a7402f6f" x="56.6" y="146.47" style="stroke: #000000; stroke-width: 0.8"/>
      </g>
     </g>
    </g>
    <g id="xtick_2">
     <g id="line2d_2">
      <g>
       <use xlink:href="#m82a7402f6f" x="95.251822" y="146.47" style="stroke: #000000; stroke-width: 0.8"/>
      </g>
     </g>
    </g>
    <g id="xtick_3">
     <g id="line2d_3">
      <g>
       <use xlink:href="#m82a7402f6f" x="133.903644" y="146.47" style="stroke: #000000; stroke-width: 0.8"/>
      </g>
     </g>
    </g>
    <g id="xtick_4">
     <g id="line2d_4">
      <g>
       <use xlink:href="#m82a7402f6f" x="172.555466" y="146.47" style="stroke: #000000; stroke-width: 0.8"/>
      </g>
     </g>
    </g>
    <g id="xtick_5">
     <g id="line2d_5">
      <g>
       <use xlink:href="#m82a7402f6f" x="211.207289" y="146.47" style="stroke: #000000; stroke-width: 0.8"/>
      </g>
     </g>
    </g>
    <g id="xtick_6">
     <g id="line2d_6">
      <g>
       <use xlink:href="#m82a7402f6f" x="249.859111" y="146.47" style="stroke: #000000; stroke-width: 0.8"/>
      </g>
     </g>
    </g>
   </g>
   <g id="matplotlib.axis_2">
    <g id="ytick_1">
     <g id="line2d_7">
      <defs>
       <path id="m305b6c264e" d="M 0 0 
L -3.5 0 
" style="stroke: #000000; stroke-width: 0.8"/>
      </defs>
      <g>
       <use xlink:href="#m305b6c264e" x="56.6" y="126.563808" style="stroke: #000000; stroke-width: 0.8"/>
      </g>
     </g>
     <g id="text_1">
      <!-- $\mathdefault{10^{-9}}$ -->
      <g transform="translate(26.1 130.363027)scale(0.1 -0.1)">
       <defs>
        <path id="DejaVuSans-31" d="M 794 531 
L 1825 531 
L 1825 4091 
L 703 3866 
L 703 4441 
L 1819 4666 
L 2450 4666 
L 2450 531 
L 3481 531 
L 3481 0 
L 794 0 
L 794 531 
z
" transform="scale(0.015625)"/>
        <path id="DejaVuSans-30" d="M 2034 4250 
Q 1547 4250 1301 3770 
Q 1056 3291 1056 2328 
Q 1056 1369 1301 889 
Q 1547 409 2034 409 
Q 2525 409 2770 889 
Q 3016 1369 3016 2328 
Q 3016 3291 2770 3770 
Q 2525 4250 2034 4250 
z
M 2034 4750 
Q 2819 4750 3233 4129 
Q 3647 3509 3647 2328 
Q 3647 1150 3233 529 
Q 2819 -91 2034 -91 
Q 1250 -91 836 529 
Q 422 1150 422 2328 
Q 422 3509 836 4129 
Q 1250 4750 2034 4750 
z
" transform="scale(0.015625)"/>
        <path id="DejaVuSans-2212" d="M 678 2272 
L 4684 2272 
L 4684 1741 
L 678 1741 
L 678 2272 
z
" transform="scale(0.015625)"/>
        <path id="DejaVuSans-39" d="M 703 97 
L 703 672 
Q 941 559 1184 500 
Q 1428 441 1663 441 
Q 2288 441 2617 861 
Q 2947 1281 2994 2138 
Q 2813 1869 2534 1725 
Q 2256 1581 1919 1581 
Q 1219 1581 811 2004 
Q 403 2428 403 3163 
Q 403 3881 828 4315 
Q 1253 4750 1959 4750 
Q 2769 4750 3195 4129 
Q 3622 3509 3622 2328 
Q 3622 1225 3098 567 
Q 2575 -91 1691 -91 
Q 1453 -91 1209 -44 
Q 966 3 703 97 
z
M 1959 2075 
Q 2384 2075 2632 2365 
Q 2881 2656 2881 3163 
Q 2881 3666 2632 3958 
Q 2384 4250 1959 4250 
Q 1534 4250 1286 3958 
Q 1038 3666 1038 3163 
Q 1038 2656 1286 2365 
Q 1534 2075 1959 2075 
z
" transform="scale(0.015625)"/>
       </defs>
       <use xlink:href="#DejaVuSans-31" transform="translate(0 0.765625)"/>
       <use xlink:href="#DejaVuSans-30" transform="translate(63.623047 0.765625)"/>
       <use xlink:href="#DejaVuSans-2212" transform="translate(128.203125 39.046875)scale(0.7)"/>
       <use xlink:href="#DejaVuSans-39" transform="translate(186.855469 39.046875)scale(0.7)"/>
      </g>
     </g>
    </g>
    <g id="ytick_2">
     <g id="line2d_8">
      <g>
       <use xlink:href="#m305b6c264e" x="56.6" y="90.939364" style="stroke: #000000; stroke-width: 0.8"/>
      </g>
     </g>
     <g id="text_2">
      <!-- $\mathdefault{10^{-8}}$ -->
      <g transform="translate(26.1 94.738582)scale(0.1 -0.1)">
       <defs>
        <path id="DejaVuSans-38" d="M 2034 2216 
Q 1584 2216 1326 1975 
Q 1069 1734 1069 1313 
Q 1069 891 1326 650 
Q 1584 409 2034 409 
Q 2484 409 2743 651 
Q 3003 894 3003 1313 
Q 3003 1734 2745 1975 
Q 2488 2216 2034 2216 
z
M 1403 2484 
Q 997 2584 770 2862 
Q 544 3141 544 3541 
Q 544 4100 942 4425 
Q 1341 4750 2034 4750 
Q 2731 4750 3128 4425 
Q 3525 4100 3525 3541 
Q 3525 3141 3298 2862 
Q 3072 2584 2669 2484 
Q 3125 2378 3379 2068 
Q 3634 1759 3634 1313 
Q 3634 634 3220 271 
Q 2806 -91 2034 -91 
Q 1263 -91 848 271 
Q 434 634 434 1313 
Q 434 1759 690 2068 
Q 947 2378 1403 2484 
z
M 1172 3481 
Q 1172 3119 1398 2916 
Q 1625 2713 2034 2713 
Q 2441 2713 2670 2916 
Q 2900 3119 2900 3481 
Q 2900 3844 2670 4047 
Q 2441 4250 2034 4250 
Q 1625 4250 1398 4047 
Q 1172 3844 1172 3481 
z
" transform="scale(0.015625)"/>
       </defs>
       <use xlink:href="#DejaVuSans-31" transform="translate(0 0.765625)"/>
       <use xlink:href="#DejaVuSans-30" transform="translate(63.623047 0.765625)"/>
       <use xlink:href="#DejaVuSans-2212" transform="translate(128.203125 39.046875)scale(0.7)"/>
       <use xlink:href="#DejaVuSans-38" transform="translate(186.855469 39.046875)scale(0.7)"/>
      </g>
     </g>
    </g>
    <g id="ytick_3">
     <g id="line2d_9">
      <g>
       <use xlink:href="#m305b6c264e" x="56.6" y="55.314919" style="stroke: #000000; stroke-width: 0.8"/>
      </g>
     </g>
     <g id="text_3">
      <!-- $\mathdefault{10^{-7}}$ -->
      <g transform="translate(26.1 59.114138)scale(0.1 -0.1)">
       <defs>
        <path id="DejaVuSans-37" d="M 525 4666 
L 3525 4666 
L 3525 4397 
L 1831 0 
L 1172 0 
L 2766 4134 
L 525 4134 
L 525 4666 
z
" transform="scale(0.015625)"/>
       </defs>
       <use xlink:href="#DejaVuSans-31" transform="translate(0 0.684375)"/>
       <use xlink:href="#DejaVuSans-30" transform="translate(63.623047 0.684375)"/>
       <use xlink:href="#DejaVuSans-2212" transform="translate(128.203125 38.965625)scale(0.7)"/>
       <use xlink:href="#DejaVuSans-37" transform="translate(186.855469 38.965625)scale(0.7)"/>
      </g>
     </g>
    </g>
    <g id="ytick_4">
     <g id="line2d_10">
      <g>
       <use xlink:href="#m305b6c264e" x="56.6" y="19.690475" style="stroke: #000000; stroke-width: 0.8"/>
      </g>
     </g>
     <g id="text_4">
      <!-- $\mathdefault{10^{-6}}$ -->
      <g transform="translate(26.1 23.489694)scale(0.1 -0.1)">
       <defs>
        <path id="DejaVuSans-36" d="M 2113 2584 
Q 1688 2584 1439 2293 
Q 1191 2003 1191 1497 
Q 1191 994 1439 701 
Q 1688 409 2113 409 
Q 2538 409 2786 701 
Q 3034 994 3034 1497 
Q 3034 2003 2786 2293 
Q 2538 2584 2113 2584 
z
M 3366 4563 
L 3366 3988 
Q 3128 4100 2886 4159 
Q 2644 4219 2406 4219 
Q 1781 4219 1451 3797 
Q 1122 3375 1075 2522 
Q 1259 2794 1537 2939 
Q 1816 3084 2150 3084 
Q 2853 3084 3261 2657 
Q 3669 2231 3669 1497 
Q 3669 778 3244 343 
Q 2819 -91 2113 -91 
Q 1303 -91 875 529 
Q 447 1150 447 2328 
Q 447 3434 972 4092 
Q 1497 4750 2381 4750 
Q 2619 4750 2861 4703 
Q 3103 4656 3366 4563 
z
" transform="scale(0.015625)"/>
       </defs>
       <use xlink:href="#DejaVuSans-31" transform="translate(0 0.765625)"/>
       <use xlink:href="#DejaVuSans-30" transform="translate(63.623047 0.765625)"/>
       <use xlink:href="#DejaVuSans-2212" transform="translate(128.203125 39.046875)scale(0.7)"/>
       <use xlink:href="#DejaVuSans-36" transform="translate(186.855469 39.046875)scale(0.7)"/>
      </g>
     </g>
    </g>
    <g id="ytick_5">
     <g id="line2d_11">
      <defs>
       <path id="m5b5e7598d5" d="M 0 0 
L -2 0 
" style="stroke: #000000; stroke-width: 0.6"/>
      </defs>
      <g>
       <use xlink:href="#m5b5e7598d5" x="56.6" y="145.191073" style="stroke: #000000; stroke-width: 0.6"/>
      </g>
     </g>
    </g>
    <g id="ytick_6">
     <g id="line2d_12">
      <g>
       <use xlink:href="#m5b5e7598d5" x="56.6" y="140.7402" style="stroke: #000000; stroke-width: 0.6"/>
      </g>
     </g>
    </g>
    <g id="ytick_7">
     <g id="line2d_13">
      <g>
       <use xlink:href="#m5b5e7598d5" x="56.6" y="137.287834" style="stroke: #000000; stroke-width: 0.6"/>
      </g>
     </g>
    </g>
    <g id="ytick_8">
     <g id="line2d_14">
      <g>
       <use xlink:href="#m5b5e7598d5" x="56.6" y="134.467047" style="stroke: #000000; stroke-width: 0.6"/>
      </g>
     </g>
    </g>
    <g id="ytick_9">
     <g id="line2d_15">
      <g>
       <use xlink:href="#m5b5e7598d5" x="56.6" y="132.082104" style="stroke: #000000; stroke-width: 0.6"/>
      </g>
     </g>
    </g>
    <g id="ytick_10">
     <g id="line2d_16">
      <g>
       <use xlink:href="#m5b5e7598d5" x="56.6" y="130.016173" style="stroke: #000000; stroke-width: 0.6"/>
      </g>
     </g>
    </g>
    <g id="ytick_11">
     <g id="line2d_17">
      <g>
       <use xlink:href="#m5b5e7598d5" x="56.6" y="128.193893" style="stroke: #000000; stroke-width: 0.6"/>
      </g>
     </g>
    </g>
    <g id="ytick_12">
     <g id="line2d_18">
      <g>
       <use xlink:href="#m5b5e7598d5" x="56.6" y="115.839782" style="stroke: #000000; stroke-width: 0.6"/>
      </g>
     </g>
    </g>
    <g id="ytick_13">
     <g id="line2d_19">
      <g>
       <use xlink:href="#m5b5e7598d5" x="56.6" y="109.566628" style="stroke: #000000; stroke-width: 0.6"/>
      </g>
     </g>
    </g>
    <g id="ytick_14">
     <g id="line2d_20">
      <g>
       <use xlink:href="#m5b5e7598d5" x="56.6" y="105.115755" style="stroke: #000000; stroke-width: 0.6"/>
      </g>
     </g>
    </g>
    <g id="ytick_15">
     <g id="line2d_21">
      <g>
       <use xlink:href="#m5b5e7598d5" x="56.6" y="101.66339" style="stroke: #000000; stroke-width: 0.6"/>
      </g>
     </g>
    </g>
    <g id="ytick_16">
     <g id="line2d_22">
      <g>
       <use xlink:href="#m5b5e7598d5" x="56.6" y="98.842602" style="stroke: #000000; stroke-width: 0.6"/>
      </g>
     </g>
    </g>
    <g id="ytick_17">
     <g id="line2d_23">
      <g>
       <use xlink:href="#m5b5e7598d5" x="56.6" y="96.45766" style="stroke: #000000; stroke-width: 0.6"/>
      </g>
     </g>
    </g>
    <g id="ytick_18">
     <g id="line2d_24">
      <g>
       <use xlink:href="#m5b5e7598d5" x="56.6" y="94.391729" style="stroke: #000000; stroke-width: 0.6"/>
      </g>
     </g>
    </g>
    <g id="ytick_19">
     <g id="line2d_25">
      <g>
       <use xlink:href="#m5b5e7598d5" x="56.6" y="92.569449" style="stroke: #000000; stroke-width: 0.6"/>
      </g>
     </g>
    </g>
    <g id="ytick_20">
     <g id="line2d_26">
      <g>
       <use xlink:href="#m5b5e7598d5" x="56.6" y="80.215337" style="stroke: #000000; stroke-width: 0.6"/>
      </g>
     </g>
    </g>
    <g id="ytick_21">
     <g id="line2d_27">
      <g>
       <use xlink:href="#m5b5e7598d5" x="56.6" y="73.942184" style="stroke: #000000; stroke-width: 0.6"/>
      </g>
     </g>
    </g>
    <g id="ytick_22">
     <g id="line2d_28">
      <g>
       <use xlink:href="#m5b5e7598d5" x="56.6" y="69.491311" style="stroke: #000000; stroke-width: 0.6"/>
      </g>
     </g>
    </g>
    <g id="ytick_23">
     <g id="line2d_29">
      <g>
       <use xlink:href="#m5b5e7598d5" x="56.6" y="66.038946" style="stroke: #000000; stroke-width: 0.6"/>
      </g>
     </g>
    </g>
    <g id="ytick_24">
     <g id="line2d_30">
      <g>
       <use xlink:href="#m5b5e7598d5" x="56.6" y="63.218158" style="stroke: #000000; stroke-width: 0.6"/>
      </g>
     </g>
    </g>
    <g id="ytick_25">
     <g id="line2d_31">
      <g>
       <use xlink:href="#m5b5e7598d5" x="56.6" y="60.833216" style="stroke: #000000; stroke-width: 0.6"/>
      </g>
     </g>
    </g>
    <g id="ytick_26">
     <g id="line2d_32">
      <g>
       <use xlink:href="#m5b5e7598d5" x="56.6" y="58.767285" style="stroke: #000000; stroke-width: 0.6"/>
      </g>
     </g>
    </g>
    <g id="ytick_27">
     <g id="line2d_33">
      <g>
       <use xlink:href="#m5b5e7598d5" x="56.6" y="56.945005" style="stroke: #000000; stroke-width: 0.6"/>
      </g>
     </g>
    </g>
    <g id="ytick_28">
     <g id="line2d_34">
      <g>
       <use xlink:href="#m5b5e7598d5" x="56.6" y="44.590893" style="stroke: #000000; stroke-width: 0.6"/>
      </g>
     </g>
    </g>
    <g id="ytick_29">
     <g id="line2d_35">
      <g>
       <use xlink:href="#m5b5e7598d5" x="56.6" y="38.31774" style="stroke: #000000; stroke-width: 0.6"/>
      </g>
     </g>
    </g>
    <g id="ytick_30">
     <g id="line2d_36">
      <g>
       <use xlink:href="#m5b5e7598d5" x="56.6" y="33.866867" style="stroke: #000000; stroke-width: 0.6"/>
      </g>
     </g>
    </g>
    <g id="ytick_31">
     <g id="line2d_37">
      <g>
       <use xlink:href="#m5b5e7598d5" x="56.6" y="30.414501" style="stroke: #000000; stroke-width: 0.6"/>
      </g>
     </g>
    </g>
    <g id="ytick_32">
     <g id="line2d_38">
      <g>
       <use xlink:href="#m5b5e7598d5" x="56.6" y="27.593713" style="stroke: #000000; stroke-width: 0.6"/>
      </g>
     </g>
    </g>
    <g id="ytick_33">
     <g id="line2d_39">
      <g>
       <use xlink:href="#m5b5e7598d5" x="56.6" y="25.208771" style="stroke: #000000; stroke-width: 0.6"/>
      </g>
     </g>
    </g>
    <g id="ytick_34">
     <g id="line2d_40">
      <g>
       <use xlink:href="#m5b5e7598d5" x="56.6" y="23.14284" style="stroke: #000000; stroke-width: 0.6"/>
      </g>
     </g>
    </g>
    <g id="ytick_35">
     <g id="line2d_41">
      <g>
       <use xlink:href="#m5b5e7598d5" x="56.6" y="21.32056" style="stroke: #000000; stroke-width: 0.6"/>
      </g>
     </g>
    </g>
    <g id="ytick_36">
     <g id="line2d_42">
      <g>
       <use xlink:href="#m5b5e7598d5" x="56.6" y="8.966449" style="stroke: #000000; stroke-width: 0.6"/>
      </g>
     </g>
    </g>
    <g id="text_5">
     <!-- Error $[\tau=1]$ -->
     <g transform="translate(20.020313 107.085)rotate(-90)scale(0.1 -0.1)">
      <defs>
       <path id="DejaVuSans-45" d="M 628 4666 
L 3578 4666 
L 3578 4134 
L 1259 4134 
L 1259 2753 
L 3481 2753 
L 3481 2222 
L 1259 2222 
L 1259 531 
L 3634 531 
L 3634 0 
L 628 0 
L 628 4666 
z
" transform="scale(0.015625)"/>
       <path id="DejaVuSans-72" d="M 2631 2963 
Q 2534 3019 2420 3045 
Q 2306 3072 2169 3072 
Q 1681 3072 1420 2755 
Q 1159 2438 1159 1844 
L 1159 0 
L 581 0 
L 581 3500 
L 1159 3500 
L 1159 2956 
Q 1341 3275 1631 3429 
Q 1922 3584 2338 3584 
Q 2397 3584 2469 3576 
Q 2541 3569 2628 3553 
L 2631 2963 
z
" transform="scale(0.015625)"/>
       <path id="DejaVuSans-6f" d="M 1959 3097 
Q 1497 3097 1228 2736 
Q 959 2375 959 1747 
Q 959 1119 1226 758 
Q 1494 397 1959 397 
Q 2419 397 2687 759 
Q 2956 1122 2956 1747 
Q 2956 2369 2687 2733 
Q 2419 3097 1959 3097 
z
M 1959 3584 
Q 2709 3584 3137 3096 
Q 3566 2609 3566 1747 
Q 3566 888 3137 398 
Q 2709 -91 1959 -91 
Q 1206 -91 779 398 
Q 353 888 353 1747 
Q 353 2609 779 3096 
Q 1206 3584 1959 3584 
z
" transform="scale(0.015625)"/>
       <path id="DejaVuSans-20" transform="scale(0.015625)"/>
       <path id="DejaVuSans-5b" d="M 550 4863 
L 1875 4863 
L 1875 4416 
L 1125 4416 
L 1125 -397 
L 1875 -397 
L 1875 -844 
L 550 -844 
L 550 4863 
z
" transform="scale(0.015625)"/>
       <path id="DejaVuSans-Oblique-3c4" d="M 2103 638 
Q 2188 488 2525 488 
L 2800 488 
L 2706 0 
L 2363 0 
Q 1800 0 1600 300 
Q 1403 606 1534 1269 
L 1856 2925 
L 541 2925 
L 653 3500 
L 3881 3500 
L 3769 2925 
L 2444 2925 
L 2113 1234 
Q 2025 781 2103 638 
z
" transform="scale(0.015625)"/>
       <path id="DejaVuSans-3d" d="M 678 2906 
L 4684 2906 
L 4684 2381 
L 678 2381 
L 678 2906 
z
M 678 1631 
L 4684 1631 
L 4684 1100 
L 678 1100 
L 678 1631 
z
" transform="scale(0.015625)"/>
       <path id="DejaVuSans-5d" d="M 1947 4863 
L 1947 -844 
L 622 -844 
L 622 -397 
L 1369 -397 
L 1369 4416 
L 622 4416 
L 622 4863 
L 1947 4863 
z
" transform="scale(0.015625)"/>
      </defs>
      <use xlink:href="#DejaVuSans-45" transform="translate(0 0.015625)"/>
      <use xlink:href="#DejaVuSans-72" transform="translate(63.183594 0.015625)"/>
      <use xlink:href="#DejaVuSans-72" transform="translate(104.296875 0.015625)"/>
      <use xlink:href="#DejaVuSans-6f" transform="translate(145.410156 0.015625)"/>
      <use xlink:href="#DejaVuSans-72" transform="translate(206.591797 0.015625)"/>
      <use xlink:href="#DejaVuSans-20" transform="translate(247.705078 0.015625)"/>
      <use xlink:href="#DejaVuSans-5b" transform="translate(279.492188 0.015625)"/>
      <use xlink:href="#DejaVuSans-Oblique-3c4" transform="translate(318.505859 0.015625)"/>
      <use xlink:href="#DejaVuSans-3d" transform="translate(398.193359 0.015625)"/>
      <use xlink:href="#DejaVuSans-31" transform="translate(501.464844 0.015625)"/>
      <use xlink:href="#DejaVuSans-5d" transform="translate(565.087891 0.015625)"/>
     </g>
    </g>
   </g>
   <g id="line2d_43">
    <path d="M 58.521723 338.59625 
L 58.532591 140.139545 
L 60.465182 129.570237 
L 62.397773 123.451797 
L 64.330364 119.155639 
L 66.262956 115.857987 
L 68.195547 113.191915 
L 70.128138 110.961688 
L 72.060729 109.050472 
L 73.99332 107.382907 
L 75.925911 105.907536 
L 77.858502 104.58766 
L 79.791093 103.396178 
L 81.723684 102.312513 
L 83.656275 101.320666 
L 85.588867 100.407958 
L 87.521458 99.564166 
L 89.454049 98.780927 
L 91.38664 98.051316 
L 93.319231 97.369529 
L 95.251822 96.73066 
L 97.184413 96.130518 
L 99.117004 95.565499 
L 101.049595 95.032478 
L 102.982187 94.528732 
L 104.914778 94.05187 
L 106.847369 93.599782 
L 108.77996 93.170597 
L 110.712551 92.76265 
L 112.645142 92.37445 
L 114.577733 92.004657 
L 116.510324 91.652064 
L 118.442915 91.315579 
L 120.375507 90.99421 
L 122.308098 90.687055 
L 124.240689 90.39329 
L 126.17328 90.112159 
L 128.105871 89.842971 
L 130.038462 89.585088 
L 131.971053 89.337923 
L 133.903644 89.100934 
L 135.836235 88.873617 
L 137.768826 88.655507 
L 139.701418 88.44617 
L 141.634009 88.245202 
L 143.5666 88.052228 
L 145.499191 87.866897 
L 147.431782 87.688878 
L 149.364373 87.517866 
L 151.296964 87.353569 
L 153.229555 87.195718 
L 155.162146 87.044057 
L 157.094738 86.898345 
L 159.027329 86.758356 
L 160.95992 86.623875 
L 162.892511 86.494701 
L 164.825102 86.370643 
L 166.757693 86.251519 
L 168.690284 86.137158 
L 170.622875 86.027396 
L 172.555466 85.92208 
L 174.488057 85.821062 
L 176.420649 85.724202 
L 178.35324 85.631368 
L 180.285831 85.542432 
L 182.218422 85.457274 
L 184.151013 85.375779 
L 186.083604 85.297835 
L 188.016195 85.223339 
L 189.948786 85.152188 
L 191.881377 85.084288 
L 193.813969 85.019545 
L 195.74656 84.957872 
L 197.679151 84.899184 
L 199.611742 84.843399 
L 201.544333 84.79044 
L 203.476924 84.740231 
L 205.409515 84.692701 
L 207.342106 84.647781 
L 209.274697 84.605405 
L 211.207289 84.565507 
L 213.13988 84.528027 
L 215.072471 84.492905 
L 217.005062 84.460084 
L 218.937653 84.42951 
L 220.870244 84.401128 
L 222.802835 84.374888 
L 224.735426 84.350739 
L 226.668017 84.328635 
L 228.600608 84.308529 
L 230.5332 84.290377 
L 232.465791 84.274134 
L 234.398382 84.25976 
L 236.330973 84.247214 
L 238.263564 84.236457 
L 240.196155 84.227451 
L 242.128746 84.220159 
L 244.061337 84.214546 
L 245.993928 84.210578 
L 247.92652 84.20822 
L 249.859111 84.207441 
" clip-path="url(#pc1de3f20e3)" style="fill: none; stroke: #000000; stroke-width: 1.5; stroke-linecap: square"/>
   </g>
   <g id="line2d_44">
    <path d="M 58.517882 338.59625 
L 58.532591 69.462528 
L 60.465182 58.893217 
L 62.397773 52.774779 
L 64.330364 48.478621 
L 66.262956 45.180971 
L 68.195547 42.514898 
L 70.128138 40.284671 
L 72.060729 38.373456 
L 73.99332 36.705891 
L 75.925911 35.230521 
L 77.858502 33.910645 
L 79.791093 32.719164 
L 81.723684 31.635498 
L 83.656275 30.643652 
L 85.588867 29.730944 
L 87.521458 28.887152 
L 89.454049 28.103913 
L 91.38664 27.374302 
L 93.319231 26.692517 
L 95.251822 26.053648 
L 97.184413 25.453506 
L 99.117004 24.888487 
L 101.049595 24.355467 
L 102.982187 23.851721 
L 104.914778 23.374859 
L 106.847369 22.922771 
L 108.77996 22.493587 
L 110.712551 22.08564 
L 112.645142 21.69744 
L 114.577733 21.327648 
L 116.510324 20.975055 
L 118.442915 20.638571 
L 120.375507 20.317202 
L 122.308098 20.010047 
L 124.240689 19.716282 
L 126.17328 19.435152 
L 128.105871 19.165964 
L 130.038462 18.908081 
L 131.971053 18.660917 
L 133.903644 18.423928 
L 135.836235 18.196611 
L 137.768826 17.978501 
L 139.701418 17.769165 
L 141.634009 17.568198 
L 143.5666 17.375224 
L 145.499191 17.189893 
L 147.431782 17.011875 
L 149.364373 16.840862 
L 151.296964 16.676566 
L 153.229555 16.518715 
L 155.162146 16.367054 
L 157.094738 16.221343 
L 159.027329 16.081354 
L 160.95992 15.946874 
L 162.892511 15.817701 
L 164.825102 15.693643 
L 166.757693 15.574519 
L 168.690284 15.460158 
L 170.622875 15.350397 
L 172.555466 15.245081 
L 174.488057 15.144063 
L 176.420649 15.047204 
L 178.35324 14.95437 
L 180.285831 14.865434 
L 182.218422 14.780276 
L 184.151013 14.698781 
L 186.083604 14.620838 
L 188.016195 14.546342 
L 189.948786 14.475192 
L 191.881377 14.407292 
L 193.813969 14.342549 
L 195.74656 14.280876 
L 197.679151 14.222188 
L 199.611742 14.166404 
L 201.544333 14.113445 
L 203.476924 14.063237 
L 205.409515 14.015707 
L 207.342106 13.970788 
L 209.274697 13.928411 
L 211.207289 13.888514 
L 213.13988 13.851034 
L 215.072471 13.815913 
L 217.005062 13.783092 
L 218.937653 13.752518 
L 220.870244 13.724136 
L 222.802835 13.697896 
L 224.735426 13.673749 
L 226.668017 13.651645 
L 228.600608 13.631539 
L 230.5332 13.613387 
L 232.465791 13.597144 
L 234.398382 13.582771 
L 236.330973 13.570225 
L 238.263564 13.559468 
L 240.196155 13.550462 
L 242.128746 13.543171 
L 244.061337 13.537558 
L 245.993928 13.53359 
L 247.92652 13.531233 
L 249.859111 13.530455 
" clip-path="url(#pc1de3f20e3)" style="fill: none; stroke-dasharray: 5.55,2.4; stroke-dashoffset: 0; stroke: #ff0000; stroke-width: 1.5"/>
   </g>
   <g id="patch_3">
    <path d="M 56.6 146.47 
L 56.6 7.2 
" style="fill: none; stroke: #000000; stroke-width: 0.8; stroke-linejoin: miter; stroke-linecap: square"/>
   </g>
   <g id="patch_4">
    <path d="M 249.859111 146.47 
L 249.859111 7.2 
" style="fill: none; stroke: #000000; stroke-width: 0.8; stroke-linejoin: miter; stroke-linecap: square"/>
   </g>
   <g id="patch_5">
    <path d="M 56.6 146.47 
L 249.859111 146.47 
" style="fill: none; stroke: #000000; stroke-width: 0.8; stroke-linejoin: miter; stroke-linecap: square"/>
   </g>
   <g id="patch_6">
    <path d="M 56.6 7.2 
L 249.859111 7.2 
" style="fill: none; stroke: #000000; stroke-width: 0.8; stroke-linejoin: miter; stroke-linecap: square"/>
   </g>
  </g>
  <g id="axes_2">
   <g id="patch_7">
    <path d="M 56.6 300.04 
L 249.859111 300.04 
L 249.859111 160.77 
L 56.6 160.77 
z
" style="fill: #ffffff"/>
   </g>
   <g id="matplotlib.axis_3">
    <g id="xtick_7">
     <g id="line2d_45">
      <g>
       <use xlink:href="#m82a7402f6f" x="56.6" y="300.04" style="stroke: #000000; stroke-width: 0.8"/>
      </g>
     </g>
     <g id="text_6">
      <!-- 0.0 -->
      <g transform="translate(48.648438 314.638437)scale(0.1 -0.1)">
       <defs>
        <path id="DejaVuSans-2e" d="M 684 794 
L 1344 794 
L 1344 0 
L 684 0 
L 684 794 
z
" transform="scale(0.015625)"/>
       </defs>
       <use xlink:href="#DejaVuSans-30"/>
       <use xlink:href="#DejaVuSans-2e" x="63.623047"/>
       <use xlink:href="#DejaVuSans-30" x="95.410156"/>
      </g>
     </g>
    </g>
    <g id="xtick_8">
     <g id="line2d_46">
      <g>
       <use xlink:href="#m82a7402f6f" x="95.251822" y="300.04" style="stroke: #000000; stroke-width: 0.8"/>
      </g>
     </g>
     <g id="text_7">
      <!-- 0.2 -->
      <g transform="translate(87.30026 314.638437)scale(0.1 -0.1)">
       <defs>
        <path id="DejaVuSans-32" d="M 1228 531 
L 3431 531 
L 3431 0 
L 469 0 
L 469 531 
Q 828 903 1448 1529 
Q 2069 2156 2228 2338 
Q 2531 2678 2651 2914 
Q 2772 3150 2772 3378 
Q 2772 3750 2511 3984 
Q 2250 4219 1831 4219 
Q 1534 4219 1204 4116 
Q 875 4013 500 3803 
L 500 4441 
Q 881 4594 1212 4672 
Q 1544 4750 1819 4750 
Q 2544 4750 2975 4387 
Q 3406 4025 3406 3419 
Q 3406 3131 3298 2873 
Q 3191 2616 2906 2266 
Q 2828 2175 2409 1742 
Q 1991 1309 1228 531 
z
" transform="scale(0.015625)"/>
       </defs>
       <use xlink:href="#DejaVuSans-30"/>
       <use xlink:href="#DejaVuSans-2e" x="63.623047"/>
       <use xlink:href="#DejaVuSans-32" x="95.410156"/>
      </g>
     </g>
    </g>
    <g id="xtick_9">
     <g id="line2d_47">
      <g>
       <use xlink:href="#m82a7402f6f" x="133.903644" y="300.04" style="stroke: #000000; stroke-width: 0.8"/>
      </g>
     </g>
     <g id="text_8">
      <!-- 0.4 -->
      <g transform="translate(125.952082 314.638437)scale(0.1 -0.1)">
       <defs>
        <path id="DejaVuSans-34" d="M 2419 4116 
L 825 1625 
L 2419 1625 
L 2419 4116 
z
M 2253 4666 
L 3047 4666 
L 3047 1625 
L 3713 1625 
L 3713 1100 
L 3047 1100 
L 3047 0 
L 2419 0 
L 2419 1100 
L 313 1100 
L 313 1709 
L 2253 4666 
z
" transform="scale(0.015625)"/>
       </defs>
       <use xlink:href="#DejaVuSans-30"/>
       <use xlink:href="#DejaVuSans-2e" x="63.623047"/>
       <use xlink:href="#DejaVuSans-34" x="95.410156"/>
      </g>
     </g>
    </g>
    <g id="xtick_10">
     <g id="line2d_48">
      <g>
       <use xlink:href="#m82a7402f6f" x="172.555466" y="300.04" style="stroke: #000000; stroke-width: 0.8"/>
      </g>
     </g>
     <g id="text_9">
      <!-- 0.6 -->
      <g transform="translate(164.603904 314.638437)scale(0.1 -0.1)">
       <use xlink:href="#DejaVuSans-30"/>
       <use xlink:href="#DejaVuSans-2e" x="63.623047"/>
       <use xlink:href="#DejaVuSans-36" x="95.410156"/>
      </g>
     </g>
    </g>
    <g id="xtick_11">
     <g id="line2d_49">
      <g>
       <use xlink:href="#m82a7402f6f" x="211.207289" y="300.04" style="stroke: #000000; stroke-width: 0.8"/>
      </g>
     </g>
     <g id="text_10">
      <!-- 0.8 -->
      <g transform="translate(203.255726 314.638437)scale(0.1 -0.1)">
       <use xlink:href="#DejaVuSans-30"/>
       <use xlink:href="#DejaVuSans-2e" x="63.623047"/>
       <use xlink:href="#DejaVuSans-38" x="95.410156"/>
      </g>
     </g>
    </g>
    <g id="xtick_12">
     <g id="line2d_50">
      <g>
       <use xlink:href="#m82a7402f6f" x="249.859111" y="300.04" style="stroke: #000000; stroke-width: 0.8"/>
      </g>
     </g>
     <g id="text_11">
      <!-- 1.0 -->
      <g transform="translate(241.907548 314.638437)scale(0.1 -0.1)">
       <use xlink:href="#DejaVuSans-31"/>
       <use xlink:href="#DejaVuSans-2e" x="63.623047"/>
       <use xlink:href="#DejaVuSans-30" x="95.410156"/>
      </g>
     </g>
    </g>
    <g id="text_12">
     <!-- $t$ -->
     <g transform="translate(151.229555 328.316562)scale(0.1 -0.1)">
      <defs>
       <path id="DejaVuSans-Oblique-74" d="M 2706 3500 
L 2619 3053 
L 1472 3053 
L 1100 1153 
Q 1081 1047 1072 975 
Q 1063 903 1063 863 
Q 1063 663 1183 572 
Q 1303 481 1569 481 
L 2150 481 
L 2053 0 
L 1503 0 
Q 991 0 739 200 
Q 488 400 488 806 
Q 488 878 497 964 
Q 506 1050 525 1153 
L 897 3053 
L 409 3053 
L 500 3500 
L 978 3500 
L 1172 4494 
L 1747 4494 
L 1556 3500 
L 2706 3500 
z
" transform="scale(0.015625)"/>
      </defs>
      <use xlink:href="#DejaVuSans-Oblique-74" transform="translate(0 0.78125)"/>
     </g>
    </g>
   </g>
   <g id="matplotlib.axis_4">
    <g id="ytick_37">
     <g id="line2d_51">
      <g>
       <use xlink:href="#m305b6c264e" x="56.6" y="276.86229" style="stroke: #000000; stroke-width: 0.8"/>
      </g>
     </g>
     <g id="text_13">
      <!-- $\mathdefault{10^{-32}}$ -->
      <g transform="translate(21.7 280.661509)scale(0.1 -0.1)">
       <defs>
        <path id="DejaVuSans-33" d="M 2597 2516 
Q 3050 2419 3304 2112 
Q 3559 1806 3559 1356 
Q 3559 666 3084 287 
Q 2609 -91 1734 -91 
Q 1441 -91 1130 -33 
Q 819 25 488 141 
L 488 750 
Q 750 597 1062 519 
Q 1375 441 1716 441 
Q 2309 441 2620 675 
Q 2931 909 2931 1356 
Q 2931 1769 2642 2001 
Q 2353 2234 1838 2234 
L 1294 2234 
L 1294 2753 
L 1863 2753 
Q 2328 2753 2575 2939 
Q 2822 3125 2822 3475 
Q 2822 3834 2567 4026 
Q 2313 4219 1838 4219 
Q 1578 4219 1281 4162 
Q 984 4106 628 3988 
L 628 4550 
Q 988 4650 1302 4700 
Q 1616 4750 1894 4750 
Q 2613 4750 3031 4423 
Q 3450 4097 3450 3541 
Q 3450 3153 3228 2886 
Q 3006 2619 2597 2516 
z
" transform="scale(0.015625)"/>
       </defs>
       <use xlink:href="#DejaVuSans-31" transform="translate(0 0.765625)"/>
       <use xlink:href="#DejaVuSans-30" transform="translate(63.623047 0.765625)"/>
       <use xlink:href="#DejaVuSans-2212" transform="translate(128.203125 39.046875)scale(0.7)"/>
       <use xlink:href="#DejaVuSans-33" transform="translate(186.855469 39.046875)scale(0.7)"/>
       <use xlink:href="#DejaVuSans-32" transform="translate(231.391602 39.046875)scale(0.7)"/>
      </g>
     </g>
    </g>
    <g id="ytick_38">
     <g id="line2d_52">
      <g>
       <use xlink:href="#m305b6c264e" x="56.6" y="253.269499" style="stroke: #000000; stroke-width: 0.8"/>
      </g>
     </g>
     <g id="text_14">
      <!-- $\mathdefault{10^{20}}$ -->
      <g transform="translate(27.5 257.068718)scale(0.1 -0.1)">
       <use xlink:href="#DejaVuSans-31" transform="translate(0 0.765625)"/>
       <use xlink:href="#DejaVuSans-30" transform="translate(63.623047 0.765625)"/>
       <use xlink:href="#DejaVuSans-32" transform="translate(128.203125 39.046875)scale(0.7)"/>
       <use xlink:href="#DejaVuSans-30" transform="translate(172.739258 39.046875)scale(0.7)"/>
      </g>
     </g>
    </g>
    <g id="ytick_39">
     <g id="line2d_53">
      <g>
       <use xlink:href="#m305b6c264e" x="56.6" y="229.676708" style="stroke: #000000; stroke-width: 0.8"/>
      </g>
     </g>
     <g id="text_15">
      <!-- $\mathdefault{10^{72}}$ -->
      <g transform="translate(27.5 233.475926)scale(0.1 -0.1)">
       <use xlink:href="#DejaVuSans-31" transform="translate(0 0.765625)"/>
       <use xlink:href="#DejaVuSans-30" transform="translate(63.623047 0.765625)"/>
       <use xlink:href="#DejaVuSans-37" transform="translate(128.203125 39.046875)scale(0.7)"/>
       <use xlink:href="#DejaVuSans-32" transform="translate(172.739258 39.046875)scale(0.7)"/>
      </g>
     </g>
    </g>
    <g id="ytick_40">
     <g id="line2d_54">
      <g>
       <use xlink:href="#m305b6c264e" x="56.6" y="206.083917" style="stroke: #000000; stroke-width: 0.8"/>
      </g>
     </g>
     <g id="text_16">
      <!-- $\mathdefault{10^{124}}$ -->
      <g transform="translate(23.1 209.883135)scale(0.1 -0.1)">
       <use xlink:href="#DejaVuSans-31" transform="translate(0 0.765625)"/>
       <use xlink:href="#DejaVuSans-30" transform="translate(63.623047 0.765625)"/>
       <use xlink:href="#DejaVuSans-31" transform="translate(128.203125 39.046875)scale(0.7)"/>
       <use xlink:href="#DejaVuSans-32" transform="translate(172.739258 39.046875)scale(0.7)"/>
       <use xlink:href="#DejaVuSans-34" transform="translate(217.275391 39.046875)scale(0.7)"/>
      </g>
     </g>
    </g>
    <g id="ytick_41">
     <g id="line2d_55">
      <g>
       <use xlink:href="#m305b6c264e" x="56.6" y="182.491125" style="stroke: #000000; stroke-width: 0.8"/>
      </g>
     </g>
     <g id="text_17">
      <!-- $\mathdefault{10^{176}}$ -->
      <g transform="translate(23.1 186.290344)scale(0.1 -0.1)">
       <use xlink:href="#DejaVuSans-31" transform="translate(0 0.765625)"/>
       <use xlink:href="#DejaVuSans-30" transform="translate(63.623047 0.765625)"/>
       <use xlink:href="#DejaVuSans-31" transform="translate(128.203125 39.046875)scale(0.7)"/>
       <use xlink:href="#DejaVuSans-37" transform="translate(172.739258 39.046875)scale(0.7)"/>
       <use xlink:href="#DejaVuSans-36" transform="translate(217.275391 39.046875)scale(0.7)"/>
      </g>
     </g>
    </g>
    <g id="text_18">
     <!-- Error $[\tau=10^{-3}]$ -->
     <g transform="translate(15.620313 269.155)rotate(-90)scale(0.1 -0.1)">
      <use xlink:href="#DejaVuSans-45" transform="translate(0 0.765625)"/>
      <use xlink:href="#DejaVuSans-72" transform="translate(63.183594 0.765625)"/>
      <use xlink:href="#DejaVuSans-72" transform="translate(104.296875 0.765625)"/>
      <use xlink:href="#DejaVuSans-6f" transform="translate(145.410156 0.765625)"/>
      <use xlink:href="#DejaVuSans-72" transform="translate(206.591797 0.765625)"/>
      <use xlink:href="#DejaVuSans-20" transform="translate(247.705078 0.765625)"/>
      <use xlink:href="#DejaVuSans-5b" transform="translate(279.492188 0.765625)"/>
      <use xlink:href="#DejaVuSans-Oblique-3c4" transform="translate(318.505859 0.765625)"/>
      <use xlink:href="#DejaVuSans-3d" transform="translate(398.193359 0.765625)"/>
      <use xlink:href="#DejaVuSans-31" transform="translate(501.464844 0.765625)"/>
      <use xlink:href="#DejaVuSans-30" transform="translate(565.087891 0.765625)"/>
      <use xlink:href="#DejaVuSans-2212" transform="translate(629.667969 39.046875)scale(0.7)"/>
      <use xlink:href="#DejaVuSans-33" transform="translate(688.320312 39.046875)scale(0.7)"/>
      <use xlink:href="#DejaVuSans-5d" transform="translate(735.59082 0.765625)"/>
     </g>
    </g>
   </g>
   <g id="line2d_56">
    <path d="M 58.204421 338.59625 
L 58.532591 261.391217 
L 60.465182 260.438785 
L 62.397773 259.486353 
L 64.330364 258.533921 
L 66.262956 257.58149 
L 68.195547 256.629058 
L 70.128138 255.676626 
L 72.060729 254.724194 
L 73.99332 253.771762 
L 75.925911 252.81933 
L 77.858502 251.866898 
L 79.791093 250.914466 
L 81.723684 249.962034 
L 83.656275 249.009602 
L 85.588867 248.05717 
L 87.521458 247.104738 
L 89.454049 246.152306 
L 91.38664 245.199874 
L 93.319231 244.247442 
L 95.251822 243.29501 
L 97.184413 242.342578 
L 99.117004 241.390146 
L 101.049595 240.437714 
L 102.982187 239.485283 
L 104.914778 238.532851 
L 106.847369 237.580419 
L 108.77996 236.627987 
L 110.712551 235.675555 
L 112.645142 234.723123 
L 114.577733 233.770691 
L 116.510324 232.818259 
L 118.442915 231.865827 
L 120.375507 230.913395 
L 122.308098 229.960963 
L 124.240689 229.008531 
L 126.17328 228.056099 
L 128.105871 227.103667 
L 130.038462 226.151235 
L 131.971053 225.198803 
L 133.903644 224.246371 
L 135.836235 223.293939 
L 137.768826 222.341507 
L 139.701418 221.389076 
L 141.634009 220.436644 
L 143.5666 219.484212 
L 145.499191 218.53178 
L 147.431782 217.579348 
L 149.364373 216.626916 
L 151.296964 215.674484 
L 153.229555 214.722052 
L 155.162146 213.76962 
L 157.094738 212.817188 
L 159.027329 211.864756 
L 160.95992 210.912324 
L 162.892511 209.959892 
L 164.825102 209.00746 
L 166.757693 208.055028 
L 168.690284 207.102596 
L 170.622875 206.150164 
L 172.555466 205.197732 
L 174.488057 204.2453 
L 176.420649 203.292869 
L 178.35324 202.340437 
L 180.285831 201.388005 
L 182.218422 200.435573 
L 184.151013 199.483141 
L 186.083604 198.530709 
L 188.016195 197.578277 
L 189.948786 196.625845 
L 191.881377 195.673413 
L 193.813969 194.720981 
L 195.74656 193.768549 
L 197.679151 192.816117 
L 199.611742 191.863685 
L 201.544333 190.911253 
L 203.476924 189.958821 
L 205.409515 189.006389 
L 207.342106 188.053957 
L 209.274697 187.101525 
L 211.207289 186.149093 
L 213.13988 185.196662 
L 215.072471 184.24423 
L 217.005062 183.291798 
L 218.937653 182.339366 
L 220.870244 181.386934 
L 222.802835 180.434502 
L 224.735426 179.48207 
L 226.668017 178.529638 
L 228.600608 177.577206 
L 230.5332 176.624774 
L 232.465791 175.672342 
L 234.398382 174.71991 
L 236.330973 173.767478 
L 238.263564 172.815046 
L 240.196155 171.862614 
L 242.128746 170.910182 
L 244.061337 169.95775 
L 245.993928 169.005318 
L 247.92652 168.052886 
L 249.859111 167.100455 
" clip-path="url(#pd8283a2d82)" style="fill: none; stroke: #000000; stroke-width: 1.5; stroke-linecap: square"/>
   </g>
   <g id="line2d_57">
    <path d="M 58.208901 338.59625 
L 58.532591 262.657264 
L 60.465182 262.970967 
L 62.397773 263.284626 
L 64.330364 263.598285 
L 66.262956 263.911944 
L 68.195547 264.225603 
L 70.128138 264.539262 
L 72.060729 264.852921 
L 73.99332 265.16658 
L 75.925911 265.480239 
L 77.858502 265.793898 
L 79.791093 266.107557 
L 81.723684 266.421216 
L 83.656275 266.734875 
L 85.588867 267.048534 
L 87.521458 267.362193 
L 89.454049 267.675852 
L 91.38664 267.989511 
L 93.319231 268.30317 
L 95.251822 268.616828 
L 97.184413 268.930487 
L 99.117004 269.244146 
L 101.049595 269.557805 
L 102.982187 269.871464 
L 104.914778 270.185123 
L 106.847369 270.498782 
L 108.77996 270.812441 
L 110.712551 271.1261 
L 112.645142 271.439759 
L 114.577733 271.753418 
L 116.510324 272.067077 
L 118.442915 272.380736 
L 120.375507 272.694395 
L 122.308098 273.008054 
L 124.240689 273.321713 
L 126.17328 273.635372 
L 128.105871 273.949031 
L 130.038462 274.26269 
L 131.971053 274.576349 
L 133.903644 274.890008 
L 135.836235 275.203667 
L 137.768826 275.517326 
L 139.701418 275.830985 
L 141.634009 276.144644 
L 143.5666 276.458303 
L 145.499191 276.771962 
L 147.431782 277.08562 
L 149.364373 277.399279 
L 151.296964 277.712938 
L 153.229555 278.026597 
L 155.162146 278.340256 
L 157.094738 278.653915 
L 159.027329 278.967574 
L 160.95992 279.281233 
L 162.892511 279.594892 
L 164.825102 279.908551 
L 166.757693 280.22221 
L 168.690284 280.535869 
L 170.622875 280.849528 
L 172.555466 281.163187 
L 174.488057 281.476846 
L 176.420649 281.790505 
L 178.35324 282.104164 
L 180.285831 282.417823 
L 182.218422 282.731482 
L 184.151013 283.045141 
L 186.083604 283.3588 
L 188.016195 283.672459 
L 189.948786 283.986118 
L 191.881377 284.299777 
L 193.813969 284.613436 
L 195.74656 284.927095 
L 197.679151 285.240753 
L 199.611742 285.554412 
L 201.544333 285.868071 
L 203.476924 286.18173 
L 205.409515 286.495389 
L 207.342106 286.809048 
L 209.274697 287.122707 
L 211.207289 287.436366 
L 213.13988 287.750025 
L 215.072471 288.063684 
L 217.005062 288.377343 
L 218.937653 288.691002 
L 220.870244 289.004661 
L 222.802835 289.31832 
L 224.735426 289.631979 
L 226.668017 289.945638 
L 228.600608 290.259297 
L 230.5332 290.572956 
L 232.465791 290.886615 
L 234.398382 291.200274 
L 236.330973 291.513933 
L 238.263564 291.827592 
L 240.196155 292.141251 
L 242.128746 292.45491 
L 244.061337 292.768569 
L 245.993928 293.082228 
L 247.92652 293.395886 
L 249.859111 293.709545 
" clip-path="url(#pd8283a2d82)" style="fill: none; stroke-dasharray: 5.55,2.4; stroke-dashoffset: 0; stroke: #ff0000; stroke-width: 1.5"/>
   </g>
   <g id="patch_8">
    <path d="M 56.6 300.04 
L 56.6 160.77 
" style="fill: none; stroke: #000000; stroke-width: 0.8; stroke-linejoin: miter; stroke-linecap: square"/>
   </g>
   <g id="patch_9">
    <path d="M 249.859111 300.04 
L 249.859111 160.77 
" style="fill: none; stroke: #000000; stroke-width: 0.8; stroke-linejoin: miter; stroke-linecap: square"/>
   </g>
   <g id="patch_10">
    <path d="M 56.6 300.04 
L 249.859111 300.04 
" style="fill: none; stroke: #000000; stroke-width: 0.8; stroke-linejoin: miter; stroke-linecap: square"/>
   </g>
   <g id="patch_11">
    <path d="M 56.6 160.77 
L 249.859111 160.77 
" style="fill: none; stroke: #000000; stroke-width: 0.8; stroke-linejoin: miter; stroke-linecap: square"/>
   </g>
   <g id="legend_1">
    <g id="patch_12">
     <path d="M 63.6 198.12625 
L 132.392188 198.12625 
Q 134.392188 198.12625 134.392188 196.12625 
L 134.392188 167.77 
Q 134.392188 165.77 132.392188 165.77 
L 63.6 165.77 
Q 61.6 165.77 61.6 167.77 
L 61.6 196.12625 
Q 61.6 198.12625 63.6 198.12625 
z
" style="fill: #ffffff; opacity: 0.8; stroke: #cccccc; stroke-linejoin: miter"/>
    </g>
    <g id="line2d_58">
     <path d="M 65.6 173.868437 
L 75.6 173.868437 
L 85.6 173.868437 
" style="fill: none; stroke: #000000; stroke-width: 1.5; stroke-linecap: square"/>
    </g>
    <g id="text_19">
     <!-- Explicit -->
     <g transform="translate(93.6 177.368437)scale(0.1 -0.1)">
      <defs>
       <path id="DejaVuSans-78" d="M 3513 3500 
L 2247 1797 
L 3578 0 
L 2900 0 
L 1881 1375 
L 863 0 
L 184 0 
L 1544 1831 
L 300 3500 
L 978 3500 
L 1906 2253 
L 2834 3500 
L 3513 3500 
z
" transform="scale(0.015625)"/>
       <path id="DejaVuSans-70" d="M 1159 525 
L 1159 -1331 
L 581 -1331 
L 581 3500 
L 1159 3500 
L 1159 2969 
Q 1341 3281 1617 3432 
Q 1894 3584 2278 3584 
Q 2916 3584 3314 3078 
Q 3713 2572 3713 1747 
Q 3713 922 3314 415 
Q 2916 -91 2278 -91 
Q 1894 -91 1617 61 
Q 1341 213 1159 525 
z
M 3116 1747 
Q 3116 2381 2855 2742 
Q 2594 3103 2138 3103 
Q 1681 3103 1420 2742 
Q 1159 2381 1159 1747 
Q 1159 1113 1420 752 
Q 1681 391 2138 391 
Q 2594 391 2855 752 
Q 3116 1113 3116 1747 
z
" transform="scale(0.015625)"/>
       <path id="DejaVuSans-6c" d="M 603 4863 
L 1178 4863 
L 1178 0 
L 603 0 
L 603 4863 
z
" transform="scale(0.015625)"/>
       <path id="DejaVuSans-69" d="M 603 3500 
L 1178 3500 
L 1178 0 
L 603 0 
L 603 3500 
z
M 603 4863 
L 1178 4863 
L 1178 4134 
L 603 4134 
L 603 4863 
z
" transform="scale(0.015625)"/>
       <path id="DejaVuSans-63" d="M 3122 3366 
L 3122 2828 
Q 2878 2963 2633 3030 
Q 2388 3097 2138 3097 
Q 1578 3097 1268 2742 
Q 959 2388 959 1747 
Q 959 1106 1268 751 
Q 1578 397 2138 397 
Q 2388 397 2633 464 
Q 2878 531 3122 666 
L 3122 134 
Q 2881 22 2623 -34 
Q 2366 -91 2075 -91 
Q 1284 -91 818 406 
Q 353 903 353 1747 
Q 353 2603 823 3093 
Q 1294 3584 2113 3584 
Q 2378 3584 2631 3529 
Q 2884 3475 3122 3366 
z
" transform="scale(0.015625)"/>
       <path id="DejaVuSans-74" d="M 1172 4494 
L 1172 3500 
L 2356 3500 
L 2356 3053 
L 1172 3053 
L 1172 1153 
Q 1172 725 1289 603 
Q 1406 481 1766 481 
L 2356 481 
L 2356 0 
L 1766 0 
Q 1100 0 847 248 
Q 594 497 594 1153 
L 594 3053 
L 172 3053 
L 172 3500 
L 594 3500 
L 594 4494 
L 1172 4494 
z
" transform="scale(0.015625)"/>
      </defs>
      <use xlink:href="#DejaVuSans-45"/>
      <use xlink:href="#DejaVuSans-78" x="63.183594"/>
      <use xlink:href="#DejaVuSans-70" x="122.363281"/>
      <use xlink:href="#DejaVuSans-6c" x="185.839844"/>
      <use xlink:href="#DejaVuSans-69" x="213.623047"/>
      <use xlink:href="#DejaVuSans-63" x="241.40625"/>
      <use xlink:href="#DejaVuSans-69" x="296.386719"/>
      <use xlink:href="#DejaVuSans-74" x="324.169922"/>
     </g>
    </g>
    <g id="line2d_59">
     <path d="M 65.6 188.546562 
L 75.6 188.546562 
L 85.6 188.546562 
" style="fill: none; stroke-dasharray: 5.55,2.4; stroke-dashoffset: 0; stroke: #ff0000; stroke-width: 1.5"/>
    </g>
    <g id="text_20">
     <!-- Implicit -->
     <g transform="translate(93.6 192.046562)scale(0.1 -0.1)">
      <defs>
       <path id="DejaVuSans-49" d="M 628 4666 
L 1259 4666 
L 1259 0 
L 628 0 
L 628 4666 
z
" transform="scale(0.015625)"/>
       <path id="DejaVuSans-6d" d="M 3328 2828 
Q 3544 3216 3844 3400 
Q 4144 3584 4550 3584 
Q 5097 3584 5394 3201 
Q 5691 2819 5691 2113 
L 5691 0 
L 5113 0 
L 5113 2094 
Q 5113 2597 4934 2840 
Q 4756 3084 4391 3084 
Q 3944 3084 3684 2787 
Q 3425 2491 3425 1978 
L 3425 0 
L 2847 0 
L 2847 2094 
Q 2847 2600 2669 2842 
Q 2491 3084 2119 3084 
Q 1678 3084 1418 2786 
Q 1159 2488 1159 1978 
L 1159 0 
L 581 0 
L 581 3500 
L 1159 3500 
L 1159 2956 
Q 1356 3278 1631 3431 
Q 1906 3584 2284 3584 
Q 2666 3584 2933 3390 
Q 3200 3197 3328 2828 
z
" transform="scale(0.015625)"/>
      </defs>
      <use xlink:href="#DejaVuSans-49"/>
      <use xlink:href="#DejaVuSans-6d" x="29.492188"/>
      <use xlink:href="#DejaVuSans-70" x="126.904297"/>
      <use xlink:href="#DejaVuSans-6c" x="190.380859"/>
      <use xlink:href="#DejaVuSans-69" x="218.164062"/>
      <use xlink:href="#DejaVuSans-63" x="245.947266"/>
      <use xlink:href="#DejaVuSans-69" x="300.927734"/>
      <use xlink:href="#DejaVuSans-74" x="328.710938"/>
     </g>
    </g>
   </g>
  </g>
 </g>
 <defs>
  <clipPath id="pc1de3f20e3">
   <rect x="56.6" y="7.2" width="193.259111" height="139.27"/>
  </clipPath>
  <clipPath id="pd8283a2d82">
   <rect x="56.6" y="160.77" width="193.259111" height="139.27"/>
  </clipPath>
 </defs>
</svg>
