<?xml version="1.0" encoding="utf-8" standalone="no"?>
<!DOCTYPE svg PUBLIC "-//W3C//DTD SVG 1.1//EN"
  "http://www.w3.org/Graphics/SVG/1.1/DTD/svg11.dtd">
<svg xmlns:xlink="http://www.w3.org/1999/xlink" width="269.28pt" height="338.4pt" viewBox="0 0 269.28 338.4" xmlns="http://www.w3.org/2000/svg" version="1.1">
 <metadata>
  <rdf:RDF xmlns:dc="http://purl.org/dc/elements/1.1/" xmlns:cc="http://creativecommons.org/ns#" xmlns:rdf="http://www.w3.org/1999/02/22-rdf-syntax-ns#">
   <cc:Work>
    <dc:type rdf:resource="http://purl.org/dc/dcmitype/StillImage"/>
    <dc:date>2022-08-23T09:45:52.153981</dc:date>
    <dc:format>image/svg+xml</dc:format>
    <dc:creator>
     <cc:Agent>
      <dc:title>Matplotlib v3.5.2, https://matplotlib.org/</dc:title>
     </cc:Agent>
    </dc:creator>
   </cc:Work>
  </rdf:RDF>
 </metadata>
 <defs>
  <style type="text/css">*{stroke-linejoin: round; stroke-linecap: butt}</style>
 </defs>
 <g id="figure_1">
  <g id="patch_1">
   <path d="M 0 338.4 
L 269.28 338.4 
L 269.28 0 
L 0 0 
z
" style="fill: #ffffff"/>
  </g>
  <g id="axes_1">
   <g id="PolyCollection_1">
    <defs>
     <path id="mfad672bae2" d="M 7.2 -323.184209 
L 7.2 -234.981818 
L 7.710782 -234.981818 
L 8.221563 -234.981818 
L 8.732345 -234.981818 
L 9.243126 -234.981818 
L 9.753908 -234.981818 
L 10.264689 -234.981818 
L 10.775471 -234.981818 
L 11.286253 -234.981818 
L 11.797034 -234.981818 
L 12.307816 -234.981818 
L 12.818597 -234.981818 
L 13.329379 -234.981818 
L 13.84016 -234.981818 
L 14.350942 -234.981818 
L 14.861723 -234.981818 
L 15.372505 -234.981818 
L 15.883287 -234.981818 
L 16.394068 -234.981818 
L 16.90485 -234.981818 
L 17.415631 -234.981818 
L 17.926413 -234.981818 
L 18.437194 -234.981818 
L 18.947976 -234.981818 
L 19.458758 -234.981818 
L 19.969539 -234.981818 
L 20.480321 -234.981818 
L 20.991102 -234.981818 
L 21.501884 -234.981818 
L 22.012665 -234.981818 
L 22.523447 -234.981818 
L 23.034228 -234.981818 
L 23.54501 -234.981818 
L 24.055792 -234.981818 
L 24.566573 -234.981818 
L 25.077355 -234.981818 
L 25.588136 -234.981818 
L 26.098918 -234.981818 
L 26.609699 -234.981818 
L 27.120481 -234.981818 
L 27.631263 -234.981818 
L 28.142044 -234.981818 
L 28.652826 -234.981818 
L 29.163607 -234.981818 
L 29.674389 -234.981818 
L 30.18517 -234.981818 
L 30.695952 -234.981818 
L 31.206733 -234.981818 
L 31.717515 -234.981818 
L 32.228297 -234.981818 
L 32.739078 -234.981818 
L 33.24986 -234.981818 
L 33.760641 -234.981818 
L 34.271423 -234.981818 
L 34.782204 -234.981818 
L 35.292986 -234.981818 
L 35.803768 -234.981818 
L 36.314549 -234.981818 
L 36.825331 -234.981818 
L 37.336112 -234.981818 
L 37.846894 -234.981818 
L 38.357675 -234.981818 
L 38.868457 -234.981818 
L 39.379238 -234.981818 
L 39.89002 -234.981818 
L 40.400802 -234.981818 
L 40.911583 -234.981818 
L 41.422365 -234.981818 
L 41.933146 -234.981818 
L 42.443928 -234.981818 
L 42.954709 -234.981818 
L 43.465491 -234.981818 
L 43.976273 -234.981818 
L 44.487054 -234.981818 
L 44.997836 -234.981818 
L 45.508617 -234.981818 
L 46.019399 -234.981818 
L 46.53018 -234.981818 
L 47.040962 -234.981818 
L 47.551743 -234.981818 
L 48.062525 -234.981818 
L 48.573307 -234.981818 
L 49.084088 -234.981818 
L 49.59487 -234.981818 
L 50.105651 -234.981818 
L 50.616433 -234.981818 
L 51.127214 -234.981818 
L 51.637996 -234.981818 
L 52.148778 -234.981818 
L 52.659559 -234.981818 
L 53.170341 -234.981818 
L 53.681122 -234.981818 
L 54.191904 -234.981818 
L 54.702685 -234.981818 
L 55.213467 -234.981818 
L 55.724248 -234.981818 
L 56.23503 -234.981818 
L 56.745812 -234.981818 
L 57.256593 -234.981818 
L 57.767375 -234.981818 
L 58.278156 -234.981818 
L 58.788938 -234.981818 
L 59.299719 -234.981818 
L 59.810501 -234.981818 
L 60.321283 -234.981818 
L 60.832064 -234.981818 
L 61.342846 -234.981818 
L 61.853627 -234.981818 
L 62.364409 -234.981818 
L 62.87519 -234.981818 
L 63.385972 -234.981818 
L 63.896754 -234.981818 
L 64.407535 -234.981818 
L 64.918317 -234.981818 
L 65.429098 -234.981818 
L 65.93988 -234.981818 
L 66.450661 -234.981818 
L 66.961443 -234.981818 
L 67.472224 -234.981818 
L 67.983006 -234.981818 
L 68.493788 -234.981818 
L 69.004569 -234.981818 
L 69.515351 -234.981818 
L 70.026132 -234.981818 
L 70.536914 -234.981818 
L 71.047695 -234.981818 
L 71.558477 -234.981818 
L 72.069259 -234.981818 
L 72.58004 -234.981818 
L 73.090822 -234.981818 
L 73.601603 -234.981818 
L 74.112385 -234.981818 
L 74.623166 -234.981818 
L 75.133948 -234.981818 
L 75.644729 -234.981818 
L 76.155511 -234.981818 
L 76.666293 -234.981818 
L 77.177074 -234.981818 
L 77.687856 -234.981818 
L 78.198637 -234.981818 
L 78.709419 -234.981818 
L 79.2202 -234.981818 
L 79.730982 -234.981818 
L 80.241764 -234.981818 
L 80.752545 -234.981818 
L 81.263327 -234.981818 
L 81.774108 -234.981818 
L 82.28489 -234.981818 
L 82.795671 -234.981818 
L 83.306453 -234.981818 
L 83.817234 -234.981818 
L 84.328016 -234.981818 
L 84.838798 -234.981818 
L 85.349579 -234.981818 
L 85.860361 -234.981818 
L 86.371142 -234.981818 
L 86.881924 -234.981818 
L 87.392705 -234.981818 
L 87.903487 -234.981818 
L 88.414269 -234.981818 
L 88.92505 -234.981818 
L 89.435832 -234.981818 
L 89.946613 -234.981818 
L 90.457395 -234.981818 
L 90.968176 -234.981818 
L 91.478958 -234.981818 
L 91.989739 -234.981818 
L 92.500521 -234.981818 
L 93.011303 -234.981818 
L 93.522084 -234.981818 
L 94.032866 -234.981818 
L 94.543647 -234.981818 
L 95.054429 -234.981818 
L 95.56521 -234.981818 
L 96.075992 -234.981818 
L 96.586774 -234.981818 
L 97.097555 -234.981818 
L 97.608337 -234.981818 
L 98.119118 -234.981818 
L 98.6299 -234.981818 
L 99.140681 -234.981818 
L 99.651463 -234.981818 
L 100.162244 -234.981818 
L 100.673026 -234.981818 
L 101.183808 -234.981818 
L 101.694589 -234.981818 
L 102.205371 -234.981818 
L 102.716152 -234.981818 
L 103.226934 -234.981818 
L 103.737715 -234.981818 
L 104.248497 -234.981818 
L 104.759279 -234.981818 
L 105.27006 -234.981818 
L 105.780842 -234.981818 
L 106.291623 -234.981818 
L 106.802405 -234.981818 
L 107.313186 -234.981818 
L 107.823968 -234.981818 
L 108.334749 -234.981818 
L 108.845531 -234.981818 
L 109.356313 -234.981818 
L 109.867094 -234.981818 
L 110.377876 -234.981818 
L 110.888657 -234.981818 
L 111.399439 -234.981818 
L 111.91022 -234.981818 
L 112.421002 -234.981818 
L 112.931784 -234.981818 
L 113.442565 -234.981818 
L 113.953347 -234.981818 
L 114.464128 -234.981818 
L 114.97491 -234.981818 
L 115.485691 -234.981818 
L 115.996473 -234.981818 
L 116.507255 -234.981818 
L 117.018036 -234.981818 
L 117.528818 -234.981818 
L 118.039599 -234.981818 
L 118.550381 -234.981818 
L 119.061162 -234.981818 
L 119.571944 -234.981818 
L 120.082725 -234.981818 
L 120.593507 -234.981818 
L 121.104289 -234.981818 
L 121.61507 -234.981818 
L 122.125852 -234.981818 
L 122.636633 -234.981818 
L 123.147415 -234.981818 
L 123.658196 -234.981818 
L 124.168978 -234.981818 
L 124.67976 -234.981818 
L 125.190541 -234.981818 
L 125.701323 -234.981818 
L 126.212104 -234.981818 
L 126.722886 -234.981818 
L 127.233667 -234.981818 
L 127.744449 -234.981818 
L 128.25523 -234.981818 
L 128.766012 -234.981818 
L 129.276794 -234.981818 
L 129.787575 -234.981818 
L 130.298357 -234.981818 
L 130.809138 -234.981818 
L 131.31992 -234.981818 
L 131.830701 -234.981818 
L 132.341483 -234.981818 
L 132.852265 -234.981818 
L 133.363046 -234.981818 
L 133.873828 -234.981818 
L 134.384609 -234.981818 
L 134.895391 -234.981818 
L 135.406172 -234.981818 
L 135.916954 -234.981818 
L 136.427735 -234.981818 
L 136.938517 -234.981818 
L 137.449299 -234.981818 
L 137.96008 -234.981818 
L 138.470862 -234.981818 
L 138.981643 -234.981818 
L 139.492425 -234.981818 
L 140.003206 -234.981818 
L 140.513988 -234.981818 
L 141.02477 -234.981818 
L 141.535551 -234.981818 
L 142.046333 -234.981818 
L 142.557114 -234.981818 
L 143.067896 -234.981818 
L 143.578677 -234.981818 
L 144.089459 -234.981818 
L 144.60024 -234.981818 
L 145.111022 -234.981818 
L 145.621804 -234.981818 
L 146.132585 -234.981818 
L 146.643367 -234.981818 
L 147.154148 -234.981818 
L 147.66493 -234.981818 
L 148.175711 -234.981818 
L 148.686493 -234.981818 
L 149.197275 -234.981818 
L 149.708056 -234.981818 
L 150.218838 -234.981818 
L 150.729619 -234.981818 
L 151.240401 -234.981818 
L 151.751182 -234.981818 
L 152.261964 -234.981818 
L 152.772745 -234.981818 
L 153.283527 -234.981818 
L 153.794309 -234.981818 
L 154.30509 -234.981818 
L 154.815872 -234.981818 
L 155.326653 -234.981818 
L 155.837435 -234.981818 
L 156.348216 -234.981818 
L 156.858998 -234.981818 
L 157.36978 -234.981818 
L 157.880561 -234.981818 
L 158.391343 -234.981818 
L 158.902124 -234.981818 
L 159.412906 -234.981818 
L 159.923687 -234.981818 
L 160.434469 -234.981818 
L 160.945251 -234.981818 
L 161.456032 -234.981818 
L 161.966814 -234.981818 
L 162.477595 -234.981818 
L 162.988377 -234.981818 
L 163.499158 -234.981818 
L 164.00994 -234.981818 
L 164.520721 -234.981818 
L 165.031503 -234.981818 
L 165.542285 -234.981818 
L 166.053066 -234.981818 
L 166.563848 -234.981818 
L 167.074629 -234.981818 
L 167.585411 -234.981818 
L 168.096192 -234.981818 
L 168.606974 -234.981818 
L 169.117756 -234.981818 
L 169.628537 -234.981818 
L 170.139319 -234.981818 
L 170.6501 -234.981818 
L 171.160882 -234.981818 
L 171.671663 -234.981818 
L 172.182445 -234.981818 
L 172.693226 -234.981818 
L 173.204008 -234.981818 
L 173.71479 -234.981818 
L 174.225571 -234.981818 
L 174.736353 -234.981818 
L 175.247134 -234.981818 
L 175.757916 -234.981818 
L 176.268697 -234.981818 
L 176.779479 -234.981818 
L 177.290261 -234.981818 
L 177.801042 -234.981818 
L 178.311824 -234.981818 
L 178.822605 -234.981818 
L 179.333387 -234.981818 
L 179.844168 -234.981818 
L 180.35495 -234.981818 
L 180.865731 -234.981818 
L 181.376513 -234.981818 
L 181.887295 -234.981818 
L 182.398076 -234.981818 
L 182.908858 -234.981818 
L 183.419639 -234.981818 
L 183.930421 -234.981818 
L 184.441202 -234.981818 
L 184.951984 -234.981818 
L 185.462766 -234.981818 
L 185.973547 -234.981818 
L 186.484329 -234.981818 
L 186.99511 -234.981818 
L 187.505892 -234.981818 
L 188.016673 -234.981818 
L 188.527455 -234.981818 
L 189.038236 -234.981818 
L 189.549018 -234.981818 
L 190.0598 -234.981818 
L 190.570581 -234.981818 
L 191.081363 -234.981818 
L 191.592144 -234.981818 
L 192.102926 -234.981818 
L 192.613707 -234.981818 
L 193.124489 -234.981818 
L 193.635271 -234.981818 
L 194.146052 -234.981818 
L 194.656834 -234.981818 
L 195.167615 -234.981818 
L 195.678397 -234.981818 
L 196.189178 -234.981818 
L 196.69996 -234.981818 
L 197.210741 -234.981818 
L 197.721523 -234.981818 
L 198.232305 -234.981818 
L 198.743086 -234.981818 
L 199.253868 -234.981818 
L 199.764649 -234.981818 
L 200.275431 -234.981818 
L 200.786212 -234.981818 
L 201.296994 -234.981818 
L 201.807776 -234.981818 
L 202.318557 -234.981818 
L 202.829339 -234.981818 
L 203.34012 -234.981818 
L 203.850902 -234.981818 
L 204.361683 -234.981818 
L 204.872465 -234.981818 
L 205.383246 -234.981818 
L 205.894028 -234.981818 
L 206.40481 -234.981818 
L 206.915591 -234.981818 
L 207.426373 -234.981818 
L 207.937154 -234.981818 
L 208.447936 -234.981818 
L 208.958717 -234.981818 
L 209.469499 -234.981818 
L 209.980281 -234.981818 
L 210.491062 -234.981818 
L 211.001844 -234.981818 
L 211.512625 -234.981818 
L 212.023407 -234.981818 
L 212.534188 -234.981818 
L 213.04497 -234.981818 
L 213.555752 -234.981818 
L 214.066533 -234.981818 
L 214.577315 -234.981818 
L 215.088096 -234.981818 
L 215.598878 -234.981818 
L 216.109659 -234.981818 
L 216.620441 -234.981818 
L 217.131222 -234.981818 
L 217.642004 -234.981818 
L 218.152786 -234.981818 
L 218.663567 -234.981818 
L 219.174349 -234.981818 
L 219.68513 -234.981818 
L 220.195912 -234.981818 
L 220.706693 -234.981818 
L 221.217475 -234.981818 
L 221.728257 -234.981818 
L 222.239038 -234.981818 
L 222.74982 -234.981818 
L 223.260601 -234.981818 
L 223.771383 -234.981818 
L 224.282164 -234.981818 
L 224.792946 -234.981818 
L 225.303727 -234.981818 
L 225.814509 -234.981818 
L 226.325291 -234.981818 
L 226.836072 -234.981818 
L 227.346854 -234.981818 
L 227.857635 -234.981818 
L 228.368417 -234.981818 
L 228.879198 -234.981818 
L 229.38998 -234.981818 
L 229.900762 -234.981818 
L 230.411543 -234.981818 
L 230.922325 -234.981818 
L 231.433106 -234.981818 
L 231.943888 -234.981818 
L 232.454669 -234.981818 
L 232.965451 -234.981818 
L 233.476232 -234.981818 
L 233.987014 -234.981818 
L 234.497796 -234.981818 
L 235.008577 -234.981818 
L 235.519359 -234.981818 
L 236.03014 -234.981818 
L 236.540922 -234.981818 
L 237.051703 -234.981818 
L 237.562485 -234.981818 
L 238.073267 -234.981818 
L 238.584048 -234.981818 
L 239.09483 -234.981818 
L 239.605611 -234.981818 
L 240.116393 -234.981818 
L 240.627174 -234.981818 
L 241.137956 -234.981818 
L 241.648737 -234.981818 
L 242.159519 -234.981818 
L 242.670301 -234.981818 
L 243.181082 -234.981818 
L 243.691864 -234.981818 
L 244.202645 -234.981818 
L 244.713427 -234.981818 
L 245.224208 -234.981818 
L 245.73499 -234.981818 
L 246.245772 -234.981818 
L 246.756553 -234.981818 
L 247.267335 -234.981818 
L 247.778116 -234.981818 
L 248.288898 -234.981818 
L 248.799679 -234.981818 
L 249.310461 -234.981818 
L 249.821242 -234.981818 
L 250.332024 -234.981818 
L 250.842806 -234.981818 
L 251.353587 -234.981818 
L 251.864369 -234.981818 
L 252.37515 -234.981818 
L 252.885932 -234.981818 
L 253.396713 -234.981818 
L 253.907495 -234.981818 
L 254.418277 -234.981818 
L 254.929058 -234.981818 
L 255.43984 -234.981818 
L 255.950621 -234.981818 
L 256.461403 -234.981818 
L 256.972184 -234.981818 
L 257.482966 -234.981818 
L 257.993747 -234.981818 
L 258.504529 -234.981818 
L 259.015311 -234.981818 
L 259.526092 -234.981818 
L 260.036874 -234.981818 
L 260.547655 -234.981818 
L 261.058437 -234.981818 
L 261.569218 -234.981818 
L 262.08 -234.981818 
L 262.08 -323.184209 
L 262.08 -323.184209 
L 261.569218 -323.098961 
L 261.058437 -323.012951 
L 260.547655 -322.926191 
L 260.036874 -322.838696 
L 259.526092 -322.750479 
L 259.015311 -322.661555 
L 258.504529 -322.571937 
L 257.993747 -322.48164 
L 257.482966 -322.390678 
L 256.972184 -322.299066 
L 256.461403 -322.206817 
L 255.950621 -322.113948 
L 255.43984 -322.020471 
L 254.929058 -321.926403 
L 254.418277 -321.831758 
L 253.907495 -321.736551 
L 253.396713 -321.640797 
L 252.885932 -321.544511 
L 252.37515 -321.447709 
L 251.864369 -321.350406 
L 251.353587 -321.252618 
L 250.842806 -321.154359 
L 250.332024 -321.055646 
L 249.821242 -320.956494 
L 249.310461 -320.856919 
L 248.799679 -320.756937 
L 248.288898 -320.656563 
L 247.778116 -320.555813 
L 247.267335 -320.454704 
L 246.756553 -320.353251 
L 246.245772 -320.251471 
L 245.73499 -320.149379 
L 245.224208 -320.046993 
L 244.713427 -319.944327 
L 244.202645 -319.841399 
L 243.691864 -319.738224 
L 243.181082 -319.634819 
L 242.670301 -319.531201 
L 242.159519 -319.427386 
L 241.648737 -319.323389 
L 241.137956 -319.219229 
L 240.627174 -319.114921 
L 240.116393 -319.010482 
L 239.605611 -318.905928 
L 239.09483 -318.801276 
L 238.584048 -318.696543 
L 238.073267 -318.591745 
L 237.562485 -318.486898 
L 237.051703 -318.38202 
L 236.540922 -318.277127 
L 236.03014 -318.172236 
L 235.519359 -318.067363 
L 235.008577 -317.962525 
L 234.497796 -317.857739 
L 233.987014 -317.75302 
L 233.476232 -317.648387 
L 232.965451 -317.543854 
L 232.454669 -317.43944 
L 231.943888 -317.33516 
L 231.433106 -317.231031 
L 230.922325 -317.12707 
L 230.411543 -317.023293 
L 229.900762 -316.919716 
L 229.38998 -316.816356 
L 228.879198 -316.713229 
L 228.368417 -316.610352 
L 227.857635 -316.507741 
L 227.346854 -316.405412 
L 226.836072 -316.303381 
L 226.325291 -316.201665 
L 225.814509 -316.10028 
L 225.303727 -315.999241 
L 224.792946 -315.898566 
L 224.282164 -315.798269 
L 223.771383 -315.698367 
L 223.260601 -315.598875 
L 222.74982 -315.499809 
L 222.239038 -315.401186 
L 221.728257 -315.30302 
L 221.217475 -315.205327 
L 220.706693 -315.108124 
L 220.195912 -315.011424 
L 219.68513 -314.915243 
L 219.174349 -314.819597 
L 218.663567 -314.724502 
L 218.152786 -314.629971 
L 217.642004 -314.536019 
L 217.131222 -314.442663 
L 216.620441 -314.349916 
L 216.109659 -314.257794 
L 215.598878 -314.166311 
L 215.088096 -314.07548 
L 214.577315 -313.985318 
L 214.066533 -313.895838 
L 213.555752 -313.807054 
L 213.04497 -313.718981 
L 212.534188 -313.631632 
L 212.023407 -313.545021 
L 211.512625 -313.459162 
L 211.001844 -313.374068 
L 210.491062 -313.289754 
L 209.980281 -313.206231 
L 209.469499 -313.123515 
L 208.958717 -313.041617 
L 208.447936 -312.960551 
L 207.937154 -312.88033 
L 207.426373 -312.800966 
L 206.915591 -312.722471 
L 206.40481 -312.644859 
L 205.894028 -312.568142 
L 205.383246 -312.492332 
L 204.872465 -312.41744 
L 204.361683 -312.343479 
L 203.850902 -312.27046 
L 203.34012 -312.198396 
L 202.829339 -312.127296 
L 202.318557 -312.057174 
L 201.807776 -311.988039 
L 201.296994 -311.919903 
L 200.786212 -311.852777 
L 200.275431 -311.786671 
L 199.764649 -311.721595 
L 199.253868 -311.657561 
L 198.743086 -311.594578 
L 198.232305 -311.532656 
L 197.721523 -311.471804 
L 197.210741 -311.412034 
L 196.69996 -311.353353 
L 196.189178 -311.295772 
L 195.678397 -311.2393 
L 195.167615 -311.183945 
L 194.656834 -311.129716 
L 194.146052 -311.076622 
L 193.635271 -311.024671 
L 193.124489 -310.973872 
L 192.613707 -310.924233 
L 192.102926 -310.87576 
L 191.592144 -310.828463 
L 191.081363 -310.782349 
L 190.570581 -310.737424 
L 190.0598 -310.693697 
L 189.549018 -310.651173 
L 189.038236 -310.60986 
L 188.527455 -310.569765 
L 188.016673 -310.530893 
L 187.505892 -310.493251 
L 186.99511 -310.456845 
L 186.484329 -310.42168 
L 185.973547 -310.387762 
L 185.462766 -310.355097 
L 184.951984 -310.323689 
L 184.441202 -310.293544 
L 183.930421 -310.264667 
L 183.419639 -310.237061 
L 182.908858 -310.210732 
L 182.398076 -310.185684 
L 181.887295 -310.16192 
L 181.376513 -310.139444 
L 180.865731 -310.11826 
L 180.35495 -310.098371 
L 179.844168 -310.079781 
L 179.333387 -310.062492 
L 178.822605 -310.046507 
L 178.311824 -310.031828 
L 177.801042 -310.018459 
L 177.290261 -310.006401 
L 176.779479 -309.995655 
L 176.268697 -309.986224 
L 175.757916 -309.97811 
L 175.247134 -309.971312 
L 174.736353 -309.965834 
L 174.225571 -309.961674 
L 173.71479 -309.958835 
L 173.204008 -309.957316 
L 172.693226 -309.957118 
L 172.182445 -309.95824 
L 171.671663 -309.960684 
L 171.160882 -309.964447 
L 170.6501 -309.96953 
L 170.139319 -309.975932 
L 169.628537 -309.983652 
L 169.117756 -309.992688 
L 168.606974 -310.003039 
L 168.096192 -310.014704 
L 167.585411 -310.02768 
L 167.074629 -310.041966 
L 166.563848 -310.057559 
L 166.053066 -310.074457 
L 165.542285 -310.092658 
L 165.031503 -310.112157 
L 164.520721 -310.132953 
L 164.00994 -310.155041 
L 163.499158 -310.178419 
L 162.988377 -310.203083 
L 162.477595 -310.229028 
L 161.966814 -310.256251 
L 161.456032 -310.284748 
L 160.945251 -310.314513 
L 160.434469 -310.345542 
L 159.923687 -310.377831 
L 159.412906 -310.411373 
L 158.902124 -310.446165 
L 158.391343 -310.482199 
L 157.880561 -310.519471 
L 157.36978 -310.557975 
L 156.858998 -310.597704 
L 156.348216 -310.638652 
L 155.837435 -310.680813 
L 155.326653 -310.72418 
L 154.815872 -310.768746 
L 154.30509 -310.814504 
L 153.794309 -310.861448 
L 153.283527 -310.909568 
L 152.772745 -310.958858 
L 152.261964 -311.00931 
L 151.751182 -311.060916 
L 151.240401 -311.113668 
L 150.729619 -311.167558 
L 150.218838 -311.222576 
L 149.708056 -311.278714 
L 149.197275 -311.335963 
L 148.686493 -311.394315 
L 148.175711 -311.453759 
L 147.66493 -311.514287 
L 147.154148 -311.575889 
L 146.643367 -311.638555 
L 146.132585 -311.702275 
L 145.621804 -311.76704 
L 145.111022 -311.832838 
L 144.60024 -311.899659 
L 144.089459 -311.967493 
L 143.578677 -312.036329 
L 143.067896 -312.106157 
L 142.557114 -312.176964 
L 142.046333 -312.24874 
L 141.535551 -312.321474 
L 141.02477 -312.395153 
L 140.513988 -312.469767 
L 140.003206 -312.545303 
L 139.492425 -312.62175 
L 138.981643 -312.699094 
L 138.470862 -312.777325 
L 137.96008 -312.85643 
L 137.449299 -312.936395 
L 136.938517 -313.017209 
L 136.427735 -313.098859 
L 135.916954 -313.181331 
L 135.406172 -313.264613 
L 134.895391 -313.348691 
L 134.384609 -313.433552 
L 133.873828 -313.519183 
L 133.363046 -313.60557 
L 132.852265 -313.692699 
L 132.341483 -313.780557 
L 131.830701 -313.869129 
L 131.31992 -313.958402 
L 130.809138 -314.048361 
L 130.298357 -314.138992 
L 129.787575 -314.230281 
L 129.276794 -314.322214 
L 128.766012 -314.414774 
L 128.25523 -314.507949 
L 127.744449 -314.601724 
L 127.233667 -314.696082 
L 126.722886 -314.79101 
L 126.212104 -314.886493 
L 125.701323 -314.982514 
L 125.190541 -315.07906 
L 124.67976 -315.176114 
L 124.168978 -315.273662 
L 123.658196 -315.371687 
L 123.147415 -315.470175 
L 122.636633 -315.56911 
L 122.125852 -315.668475 
L 121.61507 -315.768256 
L 121.104289 -315.868436 
L 120.593507 -315.969 
L 120.082725 -316.069931 
L 119.571944 -316.171214 
L 119.061162 -316.272833 
L 118.550381 -316.374771 
L 118.039599 -316.477012 
L 117.528818 -316.57954 
L 117.018036 -316.682339 
L 116.507255 -316.785393 
L 115.996473 -316.888684 
L 115.485691 -316.992198 
L 114.97491 -317.095917 
L 114.464128 -317.199825 
L 113.953347 -317.303905 
L 113.442565 -317.408141 
L 112.931784 -317.512517 
L 112.421002 -317.617016 
L 111.91022 -317.72162 
L 111.399439 -317.826315 
L 110.888657 -317.931083 
L 110.377876 -318.035907 
L 109.867094 -318.140771 
L 109.356313 -318.245659 
L 108.845531 -318.350553 
L 108.334749 -318.455437 
L 107.823968 -318.560295 
L 107.313186 -318.665109 
L 106.802405 -318.769864 
L 106.291623 -318.874542 
L 105.780842 -318.979127 
L 105.27006 -319.083602 
L 104.759279 -319.187951 
L 104.248497 -319.292158 
L 103.737715 -319.396205 
L 103.226934 -319.500076 
L 102.716152 -319.603755 
L 102.205371 -319.707226 
L 101.694589 -319.810471 
L 101.183808 -319.913475 
L 100.673026 -320.016222 
L 100.162244 -320.118694 
L 99.651463 -320.220875 
L 99.140681 -320.322751 
L 98.6299 -320.424303 
L 98.119118 -320.525517 
L 97.608337 -320.626376 
L 97.097555 -320.726865 
L 96.586774 -320.826966 
L 96.075992 -320.926665 
L 95.56521 -321.025946 
L 95.054429 -321.124792 
L 94.543647 -321.223189 
L 94.032866 -321.32112 
L 93.522084 -321.41857 
L 93.011303 -321.515524 
L 92.500521 -321.611966 
L 91.989739 -321.707881 
L 91.478958 -321.803254 
L 90.968176 -321.898069 
L 90.457395 -321.992312 
L 89.946613 -322.085968 
L 89.435832 -322.179021 
L 88.92505 -322.271457 
L 88.414269 -322.363262 
L 87.903487 -322.454421 
L 87.392705 -322.544919 
L 86.881924 -322.634742 
L 86.371142 -322.723875 
L 85.860361 -322.812306 
L 85.349579 -322.900019 
L 84.838798 -322.987001 
L 84.328016 -323.073237 
L 83.817234 -323.158715 
L 83.306453 -323.243421 
L 82.795671 -323.327341 
L 82.28489 -323.410462 
L 81.774108 -323.492771 
L 81.263327 -323.574254 
L 80.752545 -323.6549 
L 80.241764 -323.734694 
L 79.730982 -323.813625 
L 79.2202 -323.891679 
L 78.709419 -323.968846 
L 78.198637 -324.045111 
L 77.687856 -324.120464 
L 77.177074 -324.194891 
L 76.666293 -324.268383 
L 76.155511 -324.340926 
L 75.644729 -324.412509 
L 75.133948 -324.483121 
L 74.623166 -324.552751 
L 74.112385 -324.621388 
L 73.601603 -324.68902 
L 73.090822 -324.755638 
L 72.58004 -324.82123 
L 72.069259 -324.885786 
L 71.558477 -324.949296 
L 71.047695 -325.01175 
L 70.536914 -325.073138 
L 70.026132 -325.13345 
L 69.515351 -325.192677 
L 69.004569 -325.250809 
L 68.493788 -325.307837 
L 67.983006 -325.363752 
L 67.472224 -325.418545 
L 66.961443 -325.472207 
L 66.450661 -325.52473 
L 65.93988 -325.576106 
L 65.429098 -325.626327 
L 64.918317 -325.675384 
L 64.407535 -325.723269 
L 63.896754 -325.769976 
L 63.385972 -325.815496 
L 62.87519 -325.859823 
L 62.364409 -325.90295 
L 61.853627 -325.944869 
L 61.342846 -325.985573 
L 60.832064 -326.025058 
L 60.321283 -326.063316 
L 59.810501 -326.100341 
L 59.299719 -326.136127 
L 58.788938 -326.170669 
L 58.278156 -326.203961 
L 57.767375 -326.235998 
L 57.256593 -326.266775 
L 56.745812 -326.296287 
L 56.23503 -326.324529 
L 55.724248 -326.351497 
L 55.213467 -326.377186 
L 54.702685 -326.401593 
L 54.191904 -326.424713 
L 53.681122 -326.446544 
L 53.170341 -326.46708 
L 52.659559 -326.48632 
L 52.148778 -326.50426 
L 51.637996 -326.520897 
L 51.127214 -326.536229 
L 50.616433 -326.550254 
L 50.105651 -326.562968 
L 49.59487 -326.57437 
L 49.084088 -326.584458 
L 48.573307 -326.593231 
L 48.062525 -326.600687 
L 47.551743 -326.606826 
L 47.040962 -326.611645 
L 46.53018 -326.615144 
L 46.019399 -326.617323 
L 45.508617 -326.618182 
L 44.997836 -326.61772 
L 44.487054 -326.615937 
L 43.976273 -326.612833 
L 43.465491 -326.60841 
L 42.954709 -326.602667 
L 42.443928 -326.595607 
L 41.933146 -326.587228 
L 41.422365 -326.577535 
L 40.911583 -326.566526 
L 40.400802 -326.554206 
L 39.89002 -326.540574 
L 39.379238 -326.525634 
L 38.868457 -326.509388 
L 38.357675 -326.491839 
L 37.846894 -326.472989 
L 37.336112 -326.452841 
L 36.825331 -326.431398 
L 36.314549 -326.408664 
L 35.803768 -326.384643 
L 35.292986 -326.359338 
L 34.782204 -326.332753 
L 34.271423 -326.304893 
L 33.760641 -326.275762 
L 33.24986 -326.245364 
L 32.739078 -326.213704 
L 32.228297 -326.180788 
L 31.717515 -326.146621 
L 31.206733 -326.111207 
L 30.695952 -326.074553 
L 30.18517 -326.036664 
L 29.674389 -325.997547 
L 29.163607 -325.957208 
L 28.652826 -325.915652 
L 28.142044 -325.872887 
L 27.631263 -325.82892 
L 27.120481 -325.783757 
L 26.609699 -325.737405 
L 26.098918 -325.689873 
L 25.588136 -325.641166 
L 25.077355 -325.591294 
L 24.566573 -325.540264 
L 24.055792 -325.488084 
L 23.54501 -325.434762 
L 23.034228 -325.380308 
L 22.523447 -325.324728 
L 22.012665 -325.268033 
L 21.501884 -325.210232 
L 20.991102 -325.151332 
L 20.480321 -325.091345 
L 19.969539 -325.030279 
L 19.458758 -324.968144 
L 18.947976 -324.904949 
L 18.437194 -324.840706 
L 17.926413 -324.775424 
L 17.415631 -324.709113 
L 16.90485 -324.641783 
L 16.394068 -324.573447 
L 15.883287 -324.504114 
L 15.372505 -324.433795 
L 14.861723 -324.362502 
L 14.350942 -324.290246 
L 13.84016 -324.217038 
L 13.329379 -324.14289 
L 12.818597 -324.067813 
L 12.307816 -323.99182 
L 11.797034 -323.914923 
L 11.286253 -323.837134 
L 10.775471 -323.758464 
L 10.264689 -323.678928 
L 9.753908 -323.598536 
L 9.243126 -323.517303 
L 8.732345 -323.435241 
L 8.221563 -323.352362 
L 7.710782 -323.26868 
L 7.2 -323.184209 
z
" style="stroke: #0000ff; stroke-opacity: 0.1"/>
    </defs>
    <g clip-path="url(#p4d5e83ceb5)">
     <use xlink:href="#mfad672bae2" x="0" y="338.4" style="fill: #0000ff; fill-opacity: 0.1; stroke: #0000ff; stroke-opacity: 0.1"/>
    </g>
   </g>
   <g id="text_1">
    <!-- ${\cal M}$ -->
    <g transform="translate(32.688 45.104123)scale(0.16 -0.16)">
     <defs>
      <path id="STIXNonUnicode-Italic-e239" d="M 7123 346 
L 7219 224 
Q 6912 -205 6310 -205 
Q 6208 -205 6096 -169 
Q 5984 -134 5865 -12 
Q 5747 109 5747 307 
Q 5747 384 5779 653 
L 6061 3181 
L 6042 3181 
L 3405 51 
L 3309 51 
Q 2682 1382 2413 2650 
L 2406 2650 
Q 2400 2611 2345 2390 
Q 2291 2170 2265 2061 
Q 2240 1952 2179 1725 
Q 2118 1498 2060 1338 
Q 2003 1178 1926 976 
Q 1850 774 1760 592 
Q 1670 410 1568 250 
Q 1229 -288 813 -288 
Q 576 -288 416 -131 
Q 256 26 256 250 
Q 256 422 345 528 
Q 435 634 595 634 
Q 698 634 768 576 
Q 838 518 867 451 
Q 896 384 947 326 
Q 998 269 1062 269 
Q 1274 269 1446 570 
Q 1555 762 1673 1088 
Q 1792 1414 1881 1731 
Q 1971 2048 2076 2483 
Q 2182 2918 2236 3187 
Q 2291 3456 2371 3840 
Q 2451 4224 2464 4294 
L 2656 4294 
Q 2931 3136 3168 2329 
Q 3405 1523 3738 838 
L 6662 4294 
L 6835 4294 
L 6445 730 
Q 6432 614 6432 544 
Q 6432 173 6714 173 
Q 6950 173 7123 346 
z
" transform="scale(0.015625)"/>
     </defs>
     <use xlink:href="#STIXNonUnicode-Italic-e239" transform="translate(0 0.90625)"/>
    </g>
   </g>
  </g>
  <g id="axes_2">
   <g id="PolyCollection_2">
    <defs>
     <path id="m890f68b875" d="M 7.2 -211.584209 
L 7.2 -123.381818 
L 7.710782 -123.381818 
L 8.221563 -123.381818 
L 8.732345 -123.381818 
L 9.243126 -123.381818 
L 9.753908 -123.381818 
L 10.264689 -123.381818 
L 10.775471 -123.381818 
L 11.286253 -123.381818 
L 11.797034 -123.381818 
L 12.307816 -123.381818 
L 12.818597 -123.381818 
L 13.329379 -123.381818 
L 13.84016 -123.381818 
L 14.350942 -123.381818 
L 14.861723 -123.381818 
L 15.372505 -123.381818 
L 15.883287 -123.381818 
L 16.394068 -123.381818 
L 16.90485 -123.381818 
L 17.415631 -123.381818 
L 17.926413 -123.381818 
L 18.437194 -123.381818 
L 18.947976 -123.381818 
L 19.458758 -123.381818 
L 19.969539 -123.381818 
L 20.480321 -123.381818 
L 20.991102 -123.381818 
L 21.501884 -123.381818 
L 22.012665 -123.381818 
L 22.523447 -123.381818 
L 23.034228 -123.381818 
L 23.54501 -123.381818 
L 24.055792 -123.381818 
L 24.566573 -123.381818 
L 25.077355 -123.381818 
L 25.588136 -123.381818 
L 26.098918 -123.381818 
L 26.609699 -123.381818 
L 27.120481 -123.381818 
L 27.631263 -123.381818 
L 28.142044 -123.381818 
L 28.652826 -123.381818 
L 29.163607 -123.381818 
L 29.674389 -123.381818 
L 30.18517 -123.381818 
L 30.695952 -123.381818 
L 31.206733 -123.381818 
L 31.717515 -123.381818 
L 32.228297 -123.381818 
L 32.739078 -123.381818 
L 33.24986 -123.381818 
L 33.760641 -123.381818 
L 34.271423 -123.381818 
L 34.782204 -123.381818 
L 35.292986 -123.381818 
L 35.803768 -123.381818 
L 36.314549 -123.381818 
L 36.825331 -123.381818 
L 37.336112 -123.381818 
L 37.846894 -123.381818 
L 38.357675 -123.381818 
L 38.868457 -123.381818 
L 39.379238 -123.381818 
L 39.89002 -123.381818 
L 40.400802 -123.381818 
L 40.911583 -123.381818 
L 41.422365 -123.381818 
L 41.933146 -123.381818 
L 42.443928 -123.381818 
L 42.954709 -123.381818 
L 43.465491 -123.381818 
L 43.976273 -123.381818 
L 44.487054 -123.381818 
L 44.997836 -123.381818 
L 45.508617 -123.381818 
L 46.019399 -123.381818 
L 46.53018 -123.381818 
L 47.040962 -123.381818 
L 47.551743 -123.381818 
L 48.062525 -123.381818 
L 48.573307 -123.381818 
L 49.084088 -123.381818 
L 49.59487 -123.381818 
L 50.105651 -123.381818 
L 50.616433 -123.381818 
L 51.127214 -123.381818 
L 51.637996 -123.381818 
L 52.148778 -123.381818 
L 52.659559 -123.381818 
L 53.170341 -123.381818 
L 53.681122 -123.381818 
L 54.191904 -123.381818 
L 54.702685 -123.381818 
L 55.213467 -123.381818 
L 55.724248 -123.381818 
L 56.23503 -123.381818 
L 56.745812 -123.381818 
L 57.256593 -123.381818 
L 57.767375 -123.381818 
L 58.278156 -123.381818 
L 58.788938 -123.381818 
L 59.299719 -123.381818 
L 59.810501 -123.381818 
L 60.321283 -123.381818 
L 60.832064 -123.381818 
L 61.342846 -123.381818 
L 61.853627 -123.381818 
L 62.364409 -123.381818 
L 62.87519 -123.381818 
L 63.385972 -123.381818 
L 63.896754 -123.381818 
L 64.407535 -123.381818 
L 64.918317 -123.381818 
L 65.429098 -123.381818 
L 65.93988 -123.381818 
L 66.450661 -123.381818 
L 66.961443 -123.381818 
L 67.472224 -123.381818 
L 67.983006 -123.381818 
L 68.493788 -123.381818 
L 69.004569 -123.381818 
L 69.515351 -123.381818 
L 70.026132 -123.381818 
L 70.536914 -123.381818 
L 71.047695 -123.381818 
L 71.558477 -123.381818 
L 72.069259 -123.381818 
L 72.58004 -123.381818 
L 73.090822 -123.381818 
L 73.601603 -123.381818 
L 74.112385 -123.381818 
L 74.623166 -123.381818 
L 75.133948 -123.381818 
L 75.644729 -123.381818 
L 76.155511 -123.381818 
L 76.666293 -123.381818 
L 77.177074 -123.381818 
L 77.687856 -123.381818 
L 78.198637 -123.381818 
L 78.709419 -123.381818 
L 79.2202 -123.381818 
L 79.730982 -123.381818 
L 80.241764 -123.381818 
L 80.752545 -123.381818 
L 81.263327 -123.381818 
L 81.774108 -123.381818 
L 82.28489 -123.381818 
L 82.795671 -123.381818 
L 83.306453 -123.381818 
L 83.817234 -123.381818 
L 84.328016 -123.381818 
L 84.838798 -123.381818 
L 85.349579 -123.381818 
L 85.860361 -123.381818 
L 86.371142 -123.381818 
L 86.881924 -123.381818 
L 87.392705 -123.381818 
L 87.903487 -123.381818 
L 88.414269 -123.381818 
L 88.92505 -123.381818 
L 89.435832 -123.381818 
L 89.946613 -123.381818 
L 90.457395 -123.381818 
L 90.968176 -123.381818 
L 91.478958 -123.381818 
L 91.989739 -123.381818 
L 92.500521 -123.381818 
L 93.011303 -123.381818 
L 93.522084 -123.381818 
L 94.032866 -123.381818 
L 94.543647 -123.381818 
L 95.054429 -123.381818 
L 95.56521 -123.381818 
L 96.075992 -123.381818 
L 96.586774 -123.381818 
L 97.097555 -123.381818 
L 97.608337 -123.381818 
L 98.119118 -123.381818 
L 98.6299 -123.381818 
L 99.140681 -123.381818 
L 99.651463 -123.381818 
L 100.162244 -123.381818 
L 100.673026 -123.381818 
L 101.183808 -123.381818 
L 101.694589 -123.381818 
L 102.205371 -123.381818 
L 102.716152 -123.381818 
L 103.226934 -123.381818 
L 103.737715 -123.381818 
L 104.248497 -123.381818 
L 104.759279 -123.381818 
L 105.27006 -123.381818 
L 105.780842 -123.381818 
L 106.291623 -123.381818 
L 106.802405 -123.381818 
L 107.313186 -123.381818 
L 107.823968 -123.381818 
L 108.334749 -123.381818 
L 108.845531 -123.381818 
L 109.356313 -123.381818 
L 109.867094 -123.381818 
L 110.377876 -123.381818 
L 110.888657 -123.381818 
L 111.399439 -123.381818 
L 111.91022 -123.381818 
L 112.421002 -123.381818 
L 112.931784 -123.381818 
L 113.442565 -123.381818 
L 113.953347 -123.381818 
L 114.464128 -123.381818 
L 114.97491 -123.381818 
L 115.485691 -123.381818 
L 115.996473 -123.381818 
L 116.507255 -123.381818 
L 117.018036 -123.381818 
L 117.528818 -123.381818 
L 118.039599 -123.381818 
L 118.550381 -123.381818 
L 119.061162 -123.381818 
L 119.571944 -123.381818 
L 120.082725 -123.381818 
L 120.593507 -123.381818 
L 121.104289 -123.381818 
L 121.61507 -123.381818 
L 122.125852 -123.381818 
L 122.636633 -123.381818 
L 123.147415 -123.381818 
L 123.658196 -123.381818 
L 124.168978 -123.381818 
L 124.67976 -123.381818 
L 125.190541 -123.381818 
L 125.701323 -123.381818 
L 126.212104 -123.381818 
L 126.722886 -123.381818 
L 127.233667 -123.381818 
L 127.744449 -123.381818 
L 128.25523 -123.381818 
L 128.766012 -123.381818 
L 129.276794 -123.381818 
L 129.787575 -123.381818 
L 130.298357 -123.381818 
L 130.809138 -123.381818 
L 131.31992 -123.381818 
L 131.830701 -123.381818 
L 132.341483 -123.381818 
L 132.852265 -123.381818 
L 133.363046 -123.381818 
L 133.873828 -123.381818 
L 134.384609 -123.381818 
L 134.895391 -123.381818 
L 135.406172 -123.381818 
L 135.916954 -123.381818 
L 136.427735 -123.381818 
L 136.938517 -123.381818 
L 137.449299 -123.381818 
L 137.96008 -123.381818 
L 138.470862 -123.381818 
L 138.981643 -123.381818 
L 139.492425 -123.381818 
L 140.003206 -123.381818 
L 140.513988 -123.381818 
L 141.02477 -123.381818 
L 141.535551 -123.381818 
L 142.046333 -123.381818 
L 142.557114 -123.381818 
L 143.067896 -123.381818 
L 143.578677 -123.381818 
L 144.089459 -123.381818 
L 144.60024 -123.381818 
L 145.111022 -123.381818 
L 145.621804 -123.381818 
L 146.132585 -123.381818 
L 146.643367 -123.381818 
L 147.154148 -123.381818 
L 147.66493 -123.381818 
L 148.175711 -123.381818 
L 148.686493 -123.381818 
L 149.197275 -123.381818 
L 149.708056 -123.381818 
L 150.218838 -123.381818 
L 150.729619 -123.381818 
L 151.240401 -123.381818 
L 151.751182 -123.381818 
L 152.261964 -123.381818 
L 152.772745 -123.381818 
L 153.283527 -123.381818 
L 153.794309 -123.381818 
L 154.30509 -123.381818 
L 154.815872 -123.381818 
L 155.326653 -123.381818 
L 155.837435 -123.381818 
L 156.348216 -123.381818 
L 156.858998 -123.381818 
L 157.36978 -123.381818 
L 157.880561 -123.381818 
L 158.391343 -123.381818 
L 158.902124 -123.381818 
L 159.412906 -123.381818 
L 159.923687 -123.381818 
L 160.434469 -123.381818 
L 160.945251 -123.381818 
L 161.456032 -123.381818 
L 161.966814 -123.381818 
L 162.477595 -123.381818 
L 162.988377 -123.381818 
L 163.499158 -123.381818 
L 164.00994 -123.381818 
L 164.520721 -123.381818 
L 165.031503 -123.381818 
L 165.542285 -123.381818 
L 166.053066 -123.381818 
L 166.563848 -123.381818 
L 167.074629 -123.381818 
L 167.585411 -123.381818 
L 168.096192 -123.381818 
L 168.606974 -123.381818 
L 169.117756 -123.381818 
L 169.628537 -123.381818 
L 170.139319 -123.381818 
L 170.6501 -123.381818 
L 171.160882 -123.381818 
L 171.671663 -123.381818 
L 172.182445 -123.381818 
L 172.693226 -123.381818 
L 173.204008 -123.381818 
L 173.71479 -123.381818 
L 174.225571 -123.381818 
L 174.736353 -123.381818 
L 175.247134 -123.381818 
L 175.757916 -123.381818 
L 176.268697 -123.381818 
L 176.779479 -123.381818 
L 177.290261 -123.381818 
L 177.801042 -123.381818 
L 178.311824 -123.381818 
L 178.822605 -123.381818 
L 179.333387 -123.381818 
L 179.844168 -123.381818 
L 180.35495 -123.381818 
L 180.865731 -123.381818 
L 181.376513 -123.381818 
L 181.887295 -123.381818 
L 182.398076 -123.381818 
L 182.908858 -123.381818 
L 183.419639 -123.381818 
L 183.930421 -123.381818 
L 184.441202 -123.381818 
L 184.951984 -123.381818 
L 185.462766 -123.381818 
L 185.973547 -123.381818 
L 186.484329 -123.381818 
L 186.99511 -123.381818 
L 187.505892 -123.381818 
L 188.016673 -123.381818 
L 188.527455 -123.381818 
L 189.038236 -123.381818 
L 189.549018 -123.381818 
L 190.0598 -123.381818 
L 190.570581 -123.381818 
L 191.081363 -123.381818 
L 191.592144 -123.381818 
L 192.102926 -123.381818 
L 192.613707 -123.381818 
L 193.124489 -123.381818 
L 193.635271 -123.381818 
L 194.146052 -123.381818 
L 194.656834 -123.381818 
L 195.167615 -123.381818 
L 195.678397 -123.381818 
L 196.189178 -123.381818 
L 196.69996 -123.381818 
L 197.210741 -123.381818 
L 197.721523 -123.381818 
L 198.232305 -123.381818 
L 198.743086 -123.381818 
L 199.253868 -123.381818 
L 199.764649 -123.381818 
L 200.275431 -123.381818 
L 200.786212 -123.381818 
L 201.296994 -123.381818 
L 201.807776 -123.381818 
L 202.318557 -123.381818 
L 202.829339 -123.381818 
L 203.34012 -123.381818 
L 203.850902 -123.381818 
L 204.361683 -123.381818 
L 204.872465 -123.381818 
L 205.383246 -123.381818 
L 205.894028 -123.381818 
L 206.40481 -123.381818 
L 206.915591 -123.381818 
L 207.426373 -123.381818 
L 207.937154 -123.381818 
L 208.447936 -123.381818 
L 208.958717 -123.381818 
L 209.469499 -123.381818 
L 209.980281 -123.381818 
L 210.491062 -123.381818 
L 211.001844 -123.381818 
L 211.512625 -123.381818 
L 212.023407 -123.381818 
L 212.534188 -123.381818 
L 213.04497 -123.381818 
L 213.555752 -123.381818 
L 214.066533 -123.381818 
L 214.577315 -123.381818 
L 215.088096 -123.381818 
L 215.598878 -123.381818 
L 216.109659 -123.381818 
L 216.620441 -123.381818 
L 217.131222 -123.381818 
L 217.642004 -123.381818 
L 218.152786 -123.381818 
L 218.663567 -123.381818 
L 219.174349 -123.381818 
L 219.68513 -123.381818 
L 220.195912 -123.381818 
L 220.706693 -123.381818 
L 221.217475 -123.381818 
L 221.728257 -123.381818 
L 222.239038 -123.381818 
L 222.74982 -123.381818 
L 223.260601 -123.381818 
L 223.771383 -123.381818 
L 224.282164 -123.381818 
L 224.792946 -123.381818 
L 225.303727 -123.381818 
L 225.814509 -123.381818 
L 226.325291 -123.381818 
L 226.836072 -123.381818 
L 227.346854 -123.381818 
L 227.857635 -123.381818 
L 228.368417 -123.381818 
L 228.879198 -123.381818 
L 229.38998 -123.381818 
L 229.900762 -123.381818 
L 230.411543 -123.381818 
L 230.922325 -123.381818 
L 231.433106 -123.381818 
L 231.943888 -123.381818 
L 232.454669 -123.381818 
L 232.965451 -123.381818 
L 233.476232 -123.381818 
L 233.987014 -123.381818 
L 234.497796 -123.381818 
L 235.008577 -123.381818 
L 235.519359 -123.381818 
L 236.03014 -123.381818 
L 236.540922 -123.381818 
L 237.051703 -123.381818 
L 237.562485 -123.381818 
L 238.073267 -123.381818 
L 238.584048 -123.381818 
L 239.09483 -123.381818 
L 239.605611 -123.381818 
L 240.116393 -123.381818 
L 240.627174 -123.381818 
L 241.137956 -123.381818 
L 241.648737 -123.381818 
L 242.159519 -123.381818 
L 242.670301 -123.381818 
L 243.181082 -123.381818 
L 243.691864 -123.381818 
L 244.202645 -123.381818 
L 244.713427 -123.381818 
L 245.224208 -123.381818 
L 245.73499 -123.381818 
L 246.245772 -123.381818 
L 246.756553 -123.381818 
L 247.267335 -123.381818 
L 247.778116 -123.381818 
L 248.288898 -123.381818 
L 248.799679 -123.381818 
L 249.310461 -123.381818 
L 249.821242 -123.381818 
L 250.332024 -123.381818 
L 250.842806 -123.381818 
L 251.353587 -123.381818 
L 251.864369 -123.381818 
L 252.37515 -123.381818 
L 252.885932 -123.381818 
L 253.396713 -123.381818 
L 253.907495 -123.381818 
L 254.418277 -123.381818 
L 254.929058 -123.381818 
L 255.43984 -123.381818 
L 255.950621 -123.381818 
L 256.461403 -123.381818 
L 256.972184 -123.381818 
L 257.482966 -123.381818 
L 257.993747 -123.381818 
L 258.504529 -123.381818 
L 259.015311 -123.381818 
L 259.526092 -123.381818 
L 260.036874 -123.381818 
L 260.547655 -123.381818 
L 261.058437 -123.381818 
L 261.569218 -123.381818 
L 262.08 -123.381818 
L 262.08 -211.584209 
L 262.08 -211.584209 
L 261.569218 -211.498961 
L 261.058437 -211.412951 
L 260.547655 -211.326191 
L 260.036874 -211.238696 
L 259.526092 -211.150479 
L 259.015311 -211.061555 
L 258.504529 -210.971937 
L 257.993747 -210.88164 
L 257.482966 -210.790678 
L 256.972184 -210.699066 
L 256.461403 -210.606817 
L 255.950621 -210.513948 
L 255.43984 -210.420471 
L 254.929058 -210.326403 
L 254.418277 -210.231758 
L 253.907495 -210.136551 
L 253.396713 -210.040797 
L 252.885932 -209.944511 
L 252.37515 -209.847709 
L 251.864369 -209.750406 
L 251.353587 -209.652618 
L 250.842806 -209.554359 
L 250.332024 -209.455646 
L 249.821242 -209.356494 
L 249.310461 -209.256919 
L 248.799679 -209.156937 
L 248.288898 -209.056563 
L 247.778116 -208.955813 
L 247.267335 -208.854704 
L 246.756553 -208.753251 
L 246.245772 -208.651471 
L 245.73499 -208.549379 
L 245.224208 -208.446993 
L 244.713427 -208.344327 
L 244.202645 -208.241399 
L 243.691864 -208.138224 
L 243.181082 -208.034819 
L 242.670301 -207.931201 
L 242.159519 -207.827386 
L 241.648737 -207.723389 
L 241.137956 -207.619229 
L 240.627174 -207.514921 
L 240.116393 -207.410482 
L 239.605611 -207.305928 
L 239.09483 -207.201276 
L 238.584048 -207.096543 
L 238.073267 -206.991745 
L 237.562485 -206.886898 
L 237.051703 -206.78202 
L 236.540922 -206.677127 
L 236.03014 -206.572236 
L 235.519359 -206.467363 
L 235.008577 -206.362525 
L 234.497796 -206.257739 
L 233.987014 -206.15302 
L 233.476232 -206.048387 
L 232.965451 -205.943854 
L 232.454669 -205.83944 
L 231.943888 -205.73516 
L 231.433106 -205.631031 
L 230.922325 -205.52707 
L 230.411543 -205.423293 
L 229.900762 -205.319716 
L 229.38998 -205.216356 
L 228.879198 -205.113229 
L 228.368417 -205.010352 
L 227.857635 -204.907741 
L 227.346854 -204.805412 
L 226.836072 -204.703381 
L 226.325291 -204.601665 
L 225.814509 -204.50028 
L 225.303727 -204.399241 
L 224.792946 -204.298566 
L 224.282164 -204.198269 
L 223.771383 -204.098367 
L 223.260601 -203.998875 
L 222.74982 -203.899809 
L 222.239038 -203.801186 
L 221.728257 -203.70302 
L 221.217475 -203.605327 
L 220.706693 -203.508124 
L 220.195912 -203.411424 
L 219.68513 -203.315243 
L 219.174349 -203.219597 
L 218.663567 -203.124502 
L 218.152786 -203.029971 
L 217.642004 -202.936019 
L 217.131222 -202.842663 
L 216.620441 -202.749916 
L 216.109659 -202.657794 
L 215.598878 -202.566311 
L 215.088096 -202.47548 
L 214.577315 -202.385318 
L 214.066533 -202.295838 
L 213.555752 -202.207054 
L 213.04497 -202.118981 
L 212.534188 -202.031632 
L 212.023407 -201.945021 
L 211.512625 -201.859162 
L 211.001844 -201.774068 
L 210.491062 -201.689754 
L 209.980281 -201.606231 
L 209.469499 -201.523515 
L 208.958717 -201.441617 
L 208.447936 -201.360551 
L 207.937154 -201.28033 
L 207.426373 -201.200966 
L 206.915591 -201.122471 
L 206.40481 -201.044859 
L 205.894028 -200.968142 
L 205.383246 -200.892332 
L 204.872465 -200.81744 
L 204.361683 -200.743479 
L 203.850902 -200.67046 
L 203.34012 -200.598396 
L 202.829339 -200.527296 
L 202.318557 -200.457174 
L 201.807776 -200.388039 
L 201.296994 -200.319903 
L 200.786212 -200.252777 
L 200.275431 -200.186671 
L 199.764649 -200.121595 
L 199.253868 -200.057561 
L 198.743086 -199.994578 
L 198.232305 -199.932656 
L 197.721523 -199.871804 
L 197.210741 -199.812034 
L 196.69996 -199.753353 
L 196.189178 -199.695772 
L 195.678397 -199.6393 
L 195.167615 -199.583945 
L 194.656834 -199.529716 
L 194.146052 -199.476622 
L 193.635271 -199.424671 
L 193.124489 -199.373872 
L 192.613707 -199.324233 
L 192.102926 -199.27576 
L 191.592144 -199.228463 
L 191.081363 -199.182349 
L 190.570581 -199.137424 
L 190.0598 -199.093697 
L 189.549018 -199.051173 
L 189.038236 -199.00986 
L 188.527455 -198.969765 
L 188.016673 -198.930893 
L 187.505892 -198.893251 
L 186.99511 -198.856845 
L 186.484329 -198.82168 
L 185.973547 -198.787762 
L 185.462766 -198.755097 
L 184.951984 -198.723689 
L 184.441202 -198.693544 
L 183.930421 -198.664667 
L 183.419639 -198.637061 
L 182.908858 -198.610732 
L 182.398076 -198.585684 
L 181.887295 -198.56192 
L 181.376513 -198.539444 
L 180.865731 -198.51826 
L 180.35495 -198.498371 
L 179.844168 -198.479781 
L 179.333387 -198.462492 
L 178.822605 -198.446507 
L 178.311824 -198.431828 
L 177.801042 -198.418459 
L 177.290261 -198.406401 
L 176.779479 -198.395655 
L 176.268697 -198.386224 
L 175.757916 -198.37811 
L 175.247134 -198.371312 
L 174.736353 -198.365834 
L 174.225571 -198.361674 
L 173.71479 -198.358835 
L 173.204008 -198.357316 
L 172.693226 -198.357118 
L 172.182445 -198.35824 
L 171.671663 -198.360684 
L 171.160882 -198.364447 
L 170.6501 -198.36953 
L 170.139319 -198.375932 
L 169.628537 -198.383652 
L 169.117756 -198.392688 
L 168.606974 -198.403039 
L 168.096192 -198.414704 
L 167.585411 -198.42768 
L 167.074629 -198.441966 
L 166.563848 -198.457559 
L 166.053066 -198.474457 
L 165.542285 -198.492658 
L 165.031503 -198.512157 
L 164.520721 -198.532953 
L 164.00994 -198.555041 
L 163.499158 -198.578419 
L 162.988377 -198.603083 
L 162.477595 -198.629028 
L 161.966814 -198.656251 
L 161.456032 -198.684748 
L 160.945251 -198.714513 
L 160.434469 -198.745542 
L 159.923687 -198.777831 
L 159.412906 -198.811373 
L 158.902124 -198.846165 
L 158.391343 -198.882199 
L 157.880561 -198.919471 
L 157.36978 -198.957975 
L 156.858998 -198.997704 
L 156.348216 -199.038652 
L 155.837435 -199.080813 
L 155.326653 -199.12418 
L 154.815872 -199.168746 
L 154.30509 -199.214504 
L 153.794309 -199.261448 
L 153.283527 -199.309568 
L 152.772745 -199.358858 
L 152.261964 -199.40931 
L 151.751182 -199.460916 
L 151.240401 -199.513668 
L 150.729619 -199.567558 
L 150.218838 -199.622576 
L 149.708056 -199.678714 
L 149.197275 -199.735963 
L 148.686493 -199.794315 
L 148.175711 -199.853759 
L 147.66493 -199.914287 
L 147.154148 -199.975889 
L 146.643367 -200.038555 
L 146.132585 -200.102275 
L 145.621804 -200.16704 
L 145.111022 -200.232838 
L 144.60024 -200.299659 
L 144.089459 -200.367493 
L 143.578677 -200.436329 
L 143.067896 -200.506157 
L 142.557114 -200.576964 
L 142.046333 -200.64874 
L 141.535551 -200.721474 
L 141.02477 -200.795153 
L 140.513988 -200.869767 
L 140.003206 -200.945303 
L 139.492425 -201.02175 
L 138.981643 -201.099094 
L 138.470862 -201.177325 
L 137.96008 -201.25643 
L 137.449299 -201.336395 
L 136.938517 -201.417209 
L 136.427735 -201.498859 
L 135.916954 -201.581331 
L 135.406172 -201.664613 
L 134.895391 -201.748691 
L 134.384609 -201.833552 
L 133.873828 -201.919183 
L 133.363046 -202.00557 
L 132.852265 -202.092699 
L 132.341483 -202.180557 
L 131.830701 -202.269129 
L 131.31992 -202.358402 
L 130.809138 -202.448361 
L 130.298357 -202.538992 
L 129.787575 -202.630281 
L 129.276794 -202.722214 
L 128.766012 -202.814774 
L 128.25523 -202.907949 
L 127.744449 -203.001724 
L 127.233667 -203.096082 
L 126.722886 -203.19101 
L 126.212104 -203.286493 
L 125.701323 -203.382514 
L 125.190541 -203.47906 
L 124.67976 -203.576114 
L 124.168978 -203.673662 
L 123.658196 -203.771687 
L 123.147415 -203.870175 
L 122.636633 -203.96911 
L 122.125852 -204.068475 
L 121.61507 -204.168256 
L 121.104289 -204.268436 
L 120.593507 -204.369 
L 120.082725 -204.469931 
L 119.571944 -204.571214 
L 119.061162 -204.672833 
L 118.550381 -204.774771 
L 118.039599 -204.877012 
L 117.528818 -204.97954 
L 117.018036 -205.082339 
L 116.507255 -205.185393 
L 115.996473 -205.288684 
L 115.485691 -205.392198 
L 114.97491 -205.495917 
L 114.464128 -205.599825 
L 113.953347 -205.703905 
L 113.442565 -205.808141 
L 112.931784 -205.912517 
L 112.421002 -206.017016 
L 111.91022 -206.12162 
L 111.399439 -206.226315 
L 110.888657 -206.331083 
L 110.377876 -206.435907 
L 109.867094 -206.540771 
L 109.356313 -206.645659 
L 108.845531 -206.750553 
L 108.334749 -206.855437 
L 107.823968 -206.960295 
L 107.313186 -207.065109 
L 106.802405 -207.169864 
L 106.291623 -207.274542 
L 105.780842 -207.379127 
L 105.27006 -207.483602 
L 104.759279 -207.587951 
L 104.248497 -207.692158 
L 103.737715 -207.796205 
L 103.226934 -207.900076 
L 102.716152 -208.003755 
L 102.205371 -208.107226 
L 101.694589 -208.210471 
L 101.183808 -208.313475 
L 100.673026 -208.416222 
L 100.162244 -208.518694 
L 99.651463 -208.620875 
L 99.140681 -208.722751 
L 98.6299 -208.824303 
L 98.119118 -208.925517 
L 97.608337 -209.026376 
L 97.097555 -209.126865 
L 96.586774 -209.226966 
L 96.075992 -209.326665 
L 95.56521 -209.425946 
L 95.054429 -209.524792 
L 94.543647 -209.623189 
L 94.032866 -209.72112 
L 93.522084 -209.81857 
L 93.011303 -209.915524 
L 92.500521 -210.011966 
L 91.989739 -210.107881 
L 91.478958 -210.203254 
L 90.968176 -210.298069 
L 90.457395 -210.392312 
L 89.946613 -210.485968 
L 89.435832 -210.579021 
L 88.92505 -210.671457 
L 88.414269 -210.763262 
L 87.903487 -210.854421 
L 87.392705 -210.944919 
L 86.881924 -211.034742 
L 86.371142 -211.123875 
L 85.860361 -211.212306 
L 85.349579 -211.300019 
L 84.838798 -211.387001 
L 84.328016 -211.473237 
L 83.817234 -211.558715 
L 83.306453 -211.643421 
L 82.795671 -211.727341 
L 82.28489 -211.810462 
L 81.774108 -211.892771 
L 81.263327 -211.974254 
L 80.752545 -212.0549 
L 80.241764 -212.134694 
L 79.730982 -212.213625 
L 79.2202 -212.291679 
L 78.709419 -212.368846 
L 78.198637 -212.445111 
L 77.687856 -212.520464 
L 77.177074 -212.594891 
L 76.666293 -212.668383 
L 76.155511 -212.740926 
L 75.644729 -212.812509 
L 75.133948 -212.883121 
L 74.623166 -212.952751 
L 74.112385 -213.021388 
L 73.601603 -213.08902 
L 73.090822 -213.155638 
L 72.58004 -213.22123 
L 72.069259 -213.285786 
L 71.558477 -213.349296 
L 71.047695 -213.41175 
L 70.536914 -213.473138 
L 70.026132 -213.53345 
L 69.515351 -213.592677 
L 69.004569 -213.650809 
L 68.493788 -213.707837 
L 67.983006 -213.763752 
L 67.472224 -213.818545 
L 66.961443 -213.872207 
L 66.450661 -213.92473 
L 65.93988 -213.976106 
L 65.429098 -214.026327 
L 64.918317 -214.075384 
L 64.407535 -214.123269 
L 63.896754 -214.169976 
L 63.385972 -214.215496 
L 62.87519 -214.259823 
L 62.364409 -214.30295 
L 61.853627 -214.344869 
L 61.342846 -214.385573 
L 60.832064 -214.425058 
L 60.321283 -214.463316 
L 59.810501 -214.500341 
L 59.299719 -214.536127 
L 58.788938 -214.570669 
L 58.278156 -214.603961 
L 57.767375 -214.635998 
L 57.256593 -214.666775 
L 56.745812 -214.696287 
L 56.23503 -214.724529 
L 55.724248 -214.751497 
L 55.213467 -214.777186 
L 54.702685 -214.801593 
L 54.191904 -214.824713 
L 53.681122 -214.846544 
L 53.170341 -214.86708 
L 52.659559 -214.88632 
L 52.148778 -214.90426 
L 51.637996 -214.920897 
L 51.127214 -214.936229 
L 50.616433 -214.950254 
L 50.105651 -214.962968 
L 49.59487 -214.97437 
L 49.084088 -214.984458 
L 48.573307 -214.993231 
L 48.062525 -215.000687 
L 47.551743 -215.006826 
L 47.040962 -215.011645 
L 46.53018 -215.015144 
L 46.019399 -215.017323 
L 45.508617 -215.018182 
L 44.997836 -215.01772 
L 44.487054 -215.015937 
L 43.976273 -215.012833 
L 43.465491 -215.00841 
L 42.954709 -215.002667 
L 42.443928 -214.995607 
L 41.933146 -214.987228 
L 41.422365 -214.977535 
L 40.911583 -214.966526 
L 40.400802 -214.954206 
L 39.89002 -214.940574 
L 39.379238 -214.925634 
L 38.868457 -214.909388 
L 38.357675 -214.891839 
L 37.846894 -214.872989 
L 37.336112 -214.852841 
L 36.825331 -214.831398 
L 36.314549 -214.808664 
L 35.803768 -214.784643 
L 35.292986 -214.759338 
L 34.782204 -214.732753 
L 34.271423 -214.704893 
L 33.760641 -214.675762 
L 33.24986 -214.645364 
L 32.739078 -214.613704 
L 32.228297 -214.580788 
L 31.717515 -214.546621 
L 31.206733 -214.511207 
L 30.695952 -214.474553 
L 30.18517 -214.436664 
L 29.674389 -214.397547 
L 29.163607 -214.357208 
L 28.652826 -214.315652 
L 28.142044 -214.272887 
L 27.631263 -214.22892 
L 27.120481 -214.183757 
L 26.609699 -214.137405 
L 26.098918 -214.089873 
L 25.588136 -214.041166 
L 25.077355 -213.991294 
L 24.566573 -213.940264 
L 24.055792 -213.888084 
L 23.54501 -213.834762 
L 23.034228 -213.780308 
L 22.523447 -213.724728 
L 22.012665 -213.668033 
L 21.501884 -213.610232 
L 20.991102 -213.551332 
L 20.480321 -213.491345 
L 19.969539 -213.430279 
L 19.458758 -213.368144 
L 18.947976 -213.304949 
L 18.437194 -213.240706 
L 17.926413 -213.175424 
L 17.415631 -213.109113 
L 16.90485 -213.041783 
L 16.394068 -212.973447 
L 15.883287 -212.904114 
L 15.372505 -212.833795 
L 14.861723 -212.762502 
L 14.350942 -212.690246 
L 13.84016 -212.617038 
L 13.329379 -212.54289 
L 12.818597 -212.467813 
L 12.307816 -212.39182 
L 11.797034 -212.314923 
L 11.286253 -212.237134 
L 10.775471 -212.158464 
L 10.264689 -212.078928 
L 9.753908 -211.998536 
L 9.243126 -211.917303 
L 8.732345 -211.835241 
L 8.221563 -211.752362 
L 7.710782 -211.66868 
L 7.2 -211.584209 
z
" style="stroke: #0000ff; stroke-opacity: 0.1"/>
    </defs>
    <g clip-path="url(#p6cea348e77)">
     <use xlink:href="#m890f68b875" x="0" y="338.4" style="fill: #0000ff; fill-opacity: 0.1; stroke: #0000ff; stroke-opacity: 0.1"/>
    </g>
   </g>
   <g id="patch_2">
    <path d="M 58.176 131.745235 
L 58.55832 132.120111 
L 58.30344 132.120111 
L 58.30344 215.018182 
L 58.04856 215.018182 
L 58.04856 132.120111 
L 57.79368 132.120111 
z
" clip-path="url(#p6cea348e77)" style="fill: #0000ff; stroke: #0000ff; stroke-width: 2; stroke-linejoin: miter"/>
   </g>
   <g id="patch_3">
    <path d="M 134.64 144.564679 
L 135.02232 144.939555 
L 134.76744 144.939555 
L 134.76744 215.018182 
L 134.51256 215.018182 
L 134.51256 144.939555 
L 134.25768 144.939555 
z
" clip-path="url(#p6cea348e77)" style="fill: #0000ff; stroke: #0000ff; stroke-width: 2; stroke-linejoin: miter"/>
   </g>
   <g id="patch_4">
    <path d="M 211.104 144.564679 
L 211.48632 144.939555 
L 211.23144 144.939555 
L 211.23144 215.018182 
L 210.97656 215.018182 
L 210.97656 144.939555 
L 210.72168 144.939555 
z
" clip-path="url(#p6cea348e77)" style="fill: #0000ff; stroke: #0000ff; stroke-width: 2; stroke-linejoin: miter"/>
   </g>
   <g id="line2d_1">
    <defs>
     <path id="m13042af388" d="M -3 3 
L 3 -3 
M -3 -3 
L 3 3 
" style="stroke: #000000; stroke-width: 2"/>
    </defs>
    <g clip-path="url(#p6cea348e77)">
     <use xlink:href="#m13042af388" x="58.176" y="215.018182" style="stroke: #000000; stroke-width: 2"/>
     <use xlink:href="#m13042af388" x="134.64" y="215.018182" style="stroke: #000000; stroke-width: 2"/>
     <use xlink:href="#m13042af388" x="211.104" y="215.018182" style="stroke: #000000; stroke-width: 2"/>
    </g>
   </g>
   <g id="patch_5">
    <path d="M 86.012568 194.191732 
Q 73.095001 194.191732 61.295467 194.191732 
" style="fill: none; stroke: #000000; stroke-linecap: round"/>
    <path d="M 65.295467 196.191732 
L 61.295467 194.191732 
L 65.295467 192.191732 
" style="fill: none; stroke: #000000; stroke-linecap: round"/>
   </g>
   <g id="text_2">
    <!-- $\Delta x$ -->
    <g transform="translate(90.008 196.951107)scale(0.1 -0.1)">
     <defs>
      <path id="DejaVuSans-394" d="M 2188 4044 
L 906 525 
L 3472 525 
L 2188 4044 
z
M 50 0 
L 1831 4666 
L 2547 4666 
L 4325 0 
L 50 0 
z
" transform="scale(0.015625)"/>
      <path id="DejaVuSans-Oblique-78" d="M 3841 3500 
L 2234 1784 
L 3219 0 
L 2559 0 
L 1819 1388 
L 531 0 
L -166 0 
L 1556 1844 
L 641 3500 
L 1300 3500 
L 1972 2234 
L 3144 3500 
L 3841 3500 
z
" transform="scale(0.015625)"/>
     </defs>
     <use xlink:href="#DejaVuSans-394" transform="translate(0 0.09375)"/>
     <use xlink:href="#DejaVuSans-Oblique-78" transform="translate(68.408203 0.09375)"/>
    </g>
   </g>
   <g id="patch_6">
    <path d="M 106.051873 194.191732 
Q 119.34612 194.191732 131.522333 194.191732 
" style="fill: none; stroke: #000000; stroke-linecap: round"/>
    <path d="M 127.522333 192.191732 
L 131.522333 194.191732 
L 127.522333 196.191732 
" style="fill: none; stroke: #000000; stroke-linecap: round"/>
   </g>
  </g>
  <g id="axes_3">
   <g id="PolyCollection_3">
    <defs>
     <path id="m82dc2f6f39" d="M 7.2 -99.984209 
L 7.2 -11.781818 
L 7.710782 -11.781818 
L 8.221563 -11.781818 
L 8.732345 -11.781818 
L 9.243126 -11.781818 
L 9.753908 -11.781818 
L 10.264689 -11.781818 
L 10.775471 -11.781818 
L 11.286253 -11.781818 
L 11.797034 -11.781818 
L 12.307816 -11.781818 
L 12.818597 -11.781818 
L 13.329379 -11.781818 
L 13.84016 -11.781818 
L 14.350942 -11.781818 
L 14.861723 -11.781818 
L 15.372505 -11.781818 
L 15.883287 -11.781818 
L 16.394068 -11.781818 
L 16.90485 -11.781818 
L 17.415631 -11.781818 
L 17.926413 -11.781818 
L 18.437194 -11.781818 
L 18.947976 -11.781818 
L 19.458758 -11.781818 
L 19.969539 -11.781818 
L 20.480321 -11.781818 
L 20.991102 -11.781818 
L 21.501884 -11.781818 
L 22.012665 -11.781818 
L 22.523447 -11.781818 
L 23.034228 -11.781818 
L 23.54501 -11.781818 
L 24.055792 -11.781818 
L 24.566573 -11.781818 
L 25.077355 -11.781818 
L 25.588136 -11.781818 
L 26.098918 -11.781818 
L 26.609699 -11.781818 
L 27.120481 -11.781818 
L 27.631263 -11.781818 
L 28.142044 -11.781818 
L 28.652826 -11.781818 
L 29.163607 -11.781818 
L 29.674389 -11.781818 
L 30.18517 -11.781818 
L 30.695952 -11.781818 
L 31.206733 -11.781818 
L 31.717515 -11.781818 
L 32.228297 -11.781818 
L 32.739078 -11.781818 
L 33.24986 -11.781818 
L 33.760641 -11.781818 
L 34.271423 -11.781818 
L 34.782204 -11.781818 
L 35.292986 -11.781818 
L 35.803768 -11.781818 
L 36.314549 -11.781818 
L 36.825331 -11.781818 
L 37.336112 -11.781818 
L 37.846894 -11.781818 
L 38.357675 -11.781818 
L 38.868457 -11.781818 
L 39.379238 -11.781818 
L 39.89002 -11.781818 
L 40.400802 -11.781818 
L 40.911583 -11.781818 
L 41.422365 -11.781818 
L 41.933146 -11.781818 
L 42.443928 -11.781818 
L 42.954709 -11.781818 
L 43.465491 -11.781818 
L 43.976273 -11.781818 
L 44.487054 -11.781818 
L 44.997836 -11.781818 
L 45.508617 -11.781818 
L 46.019399 -11.781818 
L 46.53018 -11.781818 
L 47.040962 -11.781818 
L 47.551743 -11.781818 
L 48.062525 -11.781818 
L 48.573307 -11.781818 
L 49.084088 -11.781818 
L 49.59487 -11.781818 
L 50.105651 -11.781818 
L 50.616433 -11.781818 
L 51.127214 -11.781818 
L 51.637996 -11.781818 
L 52.148778 -11.781818 
L 52.659559 -11.781818 
L 53.170341 -11.781818 
L 53.681122 -11.781818 
L 54.191904 -11.781818 
L 54.702685 -11.781818 
L 55.213467 -11.781818 
L 55.724248 -11.781818 
L 56.23503 -11.781818 
L 56.745812 -11.781818 
L 57.256593 -11.781818 
L 57.767375 -11.781818 
L 58.278156 -11.781818 
L 58.788938 -11.781818 
L 59.299719 -11.781818 
L 59.810501 -11.781818 
L 60.321283 -11.781818 
L 60.832064 -11.781818 
L 61.342846 -11.781818 
L 61.853627 -11.781818 
L 62.364409 -11.781818 
L 62.87519 -11.781818 
L 63.385972 -11.781818 
L 63.896754 -11.781818 
L 64.407535 -11.781818 
L 64.918317 -11.781818 
L 65.429098 -11.781818 
L 65.93988 -11.781818 
L 66.450661 -11.781818 
L 66.961443 -11.781818 
L 67.472224 -11.781818 
L 67.983006 -11.781818 
L 68.493788 -11.781818 
L 69.004569 -11.781818 
L 69.515351 -11.781818 
L 70.026132 -11.781818 
L 70.536914 -11.781818 
L 71.047695 -11.781818 
L 71.558477 -11.781818 
L 72.069259 -11.781818 
L 72.58004 -11.781818 
L 73.090822 -11.781818 
L 73.601603 -11.781818 
L 74.112385 -11.781818 
L 74.623166 -11.781818 
L 75.133948 -11.781818 
L 75.644729 -11.781818 
L 76.155511 -11.781818 
L 76.666293 -11.781818 
L 77.177074 -11.781818 
L 77.687856 -11.781818 
L 78.198637 -11.781818 
L 78.709419 -11.781818 
L 79.2202 -11.781818 
L 79.730982 -11.781818 
L 80.241764 -11.781818 
L 80.752545 -11.781818 
L 81.263327 -11.781818 
L 81.774108 -11.781818 
L 82.28489 -11.781818 
L 82.795671 -11.781818 
L 83.306453 -11.781818 
L 83.817234 -11.781818 
L 84.328016 -11.781818 
L 84.838798 -11.781818 
L 85.349579 -11.781818 
L 85.860361 -11.781818 
L 86.371142 -11.781818 
L 86.881924 -11.781818 
L 87.392705 -11.781818 
L 87.903487 -11.781818 
L 88.414269 -11.781818 
L 88.92505 -11.781818 
L 89.435832 -11.781818 
L 89.946613 -11.781818 
L 90.457395 -11.781818 
L 90.968176 -11.781818 
L 91.478958 -11.781818 
L 91.989739 -11.781818 
L 92.500521 -11.781818 
L 93.011303 -11.781818 
L 93.522084 -11.781818 
L 94.032866 -11.781818 
L 94.543647 -11.781818 
L 95.054429 -11.781818 
L 95.56521 -11.781818 
L 96.075992 -11.781818 
L 96.586774 -11.781818 
L 97.097555 -11.781818 
L 97.608337 -11.781818 
L 98.119118 -11.781818 
L 98.6299 -11.781818 
L 99.140681 -11.781818 
L 99.651463 -11.781818 
L 100.162244 -11.781818 
L 100.673026 -11.781818 
L 101.183808 -11.781818 
L 101.694589 -11.781818 
L 102.205371 -11.781818 
L 102.716152 -11.781818 
L 103.226934 -11.781818 
L 103.737715 -11.781818 
L 104.248497 -11.781818 
L 104.759279 -11.781818 
L 105.27006 -11.781818 
L 105.780842 -11.781818 
L 106.291623 -11.781818 
L 106.802405 -11.781818 
L 107.313186 -11.781818 
L 107.823968 -11.781818 
L 108.334749 -11.781818 
L 108.845531 -11.781818 
L 109.356313 -11.781818 
L 109.867094 -11.781818 
L 110.377876 -11.781818 
L 110.888657 -11.781818 
L 111.399439 -11.781818 
L 111.91022 -11.781818 
L 112.421002 -11.781818 
L 112.931784 -11.781818 
L 113.442565 -11.781818 
L 113.953347 -11.781818 
L 114.464128 -11.781818 
L 114.97491 -11.781818 
L 115.485691 -11.781818 
L 115.996473 -11.781818 
L 116.507255 -11.781818 
L 117.018036 -11.781818 
L 117.528818 -11.781818 
L 118.039599 -11.781818 
L 118.550381 -11.781818 
L 119.061162 -11.781818 
L 119.571944 -11.781818 
L 120.082725 -11.781818 
L 120.593507 -11.781818 
L 121.104289 -11.781818 
L 121.61507 -11.781818 
L 122.125852 -11.781818 
L 122.636633 -11.781818 
L 123.147415 -11.781818 
L 123.658196 -11.781818 
L 124.168978 -11.781818 
L 124.67976 -11.781818 
L 125.190541 -11.781818 
L 125.701323 -11.781818 
L 126.212104 -11.781818 
L 126.722886 -11.781818 
L 127.233667 -11.781818 
L 127.744449 -11.781818 
L 128.25523 -11.781818 
L 128.766012 -11.781818 
L 129.276794 -11.781818 
L 129.787575 -11.781818 
L 130.298357 -11.781818 
L 130.809138 -11.781818 
L 131.31992 -11.781818 
L 131.830701 -11.781818 
L 132.341483 -11.781818 
L 132.852265 -11.781818 
L 133.363046 -11.781818 
L 133.873828 -11.781818 
L 134.384609 -11.781818 
L 134.895391 -11.781818 
L 135.406172 -11.781818 
L 135.916954 -11.781818 
L 136.427735 -11.781818 
L 136.938517 -11.781818 
L 137.449299 -11.781818 
L 137.96008 -11.781818 
L 138.470862 -11.781818 
L 138.981643 -11.781818 
L 139.492425 -11.781818 
L 140.003206 -11.781818 
L 140.513988 -11.781818 
L 141.02477 -11.781818 
L 141.535551 -11.781818 
L 142.046333 -11.781818 
L 142.557114 -11.781818 
L 143.067896 -11.781818 
L 143.578677 -11.781818 
L 144.089459 -11.781818 
L 144.60024 -11.781818 
L 145.111022 -11.781818 
L 145.621804 -11.781818 
L 146.132585 -11.781818 
L 146.643367 -11.781818 
L 147.154148 -11.781818 
L 147.66493 -11.781818 
L 148.175711 -11.781818 
L 148.686493 -11.781818 
L 149.197275 -11.781818 
L 149.708056 -11.781818 
L 150.218838 -11.781818 
L 150.729619 -11.781818 
L 151.240401 -11.781818 
L 151.751182 -11.781818 
L 152.261964 -11.781818 
L 152.772745 -11.781818 
L 153.283527 -11.781818 
L 153.794309 -11.781818 
L 154.30509 -11.781818 
L 154.815872 -11.781818 
L 155.326653 -11.781818 
L 155.837435 -11.781818 
L 156.348216 -11.781818 
L 156.858998 -11.781818 
L 157.36978 -11.781818 
L 157.880561 -11.781818 
L 158.391343 -11.781818 
L 158.902124 -11.781818 
L 159.412906 -11.781818 
L 159.923687 -11.781818 
L 160.434469 -11.781818 
L 160.945251 -11.781818 
L 161.456032 -11.781818 
L 161.966814 -11.781818 
L 162.477595 -11.781818 
L 162.988377 -11.781818 
L 163.499158 -11.781818 
L 164.00994 -11.781818 
L 164.520721 -11.781818 
L 165.031503 -11.781818 
L 165.542285 -11.781818 
L 166.053066 -11.781818 
L 166.563848 -11.781818 
L 167.074629 -11.781818 
L 167.585411 -11.781818 
L 168.096192 -11.781818 
L 168.606974 -11.781818 
L 169.117756 -11.781818 
L 169.628537 -11.781818 
L 170.139319 -11.781818 
L 170.6501 -11.781818 
L 171.160882 -11.781818 
L 171.671663 -11.781818 
L 172.182445 -11.781818 
L 172.693226 -11.781818 
L 173.204008 -11.781818 
L 173.71479 -11.781818 
L 174.225571 -11.781818 
L 174.736353 -11.781818 
L 175.247134 -11.781818 
L 175.757916 -11.781818 
L 176.268697 -11.781818 
L 176.779479 -11.781818 
L 177.290261 -11.781818 
L 177.801042 -11.781818 
L 178.311824 -11.781818 
L 178.822605 -11.781818 
L 179.333387 -11.781818 
L 179.844168 -11.781818 
L 180.35495 -11.781818 
L 180.865731 -11.781818 
L 181.376513 -11.781818 
L 181.887295 -11.781818 
L 182.398076 -11.781818 
L 182.908858 -11.781818 
L 183.419639 -11.781818 
L 183.930421 -11.781818 
L 184.441202 -11.781818 
L 184.951984 -11.781818 
L 185.462766 -11.781818 
L 185.973547 -11.781818 
L 186.484329 -11.781818 
L 186.99511 -11.781818 
L 187.505892 -11.781818 
L 188.016673 -11.781818 
L 188.527455 -11.781818 
L 189.038236 -11.781818 
L 189.549018 -11.781818 
L 190.0598 -11.781818 
L 190.570581 -11.781818 
L 191.081363 -11.781818 
L 191.592144 -11.781818 
L 192.102926 -11.781818 
L 192.613707 -11.781818 
L 193.124489 -11.781818 
L 193.635271 -11.781818 
L 194.146052 -11.781818 
L 194.656834 -11.781818 
L 195.167615 -11.781818 
L 195.678397 -11.781818 
L 196.189178 -11.781818 
L 196.69996 -11.781818 
L 197.210741 -11.781818 
L 197.721523 -11.781818 
L 198.232305 -11.781818 
L 198.743086 -11.781818 
L 199.253868 -11.781818 
L 199.764649 -11.781818 
L 200.275431 -11.781818 
L 200.786212 -11.781818 
L 201.296994 -11.781818 
L 201.807776 -11.781818 
L 202.318557 -11.781818 
L 202.829339 -11.781818 
L 203.34012 -11.781818 
L 203.850902 -11.781818 
L 204.361683 -11.781818 
L 204.872465 -11.781818 
L 205.383246 -11.781818 
L 205.894028 -11.781818 
L 206.40481 -11.781818 
L 206.915591 -11.781818 
L 207.426373 -11.781818 
L 207.937154 -11.781818 
L 208.447936 -11.781818 
L 208.958717 -11.781818 
L 209.469499 -11.781818 
L 209.980281 -11.781818 
L 210.491062 -11.781818 
L 211.001844 -11.781818 
L 211.512625 -11.781818 
L 212.023407 -11.781818 
L 212.534188 -11.781818 
L 213.04497 -11.781818 
L 213.555752 -11.781818 
L 214.066533 -11.781818 
L 214.577315 -11.781818 
L 215.088096 -11.781818 
L 215.598878 -11.781818 
L 216.109659 -11.781818 
L 216.620441 -11.781818 
L 217.131222 -11.781818 
L 217.642004 -11.781818 
L 218.152786 -11.781818 
L 218.663567 -11.781818 
L 219.174349 -11.781818 
L 219.68513 -11.781818 
L 220.195912 -11.781818 
L 220.706693 -11.781818 
L 221.217475 -11.781818 
L 221.728257 -11.781818 
L 222.239038 -11.781818 
L 222.74982 -11.781818 
L 223.260601 -11.781818 
L 223.771383 -11.781818 
L 224.282164 -11.781818 
L 224.792946 -11.781818 
L 225.303727 -11.781818 
L 225.814509 -11.781818 
L 226.325291 -11.781818 
L 226.836072 -11.781818 
L 227.346854 -11.781818 
L 227.857635 -11.781818 
L 228.368417 -11.781818 
L 228.879198 -11.781818 
L 229.38998 -11.781818 
L 229.900762 -11.781818 
L 230.411543 -11.781818 
L 230.922325 -11.781818 
L 231.433106 -11.781818 
L 231.943888 -11.781818 
L 232.454669 -11.781818 
L 232.965451 -11.781818 
L 233.476232 -11.781818 
L 233.987014 -11.781818 
L 234.497796 -11.781818 
L 235.008577 -11.781818 
L 235.519359 -11.781818 
L 236.03014 -11.781818 
L 236.540922 -11.781818 
L 237.051703 -11.781818 
L 237.562485 -11.781818 
L 238.073267 -11.781818 
L 238.584048 -11.781818 
L 239.09483 -11.781818 
L 239.605611 -11.781818 
L 240.116393 -11.781818 
L 240.627174 -11.781818 
L 241.137956 -11.781818 
L 241.648737 -11.781818 
L 242.159519 -11.781818 
L 242.670301 -11.781818 
L 243.181082 -11.781818 
L 243.691864 -11.781818 
L 244.202645 -11.781818 
L 244.713427 -11.781818 
L 245.224208 -11.781818 
L 245.73499 -11.781818 
L 246.245772 -11.781818 
L 246.756553 -11.781818 
L 247.267335 -11.781818 
L 247.778116 -11.781818 
L 248.288898 -11.781818 
L 248.799679 -11.781818 
L 249.310461 -11.781818 
L 249.821242 -11.781818 
L 250.332024 -11.781818 
L 250.842806 -11.781818 
L 251.353587 -11.781818 
L 251.864369 -11.781818 
L 252.37515 -11.781818 
L 252.885932 -11.781818 
L 253.396713 -11.781818 
L 253.907495 -11.781818 
L 254.418277 -11.781818 
L 254.929058 -11.781818 
L 255.43984 -11.781818 
L 255.950621 -11.781818 
L 256.461403 -11.781818 
L 256.972184 -11.781818 
L 257.482966 -11.781818 
L 257.993747 -11.781818 
L 258.504529 -11.781818 
L 259.015311 -11.781818 
L 259.526092 -11.781818 
L 260.036874 -11.781818 
L 260.547655 -11.781818 
L 261.058437 -11.781818 
L 261.569218 -11.781818 
L 262.08 -11.781818 
L 262.08 -99.984209 
L 262.08 -99.984209 
L 261.569218 -99.898961 
L 261.058437 -99.812951 
L 260.547655 -99.726191 
L 260.036874 -99.638696 
L 259.526092 -99.550479 
L 259.015311 -99.461555 
L 258.504529 -99.371937 
L 257.993747 -99.28164 
L 257.482966 -99.190678 
L 256.972184 -99.099066 
L 256.461403 -99.006817 
L 255.950621 -98.913948 
L 255.43984 -98.820471 
L 254.929058 -98.726403 
L 254.418277 -98.631758 
L 253.907495 -98.536551 
L 253.396713 -98.440797 
L 252.885932 -98.344511 
L 252.37515 -98.247709 
L 251.864369 -98.150406 
L 251.353587 -98.052618 
L 250.842806 -97.954359 
L 250.332024 -97.855646 
L 249.821242 -97.756494 
L 249.310461 -97.656919 
L 248.799679 -97.556937 
L 248.288898 -97.456563 
L 247.778116 -97.355813 
L 247.267335 -97.254704 
L 246.756553 -97.153251 
L 246.245772 -97.051471 
L 245.73499 -96.949379 
L 245.224208 -96.846993 
L 244.713427 -96.744327 
L 244.202645 -96.641399 
L 243.691864 -96.538224 
L 243.181082 -96.434819 
L 242.670301 -96.331201 
L 242.159519 -96.227386 
L 241.648737 -96.123389 
L 241.137956 -96.019229 
L 240.627174 -95.914921 
L 240.116393 -95.810482 
L 239.605611 -95.705928 
L 239.09483 -95.601276 
L 238.584048 -95.496543 
L 238.073267 -95.391745 
L 237.562485 -95.286898 
L 237.051703 -95.18202 
L 236.540922 -95.077127 
L 236.03014 -94.972236 
L 235.519359 -94.867363 
L 235.008577 -94.762525 
L 234.497796 -94.657739 
L 233.987014 -94.55302 
L 233.476232 -94.448387 
L 232.965451 -94.343854 
L 232.454669 -94.23944 
L 231.943888 -94.13516 
L 231.433106 -94.031031 
L 230.922325 -93.92707 
L 230.411543 -93.823293 
L 229.900762 -93.719716 
L 229.38998 -93.616356 
L 228.879198 -93.513229 
L 228.368417 -93.410352 
L 227.857635 -93.307741 
L 227.346854 -93.205412 
L 226.836072 -93.103381 
L 226.325291 -93.001665 
L 225.814509 -92.90028 
L 225.303727 -92.799241 
L 224.792946 -92.698566 
L 224.282164 -92.598269 
L 223.771383 -92.498367 
L 223.260601 -92.398875 
L 222.74982 -92.299809 
L 222.239038 -92.201186 
L 221.728257 -92.10302 
L 221.217475 -92.005327 
L 220.706693 -91.908124 
L 220.195912 -91.811424 
L 219.68513 -91.715243 
L 219.174349 -91.619597 
L 218.663567 -91.524502 
L 218.152786 -91.429971 
L 217.642004 -91.336019 
L 217.131222 -91.242663 
L 216.620441 -91.149916 
L 216.109659 -91.057794 
L 215.598878 -90.966311 
L 215.088096 -90.87548 
L 214.577315 -90.785318 
L 214.066533 -90.695838 
L 213.555752 -90.607054 
L 213.04497 -90.518981 
L 212.534188 -90.431632 
L 212.023407 -90.345021 
L 211.512625 -90.259162 
L 211.001844 -90.174068 
L 210.491062 -90.089754 
L 209.980281 -90.006231 
L 209.469499 -89.923515 
L 208.958717 -89.841617 
L 208.447936 -89.760551 
L 207.937154 -89.68033 
L 207.426373 -89.600966 
L 206.915591 -89.522471 
L 206.40481 -89.444859 
L 205.894028 -89.368142 
L 205.383246 -89.292332 
L 204.872465 -89.21744 
L 204.361683 -89.143479 
L 203.850902 -89.07046 
L 203.34012 -88.998396 
L 202.829339 -88.927296 
L 202.318557 -88.857174 
L 201.807776 -88.788039 
L 201.296994 -88.719903 
L 200.786212 -88.652777 
L 200.275431 -88.586671 
L 199.764649 -88.521595 
L 199.253868 -88.457561 
L 198.743086 -88.394578 
L 198.232305 -88.332656 
L 197.721523 -88.271804 
L 197.210741 -88.212034 
L 196.69996 -88.153353 
L 196.189178 -88.095772 
L 195.678397 -88.0393 
L 195.167615 -87.983945 
L 194.656834 -87.929716 
L 194.146052 -87.876622 
L 193.635271 -87.824671 
L 193.124489 -87.773872 
L 192.613707 -87.724233 
L 192.102926 -87.67576 
L 191.592144 -87.628463 
L 191.081363 -87.582349 
L 190.570581 -87.537424 
L 190.0598 -87.493697 
L 189.549018 -87.451173 
L 189.038236 -87.40986 
L 188.527455 -87.369765 
L 188.016673 -87.330893 
L 187.505892 -87.293251 
L 186.99511 -87.256845 
L 186.484329 -87.22168 
L 185.973547 -87.187762 
L 185.462766 -87.155097 
L 184.951984 -87.123689 
L 184.441202 -87.093544 
L 183.930421 -87.064667 
L 183.419639 -87.037061 
L 182.908858 -87.010732 
L 182.398076 -86.985684 
L 181.887295 -86.96192 
L 181.376513 -86.939444 
L 180.865731 -86.91826 
L 180.35495 -86.898371 
L 179.844168 -86.879781 
L 179.333387 -86.862492 
L 178.822605 -86.846507 
L 178.311824 -86.831828 
L 177.801042 -86.818459 
L 177.290261 -86.806401 
L 176.779479 -86.795655 
L 176.268697 -86.786224 
L 175.757916 -86.77811 
L 175.247134 -86.771312 
L 174.736353 -86.765834 
L 174.225571 -86.761674 
L 173.71479 -86.758835 
L 173.204008 -86.757316 
L 172.693226 -86.757118 
L 172.182445 -86.75824 
L 171.671663 -86.760684 
L 171.160882 -86.764447 
L 170.6501 -86.76953 
L 170.139319 -86.775932 
L 169.628537 -86.783652 
L 169.117756 -86.792688 
L 168.606974 -86.803039 
L 168.096192 -86.814704 
L 167.585411 -86.82768 
L 167.074629 -86.841966 
L 166.563848 -86.857559 
L 166.053066 -86.874457 
L 165.542285 -86.892658 
L 165.031503 -86.912157 
L 164.520721 -86.932953 
L 164.00994 -86.955041 
L 163.499158 -86.978419 
L 162.988377 -87.003083 
L 162.477595 -87.029028 
L 161.966814 -87.056251 
L 161.456032 -87.084748 
L 160.945251 -87.114513 
L 160.434469 -87.145542 
L 159.923687 -87.177831 
L 159.412906 -87.211373 
L 158.902124 -87.246165 
L 158.391343 -87.282199 
L 157.880561 -87.319471 
L 157.36978 -87.357975 
L 156.858998 -87.397704 
L 156.348216 -87.438652 
L 155.837435 -87.480813 
L 155.326653 -87.52418 
L 154.815872 -87.568746 
L 154.30509 -87.614504 
L 153.794309 -87.661448 
L 153.283527 -87.709568 
L 152.772745 -87.758858 
L 152.261964 -87.80931 
L 151.751182 -87.860916 
L 151.240401 -87.913668 
L 150.729619 -87.967558 
L 150.218838 -88.022576 
L 149.708056 -88.078714 
L 149.197275 -88.135963 
L 148.686493 -88.194315 
L 148.175711 -88.253759 
L 147.66493 -88.314287 
L 147.154148 -88.375889 
L 146.643367 -88.438555 
L 146.132585 -88.502275 
L 145.621804 -88.56704 
L 145.111022 -88.632838 
L 144.60024 -88.699659 
L 144.089459 -88.767493 
L 143.578677 -88.836329 
L 143.067896 -88.906157 
L 142.557114 -88.976964 
L 142.046333 -89.04874 
L 141.535551 -89.121474 
L 141.02477 -89.195153 
L 140.513988 -89.269767 
L 140.003206 -89.345303 
L 139.492425 -89.42175 
L 138.981643 -89.499094 
L 138.470862 -89.577325 
L 137.96008 -89.65643 
L 137.449299 -89.736395 
L 136.938517 -89.817209 
L 136.427735 -89.898859 
L 135.916954 -89.981331 
L 135.406172 -90.064613 
L 134.895391 -90.148691 
L 134.384609 -90.233552 
L 133.873828 -90.319183 
L 133.363046 -90.40557 
L 132.852265 -90.492699 
L 132.341483 -90.580557 
L 131.830701 -90.669129 
L 131.31992 -90.758402 
L 130.809138 -90.848361 
L 130.298357 -90.938992 
L 129.787575 -91.030281 
L 129.276794 -91.122214 
L 128.766012 -91.214774 
L 128.25523 -91.307949 
L 127.744449 -91.401724 
L 127.233667 -91.496082 
L 126.722886 -91.59101 
L 126.212104 -91.686493 
L 125.701323 -91.782514 
L 125.190541 -91.87906 
L 124.67976 -91.976114 
L 124.168978 -92.073662 
L 123.658196 -92.171687 
L 123.147415 -92.270175 
L 122.636633 -92.36911 
L 122.125852 -92.468475 
L 121.61507 -92.568256 
L 121.104289 -92.668436 
L 120.593507 -92.769 
L 120.082725 -92.869931 
L 119.571944 -92.971214 
L 119.061162 -93.072833 
L 118.550381 -93.174771 
L 118.039599 -93.277012 
L 117.528818 -93.37954 
L 117.018036 -93.482339 
L 116.507255 -93.585393 
L 115.996473 -93.688684 
L 115.485691 -93.792198 
L 114.97491 -93.895917 
L 114.464128 -93.999825 
L 113.953347 -94.103905 
L 113.442565 -94.208141 
L 112.931784 -94.312517 
L 112.421002 -94.417016 
L 111.91022 -94.52162 
L 111.399439 -94.626315 
L 110.888657 -94.731083 
L 110.377876 -94.835907 
L 109.867094 -94.940771 
L 109.356313 -95.045659 
L 108.845531 -95.150553 
L 108.334749 -95.255437 
L 107.823968 -95.360295 
L 107.313186 -95.465109 
L 106.802405 -95.569864 
L 106.291623 -95.674542 
L 105.780842 -95.779127 
L 105.27006 -95.883602 
L 104.759279 -95.987951 
L 104.248497 -96.092158 
L 103.737715 -96.196205 
L 103.226934 -96.300076 
L 102.716152 -96.403755 
L 102.205371 -96.507226 
L 101.694589 -96.610471 
L 101.183808 -96.713475 
L 100.673026 -96.816222 
L 100.162244 -96.918694 
L 99.651463 -97.020875 
L 99.140681 -97.122751 
L 98.6299 -97.224303 
L 98.119118 -97.325517 
L 97.608337 -97.426376 
L 97.097555 -97.526865 
L 96.586774 -97.626966 
L 96.075992 -97.726665 
L 95.56521 -97.825946 
L 95.054429 -97.924792 
L 94.543647 -98.023189 
L 94.032866 -98.12112 
L 93.522084 -98.21857 
L 93.011303 -98.315524 
L 92.500521 -98.411966 
L 91.989739 -98.507881 
L 91.478958 -98.603254 
L 90.968176 -98.698069 
L 90.457395 -98.792312 
L 89.946613 -98.885968 
L 89.435832 -98.979021 
L 88.92505 -99.071457 
L 88.414269 -99.163262 
L 87.903487 -99.254421 
L 87.392705 -99.344919 
L 86.881924 -99.434742 
L 86.371142 -99.523875 
L 85.860361 -99.612306 
L 85.349579 -99.700019 
L 84.838798 -99.787001 
L 84.328016 -99.873237 
L 83.817234 -99.958715 
L 83.306453 -100.043421 
L 82.795671 -100.127341 
L 82.28489 -100.210462 
L 81.774108 -100.292771 
L 81.263327 -100.374254 
L 80.752545 -100.4549 
L 80.241764 -100.534694 
L 79.730982 -100.613625 
L 79.2202 -100.691679 
L 78.709419 -100.768846 
L 78.198637 -100.845111 
L 77.687856 -100.920464 
L 77.177074 -100.994891 
L 76.666293 -101.068383 
L 76.155511 -101.140926 
L 75.644729 -101.212509 
L 75.133948 -101.283121 
L 74.623166 -101.352751 
L 74.112385 -101.421388 
L 73.601603 -101.48902 
L 73.090822 -101.555638 
L 72.58004 -101.62123 
L 72.069259 -101.685786 
L 71.558477 -101.749296 
L 71.047695 -101.81175 
L 70.536914 -101.873138 
L 70.026132 -101.93345 
L 69.515351 -101.992677 
L 69.004569 -102.050809 
L 68.493788 -102.107837 
L 67.983006 -102.163752 
L 67.472224 -102.218545 
L 66.961443 -102.272207 
L 66.450661 -102.32473 
L 65.93988 -102.376106 
L 65.429098 -102.426327 
L 64.918317 -102.475384 
L 64.407535 -102.523269 
L 63.896754 -102.569976 
L 63.385972 -102.615496 
L 62.87519 -102.659823 
L 62.364409 -102.70295 
L 61.853627 -102.744869 
L 61.342846 -102.785573 
L 60.832064 -102.825058 
L 60.321283 -102.863316 
L 59.810501 -102.900341 
L 59.299719 -102.936127 
L 58.788938 -102.970669 
L 58.278156 -103.003961 
L 57.767375 -103.035998 
L 57.256593 -103.066775 
L 56.745812 -103.096287 
L 56.23503 -103.124529 
L 55.724248 -103.151497 
L 55.213467 -103.177186 
L 54.702685 -103.201593 
L 54.191904 -103.224713 
L 53.681122 -103.246544 
L 53.170341 -103.26708 
L 52.659559 -103.28632 
L 52.148778 -103.30426 
L 51.637996 -103.320897 
L 51.127214 -103.336229 
L 50.616433 -103.350254 
L 50.105651 -103.362968 
L 49.59487 -103.37437 
L 49.084088 -103.384458 
L 48.573307 -103.393231 
L 48.062525 -103.400687 
L 47.551743 -103.406826 
L 47.040962 -103.411645 
L 46.53018 -103.415144 
L 46.019399 -103.417323 
L 45.508617 -103.418182 
L 44.997836 -103.41772 
L 44.487054 -103.415937 
L 43.976273 -103.412833 
L 43.465491 -103.40841 
L 42.954709 -103.402667 
L 42.443928 -103.395607 
L 41.933146 -103.387228 
L 41.422365 -103.377535 
L 40.911583 -103.366526 
L 40.400802 -103.354206 
L 39.89002 -103.340574 
L 39.379238 -103.325634 
L 38.868457 -103.309388 
L 38.357675 -103.291839 
L 37.846894 -103.272989 
L 37.336112 -103.252841 
L 36.825331 -103.231398 
L 36.314549 -103.208664 
L 35.803768 -103.184643 
L 35.292986 -103.159338 
L 34.782204 -103.132753 
L 34.271423 -103.104893 
L 33.760641 -103.075762 
L 33.24986 -103.045364 
L 32.739078 -103.013704 
L 32.228297 -102.980788 
L 31.717515 -102.946621 
L 31.206733 -102.911207 
L 30.695952 -102.874553 
L 30.18517 -102.836664 
L 29.674389 -102.797547 
L 29.163607 -102.757208 
L 28.652826 -102.715652 
L 28.142044 -102.672887 
L 27.631263 -102.62892 
L 27.120481 -102.583757 
L 26.609699 -102.537405 
L 26.098918 -102.489873 
L 25.588136 -102.441166 
L 25.077355 -102.391294 
L 24.566573 -102.340264 
L 24.055792 -102.288084 
L 23.54501 -102.234762 
L 23.034228 -102.180308 
L 22.523447 -102.124728 
L 22.012665 -102.068033 
L 21.501884 -102.010232 
L 20.991102 -101.951332 
L 20.480321 -101.891345 
L 19.969539 -101.830279 
L 19.458758 -101.768144 
L 18.947976 -101.704949 
L 18.437194 -101.640706 
L 17.926413 -101.575424 
L 17.415631 -101.509113 
L 16.90485 -101.441783 
L 16.394068 -101.373447 
L 15.883287 -101.304114 
L 15.372505 -101.233795 
L 14.861723 -101.162502 
L 14.350942 -101.090246 
L 13.84016 -101.017038 
L 13.329379 -100.94289 
L 12.818597 -100.867813 
L 12.307816 -100.79182 
L 11.797034 -100.714923 
L 11.286253 -100.637134 
L 10.775471 -100.558464 
L 10.264689 -100.478928 
L 9.753908 -100.398536 
L 9.243126 -100.317303 
L 8.732345 -100.235241 
L 8.221563 -100.152362 
L 7.710782 -100.06868 
L 7.2 -99.984209 
z
" style="stroke: #0000ff; stroke-opacity: 0.1"/>
    </defs>
    <g clip-path="url(#p179d4a2cd4)">
     <use xlink:href="#m82dc2f6f39" x="0" y="338.4" style="fill: #0000ff; fill-opacity: 0.1; stroke: #0000ff; stroke-opacity: 0.1"/>
    </g>
   </g>
   <g id="line2d_2">
    <g clip-path="url(#p179d4a2cd4)">
     <use xlink:href="#m13042af388" x="58.176" y="326.618182" style="stroke: #000000; stroke-width: 2"/>
     <use xlink:href="#m13042af388" x="58.176" y="259.973543" style="stroke: #000000; stroke-width: 2"/>
    </g>
   </g>
   <g id="line2d_3">
    <g clip-path="url(#p179d4a2cd4)">
     <use xlink:href="#m13042af388" x="134.64" y="326.618182" style="stroke: #000000; stroke-width: 2"/>
     <use xlink:href="#m13042af388" x="134.64" y="259.973543" style="stroke: #000000; stroke-width: 2"/>
    </g>
   </g>
   <g id="line2d_4">
    <g clip-path="url(#p179d4a2cd4)">
     <use xlink:href="#m13042af388" x="211.104" y="326.618182" style="stroke: #000000; stroke-width: 2"/>
     <use xlink:href="#m13042af388" x="211.104" y="259.973543" style="stroke: #000000; stroke-width: 2"/>
    </g>
   </g>
   <g id="patch_7">
    <path d="M 86.012568 305.791732 
Q 73.095001 305.791732 61.295467 305.791732 
" style="fill: none; stroke: #000000; stroke-linecap: round"/>
    <path d="M 65.295467 307.791732 
L 61.295467 305.791732 
L 65.295467 303.791732 
" style="fill: none; stroke: #000000; stroke-linecap: round"/>
   </g>
   <g id="text_3">
    <!-- $\Delta x$ -->
    <g transform="translate(90.008 308.551107)scale(0.1 -0.1)">
     <use xlink:href="#DejaVuSans-394" transform="translate(0 0.09375)"/>
     <use xlink:href="#DejaVuSans-Oblique-78" transform="translate(68.408203 0.09375)"/>
    </g>
   </g>
   <g id="patch_8">
    <path d="M 106.051873 305.791732 
Q 119.34612 305.791732 131.522333 305.791732 
" style="fill: none; stroke: #000000; stroke-linecap: round"/>
    <path d="M 127.522333 303.791732 
L 131.522333 305.791732 
L 127.522333 307.791732 
" style="fill: none; stroke: #000000; stroke-linecap: round"/>
   </g>
   <g id="patch_9">
    <path d="M 172.872 302.134824 
Q 172.872 313.376785 172.872 323.500713 
" style="fill: none; stroke: #000000; stroke-linecap: round"/>
    <path d="M 174.872 319.500713 
L 172.872 323.500713 
L 170.872 319.500713 
" style="fill: none; stroke: #000000; stroke-linecap: round"/>
   </g>
   <g id="text_4">
    <!-- $\Delta t$ -->
    <g transform="translate(167.472 296.055237)scale(0.1 -0.1)">
     <defs>
      <path id="DejaVuSans-Oblique-74" d="M 2706 3500 
L 2619 3053 
L 1472 3053 
L 1100 1153 
Q 1081 1047 1072 975 
Q 1063 903 1063 863 
Q 1063 663 1183 572 
Q 1303 481 1569 481 
L 2150 481 
L 2053 0 
L 1503 0 
Q 991 0 739 200 
Q 488 400 488 806 
Q 488 878 497 964 
Q 506 1050 525 1153 
L 897 3053 
L 409 3053 
L 500 3500 
L 978 3500 
L 1172 4494 
L 1747 4494 
L 1556 3500 
L 2706 3500 
z
" transform="scale(0.015625)"/>
     </defs>
     <use xlink:href="#DejaVuSans-394" transform="translate(0 0.09375)"/>
     <use xlink:href="#DejaVuSans-Oblique-74" transform="translate(68.408203 0.09375)"/>
    </g>
   </g>
   <g id="patch_10">
    <path d="M 172.872 284.630107 
Q 172.872 273.302595 172.872 263.093117 
" style="fill: none; stroke: #000000; stroke-linecap: round"/>
    <path d="M 170.872 267.093117 
L 172.872 263.093117 
L 174.872 267.093117 
" style="fill: none; stroke: #000000; stroke-linecap: round"/>
   </g>
  </g>
 </g>
 <defs>
  <clipPath id="p4d5e83ceb5">
   <rect x="7.2" y="7.2" width="254.88" height="100.8"/>
  </clipPath>
  <clipPath id="p6cea348e77">
   <rect x="7.2" y="118.8" width="254.88" height="100.8"/>
  </clipPath>
  <clipPath id="p179d4a2cd4">
   <rect x="7.2" y="230.4" width="254.88" height="100.8"/>
  </clipPath>
 </defs>
</svg>
