<?xml version="1.0" encoding="utf-8" standalone="no"?>
<!DOCTYPE svg PUBLIC "-//W3C//DTD SVG 1.1//EN"
  "http://www.w3.org/Graphics/SVG/1.1/DTD/svg11.dtd">
<svg xmlns:xlink="http://www.w3.org/1999/xlink" width="269.28pt" height="337.710125pt" viewBox="0 0 269.28 337.710125" xmlns="http://www.w3.org/2000/svg" version="1.1">
 <metadata>
  <rdf:RDF xmlns:dc="http://purl.org/dc/elements/1.1/" xmlns:cc="http://creativecommons.org/ns#" xmlns:rdf="http://www.w3.org/1999/02/22-rdf-syntax-ns#">
   <cc:Work>
    <dc:type rdf:resource="http://purl.org/dc/dcmitype/StillImage"/>
    <dc:date>2022-08-18T14:34:26.084749</dc:date>
    <dc:format>image/svg+xml</dc:format>
    <dc:creator>
     <cc:Agent>
      <dc:title>Matplotlib v3.5.2, https://matplotlib.org/</dc:title>
     </cc:Agent>
    </dc:creator>
   </cc:Work>
  </rdf:RDF>
 </metadata>
 <defs>
  <style type="text/css">*{stroke-linejoin: round; stroke-linecap: butt}</style>
 </defs>
 <g id="figure_1">
  <g id="patch_1">
   <path d="M 0 337.710125 
L 269.28 337.710125 
L 269.28 0 
L 0 0 
z
" style="fill: #ffffff"/>
  </g>
  <g id="axes_1">
   <g id="patch_2">
    <path d="M 7.2 90.632 
L 262.08 90.632 
L 262.08 7.2 
L 7.2 7.2 
z
" style="fill: #ffffff"/>
   </g>
   <g id="matplotlib.axis_1">
    <g id="xtick_1">
     <g id="line2d_1">
      <defs>
       <path id="mea016f5be1" d="M 0 0 
L 0 3.5 
" style="stroke: #000000; stroke-width: 0.8"/>
      </defs>
      <g>
       <use xlink:href="#mea016f5be1" x="28.44" y="90.632" style="stroke: #000000; stroke-width: 0.8"/>
      </g>
     </g>
     <g id="text_1">
      <!-- $x_{i-1}$ -->
      <g transform="translate(17.84 105.230437)scale(0.1 -0.1)">
       <defs>
        <path id="DejaVuSans-Oblique-78" d="M 3841 3500 
L 2234 1784 
L 3219 0 
L 2559 0 
L 1819 1388 
L 531 0 
L -166 0 
L 1556 1844 
L 641 3500 
L 1300 3500 
L 1972 2234 
L 3144 3500 
L 3841 3500 
z
" transform="scale(0.015625)"/>
        <path id="DejaVuSans-Oblique-69" d="M 1172 4863 
L 1747 4863 
L 1606 4134 
L 1031 4134 
L 1172 4863 
z
M 909 3500 
L 1484 3500 
L 800 0 
L 225 0 
L 909 3500 
z
" transform="scale(0.015625)"/>
        <path id="DejaVuSans-2212" d="M 678 2272 
L 4684 2272 
L 4684 1741 
L 678 1741 
L 678 2272 
z
" transform="scale(0.015625)"/>
        <path id="DejaVuSans-31" d="M 794 531 
L 1825 531 
L 1825 4091 
L 703 3866 
L 703 4441 
L 1819 4666 
L 2450 4666 
L 2450 531 
L 3481 531 
L 3481 0 
L 794 0 
L 794 531 
z
" transform="scale(0.015625)"/>
       </defs>
       <use xlink:href="#DejaVuSans-Oblique-78" transform="translate(0 0.3125)"/>
       <use xlink:href="#DejaVuSans-Oblique-69" transform="translate(59.179688 -16.09375)scale(0.7)"/>
       <use xlink:href="#DejaVuSans-2212" transform="translate(92.265625 -16.09375)scale(0.7)"/>
       <use xlink:href="#DejaVuSans-31" transform="translate(164.555664 -16.09375)scale(0.7)"/>
      </g>
     </g>
    </g>
    <g id="xtick_2">
     <g id="line2d_2">
      <g>
       <use xlink:href="#mea016f5be1" x="134.64" y="90.632" style="stroke: #000000; stroke-width: 0.8"/>
      </g>
     </g>
     <g id="text_2">
      <!-- $x_{i}$ -->
      <g transform="translate(130.54 105.230437)scale(0.1 -0.1)">
       <use xlink:href="#DejaVuSans-Oblique-78" transform="translate(0 0.3125)"/>
       <use xlink:href="#DejaVuSans-Oblique-69" transform="translate(59.179688 -16.09375)scale(0.7)"/>
      </g>
     </g>
    </g>
    <g id="xtick_3">
     <g id="line2d_3">
      <g>
       <use xlink:href="#mea016f5be1" x="240.84" y="90.632" style="stroke: #000000; stroke-width: 0.8"/>
      </g>
     </g>
     <g id="text_3">
      <!-- $x_{i+1}$ -->
      <g transform="translate(230.24 105.230437)scale(0.1 -0.1)">
       <defs>
        <path id="DejaVuSans-2b" d="M 2944 4013 
L 2944 2272 
L 4684 2272 
L 4684 1741 
L 2944 1741 
L 2944 0 
L 2419 0 
L 2419 1741 
L 678 1741 
L 678 2272 
L 2419 2272 
L 2419 4013 
L 2944 4013 
z
" transform="scale(0.015625)"/>
       </defs>
       <use xlink:href="#DejaVuSans-Oblique-78" transform="translate(0 0.3125)"/>
       <use xlink:href="#DejaVuSans-Oblique-69" transform="translate(59.179688 -16.09375)scale(0.7)"/>
       <use xlink:href="#DejaVuSans-2b" transform="translate(92.265625 -16.09375)scale(0.7)"/>
       <use xlink:href="#DejaVuSans-31" transform="translate(164.555664 -16.09375)scale(0.7)"/>
      </g>
     </g>
    </g>
   </g>
   <g id="matplotlib.axis_2"/>
   <g id="line2d_4">
    <path d="M 81.54 90.632 
L 81.54 15.5432 
" clip-path="url(#pea98e50b08)" style="fill: none; stroke-dasharray: 3.7,1.6; stroke-dashoffset: 0; stroke: #0000ff"/>
   </g>
   <g id="line2d_5">
    <path d="M 187.74 90.632 
L 187.74 15.5432 
" clip-path="url(#pea98e50b08)" style="fill: none; stroke-dasharray: 3.7,1.6; stroke-dashoffset: 0; stroke: #0000ff"/>
   </g>
   <g id="line2d_6">
    <path clip-path="url(#pea98e50b08)" style="fill: none; stroke-dasharray: 3.7,1.6; stroke-dashoffset: 0; stroke: #0000ff"/>
   </g>
   <g id="line2d_7">
    <path d="M 7.2 77.708249 
L 9.367347 76.996715 
L 11.534694 76.278673 
L 13.702041 75.55409 
L 15.869388 74.822932 
L 18.036735 74.085167 
L 20.204082 73.340763 
L 22.371428 72.589687 
L 24.538775 71.831907 
L 26.706122 71.067391 
L 28.873469 70.296107 
L 31.040816 69.518025 
L 33.208163 68.733112 
L 35.37551 67.941339 
L 37.542857 67.142674 
L 39.710204 66.337088 
L 41.877551 65.524551 
L 44.044898 64.705032 
L 46.212245 63.878503 
L 48.379591 63.044935 
L 50.546938 62.204299 
L 52.714285 61.356568 
L 54.881632 60.501713 
L 57.048979 59.639707 
L 59.216326 58.770524 
L 61.383673 57.894136 
L 63.55102 57.010519 
L 65.718367 56.119646 
L 67.885714 55.221492 
L 70.053061 54.316033 
L 72.220408 53.403246 
L 74.387754 52.483106 
L 76.555101 51.555591 
L 78.722448 50.620678 
L 80.889795 49.678346 
L 83.057142 48.728573 
L 85.224489 47.771339 
L 87.391836 46.806625 
L 89.559183 45.83441 
L 91.72653 44.854677 
L 93.893877 43.867408 
L 96.061224 42.872584 
L 98.228571 41.870191 
L 100.395917 40.860212 
L 102.563264 39.842632 
L 104.730611 38.817438 
L 106.897958 37.784615 
L 109.065305 36.744151 
L 111.232652 35.696035 
L 113.399999 34.640256 
" clip-path="url(#pea98e50b08)" style="fill: none; stroke: #000000; stroke-width: 2; stroke-linecap: square"/>
   </g>
   <g id="line2d_8">
    <path d="M 113.400001 24.720025 
L 116.434287 24.498995 
L 119.468572 24.311892 
L 122.502858 24.158757 
L 125.537144 24.039619 
L 128.57143 23.954503 
L 131.605715 23.903427 
L 134.640001 23.8864 
L 137.674287 23.903427 
L 140.708572 23.954503 
L 143.742858 24.039619 
L 146.777144 24.158757 
L 149.811429 24.311893 
L 152.845715 24.498995 
L 155.880001 24.720025 
L 158.914286 24.974939 
L 161.948572 25.263683 
L 164.982858 25.5862 
L 168.017144 25.942424 
L 171.051429 26.332281 
L 174.085715 26.755692 
L 177.120001 27.212571 
L 180.154286 27.702824 
L 183.188572 28.226352 
L 186.222858 28.783047 
L 189.257143 29.372797 
L 192.291429 29.99548 
L 195.325715 30.65097 
L 198.36 31.339132 
L 201.394286 32.059827 
L 204.428572 32.812907 
L 207.462858 33.598219 
L 210.497143 34.415602 
L 213.531429 35.264889 
L 216.565715 36.145908 
L 219.6 37.058478 
L 222.634286 38.002414 
L 225.668572 38.977522 
L 228.702857 39.983603 
L 231.737143 41.020453 
L 234.771429 42.087859 
L 237.805714 43.185604 
L 240.84 44.313463 
L 243.874286 45.471208 
L 246.908572 46.6586 
L 249.942857 47.875399 
L 252.977143 49.121355 
L 256.011429 50.396215 
L 259.045714 51.699718 
L 262.08 53.031598 
" clip-path="url(#pea98e50b08)" style="fill: none; stroke: #000000; stroke-width: 2; stroke-linecap: square"/>
   </g>
   <g id="line2d_9">
    <path d="M 113.4 34.640256 
L 113.4 24.720025 
" clip-path="url(#pea98e50b08)" style="fill: none; stroke-dasharray: 2,3.3; stroke-dashoffset: 0; stroke: #000000; stroke-width: 2"/>
   </g>
   <g id="patch_3">
    <path d="M 7.2 90.632 
L 262.08 90.632 
" style="fill: none; stroke: #000000; stroke-width: 0.8; stroke-linejoin: miter; stroke-linecap: square"/>
   </g>
  </g>
  <g id="axes_2">
   <g id="patch_4">
    <path d="M 7.2 202.232 
L 262.08 202.232 
L 262.08 118.8 
L 7.2 118.8 
z
" style="fill: #ffffff"/>
   </g>
   <g id="matplotlib.axis_3">
    <g id="xtick_4">
     <g id="line2d_10">
      <g>
       <use xlink:href="#mea016f5be1" x="28.44" y="202.232" style="stroke: #000000; stroke-width: 0.8"/>
      </g>
     </g>
     <g id="text_4">
      <!-- $x_{i-1}$ -->
      <g transform="translate(17.84 216.830438)scale(0.1 -0.1)">
       <use xlink:href="#DejaVuSans-Oblique-78" transform="translate(0 0.3125)"/>
       <use xlink:href="#DejaVuSans-Oblique-69" transform="translate(59.179688 -16.09375)scale(0.7)"/>
       <use xlink:href="#DejaVuSans-2212" transform="translate(92.265625 -16.09375)scale(0.7)"/>
       <use xlink:href="#DejaVuSans-31" transform="translate(164.555664 -16.09375)scale(0.7)"/>
      </g>
     </g>
    </g>
    <g id="xtick_5">
     <g id="line2d_11">
      <g>
       <use xlink:href="#mea016f5be1" x="134.64" y="202.232" style="stroke: #000000; stroke-width: 0.8"/>
      </g>
     </g>
     <g id="text_5">
      <!-- $x_{i}$ -->
      <g transform="translate(130.54 216.830438)scale(0.1 -0.1)">
       <use xlink:href="#DejaVuSans-Oblique-78" transform="translate(0 0.3125)"/>
       <use xlink:href="#DejaVuSans-Oblique-69" transform="translate(59.179688 -16.09375)scale(0.7)"/>
      </g>
     </g>
    </g>
    <g id="xtick_6">
     <g id="line2d_12">
      <g>
       <use xlink:href="#mea016f5be1" x="240.84" y="202.232" style="stroke: #000000; stroke-width: 0.8"/>
      </g>
     </g>
     <g id="text_6">
      <!-- $x_{i+1}$ -->
      <g transform="translate(230.24 216.830438)scale(0.1 -0.1)">
       <use xlink:href="#DejaVuSans-Oblique-78" transform="translate(0 0.3125)"/>
       <use xlink:href="#DejaVuSans-Oblique-69" transform="translate(59.179688 -16.09375)scale(0.7)"/>
       <use xlink:href="#DejaVuSans-2b" transform="translate(92.265625 -16.09375)scale(0.7)"/>
       <use xlink:href="#DejaVuSans-31" transform="translate(164.555664 -16.09375)scale(0.7)"/>
      </g>
     </g>
    </g>
   </g>
   <g id="matplotlib.axis_4"/>
   <g id="line2d_13">
    <path d="M 81.54 202.232 
L 81.54 127.1432 
" clip-path="url(#p2ee440be29)" style="fill: none; stroke-dasharray: 3.7,1.6; stroke-dashoffset: 0; stroke: #0000ff"/>
   </g>
   <g id="line2d_14">
    <path d="M 187.74 202.232 
L 187.74 127.1432 
" clip-path="url(#p2ee440be29)" style="fill: none; stroke-dasharray: 3.7,1.6; stroke-dashoffset: 0; stroke: #0000ff"/>
   </g>
   <g id="line2d_15">
    <path clip-path="url(#p2ee440be29)" style="fill: none; stroke-dasharray: 3.7,1.6; stroke-dashoffset: 0; stroke: #0000ff"/>
   </g>
   <g id="line2d_16">
    <path d="M -1 182.050907 
L 81.54 182.050907 
" clip-path="url(#p2ee440be29)" style="fill: none; stroke: #000000; stroke-width: 3; stroke-linecap: square"/>
   </g>
   <g id="line2d_17">
    <path d="M 81.54 135.4864 
L 187.74 135.4864 
" clip-path="url(#p2ee440be29)" style="fill: none; stroke: #000000; stroke-width: 3; stroke-linecap: square"/>
   </g>
   <g id="line2d_18">
    <path d="M 187.74 155.913463 
L 270.28 155.913463 
" clip-path="url(#p2ee440be29)" style="fill: none; stroke: #000000; stroke-width: 3; stroke-linecap: square"/>
   </g>
   <g id="patch_5">
    <path d="M 7.2 202.232 
L 262.08 202.232 
" style="fill: none; stroke: #000000; stroke-width: 0.8; stroke-linejoin: miter; stroke-linecap: square"/>
   </g>
  </g>
  <g id="axes_3">
   <g id="patch_6">
    <path d="M 7.2 313.832 
L 262.08 313.832 
L 262.08 230.4 
L 7.2 230.4 
z
" style="fill: #ffffff"/>
   </g>
   <g id="matplotlib.axis_5">
    <g id="xtick_7">
     <g id="line2d_19">
      <g>
       <use xlink:href="#mea016f5be1" x="28.44" y="313.832" style="stroke: #000000; stroke-width: 0.8"/>
      </g>
     </g>
     <g id="text_7">
      <!-- $x_{i-1}$ -->
      <g transform="translate(17.84 328.430437)scale(0.1 -0.1)">
       <use xlink:href="#DejaVuSans-Oblique-78" transform="translate(0 0.3125)"/>
       <use xlink:href="#DejaVuSans-Oblique-69" transform="translate(59.179688 -16.09375)scale(0.7)"/>
       <use xlink:href="#DejaVuSans-2212" transform="translate(92.265625 -16.09375)scale(0.7)"/>
       <use xlink:href="#DejaVuSans-31" transform="translate(164.555664 -16.09375)scale(0.7)"/>
      </g>
     </g>
    </g>
    <g id="xtick_8">
     <g id="line2d_20">
      <g>
       <use xlink:href="#mea016f5be1" x="134.64" y="313.832" style="stroke: #000000; stroke-width: 0.8"/>
      </g>
     </g>
     <g id="text_8">
      <!-- $x_{i}$ -->
      <g transform="translate(130.54 328.430437)scale(0.1 -0.1)">
       <use xlink:href="#DejaVuSans-Oblique-78" transform="translate(0 0.3125)"/>
       <use xlink:href="#DejaVuSans-Oblique-69" transform="translate(59.179688 -16.09375)scale(0.7)"/>
      </g>
     </g>
    </g>
    <g id="xtick_9">
     <g id="line2d_21">
      <g>
       <use xlink:href="#mea016f5be1" x="240.84" y="313.832" style="stroke: #000000; stroke-width: 0.8"/>
      </g>
     </g>
     <g id="text_9">
      <!-- $x_{i+1}$ -->
      <g transform="translate(230.24 328.430437)scale(0.1 -0.1)">
       <use xlink:href="#DejaVuSans-Oblique-78" transform="translate(0 0.3125)"/>
       <use xlink:href="#DejaVuSans-Oblique-69" transform="translate(59.179688 -16.09375)scale(0.7)"/>
       <use xlink:href="#DejaVuSans-2b" transform="translate(92.265625 -16.09375)scale(0.7)"/>
       <use xlink:href="#DejaVuSans-31" transform="translate(164.555664 -16.09375)scale(0.7)"/>
      </g>
     </g>
    </g>
   </g>
   <g id="matplotlib.axis_6"/>
   <g id="line2d_22">
    <path d="M 81.54 313.832 
L 81.54 238.7432 
" clip-path="url(#pc594a47409)" style="fill: none; stroke-dasharray: 3.7,1.6; stroke-dashoffset: 0; stroke: #0000ff"/>
   </g>
   <g id="line2d_23">
    <path d="M 187.74 313.832 
L 187.74 238.7432 
" clip-path="url(#pc594a47409)" style="fill: none; stroke-dasharray: 3.7,1.6; stroke-dashoffset: 0; stroke: #0000ff"/>
   </g>
   <g id="line2d_24">
    <path clip-path="url(#pc594a47409)" style="fill: none; stroke-dasharray: 3.7,1.6; stroke-dashoffset: 0; stroke: #0000ff"/>
   </g>
   <g id="line2d_25">
    <path d="M -1 293.650907 
L 81.54 293.650907 
" clip-path="url(#pc594a47409)" style="fill: none; stroke: #000000; stroke-width: 3; stroke-linecap: square"/>
   </g>
   <g id="line2d_26">
    <path d="M 81.54 247.0864 
L 187.74 247.0864 
" clip-path="url(#pc594a47409)" style="fill: none; stroke: #000000; stroke-width: 3; stroke-linecap: square"/>
   </g>
   <g id="line2d_27">
    <path d="M 187.74 267.513463 
L 270.28 267.513463 
" clip-path="url(#pc594a47409)" style="fill: none; stroke: #000000; stroke-width: 3; stroke-linecap: square"/>
   </g>
   <g id="patch_7">
    <path d="M 7.2 313.832 
L 262.08 313.832 
" style="fill: none; stroke: #000000; stroke-width: 0.8; stroke-linejoin: miter; stroke-linecap: square"/>
   </g>
   <g id="patch_8">
    <path d="M 90.114668 280.4592 
Q 80.5409 280.4592 67.613029 280.4592 
" style="fill: none; stroke: #000000; stroke-width: 3; stroke-linecap: round"/>
    <path d="M 86.114668 278.4592 
L 90.114668 280.4592 
L 86.114668 282.4592 
L 86.114668 278.4592 
z
" style="stroke: #000000; stroke-width: 3; stroke-linecap: round"/>
   </g>
   <g id="text_10">
    <!-- $f_{i-1/2}$ -->
    <g transform="translate(97.47 283.1092)scale(0.1 -0.1)">
     <defs>
      <path id="DejaVuSans-Oblique-66" d="M 3059 4863 
L 2969 4384 
L 2419 4384 
Q 2106 4384 1964 4261 
Q 1822 4138 1753 3809 
L 1691 3500 
L 2638 3500 
L 2553 3053 
L 1606 3053 
L 1013 0 
L 434 0 
L 1031 3053 
L 481 3053 
L 563 3500 
L 1113 3500 
L 1159 3744 
Q 1278 4363 1576 4613 
Q 1875 4863 2516 4863 
L 3059 4863 
z
" transform="scale(0.015625)"/>
      <path id="DejaVuSans-2f" d="M 1625 4666 
L 2156 4666 
L 531 -594 
L 0 -594 
L 1625 4666 
z
" transform="scale(0.015625)"/>
      <path id="DejaVuSans-32" d="M 1228 531 
L 3431 531 
L 3431 0 
L 469 0 
L 469 531 
Q 828 903 1448 1529 
Q 2069 2156 2228 2338 
Q 2531 2678 2651 2914 
Q 2772 3150 2772 3378 
Q 2772 3750 2511 3984 
Q 2250 4219 1831 4219 
Q 1534 4219 1204 4116 
Q 875 4013 500 3803 
L 500 4441 
Q 881 4594 1212 4672 
Q 1544 4750 1819 4750 
Q 2544 4750 2975 4387 
Q 3406 4025 3406 3419 
Q 3406 3131 3298 2873 
Q 3191 2616 2906 2266 
Q 2828 2175 2409 1742 
Q 1991 1309 1228 531 
z
" transform="scale(0.015625)"/>
     </defs>
     <use xlink:href="#DejaVuSans-Oblique-66" transform="translate(0 0.015625)"/>
     <use xlink:href="#DejaVuSans-Oblique-69" transform="translate(35.205078 -16.390625)scale(0.7)"/>
     <use xlink:href="#DejaVuSans-2212" transform="translate(68.291016 -16.390625)scale(0.7)"/>
     <use xlink:href="#DejaVuSans-31" transform="translate(140.581055 -16.390625)scale(0.7)"/>
     <use xlink:href="#DejaVuSans-2f" transform="translate(185.117188 -16.390625)scale(0.7)"/>
     <use xlink:href="#DejaVuSans-32" transform="translate(206.163672 -16.390625)scale(0.7)"/>
    </g>
   </g>
   <g id="patch_9">
    <path d="M 196.314668 280.4592 
Q 186.7409 280.4592 173.813029 280.4592 
" style="fill: none; stroke: #000000; stroke-width: 3; stroke-linecap: round"/>
    <path d="M 192.314668 278.4592 
L 196.314668 280.4592 
L 192.314668 282.4592 
L 192.314668 278.4592 
z
" style="stroke: #000000; stroke-width: 3; stroke-linecap: round"/>
   </g>
   <g id="text_11">
    <!-- $f_{i+1/2}$ -->
    <g transform="translate(203.67 283.1092)scale(0.1 -0.1)">
     <use xlink:href="#DejaVuSans-Oblique-66" transform="translate(0 0.015625)"/>
     <use xlink:href="#DejaVuSans-Oblique-69" transform="translate(35.205078 -16.390625)scale(0.7)"/>
     <use xlink:href="#DejaVuSans-2b" transform="translate(68.291016 -16.390625)scale(0.7)"/>
     <use xlink:href="#DejaVuSans-31" transform="translate(140.581055 -16.390625)scale(0.7)"/>
     <use xlink:href="#DejaVuSans-2f" transform="translate(185.117188 -16.390625)scale(0.7)"/>
     <use xlink:href="#DejaVuSans-32" transform="translate(206.163672 -16.390625)scale(0.7)"/>
    </g>
   </g>
  </g>
 </g>
 <defs>
  <clipPath id="pea98e50b08">
   <rect x="7.2" y="7.2" width="254.88" height="83.432"/>
  </clipPath>
  <clipPath id="p2ee440be29">
   <rect x="7.2" y="118.8" width="254.88" height="83.432"/>
  </clipPath>
  <clipPath id="pc594a47409">
   <rect x="7.2" y="230.4" width="254.88" height="83.432"/>
  </clipPath>
 </defs>
</svg>
