<?xml version="1.0" encoding="utf-8" standalone="no"?>
<!DOCTYPE svg PUBLIC "-//W3C//DTD SVG 1.1//EN"
  "http://www.w3.org/Graphics/SVG/1.1/DTD/svg11.dtd">
<svg xmlns:xlink="http://www.w3.org/1999/xlink" width="440.39952pt" height="440.39952pt" viewBox="0 0 440.39952 440.39952" xmlns="http://www.w3.org/2000/svg" version="1.1">
 <metadata>
  <rdf:RDF xmlns:dc="http://purl.org/dc/elements/1.1/" xmlns:cc="http://creativecommons.org/ns#" xmlns:rdf="http://www.w3.org/1999/02/22-rdf-syntax-ns#">
   <cc:Work>
    <dc:type rdf:resource="http://purl.org/dc/dcmitype/StillImage"/>
    <dc:date>2022-03-01T10:38:55.216251</dc:date>
    <dc:format>image/svg+xml</dc:format>
    <dc:creator>
     <cc:Agent>
      <dc:title>Matplotlib v3.5.1, https://matplotlib.org/</dc:title>
     </cc:Agent>
    </dc:creator>
   </cc:Work>
  </rdf:RDF>
 </metadata>
 <defs>
  <style type="text/css">*{stroke-linejoin: round; stroke-linecap: butt}</style>
 </defs>
 <g id="figure_1">
  <g id="patch_1">
   <path d="M 0 440.39952 
L 440.39952 440.39952 
L 440.39952 0 
L 0 0 
L 0 440.39952 
z
" style="fill: none"/>
  </g>
  <g id="patch_2">
   <path d="M 7.2 433.19952 
L 433.19952 433.19952 
L 433.19952 7.2 
L 7.2 7.2 
z
" style="fill: #ffffff"/>
  </g>
  <g id="axes_1">
   <g id="line2d_1">
    <path d="M 167.488473 321.259172 
L 168.353867 316.590004 
L 169.211567 311.962349 
L 170.061675 307.375657 
L 170.904292 302.829384 
L 171.739515 298.323 
L 172.567442 293.855982 
L 173.388169 289.427816 
L 174.201788 285.037998 
L 175.008391 280.686031 
L 175.80807 276.371428 
L 176.600912 272.09371 
L 177.387005 267.852406 
L 178.166434 263.647054 
L 178.939285 259.477197 
L 179.70564 255.342388 
L 180.465581 251.242187 
L 181.219187 247.176162 
L 181.966538 243.143888 
L 182.707711 239.144944 
L 183.442783 235.178921 
L 184.171829 231.245413 
L 184.894921 227.344022 
L 185.612134 223.474356 
L 186.323538 219.63603 
L 187.029204 215.828664 
L 187.729201 212.051886 
L 188.423596 208.305328 
L 189.112458 204.588629 
L 189.795851 200.901434 
L 190.473841 197.243393 
L 191.146491 193.614161 
L 191.813864 190.013399 
L 192.476023 186.440773 
L 193.133028 182.895956 
L 193.784938 179.378623 
L 194.431814 175.888456 
L 195.073712 172.425142 
L 195.710691 168.988372 
L 196.342806 165.577842 
L 196.970114 162.193253 
L 197.592668 158.834309 
L 198.210523 155.500721 
L 198.823732 152.192202 
L 199.432346 148.908471 
L 200.036417 145.64925 
L 200.635997 142.414265 
L 201.231134 139.203248 
L 201.821878 136.015933 
L 202.408278 132.852058 
" clip-path="url(#pdd9ecc69f1)" style="fill: none; stroke: #000000; stroke-width: 2; stroke-linecap: square"/>
   </g>
   <g id="line2d_2">
    <path d="M 226.977175 321.259172 
L 226.3683 316.590004 
L 225.764839 311.962349 
L 225.16672 307.375657 
L 224.573871 302.829384 
L 223.986224 298.323 
L 223.40371 293.855982 
L 222.826263 289.427816 
L 222.253817 285.037998 
L 221.686306 280.686031 
L 221.123668 276.371428 
L 220.56584 272.09371 
L 220.01276 267.852406 
L 219.464368 263.647054 
L 218.920606 259.477197 
L 218.381413 255.342388 
L 217.846734 251.242187 
L 217.316511 247.176162 
L 216.790689 243.143888 
L 216.269214 239.144944 
L 215.752032 235.178921 
L 215.23909 231.245413 
L 214.730336 227.344022 
L 214.225719 223.474356 
L 213.725189 219.63603 
L 213.228696 215.828664 
L 212.736192 212.051886 
L 212.247628 208.305328 
L 211.762959 204.588629 
L 211.282137 200.901434 
L 210.805116 197.243393 
L 210.331853 193.614161 
L 209.862302 190.013399 
L 209.39642 186.440773 
L 208.934164 182.895956 
L 208.475493 179.378623 
L 208.020364 175.888456 
L 207.568736 172.425142 
L 207.12057 168.988372 
L 206.675826 165.577842 
L 206.234465 162.193253 
L 205.796448 158.834309 
L 205.361737 155.500721 
L 204.930295 152.192202 
L 204.502086 148.908471 
L 204.077073 145.64925 
L 203.655221 142.414265 
L 203.236494 139.203248 
L 202.820858 136.015933 
L 202.408278 132.852058 
" clip-path="url(#pdd9ecc69f1)" style="fill: none; stroke: #000000; stroke-width: 2; stroke-linecap: square"/>
   </g>
   <g id="line2d_3">
    <path d="M 326.222398 276.158621 
L 324.079042 273.67783 
L 321.92209 271.181302 
L 319.751412 268.668887 
L 317.566877 266.140434 
L 315.368352 263.595789 
L 313.155702 261.034794 
L 310.92879 258.457293 
L 308.687479 255.863125 
L 306.431627 253.252127 
L 304.161093 250.624136 
L 301.875734 247.978986 
L 299.575403 245.316507 
L 297.259953 242.636528 
L 294.929234 239.938877 
L 292.583096 237.223378 
L 290.221383 234.489854 
L 287.843941 231.738124 
L 285.450613 228.968007 
L 283.041237 226.179316 
L 280.615653 223.371864 
L 278.173696 220.545463 
L 275.7152 217.699918 
L 273.239997 214.835035 
L 270.747915 211.950617 
L 268.238781 209.046462 
L 265.712419 206.122368 
L 263.168652 203.178128 
L 260.607299 200.213533 
L 258.028177 197.228372 
L 255.431101 194.22243 
L 252.815882 191.195489 
L 250.18233 188.147328 
L 247.53025 185.077723 
L 244.859448 181.986448 
L 242.169723 178.873272 
L 239.460875 175.737961 
L 236.732698 172.580279 
L 233.984985 169.399985 
L 231.217525 166.196835 
L 228.430105 162.970582 
L 225.622507 159.720976 
L 222.794513 156.447762 
L 219.945899 153.150681 
L 217.076438 149.829472 
L 214.185901 146.483869 
L 211.274054 143.113602 
L 208.340663 139.718397 
L 205.385485 136.297976 
L 202.408278 132.852058 
" clip-path="url(#pdd9ecc69f1)" style="fill: none; stroke: #000000; stroke-width: 2; stroke-linecap: square"/>
   </g>
   <g id="line2d_4">
    <path d="M 85.867283 276.158621 
L 87.884734 273.67783 
L 89.914982 271.181302 
L 91.958149 268.668887 
L 94.014359 266.140434 
L 96.083738 263.595789 
L 98.166412 261.034794 
L 100.262509 258.457293 
L 102.372161 255.863125 
L 104.495499 253.252127 
L 106.632656 250.624136 
L 108.783769 247.978986 
L 110.948973 245.316507 
L 113.128408 242.636528 
L 115.322215 239.938877 
L 117.530536 237.223378 
L 119.753516 234.489854 
L 121.991301 231.738124 
L 124.24404 228.968007 
L 126.511884 226.179316 
L 128.794983 223.371864 
L 131.093494 220.545463 
L 133.407572 217.699918 
L 135.737377 214.835035 
L 138.083068 211.950617 
L 140.44481 209.046462 
L 142.822767 206.122368 
L 145.217107 203.178128 
L 147.628001 200.213533 
L 150.055619 197.228372 
L 152.500137 194.22243 
L 154.961732 191.195489 
L 157.440584 188.147328 
L 159.936874 185.077723 
L 162.450787 181.986448 
L 164.982511 178.873272 
L 167.532236 175.737961 
L 170.100153 172.580279 
L 172.686459 169.399985 
L 175.291352 166.196835 
L 177.915033 162.970582 
L 180.557706 159.720976 
L 183.219577 156.447762 
L 185.900858 153.150681 
L 188.60176 149.829472 
L 191.3225 146.483869 
L 194.063298 143.113602 
L 196.824375 139.718397 
L 199.605959 136.297976 
L 202.408278 132.852058 
" clip-path="url(#pdd9ecc69f1)" style="fill: none; stroke: #000000; stroke-width: 2; stroke-linecap: square"/>
   </g>
   <g id="line2d_5">
    <path d="M 167.488473 321.259172 
L 226.977175 321.259172 
" clip-path="url(#pdd9ecc69f1)" style="fill: none; stroke: #000000; stroke-width: 2; stroke-linecap: square"/>
   </g>
   <g id="line2d_6">
    <path d="M 226.977175 321.259172 
L 326.222398 276.158621 
" clip-path="url(#pdd9ecc69f1)" style="fill: none; stroke: #000000; stroke-width: 2; stroke-linecap: square"/>
   </g>
   <g id="line2d_7">
    <path d="M 326.222398 276.158621 
L 85.867283 276.158621 
" clip-path="url(#pdd9ecc69f1)" style="fill: none; stroke-dasharray: 7.4,3.2; stroke-dashoffset: 0; stroke: #000000; stroke-width: 2"/>
   </g>
   <g id="line2d_8">
    <path d="M 85.867283 276.158621 
L 167.488473 321.259172 
" clip-path="url(#pdd9ecc69f1)" style="fill: none; stroke: #000000; stroke-width: 2; stroke-linecap: square"/>
   </g>
   <g id="Path3DCollection_1">
    <defs>
     <path id="mbb64202306" d="M 0 3.535534 
C 0.937635 3.535534 1.836992 3.163008 2.5 2.5 
C 3.163008 1.836992 3.535534 0.937635 3.535534 0 
C 3.535534 -0.937635 3.163008 -1.836992 2.5 -2.5 
C 1.836992 -3.163008 0.937635 -3.535534 0 -3.535534 
C -0.937635 -3.535534 -1.836992 -3.163008 -2.5 -2.5 
C -3.163008 -1.836992 -3.535534 -0.937635 -3.535534 0 
C -3.535534 0.937635 -3.163008 1.836992 -2.5 2.5 
C -1.836992 3.163008 -0.937635 3.535534 0 3.535534 
z
" style="stroke: #1f77b4"/>
    </defs>
    <g clip-path="url(#pdd9ecc69f1)">
     <use xlink:href="#mbb64202306" x="202.408278" y="132.852058" style="fill: #1f77b4; stroke: #1f77b4"/>
    </g>
   </g>
   <g id="patch_3">
    <path d="M 304.425944 210.681584 
Q 267.642931 149.255588 228.346082 206.410778 
" clip-path="url(#pdd9ecc69f1)" style="fill: none; stroke-dasharray: 7.4,3.2; stroke-dashoffset: 0; stroke: #0000ff; stroke-width: 2; stroke-linecap: round"/>
    <path d="M 236.174617 202.084805 
L 228.346082 206.410778 
L 229.582424 197.552366 
L 236.174617 202.084805 
z
" clip-path="url(#pdd9ecc69f1)" style="fill: #0000ff; stroke-dasharray: 7.4,3.2; stroke-dashoffset: 0; stroke: #0000ff; stroke-width: 2; stroke-linecap: round"/>
   </g>
   <g id="text_1">
    <!-- $F_5$ -->
    <g transform="translate(299.158279 315.911204)scale(0.16 -0.16)">
     <defs>
      <path id="DejaVuSans-Oblique-46" d="M 1081 4666 
L 3756 4666 
L 3653 4134 
L 1606 4134 
L 1338 2759 
L 3188 2759 
L 3084 2228 
L 1234 2228 
L 800 0 
L 172 0 
L 1081 4666 
z
" transform="scale(0.015625)"/>
      <path id="DejaVuSans-35" d="M 691 4666 
L 3169 4666 
L 3169 4134 
L 1269 4134 
L 1269 2991 
Q 1406 3038 1543 3061 
Q 1681 3084 1819 3084 
Q 2600 3084 3056 2656 
Q 3513 2228 3513 1497 
Q 3513 744 3044 326 
Q 2575 -91 1722 -91 
Q 1428 -91 1123 -41 
Q 819 9 494 109 
L 494 744 
Q 775 591 1075 516 
Q 1375 441 1709 441 
Q 2250 441 2565 725 
Q 2881 1009 2881 1497 
Q 2881 1984 2565 2268 
Q 2250 2553 1709 2553 
Q 1456 2553 1204 2497 
Q 953 2441 691 2322 
L 691 4666 
z
" transform="scale(0.015625)"/>
     </defs>
     <use xlink:href="#DejaVuSans-Oblique-46" transform="translate(0 0.09375)"/>
     <use xlink:href="#DejaVuSans-35" transform="translate(57.519531 -16.3125)scale(0.7)"/>
    </g>
   </g>
   <g id="text_2">
    <!-- $F_4$ -->
    <g transform="translate(305.433272 228.013096)scale(0.16 -0.16)">
     <defs>
      <path id="DejaVuSans-34" d="M 2419 4116 
L 825 1625 
L 2419 1625 
L 2419 4116 
z
M 2253 4666 
L 3047 4666 
L 3047 1625 
L 3713 1625 
L 3713 1100 
L 3047 1100 
L 3047 0 
L 2419 0 
L 2419 1100 
L 313 1100 
L 313 1709 
L 2253 4666 
z
" transform="scale(0.015625)"/>
     </defs>
     <use xlink:href="#DejaVuSans-Oblique-46" transform="translate(0 0.09375)"/>
     <use xlink:href="#DejaVuSans-34" transform="translate(57.519531 -16.3125)scale(0.7)"/>
    </g>
   </g>
   <g id="text_3">
    <!-- $F_1$ -->
    <g transform="translate(123.784192 243.618773)scale(0.16 -0.16)">
     <defs>
      <path id="DejaVuSans-31" d="M 794 531 
L 1825 531 
L 1825 4091 
L 703 3866 
L 703 4441 
L 1819 4666 
L 2450 4666 
L 2450 531 
L 3481 531 
L 3481 0 
L 794 0 
L 794 531 
z
" transform="scale(0.015625)"/>
     </defs>
     <use xlink:href="#DejaVuSans-Oblique-46" transform="translate(0 0.09375)"/>
     <use xlink:href="#DejaVuSans-31" transform="translate(57.519531 -16.3125)scale(0.7)"/>
    </g>
   </g>
   <g id="text_4">
    <!-- $F_3$ -->
    <g transform="translate(260.01395 243.618773)scale(0.16 -0.16)">
     <defs>
      <path id="DejaVuSans-33" d="M 2597 2516 
Q 3050 2419 3304 2112 
Q 3559 1806 3559 1356 
Q 3559 666 3084 287 
Q 2609 -91 1734 -91 
Q 1441 -91 1130 -33 
Q 819 25 488 141 
L 488 750 
Q 750 597 1062 519 
Q 1375 441 1716 441 
Q 2309 441 2620 675 
Q 2931 909 2931 1356 
Q 2931 1769 2642 2001 
Q 2353 2234 1838 2234 
L 1294 2234 
L 1294 2753 
L 1863 2753 
Q 2328 2753 2575 2939 
Q 2822 3125 2822 3475 
Q 2822 3834 2567 4026 
Q 2313 4219 1838 4219 
Q 1578 4219 1281 4162 
Q 984 4106 628 3988 
L 628 4550 
Q 988 4650 1302 4700 
Q 1616 4750 1894 4750 
Q 2613 4750 3031 4423 
Q 3450 4097 3450 3541 
Q 3450 3153 3228 2886 
Q 3006 2619 2597 2516 
z
" transform="scale(0.015625)"/>
     </defs>
     <use xlink:href="#DejaVuSans-Oblique-46" transform="translate(0 0.09375)"/>
     <use xlink:href="#DejaVuSans-33" transform="translate(57.519531 -16.3125)scale(0.7)"/>
    </g>
   </g>
   <g id="text_5">
    <!-- $F_2$ -->
    <g transform="translate(198.448162 305.581546)scale(0.16 -0.16)">
     <defs>
      <path id="DejaVuSans-32" d="M 1228 531 
L 3431 531 
L 3431 0 
L 469 0 
L 469 531 
Q 828 903 1448 1529 
Q 2069 2156 2228 2338 
Q 2531 2678 2651 2914 
Q 2772 3150 2772 3378 
Q 2772 3750 2511 3984 
Q 2250 4219 1831 4219 
Q 1534 4219 1204 4116 
Q 875 4013 500 3803 
L 500 4441 
Q 881 4594 1212 4672 
Q 1544 4750 1819 4750 
Q 2544 4750 2975 4387 
Q 3406 4025 3406 3419 
Q 3406 3131 3298 2873 
Q 3191 2616 2906 2266 
Q 2828 2175 2409 1742 
Q 1991 1309 1228 531 
z
" transform="scale(0.015625)"/>
     </defs>
     <use xlink:href="#DejaVuSans-Oblique-46" transform="translate(0 0.09375)"/>
     <use xlink:href="#DejaVuSans-32" transform="translate(57.519531 -16.3125)scale(0.7)"/>
    </g>
   </g>
   <g id="text_6">
    <!-- $x$ -->
    <g transform="translate(214.183116 140.950039)scale(0.16 -0.16)">
     <defs>
      <path id="DejaVuSans-Oblique-78" d="M 3841 3500 
L 2234 1784 
L 3219 0 
L 2559 0 
L 1819 1388 
L 531 0 
L -166 0 
L 1556 1844 
L 641 3500 
L 1300 3500 
L 1972 2234 
L 3144 3500 
L 3841 3500 
z
" transform="scale(0.015625)"/>
     </defs>
     <use xlink:href="#DejaVuSans-Oblique-78" transform="translate(0 0.3125)"/>
    </g>
   </g>
   <g id="patch_4">
    <path d="M 297.17571 312.784872 
Q 267.668787 315.719006 251.1799 293.816847 
" clip-path="url(#pdd9ecc69f1)" style="fill: none; stroke-dasharray: 7.4,3.2; stroke-dashoffset: 0; stroke: #0000ff; stroke-width: 2; stroke-linecap: round"/>
    <path d="M 252.795887 302.613925 
L 251.1799 293.816847 
L 259.187155 297.802304 
L 252.795887 302.613925 
z
" clip-path="url(#pdd9ecc69f1)" style="fill: #0000ff; stroke-dasharray: 7.4,3.2; stroke-dashoffset: 0; stroke: #0000ff; stroke-width: 2; stroke-linecap: round"/>
   </g>
  </g>
 </g>
 <defs>
  <clipPath id="pdd9ecc69f1">
   <rect x="7.2" y="7.2" width="425.99952" height="425.99952"/>
  </clipPath>
 </defs>
</svg>
